<?xml version="1.0" encoding="UTF-8" standalone="no"?>
<!DOCTYPE svg PUBLIC "-//W3C//DTD SVG 1.1//EN"
 "http://www.w3.org/Graphics/SVG/1.1/DTD/svg11.dtd">
<!-- Generated by graphviz version 2.43.0 (0)
 -->
<!-- Title: /home/jenkins/agent/workspace/ild&#45;documentation_release_v3.5.0/sdk/c/ifxAlgo/Algo.h Pages: 1 -->
<svg width="883pt" height="386pt"
 viewBox="0.00 0.00 882.50 386.00" xmlns="http://www.w3.org/2000/svg" xmlns:xlink="http://www.w3.org/1999/xlink">
<g id="graph0" class="graph" transform="scale(1 1) rotate(0) translate(4 382)">
<title>/home/jenkins/agent/workspace/ild&#45;documentation_release_v3.5.0/sdk/c/ifxAlgo/Algo.h</title>
<polygon fill="white" stroke="transparent" points="-4,4 -4,-382 878.5,-382 878.5,4 -4,4"/>
<!-- Node1 -->
<g id="node1" class="node">
<title>Node1</title>
<g id="a_node1"><a xlink:title="Header for ifxAlgo.">
<polygon fill="#bfbfbf" stroke="black" points="302,-336.5 302,-377.5 495,-377.5 495,-336.5 302,-336.5"/>
<text text-anchor="start" x="310" y="-365.5" font-family="Helvetica,sans-Serif" font-size="10.00">/home/jenkins/agent</text>
<text text-anchor="start" x="310" y="-354.5" font-family="Helvetica,sans-Serif" font-size="10.00">/workspace/ild&#45;documentation</text>
<text text-anchor="middle" x="398.5" y="-343.5" font-family="Helvetica,sans-Serif" font-size="10.00">_release_v3.5.0/sdk/c/ifxAlgo/Algo.h</text>
</a>
</g>
</g>
<!-- Node2 -->
<g id="node2" class="node">
<title>Node2</title>
<g id="a_node2"><a xlink:href="2_d_m_t_i_8h.html" target="_top" xlink:title="API for 2D Moving Target Indicator filter (2DMTI)">
<polygon fill="white" stroke="black" points="230,-280.5 230,-299.5 325,-299.5 325,-280.5 230,-280.5"/>
<text text-anchor="middle" x="277.5" y="-287.5" font-family="Helvetica,sans-Serif" font-size="10.00">ifxAlgo/2DMTI.h</text>
</a>
</g>
</g>
<!-- Node1&#45;&gt;Node2 -->
<g id="edge1" class="edge">
<title>Node1&#45;&gt;Node2</title>
<path fill="none" stroke="midnightblue" d="M362.2,-336.5C342.93,-326.15 319.75,-313.69 302.51,-304.43"/>
<polygon fill="midnightblue" stroke="midnightblue" points="304.07,-301.3 293.61,-299.65 300.76,-307.47 304.07,-301.3"/>
</g>
<!-- Node11 -->
<g id="node11" class="node">
<title>Node11</title>
<g id="a_node11"><a xlink:href="_d_b_s_c_a_n_8h.html" target="_top" xlink:title="API for Density&#45;based spatial clustering of applications with noise (DBSCAN) algorithm.">
<polygon fill="white" stroke="black" points="770.5,-168.5 770.5,-187.5 874.5,-187.5 874.5,-168.5 770.5,-168.5"/>
<text text-anchor="middle" x="822.5" y="-175.5" font-family="Helvetica,sans-Serif" font-size="10.00">ifxAlgo/DBSCAN.h</text>
</a>
</g>
</g>
<!-- Node1&#45;&gt;Node11 -->
<g id="edge14" class="edge">
<title>Node1&#45;&gt;Node11</title>
<path fill="none" stroke="midnightblue" d="M495.23,-342.15C571.58,-327.55 677.97,-298.75 756.5,-244 776.6,-229.99 796.16,-209.63 808.69,-195.44"/>
<polygon fill="midnightblue" stroke="midnightblue" points="811.65,-197.37 815.54,-187.52 806.35,-192.8 811.65,-197.37"/>
</g>
<!-- Node12 -->
<g id="node12" class="node">
<title>Node12</title>
<g id="a_node12"><a xlink:href="_f_f_t_8h.html" target="_top" xlink:title="API for Fast Fourier Transform (FFT)">
<polygon fill="white" stroke="black" points="406.5,-224.5 406.5,-243.5 486.5,-243.5 486.5,-224.5 406.5,-224.5"/>
<text text-anchor="middle" x="446.5" y="-231.5" font-family="Helvetica,sans-Serif" font-size="10.00">ifxAlgo/FFT.h</text>
</a>
</g>
</g>
<!-- Node1&#45;&gt;Node12 -->
<g id="edge16" class="edge">
<title>Node1&#45;&gt;Node12</title>
<path fill="none" stroke="midnightblue" d="M406.32,-336.29C415.45,-313.27 430.43,-275.5 439.29,-253.17"/>
<polygon fill="midnightblue" stroke="midnightblue" points="442.66,-254.16 443.1,-243.57 436.16,-251.58 442.66,-254.16"/>
</g>
<!-- Node13 -->
<g id="node13" class="node">
<title>Node13</title>
<g id="a_node13"><a xlink:href="_m_t_i_8h.html" target="_top" xlink:title="API for Moving Target Indicator (MTI) filter.">
<polygon fill="white" stroke="black" points="269,-224.5 269,-243.5 350,-243.5 350,-224.5 269,-224.5"/>
<text text-anchor="middle" x="309.5" y="-231.5" font-family="Helvetica,sans-Serif" font-size="10.00">ifxAlgo/MTI.h</text>
</a>
</g>
</g>
<!-- Node1&#45;&gt;Node13 -->
<g id="edge19" class="edge">
<title>Node1&#45;&gt;Node13</title>
<path fill="none" stroke="midnightblue" d="M384,-336.29C366.69,-312.75 338.02,-273.78 321.76,-251.67"/>
<polygon fill="midnightblue" stroke="midnightblue" points="324.55,-249.56 315.81,-243.57 318.91,-253.7 324.55,-249.56"/>
</g>
<!-- Node14 -->
<g id="node14" class="node">
<title>Node14</title>
<g id="a_node14"><a xlink:href="_o_s_c_f_a_r_8h.html" target="_top" xlink:title="API for 2D ordered statistic constant false alarm rate (OS&#45;CFAR) algorithm.">
<polygon fill="white" stroke="black" points="0,-280.5 0,-299.5 101,-299.5 101,-280.5 0,-280.5"/>
<text text-anchor="middle" x="50.5" y="-287.5" font-family="Helvetica,sans-Serif" font-size="10.00">ifxAlgo/OSCFAR.h</text>
</a>
</g>
</g>
<!-- Node1&#45;&gt;Node14 -->
<g id="edge22" class="edge">
<title>Node1&#45;&gt;Node14</title>
<path fill="none" stroke="midnightblue" d="M301.56,-337.89C238.59,-326.13 158.74,-311.22 106.21,-301.41"/>
<polygon fill="midnightblue" stroke="midnightblue" points="106.55,-297.91 96.08,-299.51 105.27,-304.79 106.55,-297.91"/>
</g>
<!-- Node15 -->
<g id="node15" class="node">
<title>Node15</title>
<g id="a_node15"><a xlink:href="_preprocessed_f_f_t_8h.html" target="_top" xlink:title="API for Pre&#45;processed FFT.">
<polygon fill="white" stroke="black" points="483,-280.5 483,-299.5 628,-299.5 628,-280.5 483,-280.5"/>
<text text-anchor="middle" x="555.5" y="-287.5" font-family="Helvetica,sans-Serif" font-size="10.00">ifxAlgo/PreprocessedFFT.h</text>
</a>
</g>
</g>
<!-- Node1&#45;&gt;Node15 -->
<g id="edge25" class="edge">
<title>Node1&#45;&gt;Node15</title>
<path fill="none" stroke="midnightblue" d="M445.61,-336.5C471.41,-325.81 502.64,-312.89 525.2,-303.54"/>
<polygon fill="midnightblue" stroke="midnightblue" points="526.7,-306.71 534.6,-299.65 524.02,-300.24 526.7,-306.71"/>
</g>
<!-- Node16 -->
<g id="node16" class="node">
<title>Node16</title>
<g id="a_node16"><a xlink:href="_window_8h.html" target="_top" xlink:title="API for Window function processing.">
<polygon fill="white" stroke="black" points="505,-224.5 505,-243.5 606,-243.5 606,-224.5 505,-224.5"/>
<text text-anchor="middle" x="555.5" y="-231.5" font-family="Helvetica,sans-Serif" font-size="10.00">ifxAlgo/Window.h</text>
</a>
</g>
</g>
<!-- Node1&#45;&gt;Node16 -->
<g id="edge38" class="edge">
<title>Node1&#45;&gt;Node16</title>
<path fill="none" stroke="midnightblue" d="M415.02,-336.32C429.38,-319.97 451.31,-296.76 473.5,-280 490.18,-267.4 510.82,-256.09 527.22,-247.96"/>
<polygon fill="midnightblue" stroke="midnightblue" points="528.85,-251.07 536.32,-243.56 525.8,-244.76 528.85,-251.07"/>
</g>
<!-- Node18 -->
<g id="node18" class="node">
<title>Node18</title>
<g id="a_node18"><a xlink:href="_signal_8h.html" target="_top" xlink:title="API for digital filtering operations.">
<polygon fill="white" stroke="black" points="119,-280.5 119,-299.5 212,-299.5 212,-280.5 119,-280.5"/>
<text text-anchor="middle" x="165.5" y="-287.5" font-family="Helvetica,sans-Serif" font-size="10.00">ifxAlgo/Signal.h</text>
</a>
</g>
</g>
<!-- Node1&#45;&gt;Node18 -->
<g id="edge34" class="edge">
<title>Node1&#45;&gt;Node18</title>
<path fill="none" stroke="midnightblue" d="M328.59,-336.5C288.63,-325.35 239.9,-311.76 206.17,-302.35"/>
<polygon fill="midnightblue" stroke="midnightblue" points="206.78,-298.88 196.21,-299.57 204.9,-305.63 206.78,-298.88"/>
</g>
<!-- Node3 -->
<g id="node3" class="node">
<title>Node3</title>
<g id="a_node3"><a xlink:href="_matrix_8h.html" target="_top" xlink:title="API for operations on Matrix data structures.">
<polygon fill="white" stroke="black" points="115,-224.5 115,-243.5 212,-243.5 212,-224.5 115,-224.5"/>
<text text-anchor="middle" x="163.5" y="-231.5" font-family="Helvetica,sans-Serif" font-size="10.00">ifxBase/Matrix.h</text>
</a>
</g>
</g>
<!-- Node2&#45;&gt;Node3 -->
<g id="edge2" class="edge">
<title>Node2&#45;&gt;Node3</title>
<path fill="none" stroke="midnightblue" d="M259.44,-280.44C240.93,-271.68 211.92,-257.94 190.64,-247.86"/>
<polygon fill="midnightblue" stroke="midnightblue" points="192.01,-244.63 181.48,-243.52 189.02,-250.96 192.01,-244.63"/>
</g>
<!-- Node5 -->
<g id="node5" class="node">
<title>Node5</title>
<g id="a_node5"><a xlink:href="_types_8h.html" target="_top" xlink:title="Definitions of data types used within the SDK.">
<polygon fill="white" stroke="black" points="311,-56.5 311,-75.5 364,-75.5 364,-56.5 311,-56.5"/>
<text text-anchor="middle" x="337.5" y="-63.5" font-family="Helvetica,sans-Serif" font-size="10.00">Types.h</text>
</a>
</g>
</g>
<!-- Node2&#45;&gt;Node5 -->
<g id="edge13" class="edge">
<title>Node2&#45;&gt;Node5</title>
<path fill="none" stroke="midnightblue" d="M272.18,-280.23C265.3,-267.79 254.74,-244.29 259.5,-224 272.32,-169.4 307.1,-112.06 325.58,-84.21"/>
<polygon fill="midnightblue" stroke="midnightblue" points="328.67,-85.89 331.38,-75.64 322.87,-81.96 328.67,-85.89"/>
</g>
<!-- Node4 -->
<g id="node4" class="node">
<title>Node4</title>
<g id="a_node4"><a xlink:href="_mda_8h.html" target="_top" xlink:title="API for multi&#45;dimensional arrays.">
<polygon fill="white" stroke="black" points="189,-112.5 189,-131.5 236,-131.5 236,-112.5 189,-112.5"/>
<text text-anchor="middle" x="212.5" y="-119.5" font-family="Helvetica,sans-Serif" font-size="10.00">Mda.h</text>
</a>
</g>
</g>
<!-- Node3&#45;&gt;Node4 -->
<g id="edge3" class="edge">
<title>Node3&#45;&gt;Node4</title>
<path fill="none" stroke="midnightblue" d="M167.34,-224.37C175.32,-206.46 193.83,-164.92 204.5,-140.95"/>
<polygon fill="midnightblue" stroke="midnightblue" points="207.8,-142.15 208.67,-131.59 201.41,-139.3 207.8,-142.15"/>
</g>
<!-- Node3&#45;&gt;Node5 -->
<g id="edge9" class="edge">
<title>Node3&#45;&gt;Node5</title>
<path fill="none" stroke="midnightblue" d="M161.77,-224.42C157.93,-202.69 151.11,-144.87 179.5,-112 195.27,-93.74 259.19,-79.97 300.74,-72.72"/>
<polygon fill="midnightblue" stroke="midnightblue" points="301.5,-76.14 310.78,-71.02 300.33,-69.24 301.5,-76.14"/>
</g>
<!-- Node10 -->
<g id="node10" class="node">
<title>Node10</title>
<g id="a_node10"><a xlink:href="_vector_8h.html" target="_top" xlink:title="API for operations on Vector data structures.">
<polygon fill="white" stroke="black" points="346.5,-168.5 346.5,-187.5 402.5,-187.5 402.5,-168.5 346.5,-168.5"/>
<text text-anchor="middle" x="374.5" y="-175.5" font-family="Helvetica,sans-Serif" font-size="10.00">Vector.h</text>
</a>
</g>
</g>
<!-- Node3&#45;&gt;Node10 -->
<g id="edge10" class="edge">
<title>Node3&#45;&gt;Node10</title>
<path fill="none" stroke="midnightblue" d="M196.93,-224.44C234.88,-214.73 296.66,-198.92 336.43,-188.74"/>
<polygon fill="midnightblue" stroke="midnightblue" points="337.47,-192.09 346.29,-186.22 335.73,-185.31 337.47,-192.09"/>
</g>
<!-- Node4&#45;&gt;Node5 -->
<g id="edge4" class="edge">
<title>Node4&#45;&gt;Node5</title>
<path fill="none" stroke="midnightblue" d="M232.31,-112.44C252.79,-103.6 284.98,-89.69 308.36,-79.59"/>
<polygon fill="midnightblue" stroke="midnightblue" points="309.99,-82.7 317.79,-75.52 307.22,-76.27 309.99,-82.7"/>
</g>
<!-- Node9 -->
<g id="node9" class="node">
<title>Node9</title>
<g id="a_node9"><a xlink:title=" ">
<polygon fill="white" stroke="#bfbfbf" points="184.5,-56.5 184.5,-75.5 240.5,-75.5 240.5,-56.5 184.5,-56.5"/>
<text text-anchor="middle" x="212.5" y="-63.5" font-family="Helvetica,sans-Serif" font-size="10.00">assert.h</text>
</a>
</g>
</g>
<!-- Node4&#45;&gt;Node9 -->
<g id="edge8" class="edge">
<title>Node4&#45;&gt;Node9</title>
<path fill="none" stroke="midnightblue" d="M212.5,-112.08C212.5,-105.01 212.5,-94.86 212.5,-85.99"/>
<polygon fill="midnightblue" stroke="midnightblue" points="216,-85.75 212.5,-75.75 209,-85.75 216,-85.75"/>
</g>
<!-- Node6 -->
<g id="node6" class="node">
<title>Node6</title>
<g id="a_node6"><a xlink:title=" ">
<polygon fill="white" stroke="#bfbfbf" points="229.5,-0.5 229.5,-19.5 291.5,-19.5 291.5,-0.5 229.5,-0.5"/>
<text text-anchor="middle" x="260.5" y="-7.5" font-family="Helvetica,sans-Serif" font-size="10.00">stdbool.h</text>
</a>
</g>
</g>
<!-- Node5&#45;&gt;Node6 -->
<g id="edge5" class="edge">
<title>Node5&#45;&gt;Node6</title>
<path fill="none" stroke="midnightblue" d="M325.13,-56.32C313.34,-48.06 295.37,-35.45 281.36,-25.63"/>
<polygon fill="midnightblue" stroke="midnightblue" points="283.04,-22.53 272.84,-19.65 279.02,-28.26 283.04,-22.53"/>
</g>
<!-- Node7 -->
<g id="node7" class="node">
<title>Node7</title>
<g id="a_node7"><a xlink:title=" ">
<polygon fill="white" stroke="#bfbfbf" points="309.5,-0.5 309.5,-19.5 365.5,-19.5 365.5,-0.5 309.5,-0.5"/>
<text text-anchor="middle" x="337.5" y="-7.5" font-family="Helvetica,sans-Serif" font-size="10.00">stddef.h</text>
</a>
</g>
</g>
<!-- Node5&#45;&gt;Node7 -->
<g id="edge6" class="edge">
<title>Node5&#45;&gt;Node7</title>
<path fill="none" stroke="midnightblue" d="M337.5,-56.08C337.5,-49.01 337.5,-38.86 337.5,-29.99"/>
<polygon fill="midnightblue" stroke="midnightblue" points="341,-29.75 337.5,-19.75 334,-29.75 341,-29.75"/>
</g>
<!-- Node8 -->
<g id="node8" class="node">
<title>Node8</title>
<g id="a_node8"><a xlink:title=" ">
<polygon fill="white" stroke="#bfbfbf" points="384,-0.5 384,-19.5 437,-19.5 437,-0.5 384,-0.5"/>
<text text-anchor="middle" x="410.5" y="-7.5" font-family="Helvetica,sans-Serif" font-size="10.00">stdint.h</text>
</a>
</g>
</g>
<!-- Node5&#45;&gt;Node8 -->
<g id="edge7" class="edge">
<title>Node5&#45;&gt;Node8</title>
<path fill="none" stroke="midnightblue" d="M349.23,-56.32C360.34,-48.11 377.24,-35.6 390.48,-25.81"/>
<polygon fill="midnightblue" stroke="midnightblue" points="392.6,-28.59 398.56,-19.83 388.44,-22.97 392.6,-28.59"/>
</g>
<!-- Node10&#45;&gt;Node4 -->
<g id="edge11" class="edge">
<title>Node10&#45;&gt;Node4</title>
<path fill="none" stroke="midnightblue" d="M348.83,-168.44C321.02,-159.17 276.53,-144.34 245.98,-134.16"/>
<polygon fill="midnightblue" stroke="midnightblue" points="246.8,-130.74 236.2,-130.9 244.58,-137.38 246.8,-130.74"/>
</g>
<!-- Node10&#45;&gt;Node5 -->
<g id="edge12" class="edge">
<title>Node10&#45;&gt;Node5</title>
<path fill="none" stroke="midnightblue" d="M371.6,-168.37C365.6,-150.54 351.73,-109.3 343.65,-85.27"/>
<polygon fill="midnightblue" stroke="midnightblue" points="346.9,-83.95 340.39,-75.59 340.26,-86.19 346.9,-83.95"/>
</g>
<!-- Node11&#45;&gt;Node5 -->
<g id="edge15" class="edge">
<title>Node11&#45;&gt;Node5</title>
<path fill="none" stroke="midnightblue" d="M816.79,-168.42C806.61,-153.93 783.82,-124.94 756.5,-112 689.15,-80.1 463.66,-70.47 374.36,-67.87"/>
<polygon fill="midnightblue" stroke="midnightblue" points="374.26,-64.37 364.17,-67.59 374.07,-71.37 374.26,-64.37"/>
</g>
<!-- Node12&#45;&gt;Node5 -->
<g id="edge17" class="edge">
<title>Node12&#45;&gt;Node5</title>
<path fill="none" stroke="midnightblue" d="M442.33,-224.37C436.11,-211.72 423.81,-187.51 411.5,-168 395.04,-141.91 388.73,-136.88 370.5,-112 363.69,-102.7 356.08,-92.33 349.89,-83.89"/>
<polygon fill="midnightblue" stroke="midnightblue" points="352.57,-81.62 343.83,-75.63 346.92,-85.76 352.57,-81.62"/>
</g>
<!-- Node12&#45;&gt;Node10 -->
<g id="edge18" class="edge">
<title>Node12&#45;&gt;Node10</title>
<path fill="none" stroke="midnightblue" d="M434.93,-224.32C424.08,-216.18 407.62,-203.84 394.62,-194.09"/>
<polygon fill="midnightblue" stroke="midnightblue" points="396.38,-191.03 386.28,-187.83 392.18,-196.63 396.38,-191.03"/>
</g>
<!-- Node13&#45;&gt;Node5 -->
<g id="edge20" class="edge">
<title>Node13&#45;&gt;Node5</title>
<path fill="none" stroke="midnightblue" d="M311.01,-224.08C315.41,-197.95 328.36,-121.21 334.37,-85.58"/>
<polygon fill="midnightblue" stroke="midnightblue" points="337.84,-86.01 336.05,-75.57 330.94,-84.85 337.84,-86.01"/>
</g>
<!-- Node13&#45;&gt;Node10 -->
<g id="edge21" class="edge">
<title>Node13&#45;&gt;Node10</title>
<path fill="none" stroke="midnightblue" d="M319.94,-224.32C329.65,-216.26 344.32,-204.08 356,-194.37"/>
<polygon fill="midnightblue" stroke="midnightblue" points="358.41,-196.92 363.87,-187.83 353.94,-191.53 358.41,-196.92"/>
</g>
<!-- Node14&#45;&gt;Node3 -->
<g id="edge23" class="edge">
<title>Node14&#45;&gt;Node3</title>
<path fill="none" stroke="midnightblue" d="M68.41,-280.44C86.75,-271.68 115.51,-257.94 136.59,-247.86"/>
<polygon fill="midnightblue" stroke="midnightblue" points="138.17,-250.99 145.68,-243.52 135.15,-244.67 138.17,-250.99"/>
</g>
<!-- Node14&#45;&gt;Node5 -->
<g id="edge24" class="edge">
<title>Node14&#45;&gt;Node5</title>
<path fill="none" stroke="midnightblue" d="M51.57,-280.27C55.77,-250.31 74.08,-151.36 136.5,-112 163.47,-95 250.39,-79.85 300.66,-72.22"/>
<polygon fill="midnightblue" stroke="midnightblue" points="301.42,-75.64 310.79,-70.71 300.39,-68.72 301.42,-75.64"/>
</g>
<!-- Node15&#45;&gt;Node5 -->
<g id="edge33" class="edge">
<title>Node15&#45;&gt;Node5</title>
<path fill="none" stroke="midnightblue" d="M617.12,-280.45C659.48,-273.16 710.36,-261.13 723.5,-244 728.91,-236.95 728.41,-231.41 723.5,-224 643.91,-103.77 454.29,-75.59 374.2,-69"/>
<polygon fill="midnightblue" stroke="midnightblue" points="374.33,-65.5 364.1,-68.24 373.81,-72.48 374.33,-65.5"/>
</g>
<!-- Node15&#45;&gt;Node12 -->
<g id="edge26" class="edge">
<title>Node15&#45;&gt;Node12</title>
<path fill="none" stroke="midnightblue" d="M537.99,-280.32C520.43,-271.62 493.17,-258.12 472.97,-248.11"/>
<polygon fill="midnightblue" stroke="midnightblue" points="474.48,-244.96 463.97,-243.65 471.38,-251.23 474.48,-244.96"/>
</g>
<!-- Node15&#45;&gt;Node16 -->
<g id="edge27" class="edge">
<title>Node15&#45;&gt;Node16</title>
<path fill="none" stroke="midnightblue" d="M555.5,-280.08C555.5,-273.01 555.5,-262.86 555.5,-253.99"/>
<polygon fill="midnightblue" stroke="midnightblue" points="559,-253.75 555.5,-243.75 552,-253.75 559,-253.75"/>
</g>
<!-- Node17 -->
<g id="node17" class="node">
<title>Node17</title>
<g id="a_node17"><a xlink:href="_math_8h.html" target="_top" xlink:title="API for Mathematical operations.">
<polygon fill="white" stroke="black" points="624.5,-224.5 624.5,-243.5 714.5,-243.5 714.5,-224.5 624.5,-224.5"/>
<text text-anchor="middle" x="669.5" y="-231.5" font-family="Helvetica,sans-Serif" font-size="10.00">ifxBase/Math.h</text>
</a>
</g>
</g>
<!-- Node15&#45;&gt;Node17 -->
<g id="edge30" class="edge">
<title>Node15&#45;&gt;Node17</title>
<path fill="none" stroke="midnightblue" d="M573.56,-280.44C592.07,-271.68 621.08,-257.94 642.36,-247.86"/>
<polygon fill="midnightblue" stroke="midnightblue" points="643.98,-250.96 651.52,-243.52 640.99,-244.63 643.98,-250.96"/>
</g>
<!-- Node16&#45;&gt;Node5 -->
<g id="edge28" class="edge">
<title>Node16&#45;&gt;Node5</title>
<path fill="none" stroke="midnightblue" d="M544.09,-224.31C508.77,-197.42 401,-115.35 356.76,-81.67"/>
<polygon fill="midnightblue" stroke="midnightblue" points="358.88,-78.88 348.8,-75.61 354.64,-84.45 358.88,-78.88"/>
</g>
<!-- Node16&#45;&gt;Node10 -->
<g id="edge29" class="edge">
<title>Node16&#45;&gt;Node10</title>
<path fill="none" stroke="midnightblue" d="M526.82,-224.44C495.88,-215.21 446.48,-200.48 412.37,-190.3"/>
<polygon fill="midnightblue" stroke="midnightblue" points="413.33,-186.93 402.75,-187.43 411.33,-193.64 413.33,-186.93"/>
</g>
<!-- Node17&#45;&gt;Node5 -->
<g id="edge31" class="edge">
<title>Node17&#45;&gt;Node5</title>
<path fill="none" stroke="midnightblue" d="M652.12,-224.31C597.55,-197.02 429.39,-112.95 363.95,-80.22"/>
<polygon fill="midnightblue" stroke="midnightblue" points="365.22,-76.95 354.71,-75.61 362.09,-83.21 365.22,-76.95"/>
</g>
<!-- Node17&#45;&gt;Node10 -->
<g id="edge32" class="edge">
<title>Node17&#45;&gt;Node10</title>
<path fill="none" stroke="midnightblue" d="M624.37,-224.74C566.45,-214.14 466.97,-195.93 412.64,-185.98"/>
<polygon fill="midnightblue" stroke="midnightblue" points="413.19,-182.52 402.72,-184.17 411.93,-189.41 413.19,-182.52"/>
</g>
<!-- Node18&#45;&gt;Node3 -->
<g id="edge35" class="edge">
<title>Node18&#45;&gt;Node3</title>
<path fill="none" stroke="midnightblue" d="M165.17,-280.08C164.91,-273.01 164.53,-262.86 164.2,-253.99"/>
<polygon fill="midnightblue" stroke="midnightblue" points="167.69,-253.61 163.82,-243.75 160.7,-253.87 167.69,-253.61"/>
</g>
<!-- Node18&#45;&gt;Node5 -->
<g id="edge36" class="edge">
<title>Node18&#45;&gt;Node5</title>
<path fill="none" stroke="midnightblue" d="M146.2,-280.48C132.07,-273.08 113.94,-260.89 105.5,-244 81.16,-195.32 91.42,-169.46 163.5,-112 184.55,-95.22 256.28,-80.61 300.8,-72.88"/>
<polygon fill="midnightblue" stroke="midnightblue" points="301.4,-76.33 310.68,-71.2 300.23,-69.42 301.4,-76.33"/>
</g>
<!-- Node18&#45;&gt;Node10 -->
<g id="edge37" class="edge">
<title>Node18&#45;&gt;Node10</title>
<path fill="none" stroke="midnightblue" d="M212.21,-280.74C265.92,-270.85 348.07,-254.31 358.5,-244 370.63,-232.01 374.11,-212.41 374.87,-197.86"/>
<polygon fill="midnightblue" stroke="midnightblue" points="378.38,-197.56 375.01,-187.51 371.38,-197.47 378.38,-197.56"/>
</g>
</g>
</svg>
