<?xml version="1.0" encoding="UTF-8" standalone="no"?>
<!DOCTYPE svg PUBLIC "-//W3C//DTD SVG 1.1//EN"
 "http://www.w3.org/Graphics/SVG/1.1/DTD/svg11.dtd">
<!-- Generated by graphviz version 2.43.0 (0)
 -->
<!-- Title: /home/jenkins/agent/workspace/ild&#45;documentation_release_v3.5.0/sdk/c/ifxRadar/AngleMonopulse.h Pages: 1 -->
<svg width="234pt" height="453pt"
 viewBox="0.00 0.00 234.00 453.00" xmlns="http://www.w3.org/2000/svg" xmlns:xlink="http://www.w3.org/1999/xlink">
<g id="graph0" class="graph" transform="scale(1 1) rotate(0) translate(4 449)">
<title>/home/jenkins/agent/workspace/ild&#45;documentation_release_v3.5.0/sdk/c/ifxRadar/AngleMonopulse.h</title>
<polygon fill="white" stroke="transparent" points="-4,4 -4,-449 230,-449 230,4 -4,4"/>
<!-- Node1 -->
<g id="node1" class="node">
<title>Node1</title>
<g id="a_node1"><a xlink:title="API for Phase Monopulse algorithm.">
<polygon fill="#bfbfbf" stroke="black" points="27,-392.5 27,-444.5 193,-444.5 193,-392.5 27,-392.5"/>
<text text-anchor="start" x="35" y="-432.5" font-family="Helvetica,sans-Serif" font-size="10.00">/home/jenkins/agent</text>
<text text-anchor="start" x="35" y="-421.5" font-family="Helvetica,sans-Serif" font-size="10.00">/workspace/ild&#45;documentation</text>
<text text-anchor="start" x="35" y="-410.5" font-family="Helvetica,sans-Serif" font-size="10.00">_release_v3.5.0/sdk/c/ifxRadar</text>
<text text-anchor="middle" x="110" y="-399.5" font-family="Helvetica,sans-Serif" font-size="10.00">/AngleMonopulse.h</text>
</a>
</g>
</g>
<!-- Node2 -->
<g id="node2" class="node">
<title>Node2</title>
<g id="a_node2"><a xlink:href="_complex_8h.html" target="_top" xlink:title="API for operations on complex numbers.">
<polygon fill="white" stroke="black" points="55.5,-336.5 55.5,-355.5 164.5,-355.5 164.5,-336.5 55.5,-336.5"/>
<text text-anchor="middle" x="110" y="-343.5" font-family="Helvetica,sans-Serif" font-size="10.00">ifxBase/Complex.h</text>
</a>
</g>
</g>
<!-- Node1&#45;&gt;Node2 -->
<g id="edge1" class="edge">
<title>Node1&#45;&gt;Node2</title>
<path fill="none" stroke="midnightblue" d="M110,-392.45C110,-383.73 110,-374.1 110,-365.96"/>
<polygon fill="midnightblue" stroke="midnightblue" points="113.5,-365.7 110,-355.7 106.5,-365.7 113.5,-365.7"/>
</g>
<!-- Node5 -->
<g id="node5" class="node">
<title>Node5</title>
<g id="a_node5"><a xlink:href="_types_8h.html" target="_top" xlink:title="Definitions of data types used within the SDK.">
<polygon fill="white" stroke="black" points="81.5,-56.5 81.5,-75.5 134.5,-75.5 134.5,-56.5 81.5,-56.5"/>
<text text-anchor="middle" x="108" y="-63.5" font-family="Helvetica,sans-Serif" font-size="10.00">Types.h</text>
</a>
</g>
</g>
<!-- Node1&#45;&gt;Node5 -->
<g id="edge14" class="edge">
<title>Node1&#45;&gt;Node5</title>
<path fill="none" stroke="midnightblue" d="M77.56,-392.4C66.19,-382.18 54.23,-369.57 46,-356 30.4,-330.26 27,-321.1 27,-291 27,-291 27,-291 27,-177 27,-136.45 63.14,-100.99 87.14,-81.91"/>
<polygon fill="midnightblue" stroke="midnightblue" points="89.52,-84.5 95.34,-75.65 85.27,-78.94 89.52,-84.5"/>
</g>
<!-- Node9 -->
<g id="node9" class="node">
<title>Node9</title>
<g id="a_node9"><a xlink:href="_vector_8h.html" target="_top" xlink:title="API for operations on Vector data structures.">
<polygon fill="white" stroke="black" points="153,-168.5 153,-187.5 209,-187.5 209,-168.5 153,-168.5"/>
<text text-anchor="middle" x="181" y="-175.5" font-family="Helvetica,sans-Serif" font-size="10.00">Vector.h</text>
</a>
</g>
</g>
<!-- Node1&#45;&gt;Node9 -->
<g id="edge15" class="edge">
<title>Node1&#45;&gt;Node9</title>
<path fill="none" stroke="midnightblue" d="M144.71,-392.36C155.77,-382.38 166.75,-369.95 173,-356 196.86,-302.77 189.76,-231.27 184.47,-197.78"/>
<polygon fill="midnightblue" stroke="midnightblue" points="187.87,-196.88 182.74,-187.61 180.97,-198.06 187.87,-196.88"/>
</g>
<!-- Node3 -->
<g id="node3" class="node">
<title>Node3</title>
<g id="a_node3"><a xlink:href="_defines_8h.html" target="_top" xlink:title="Internal definitions used by standard math.h functions as Macros, to use float or double precision.">
<polygon fill="white" stroke="black" points="98,-280.5 98,-299.5 160,-299.5 160,-280.5 98,-280.5"/>
<text text-anchor="middle" x="129" y="-287.5" font-family="Helvetica,sans-Serif" font-size="10.00">Defines.h</text>
</a>
</g>
</g>
<!-- Node2&#45;&gt;Node3 -->
<g id="edge2" class="edge">
<title>Node2&#45;&gt;Node3</title>
<path fill="none" stroke="midnightblue" d="M113.14,-336.08C115.68,-328.85 119.36,-318.41 122.53,-309.4"/>
<polygon fill="midnightblue" stroke="midnightblue" points="125.9,-310.35 125.92,-299.75 119.3,-308.02 125.9,-310.35"/>
</g>
<!-- Node2&#45;&gt;Node5 -->
<g id="edge13" class="edge">
<title>Node2&#45;&gt;Node5</title>
<path fill="none" stroke="midnightblue" d="M104.44,-336.27C93.45,-318.15 70,-274.83 70,-235 70,-235 70,-235 70,-177 70,-142.81 86.6,-105.76 97.86,-84.57"/>
<polygon fill="midnightblue" stroke="midnightblue" points="100.95,-86.22 102.72,-75.77 94.82,-82.83 100.95,-86.22"/>
</g>
<!-- Node4 -->
<g id="node4" class="node">
<title>Node4</title>
<g id="a_node4"><a xlink:href="_math_8h.html" target="_top" xlink:title="API for Mathematical operations.">
<polygon fill="white" stroke="black" points="103.5,-224.5 103.5,-243.5 154.5,-243.5 154.5,-224.5 103.5,-224.5"/>
<text text-anchor="middle" x="129" y="-231.5" font-family="Helvetica,sans-Serif" font-size="10.00">math.h</text>
</a>
</g>
</g>
<!-- Node3&#45;&gt;Node4 -->
<g id="edge3" class="edge">
<title>Node3&#45;&gt;Node4</title>
<path fill="none" stroke="midnightblue" d="M129,-280.08C129,-273.01 129,-262.86 129,-253.99"/>
<polygon fill="midnightblue" stroke="midnightblue" points="132.5,-253.75 129,-243.75 125.5,-253.75 132.5,-253.75"/>
</g>
<!-- Node4&#45;&gt;Node5 -->
<g id="edge4" class="edge">
<title>Node4&#45;&gt;Node5</title>
<path fill="none" stroke="midnightblue" d="M127.87,-224.08C124.57,-197.95 114.86,-121.21 110.35,-85.58"/>
<polygon fill="midnightblue" stroke="midnightblue" points="113.81,-85.05 109.08,-75.57 106.87,-85.93 113.81,-85.05"/>
</g>
<!-- Node4&#45;&gt;Node9 -->
<g id="edge8" class="edge">
<title>Node4&#45;&gt;Node9</title>
<path fill="none" stroke="midnightblue" d="M137.59,-224.08C145.16,-216.22 156.38,-204.57 165.51,-195.08"/>
<polygon fill="midnightblue" stroke="midnightblue" points="168.16,-197.38 172.57,-187.75 163.12,-192.53 168.16,-197.38"/>
</g>
<!-- Node6 -->
<g id="node6" class="node">
<title>Node6</title>
<g id="a_node6"><a xlink:title=" ">
<polygon fill="white" stroke="#bfbfbf" points="0,-0.5 0,-19.5 62,-19.5 62,-0.5 0,-0.5"/>
<text text-anchor="middle" x="31" y="-7.5" font-family="Helvetica,sans-Serif" font-size="10.00">stdbool.h</text>
</a>
</g>
</g>
<!-- Node5&#45;&gt;Node6 -->
<g id="edge5" class="edge">
<title>Node5&#45;&gt;Node6</title>
<path fill="none" stroke="midnightblue" d="M95.63,-56.32C83.84,-48.06 65.87,-35.45 51.86,-25.63"/>
<polygon fill="midnightblue" stroke="midnightblue" points="53.54,-22.53 43.34,-19.65 49.52,-28.26 53.54,-22.53"/>
</g>
<!-- Node7 -->
<g id="node7" class="node">
<title>Node7</title>
<g id="a_node7"><a xlink:title=" ">
<polygon fill="white" stroke="#bfbfbf" points="80,-0.5 80,-19.5 136,-19.5 136,-0.5 80,-0.5"/>
<text text-anchor="middle" x="108" y="-7.5" font-family="Helvetica,sans-Serif" font-size="10.00">stddef.h</text>
</a>
</g>
</g>
<!-- Node5&#45;&gt;Node7 -->
<g id="edge6" class="edge">
<title>Node5&#45;&gt;Node7</title>
<path fill="none" stroke="midnightblue" d="M108,-56.08C108,-49.01 108,-38.86 108,-29.99"/>
<polygon fill="midnightblue" stroke="midnightblue" points="111.5,-29.75 108,-19.75 104.5,-29.75 111.5,-29.75"/>
</g>
<!-- Node8 -->
<g id="node8" class="node">
<title>Node8</title>
<g id="a_node8"><a xlink:title=" ">
<polygon fill="white" stroke="#bfbfbf" points="154.5,-0.5 154.5,-19.5 207.5,-19.5 207.5,-0.5 154.5,-0.5"/>
<text text-anchor="middle" x="181" y="-7.5" font-family="Helvetica,sans-Serif" font-size="10.00">stdint.h</text>
</a>
</g>
</g>
<!-- Node5&#45;&gt;Node8 -->
<g id="edge7" class="edge">
<title>Node5&#45;&gt;Node8</title>
<path fill="none" stroke="midnightblue" d="M119.73,-56.32C130.84,-48.11 147.74,-35.6 160.98,-25.81"/>
<polygon fill="midnightblue" stroke="midnightblue" points="163.1,-28.59 169.06,-19.83 158.94,-22.97 163.1,-28.59"/>
</g>
<!-- Node9&#45;&gt;Node5 -->
<g id="edge12" class="edge">
<title>Node9&#45;&gt;Node5</title>
<path fill="none" stroke="midnightblue" d="M175.27,-168.37C163.22,-150.22 135.08,-107.8 119.28,-83.99"/>
<polygon fill="midnightblue" stroke="midnightblue" points="122.15,-81.99 113.7,-75.59 116.31,-85.86 122.15,-81.99"/>
</g>
<!-- Node10 -->
<g id="node10" class="node">
<title>Node10</title>
<g id="a_node10"><a xlink:href="_mda_8h.html" target="_top" xlink:title="API for multi&#45;dimensional arrays.">
<polygon fill="white" stroke="black" points="174.5,-112.5 174.5,-131.5 221.5,-131.5 221.5,-112.5 174.5,-112.5"/>
<text text-anchor="middle" x="198" y="-119.5" font-family="Helvetica,sans-Serif" font-size="10.00">Mda.h</text>
</a>
</g>
</g>
<!-- Node9&#45;&gt;Node10 -->
<g id="edge9" class="edge">
<title>Node9&#45;&gt;Node10</title>
<path fill="none" stroke="midnightblue" d="M183.81,-168.08C186.08,-160.85 189.37,-150.41 192.21,-141.4"/>
<polygon fill="midnightblue" stroke="midnightblue" points="195.58,-142.34 195.25,-131.75 188.9,-140.24 195.58,-142.34"/>
</g>
<!-- Node10&#45;&gt;Node5 -->
<g id="edge10" class="edge">
<title>Node10&#45;&gt;Node5</title>
<path fill="none" stroke="midnightblue" d="M183.54,-112.32C169.5,-103.9 147.95,-90.97 131.46,-81.07"/>
<polygon fill="midnightblue" stroke="midnightblue" points="132.8,-77.8 122.42,-75.65 129.2,-83.8 132.8,-77.8"/>
</g>
<!-- Node11 -->
<g id="node11" class="node">
<title>Node11</title>
<g id="a_node11"><a xlink:title=" ">
<polygon fill="white" stroke="#bfbfbf" points="170,-56.5 170,-75.5 226,-75.5 226,-56.5 170,-56.5"/>
<text text-anchor="middle" x="198" y="-63.5" font-family="Helvetica,sans-Serif" font-size="10.00">assert.h</text>
</a>
</g>
</g>
<!-- Node10&#45;&gt;Node11 -->
<g id="edge11" class="edge">
<title>Node10&#45;&gt;Node11</title>
<path fill="none" stroke="midnightblue" d="M198,-112.08C198,-105.01 198,-94.86 198,-85.99"/>
<polygon fill="midnightblue" stroke="midnightblue" points="201.5,-85.75 198,-75.75 194.5,-85.75 201.5,-85.75"/>
</g>
</g>
</svg>
