<?xml version="1.0" encoding="UTF-8" standalone="no"?>
<!DOCTYPE svg PUBLIC "-//W3C//DTD SVG 1.1//EN"
 "http://www.w3.org/Graphics/SVG/1.1/DTD/svg11.dtd">
<!-- Generated by graphviz version 2.43.0 (0)
 -->
<!-- Title: /home/jenkins/agent/workspace/ild&#45;documentation_release_v3.5.0/sdk/c/ifxAvian/Avian.h Pages: 1 -->
<svg width="713pt" height="587pt"
 viewBox="0.00 0.00 712.50 587.00" xmlns="http://www.w3.org/2000/svg" xmlns:xlink="http://www.w3.org/1999/xlink">
<g id="graph0" class="graph" transform="scale(1 1) rotate(0) translate(4 583)">
<title>/home/jenkins/agent/workspace/ild&#45;documentation_release_v3.5.0/sdk/c/ifxAvian/Avian.h</title>
<polygon fill="white" stroke="transparent" points="-4,4 -4,-583 708.5,-583 708.5,4 -4,4"/>
<!-- Node1 -->
<g id="node1" class="node">
<title>Node1</title>
<g id="a_node1"><a xlink:title="Header for ifxAvian.">
<polygon fill="#bfbfbf" stroke="black" points="229.5,-526.5 229.5,-578.5 393.5,-578.5 393.5,-526.5 229.5,-526.5"/>
<text text-anchor="start" x="237.5" y="-566.5" font-family="Helvetica,sans-Serif" font-size="10.00">/home/jenkins/agent</text>
<text text-anchor="start" x="237.5" y="-555.5" font-family="Helvetica,sans-Serif" font-size="10.00">/workspace/ild&#45;documentation</text>
<text text-anchor="start" x="237.5" y="-544.5" font-family="Helvetica,sans-Serif" font-size="10.00">_release_v3.5.0/sdk/c/ifxAvian</text>
<text text-anchor="middle" x="311.5" y="-533.5" font-family="Helvetica,sans-Serif" font-size="10.00">/Avian.h</text>
</a>
</g>
</g>
<!-- Node2 -->
<g id="node2" class="node">
<title>Node2</title>
<g id="a_node2"><a xlink:href="_device_config_8h.html" target="_top" xlink:title="API for Radar device configuration.">
<polygon fill="white" stroke="black" points="307.5,-358.5 307.5,-377.5 397.5,-377.5 397.5,-358.5 307.5,-358.5"/>
<text text-anchor="middle" x="352.5" y="-365.5" font-family="Helvetica,sans-Serif" font-size="10.00">DeviceConfig.h</text>
</a>
</g>
</g>
<!-- Node1&#45;&gt;Node2 -->
<g id="edge1" class="edge">
<title>Node1&#45;&gt;Node2</title>
<path fill="none" stroke="midnightblue" d="M321.81,-526.33C330.89,-502.88 343.57,-466.7 349.5,-434 352.28,-418.7 352.93,-401.06 352.95,-388.02"/>
<polygon fill="midnightblue" stroke="midnightblue" points="356.45,-387.87 352.83,-377.92 349.45,-387.95 356.45,-387.87"/>
</g>
<!-- Node9 -->
<g id="node9" class="node">
<title>Node9</title>
<g id="a_node9"><a xlink:href="_device_control_8h.html" target="_top" xlink:title="Header for ifxAvian.">
<polygon fill="white" stroke="black" points="245,-414.5 245,-433.5 340,-433.5 340,-414.5 245,-414.5"/>
<text text-anchor="middle" x="292.5" y="-421.5" font-family="Helvetica,sans-Serif" font-size="10.00">DeviceControl.h</text>
</a>
</g>
</g>
<!-- Node1&#45;&gt;Node9 -->
<g id="edge9" class="edge">
<title>Node1&#45;&gt;Node9</title>
<path fill="none" stroke="midnightblue" d="M307.7,-526.2C304.03,-501.77 298.56,-465.34 295.28,-443.5"/>
<polygon fill="midnightblue" stroke="midnightblue" points="298.73,-442.92 293.78,-433.55 291.81,-443.96 298.73,-442.92"/>
</g>
<!-- Node23 -->
<g id="node23" class="node">
<title>Node23</title>
<g id="a_node23"><a xlink:href="_metrics_8h.html" target="_top" xlink:title="API for Metrics.">
<polygon fill="white" stroke="black" points="221.5,-470.5 221.5,-489.5 283.5,-489.5 283.5,-470.5 221.5,-470.5"/>
<text text-anchor="middle" x="252.5" y="-477.5" font-family="Helvetica,sans-Serif" font-size="10.00">Metrics.h</text>
</a>
</g>
</g>
<!-- Node1&#45;&gt;Node23 -->
<g id="edge38" class="edge">
<title>Node1&#45;&gt;Node23</title>
<path fill="none" stroke="midnightblue" d="M290.53,-526.45C282.48,-516.83 273.51,-506.1 266.3,-497.49"/>
<polygon fill="midnightblue" stroke="midnightblue" points="268.88,-495.12 259.78,-489.7 263.51,-499.61 268.88,-495.12"/>
</g>
<!-- Node3 -->
<g id="node3" class="node">
<title>Node3</title>
<g id="a_node3"><a xlink:href="_types_8h.html" target="_top" xlink:title="Definitions of data types used within the SDK.">
<polygon fill="white" stroke="black" points="330,-56.5 330,-75.5 423,-75.5 423,-56.5 330,-56.5"/>
<text text-anchor="middle" x="376.5" y="-63.5" font-family="Helvetica,sans-Serif" font-size="10.00">ifxBase/Types.h</text>
</a>
</g>
</g>
<!-- Node2&#45;&gt;Node3 -->
<g id="edge2" class="edge">
<title>Node2&#45;&gt;Node3</title>
<path fill="none" stroke="midnightblue" d="M354.48,-358.5C357.83,-344.37 364.98,-315.24 372.5,-291 389.27,-236.94 413.39,-224.05 405.5,-168 401.34,-138.43 390.64,-105.38 383.47,-85.39"/>
<polygon fill="midnightblue" stroke="midnightblue" points="386.65,-83.91 379.91,-75.74 380.09,-86.33 386.65,-83.91"/>
</g>
<!-- Node7 -->
<g id="node7" class="node">
<title>Node7</title>
<g id="a_node7"><a xlink:href="_device_fmcw_avian_config_8h.html" target="_top" xlink:title="API for Radar device configuration.">
<polygon fill="white" stroke="black" points="381,-291.5 381,-321.5 536,-321.5 536,-291.5 381,-291.5"/>
<text text-anchor="start" x="389" y="-309.5" font-family="Helvetica,sans-Serif" font-size="10.00">ifxFmcw/avian/DeviceFmcw</text>
<text text-anchor="middle" x="458.5" y="-298.5" font-family="Helvetica,sans-Serif" font-size="10.00">AvianConfig.h</text>
</a>
</g>
</g>
<!-- Node2&#45;&gt;Node7 -->
<g id="edge6" class="edge">
<title>Node2&#45;&gt;Node7</title>
<path fill="none" stroke="midnightblue" d="M367.69,-358.48C382.51,-350.15 405.58,-337.21 424.75,-326.45"/>
<polygon fill="midnightblue" stroke="midnightblue" points="426.51,-329.47 433.52,-321.52 423.08,-323.37 426.51,-329.47"/>
</g>
<!-- Node8 -->
<g id="node8" class="node">
<title>Node8</title>
<g id="a_node8"><a xlink:href="_radar_device_common_8h.html" target="_top" xlink:title="Header for ifxRadarDeviceCommon.">
<polygon fill="white" stroke="black" points="260.5,-168.5 260.5,-198.5 396.5,-198.5 396.5,-168.5 260.5,-168.5"/>
<text text-anchor="start" x="268.5" y="-186.5" font-family="Helvetica,sans-Serif" font-size="10.00">ifxRadarDeviceCommon</text>
<text text-anchor="middle" x="328.5" y="-175.5" font-family="Helvetica,sans-Serif" font-size="10.00">/RadarDeviceCommon.h</text>
</a>
</g>
</g>
<!-- Node2&#45;&gt;Node8 -->
<g id="edge7" class="edge">
<title>Node2&#45;&gt;Node8</title>
<path fill="none" stroke="midnightblue" d="M349.1,-358.19C345.8,-349.22 340.94,-334.86 338.5,-322 331.1,-282.94 329.1,-236.67 328.6,-209"/>
<polygon fill="midnightblue" stroke="midnightblue" points="332.09,-208.65 328.47,-198.69 325.09,-208.74 332.09,-208.65"/>
</g>
<!-- Node4 -->
<g id="node4" class="node">
<title>Node4</title>
<g id="a_node4"><a xlink:title=" ">
<polygon fill="white" stroke="#bfbfbf" points="268.5,-0.5 268.5,-19.5 330.5,-19.5 330.5,-0.5 268.5,-0.5"/>
<text text-anchor="middle" x="299.5" y="-7.5" font-family="Helvetica,sans-Serif" font-size="10.00">stdbool.h</text>
</a>
</g>
</g>
<!-- Node3&#45;&gt;Node4 -->
<g id="edge3" class="edge">
<title>Node3&#45;&gt;Node4</title>
<path fill="none" stroke="midnightblue" d="M364.13,-56.32C352.34,-48.06 334.37,-35.45 320.36,-25.63"/>
<polygon fill="midnightblue" stroke="midnightblue" points="322.04,-22.53 311.84,-19.65 318.02,-28.26 322.04,-22.53"/>
</g>
<!-- Node5 -->
<g id="node5" class="node">
<title>Node5</title>
<g id="a_node5"><a xlink:title=" ">
<polygon fill="white" stroke="#bfbfbf" points="348.5,-0.5 348.5,-19.5 404.5,-19.5 404.5,-0.5 348.5,-0.5"/>
<text text-anchor="middle" x="376.5" y="-7.5" font-family="Helvetica,sans-Serif" font-size="10.00">stddef.h</text>
</a>
</g>
</g>
<!-- Node3&#45;&gt;Node5 -->
<g id="edge4" class="edge">
<title>Node3&#45;&gt;Node5</title>
<path fill="none" stroke="midnightblue" d="M376.5,-56.08C376.5,-49.01 376.5,-38.86 376.5,-29.99"/>
<polygon fill="midnightblue" stroke="midnightblue" points="380,-29.75 376.5,-19.75 373,-29.75 380,-29.75"/>
</g>
<!-- Node6 -->
<g id="node6" class="node">
<title>Node6</title>
<g id="a_node6"><a xlink:title=" ">
<polygon fill="white" stroke="#bfbfbf" points="423,-0.5 423,-19.5 476,-19.5 476,-0.5 423,-0.5"/>
<text text-anchor="middle" x="449.5" y="-7.5" font-family="Helvetica,sans-Serif" font-size="10.00">stdint.h</text>
</a>
</g>
</g>
<!-- Node3&#45;&gt;Node6 -->
<g id="edge5" class="edge">
<title>Node3&#45;&gt;Node6</title>
<path fill="none" stroke="midnightblue" d="M388.23,-56.32C399.34,-48.11 416.24,-35.6 429.48,-25.81"/>
<polygon fill="midnightblue" stroke="midnightblue" points="431.6,-28.59 437.56,-19.83 427.44,-22.97 431.6,-28.59"/>
</g>
<!-- Node8&#45;&gt;Node3 -->
<g id="edge8" class="edge">
<title>Node8&#45;&gt;Node3</title>
<path fill="none" stroke="midnightblue" d="M334.39,-168.34C343.11,-147.34 359.48,-107.96 369.04,-84.96"/>
<polygon fill="midnightblue" stroke="midnightblue" points="372.29,-86.25 372.9,-75.67 365.83,-83.56 372.29,-86.25"/>
</g>
<!-- Node9&#45;&gt;Node2 -->
<g id="edge10" class="edge">
<title>Node9&#45;&gt;Node2</title>
<path fill="none" stroke="midnightblue" d="M302.14,-414.32C311.01,-406.34 324.37,-394.31 335.11,-384.65"/>
<polygon fill="midnightblue" stroke="midnightblue" points="337.59,-387.13 342.68,-377.83 332.91,-381.92 337.59,-387.13"/>
</g>
<!-- Node10 -->
<g id="node10" class="node">
<title>Node10</title>
<g id="a_node10"><a xlink:href="_cube_8h.html" target="_top" xlink:title="API for operations on Cube data structures.">
<polygon fill="white" stroke="black" points="614.5,-358.5 614.5,-377.5 704.5,-377.5 704.5,-358.5 614.5,-358.5"/>
<text text-anchor="middle" x="659.5" y="-365.5" font-family="Helvetica,sans-Serif" font-size="10.00">ifxBase/Cube.h</text>
</a>
</g>
</g>
<!-- Node9&#45;&gt;Node10 -->
<g id="edge11" class="edge">
<title>Node9&#45;&gt;Node10</title>
<path fill="none" stroke="midnightblue" d="M340.1,-416C407.94,-406.01 532.17,-387.74 604.07,-377.16"/>
<polygon fill="midnightblue" stroke="midnightblue" points="604.9,-380.57 614.29,-375.65 603.88,-373.65 604.9,-380.57"/>
</g>
<!-- Node12 -->
<g id="node12" class="node">
<title>Node12</title>
<g id="a_node12"><a xlink:href="_math_8h.html" target="_top" xlink:title="API for Mathematical operations.">
<polygon fill="white" stroke="black" points="534,-235.5 534,-254.5 585,-254.5 585,-235.5 534,-235.5"/>
<text text-anchor="middle" x="559.5" y="-242.5" font-family="Helvetica,sans-Serif" font-size="10.00">math.h</text>
</a>
</g>
</g>
<!-- Node9&#45;&gt;Node12 -->
<g id="edge25" class="edge">
<title>Node9&#45;&gt;Node12</title>
<path fill="none" stroke="midnightblue" d="M340.22,-417.78C398.08,-408.79 494.18,-384.81 545.5,-322 558.6,-305.96 560.99,-281.63 560.83,-264.84"/>
<polygon fill="midnightblue" stroke="midnightblue" points="564.32,-264.46 560.4,-254.61 557.32,-264.75 564.32,-264.46"/>
</g>
<!-- Node17 -->
<g id="node17" class="node">
<title>Node17</title>
<g id="a_node17"><a xlink:href="_device_fmcw_8h.html" target="_top" xlink:title="For details refer to FMCW Device Control.">
<polygon fill="white" stroke="black" points="153,-297 153,-316 286,-316 286,-297 153,-297"/>
<text text-anchor="middle" x="219.5" y="-304" font-family="Helvetica,sans-Serif" font-size="10.00">ifxFmcw/DeviceFmcw.h</text>
</a>
</g>
</g>
<!-- Node9&#45;&gt;Node17 -->
<g id="edge26" class="edge">
<title>Node9&#45;&gt;Node17</title>
<path fill="none" stroke="midnightblue" d="M287.01,-414.32C275.02,-395.34 246.27,-349.85 230.43,-324.79"/>
<polygon fill="midnightblue" stroke="midnightblue" points="233.35,-322.87 225.05,-316.28 227.43,-326.61 233.35,-322.87"/>
</g>
<!-- Node11 -->
<g id="node11" class="node">
<title>Node11</title>
<g id="a_node11"><a xlink:href="_defines_8h.html" target="_top" xlink:title="Internal definitions used by standard math.h functions as Macros, to use float or double precision.">
<polygon fill="white" stroke="black" points="592.5,-297 592.5,-316 654.5,-316 654.5,-297 592.5,-297"/>
<text text-anchor="middle" x="623.5" y="-304" font-family="Helvetica,sans-Serif" font-size="10.00">Defines.h</text>
</a>
</g>
</g>
<!-- Node10&#45;&gt;Node11 -->
<g id="edge12" class="edge">
<title>Node10&#45;&gt;Node11</title>
<path fill="none" stroke="midnightblue" d="M654.34,-358.48C649.05,-349.73 640.66,-335.87 633.97,-324.81"/>
<polygon fill="midnightblue" stroke="midnightblue" points="636.82,-322.75 628.65,-316.01 630.83,-326.38 636.82,-322.75"/>
</g>
<!-- Node14 -->
<g id="node14" class="node">
<title>Node14</title>
<g id="a_node14"><a xlink:href="_mda_8h.html" target="_top" xlink:title="API for multi&#45;dimensional arrays.">
<polygon fill="white" stroke="black" points="567,-112.5 567,-131.5 614,-131.5 614,-112.5 567,-112.5"/>
<text text-anchor="middle" x="590.5" y="-119.5" font-family="Helvetica,sans-Serif" font-size="10.00">Mda.h</text>
</a>
</g>
</g>
<!-- Node10&#45;&gt;Node14 -->
<g id="edge24" class="edge">
<title>Node10&#45;&gt;Node14</title>
<path fill="none" stroke="midnightblue" d="M664.38,-358.37C669.06,-349.55 675.81,-335.3 678.5,-322 686.21,-283.9 683.75,-271.17 669.5,-235 654.55,-197.06 624.21,-159.72 605.79,-139.18"/>
<polygon fill="midnightblue" stroke="midnightblue" points="608.26,-136.7 598.92,-131.69 603.1,-141.43 608.26,-136.7"/>
</g>
<!-- Node16 -->
<g id="node16" class="node">
<title>Node16</title>
<g id="a_node16"><a xlink:href="_matrix_8h.html" target="_top" xlink:title="API for operations on Matrix data structures.">
<polygon fill="white" stroke="black" points="603,-235.5 603,-254.5 660,-254.5 660,-235.5 603,-235.5"/>
<text text-anchor="middle" x="631.5" y="-242.5" font-family="Helvetica,sans-Serif" font-size="10.00">Matrix.h</text>
</a>
</g>
</g>
<!-- Node10&#45;&gt;Node16 -->
<g id="edge20" class="edge">
<title>Node10&#45;&gt;Node16</title>
<path fill="none" stroke="midnightblue" d="M661.91,-358.31C665.48,-343.92 670.98,-314.41 663.5,-291 660.16,-280.54 653.4,-270.43 646.95,-262.45"/>
<polygon fill="midnightblue" stroke="midnightblue" points="649.44,-259.98 640.25,-254.71 644.15,-264.56 649.44,-259.98"/>
</g>
<!-- Node11&#45;&gt;Node12 -->
<g id="edge13" class="edge">
<title>Node11&#45;&gt;Node12</title>
<path fill="none" stroke="midnightblue" d="M614.33,-296.98C604.35,-287.7 588.19,-272.67 575.99,-261.33"/>
<polygon fill="midnightblue" stroke="midnightblue" points="578.36,-258.75 568.65,-254.51 573.59,-263.88 578.36,-258.75"/>
</g>
<!-- Node12&#45;&gt;Node3 -->
<g id="edge14" class="edge">
<title>Node12&#45;&gt;Node3</title>
<path fill="none" stroke="midnightblue" d="M539.92,-235.4C524.02,-227.67 501.8,-215.06 486.5,-199 456.04,-167.03 467.74,-145.1 438.5,-112 427.66,-99.73 412.91,-88.85 400.51,-80.87"/>
<polygon fill="midnightblue" stroke="midnightblue" points="402.33,-77.88 391.99,-75.59 398.65,-83.83 402.33,-77.88"/>
</g>
<!-- Node13 -->
<g id="node13" class="node">
<title>Node13</title>
<g id="a_node13"><a xlink:href="_vector_8h.html" target="_top" xlink:title="API for operations on Vector data structures.">
<polygon fill="white" stroke="black" points="537.5,-174 537.5,-193 593.5,-193 593.5,-174 537.5,-174"/>
<text text-anchor="middle" x="565.5" y="-181" font-family="Helvetica,sans-Serif" font-size="10.00">Vector.h</text>
</a>
</g>
</g>
<!-- Node12&#45;&gt;Node13 -->
<g id="edge15" class="edge">
<title>Node12&#45;&gt;Node13</title>
<path fill="none" stroke="midnightblue" d="M560.36,-235.48C561.21,-227.08 562.53,-213.98 563.62,-203.16"/>
<polygon fill="midnightblue" stroke="midnightblue" points="567.12,-203.31 564.64,-193.01 560.16,-202.61 567.12,-203.31"/>
</g>
<!-- Node13&#45;&gt;Node3 -->
<g id="edge19" class="edge">
<title>Node13&#45;&gt;Node3</title>
<path fill="none" stroke="midnightblue" d="M561.47,-173.76C554.2,-158.91 537.45,-128.73 514.5,-112 490.57,-94.56 459.54,-83.65 432.97,-76.95"/>
<polygon fill="midnightblue" stroke="midnightblue" points="433.56,-73.49 423.02,-74.58 431.94,-80.3 433.56,-73.49"/>
</g>
<!-- Node13&#45;&gt;Node14 -->
<g id="edge16" class="edge">
<title>Node13&#45;&gt;Node14</title>
<path fill="none" stroke="midnightblue" d="M569.08,-173.98C572.68,-165.4 578.35,-151.93 582.94,-140.98"/>
<polygon fill="midnightblue" stroke="midnightblue" points="586.28,-142.08 586.92,-131.51 579.82,-139.37 586.28,-142.08"/>
</g>
<!-- Node14&#45;&gt;Node3 -->
<g id="edge17" class="edge">
<title>Node14&#45;&gt;Node3</title>
<path fill="none" stroke="midnightblue" d="M566.78,-115.01C531.55,-106.12 464.78,-89.28 420.45,-78.09"/>
<polygon fill="midnightblue" stroke="midnightblue" points="421.08,-74.64 410.53,-75.59 419.37,-81.43 421.08,-74.64"/>
</g>
<!-- Node15 -->
<g id="node15" class="node">
<title>Node15</title>
<g id="a_node15"><a xlink:title=" ">
<polygon fill="white" stroke="#bfbfbf" points="562.5,-56.5 562.5,-75.5 618.5,-75.5 618.5,-56.5 562.5,-56.5"/>
<text text-anchor="middle" x="590.5" y="-63.5" font-family="Helvetica,sans-Serif" font-size="10.00">assert.h</text>
</a>
</g>
</g>
<!-- Node14&#45;&gt;Node15 -->
<g id="edge18" class="edge">
<title>Node14&#45;&gt;Node15</title>
<path fill="none" stroke="midnightblue" d="M590.5,-112.08C590.5,-105.01 590.5,-94.86 590.5,-85.99"/>
<polygon fill="midnightblue" stroke="midnightblue" points="594,-85.75 590.5,-75.75 587,-85.75 594,-85.75"/>
</g>
<!-- Node16&#45;&gt;Node3 -->
<g id="edge22" class="edge">
<title>Node16&#45;&gt;Node3</title>
<path fill="none" stroke="midnightblue" d="M602.88,-235.65C581.04,-228.34 550.98,-216.18 528.5,-199 489.07,-168.86 496.54,-143.88 458.5,-112 442.79,-98.83 422.64,-87.71 406.24,-79.82"/>
<polygon fill="midnightblue" stroke="midnightblue" points="407.63,-76.6 397.08,-75.55 404.67,-82.95 407.63,-76.6"/>
</g>
<!-- Node16&#45;&gt;Node13 -->
<g id="edge23" class="edge">
<title>Node16&#45;&gt;Node13</title>
<path fill="none" stroke="midnightblue" d="M622.04,-235.48C611.75,-226.2 595.08,-211.17 582.51,-199.83"/>
<polygon fill="midnightblue" stroke="midnightblue" points="584.71,-197.11 574.94,-193.01 580.02,-202.3 584.71,-197.11"/>
</g>
<!-- Node16&#45;&gt;Node14 -->
<g id="edge21" class="edge">
<title>Node16&#45;&gt;Node14</title>
<path fill="none" stroke="midnightblue" d="M628.55,-235.3C621.9,-215.68 605.63,-167.64 596.66,-141.19"/>
<polygon fill="midnightblue" stroke="midnightblue" points="599.95,-139.97 593.42,-131.62 593.32,-142.22 599.95,-139.97"/>
</g>
<!-- Node18 -->
<g id="node18" class="node">
<title>Node18</title>
<g id="a_node18"><a xlink:href="_error_8h.html" target="_top" xlink:title="API for error handling.">
<polygon fill="white" stroke="black" points="40.5,-174 40.5,-193 128.5,-193 128.5,-174 40.5,-174"/>
<text text-anchor="middle" x="84.5" y="-181" font-family="Helvetica,sans-Serif" font-size="10.00">ifxBase/Error.h</text>
</a>
</g>
</g>
<!-- Node17&#45;&gt;Node18 -->
<g id="edge27" class="edge">
<title>Node17&#45;&gt;Node18</title>
<path fill="none" stroke="midnightblue" d="M177.08,-296.97C137.37,-288.02 82.29,-272.8 69.5,-255 58.36,-239.49 65.83,-217.43 73.68,-202.13"/>
<polygon fill="midnightblue" stroke="midnightblue" points="76.85,-203.62 78.7,-193.19 70.75,-200.19 76.85,-203.62"/>
</g>
<!-- Node21 -->
<g id="node21" class="node">
<title>Node21</title>
<g id="a_node21"><a xlink:href="_list_8h.html" target="_top" xlink:title=" ">
<polygon fill="white" stroke="black" points="225,-112.5 225,-131.5 308,-131.5 308,-112.5 225,-112.5"/>
<text text-anchor="middle" x="266.5" y="-119.5" font-family="Helvetica,sans-Serif" font-size="10.00">ifxBase/List.h</text>
</a>
</g>
</g>
<!-- Node17&#45;&gt;Node21 -->
<g id="edge31" class="edge">
<title>Node17&#45;&gt;Node21</title>
<path fill="none" stroke="midnightblue" d="M221.24,-296.74C225.66,-274.86 237.91,-216.12 251.5,-168 254.02,-159.07 257.23,-149.29 260.03,-141.13"/>
<polygon fill="midnightblue" stroke="midnightblue" points="263.38,-142.15 263.38,-131.55 256.77,-139.83 263.38,-142.15"/>
</g>
<!-- Node22 -->
<g id="node22" class="node">
<title>Node22</title>
<g id="a_node22"><a xlink:href="_device_fmcw_types_8h.html" target="_top" xlink:title=" ">
<polygon fill="white" stroke="black" points="78.5,-235.5 78.5,-254.5 194.5,-254.5 194.5,-235.5 78.5,-235.5"/>
<text text-anchor="middle" x="136.5" y="-242.5" font-family="Helvetica,sans-Serif" font-size="10.00">DeviceFmcwTypes.h</text>
</a>
</g>
</g>
<!-- Node17&#45;&gt;Node22 -->
<g id="edge33" class="edge">
<title>Node17&#45;&gt;Node22</title>
<path fill="none" stroke="midnightblue" d="M207.61,-296.98C194.3,-287.43 172.5,-271.81 156.54,-260.37"/>
<polygon fill="midnightblue" stroke="midnightblue" points="158.54,-257.49 148.37,-254.51 154.46,-263.18 158.54,-257.49"/>
</g>
<!-- Node19 -->
<g id="node19" class="node">
<title>Node19</title>
<g id="a_node19"><a xlink:href="_log_8h.html" target="_top" xlink:title="API for logging.">
<polygon fill="white" stroke="black" points="74,-112.5 74,-131.5 117,-131.5 117,-112.5 74,-112.5"/>
<text text-anchor="middle" x="95.5" y="-119.5" font-family="Helvetica,sans-Serif" font-size="10.00">Log.h</text>
</a>
</g>
</g>
<!-- Node18&#45;&gt;Node19 -->
<g id="edge28" class="edge">
<title>Node18&#45;&gt;Node19</title>
<path fill="none" stroke="midnightblue" d="M86.08,-173.98C87.63,-165.58 90.05,-152.48 92.05,-141.66"/>
<polygon fill="midnightblue" stroke="midnightblue" points="95.55,-141.98 93.93,-131.51 88.67,-140.71 95.55,-141.98"/>
</g>
<!-- Node19&#45;&gt;Node3 -->
<g id="edge30" class="edge">
<title>Node19&#45;&gt;Node3</title>
<path fill="none" stroke="midnightblue" d="M117.08,-116.85C160.54,-108.5 259.76,-89.43 322.13,-77.45"/>
<polygon fill="midnightblue" stroke="midnightblue" points="323.02,-80.84 332.18,-75.52 321.7,-73.97 323.02,-80.84"/>
</g>
<!-- Node20 -->
<g id="node20" class="node">
<title>Node20</title>
<g id="a_node20"><a xlink:title=" ">
<polygon fill="white" stroke="#bfbfbf" points="70.5,-56.5 70.5,-75.5 120.5,-75.5 120.5,-56.5 70.5,-56.5"/>
<text text-anchor="middle" x="95.5" y="-63.5" font-family="Helvetica,sans-Serif" font-size="10.00">stdio.h</text>
</a>
</g>
</g>
<!-- Node19&#45;&gt;Node20 -->
<g id="edge29" class="edge">
<title>Node19&#45;&gt;Node20</title>
<path fill="none" stroke="midnightblue" d="M95.5,-112.08C95.5,-105.01 95.5,-94.86 95.5,-85.99"/>
<polygon fill="midnightblue" stroke="midnightblue" points="99,-85.75 95.5,-75.75 92,-85.75 99,-85.75"/>
</g>
<!-- Node21&#45;&gt;Node3 -->
<g id="edge32" class="edge">
<title>Node21&#45;&gt;Node3</title>
<path fill="none" stroke="midnightblue" d="M284.17,-112.32C301.89,-103.62 329.4,-90.12 349.79,-80.11"/>
<polygon fill="midnightblue" stroke="midnightblue" points="351.44,-83.2 358.87,-75.65 348.35,-76.92 351.44,-83.2"/>
</g>
<!-- Node22&#45;&gt;Node3 -->
<g id="edge36" class="edge">
<title>Node22&#45;&gt;Node3</title>
<path fill="none" stroke="midnightblue" d="M139.2,-235.38C147.05,-211.79 172.13,-145.73 216.5,-112 246.27,-89.37 286.9,-78.12 319.77,-72.53"/>
<polygon fill="midnightblue" stroke="midnightblue" points="320.36,-75.98 329.7,-70.97 319.28,-69.06 320.36,-75.98"/>
</g>
<!-- Node22&#45;&gt;Node8 -->
<g id="edge37" class="edge">
<title>Node22&#45;&gt;Node8</title>
<path fill="none" stroke="midnightblue" d="M164.01,-235.48C192.44,-226.66 237.6,-212.67 273.42,-201.57"/>
<polygon fill="midnightblue" stroke="midnightblue" points="274.73,-204.83 283.25,-198.52 272.66,-198.14 274.73,-204.83"/>
</g>
<!-- Node22&#45;&gt;Node14 -->
<g id="edge35" class="edge">
<title>Node22&#45;&gt;Node14</title>
<path fill="none" stroke="midnightblue" d="M146.11,-235.4C164.85,-219.16 208.24,-184.18 251.5,-168 357.68,-128.28 494.07,-122.78 556.53,-122.55"/>
<polygon fill="midnightblue" stroke="midnightblue" points="556.6,-126.05 566.61,-122.55 556.61,-119.05 556.6,-126.05"/>
</g>
<!-- Node22&#45;&gt;Node18 -->
<g id="edge34" class="edge">
<title>Node22&#45;&gt;Node18</title>
<path fill="none" stroke="midnightblue" d="M129.05,-235.48C121.17,-226.46 108.56,-212.02 98.76,-200.81"/>
<polygon fill="midnightblue" stroke="midnightblue" points="101.15,-198.24 91.94,-193.01 95.88,-202.84 101.15,-198.24"/>
</g>
<!-- Node23&#45;&gt;Node9 -->
<g id="edge39" class="edge">
<title>Node23&#45;&gt;Node9</title>
<path fill="none" stroke="midnightblue" d="M259.11,-470.08C264.76,-462.46 273.04,-451.26 279.95,-441.94"/>
<polygon fill="midnightblue" stroke="midnightblue" points="282.88,-443.87 286.02,-433.75 277.25,-439.7 282.88,-443.87"/>
</g>
<!-- Node24 -->
<g id="node24" class="node">
<title>Node24</title>
<g id="a_node24"><a xlink:href="_metrics_fmcw_8h.html" target="_top" xlink:title="API for MetricsFmcw.">
<polygon fill="white" stroke="black" points="0,-297 0,-316 135,-316 135,-297 0,-297"/>
<text text-anchor="middle" x="67.5" y="-304" font-family="Helvetica,sans-Serif" font-size="10.00">ifxFmcw/MetricsFmcw.h</text>
</a>
</g>
</g>
<!-- Node23&#45;&gt;Node24 -->
<g id="edge40" class="edge">
<title>Node23&#45;&gt;Node24</title>
<path fill="none" stroke="midnightblue" d="M243.33,-470.5C214.04,-443.35 122.51,-358.5 84.41,-323.17"/>
<polygon fill="midnightblue" stroke="midnightblue" points="86.44,-320.29 76.73,-316.06 81.68,-325.42 86.44,-320.29"/>
</g>
<!-- Node24&#45;&gt;Node3 -->
<g id="edge42" class="edge">
<title>Node24&#45;&gt;Node3</title>
<path fill="none" stroke="midnightblue" d="M63.52,-296.91C55.51,-279.12 37.71,-236.75 31.5,-199 24.79,-158.19 30.15,-135.03 64.5,-112 105.17,-84.72 241.46,-73.59 319.8,-69.36"/>
<polygon fill="midnightblue" stroke="midnightblue" points="320.18,-72.85 329.98,-68.83 319.81,-65.86 320.18,-72.85"/>
</g>
<!-- Node24&#45;&gt;Node22 -->
<g id="edge41" class="edge">
<title>Node24&#45;&gt;Node22</title>
<path fill="none" stroke="midnightblue" d="M77.39,-296.98C88.15,-287.7 105.57,-272.67 118.72,-261.33"/>
<polygon fill="midnightblue" stroke="midnightblue" points="121.34,-263.69 126.63,-254.51 116.77,-258.39 121.34,-263.69"/>
</g>
</g>
</svg>
