<?xml version="1.0" encoding="UTF-8" standalone="no"?>
<!DOCTYPE svg PUBLIC "-//W3C//DTD SVG 1.1//EN"
 "http://www.w3.org/Graphics/SVG/1.1/DTD/svg11.dtd">
<!-- Generated by graphviz version 2.43.0 (0)
 -->
<!-- Title: /home/jenkins/agent/workspace/ild&#45;documentation_release_v3.5.0/sdk/c/ifxBase/Base.h Pages: 1 -->
<svg width="725pt" height="442pt"
 viewBox="0.00 0.00 725.28 442.00" xmlns="http://www.w3.org/2000/svg" xmlns:xlink="http://www.w3.org/1999/xlink">
<g id="graph0" class="graph" transform="scale(1 1) rotate(0) translate(4 438)">
<title>/home/jenkins/agent/workspace/ild&#45;documentation_release_v3.5.0/sdk/c/ifxBase/Base.h</title>
<polygon fill="white" stroke="transparent" points="-4,4 -4,-438 721.28,-438 721.28,4 -4,4"/>
<!-- Node1 -->
<g id="node1" class="node">
<title>Node1</title>
<g id="a_node1"><a xlink:title="Header for ifxBase.">
<polygon fill="#bfbfbf" stroke="black" points="270.82,-392.5 270.82,-433.5 467.82,-433.5 467.82,-392.5 270.82,-392.5"/>
<text text-anchor="start" x="278.82" y="-421.5" font-family="Helvetica,sans-Serif" font-size="10.00">/home/jenkins/agent</text>
<text text-anchor="start" x="278.82" y="-410.5" font-family="Helvetica,sans-Serif" font-size="10.00">/workspace/ild&#45;documentation</text>
<text text-anchor="middle" x="369.32" y="-399.5" font-family="Helvetica,sans-Serif" font-size="10.00">_release_v3.5.0/sdk/c/ifxBase/Base.h</text>
</a>
</g>
</g>
<!-- Node2 -->
<g id="node2" class="node">
<title>Node2</title>
<g id="a_node2"><a xlink:href="_complex_8h.html" target="_top" xlink:title="API for operations on complex numbers.">
<polygon fill="white" stroke="black" points="256.82,-336.5 256.82,-355.5 365.82,-355.5 365.82,-336.5 256.82,-336.5"/>
<text text-anchor="middle" x="311.32" y="-343.5" font-family="Helvetica,sans-Serif" font-size="10.00">ifxBase/Complex.h</text>
</a>
</g>
</g>
<!-- Node1&#45;&gt;Node2 -->
<g id="edge1" class="edge">
<title>Node1&#45;&gt;Node2</title>
<path fill="none" stroke="midnightblue" d="M351.92,-392.5C343.62,-383.2 333.82,-372.21 325.92,-363.36"/>
<polygon fill="midnightblue" stroke="midnightblue" points="328.31,-360.78 319.04,-355.65 323.09,-365.44 328.31,-360.78"/>
</g>
<!-- Node3 -->
<g id="node3" class="node">
<title>Node3</title>
<g id="a_node3"><a xlink:href="_defines_8h.html" target="_top" xlink:title="Internal definitions used by standard math.h functions as Macros, to use float or double precision.">
<polygon fill="white" stroke="black" points="245.32,-280.5 245.32,-299.5 307.32,-299.5 307.32,-280.5 245.32,-280.5"/>
<text text-anchor="middle" x="276.32" y="-287.5" font-family="Helvetica,sans-Serif" font-size="10.00">Defines.h</text>
</a>
</g>
</g>
<!-- Node1&#45;&gt;Node3 -->
<g id="edge21" class="edge">
<title>Node1&#45;&gt;Node3</title>
<path fill="none" stroke="midnightblue" d="M293.35,-392.47C275.62,-384.18 258.85,-372.48 248.32,-356 238.46,-340.57 249.57,-321.07 260.58,-307.47"/>
<polygon fill="midnightblue" stroke="midnightblue" points="263.29,-309.69 267.23,-299.86 258.02,-305.09 263.29,-309.69"/>
</g>
<!-- Node4 -->
<g id="node4" class="node">
<title>Node4</title>
<g id="a_node4"><a xlink:href="_math_8h.html" target="_top" xlink:title="API for Mathematical operations.">
<polygon fill="white" stroke="black" points="256.82,-224.5 256.82,-243.5 307.82,-243.5 307.82,-224.5 256.82,-224.5"/>
<text text-anchor="middle" x="282.32" y="-231.5" font-family="Helvetica,sans-Serif" font-size="10.00">math.h</text>
</a>
</g>
</g>
<!-- Node1&#45;&gt;Node4 -->
<g id="edge32" class="edge">
<title>Node1&#45;&gt;Node4</title>
<path fill="none" stroke="midnightblue" d="M288.26,-392.5C269.71,-384.24 252.03,-372.54 240.32,-356 220.77,-328.4 223.21,-311.18 236.32,-280 241.35,-268.05 251.26,-257.69 260.61,-249.93"/>
<polygon fill="midnightblue" stroke="midnightblue" points="262.76,-252.69 268.53,-243.81 258.48,-247.15 262.76,-252.69"/>
</g>
<!-- Node5 -->
<g id="node5" class="node">
<title>Node5</title>
<g id="a_node5"><a xlink:href="_types_8h.html" target="_top" xlink:title="Definitions of data types used within the SDK.">
<polygon fill="white" stroke="black" points="328.82,-56.5 328.82,-75.5 381.82,-75.5 381.82,-56.5 328.82,-56.5"/>
<text text-anchor="middle" x="355.32" y="-63.5" font-family="Helvetica,sans-Serif" font-size="10.00">Types.h</text>
</a>
</g>
</g>
<!-- Node1&#45;&gt;Node5 -->
<g id="edge36" class="edge">
<title>Node1&#45;&gt;Node5</title>
<path fill="none" stroke="midnightblue" d="M467.86,-404.46C521.93,-397.29 588.84,-383.3 643.32,-356 682.16,-336.54 716.32,-334.44 716.32,-291 716.32,-291 716.32,-291 716.32,-177 716.32,-146.9 720.17,-131.59 697.32,-112 652.16,-73.29 471.14,-67.56 392.31,-66.94"/>
<polygon fill="midnightblue" stroke="midnightblue" points="391.91,-63.43 381.89,-66.88 391.88,-70.43 391.91,-63.43"/>
</g>
<!-- Node9 -->
<g id="node9" class="node">
<title>Node9</title>
<g id="a_node9"><a xlink:href="_vector_8h.html" target="_top" xlink:title="API for operations on Vector data structures.">
<polygon fill="white" stroke="black" points="110.32,-168.5 110.32,-187.5 166.32,-187.5 166.32,-168.5 110.32,-168.5"/>
<text text-anchor="middle" x="138.32" y="-175.5" font-family="Helvetica,sans-Serif" font-size="10.00">Vector.h</text>
</a>
</g>
</g>
<!-- Node1&#45;&gt;Node9 -->
<g id="edge39" class="edge">
<title>Node1&#45;&gt;Node9</title>
<path fill="none" stroke="midnightblue" d="M270.4,-410.33C176.78,-406.41 45.85,-394.04 13.32,-356 -35.37,-299.05 67.36,-223.58 115.37,-192.88"/>
<polygon fill="midnightblue" stroke="midnightblue" points="117.31,-195.8 123.92,-187.52 113.59,-189.87 117.31,-195.8"/>
</g>
<!-- Node12 -->
<g id="node12" class="node">
<title>Node12</title>
<g id="a_node12"><a xlink:href="_cube_8h.html" target="_top" xlink:title="API for operations on Cube data structures.">
<polygon fill="white" stroke="black" points="34.32,-336.5 34.32,-355.5 124.32,-355.5 124.32,-336.5 34.32,-336.5"/>
<text text-anchor="middle" x="79.32" y="-343.5" font-family="Helvetica,sans-Serif" font-size="10.00">ifxBase/Cube.h</text>
</a>
</g>
</g>
<!-- Node1&#45;&gt;Node12 -->
<g id="edge14" class="edge">
<title>Node1&#45;&gt;Node12</title>
<path fill="none" stroke="midnightblue" d="M282.31,-392.5C231.6,-381.13 169.56,-367.23 127.52,-357.8"/>
<polygon fill="midnightblue" stroke="midnightblue" points="128.07,-354.34 117.54,-355.57 126.54,-361.17 128.07,-354.34"/>
</g>
<!-- Node13 -->
<g id="node13" class="node">
<title>Node13</title>
<g id="a_node13"><a xlink:href="_matrix_8h.html" target="_top" xlink:title="API for operations on Matrix data structures.">
<polygon fill="white" stroke="black" points="90.82,-224.5 90.82,-243.5 147.82,-243.5 147.82,-224.5 90.82,-224.5"/>
<text text-anchor="middle" x="119.32" y="-231.5" font-family="Helvetica,sans-Serif" font-size="10.00">Matrix.h</text>
</a>
</g>
</g>
<!-- Node1&#45;&gt;Node13 -->
<g id="edge33" class="edge">
<title>Node1&#45;&gt;Node13</title>
<path fill="none" stroke="midnightblue" d="M270.72,-409.69C180.46,-405.25 56.34,-392.47 25.32,-356 -6.69,-318.36 57.25,-271.63 94.74,-248.83"/>
<polygon fill="midnightblue" stroke="midnightblue" points="96.81,-251.67 103.63,-243.57 93.24,-245.65 96.81,-251.67"/>
</g>
<!-- Node14 -->
<g id="node14" class="node">
<title>Node14</title>
<g id="a_node14"><a xlink:href="_error_8h.html" target="_top" xlink:title="API for error handling.">
<polygon fill="white" stroke="black" points="384.32,-336.5 384.32,-355.5 472.32,-355.5 472.32,-336.5 384.32,-336.5"/>
<text text-anchor="middle" x="428.32" y="-343.5" font-family="Helvetica,sans-Serif" font-size="10.00">ifxBase/Error.h</text>
</a>
</g>
</g>
<!-- Node1&#45;&gt;Node14 -->
<g id="edge22" class="edge">
<title>Node1&#45;&gt;Node14</title>
<path fill="none" stroke="midnightblue" d="M387.02,-392.5C395.55,-383.11 405.64,-371.98 413.72,-363.08"/>
<polygon fill="midnightblue" stroke="midnightblue" points="416.34,-365.41 420.47,-355.65 411.15,-360.7 416.34,-365.41"/>
</g>
<!-- Node15 -->
<g id="node15" class="node">
<title>Node15</title>
<g id="a_node15"><a xlink:href="_log_8h.html" target="_top" xlink:title="API for logging.">
<polygon fill="white" stroke="black" points="406.82,-280.5 406.82,-299.5 449.82,-299.5 449.82,-280.5 406.82,-280.5"/>
<text text-anchor="middle" x="428.32" y="-287.5" font-family="Helvetica,sans-Serif" font-size="10.00">Log.h</text>
</a>
</g>
</g>
<!-- Node1&#45;&gt;Node15 -->
<g id="edge31" class="edge">
<title>Node1&#45;&gt;Node15</title>
<path fill="none" stroke="midnightblue" d="M437.43,-392.47C454.7,-384.11 471.21,-372.37 481.32,-356 492.95,-337.18 472.11,-317.8 453.24,-305.16"/>
<polygon fill="midnightblue" stroke="midnightblue" points="454.89,-302.06 444.56,-299.69 451.15,-307.98 454.89,-302.06"/>
</g>
<!-- Node17 -->
<g id="node17" class="node">
<title>Node17</title>
<g id="a_node17"><a xlink:href="_l_a_8h.html" target="_top" xlink:title="API for Linear Algebra (LA)">
<polygon fill="white" stroke="black" points="110.32,-280.5 110.32,-299.5 188.32,-299.5 188.32,-280.5 110.32,-280.5"/>
<text text-anchor="middle" x="149.32" y="-287.5" font-family="Helvetica,sans-Serif" font-size="10.00">ifxBase/LA.h</text>
</a>
</g>
</g>
<!-- Node1&#45;&gt;Node17 -->
<g id="edge26" class="edge">
<title>Node1&#45;&gt;Node17</title>
<path fill="none" stroke="midnightblue" d="M270.63,-400.87C237.46,-392.89 202.32,-379.26 176.32,-356 162.82,-343.93 155.9,-324.04 152.47,-309.44"/>
<polygon fill="midnightblue" stroke="midnightblue" points="155.88,-308.64 150.47,-299.52 149.02,-310.02 155.88,-308.64"/>
</g>
<!-- Node18 -->
<g id="node18" class="node">
<title>Node18</title>
<g id="a_node18"><a xlink:href="_list_8h.html" target="_top" xlink:title=" ">
<polygon fill="white" stroke="black" points="412.82,-168.5 412.82,-187.5 495.82,-187.5 495.82,-168.5 412.82,-168.5"/>
<text text-anchor="middle" x="454.32" y="-175.5" font-family="Helvetica,sans-Serif" font-size="10.00">ifxBase/List.h</text>
</a>
</g>
</g>
<!-- Node1&#45;&gt;Node18 -->
<g id="edge29" class="edge">
<title>Node1&#45;&gt;Node18</title>
<path fill="none" stroke="midnightblue" d="M450.62,-392.5C468.62,-384.25 485.53,-372.55 496.32,-356 529.76,-304.71 488.47,-229.6 466.45,-196.16"/>
<polygon fill="midnightblue" stroke="midnightblue" points="469.11,-193.83 460.59,-187.53 463.32,-197.77 469.11,-193.83"/>
</g>
<!-- Node19 -->
<g id="node19" class="node">
<title>Node19</title>
<g id="a_node19"><a xlink:href="_mem_8h.html" target="_top" xlink:title="API for memory management.">
<polygon fill="white" stroke="black" points="440.32,-112.5 440.32,-131.5 530.32,-131.5 530.32,-112.5 440.32,-112.5"/>
<text text-anchor="middle" x="485.32" y="-119.5" font-family="Helvetica,sans-Serif" font-size="10.00">ifxBase/Mem.h</text>
</a>
</g>
</g>
<!-- Node1&#45;&gt;Node19 -->
<g id="edge34" class="edge">
<title>Node1&#45;&gt;Node19</title>
<path fill="none" stroke="midnightblue" d="M463.93,-392.49C483.28,-384.27 501.59,-372.59 514.32,-356 564.53,-290.57 517.26,-183.03 495.23,-140.81"/>
<polygon fill="midnightblue" stroke="midnightblue" points="498.19,-138.91 490.37,-131.76 492.02,-142.22 498.19,-138.91"/>
</g>
<!-- Node20 -->
<g id="node20" class="node">
<title>Node20</title>
<g id="a_node20"><a xlink:href="_uuid_8h.html" target="_top" xlink:title=" ">
<polygon fill="white" stroke="black" points="562.32,-168.5 562.32,-187.5 650.32,-187.5 650.32,-168.5 562.32,-168.5"/>
<text text-anchor="middle" x="606.32" y="-175.5" font-family="Helvetica,sans-Serif" font-size="10.00">ifxBase/Uuid.h</text>
</a>
</g>
</g>
<!-- Node1&#45;&gt;Node20 -->
<g id="edge37" class="edge">
<title>Node1&#45;&gt;Node20</title>
<path fill="none" stroke="midnightblue" d="M468.09,-398.34C519.06,-389.16 573.94,-375.19 590.32,-356 628.99,-310.68 618.43,-233.02 610.9,-197.6"/>
<polygon fill="midnightblue" stroke="midnightblue" points="614.27,-196.64 608.63,-187.67 607.45,-198.2 614.27,-196.64"/>
</g>
<!-- Node21 -->
<g id="node21" class="node">
<title>Node21</title>
<g id="a_node21"><a xlink:href="_version_8h.html" target="_top" xlink:title="Version information of SDK.">
<polygon fill="white" stroke="black" points="586.82,-112.5 586.82,-131.5 687.82,-131.5 687.82,-112.5 586.82,-112.5"/>
<text text-anchor="middle" x="637.32" y="-119.5" font-family="Helvetica,sans-Serif" font-size="10.00">ifxBase/Version.h</text>
</a>
</g>
</g>
<!-- Node1&#45;&gt;Node21 -->
<g id="edge40" class="edge">
<title>Node1&#45;&gt;Node21</title>
<path fill="none" stroke="midnightblue" d="M467.98,-401.23C513.36,-393.3 566.68,-379.59 610.32,-356 647.1,-336.12 678.32,-332.81 678.32,-291 678.32,-291 678.32,-291 678.32,-233 678.32,-198.52 660.41,-161.56 648.26,-140.47"/>
<polygon fill="midnightblue" stroke="midnightblue" points="651.16,-138.49 643.02,-131.71 645.16,-142.09 651.16,-138.49"/>
</g>
<!-- Node2&#45;&gt;Node3 -->
<g id="edge2" class="edge">
<title>Node2&#45;&gt;Node3</title>
<path fill="none" stroke="midnightblue" d="M305.54,-336.08C300.65,-328.53 293.49,-317.49 287.49,-308.23"/>
<polygon fill="midnightblue" stroke="midnightblue" points="290.37,-306.24 281.99,-299.75 284.49,-310.05 290.37,-306.24"/>
</g>
<!-- Node2&#45;&gt;Node5 -->
<g id="edge13" class="edge">
<title>Node2&#45;&gt;Node5</title>
<path fill="none" stroke="midnightblue" d="M314.69,-336.31C321.52,-317.92 336.32,-273.58 336.32,-235 336.32,-235 336.32,-235 336.32,-177 336.32,-144.49 344.48,-107.35 350.1,-85.61"/>
<polygon fill="midnightblue" stroke="midnightblue" points="353.54,-86.32 352.76,-75.75 346.78,-84.5 353.54,-86.32"/>
</g>
<!-- Node3&#45;&gt;Node4 -->
<g id="edge3" class="edge">
<title>Node3&#45;&gt;Node4</title>
<path fill="none" stroke="midnightblue" d="M277.31,-280.08C278.11,-272.93 279.25,-262.64 280.24,-253.69"/>
<polygon fill="midnightblue" stroke="midnightblue" points="283.72,-254.08 281.35,-243.75 276.77,-253.3 283.72,-254.08"/>
</g>
<!-- Node4&#45;&gt;Node5 -->
<g id="edge4" class="edge">
<title>Node4&#45;&gt;Node5</title>
<path fill="none" stroke="midnightblue" d="M284.18,-224.42C288.78,-204.1 301.84,-151.72 322.32,-112 327.47,-102.01 334.73,-91.83 341.13,-83.69"/>
<polygon fill="midnightblue" stroke="midnightblue" points="343.99,-85.72 347.6,-75.75 338.57,-81.29 343.99,-85.72"/>
</g>
<!-- Node4&#45;&gt;Node9 -->
<g id="edge8" class="edge">
<title>Node4&#45;&gt;Node9</title>
<path fill="none" stroke="midnightblue" d="M259.5,-224.44C235.49,-215.44 197.49,-201.19 170.45,-191.05"/>
<polygon fill="midnightblue" stroke="midnightblue" points="171.62,-187.75 161.03,-187.52 169.17,-194.3 171.62,-187.75"/>
</g>
<!-- Node6 -->
<g id="node6" class="node">
<title>Node6</title>
<g id="a_node6"><a xlink:title=" ">
<polygon fill="white" stroke="#bfbfbf" points="247.32,-0.5 247.32,-19.5 309.32,-19.5 309.32,-0.5 247.32,-0.5"/>
<text text-anchor="middle" x="278.32" y="-7.5" font-family="Helvetica,sans-Serif" font-size="10.00">stdbool.h</text>
</a>
</g>
</g>
<!-- Node5&#45;&gt;Node6 -->
<g id="edge5" class="edge">
<title>Node5&#45;&gt;Node6</title>
<path fill="none" stroke="midnightblue" d="M342.95,-56.32C331.16,-48.06 313.19,-35.45 299.19,-25.63"/>
<polygon fill="midnightblue" stroke="midnightblue" points="300.86,-22.53 290.66,-19.65 296.84,-28.26 300.86,-22.53"/>
</g>
<!-- Node7 -->
<g id="node7" class="node">
<title>Node7</title>
<g id="a_node7"><a xlink:title=" ">
<polygon fill="white" stroke="#bfbfbf" points="327.32,-0.5 327.32,-19.5 383.32,-19.5 383.32,-0.5 327.32,-0.5"/>
<text text-anchor="middle" x="355.32" y="-7.5" font-family="Helvetica,sans-Serif" font-size="10.00">stddef.h</text>
</a>
</g>
</g>
<!-- Node5&#45;&gt;Node7 -->
<g id="edge6" class="edge">
<title>Node5&#45;&gt;Node7</title>
<path fill="none" stroke="midnightblue" d="M355.32,-56.08C355.32,-49.01 355.32,-38.86 355.32,-29.99"/>
<polygon fill="midnightblue" stroke="midnightblue" points="358.82,-29.75 355.32,-19.75 351.82,-29.75 358.82,-29.75"/>
</g>
<!-- Node8 -->
<g id="node8" class="node">
<title>Node8</title>
<g id="a_node8"><a xlink:title=" ">
<polygon fill="white" stroke="#bfbfbf" points="401.82,-0.5 401.82,-19.5 454.82,-19.5 454.82,-0.5 401.82,-0.5"/>
<text text-anchor="middle" x="428.32" y="-7.5" font-family="Helvetica,sans-Serif" font-size="10.00">stdint.h</text>
</a>
</g>
</g>
<!-- Node5&#45;&gt;Node8 -->
<g id="edge7" class="edge">
<title>Node5&#45;&gt;Node8</title>
<path fill="none" stroke="midnightblue" d="M367.05,-56.32C378.16,-48.11 395.06,-35.6 408.3,-25.81"/>
<polygon fill="midnightblue" stroke="midnightblue" points="410.42,-28.59 416.38,-19.83 406.26,-22.97 410.42,-28.59"/>
</g>
<!-- Node9&#45;&gt;Node5 -->
<g id="edge12" class="edge">
<title>Node9&#45;&gt;Node5</title>
<path fill="none" stroke="midnightblue" d="M141.48,-168.36C147.06,-154.3 160.05,-126.61 180.32,-112 221.61,-82.24 280.86,-72.13 318.71,-68.71"/>
<polygon fill="midnightblue" stroke="midnightblue" points="319.1,-72.19 328.79,-67.92 318.55,-65.22 319.1,-72.19"/>
</g>
<!-- Node10 -->
<g id="node10" class="node">
<title>Node10</title>
<g id="a_node10"><a xlink:href="_mda_8h.html" target="_top" xlink:title="API for multi&#45;dimensional arrays.">
<polygon fill="white" stroke="black" points="64.82,-112.5 64.82,-131.5 111.82,-131.5 111.82,-112.5 64.82,-112.5"/>
<text text-anchor="middle" x="88.32" y="-119.5" font-family="Helvetica,sans-Serif" font-size="10.00">Mda.h</text>
</a>
</g>
</g>
<!-- Node9&#45;&gt;Node10 -->
<g id="edge9" class="edge">
<title>Node9&#45;&gt;Node10</title>
<path fill="none" stroke="midnightblue" d="M130.06,-168.08C122.86,-160.3 112.21,-148.8 103.47,-139.37"/>
<polygon fill="midnightblue" stroke="midnightblue" points="105.79,-136.71 96.42,-131.75 100.65,-141.47 105.79,-136.71"/>
</g>
<!-- Node10&#45;&gt;Node5 -->
<g id="edge10" class="edge">
<title>Node10&#45;&gt;Node5</title>
<path fill="none" stroke="midnightblue" d="M112.02,-116.21C158.66,-106.77 262.67,-85.74 318.39,-74.47"/>
<polygon fill="midnightblue" stroke="midnightblue" points="319.43,-77.83 328.54,-72.42 318.04,-70.97 319.43,-77.83"/>
</g>
<!-- Node11 -->
<g id="node11" class="node">
<title>Node11</title>
<g id="a_node11"><a xlink:title=" ">
<polygon fill="white" stroke="#bfbfbf" points="60.32,-56.5 60.32,-75.5 116.32,-75.5 116.32,-56.5 60.32,-56.5"/>
<text text-anchor="middle" x="88.32" y="-63.5" font-family="Helvetica,sans-Serif" font-size="10.00">assert.h</text>
</a>
</g>
</g>
<!-- Node10&#45;&gt;Node11 -->
<g id="edge11" class="edge">
<title>Node10&#45;&gt;Node11</title>
<path fill="none" stroke="midnightblue" d="M88.32,-112.08C88.32,-105.01 88.32,-94.86 88.32,-85.99"/>
<polygon fill="midnightblue" stroke="midnightblue" points="91.82,-85.75 88.32,-75.75 84.82,-85.75 91.82,-85.75"/>
</g>
<!-- Node12&#45;&gt;Node3 -->
<g id="edge15" class="edge">
<title>Node12&#45;&gt;Node3</title>
<path fill="none" stroke="midnightblue" d="M110.54,-336.44C144.25,-327.2 198.12,-312.44 235.25,-302.26"/>
<polygon fill="midnightblue" stroke="midnightblue" points="236.53,-305.54 245.25,-299.52 234.68,-298.78 236.53,-305.54"/>
</g>
<!-- Node12&#45;&gt;Node10 -->
<g id="edge20" class="edge">
<title>Node12&#45;&gt;Node10</title>
<path fill="none" stroke="midnightblue" d="M79.31,-336.49C79.31,-316.72 79.51,-266.19 81.32,-224 82.55,-195.24 85.07,-161.94 86.73,-141.68"/>
<polygon fill="midnightblue" stroke="midnightblue" points="90.22,-141.89 87.57,-131.64 83.25,-141.31 90.22,-141.89"/>
</g>
<!-- Node12&#45;&gt;Node13 -->
<g id="edge16" class="edge">
<title>Node12&#45;&gt;Node13</title>
<path fill="none" stroke="midnightblue" d="M82.16,-336.12C86.21,-323.55 93.98,-299.9 101.32,-280 104.64,-271.01 108.57,-261.11 111.91,-252.89"/>
<polygon fill="midnightblue" stroke="midnightblue" points="115.17,-254.15 115.73,-243.57 108.7,-251.5 115.17,-254.15"/>
</g>
<!-- Node13&#45;&gt;Node5 -->
<g id="edge18" class="edge">
<title>Node13&#45;&gt;Node5</title>
<path fill="none" stroke="midnightblue" d="M132.98,-224.23C145.14,-215.95 162.88,-202.64 175.32,-188 200.45,-158.43 188.31,-136.6 218.32,-112 247.16,-88.36 288.81,-77 318.61,-71.63"/>
<polygon fill="midnightblue" stroke="midnightblue" points="319.32,-75.06 328.61,-69.97 318.18,-68.15 319.32,-75.06"/>
</g>
<!-- Node13&#45;&gt;Node9 -->
<g id="edge19" class="edge">
<title>Node13&#45;&gt;Node9</title>
<path fill="none" stroke="midnightblue" d="M122.46,-224.08C125,-216.85 128.68,-206.41 131.85,-197.4"/>
<polygon fill="midnightblue" stroke="midnightblue" points="135.22,-198.35 135.24,-187.75 128.62,-196.02 135.22,-198.35"/>
</g>
<!-- Node13&#45;&gt;Node10 -->
<g id="edge17" class="edge">
<title>Node13&#45;&gt;Node10</title>
<path fill="none" stroke="midnightblue" d="M115.24,-224.21C111.23,-215.26 105.16,-200.9 101.32,-188 96.76,-172.64 93.31,-154.77 91.12,-141.65"/>
<polygon fill="midnightblue" stroke="midnightblue" points="94.54,-140.86 89.52,-131.53 87.62,-141.96 94.54,-140.86"/>
</g>
<!-- Node14&#45;&gt;Node15 -->
<g id="edge23" class="edge">
<title>Node14&#45;&gt;Node15</title>
<path fill="none" stroke="midnightblue" d="M428.32,-336.08C428.32,-329.01 428.32,-318.86 428.32,-309.99"/>
<polygon fill="midnightblue" stroke="midnightblue" points="431.82,-309.75 428.32,-299.75 424.82,-309.75 431.82,-309.75"/>
</g>
<!-- Node15&#45;&gt;Node5 -->
<g id="edge25" class="edge">
<title>Node15&#45;&gt;Node5</title>
<path fill="none" stroke="midnightblue" d="M420.04,-280.44C412.23,-271.9 400.8,-258.05 394.32,-244 369.34,-189.81 359.97,-118.77 356.79,-85.59"/>
<polygon fill="midnightblue" stroke="midnightblue" points="360.27,-85.18 355.91,-75.52 353.29,-85.79 360.27,-85.18"/>
</g>
<!-- Node16 -->
<g id="node16" class="node">
<title>Node16</title>
<g id="a_node16"><a xlink:title=" ">
<polygon fill="white" stroke="#bfbfbf" points="403.32,-224.5 403.32,-243.5 453.32,-243.5 453.32,-224.5 403.32,-224.5"/>
<text text-anchor="middle" x="428.32" y="-231.5" font-family="Helvetica,sans-Serif" font-size="10.00">stdio.h</text>
</a>
</g>
</g>
<!-- Node15&#45;&gt;Node16 -->
<g id="edge24" class="edge">
<title>Node15&#45;&gt;Node16</title>
<path fill="none" stroke="midnightblue" d="M428.32,-280.08C428.32,-273.01 428.32,-262.86 428.32,-253.99"/>
<polygon fill="midnightblue" stroke="midnightblue" points="431.82,-253.75 428.32,-243.75 424.82,-253.75 431.82,-253.75"/>
</g>
<!-- Node17&#45;&gt;Node5 -->
<g id="edge28" class="edge">
<title>Node17&#45;&gt;Node5</title>
<path fill="none" stroke="midnightblue" d="M156.8,-280.36C179.33,-254.39 248.75,-175.01 309.32,-112 318.81,-102.13 329.75,-91.41 338.58,-82.9"/>
<polygon fill="midnightblue" stroke="midnightblue" points="341.19,-85.25 345.99,-75.8 336.35,-80.19 341.19,-85.25"/>
</g>
<!-- Node17&#45;&gt;Node13 -->
<g id="edge27" class="edge">
<title>Node17&#45;&gt;Node13</title>
<path fill="none" stroke="midnightblue" d="M144.37,-280.08C140.22,-272.61 134.17,-261.72 129.05,-252.52"/>
<polygon fill="midnightblue" stroke="midnightblue" points="132.1,-250.79 124.18,-243.75 125.98,-254.19 132.1,-250.79"/>
</g>
<!-- Node18&#45;&gt;Node5 -->
<g id="edge30" class="edge">
<title>Node18&#45;&gt;Node5</title>
<path fill="none" stroke="midnightblue" d="M446.55,-168.37C430,-149.97 391.02,-106.67 369.77,-83.05"/>
<polygon fill="midnightblue" stroke="midnightblue" points="372.34,-80.68 363.05,-75.59 367.14,-85.37 372.34,-80.68"/>
</g>
<!-- Node19&#45;&gt;Node5 -->
<g id="edge35" class="edge">
<title>Node19&#45;&gt;Node5</title>
<path fill="none" stroke="midnightblue" d="M464.72,-112.44C443.33,-103.56 409.64,-89.56 385.3,-79.45"/>
<polygon fill="midnightblue" stroke="midnightblue" points="386.4,-76.12 375.82,-75.52 383.72,-82.58 386.4,-76.12"/>
</g>
<!-- Node20&#45;&gt;Node5 -->
<g id="edge38" class="edge">
<title>Node20&#45;&gt;Node5</title>
<path fill="none" stroke="midnightblue" d="M599.95,-168.35C589.12,-154.29 565.7,-126.59 539.32,-112 492.49,-86.11 430.87,-74.95 392.17,-70.26"/>
<polygon fill="midnightblue" stroke="midnightblue" points="392.22,-66.74 381.89,-69.1 391.43,-73.7 392.22,-66.74"/>
</g>
<!-- Node21&#45;&gt;Node5 -->
<g id="edge41" class="edge">
<title>Node21&#45;&gt;Node5</title>
<path fill="none" stroke="midnightblue" d="M592.64,-112.44C537.13,-101.82 443.49,-83.88 391.99,-74.02"/>
<polygon fill="midnightblue" stroke="midnightblue" points="392.46,-70.55 381.98,-72.1 391.14,-77.42 392.46,-70.55"/>
</g>
</g>
</svg>
