<?xml version="1.0" encoding="UTF-8" standalone="no"?>
<!DOCTYPE svg PUBLIC "-//W3C//DTD SVG 1.1//EN"
 "http://www.w3.org/Graphics/SVG/1.1/DTD/svg11.dtd">
<!-- Generated by graphviz version 2.43.0 (0)
 -->
<!-- Title: /home/jenkins/agent/workspace/ild&#45;documentation_release_v3.5.0/sdk/c/ifxRadar/DBF.h Pages: 1 -->
<svg width="256pt" height="442pt"
 viewBox="0.00 0.00 255.50 442.00" xmlns="http://www.w3.org/2000/svg" xmlns:xlink="http://www.w3.org/1999/xlink">
<g id="graph0" class="graph" transform="scale(1 1) rotate(0) translate(4 438)">
<title>/home/jenkins/agent/workspace/ild&#45;documentation_release_v3.5.0/sdk/c/ifxRadar/DBF.h</title>
<polygon fill="white" stroke="transparent" points="-4,4 -4,-438 251.5,-438 251.5,4 -4,4"/>
<!-- Node1 -->
<g id="node1" class="node">
<title>Node1</title>
<g id="a_node1"><a xlink:title="API for Digital Beamforming (DBF) algorithm.">
<polygon fill="#bfbfbf" stroke="black" points="50.5,-392.5 50.5,-433.5 247.5,-433.5 247.5,-392.5 50.5,-392.5"/>
<text text-anchor="start" x="58.5" y="-421.5" font-family="Helvetica,sans-Serif" font-size="10.00">/home/jenkins/agent</text>
<text text-anchor="start" x="58.5" y="-410.5" font-family="Helvetica,sans-Serif" font-size="10.00">/workspace/ild&#45;documentation</text>
<text text-anchor="middle" x="149" y="-399.5" font-family="Helvetica,sans-Serif" font-size="10.00">_release_v3.5.0/sdk/c/ifxRadar/DBF.h</text>
</a>
</g>
</g>
<!-- Node2 -->
<g id="node2" class="node">
<title>Node2</title>
<g id="a_node2"><a xlink:href="_cube_8h.html" target="_top" xlink:title="API for operations on Cube data structures.">
<polygon fill="white" stroke="black" points="65,-336.5 65,-355.5 155,-355.5 155,-336.5 65,-336.5"/>
<text text-anchor="middle" x="110" y="-343.5" font-family="Helvetica,sans-Serif" font-size="10.00">ifxBase/Cube.h</text>
</a>
</g>
</g>
<!-- Node1&#45;&gt;Node2 -->
<g id="edge1" class="edge">
<title>Node1&#45;&gt;Node2</title>
<path fill="none" stroke="midnightblue" d="M137.3,-392.5C131.95,-383.59 125.67,-373.11 120.48,-364.46"/>
<polygon fill="midnightblue" stroke="midnightblue" points="123.34,-362.43 115.19,-355.65 117.34,-366.03 123.34,-362.43"/>
</g>
<!-- Node5 -->
<g id="node5" class="node">
<title>Node5</title>
<g id="a_node5"><a xlink:href="_types_8h.html" target="_top" xlink:title="Definitions of data types used within the SDK.">
<polygon fill="white" stroke="black" points="109.5,-56.5 109.5,-75.5 162.5,-75.5 162.5,-56.5 109.5,-56.5"/>
<text text-anchor="middle" x="136" y="-63.5" font-family="Helvetica,sans-Serif" font-size="10.00">Types.h</text>
</a>
</g>
</g>
<!-- Node1&#45;&gt;Node5 -->
<g id="edge18" class="edge">
<title>Node1&#45;&gt;Node5</title>
<path fill="none" stroke="midnightblue" d="M172.86,-392.41C196.76,-370.46 230,-332.46 230,-291 230,-291 230,-291 230,-177 230,-133.93 187.84,-99.21 159.99,-80.98"/>
<polygon fill="midnightblue" stroke="midnightblue" points="161.85,-78.01 151.52,-75.65 158.12,-83.94 161.85,-78.01"/>
</g>
<!-- Node3 -->
<g id="node3" class="node">
<title>Node3</title>
<g id="a_node3"><a xlink:href="_defines_8h.html" target="_top" xlink:title="Internal definitions used by standard math.h functions as Macros, to use float or double precision.">
<polygon fill="white" stroke="black" points="115,-280.5 115,-299.5 177,-299.5 177,-280.5 115,-280.5"/>
<text text-anchor="middle" x="146" y="-287.5" font-family="Helvetica,sans-Serif" font-size="10.00">Defines.h</text>
</a>
</g>
</g>
<!-- Node2&#45;&gt;Node3 -->
<g id="edge2" class="edge">
<title>Node2&#45;&gt;Node3</title>
<path fill="none" stroke="midnightblue" d="M115.94,-336.08C120.98,-328.53 128.34,-317.49 134.51,-308.23"/>
<polygon fill="midnightblue" stroke="midnightblue" points="137.53,-310.01 140.17,-299.75 131.71,-306.13 137.53,-310.01"/>
</g>
<!-- Node10 -->
<g id="node10" class="node">
<title>Node10</title>
<g id="a_node10"><a xlink:href="_mda_8h.html" target="_top" xlink:title="API for multi&#45;dimensional arrays.">
<polygon fill="white" stroke="black" points="4.5,-112.5 4.5,-131.5 51.5,-131.5 51.5,-112.5 4.5,-112.5"/>
<text text-anchor="middle" x="28" y="-119.5" font-family="Helvetica,sans-Serif" font-size="10.00">Mda.h</text>
</a>
</g>
</g>
<!-- Node2&#45;&gt;Node10 -->
<g id="edge17" class="edge">
<title>Node2&#45;&gt;Node10</title>
<path fill="none" stroke="midnightblue" d="M102.01,-336.36C87.28,-319.85 56.06,-282.07 42,-244 29.28,-209.56 27.37,-166.19 27.46,-141.84"/>
<polygon fill="midnightblue" stroke="midnightblue" points="30.97,-141.59 27.63,-131.53 23.97,-141.47 30.97,-141.59"/>
</g>
<!-- Node12 -->
<g id="node12" class="node">
<title>Node12</title>
<g id="a_node12"><a xlink:href="_matrix_8h.html" target="_top" xlink:title="API for operations on Matrix data structures.">
<polygon fill="white" stroke="black" points="51.5,-224.5 51.5,-243.5 108.5,-243.5 108.5,-224.5 51.5,-224.5"/>
<text text-anchor="middle" x="80" y="-231.5" font-family="Helvetica,sans-Serif" font-size="10.00">Matrix.h</text>
</a>
</g>
</g>
<!-- Node2&#45;&gt;Node12 -->
<g id="edge13" class="edge">
<title>Node2&#45;&gt;Node12</title>
<path fill="none" stroke="midnightblue" d="M107.65,-336.37C102.78,-318.54 91.54,-277.3 84.98,-253.27"/>
<polygon fill="midnightblue" stroke="midnightblue" points="88.35,-252.32 82.34,-243.59 81.6,-254.16 88.35,-252.32"/>
</g>
<!-- Node4 -->
<g id="node4" class="node">
<title>Node4</title>
<g id="a_node4"><a xlink:href="_math_8h.html" target="_top" xlink:title="API for Mathematical operations.">
<polygon fill="white" stroke="black" points="126.5,-224.5 126.5,-243.5 177.5,-243.5 177.5,-224.5 126.5,-224.5"/>
<text text-anchor="middle" x="152" y="-231.5" font-family="Helvetica,sans-Serif" font-size="10.00">math.h</text>
</a>
</g>
</g>
<!-- Node3&#45;&gt;Node4 -->
<g id="edge3" class="edge">
<title>Node3&#45;&gt;Node4</title>
<path fill="none" stroke="midnightblue" d="M146.99,-280.08C147.79,-272.93 148.93,-262.64 149.92,-253.69"/>
<polygon fill="midnightblue" stroke="midnightblue" points="153.4,-254.08 151.03,-243.75 146.44,-253.3 153.4,-254.08"/>
</g>
<!-- Node4&#45;&gt;Node5 -->
<g id="edge4" class="edge">
<title>Node4&#45;&gt;Node5</title>
<path fill="none" stroke="midnightblue" d="M157.38,-224.44C162.56,-215.68 170.01,-201.47 173,-188 174.93,-179.32 174.55,-176.75 173,-168 167.64,-137.76 153.9,-104.7 144.75,-84.91"/>
<polygon fill="midnightblue" stroke="midnightblue" points="147.8,-83.16 140.35,-75.63 141.47,-86.16 147.8,-83.16"/>
</g>
<!-- Node9 -->
<g id="node9" class="node">
<title>Node9</title>
<g id="a_node9"><a xlink:href="_vector_8h.html" target="_top" xlink:title="API for operations on Vector data structures.">
<polygon fill="white" stroke="black" points="108,-168.5 108,-187.5 164,-187.5 164,-168.5 108,-168.5"/>
<text text-anchor="middle" x="136" y="-175.5" font-family="Helvetica,sans-Serif" font-size="10.00">Vector.h</text>
</a>
</g>
</g>
<!-- Node4&#45;&gt;Node9 -->
<g id="edge8" class="edge">
<title>Node4&#45;&gt;Node9</title>
<path fill="none" stroke="midnightblue" d="M149.36,-224.08C147.21,-216.85 144.12,-206.41 141.45,-197.4"/>
<polygon fill="midnightblue" stroke="midnightblue" points="144.79,-196.34 138.59,-187.75 138.08,-198.33 144.79,-196.34"/>
</g>
<!-- Node6 -->
<g id="node6" class="node">
<title>Node6</title>
<g id="a_node6"><a xlink:title=" ">
<polygon fill="white" stroke="#bfbfbf" points="28,-0.5 28,-19.5 90,-19.5 90,-0.5 28,-0.5"/>
<text text-anchor="middle" x="59" y="-7.5" font-family="Helvetica,sans-Serif" font-size="10.00">stdbool.h</text>
</a>
</g>
</g>
<!-- Node5&#45;&gt;Node6 -->
<g id="edge5" class="edge">
<title>Node5&#45;&gt;Node6</title>
<path fill="none" stroke="midnightblue" d="M123.63,-56.32C111.84,-48.06 93.87,-35.45 79.86,-25.63"/>
<polygon fill="midnightblue" stroke="midnightblue" points="81.54,-22.53 71.34,-19.65 77.52,-28.26 81.54,-22.53"/>
</g>
<!-- Node7 -->
<g id="node7" class="node">
<title>Node7</title>
<g id="a_node7"><a xlink:title=" ">
<polygon fill="white" stroke="#bfbfbf" points="108,-0.5 108,-19.5 164,-19.5 164,-0.5 108,-0.5"/>
<text text-anchor="middle" x="136" y="-7.5" font-family="Helvetica,sans-Serif" font-size="10.00">stddef.h</text>
</a>
</g>
</g>
<!-- Node5&#45;&gt;Node7 -->
<g id="edge6" class="edge">
<title>Node5&#45;&gt;Node7</title>
<path fill="none" stroke="midnightblue" d="M136,-56.08C136,-49.01 136,-38.86 136,-29.99"/>
<polygon fill="midnightblue" stroke="midnightblue" points="139.5,-29.75 136,-19.75 132.5,-29.75 139.5,-29.75"/>
</g>
<!-- Node8 -->
<g id="node8" class="node">
<title>Node8</title>
<g id="a_node8"><a xlink:title=" ">
<polygon fill="white" stroke="#bfbfbf" points="182.5,-0.5 182.5,-19.5 235.5,-19.5 235.5,-0.5 182.5,-0.5"/>
<text text-anchor="middle" x="209" y="-7.5" font-family="Helvetica,sans-Serif" font-size="10.00">stdint.h</text>
</a>
</g>
</g>
<!-- Node5&#45;&gt;Node8 -->
<g id="edge7" class="edge">
<title>Node5&#45;&gt;Node8</title>
<path fill="none" stroke="midnightblue" d="M147.73,-56.32C158.84,-48.11 175.74,-35.6 188.98,-25.81"/>
<polygon fill="midnightblue" stroke="midnightblue" points="191.1,-28.59 197.06,-19.83 186.94,-22.97 191.1,-28.59"/>
</g>
<!-- Node9&#45;&gt;Node5 -->
<g id="edge12" class="edge">
<title>Node9&#45;&gt;Node5</title>
<path fill="none" stroke="midnightblue" d="M136,-168.37C136,-150.62 136,-109.67 136,-85.6"/>
<polygon fill="midnightblue" stroke="midnightblue" points="139.5,-85.59 136,-75.59 132.5,-85.59 139.5,-85.59"/>
</g>
<!-- Node9&#45;&gt;Node10 -->
<g id="edge9" class="edge">
<title>Node9&#45;&gt;Node10</title>
<path fill="none" stroke="midnightblue" d="M118.65,-168.32C101.33,-159.66 74.48,-146.24 54.5,-136.25"/>
<polygon fill="midnightblue" stroke="midnightblue" points="55.82,-133 45.31,-131.65 52.69,-139.26 55.82,-133"/>
</g>
<!-- Node10&#45;&gt;Node5 -->
<g id="edge10" class="edge">
<title>Node10&#45;&gt;Node5</title>
<path fill="none" stroke="midnightblue" d="M45.35,-112.32C62.67,-103.66 89.52,-90.24 109.5,-80.25"/>
<polygon fill="midnightblue" stroke="midnightblue" points="111.31,-83.26 118.69,-75.65 108.18,-77 111.31,-83.26"/>
</g>
<!-- Node11 -->
<g id="node11" class="node">
<title>Node11</title>
<g id="a_node11"><a xlink:title=" ">
<polygon fill="white" stroke="#bfbfbf" points="0,-56.5 0,-75.5 56,-75.5 56,-56.5 0,-56.5"/>
<text text-anchor="middle" x="28" y="-63.5" font-family="Helvetica,sans-Serif" font-size="10.00">assert.h</text>
</a>
</g>
</g>
<!-- Node10&#45;&gt;Node11 -->
<g id="edge11" class="edge">
<title>Node10&#45;&gt;Node11</title>
<path fill="none" stroke="midnightblue" d="M28,-112.08C28,-105.01 28,-94.86 28,-85.99"/>
<polygon fill="midnightblue" stroke="midnightblue" points="31.5,-85.75 28,-75.75 24.5,-85.75 31.5,-85.75"/>
</g>
<!-- Node12&#45;&gt;Node5 -->
<g id="edge15" class="edge">
<title>Node12&#45;&gt;Node5</title>
<path fill="none" stroke="midnightblue" d="M82.4,-224.11C85.83,-211.54 92.46,-187.88 99,-168 108.64,-138.68 121.26,-105.11 128.99,-85.01"/>
<polygon fill="midnightblue" stroke="midnightblue" points="132.29,-86.17 132.64,-75.58 125.77,-83.64 132.29,-86.17"/>
</g>
<!-- Node12&#45;&gt;Node9 -->
<g id="edge16" class="edge">
<title>Node12&#45;&gt;Node9</title>
<path fill="none" stroke="midnightblue" d="M89,-224.32C97.19,-216.42 109.51,-204.55 119.47,-194.94"/>
<polygon fill="midnightblue" stroke="midnightblue" points="122.07,-197.29 126.84,-187.83 117.21,-192.26 122.07,-197.29"/>
</g>
<!-- Node12&#45;&gt;Node10 -->
<g id="edge14" class="edge">
<title>Node12&#45;&gt;Node10</title>
<path fill="none" stroke="midnightblue" d="M75.92,-224.37C67.45,-206.46 47.82,-164.92 36.48,-140.95"/>
<polygon fill="midnightblue" stroke="midnightblue" points="39.5,-139.14 32.06,-131.59 33.17,-142.13 39.5,-139.14"/>
</g>
</g>
</svg>
