<?xml version="1.0" encoding="UTF-8" standalone="no"?>
<!DOCTYPE svg PUBLIC "-//W3C//DTD SVG 1.1//EN"
 "http://www.w3.org/Graphics/SVG/1.1/DTD/svg11.dtd">
<!-- Generated by graphviz version 2.43.0 (0)
 -->
<!-- Title: /home/jenkins/agent/workspace/ild&#45;documentation_release_v3.5.0/sdk/c/ifxBase/Defines.h Pages: 1 -->
<svg width="1525pt" height="417pt"
 viewBox="0.00 0.00 1525.00 417.00" xmlns="http://www.w3.org/2000/svg" xmlns:xlink="http://www.w3.org/1999/xlink">
<g id="graph0" class="graph" transform="scale(1 1) rotate(0) translate(4 413)">
<title>/home/jenkins/agent/workspace/ild&#45;documentation_release_v3.5.0/sdk/c/ifxBase/Defines.h</title>
<polygon fill="white" stroke="transparent" points="-4,4 -4,-413 1521,-413 1521,4 -4,4"/>
<!-- Node1 -->
<g id="node1" class="node">
<title>Node1</title>
<g id="a_node1"><a xlink:title="Internal definitions used by standard math.h functions as Macros, to use float or double precision.">
<polygon fill="#bfbfbf" stroke="black" points="259,-356.5 259,-408.5 423,-408.5 423,-356.5 259,-356.5"/>
<text text-anchor="start" x="267" y="-396.5" font-family="Helvetica,sans-Serif" font-size="10.00">/home/jenkins/agent</text>
<text text-anchor="start" x="267" y="-385.5" font-family="Helvetica,sans-Serif" font-size="10.00">/workspace/ild&#45;documentation</text>
<text text-anchor="start" x="267" y="-374.5" font-family="Helvetica,sans-Serif" font-size="10.00">_release_v3.5.0/sdk/c/ifxBase</text>
<text text-anchor="middle" x="341" y="-363.5" font-family="Helvetica,sans-Serif" font-size="10.00">/Defines.h</text>
</a>
</g>
</g>
<!-- Node2 -->
<g id="node2" class="node">
<title>Node2</title>
<g id="a_node2"><a xlink:href="_base_8h.html" target="_top" xlink:title="Header for ifxBase.">
<polygon fill="white" stroke="black" points="242.5,-184 242.5,-225 439.5,-225 439.5,-184 242.5,-184"/>
<text text-anchor="start" x="250.5" y="-213" font-family="Helvetica,sans-Serif" font-size="10.00">/home/jenkins/agent</text>
<text text-anchor="start" x="250.5" y="-202" font-family="Helvetica,sans-Serif" font-size="10.00">/workspace/ild&#45;documentation</text>
<text text-anchor="middle" x="341" y="-191" font-family="Helvetica,sans-Serif" font-size="10.00">_release_v3.5.0/sdk/c/ifxBase/Base.h</text>
</a>
</g>
</g>
<!-- Node1&#45;&gt;Node2 -->
<g id="edge1" class="edge">
<title>Node1&#45;&gt;Node2</title>
<path fill="none" stroke="midnightblue" d="M341,-346.11C341,-309.76 341,-254.46 341,-225.22"/>
<polygon fill="midnightblue" stroke="midnightblue" points="337.5,-346.28 341,-356.28 344.5,-346.28 337.5,-346.28"/>
</g>
<!-- Node3 -->
<g id="node3" class="node">
<title>Node3</title>
<g id="a_node3"><a xlink:href="_complex_8h.html" target="_top" xlink:title="API for operations on complex numbers.">
<polygon fill="white" stroke="black" points="100,-267.5 100,-319.5 264,-319.5 264,-267.5 100,-267.5"/>
<text text-anchor="start" x="108" y="-307.5" font-family="Helvetica,sans-Serif" font-size="10.00">/home/jenkins/agent</text>
<text text-anchor="start" x="108" y="-296.5" font-family="Helvetica,sans-Serif" font-size="10.00">/workspace/ild&#45;documentation</text>
<text text-anchor="start" x="108" y="-285.5" font-family="Helvetica,sans-Serif" font-size="10.00">_release_v3.5.0/sdk/c/ifxBase</text>
<text text-anchor="middle" x="182" y="-274.5" font-family="Helvetica,sans-Serif" font-size="10.00">/Complex.h</text>
</a>
</g>
</g>
<!-- Node1&#45;&gt;Node3 -->
<g id="edge2" class="edge">
<title>Node1&#45;&gt;Node3</title>
<path fill="none" stroke="midnightblue" d="M286.16,-351.49C267.17,-341.1 246.09,-329.57 227.89,-319.61"/>
<polygon fill="midnightblue" stroke="midnightblue" points="284.56,-354.61 295.01,-356.34 287.92,-348.47 284.56,-354.61"/>
</g>
<!-- Node7 -->
<g id="node7" class="node">
<title>Node7</title>
<g id="a_node7"><a xlink:href="_cube_8h.html" target="_top" xlink:title="API for operations on Cube data structures.">
<polygon fill="white" stroke="black" points="514,-273 514,-314 712,-314 712,-273 514,-273"/>
<text text-anchor="start" x="522" y="-302" font-family="Helvetica,sans-Serif" font-size="10.00">/home/jenkins/agent</text>
<text text-anchor="start" x="522" y="-291" font-family="Helvetica,sans-Serif" font-size="10.00">/workspace/ild&#45;documentation</text>
<text text-anchor="middle" x="613" y="-280" font-family="Helvetica,sans-Serif" font-size="10.00">_release_v3.5.0/sdk/c/ifxBase/Cube.h</text>
</a>
</g>
</g>
<!-- Node1&#45;&gt;Node7 -->
<g id="edge7" class="edge">
<title>Node1&#45;&gt;Node7</title>
<path fill="none" stroke="midnightblue" d="M429.07,-353.33C469.08,-340.53 515.45,-325.7 551.62,-314.13"/>
<polygon fill="midnightblue" stroke="midnightblue" points="427.77,-350.07 419.31,-356.45 429.9,-356.74 427.77,-350.07"/>
</g>
<!-- Node3&#45;&gt;Node2 -->
<g id="edge3" class="edge">
<title>Node3&#45;&gt;Node2</title>
<path fill="none" stroke="midnightblue" d="M236.83,-262.5C259.46,-250.12 285.06,-236.11 305.21,-225.08"/>
<polygon fill="midnightblue" stroke="midnightblue" points="235.08,-259.47 227.99,-267.34 238.44,-265.61 235.08,-259.47"/>
</g>
<!-- Node4 -->
<g id="node4" class="node">
<title>Node4</title>
<g id="a_node4"><a xlink:href="_angle_monopulse_8h.html" target="_top" xlink:title="API for Phase Monopulse algorithm.">
<polygon fill="white" stroke="black" points="0,-89.5 0,-141.5 166,-141.5 166,-89.5 0,-89.5"/>
<text text-anchor="start" x="8" y="-129.5" font-family="Helvetica,sans-Serif" font-size="10.00">/home/jenkins/agent</text>
<text text-anchor="start" x="8" y="-118.5" font-family="Helvetica,sans-Serif" font-size="10.00">/workspace/ild&#45;documentation</text>
<text text-anchor="start" x="8" y="-107.5" font-family="Helvetica,sans-Serif" font-size="10.00">_release_v3.5.0/sdk/c/ifxRadar</text>
<text text-anchor="middle" x="83" y="-96.5" font-family="Helvetica,sans-Serif" font-size="10.00">/AngleMonopulse.h</text>
</a>
</g>
</g>
<!-- Node3&#45;&gt;Node4 -->
<g id="edge4" class="edge">
<title>Node3&#45;&gt;Node4</title>
<path fill="none" stroke="midnightblue" d="M90.13,-274.48C67.03,-265.36 44.88,-251.64 31,-231 17.86,-211.45 22.9,-200.12 31,-178 35.95,-164.48 45.34,-151.88 54.79,-141.65"/>
<polygon fill="midnightblue" stroke="midnightblue" points="89.12,-277.83 99.72,-277.99 91.53,-271.26 89.12,-277.83"/>
</g>
<!-- Node6 -->
<g id="node6" class="node">
<title>Node6</title>
<g id="a_node6"><a xlink:href="_util_8h.html" target="_top" xlink:title="This file defines some utility functions like printing to, reading from files or printing to console.">
<polygon fill="white" stroke="black" points="40,-184 40,-225 224,-225 224,-184 40,-184"/>
<text text-anchor="start" x="48" y="-213" font-family="Helvetica,sans-Serif" font-size="10.00">/home/jenkins/agent</text>
<text text-anchor="start" x="48" y="-202" font-family="Helvetica,sans-Serif" font-size="10.00">/workspace/ild&#45;documentation</text>
<text text-anchor="middle" x="132" y="-191" font-family="Helvetica,sans-Serif" font-size="10.00">_release_v3.5.0/sdk/c/ifxUtil/Util.h</text>
</a>
</g>
</g>
<!-- Node3&#45;&gt;Node6 -->
<g id="edge6" class="edge">
<title>Node3&#45;&gt;Node6</title>
<path fill="none" stroke="midnightblue" d="M162.46,-258.51C155.95,-247.17 148.92,-234.94 143.25,-225.08"/>
<polygon fill="midnightblue" stroke="midnightblue" points="159.52,-260.41 167.54,-267.34 165.59,-256.92 159.52,-260.41"/>
</g>
<!-- Node5 -->
<g id="node5" class="node">
<title>Node5</title>
<g id="a_node5"><a xlink:href="_radar_8h.html" target="_top" xlink:title="Header for ifxRadar.">
<polygon fill="white" stroke="black" points="465,-0.5 465,-52.5 631,-52.5 631,-0.5 465,-0.5"/>
<text text-anchor="start" x="473" y="-40.5" font-family="Helvetica,sans-Serif" font-size="10.00">/home/jenkins/agent</text>
<text text-anchor="start" x="473" y="-29.5" font-family="Helvetica,sans-Serif" font-size="10.00">/workspace/ild&#45;documentation</text>
<text text-anchor="start" x="473" y="-18.5" font-family="Helvetica,sans-Serif" font-size="10.00">_release_v3.5.0/sdk/c/ifxRadar</text>
<text text-anchor="middle" x="548" y="-7.5" font-family="Helvetica,sans-Serif" font-size="10.00">/Radar.h</text>
</a>
</g>
</g>
<!-- Node4&#45;&gt;Node5 -->
<g id="edge5" class="edge">
<title>Node4&#45;&gt;Node5</title>
<path fill="none" stroke="midnightblue" d="M175.97,-97.11C260.34,-81.32 383.62,-58.26 464.8,-43.07"/>
<polygon fill="midnightblue" stroke="midnightblue" points="175.32,-93.67 166.13,-98.95 176.61,-100.55 175.32,-93.67"/>
</g>
<!-- Node7&#45;&gt;Node2 -->
<g id="edge14" class="edge">
<title>Node7&#45;&gt;Node2</title>
<path fill="none" stroke="midnightblue" d="M542.32,-269.89C498.91,-256.01 443.87,-238.4 402.31,-225.11"/>
<polygon fill="midnightblue" stroke="midnightblue" points="541.37,-273.26 551.96,-272.98 543.5,-266.6 541.37,-273.26"/>
</g>
<!-- Node7&#45;&gt;Node6 -->
<g id="edge25" class="edge">
<title>Node7&#45;&gt;Node6</title>
<path fill="none" stroke="midnightblue" d="M503.66,-277.38C427.48,-266.21 323.66,-249.74 233,-231 224.32,-229.21 215.27,-227.16 206.29,-225.04"/>
<polygon fill="midnightblue" stroke="midnightblue" points="503.35,-280.87 513.75,-278.85 504.36,-273.94 503.35,-280.87"/>
</g>
<!-- Node8 -->
<g id="node8" class="node">
<title>Node8</title>
<g id="a_node8"><a xlink:href="_device_control_8h.html" target="_top" xlink:title="Header for ifxAvian.">
<polygon fill="white" stroke="black" points="1060,-178.5 1060,-230.5 1224,-230.5 1224,-178.5 1060,-178.5"/>
<text text-anchor="start" x="1068" y="-218.5" font-family="Helvetica,sans-Serif" font-size="10.00">/home/jenkins/agent</text>
<text text-anchor="start" x="1068" y="-207.5" font-family="Helvetica,sans-Serif" font-size="10.00">/workspace/ild&#45;documentation</text>
<text text-anchor="start" x="1068" y="-196.5" font-family="Helvetica,sans-Serif" font-size="10.00">_release_v3.5.0/sdk/c/ifxAvian</text>
<text text-anchor="middle" x="1142" y="-185.5" font-family="Helvetica,sans-Serif" font-size="10.00">/DeviceControl.h</text>
</a>
</g>
</g>
<!-- Node7&#45;&gt;Node8 -->
<g id="edge8" class="edge">
<title>Node7&#45;&gt;Node8</title>
<path fill="none" stroke="midnightblue" d="M722.31,-275.08C798.27,-262.9 901.83,-246.18 993,-231 1014.62,-227.4 1037.98,-223.44 1059.66,-219.73"/>
<polygon fill="midnightblue" stroke="midnightblue" points="721.57,-271.65 712.25,-276.69 722.68,-278.56 721.57,-271.65"/>
</g>
<!-- Node13 -->
<g id="node13" class="node">
<title>Node13</title>
<g id="a_node13"><a xlink:href="_motion_angle_8h.html" target="_top" xlink:title=" ">
<polygon fill="white" stroke="black" points="1242.5,-178.5 1242.5,-230.5 1441.5,-230.5 1441.5,-178.5 1242.5,-178.5"/>
<text text-anchor="start" x="1250.5" y="-218.5" font-family="Helvetica,sans-Serif" font-size="10.00">/home/jenkins/agent</text>
<text text-anchor="start" x="1250.5" y="-207.5" font-family="Helvetica,sans-Serif" font-size="10.00">/workspace/ild&#45;documentation</text>
<text text-anchor="start" x="1250.5" y="-196.5" font-family="Helvetica,sans-Serif" font-size="10.00">_release_v3.5.0/sdk/c/ifxMotionAngle</text>
<text text-anchor="middle" x="1342" y="-185.5" font-family="Helvetica,sans-Serif" font-size="10.00">/MotionAngle.h</text>
</a>
</g>
</g>
<!-- Node7&#45;&gt;Node13 -->
<g id="edge15" class="edge">
<title>Node7&#45;&gt;Node13</title>
<path fill="none" stroke="midnightblue" d="M722.33,-286C846.64,-277.61 1055.39,-260.45 1233,-231 1236.07,-230.49 1239.18,-229.95 1242.31,-229.37"/>
<polygon fill="midnightblue" stroke="midnightblue" points="721.79,-282.53 712.05,-286.69 722.26,-289.51 721.79,-282.53"/>
</g>
<!-- Node14 -->
<g id="node14" class="node">
<title>Node14</title>
<g id="a_node14"><a xlink:href="_angle_capon_8h.html" target="_top" xlink:title="API for the 1&#45;D Angle Capon algorithm.">
<polygon fill="white" stroke="black" points="247,-89.5 247,-141.5 413,-141.5 413,-89.5 247,-89.5"/>
<text text-anchor="start" x="255" y="-129.5" font-family="Helvetica,sans-Serif" font-size="10.00">/home/jenkins/agent</text>
<text text-anchor="start" x="255" y="-118.5" font-family="Helvetica,sans-Serif" font-size="10.00">/workspace/ild&#45;documentation</text>
<text text-anchor="start" x="255" y="-107.5" font-family="Helvetica,sans-Serif" font-size="10.00">_release_v3.5.0/sdk/c/ifxRadar</text>
<text text-anchor="middle" x="330" y="-96.5" font-family="Helvetica,sans-Serif" font-size="10.00">/AngleCapon.h</text>
</a>
</g>
</g>
<!-- Node7&#45;&gt;Node14 -->
<g id="edge16" class="edge">
<title>Node7&#45;&gt;Node14</title>
<path fill="none" stroke="midnightblue" d="M549.75,-268.86C528.48,-259.1 505.48,-246.42 487,-231 464.54,-212.27 470.21,-197.03 448,-178 431.16,-163.57 410.35,-151.31 390.93,-141.63"/>
<polygon fill="midnightblue" stroke="midnightblue" points="548.5,-272.13 559.06,-273 551.35,-265.74 548.5,-272.13"/>
</g>
<!-- Node15 -->
<g id="node15" class="node">
<title>Node15</title>
<g id="a_node15"><a xlink:href="_d_b_f_8h.html" target="_top" xlink:title="API for Digital Beamforming (DBF) algorithm.">
<polygon fill="white" stroke="black" points="786.5,-184 786.5,-225 983.5,-225 983.5,-184 786.5,-184"/>
<text text-anchor="start" x="794.5" y="-213" font-family="Helvetica,sans-Serif" font-size="10.00">/home/jenkins/agent</text>
<text text-anchor="start" x="794.5" y="-202" font-family="Helvetica,sans-Serif" font-size="10.00">/workspace/ild&#45;documentation</text>
<text text-anchor="middle" x="885" y="-191" font-family="Helvetica,sans-Serif" font-size="10.00">_release_v3.5.0/sdk/c/ifxRadar/DBF.h</text>
</a>
</g>
</g>
<!-- Node7&#45;&gt;Node15 -->
<g id="edge18" class="edge">
<title>Node7&#45;&gt;Node15</title>
<path fill="none" stroke="midnightblue" d="M683.68,-269.89C727.09,-256.01 782.13,-238.4 823.69,-225.11"/>
<polygon fill="midnightblue" stroke="midnightblue" points="682.5,-266.6 674.04,-272.98 684.63,-273.26 682.5,-266.6"/>
</g>
<!-- Node16 -->
<g id="node16" class="node">
<title>Node16</title>
<g id="a_node16"><a xlink:href="_range_angle_image_8h.html" target="_top" xlink:title="API for Range Angle Image algorithm.">
<polygon fill="white" stroke="black" points="683,-89.5 683,-141.5 849,-141.5 849,-89.5 683,-89.5"/>
<text text-anchor="start" x="691" y="-129.5" font-family="Helvetica,sans-Serif" font-size="10.00">/home/jenkins/agent</text>
<text text-anchor="start" x="691" y="-118.5" font-family="Helvetica,sans-Serif" font-size="10.00">/workspace/ild&#45;documentation</text>
<text text-anchor="start" x="691" y="-107.5" font-family="Helvetica,sans-Serif" font-size="10.00">_release_v3.5.0/sdk/c/ifxRadar</text>
<text text-anchor="middle" x="766" y="-96.5" font-family="Helvetica,sans-Serif" font-size="10.00">/RangeAngleImage.h</text>
</a>
</g>
</g>
<!-- Node7&#45;&gt;Node16 -->
<g id="edge22" class="edge">
<title>Node7&#45;&gt;Node16</title>
<path fill="none" stroke="midnightblue" d="M688.93,-268.64C707.64,-259.52 726.01,-247.26 739,-231 759.4,-205.47 764.85,-167.13 766.06,-141.96"/>
<polygon fill="midnightblue" stroke="midnightblue" points="687.36,-265.5 679.74,-272.86 690.29,-271.86 687.36,-265.5"/>
</g>
<!-- Node17 -->
<g id="node17" class="node">
<title>Node17</title>
<g id="a_node17"><a xlink:href="_segmentation_8h.html" target="_top" xlink:title="API for Segmentation and Seamless Tracking algorithm.">
<polygon fill="white" stroke="black" points="496,-178.5 496,-230.5 730,-230.5 730,-178.5 496,-178.5"/>
<text text-anchor="start" x="504" y="-218.5" font-family="Helvetica,sans-Serif" font-size="10.00">/home/jenkins/agent</text>
<text text-anchor="start" x="504" y="-207.5" font-family="Helvetica,sans-Serif" font-size="10.00">/workspace/ild&#45;documentation</text>
<text text-anchor="start" x="504" y="-196.5" font-family="Helvetica,sans-Serif" font-size="10.00">_release_v3.5.0/sdk/c/ifxRadarSegmentation</text>
<text text-anchor="middle" x="613" y="-185.5" font-family="Helvetica,sans-Serif" font-size="10.00">/Segmentation.h</text>
</a>
</g>
</g>
<!-- Node7&#45;&gt;Node17 -->
<g id="edge23" class="edge">
<title>Node7&#45;&gt;Node17</title>
<path fill="none" stroke="midnightblue" d="M613,-262.51C613,-252.17 613,-240.71 613,-230.79"/>
<polygon fill="midnightblue" stroke="midnightblue" points="609.5,-262.76 613,-272.76 616.5,-262.76 609.5,-262.76"/>
</g>
<!-- Node9 -->
<g id="node9" class="node">
<title>Node9</title>
<g id="a_node9"><a xlink:href="_avian_8h.html" target="_top" xlink:title="Header for ifxAvian.">
<polygon fill="white" stroke="black" points="1298,-0.5 1298,-52.5 1462,-52.5 1462,-0.5 1298,-0.5"/>
<text text-anchor="start" x="1306" y="-40.5" font-family="Helvetica,sans-Serif" font-size="10.00">/home/jenkins/agent</text>
<text text-anchor="start" x="1306" y="-29.5" font-family="Helvetica,sans-Serif" font-size="10.00">/workspace/ild&#45;documentation</text>
<text text-anchor="start" x="1306" y="-18.5" font-family="Helvetica,sans-Serif" font-size="10.00">_release_v3.5.0/sdk/c/ifxAvian</text>
<text text-anchor="middle" x="1380" y="-7.5" font-family="Helvetica,sans-Serif" font-size="10.00">/Avian.h</text>
</a>
</g>
</g>
<!-- Node8&#45;&gt;Node9 -->
<g id="edge9" class="edge">
<title>Node8&#45;&gt;Node9</title>
<path fill="none" stroke="midnightblue" d="M1232.78,-175.04C1263.67,-164.19 1293.55,-152.02 1306,-142 1314.07,-135.51 1345.68,-84.38 1364.89,-52.68"/>
<polygon fill="midnightblue" stroke="midnightblue" points="1231.48,-171.79 1223.17,-178.36 1233.77,-178.4 1231.48,-171.79"/>
</g>
<!-- Node10 -->
<g id="node10" class="node">
<title>Node10</title>
<g id="a_node10"><a xlink:href="_metrics_8h.html" target="_top" xlink:title="API for Metrics.">
<polygon fill="white" stroke="black" points="1353,-89.5 1353,-141.5 1517,-141.5 1517,-89.5 1353,-89.5"/>
<text text-anchor="start" x="1361" y="-129.5" font-family="Helvetica,sans-Serif" font-size="10.00">/home/jenkins/agent</text>
<text text-anchor="start" x="1361" y="-118.5" font-family="Helvetica,sans-Serif" font-size="10.00">/workspace/ild&#45;documentation</text>
<text text-anchor="start" x="1361" y="-107.5" font-family="Helvetica,sans-Serif" font-size="10.00">_release_v3.5.0/sdk/c/ifxAvian</text>
<text text-anchor="middle" x="1435" y="-96.5" font-family="Helvetica,sans-Serif" font-size="10.00">/Metrics.h</text>
</a>
</g>
</g>
<!-- Node8&#45;&gt;Node10 -->
<g id="edge10" class="edge">
<title>Node8&#45;&gt;Node10</title>
<path fill="none" stroke="midnightblue" d="M1234.06,-176.17C1272.09,-164.87 1315.82,-151.89 1352.76,-140.92"/>
<polygon fill="midnightblue" stroke="midnightblue" points="1232.6,-172.95 1224.01,-179.15 1234.59,-179.66 1232.6,-172.95"/>
</g>
<!-- Node11 -->
<g id="node11" class="node">
<title>Node11</title>
<g id="a_node11"><a xlink:href="_device_cw_8h.html" target="_top" xlink:title="Header for Continuous Wave Control.">
<polygon fill="white" stroke="black" points="905,-89.5 905,-141.5 1069,-141.5 1069,-89.5 905,-89.5"/>
<text text-anchor="start" x="913" y="-129.5" font-family="Helvetica,sans-Serif" font-size="10.00">/home/jenkins/agent</text>
<text text-anchor="start" x="913" y="-118.5" font-family="Helvetica,sans-Serif" font-size="10.00">/workspace/ild&#45;documentation</text>
<text text-anchor="start" x="913" y="-107.5" font-family="Helvetica,sans-Serif" font-size="10.00">_release_v3.5.0/sdk/c/ifxCw</text>
<text text-anchor="middle" x="987" y="-96.5" font-family="Helvetica,sans-Serif" font-size="10.00">/DeviceCw.h</text>
</a>
</g>
</g>
<!-- Node8&#45;&gt;Node11 -->
<g id="edge12" class="edge">
<title>Node8&#45;&gt;Node11</title>
<path fill="none" stroke="midnightblue" d="M1088.29,-173.35C1069.84,-163 1049.39,-151.52 1031.73,-141.61"/>
<polygon fill="midnightblue" stroke="midnightblue" points="1086.73,-176.49 1097.17,-178.34 1090.16,-170.39 1086.73,-176.49"/>
</g>
<!-- Node12 -->
<g id="node12" class="node">
<title>Node12</title>
<g id="a_node12"><a xlink:href="_presence_sensing_8h.html" target="_top" xlink:title=" ">
<polygon fill="white" stroke="black" points="1087,-89.5 1087,-141.5 1297,-141.5 1297,-89.5 1087,-89.5"/>
<text text-anchor="start" x="1095" y="-129.5" font-family="Helvetica,sans-Serif" font-size="10.00">/home/jenkins/agent</text>
<text text-anchor="start" x="1095" y="-118.5" font-family="Helvetica,sans-Serif" font-size="10.00">/workspace/ild&#45;documentation</text>
<text text-anchor="start" x="1095" y="-107.5" font-family="Helvetica,sans-Serif" font-size="10.00">_release_v3.5.0/sdk/c/ifxRadarPresence</text>
<text text-anchor="middle" x="1192" y="-96.5" font-family="Helvetica,sans-Serif" font-size="10.00">Sensing/PresenceSensing.h</text>
</a>
</g>
</g>
<!-- Node8&#45;&gt;Node12 -->
<g id="edge13" class="edge">
<title>Node8&#45;&gt;Node12</title>
<path fill="none" stroke="midnightblue" d="M1161.46,-169.64C1166.82,-160.31 1172.55,-150.35 1177.57,-141.61"/>
<polygon fill="midnightblue" stroke="midnightblue" points="1158.41,-167.92 1156.46,-178.34 1164.48,-171.41 1158.41,-167.92"/>
</g>
<!-- Node10&#45;&gt;Node9 -->
<g id="edge11" class="edge">
<title>Node10&#45;&gt;Node9</title>
<path fill="none" stroke="midnightblue" d="M1413.59,-80.64C1407.69,-71.31 1401.4,-61.35 1395.87,-52.61"/>
<polygon fill="midnightblue" stroke="midnightblue" points="1410.79,-82.75 1419.09,-89.34 1416.71,-79.01 1410.79,-82.75"/>
</g>
<!-- Node14&#45;&gt;Node5 -->
<g id="edge17" class="edge">
<title>Node14&#45;&gt;Node5</title>
<path fill="none" stroke="midnightblue" d="M402.12,-85.72C429.02,-74.98 459.32,-62.89 485.3,-52.52"/>
<polygon fill="midnightblue" stroke="midnightblue" points="400.75,-82.5 392.76,-89.45 403.35,-89 400.75,-82.5"/>
</g>
<!-- Node15&#45;&gt;Node5 -->
<g id="edge19" class="edge">
<title>Node15&#45;&gt;Node5</title>
<path fill="none" stroke="midnightblue" d="M886.33,-173.76C885.79,-147.75 880.61,-110.81 858,-89 826.21,-58.33 711.8,-41.91 631.26,-33.95"/>
<polygon fill="midnightblue" stroke="midnightblue" points="882.83,-173.82 886.33,-183.82 889.83,-173.82 882.83,-173.82"/>
</g>
<!-- Node15&#45;&gt;Node16 -->
<g id="edge20" class="edge">
<title>Node15&#45;&gt;Node16</title>
<path fill="none" stroke="midnightblue" d="M849.91,-177.85C834.26,-166.4 815.87,-152.96 800.31,-141.58"/>
<polygon fill="midnightblue" stroke="midnightblue" points="848.16,-180.9 858.29,-183.98 852.29,-175.25 848.16,-180.9"/>
</g>
<!-- Node16&#45;&gt;Node5 -->
<g id="edge21" class="edge">
<title>Node16&#45;&gt;Node5</title>
<path fill="none" stroke="midnightblue" d="M693.88,-85.72C666.98,-74.98 636.68,-62.89 610.7,-52.52"/>
<polygon fill="midnightblue" stroke="midnightblue" points="692.65,-89 703.24,-89.45 695.25,-82.5 692.65,-89"/>
</g>
<!-- Node18 -->
<g id="node18" class="node">
<title>Node18</title>
<g id="a_node18"><a xlink:href="_radar_segmentation_8h.html" target="_top" xlink:title="Header for ifxRadarSegmentation.">
<polygon fill="white" stroke="black" points="431,-89.5 431,-141.5 665,-141.5 665,-89.5 431,-89.5"/>
<text text-anchor="start" x="439" y="-129.5" font-family="Helvetica,sans-Serif" font-size="10.00">/home/jenkins/agent</text>
<text text-anchor="start" x="439" y="-118.5" font-family="Helvetica,sans-Serif" font-size="10.00">/workspace/ild&#45;documentation</text>
<text text-anchor="start" x="439" y="-107.5" font-family="Helvetica,sans-Serif" font-size="10.00">_release_v3.5.0/sdk/c/ifxRadarSegmentation</text>
<text text-anchor="middle" x="548" y="-96.5" font-family="Helvetica,sans-Serif" font-size="10.00">/RadarSegmentation.h</text>
</a>
</g>
</g>
<!-- Node17&#45;&gt;Node18 -->
<g id="edge24" class="edge">
<title>Node17&#45;&gt;Node18</title>
<path fill="none" stroke="midnightblue" d="M588.13,-170.22C581.04,-160.72 573.42,-150.53 566.76,-141.61"/>
<polygon fill="midnightblue" stroke="midnightblue" points="585.41,-172.42 594.2,-178.34 591.02,-168.23 585.41,-172.42"/>
</g>
</g>
</svg>
