<?xml version="1.0" encoding="UTF-8" standalone="no"?>
<!DOCTYPE svg PUBLIC "-//W3C//DTD SVG 1.1//EN"
 "http://www.w3.org/Graphics/SVG/1.1/DTD/svg11.dtd">
<!-- Generated by graphviz version 2.43.0 (0)
 -->
<!-- Title: /home/jenkins/agent/workspace/ild&#45;documentation_release_v3.5.0/sdk/c/ifxAvian/DeviceControl.h Pages: 1 -->
<svg width="637pt" height="239pt"
 viewBox="0.00 0.00 637.00 239.00" xmlns="http://www.w3.org/2000/svg" xmlns:xlink="http://www.w3.org/1999/xlink">
<g id="graph0" class="graph" transform="scale(1 1) rotate(0) translate(4 235)">
<title>/home/jenkins/agent/workspace/ild&#45;documentation_release_v3.5.0/sdk/c/ifxAvian/DeviceControl.h</title>
<polygon fill="white" stroke="transparent" points="-4,4 -4,-235 633,-235 633,4 -4,4"/>
<!-- Node1 -->
<g id="node1" class="node">
<title>Node1</title>
<g id="a_node1"><a xlink:title="Header for ifxAvian.">
<polygon fill="#bfbfbf" stroke="black" points="146,-178.5 146,-230.5 310,-230.5 310,-178.5 146,-178.5"/>
<text text-anchor="start" x="154" y="-218.5" font-family="Helvetica,sans-Serif" font-size="10.00">/home/jenkins/agent</text>
<text text-anchor="start" x="154" y="-207.5" font-family="Helvetica,sans-Serif" font-size="10.00">/workspace/ild&#45;documentation</text>
<text text-anchor="start" x="154" y="-196.5" font-family="Helvetica,sans-Serif" font-size="10.00">_release_v3.5.0/sdk/c/ifxAvian</text>
<text text-anchor="middle" x="228" y="-185.5" font-family="Helvetica,sans-Serif" font-size="10.00">/DeviceControl.h</text>
</a>
</g>
</g>
<!-- Node2 -->
<g id="node2" class="node">
<title>Node2</title>
<g id="a_node2"><a xlink:href="_avian_8h.html" target="_top" xlink:title="Header for ifxAvian.">
<polygon fill="white" stroke="black" points="0,-0.5 0,-52.5 164,-52.5 164,-0.5 0,-0.5"/>
<text text-anchor="start" x="8" y="-40.5" font-family="Helvetica,sans-Serif" font-size="10.00">/home/jenkins/agent</text>
<text text-anchor="start" x="8" y="-29.5" font-family="Helvetica,sans-Serif" font-size="10.00">/workspace/ild&#45;documentation</text>
<text text-anchor="start" x="8" y="-18.5" font-family="Helvetica,sans-Serif" font-size="10.00">_release_v3.5.0/sdk/c/ifxAvian</text>
<text text-anchor="middle" x="82" y="-7.5" font-family="Helvetica,sans-Serif" font-size="10.00">/Avian.h</text>
</a>
</g>
</g>
<!-- Node1&#45;&gt;Node2 -->
<g id="edge1" class="edge">
<title>Node1&#45;&gt;Node2</title>
<path fill="none" stroke="midnightblue" d="M135.9,-194.7C101.98,-186.48 66.8,-170.98 46,-142 26.68,-115.08 45.25,-77.43 62.09,-52.76"/>
<polygon fill="midnightblue" stroke="midnightblue" points="135.37,-198.17 145.89,-196.93 136.89,-191.34 135.37,-198.17"/>
</g>
<!-- Node3 -->
<g id="node3" class="node">
<title>Node3</title>
<g id="a_node3"><a xlink:href="_metrics_8h.html" target="_top" xlink:title="API for Metrics.">
<polygon fill="white" stroke="black" points="55,-89.5 55,-141.5 219,-141.5 219,-89.5 55,-89.5"/>
<text text-anchor="start" x="63" y="-129.5" font-family="Helvetica,sans-Serif" font-size="10.00">/home/jenkins/agent</text>
<text text-anchor="start" x="63" y="-118.5" font-family="Helvetica,sans-Serif" font-size="10.00">/workspace/ild&#45;documentation</text>
<text text-anchor="start" x="63" y="-107.5" font-family="Helvetica,sans-Serif" font-size="10.00">_release_v3.5.0/sdk/c/ifxAvian</text>
<text text-anchor="middle" x="137" y="-96.5" font-family="Helvetica,sans-Serif" font-size="10.00">/Metrics.h</text>
</a>
</g>
</g>
<!-- Node1&#45;&gt;Node3 -->
<g id="edge2" class="edge">
<title>Node1&#45;&gt;Node3</title>
<path fill="none" stroke="midnightblue" d="M194.39,-171.36C184.11,-161.54 172.97,-150.89 163.26,-141.61"/>
<polygon fill="midnightblue" stroke="midnightblue" points="192.03,-173.96 201.68,-178.34 196.87,-168.9 192.03,-173.96"/>
</g>
<!-- Node4 -->
<g id="node4" class="node">
<title>Node4</title>
<g id="a_node4"><a xlink:href="_device_cw_8h.html" target="_top" xlink:title="Header for Continuous Wave Control.">
<polygon fill="white" stroke="black" points="237,-89.5 237,-141.5 401,-141.5 401,-89.5 237,-89.5"/>
<text text-anchor="start" x="245" y="-129.5" font-family="Helvetica,sans-Serif" font-size="10.00">/home/jenkins/agent</text>
<text text-anchor="start" x="245" y="-118.5" font-family="Helvetica,sans-Serif" font-size="10.00">/workspace/ild&#45;documentation</text>
<text text-anchor="start" x="245" y="-107.5" font-family="Helvetica,sans-Serif" font-size="10.00">_release_v3.5.0/sdk/c/ifxCw</text>
<text text-anchor="middle" x="319" y="-96.5" font-family="Helvetica,sans-Serif" font-size="10.00">/DeviceCw.h</text>
</a>
</g>
</g>
<!-- Node1&#45;&gt;Node4 -->
<g id="edge4" class="edge">
<title>Node1&#45;&gt;Node4</title>
<path fill="none" stroke="midnightblue" d="M261.61,-171.36C271.89,-161.54 283.03,-150.89 292.74,-141.61"/>
<polygon fill="midnightblue" stroke="midnightblue" points="259.13,-168.9 254.32,-178.34 263.97,-173.96 259.13,-168.9"/>
</g>
<!-- Node5 -->
<g id="node5" class="node">
<title>Node5</title>
<g id="a_node5"><a xlink:href="_presence_sensing_8h.html" target="_top" xlink:title=" ">
<polygon fill="white" stroke="black" points="419,-89.5 419,-141.5 629,-141.5 629,-89.5 419,-89.5"/>
<text text-anchor="start" x="427" y="-129.5" font-family="Helvetica,sans-Serif" font-size="10.00">/home/jenkins/agent</text>
<text text-anchor="start" x="427" y="-118.5" font-family="Helvetica,sans-Serif" font-size="10.00">/workspace/ild&#45;documentation</text>
<text text-anchor="start" x="427" y="-107.5" font-family="Helvetica,sans-Serif" font-size="10.00">_release_v3.5.0/sdk/c/ifxRadarPresence</text>
<text text-anchor="middle" x="524" y="-96.5" font-family="Helvetica,sans-Serif" font-size="10.00">Sensing/PresenceSensing.h</text>
</a>
</g>
</g>
<!-- Node1&#45;&gt;Node5 -->
<g id="edge5" class="edge">
<title>Node1&#45;&gt;Node5</title>
<path fill="none" stroke="midnightblue" d="M320.07,-176.44C357.94,-165.31 401.54,-152.49 438.68,-141.58"/>
<polygon fill="midnightblue" stroke="midnightblue" points="318.67,-173.2 310.06,-179.38 320.64,-179.92 318.67,-173.2"/>
</g>
<!-- Node3&#45;&gt;Node2 -->
<g id="edge3" class="edge">
<title>Node3&#45;&gt;Node2</title>
<path fill="none" stroke="midnightblue" d="M115.59,-80.64C109.69,-71.31 103.4,-61.35 97.87,-52.61"/>
<polygon fill="midnightblue" stroke="midnightblue" points="112.79,-82.75 121.09,-89.34 118.71,-79.01 112.79,-82.75"/>
</g>
</g>
</svg>
