<?xml version="1.0" encoding="UTF-8" standalone="no"?>
<!DOCTYPE svg PUBLIC "-//W3C//DTD SVG 1.1//EN"
 "http://www.w3.org/Graphics/SVG/1.1/DTD/svg11.dtd">
<!-- Generated by graphviz version 2.43.0 (0)
 -->
<!-- Title: /home/jenkins/agent/workspace/ild&#45;documentation_release_v3.5.0/sdk/c/ifxCw/DeviceCw.h Pages: 1 -->
<svg width="829pt" height="520pt"
 viewBox="0.00 0.00 828.72 520.00" xmlns="http://www.w3.org/2000/svg" xmlns:xlink="http://www.w3.org/1999/xlink">
<g id="graph0" class="graph" transform="scale(1 1) rotate(0) translate(4 516)">
<title>/home/jenkins/agent/workspace/ild&#45;documentation_release_v3.5.0/sdk/c/ifxCw/DeviceCw.h</title>
<polygon fill="white" stroke="transparent" points="-4,4 -4,-516 824.72,-516 824.72,4 -4,4"/>
<!-- Node1 -->
<g id="node1" class="node">
<title>Node1</title>
<g id="a_node1"><a xlink:title="Header for Continuous Wave Control.">
<polygon fill="#bfbfbf" stroke="black" points="337.72,-459.5 337.72,-511.5 501.72,-511.5 501.72,-459.5 337.72,-459.5"/>
<text text-anchor="start" x="345.72" y="-499.5" font-family="Helvetica,sans-Serif" font-size="10.00">/home/jenkins/agent</text>
<text text-anchor="start" x="345.72" y="-488.5" font-family="Helvetica,sans-Serif" font-size="10.00">/workspace/ild&#45;documentation</text>
<text text-anchor="start" x="345.72" y="-477.5" font-family="Helvetica,sans-Serif" font-size="10.00">_release_v3.5.0/sdk/c/ifxCw</text>
<text text-anchor="middle" x="419.72" y="-466.5" font-family="Helvetica,sans-Serif" font-size="10.00">/DeviceCw.h</text>
</a>
</g>
</g>
<!-- Node2 -->
<g id="node2" class="node">
<title>Node2</title>
<g id="a_node2"><a xlink:href="_device_cw_types_8h.html" target="_top" xlink:title=" ">
<polygon fill="white" stroke="black" points="281.72,-291.5 281.72,-310.5 383.72,-310.5 383.72,-291.5 281.72,-291.5"/>
<text text-anchor="middle" x="332.72" y="-298.5" font-family="Helvetica,sans-Serif" font-size="10.00">DeviceCwTypes.h</text>
</a>
</g>
</g>
<!-- Node1&#45;&gt;Node2 -->
<g id="edge1" class="edge">
<title>Node1&#45;&gt;Node2</title>
<path fill="none" stroke="midnightblue" d="M407.63,-459.12C389.76,-421.65 356.77,-352.45 341.23,-319.86"/>
<polygon fill="midnightblue" stroke="midnightblue" points="344.31,-318.17 336.85,-310.65 337.99,-321.18 344.31,-318.17"/>
</g>
<!-- Node14 -->
<g id="node14" class="node">
<title>Node14</title>
<g id="a_node14"><a xlink:href="_device_control_8h.html" target="_top" xlink:title="Header for ifxAvian.">
<polygon fill="white" stroke="black" points="438.22,-403.5 438.22,-422.5 575.22,-422.5 575.22,-403.5 438.22,-403.5"/>
<text text-anchor="middle" x="506.72" y="-410.5" font-family="Helvetica,sans-Serif" font-size="10.00">ifxAvian/DeviceControl.h</text>
</a>
</g>
</g>
<!-- Node1&#45;&gt;Node14 -->
<g id="edge17" class="edge">
<title>Node1&#45;&gt;Node14</title>
<path fill="none" stroke="midnightblue" d="M450.64,-459.45C463.13,-449.33 477.13,-437.98 488.01,-429.16"/>
<polygon fill="midnightblue" stroke="midnightblue" points="490.43,-431.71 495.99,-422.7 486.02,-426.27 490.43,-431.71"/>
</g>
<!-- Node3 -->
<g id="node3" class="node">
<title>Node3</title>
<g id="a_node3"><a xlink:href="_types_8h.html" target="_top" xlink:title="Definitions of data types used within the SDK.">
<polygon fill="white" stroke="black" points="500.22,-56.5 500.22,-75.5 593.22,-75.5 593.22,-56.5 500.22,-56.5"/>
<text text-anchor="middle" x="546.72" y="-63.5" font-family="Helvetica,sans-Serif" font-size="10.00">ifxBase/Types.h</text>
</a>
</g>
</g>
<!-- Node2&#45;&gt;Node3 -->
<g id="edge2" class="edge">
<title>Node2&#45;&gt;Node3</title>
<path fill="none" stroke="midnightblue" d="M281.32,-297.04C173.57,-288.95 -60.09,-260.49 14.72,-168 89.61,-75.42 159.74,-134.24 276.72,-112 316.58,-104.42 423.37,-86.94 490.08,-76.13"/>
<polygon fill="midnightblue" stroke="midnightblue" points="490.71,-79.57 500.03,-74.52 489.59,-72.66 490.71,-79.57"/>
</g>
<!-- Node7 -->
<g id="node7" class="node">
<title>Node7</title>
<g id="a_node7"><a xlink:href="_device_fmcw_types_8h.html" target="_top" xlink:title=" ">
<polygon fill="white" stroke="black" points="316.22,-235.5 316.22,-254.5 477.22,-254.5 477.22,-235.5 316.22,-235.5"/>
<text text-anchor="middle" x="396.72" y="-242.5" font-family="Helvetica,sans-Serif" font-size="10.00">ifxFmcw/DeviceFmcwTypes.h</text>
</a>
</g>
</g>
<!-- Node2&#45;&gt;Node7 -->
<g id="edge6" class="edge">
<title>Node2&#45;&gt;Node7</title>
<path fill="none" stroke="midnightblue" d="M343,-291.32C352.56,-283.26 367,-271.08 378.51,-261.37"/>
<polygon fill="midnightblue" stroke="midnightblue" points="380.87,-263.96 386.25,-254.83 376.35,-258.61 380.87,-263.96"/>
</g>
<!-- Node4 -->
<g id="node4" class="node">
<title>Node4</title>
<g id="a_node4"><a xlink:title=" ">
<polygon fill="white" stroke="#bfbfbf" points="438.72,-0.5 438.72,-19.5 500.72,-19.5 500.72,-0.5 438.72,-0.5"/>
<text text-anchor="middle" x="469.72" y="-7.5" font-family="Helvetica,sans-Serif" font-size="10.00">stdbool.h</text>
</a>
</g>
</g>
<!-- Node3&#45;&gt;Node4 -->
<g id="edge3" class="edge">
<title>Node3&#45;&gt;Node4</title>
<path fill="none" stroke="midnightblue" d="M534.35,-56.32C522.56,-48.06 504.59,-35.45 490.59,-25.63"/>
<polygon fill="midnightblue" stroke="midnightblue" points="492.26,-22.53 482.06,-19.65 488.24,-28.26 492.26,-22.53"/>
</g>
<!-- Node5 -->
<g id="node5" class="node">
<title>Node5</title>
<g id="a_node5"><a xlink:title=" ">
<polygon fill="white" stroke="#bfbfbf" points="518.72,-0.5 518.72,-19.5 574.72,-19.5 574.72,-0.5 518.72,-0.5"/>
<text text-anchor="middle" x="546.72" y="-7.5" font-family="Helvetica,sans-Serif" font-size="10.00">stddef.h</text>
</a>
</g>
</g>
<!-- Node3&#45;&gt;Node5 -->
<g id="edge4" class="edge">
<title>Node3&#45;&gt;Node5</title>
<path fill="none" stroke="midnightblue" d="M546.72,-56.08C546.72,-49.01 546.72,-38.86 546.72,-29.99"/>
<polygon fill="midnightblue" stroke="midnightblue" points="550.22,-29.75 546.72,-19.75 543.22,-29.75 550.22,-29.75"/>
</g>
<!-- Node6 -->
<g id="node6" class="node">
<title>Node6</title>
<g id="a_node6"><a xlink:title=" ">
<polygon fill="white" stroke="#bfbfbf" points="593.22,-0.5 593.22,-19.5 646.22,-19.5 646.22,-0.5 593.22,-0.5"/>
<text text-anchor="middle" x="619.72" y="-7.5" font-family="Helvetica,sans-Serif" font-size="10.00">stdint.h</text>
</a>
</g>
</g>
<!-- Node3&#45;&gt;Node6 -->
<g id="edge5" class="edge">
<title>Node3&#45;&gt;Node6</title>
<path fill="none" stroke="midnightblue" d="M558.45,-56.32C569.56,-48.11 586.46,-35.6 599.71,-25.81"/>
<polygon fill="midnightblue" stroke="midnightblue" points="601.82,-28.59 607.78,-19.83 597.66,-22.97 601.82,-28.59"/>
</g>
<!-- Node7&#45;&gt;Node3 -->
<g id="edge14" class="edge">
<title>Node7&#45;&gt;Node3</title>
<path fill="none" stroke="midnightblue" d="M396.73,-235.37C397.21,-212.33 401.64,-148.64 434.72,-112 449.39,-95.76 470.72,-85.28 490.84,-78.57"/>
<polygon fill="midnightblue" stroke="midnightblue" points="492.07,-81.85 500.59,-75.56 490,-75.16 492.07,-81.85"/>
</g>
<!-- Node8 -->
<g id="node8" class="node">
<title>Node8</title>
<g id="a_node8"><a xlink:href="_error_8h.html" target="_top" xlink:title="API for error handling.">
<polygon fill="white" stroke="black" points="427.72,-174 427.72,-193 515.72,-193 515.72,-174 427.72,-174"/>
<text text-anchor="middle" x="471.72" y="-181" font-family="Helvetica,sans-Serif" font-size="10.00">ifxBase/Error.h</text>
</a>
</g>
</g>
<!-- Node7&#45;&gt;Node8 -->
<g id="edge7" class="edge">
<title>Node7&#45;&gt;Node8</title>
<path fill="none" stroke="midnightblue" d="M407.47,-235.48C419.27,-226.11 438.47,-210.88 452.8,-199.51"/>
<polygon fill="midnightblue" stroke="midnightblue" points="455.34,-201.97 461,-193.01 450.99,-196.48 455.34,-201.97"/>
</g>
<!-- Node11 -->
<g id="node11" class="node">
<title>Node11</title>
<g id="a_node11"><a xlink:href="_mda_8h.html" target="_top" xlink:title="API for multi&#45;dimensional arrays.">
<polygon fill="white" stroke="black" points="734.72,-112.5 734.72,-131.5 820.72,-131.5 820.72,-112.5 734.72,-112.5"/>
<text text-anchor="middle" x="777.72" y="-119.5" font-family="Helvetica,sans-Serif" font-size="10.00">ifxBase/Mda.h</text>
</a>
</g>
</g>
<!-- Node7&#45;&gt;Node11 -->
<g id="edge11" class="edge">
<title>Node7&#45;&gt;Node11</title>
<path fill="none" stroke="midnightblue" d="M423.51,-235.49C490.38,-214.26 664.71,-158.89 741.04,-134.65"/>
<polygon fill="midnightblue" stroke="midnightblue" points="742.23,-137.94 750.71,-131.58 740.12,-131.27 742.23,-137.94"/>
</g>
<!-- Node13 -->
<g id="node13" class="node">
<title>Node13</title>
<g id="a_node13"><a xlink:href="_radar_device_common_8h.html" target="_top" xlink:title="Header for ifxRadarDeviceCommon.">
<polygon fill="white" stroke="black" points="235.72,-168.5 235.72,-198.5 371.72,-198.5 371.72,-168.5 235.72,-168.5"/>
<text text-anchor="start" x="243.72" y="-186.5" font-family="Helvetica,sans-Serif" font-size="10.00">ifxRadarDeviceCommon</text>
<text text-anchor="middle" x="303.72" y="-175.5" font-family="Helvetica,sans-Serif" font-size="10.00">/RadarDeviceCommon.h</text>
</a>
</g>
</g>
<!-- Node7&#45;&gt;Node13 -->
<g id="edge15" class="edge">
<title>Node7&#45;&gt;Node13</title>
<path fill="none" stroke="midnightblue" d="M383.4,-235.48C370.68,-227.34 351.07,-214.79 334.48,-204.18"/>
<polygon fill="midnightblue" stroke="midnightblue" points="335.95,-200.96 325.64,-198.52 332.18,-206.86 335.95,-200.96"/>
</g>
<!-- Node9 -->
<g id="node9" class="node">
<title>Node9</title>
<g id="a_node9"><a xlink:href="_log_8h.html" target="_top" xlink:title="API for logging.">
<polygon fill="white" stroke="black" points="444.22,-112.5 444.22,-131.5 487.22,-131.5 487.22,-112.5 444.22,-112.5"/>
<text text-anchor="middle" x="465.72" y="-119.5" font-family="Helvetica,sans-Serif" font-size="10.00">Log.h</text>
</a>
</g>
</g>
<!-- Node8&#45;&gt;Node9 -->
<g id="edge8" class="edge">
<title>Node8&#45;&gt;Node9</title>
<path fill="none" stroke="midnightblue" d="M470.86,-173.98C470.02,-165.58 468.7,-152.48 467.6,-141.66"/>
<polygon fill="midnightblue" stroke="midnightblue" points="471.07,-141.11 466.58,-131.51 464.1,-141.81 471.07,-141.11"/>
</g>
<!-- Node9&#45;&gt;Node3 -->
<g id="edge10" class="edge">
<title>Node9&#45;&gt;Node3</title>
<path fill="none" stroke="midnightblue" d="M478.74,-112.32C491.25,-103.98 510.4,-91.21 525.19,-81.35"/>
<polygon fill="midnightblue" stroke="midnightblue" points="527.36,-84.11 533.74,-75.65 523.48,-78.29 527.36,-84.11"/>
</g>
<!-- Node10 -->
<g id="node10" class="node">
<title>Node10</title>
<g id="a_node10"><a xlink:title=" ">
<polygon fill="white" stroke="#bfbfbf" points="431.72,-56.5 431.72,-75.5 481.72,-75.5 481.72,-56.5 431.72,-56.5"/>
<text text-anchor="middle" x="456.72" y="-63.5" font-family="Helvetica,sans-Serif" font-size="10.00">stdio.h</text>
</a>
</g>
</g>
<!-- Node9&#45;&gt;Node10 -->
<g id="edge9" class="edge">
<title>Node9&#45;&gt;Node10</title>
<path fill="none" stroke="midnightblue" d="M464.24,-112.08C463.04,-104.93 461.33,-94.64 459.84,-85.69"/>
<polygon fill="midnightblue" stroke="midnightblue" points="463.28,-85.04 458.18,-75.75 456.37,-86.19 463.28,-85.04"/>
</g>
<!-- Node11&#45;&gt;Node3 -->
<g id="edge12" class="edge">
<title>Node11&#45;&gt;Node3</title>
<path fill="none" stroke="midnightblue" d="M741.12,-112.44C700.99,-103.06 636.52,-87.99 592.94,-77.8"/>
<polygon fill="midnightblue" stroke="midnightblue" points="593.69,-74.38 583.15,-75.52 592.09,-81.2 593.69,-74.38"/>
</g>
<!-- Node12 -->
<g id="node12" class="node">
<title>Node12</title>
<g id="a_node12"><a xlink:title=" ">
<polygon fill="white" stroke="#bfbfbf" points="749.72,-56.5 749.72,-75.5 805.72,-75.5 805.72,-56.5 749.72,-56.5"/>
<text text-anchor="middle" x="777.72" y="-63.5" font-family="Helvetica,sans-Serif" font-size="10.00">assert.h</text>
</a>
</g>
</g>
<!-- Node11&#45;&gt;Node12 -->
<g id="edge13" class="edge">
<title>Node11&#45;&gt;Node12</title>
<path fill="none" stroke="midnightblue" d="M777.72,-112.08C777.72,-105.01 777.72,-94.86 777.72,-85.99"/>
<polygon fill="midnightblue" stroke="midnightblue" points="781.22,-85.75 777.72,-75.75 774.22,-85.75 781.22,-85.75"/>
</g>
<!-- Node13&#45;&gt;Node3 -->
<g id="edge16" class="edge">
<title>Node13&#45;&gt;Node3</title>
<path fill="none" stroke="midnightblue" d="M316.54,-168.23C331.61,-152.29 358.08,-126.79 385.72,-112 418.16,-94.64 457.96,-83.44 489.87,-76.55"/>
<polygon fill="midnightblue" stroke="midnightblue" points="490.85,-79.92 499.93,-74.47 489.43,-73.07 490.85,-79.92"/>
</g>
<!-- Node15 -->
<g id="node15" class="node">
<title>Node15</title>
<g id="a_node15"><a xlink:href="_device_config_8h.html" target="_top" xlink:title="API for Radar device configuration.">
<polygon fill="white" stroke="black" points="185.72,-235.5 185.72,-254.5 275.72,-254.5 275.72,-235.5 185.72,-235.5"/>
<text text-anchor="middle" x="230.72" y="-242.5" font-family="Helvetica,sans-Serif" font-size="10.00">DeviceConfig.h</text>
</a>
</g>
</g>
<!-- Node14&#45;&gt;Node15 -->
<g id="edge18" class="edge">
<title>Node14&#45;&gt;Node15</title>
<path fill="none" stroke="midnightblue" d="M501.2,-403.47C486.42,-381.35 443.62,-321.72 392.72,-291 360.11,-271.32 318.65,-260.01 285.84,-253.65"/>
<polygon fill="midnightblue" stroke="midnightblue" points="286.42,-250.2 275.95,-251.83 285.15,-257.08 286.42,-250.2"/>
</g>
<!-- Node17 -->
<g id="node17" class="node">
<title>Node17</title>
<g id="a_node17"><a xlink:href="_cube_8h.html" target="_top" xlink:title="API for operations on Cube data structures.">
<polygon fill="white" stroke="black" points="664.72,-347.5 664.72,-366.5 754.72,-366.5 754.72,-347.5 664.72,-347.5"/>
<text text-anchor="middle" x="709.72" y="-354.5" font-family="Helvetica,sans-Serif" font-size="10.00">ifxBase/Cube.h</text>
</a>
</g>
</g>
<!-- Node14&#45;&gt;Node17 -->
<g id="edge22" class="edge">
<title>Node14&#45;&gt;Node17</title>
<path fill="none" stroke="midnightblue" d="M538.89,-403.44C573.78,-394.16 629.62,-379.31 667.89,-369.13"/>
<polygon fill="midnightblue" stroke="midnightblue" points="668.94,-372.47 677.71,-366.52 667.14,-365.7 668.94,-372.47"/>
</g>
<!-- Node19 -->
<g id="node19" class="node">
<title>Node19</title>
<g id="a_node19"><a xlink:href="_math_8h.html" target="_top" xlink:title="API for Mathematical operations.">
<polygon fill="white" stroke="black" points="613.22,-235.5 613.22,-254.5 664.22,-254.5 664.22,-235.5 613.22,-235.5"/>
<text text-anchor="middle" x="638.72" y="-242.5" font-family="Helvetica,sans-Serif" font-size="10.00">math.h</text>
</a>
</g>
</g>
<!-- Node14&#45;&gt;Node19 -->
<g id="edge34" class="edge">
<title>Node14&#45;&gt;Node19</title>
<path fill="none" stroke="midnightblue" d="M513.82,-403.08C534.96,-376.49 597.74,-297.54 625.39,-262.76"/>
<polygon fill="midnightblue" stroke="midnightblue" points="628.42,-264.57 631.91,-254.57 622.95,-260.22 628.42,-264.57"/>
</g>
<!-- Node22 -->
<g id="node22" class="node">
<title>Node22</title>
<g id="a_node22"><a xlink:href="_device_fmcw_8h.html" target="_top" xlink:title="For details refer to FMCW Device Control.">
<polygon fill="white" stroke="black" points="440.22,-291.5 440.22,-310.5 573.22,-310.5 573.22,-291.5 440.22,-291.5"/>
<text text-anchor="middle" x="506.72" y="-298.5" font-family="Helvetica,sans-Serif" font-size="10.00">ifxFmcw/DeviceFmcw.h</text>
</a>
</g>
</g>
<!-- Node14&#45;&gt;Node22 -->
<g id="edge35" class="edge">
<title>Node14&#45;&gt;Node22</title>
<path fill="none" stroke="midnightblue" d="M506.72,-403.37C506.72,-385.62 506.72,-344.67 506.72,-320.6"/>
<polygon fill="midnightblue" stroke="midnightblue" points="510.22,-320.59 506.72,-310.59 503.22,-320.59 510.22,-320.59"/>
</g>
<!-- Node15&#45;&gt;Node3 -->
<g id="edge19" class="edge">
<title>Node15&#45;&gt;Node3</title>
<path fill="none" stroke="midnightblue" d="M227.16,-235.17C221.69,-220.05 213.19,-188.83 226.72,-168 255.74,-123.35 406.51,-90.96 490.34,-76.1"/>
<polygon fill="midnightblue" stroke="midnightblue" points="490.97,-79.54 500.21,-74.37 489.76,-72.64 490.97,-79.54"/>
</g>
<!-- Node15&#45;&gt;Node13 -->
<g id="edge21" class="edge">
<title>Node15&#45;&gt;Node13</title>
<path fill="none" stroke="midnightblue" d="M241.18,-235.48C250.88,-227.57 265.71,-215.48 278.49,-205.07"/>
<polygon fill="midnightblue" stroke="midnightblue" points="280.98,-207.55 286.52,-198.52 276.55,-202.13 280.98,-207.55"/>
</g>
<!-- Node16 -->
<g id="node16" class="node">
<title>Node16</title>
<g id="a_node16"><a xlink:href="_device_fmcw_avian_config_8h.html" target="_top" xlink:title="API for Radar device configuration.">
<polygon fill="white" stroke="black" points="24.22,-168.5 24.22,-198.5 179.22,-198.5 179.22,-168.5 24.22,-168.5"/>
<text text-anchor="start" x="32.22" y="-186.5" font-family="Helvetica,sans-Serif" font-size="10.00">ifxFmcw/avian/DeviceFmcw</text>
<text text-anchor="middle" x="101.72" y="-175.5" font-family="Helvetica,sans-Serif" font-size="10.00">AvianConfig.h</text>
</a>
</g>
</g>
<!-- Node15&#45;&gt;Node16 -->
<g id="edge20" class="edge">
<title>Node15&#45;&gt;Node16</title>
<path fill="none" stroke="midnightblue" d="M212.24,-235.48C193.79,-226.96 164.85,-213.62 141.22,-202.72"/>
<polygon fill="midnightblue" stroke="midnightblue" points="142.67,-199.53 132.12,-198.52 139.74,-205.89 142.67,-199.53"/>
</g>
<!-- Node17&#45;&gt;Node11 -->
<g id="edge33" class="edge">
<title>Node17&#45;&gt;Node11</title>
<path fill="none" stroke="midnightblue" d="M716.16,-347.38C728.29,-330.61 754.34,-291.99 765.72,-255 777.69,-216.09 778.85,-167.92 778.42,-141.87"/>
<polygon fill="midnightblue" stroke="midnightblue" points="781.91,-141.48 778.15,-131.57 774.91,-141.66 781.91,-141.48"/>
</g>
<!-- Node18 -->
<g id="node18" class="node">
<title>Node18</title>
<g id="a_node18"><a xlink:href="_defines_8h.html" target="_top" xlink:title="Internal definitions used by standard math.h functions as Macros, to use float or double precision.">
<polygon fill="white" stroke="black" points="636.72,-291.5 636.72,-310.5 698.72,-310.5 698.72,-291.5 636.72,-291.5"/>
<text text-anchor="middle" x="667.72" y="-298.5" font-family="Helvetica,sans-Serif" font-size="10.00">Defines.h</text>
</a>
</g>
</g>
<!-- Node17&#45;&gt;Node18 -->
<g id="edge23" class="edge">
<title>Node17&#45;&gt;Node18</title>
<path fill="none" stroke="midnightblue" d="M702.79,-347.08C696.79,-339.38 687.97,-328.03 680.67,-318.65"/>
<polygon fill="midnightblue" stroke="midnightblue" points="683.43,-316.5 674.53,-310.75 677.91,-320.79 683.43,-316.5"/>
</g>
<!-- Node21 -->
<g id="node21" class="node">
<title>Node21</title>
<g id="a_node21"><a xlink:href="_matrix_8h.html" target="_top" xlink:title="API for operations on Matrix data structures.">
<polygon fill="white" stroke="black" points="700.22,-235.5 700.22,-254.5 757.22,-254.5 757.22,-235.5 700.22,-235.5"/>
<text text-anchor="middle" x="728.72" y="-242.5" font-family="Helvetica,sans-Serif" font-size="10.00">Matrix.h</text>
</a>
</g>
</g>
<!-- Node17&#45;&gt;Node21 -->
<g id="edge29" class="edge">
<title>Node17&#45;&gt;Node21</title>
<path fill="none" stroke="midnightblue" d="M711.21,-347.37C714.28,-329.62 721.35,-288.67 725.51,-264.6"/>
<polygon fill="midnightblue" stroke="midnightblue" points="728.99,-265.04 727.24,-254.59 722.09,-263.85 728.99,-265.04"/>
</g>
<!-- Node18&#45;&gt;Node19 -->
<g id="edge24" class="edge">
<title>Node18&#45;&gt;Node19</title>
<path fill="none" stroke="midnightblue" d="M662.93,-291.08C658.96,-283.69 653.2,-272.95 648.29,-263.81"/>
<polygon fill="midnightblue" stroke="midnightblue" points="651.24,-261.91 643.42,-254.75 645.07,-265.22 651.24,-261.91"/>
</g>
<!-- Node19&#45;&gt;Node3 -->
<g id="edge25" class="edge">
<title>Node19&#45;&gt;Node3</title>
<path fill="none" stroke="midnightblue" d="M637.57,-235.3C634.3,-213.15 623.45,-153.43 596.72,-112 589.1,-100.19 577.6,-89.55 567.55,-81.57"/>
<polygon fill="midnightblue" stroke="midnightblue" points="569.65,-78.78 559.57,-75.54 565.44,-84.36 569.65,-78.78"/>
</g>
<!-- Node20 -->
<g id="node20" class="node">
<title>Node20</title>
<g id="a_node20"><a xlink:href="_vector_8h.html" target="_top" xlink:title="API for operations on Vector data structures.">
<polygon fill="white" stroke="black" points="647.72,-174 647.72,-193 703.72,-193 703.72,-174 647.72,-174"/>
<text text-anchor="middle" x="675.72" y="-181" font-family="Helvetica,sans-Serif" font-size="10.00">Vector.h</text>
</a>
</g>
</g>
<!-- Node19&#45;&gt;Node20 -->
<g id="edge26" class="edge">
<title>Node19&#45;&gt;Node20</title>
<path fill="none" stroke="midnightblue" d="M644.02,-235.48C649.46,-226.73 658.08,-212.87 664.96,-201.81"/>
<polygon fill="midnightblue" stroke="midnightblue" points="668.12,-203.35 670.43,-193.01 662.18,-199.65 668.12,-203.35"/>
</g>
<!-- Node20&#45;&gt;Node3 -->
<g id="edge28" class="edge">
<title>Node20&#45;&gt;Node3</title>
<path fill="none" stroke="midnightblue" d="M672.35,-173.64C666.44,-159.15 653.01,-130.17 633.72,-112 618.72,-97.87 598.42,-87.03 581.2,-79.54"/>
<polygon fill="midnightblue" stroke="midnightblue" points="582.06,-76.1 571.48,-75.51 579.38,-82.57 582.06,-76.1"/>
</g>
<!-- Node20&#45;&gt;Node11 -->
<g id="edge27" class="edge">
<title>Node20&#45;&gt;Node11</title>
<path fill="none" stroke="midnightblue" d="M690.34,-173.98C707.08,-164.21 734.73,-148.08 754.44,-136.58"/>
<polygon fill="midnightblue" stroke="midnightblue" points="756.26,-139.57 763.14,-131.51 752.73,-133.52 756.26,-139.57"/>
</g>
<!-- Node21&#45;&gt;Node3 -->
<g id="edge31" class="edge">
<title>Node21&#45;&gt;Node3</title>
<path fill="none" stroke="midnightblue" d="M728.51,-235.47C727.82,-220.8 724.89,-190.24 712.72,-168 686.68,-120.43 627.89,-92.78 587.75,-78.79"/>
<polygon fill="midnightblue" stroke="midnightblue" points="588.82,-75.46 578.23,-75.6 586.6,-82.09 588.82,-75.46"/>
</g>
<!-- Node21&#45;&gt;Node11 -->
<g id="edge30" class="edge">
<title>Node21&#45;&gt;Node11</title>
<path fill="none" stroke="midnightblue" d="M732.25,-235.3C740.19,-215.68 759.65,-167.64 770.35,-141.19"/>
<polygon fill="midnightblue" stroke="midnightblue" points="773.72,-142.21 774.23,-131.62 767.23,-139.58 773.72,-142.21"/>
</g>
<!-- Node21&#45;&gt;Node20 -->
<g id="edge32" class="edge">
<title>Node21&#45;&gt;Node20</title>
<path fill="none" stroke="midnightblue" d="M721.13,-235.48C713.02,-226.37 699.99,-211.74 689.96,-200.48"/>
<polygon fill="midnightblue" stroke="midnightblue" points="692.57,-198.15 683.3,-193.01 687.34,-202.8 692.57,-198.15"/>
</g>
<!-- Node22&#45;&gt;Node7 -->
<g id="edge39" class="edge">
<title>Node22&#45;&gt;Node7</title>
<path fill="none" stroke="midnightblue" d="M489.05,-291.32C471.33,-282.62 443.82,-269.12 423.43,-259.11"/>
<polygon fill="midnightblue" stroke="midnightblue" points="424.87,-255.92 414.35,-254.65 421.79,-262.2 424.87,-255.92"/>
</g>
<!-- Node22&#45;&gt;Node8 -->
<g id="edge36" class="edge">
<title>Node22&#45;&gt;Node8</title>
<path fill="none" stroke="midnightblue" d="M504.09,-291.32C498.44,-272.67 485.04,-228.44 477.37,-203.13"/>
<polygon fill="midnightblue" stroke="midnightblue" points="480.63,-201.84 474.38,-193.28 473.93,-203.87 480.63,-201.84"/>
</g>
<!-- Node23 -->
<g id="node23" class="node">
<title>Node23</title>
<g id="a_node23"><a xlink:href="_list_8h.html" target="_top" xlink:title=" ">
<polygon fill="white" stroke="black" points="505.22,-112.5 505.22,-131.5 588.22,-131.5 588.22,-112.5 505.22,-112.5"/>
<text text-anchor="middle" x="546.72" y="-119.5" font-family="Helvetica,sans-Serif" font-size="10.00">ifxBase/List.h</text>
</a>
</g>
</g>
<!-- Node22&#45;&gt;Node23 -->
<g id="edge37" class="edge">
<title>Node22&#45;&gt;Node23</title>
<path fill="none" stroke="midnightblue" d="M508.65,-291.46C514.76,-264.43 533.79,-180.24 542.4,-142.11"/>
<polygon fill="midnightblue" stroke="midnightblue" points="545.93,-142.39 544.72,-131.87 539.1,-140.85 545.93,-142.39"/>
</g>
<!-- Node23&#45;&gt;Node3 -->
<g id="edge38" class="edge">
<title>Node23&#45;&gt;Node3</title>
<path fill="none" stroke="midnightblue" d="M546.72,-112.08C546.72,-105.01 546.72,-94.86 546.72,-85.99"/>
<polygon fill="midnightblue" stroke="midnightblue" points="550.22,-85.75 546.72,-75.75 543.22,-85.75 550.22,-85.75"/>
</g>
</g>
</svg>
