<?xml version="1.0" encoding="UTF-8" standalone="no"?>
<!DOCTYPE svg PUBLIC "-//W3C//DTD SVG 1.1//EN"
 "http://www.w3.org/Graphics/SVG/1.1/DTD/svg11.dtd">
<!-- Generated by graphviz version 2.43.0 (0)
 -->
<!-- Title: /home/jenkins/agent/workspace/ild&#45;documentation_release_v3.5.0/sdk/c/ifxAvian/DeviceControl.h Pages: 1 -->
<svg width="789pt" height="464pt"
 viewBox="0.00 0.00 789.00 464.00" xmlns="http://www.w3.org/2000/svg" xmlns:xlink="http://www.w3.org/1999/xlink">
<g id="graph0" class="graph" transform="scale(1 1) rotate(0) translate(4 460)">
<title>/home/jenkins/agent/workspace/ild&#45;documentation_release_v3.5.0/sdk/c/ifxAvian/DeviceControl.h</title>
<polygon fill="white" stroke="transparent" points="-4,4 -4,-460 785,-460 785,4 -4,4"/>
<!-- Node1 -->
<g id="node1" class="node">
<title>Node1</title>
<g id="a_node1"><a xlink:title="Header for ifxAvian.">
<polygon fill="#bfbfbf" stroke="black" points="202,-403.5 202,-455.5 366,-455.5 366,-403.5 202,-403.5"/>
<text text-anchor="start" x="210" y="-443.5" font-family="Helvetica,sans-Serif" font-size="10.00">/home/jenkins/agent</text>
<text text-anchor="start" x="210" y="-432.5" font-family="Helvetica,sans-Serif" font-size="10.00">/workspace/ild&#45;documentation</text>
<text text-anchor="start" x="210" y="-421.5" font-family="Helvetica,sans-Serif" font-size="10.00">_release_v3.5.0/sdk/c/ifxAvian</text>
<text text-anchor="middle" x="284" y="-410.5" font-family="Helvetica,sans-Serif" font-size="10.00">/DeviceControl.h</text>
</a>
</g>
</g>
<!-- Node2 -->
<g id="node2" class="node">
<title>Node2</title>
<g id="a_node2"><a xlink:href="_device_config_8h.html" target="_top" xlink:title="API for Radar device configuration.">
<polygon fill="white" stroke="black" points="299,-235.5 299,-254.5 389,-254.5 389,-235.5 299,-235.5"/>
<text text-anchor="middle" x="344" y="-242.5" font-family="Helvetica,sans-Serif" font-size="10.00">DeviceConfig.h</text>
</a>
</g>
</g>
<!-- Node1&#45;&gt;Node2 -->
<g id="edge1" class="edge">
<title>Node1&#45;&gt;Node2</title>
<path fill="none" stroke="midnightblue" d="M292.34,-403.12C304.61,-365.81 327.22,-297.04 337.99,-264.28"/>
<polygon fill="midnightblue" stroke="midnightblue" points="341.36,-265.24 341.16,-254.65 334.71,-263.06 341.36,-265.24"/>
</g>
<!-- Node9 -->
<g id="node9" class="node">
<title>Node9</title>
<g id="a_node9"><a xlink:href="_cube_8h.html" target="_top" xlink:title="API for operations on Cube data structures.">
<polygon fill="white" stroke="black" points="94,-347.5 94,-366.5 184,-366.5 184,-347.5 94,-347.5"/>
<text text-anchor="middle" x="139" y="-354.5" font-family="Helvetica,sans-Serif" font-size="10.00">ifxBase/Cube.h</text>
</a>
</g>
</g>
<!-- Node1&#45;&gt;Node9 -->
<g id="edge9" class="edge">
<title>Node1&#45;&gt;Node9</title>
<path fill="none" stroke="midnightblue" d="M232.47,-403.45C209.87,-392.46 184.3,-380.03 165.62,-370.94"/>
<polygon fill="midnightblue" stroke="midnightblue" points="167.06,-367.75 156.54,-366.53 164,-374.05 167.06,-367.75"/>
</g>
<!-- Node11 -->
<g id="node11" class="node">
<title>Node11</title>
<g id="a_node11"><a xlink:href="_math_8h.html" target="_top" xlink:title="API for Mathematical operations.">
<polygon fill="white" stroke="black" points="139.5,-235.5 139.5,-254.5 190.5,-254.5 190.5,-235.5 139.5,-235.5"/>
<text text-anchor="middle" x="165" y="-242.5" font-family="Helvetica,sans-Serif" font-size="10.00">math.h</text>
</a>
</g>
</g>
<!-- Node1&#45;&gt;Node11 -->
<g id="edge23" class="edge">
<title>Node1&#45;&gt;Node11</title>
<path fill="none" stroke="midnightblue" d="M268.68,-403.4C251.61,-375.63 222.98,-329.7 197,-291 190.64,-281.53 183.28,-271.14 177.23,-262.74"/>
<polygon fill="midnightblue" stroke="midnightblue" points="179.98,-260.57 171.27,-254.53 174.31,-264.68 179.98,-260.57"/>
</g>
<!-- Node16 -->
<g id="node16" class="node">
<title>Node16</title>
<g id="a_node16"><a xlink:href="_device_fmcw_8h.html" target="_top" xlink:title="For details refer to FMCW Device Control.">
<polygon fill="white" stroke="black" points="555.5,-291.5 555.5,-310.5 688.5,-310.5 688.5,-291.5 555.5,-291.5"/>
<text text-anchor="middle" x="622" y="-298.5" font-family="Helvetica,sans-Serif" font-size="10.00">ifxFmcw/DeviceFmcw.h</text>
</a>
</g>
</g>
<!-- Node1&#45;&gt;Node16 -->
<g id="edge24" class="edge">
<title>Node1&#45;&gt;Node16</title>
<path fill="none" stroke="midnightblue" d="M351.18,-403.36C423.32,-376.36 534.91,-334.6 589.57,-314.14"/>
<polygon fill="midnightblue" stroke="midnightblue" points="590.96,-317.35 599.1,-310.57 588.5,-310.8 590.96,-317.35"/>
</g>
<!-- Node3 -->
<g id="node3" class="node">
<title>Node3</title>
<g id="a_node3"><a xlink:href="_types_8h.html" target="_top" xlink:title="Definitions of data types used within the SDK.">
<polygon fill="white" stroke="black" points="350.5,-56.5 350.5,-75.5 443.5,-75.5 443.5,-56.5 350.5,-56.5"/>
<text text-anchor="middle" x="397" y="-63.5" font-family="Helvetica,sans-Serif" font-size="10.00">ifxBase/Types.h</text>
</a>
</g>
</g>
<!-- Node2&#45;&gt;Node3 -->
<g id="edge2" class="edge">
<title>Node2&#45;&gt;Node3</title>
<path fill="none" stroke="midnightblue" d="M352.24,-235.49C359.96,-226.97 371.16,-213.15 377,-199 392.72,-160.93 396.25,-112.11 396.94,-85.81"/>
<polygon fill="midnightblue" stroke="midnightblue" points="400.44,-85.77 397.09,-75.72 393.44,-85.66 400.44,-85.77"/>
</g>
<!-- Node7 -->
<g id="node7" class="node">
<title>Node7</title>
<g id="a_node7"><a xlink:href="_device_fmcw_avian_config_8h.html" target="_top" xlink:title="API for Radar device configuration.">
<polygon fill="white" stroke="black" points="213.5,-168.5 213.5,-198.5 368.5,-198.5 368.5,-168.5 213.5,-168.5"/>
<text text-anchor="start" x="221.5" y="-186.5" font-family="Helvetica,sans-Serif" font-size="10.00">ifxFmcw/avian/DeviceFmcw</text>
<text text-anchor="middle" x="291" y="-175.5" font-family="Helvetica,sans-Serif" font-size="10.00">AvianConfig.h</text>
</a>
</g>
</g>
<!-- Node2&#45;&gt;Node7 -->
<g id="edge6" class="edge">
<title>Node2&#45;&gt;Node7</title>
<path fill="none" stroke="midnightblue" d="M336.41,-235.48C329.63,-227.87 319.41,-216.4 310.39,-206.26"/>
<polygon fill="midnightblue" stroke="midnightblue" points="312.76,-203.66 303.49,-198.52 307.53,-208.32 312.76,-203.66"/>
</g>
<!-- Node8 -->
<g id="node8" class="node">
<title>Node8</title>
<g id="a_node8"><a xlink:href="_radar_device_common_8h.html" target="_top" xlink:title="Header for ifxRadarDeviceCommon.">
<polygon fill="white" stroke="black" points="463,-168.5 463,-198.5 599,-198.5 599,-168.5 463,-168.5"/>
<text text-anchor="start" x="471" y="-186.5" font-family="Helvetica,sans-Serif" font-size="10.00">ifxRadarDeviceCommon</text>
<text text-anchor="middle" x="531" y="-175.5" font-family="Helvetica,sans-Serif" font-size="10.00">/RadarDeviceCommon.h</text>
</a>
</g>
</g>
<!-- Node2&#45;&gt;Node8 -->
<g id="edge7" class="edge">
<title>Node2&#45;&gt;Node8</title>
<path fill="none" stroke="midnightblue" d="M370.79,-235.48C398.49,-226.66 442.47,-212.67 477.35,-201.57"/>
<polygon fill="midnightblue" stroke="midnightblue" points="478.46,-204.89 486.93,-198.52 476.34,-198.22 478.46,-204.89"/>
</g>
<!-- Node4 -->
<g id="node4" class="node">
<title>Node4</title>
<g id="a_node4"><a xlink:title=" ">
<polygon fill="white" stroke="#bfbfbf" points="289,-0.5 289,-19.5 351,-19.5 351,-0.5 289,-0.5"/>
<text text-anchor="middle" x="320" y="-7.5" font-family="Helvetica,sans-Serif" font-size="10.00">stdbool.h</text>
</a>
</g>
</g>
<!-- Node3&#45;&gt;Node4 -->
<g id="edge3" class="edge">
<title>Node3&#45;&gt;Node4</title>
<path fill="none" stroke="midnightblue" d="M384.63,-56.32C372.84,-48.06 354.87,-35.45 340.86,-25.63"/>
<polygon fill="midnightblue" stroke="midnightblue" points="342.54,-22.53 332.34,-19.65 338.52,-28.26 342.54,-22.53"/>
</g>
<!-- Node5 -->
<g id="node5" class="node">
<title>Node5</title>
<g id="a_node5"><a xlink:title=" ">
<polygon fill="white" stroke="#bfbfbf" points="369,-0.5 369,-19.5 425,-19.5 425,-0.5 369,-0.5"/>
<text text-anchor="middle" x="397" y="-7.5" font-family="Helvetica,sans-Serif" font-size="10.00">stddef.h</text>
</a>
</g>
</g>
<!-- Node3&#45;&gt;Node5 -->
<g id="edge4" class="edge">
<title>Node3&#45;&gt;Node5</title>
<path fill="none" stroke="midnightblue" d="M397,-56.08C397,-49.01 397,-38.86 397,-29.99"/>
<polygon fill="midnightblue" stroke="midnightblue" points="400.5,-29.75 397,-19.75 393.5,-29.75 400.5,-29.75"/>
</g>
<!-- Node6 -->
<g id="node6" class="node">
<title>Node6</title>
<g id="a_node6"><a xlink:title=" ">
<polygon fill="white" stroke="#bfbfbf" points="443.5,-0.5 443.5,-19.5 496.5,-19.5 496.5,-0.5 443.5,-0.5"/>
<text text-anchor="middle" x="470" y="-7.5" font-family="Helvetica,sans-Serif" font-size="10.00">stdint.h</text>
</a>
</g>
</g>
<!-- Node3&#45;&gt;Node6 -->
<g id="edge5" class="edge">
<title>Node3&#45;&gt;Node6</title>
<path fill="none" stroke="midnightblue" d="M408.73,-56.32C419.84,-48.11 436.74,-35.6 449.98,-25.81"/>
<polygon fill="midnightblue" stroke="midnightblue" points="452.1,-28.59 458.06,-19.83 447.94,-22.97 452.1,-28.59"/>
</g>
<!-- Node8&#45;&gt;Node3 -->
<g id="edge8" class="edge">
<title>Node8&#45;&gt;Node3</title>
<path fill="none" stroke="midnightblue" d="M514.57,-168.34C489.22,-146.49 440.78,-104.73 414.69,-82.24"/>
<polygon fill="midnightblue" stroke="midnightblue" points="416.92,-79.55 407.06,-75.67 412.35,-84.85 416.92,-79.55"/>
</g>
<!-- Node10 -->
<g id="node10" class="node">
<title>Node10</title>
<g id="a_node10"><a xlink:href="_defines_8h.html" target="_top" xlink:title="Internal definitions used by standard math.h functions as Macros, to use float or double precision.">
<polygon fill="white" stroke="black" points="126,-291.5 126,-310.5 188,-310.5 188,-291.5 126,-291.5"/>
<text text-anchor="middle" x="157" y="-298.5" font-family="Helvetica,sans-Serif" font-size="10.00">Defines.h</text>
</a>
</g>
</g>
<!-- Node9&#45;&gt;Node10 -->
<g id="edge10" class="edge">
<title>Node9&#45;&gt;Node10</title>
<path fill="none" stroke="midnightblue" d="M141.97,-347.08C144.38,-339.85 147.86,-329.41 150.87,-320.4"/>
<polygon fill="midnightblue" stroke="midnightblue" points="154.24,-321.34 154.08,-310.75 147.6,-319.13 154.24,-321.34"/>
</g>
<!-- Node13 -->
<g id="node13" class="node">
<title>Node13</title>
<g id="a_node13"><a xlink:href="_mda_8h.html" target="_top" xlink:title="API for multi&#45;dimensional arrays.">
<polygon fill="white" stroke="black" points="4.5,-112.5 4.5,-131.5 51.5,-131.5 51.5,-112.5 4.5,-112.5"/>
<text text-anchor="middle" x="28" y="-119.5" font-family="Helvetica,sans-Serif" font-size="10.00">Mda.h</text>
</a>
</g>
</g>
<!-- Node9&#45;&gt;Node13 -->
<g id="edge22" class="edge">
<title>Node9&#45;&gt;Node13</title>
<path fill="none" stroke="midnightblue" d="M127.01,-347.29C106.3,-331.5 64.23,-295.98 45,-255 27.47,-217.65 26.12,-168.18 26.91,-141.67"/>
<polygon fill="midnightblue" stroke="midnightblue" points="30.42,-141.67 27.36,-131.52 23.42,-141.36 30.42,-141.67"/>
</g>
<!-- Node15 -->
<g id="node15" class="node">
<title>Node15</title>
<g id="a_node15"><a xlink:href="_matrix_8h.html" target="_top" xlink:title="API for operations on Matrix data structures.">
<polygon fill="white" stroke="black" points="54.5,-235.5 54.5,-254.5 111.5,-254.5 111.5,-235.5 54.5,-235.5"/>
<text text-anchor="middle" x="83" y="-242.5" font-family="Helvetica,sans-Serif" font-size="10.00">Matrix.h</text>
</a>
</g>
</g>
<!-- Node9&#45;&gt;Node15 -->
<g id="edge18" class="edge">
<title>Node9&#45;&gt;Node15</title>
<path fill="none" stroke="midnightblue" d="M134.61,-347.37C125.45,-329.38 104.15,-287.55 91.97,-263.63"/>
<polygon fill="midnightblue" stroke="midnightblue" points="95.03,-261.92 87.37,-254.59 88.79,-265.09 95.03,-261.92"/>
</g>
<!-- Node10&#45;&gt;Node11 -->
<g id="edge11" class="edge">
<title>Node10&#45;&gt;Node11</title>
<path fill="none" stroke="midnightblue" d="M158.32,-291.08C159.38,-283.93 160.91,-273.64 162.23,-264.69"/>
<polygon fill="midnightblue" stroke="midnightblue" points="165.7,-265.16 163.7,-254.75 158.78,-264.13 165.7,-265.16"/>
</g>
<!-- Node11&#45;&gt;Node3 -->
<g id="edge12" class="edge">
<title>Node11&#45;&gt;Node3</title>
<path fill="none" stroke="midnightblue" d="M167.48,-235.44C172.28,-220.18 184.16,-188 204,-168 248.51,-123.14 317.14,-93.81 359.45,-78.85"/>
<polygon fill="midnightblue" stroke="midnightblue" points="360.77,-82.09 369.09,-75.53 358.49,-75.48 360.77,-82.09"/>
</g>
<!-- Node12 -->
<g id="node12" class="node">
<title>Node12</title>
<g id="a_node12"><a xlink:href="_vector_8h.html" target="_top" xlink:title="API for operations on Vector data structures.">
<polygon fill="white" stroke="black" points="101,-174 101,-193 157,-193 157,-174 101,-174"/>
<text text-anchor="middle" x="129" y="-181" font-family="Helvetica,sans-Serif" font-size="10.00">Vector.h</text>
</a>
</g>
</g>
<!-- Node11&#45;&gt;Node12 -->
<g id="edge13" class="edge">
<title>Node11&#45;&gt;Node12</title>
<path fill="none" stroke="midnightblue" d="M159.84,-235.48C154.55,-226.73 146.16,-212.87 139.47,-201.81"/>
<polygon fill="midnightblue" stroke="midnightblue" points="142.32,-199.75 134.15,-193.01 136.33,-203.38 142.32,-199.75"/>
</g>
<!-- Node12&#45;&gt;Node3 -->
<g id="edge17" class="edge">
<title>Node12&#45;&gt;Node3</title>
<path fill="none" stroke="midnightblue" d="M131.53,-173.97C136.46,-158.89 148.89,-127.62 171,-112 197.66,-93.16 282.18,-80.06 339.95,-73.03"/>
<polygon fill="midnightblue" stroke="midnightblue" points="340.53,-76.48 350.05,-71.83 339.7,-69.53 340.53,-76.48"/>
</g>
<!-- Node12&#45;&gt;Node13 -->
<g id="edge14" class="edge">
<title>Node12&#45;&gt;Node13</title>
<path fill="none" stroke="midnightblue" d="M114.53,-173.98C98.03,-164.25 70.82,-148.23 51.32,-136.74"/>
<polygon fill="midnightblue" stroke="midnightblue" points="52.84,-133.57 42.44,-131.51 49.28,-139.6 52.84,-133.57"/>
</g>
<!-- Node13&#45;&gt;Node3 -->
<g id="edge15" class="edge">
<title>Node13&#45;&gt;Node3</title>
<path fill="none" stroke="midnightblue" d="M51.64,-115.02C56.38,-113.93 61.33,-112.87 66,-112 161.66,-94.21 274.1,-80.41 340.24,-73.01"/>
<polygon fill="midnightblue" stroke="midnightblue" points="340.9,-76.46 350.45,-71.88 340.13,-69.5 340.9,-76.46"/>
</g>
<!-- Node14 -->
<g id="node14" class="node">
<title>Node14</title>
<g id="a_node14"><a xlink:title=" ">
<polygon fill="white" stroke="#bfbfbf" points="0,-56.5 0,-75.5 56,-75.5 56,-56.5 0,-56.5"/>
<text text-anchor="middle" x="28" y="-63.5" font-family="Helvetica,sans-Serif" font-size="10.00">assert.h</text>
</a>
</g>
</g>
<!-- Node13&#45;&gt;Node14 -->
<g id="edge16" class="edge">
<title>Node13&#45;&gt;Node14</title>
<path fill="none" stroke="midnightblue" d="M28,-112.08C28,-105.01 28,-94.86 28,-85.99"/>
<polygon fill="midnightblue" stroke="midnightblue" points="31.5,-85.75 28,-75.75 24.5,-85.75 31.5,-85.75"/>
</g>
<!-- Node15&#45;&gt;Node3 -->
<g id="edge20" class="edge">
<title>Node15&#45;&gt;Node3</title>
<path fill="none" stroke="midnightblue" d="M82.21,-235.04C81.3,-220.25 81.12,-190.19 92,-168 107.64,-136.12 117.47,-128.34 149,-112 209.28,-80.77 287.59,-70.86 339.93,-67.91"/>
<polygon fill="midnightblue" stroke="midnightblue" points="340.23,-71.4 350.04,-67.4 339.88,-64.41 340.23,-71.4"/>
</g>
<!-- Node15&#45;&gt;Node12 -->
<g id="edge21" class="edge">
<title>Node15&#45;&gt;Node12</title>
<path fill="none" stroke="midnightblue" d="M89.59,-235.48C96.49,-226.55 107.5,-212.31 116.13,-201.14"/>
<polygon fill="midnightblue" stroke="midnightblue" points="119.07,-203.06 122.42,-193.01 113.54,-198.78 119.07,-203.06"/>
</g>
<!-- Node15&#45;&gt;Node13 -->
<g id="edge19" class="edge">
<title>Node15&#45;&gt;Node13</title>
<path fill="none" stroke="midnightblue" d="M77.94,-235.17C72.89,-226.2 65.02,-211.83 59,-199 49.85,-179.5 40.7,-156.54 34.74,-141"/>
<polygon fill="midnightblue" stroke="midnightblue" points="37.98,-139.67 31.16,-131.56 31.43,-142.15 37.98,-139.67"/>
</g>
<!-- Node17 -->
<g id="node17" class="node">
<title>Node17</title>
<g id="a_node17"><a xlink:href="_error_8h.html" target="_top" xlink:title="API for error handling.">
<polygon fill="white" stroke="black" points="693,-174 693,-193 781,-193 781,-174 693,-174"/>
<text text-anchor="middle" x="737" y="-181" font-family="Helvetica,sans-Serif" font-size="10.00">ifxBase/Error.h</text>
</a>
</g>
</g>
<!-- Node16&#45;&gt;Node17 -->
<g id="edge25" class="edge">
<title>Node16&#45;&gt;Node17</title>
<path fill="none" stroke="midnightblue" d="M634.41,-291.4C646.39,-282.82 664.77,-268.94 679,-255 696.25,-238.1 713.51,-216.34 724.66,-201.49"/>
<polygon fill="midnightblue" stroke="midnightblue" points="727.63,-203.37 730.76,-193.25 722,-199.21 727.63,-203.37"/>
</g>
<!-- Node20 -->
<g id="node20" class="node">
<title>Node20</title>
<g id="a_node20"><a xlink:href="_list_8h.html" target="_top" xlink:title=" ">
<polygon fill="white" stroke="black" points="623.5,-112.5 623.5,-131.5 706.5,-131.5 706.5,-112.5 623.5,-112.5"/>
<text text-anchor="middle" x="665" y="-119.5" font-family="Helvetica,sans-Serif" font-size="10.00">ifxBase/List.h</text>
</a>
</g>
</g>
<!-- Node16&#45;&gt;Node20 -->
<g id="edge29" class="edge">
<title>Node16&#45;&gt;Node20</title>
<path fill="none" stroke="midnightblue" d="M627.73,-291.44C633.32,-282.68 641.59,-268.46 646,-255 658.75,-216.08 662.95,-167.91 664.33,-141.87"/>
<polygon fill="midnightblue" stroke="midnightblue" points="667.84,-141.72 664.79,-131.57 660.85,-141.41 667.84,-141.72"/>
</g>
<!-- Node21 -->
<g id="node21" class="node">
<title>Node21</title>
<g id="a_node21"><a xlink:href="_device_fmcw_types_8h.html" target="_top" xlink:title=" ">
<polygon fill="white" stroke="black" points="521,-235.5 521,-254.5 637,-254.5 637,-235.5 521,-235.5"/>
<text text-anchor="middle" x="579" y="-242.5" font-family="Helvetica,sans-Serif" font-size="10.00">DeviceFmcwTypes.h</text>
</a>
</g>
</g>
<!-- Node16&#45;&gt;Node21 -->
<g id="edge31" class="edge">
<title>Node16&#45;&gt;Node21</title>
<path fill="none" stroke="midnightblue" d="M614.9,-291.08C608.76,-283.38 599.73,-272.03 592.26,-262.65"/>
<polygon fill="midnightblue" stroke="midnightblue" points="594.94,-260.39 585.97,-254.75 589.46,-264.75 594.94,-260.39"/>
</g>
<!-- Node18 -->
<g id="node18" class="node">
<title>Node18</title>
<g id="a_node18"><a xlink:href="_log_8h.html" target="_top" xlink:title="API for logging.">
<polygon fill="white" stroke="black" points="724.5,-112.5 724.5,-131.5 767.5,-131.5 767.5,-112.5 724.5,-112.5"/>
<text text-anchor="middle" x="746" y="-119.5" font-family="Helvetica,sans-Serif" font-size="10.00">Log.h</text>
</a>
</g>
</g>
<!-- Node17&#45;&gt;Node18 -->
<g id="edge26" class="edge">
<title>Node17&#45;&gt;Node18</title>
<path fill="none" stroke="midnightblue" d="M738.29,-173.98C739.56,-165.58 741.54,-152.48 743.18,-141.66"/>
<polygon fill="midnightblue" stroke="midnightblue" points="746.68,-141.92 744.71,-131.51 739.76,-140.87 746.68,-141.92"/>
</g>
<!-- Node18&#45;&gt;Node3 -->
<g id="edge28" class="edge">
<title>Node18&#45;&gt;Node3</title>
<path fill="none" stroke="midnightblue" d="M724.47,-114.12C721.64,-113.34 718.76,-112.61 716,-112 625.3,-92.12 518.09,-79.1 453.92,-72.4"/>
<polygon fill="midnightblue" stroke="midnightblue" points="453.92,-68.88 443.62,-71.34 453.21,-75.85 453.92,-68.88"/>
</g>
<!-- Node19 -->
<g id="node19" class="node">
<title>Node19</title>
<g id="a_node19"><a xlink:title=" ">
<polygon fill="white" stroke="#bfbfbf" points="721,-56.5 721,-75.5 771,-75.5 771,-56.5 721,-56.5"/>
<text text-anchor="middle" x="746" y="-63.5" font-family="Helvetica,sans-Serif" font-size="10.00">stdio.h</text>
</a>
</g>
</g>
<!-- Node18&#45;&gt;Node19 -->
<g id="edge27" class="edge">
<title>Node18&#45;&gt;Node19</title>
<path fill="none" stroke="midnightblue" d="M746,-112.08C746,-105.01 746,-94.86 746,-85.99"/>
<polygon fill="midnightblue" stroke="midnightblue" points="749.5,-85.75 746,-75.75 742.5,-85.75 749.5,-85.75"/>
</g>
<!-- Node20&#45;&gt;Node3 -->
<g id="edge30" class="edge">
<title>Node20&#45;&gt;Node3</title>
<path fill="none" stroke="midnightblue" d="M623.42,-112.62C576.56,-103.18 500.29,-87.81 449.39,-77.56"/>
<polygon fill="midnightblue" stroke="midnightblue" points="450.06,-74.12 439.56,-75.58 448.68,-80.98 450.06,-74.12"/>
</g>
<!-- Node21&#45;&gt;Node3 -->
<g id="edge34" class="edge">
<title>Node21&#45;&gt;Node3</title>
<path fill="none" stroke="midnightblue" d="M587.46,-235.05C600.35,-220.27 622,-190.22 608,-168 574.31,-114.52 503.61,-88.74 453.34,-76.74"/>
<polygon fill="midnightblue" stroke="midnightblue" points="454.1,-73.33 443.58,-74.52 452.55,-80.15 454.1,-73.33"/>
</g>
<!-- Node21&#45;&gt;Node8 -->
<g id="edge35" class="edge">
<title>Node21&#45;&gt;Node8</title>
<path fill="none" stroke="midnightblue" d="M572.12,-235.48C566.05,-227.94 556.92,-216.63 548.8,-206.57"/>
<polygon fill="midnightblue" stroke="midnightblue" points="551.32,-204.11 542.31,-198.52 545.87,-208.5 551.32,-204.11"/>
</g>
<!-- Node21&#45;&gt;Node13 -->
<g id="edge33" class="edge">
<title>Node21&#45;&gt;Node13</title>
<path fill="none" stroke="midnightblue" d="M554.47,-235.47C529.19,-226.61 488.7,-212.23 454,-199 419.53,-185.86 412.69,-177.32 377,-168 263.85,-138.45 124.78,-127.93 61.82,-124.5"/>
<polygon fill="midnightblue" stroke="midnightblue" points="61.84,-121 51.67,-123.98 61.48,-127.99 61.84,-121"/>
</g>
<!-- Node21&#45;&gt;Node17 -->
<g id="edge32" class="edge">
<title>Node21&#45;&gt;Node17</title>
<path fill="none" stroke="midnightblue" d="M601.64,-235.48C628.74,-225.27 674.31,-208.11 705,-196.55"/>
<polygon fill="midnightblue" stroke="midnightblue" points="706.28,-199.81 714.4,-193.01 703.81,-193.26 706.28,-199.81"/>
</g>
</g>
</svg>
