<?xml version="1.0" encoding="UTF-8" standalone="no"?>
<!DOCTYPE svg PUBLIC "-//W3C//DTD SVG 1.1//EN"
 "http://www.w3.org/Graphics/SVG/1.1/DTD/svg11.dtd">
<!-- Generated by graphviz version 2.43.0 (0)
 -->
<!-- Title: /home/jenkins/agent/workspace/ild&#45;documentation_release_v3.5.0/sdk/c/ifxAvian/DeviceConfig.h Pages: 1 -->
<svg width="333pt" height="240pt"
 viewBox="0.00 0.00 332.59 240.00" xmlns="http://www.w3.org/2000/svg" xmlns:xlink="http://www.w3.org/1999/xlink">
<g id="graph0" class="graph" transform="scale(1 1) rotate(0) translate(4 236)">
<title>/home/jenkins/agent/workspace/ild&#45;documentation_release_v3.5.0/sdk/c/ifxAvian/DeviceConfig.h</title>
<polygon fill="white" stroke="transparent" points="-4,4 -4,-236 328.59,-236 328.59,4 -4,4"/>
<!-- Node1 -->
<g id="node1" class="node">
<title>Node1</title>
<g id="a_node1"><a xlink:title="API for Radar device configuration.">
<polygon fill="#bfbfbf" stroke="black" points="10.59,-179.5 10.59,-231.5 174.59,-231.5 174.59,-179.5 10.59,-179.5"/>
<text text-anchor="start" x="18.59" y="-219.5" font-family="Helvetica,sans-Serif" font-size="10.00">/home/jenkins/agent</text>
<text text-anchor="start" x="18.59" y="-208.5" font-family="Helvetica,sans-Serif" font-size="10.00">/workspace/ild&#45;documentation</text>
<text text-anchor="start" x="18.59" y="-197.5" font-family="Helvetica,sans-Serif" font-size="10.00">_release_v3.5.0/sdk/c/ifxAvian</text>
<text text-anchor="middle" x="92.59" y="-186.5" font-family="Helvetica,sans-Serif" font-size="10.00">/DeviceConfig.h</text>
</a>
</g>
</g>
<!-- Node2 -->
<g id="node2" class="node">
<title>Node2</title>
<g id="a_node2"><a xlink:href="_types_8h.html" target="_top" xlink:title="Definitions of data types used within the SDK.">
<polygon fill="white" stroke="black" points="75.09,-56.5 75.09,-75.5 168.09,-75.5 168.09,-56.5 75.09,-56.5"/>
<text text-anchor="middle" x="121.59" y="-63.5" font-family="Helvetica,sans-Serif" font-size="10.00">ifxBase/Types.h</text>
</a>
</g>
</g>
<!-- Node1&#45;&gt;Node2 -->
<g id="edge1" class="edge">
<title>Node1&#45;&gt;Node2</title>
<path fill="none" stroke="midnightblue" d="M42.92,-179.47C14.84,-161.84 -11.53,-137.01 5.59,-112 19.15,-92.2 42.77,-81.12 65.18,-74.9"/>
<polygon fill="midnightblue" stroke="midnightblue" points="66.16,-78.27 75.01,-72.45 64.46,-71.48 66.16,-78.27"/>
</g>
<!-- Node6 -->
<g id="node6" class="node">
<title>Node6</title>
<g id="a_node6"><a xlink:href="_device_fmcw_avian_config_8h.html" target="_top" xlink:title="API for Radar device configuration.">
<polygon fill="white" stroke="black" points="15.09,-112.5 15.09,-142.5 170.09,-142.5 170.09,-112.5 15.09,-112.5"/>
<text text-anchor="start" x="23.09" y="-130.5" font-family="Helvetica,sans-Serif" font-size="10.00">ifxFmcw/avian/DeviceFmcw</text>
<text text-anchor="middle" x="92.59" y="-119.5" font-family="Helvetica,sans-Serif" font-size="10.00">AvianConfig.h</text>
</a>
</g>
</g>
<!-- Node1&#45;&gt;Node6 -->
<g id="edge5" class="edge">
<title>Node1&#45;&gt;Node6</title>
<path fill="none" stroke="midnightblue" d="M92.59,-179.19C92.59,-170.79 92.59,-161.44 92.59,-153.09"/>
<polygon fill="midnightblue" stroke="midnightblue" points="96.09,-152.85 92.59,-142.85 89.09,-152.85 96.09,-152.85"/>
</g>
<!-- Node7 -->
<g id="node7" class="node">
<title>Node7</title>
<g id="a_node7"><a xlink:href="_radar_device_common_8h.html" target="_top" xlink:title="Header for ifxRadarDeviceCommon.">
<polygon fill="white" stroke="black" points="188.59,-112.5 188.59,-142.5 324.59,-142.5 324.59,-112.5 188.59,-112.5"/>
<text text-anchor="start" x="196.59" y="-130.5" font-family="Helvetica,sans-Serif" font-size="10.00">ifxRadarDeviceCommon</text>
<text text-anchor="middle" x="256.59" y="-119.5" font-family="Helvetica,sans-Serif" font-size="10.00">/RadarDeviceCommon.h</text>
</a>
</g>
</g>
<!-- Node1&#45;&gt;Node7 -->
<g id="edge6" class="edge">
<title>Node1&#45;&gt;Node7</title>
<path fill="none" stroke="midnightblue" d="M146.75,-179.4C169.56,-168.83 195.64,-156.74 216.66,-147"/>
<polygon fill="midnightblue" stroke="midnightblue" points="218.34,-150.09 225.94,-142.71 215.39,-143.74 218.34,-150.09"/>
</g>
<!-- Node3 -->
<g id="node3" class="node">
<title>Node3</title>
<g id="a_node3"><a xlink:title=" ">
<polygon fill="white" stroke="#bfbfbf" points="13.59,-0.5 13.59,-19.5 75.59,-19.5 75.59,-0.5 13.59,-0.5"/>
<text text-anchor="middle" x="44.59" y="-7.5" font-family="Helvetica,sans-Serif" font-size="10.00">stdbool.h</text>
</a>
</g>
</g>
<!-- Node2&#45;&gt;Node3 -->
<g id="edge2" class="edge">
<title>Node2&#45;&gt;Node3</title>
<path fill="none" stroke="midnightblue" d="M109.22,-56.32C97.43,-48.06 79.46,-35.45 65.46,-25.63"/>
<polygon fill="midnightblue" stroke="midnightblue" points="67.13,-22.53 56.93,-19.65 63.11,-28.26 67.13,-22.53"/>
</g>
<!-- Node4 -->
<g id="node4" class="node">
<title>Node4</title>
<g id="a_node4"><a xlink:title=" ">
<polygon fill="white" stroke="#bfbfbf" points="93.59,-0.5 93.59,-19.5 149.59,-19.5 149.59,-0.5 93.59,-0.5"/>
<text text-anchor="middle" x="121.59" y="-7.5" font-family="Helvetica,sans-Serif" font-size="10.00">stddef.h</text>
</a>
</g>
</g>
<!-- Node2&#45;&gt;Node4 -->
<g id="edge3" class="edge">
<title>Node2&#45;&gt;Node4</title>
<path fill="none" stroke="midnightblue" d="M121.59,-56.08C121.59,-49.01 121.59,-38.86 121.59,-29.99"/>
<polygon fill="midnightblue" stroke="midnightblue" points="125.09,-29.75 121.59,-19.75 118.09,-29.75 125.09,-29.75"/>
</g>
<!-- Node5 -->
<g id="node5" class="node">
<title>Node5</title>
<g id="a_node5"><a xlink:title=" ">
<polygon fill="white" stroke="#bfbfbf" points="168.09,-0.5 168.09,-19.5 221.09,-19.5 221.09,-0.5 168.09,-0.5"/>
<text text-anchor="middle" x="194.59" y="-7.5" font-family="Helvetica,sans-Serif" font-size="10.00">stdint.h</text>
</a>
</g>
</g>
<!-- Node2&#45;&gt;Node5 -->
<g id="edge4" class="edge">
<title>Node2&#45;&gt;Node5</title>
<path fill="none" stroke="midnightblue" d="M133.32,-56.32C144.43,-48.11 161.34,-35.6 174.58,-25.81"/>
<polygon fill="midnightblue" stroke="midnightblue" points="176.69,-28.59 182.65,-19.83 172.53,-22.97 176.69,-28.59"/>
</g>
<!-- Node7&#45;&gt;Node2 -->
<g id="edge7" class="edge">
<title>Node7&#45;&gt;Node2</title>
<path fill="none" stroke="midnightblue" d="M224.6,-112.4C202.15,-102.51 172.38,-89.38 150.62,-79.79"/>
<polygon fill="midnightblue" stroke="midnightblue" points="151.8,-76.49 141.24,-75.66 148.98,-82.89 151.8,-76.49"/>
</g>
</g>
</svg>
