<?xml version="1.0" encoding="UTF-8" standalone="no"?>
<!DOCTYPE svg PUBLIC "-//W3C//DTD SVG 1.1//EN"
 "http://www.w3.org/Graphics/SVG/1.1/DTD/svg11.dtd">
<!-- Generated by graphviz version 2.43.0 (0)
 -->
<!-- Title: /home/jenkins/agent/workspace/ild&#45;documentation_release_v3.5.0/sdk/c/ifxFmcw/DeviceFmcwTypes.h Pages: 1 -->
<svg width="400pt" height="296pt"
 viewBox="0.00 0.00 400.00 296.00" xmlns="http://www.w3.org/2000/svg" xmlns:xlink="http://www.w3.org/1999/xlink">
<g id="graph0" class="graph" transform="scale(1 1) rotate(0) translate(4 292)">
<title>/home/jenkins/agent/workspace/ild&#45;documentation_release_v3.5.0/sdk/c/ifxFmcw/DeviceFmcwTypes.h</title>
<polygon fill="white" stroke="transparent" points="-4,4 -4,-292 396,-292 396,4 -4,4"/>
<!-- Node1 -->
<g id="node1" class="node">
<title>Node1</title>
<g id="a_node1"><a xlink:title=" ">
<polygon fill="#bfbfbf" stroke="black" points="67.5,-235.5 67.5,-287.5 234.5,-287.5 234.5,-235.5 67.5,-235.5"/>
<text text-anchor="start" x="75.5" y="-275.5" font-family="Helvetica,sans-Serif" font-size="10.00">/home/jenkins/agent</text>
<text text-anchor="start" x="75.5" y="-264.5" font-family="Helvetica,sans-Serif" font-size="10.00">/workspace/ild&#45;documentation</text>
<text text-anchor="start" x="75.5" y="-253.5" font-family="Helvetica,sans-Serif" font-size="10.00">_release_v3.5.0/sdk/c/ifxFmcw</text>
<text text-anchor="middle" x="151" y="-242.5" font-family="Helvetica,sans-Serif" font-size="10.00">/DeviceFmcwTypes.h</text>
</a>
</g>
</g>
<!-- Node2 -->
<g id="node2" class="node">
<title>Node2</title>
<g id="a_node2"><a xlink:href="_error_8h.html" target="_top" xlink:title="API for error handling.">
<polygon fill="white" stroke="black" points="0,-179.5 0,-198.5 88,-198.5 88,-179.5 0,-179.5"/>
<text text-anchor="middle" x="44" y="-186.5" font-family="Helvetica,sans-Serif" font-size="10.00">ifxBase/Error.h</text>
</a>
</g>
</g>
<!-- Node1&#45;&gt;Node2 -->
<g id="edge1" class="edge">
<title>Node1&#45;&gt;Node2</title>
<path fill="none" stroke="midnightblue" d="M112.97,-235.45C97.06,-224.96 79.16,-213.16 65.57,-204.22"/>
<polygon fill="midnightblue" stroke="midnightblue" points="67.22,-201.11 56.94,-198.53 63.37,-206.95 67.22,-201.11"/>
</g>
<!-- Node5 -->
<g id="node5" class="node">
<title>Node5</title>
<g id="a_node5"><a xlink:href="_types_8h.html" target="_top" xlink:title="Definitions of data types used within the SDK.">
<polygon fill="white" stroke="black" points="107.5,-56.5 107.5,-75.5 160.5,-75.5 160.5,-56.5 107.5,-56.5"/>
<text text-anchor="middle" x="134" y="-63.5" font-family="Helvetica,sans-Serif" font-size="10.00">Types.h</text>
</a>
</g>
</g>
<!-- Node1&#45;&gt;Node5 -->
<g id="edge11" class="edge">
<title>Node1&#45;&gt;Node5</title>
<path fill="none" stroke="midnightblue" d="M142.96,-235.35C139.82,-224.32 136.6,-211.14 135,-199 129.73,-159 131.23,-111.6 132.69,-85.88"/>
<polygon fill="midnightblue" stroke="midnightblue" points="136.19,-85.9 133.33,-75.7 129.21,-85.46 136.19,-85.9"/>
</g>
<!-- Node9 -->
<g id="node9" class="node">
<title>Node9</title>
<g id="a_node9"><a xlink:href="_mda_8h.html" target="_top" xlink:title="API for multi&#45;dimensional arrays.">
<polygon fill="white" stroke="black" points="144,-179.5 144,-198.5 230,-198.5 230,-179.5 144,-179.5"/>
<text text-anchor="middle" x="187" y="-186.5" font-family="Helvetica,sans-Serif" font-size="10.00">ifxBase/Mda.h</text>
</a>
</g>
</g>
<!-- Node1&#45;&gt;Node9 -->
<g id="edge8" class="edge">
<title>Node1&#45;&gt;Node9</title>
<path fill="none" stroke="midnightblue" d="M163.79,-235.45C168.45,-226.33 173.61,-216.22 177.88,-207.85"/>
<polygon fill="midnightblue" stroke="midnightblue" points="181.13,-209.19 182.56,-198.7 174.89,-206.01 181.13,-209.19"/>
</g>
<!-- Node11 -->
<g id="node11" class="node">
<title>Node11</title>
<g id="a_node11"><a xlink:href="_radar_device_common_8h.html" target="_top" xlink:title="Header for ifxRadarDeviceCommon.">
<polygon fill="white" stroke="black" points="256,-112.5 256,-142.5 392,-142.5 392,-112.5 256,-112.5"/>
<text text-anchor="start" x="264" y="-130.5" font-family="Helvetica,sans-Serif" font-size="10.00">ifxRadarDeviceCommon</text>
<text text-anchor="middle" x="324" y="-119.5" font-family="Helvetica,sans-Serif" font-size="10.00">/RadarDeviceCommon.h</text>
</a>
</g>
</g>
<!-- Node1&#45;&gt;Node11 -->
<g id="edge12" class="edge">
<title>Node1&#45;&gt;Node11</title>
<path fill="none" stroke="midnightblue" d="M188.31,-235.43C204.15,-224.53 222.69,-211.43 239,-199 260.1,-182.92 283.22,-163.63 300.01,-149.29"/>
<polygon fill="midnightblue" stroke="midnightblue" points="302.4,-151.86 307.71,-142.69 297.84,-146.54 302.4,-151.86"/>
</g>
<!-- Node3 -->
<g id="node3" class="node">
<title>Node3</title>
<g id="a_node3"><a xlink:href="_log_8h.html" target="_top" xlink:title="API for logging.">
<polygon fill="white" stroke="black" points="33.5,-118 33.5,-137 76.5,-137 76.5,-118 33.5,-118"/>
<text text-anchor="middle" x="55" y="-125" font-family="Helvetica,sans-Serif" font-size="10.00">Log.h</text>
</a>
</g>
</g>
<!-- Node2&#45;&gt;Node3 -->
<g id="edge2" class="edge">
<title>Node2&#45;&gt;Node3</title>
<path fill="none" stroke="midnightblue" d="M45.58,-179.48C47.13,-171.08 49.55,-157.98 51.55,-147.16"/>
<polygon fill="midnightblue" stroke="midnightblue" points="55.05,-147.48 53.43,-137.01 48.17,-146.21 55.05,-147.48"/>
</g>
<!-- Node4 -->
<g id="node4" class="node">
<title>Node4</title>
<g id="a_node4"><a xlink:title=" ">
<polygon fill="white" stroke="#bfbfbf" points="30,-56.5 30,-75.5 80,-75.5 80,-56.5 30,-56.5"/>
<text text-anchor="middle" x="55" y="-63.5" font-family="Helvetica,sans-Serif" font-size="10.00">stdio.h</text>
</a>
</g>
</g>
<!-- Node3&#45;&gt;Node4 -->
<g id="edge3" class="edge">
<title>Node3&#45;&gt;Node4</title>
<path fill="none" stroke="midnightblue" d="M55,-117.98C55,-109.58 55,-96.48 55,-85.66"/>
<polygon fill="midnightblue" stroke="midnightblue" points="58.5,-85.51 55,-75.51 51.5,-85.51 58.5,-85.51"/>
</g>
<!-- Node3&#45;&gt;Node5 -->
<g id="edge4" class="edge">
<title>Node3&#45;&gt;Node5</title>
<path fill="none" stroke="midnightblue" d="M66.32,-117.98C78.87,-108.52 99.35,-93.1 114.5,-81.69"/>
<polygon fill="midnightblue" stroke="midnightblue" points="116.82,-84.32 122.7,-75.51 112.61,-78.73 116.82,-84.32"/>
</g>
<!-- Node6 -->
<g id="node6" class="node">
<title>Node6</title>
<g id="a_node6"><a xlink:title=" ">
<polygon fill="white" stroke="#bfbfbf" points="26,-0.5 26,-19.5 88,-19.5 88,-0.5 26,-0.5"/>
<text text-anchor="middle" x="57" y="-7.5" font-family="Helvetica,sans-Serif" font-size="10.00">stdbool.h</text>
</a>
</g>
</g>
<!-- Node5&#45;&gt;Node6 -->
<g id="edge5" class="edge">
<title>Node5&#45;&gt;Node6</title>
<path fill="none" stroke="midnightblue" d="M121.63,-56.32C109.84,-48.06 91.87,-35.45 77.86,-25.63"/>
<polygon fill="midnightblue" stroke="midnightblue" points="79.54,-22.53 69.34,-19.65 75.52,-28.26 79.54,-22.53"/>
</g>
<!-- Node7 -->
<g id="node7" class="node">
<title>Node7</title>
<g id="a_node7"><a xlink:title=" ">
<polygon fill="white" stroke="#bfbfbf" points="106,-0.5 106,-19.5 162,-19.5 162,-0.5 106,-0.5"/>
<text text-anchor="middle" x="134" y="-7.5" font-family="Helvetica,sans-Serif" font-size="10.00">stddef.h</text>
</a>
</g>
</g>
<!-- Node5&#45;&gt;Node7 -->
<g id="edge6" class="edge">
<title>Node5&#45;&gt;Node7</title>
<path fill="none" stroke="midnightblue" d="M134,-56.08C134,-49.01 134,-38.86 134,-29.99"/>
<polygon fill="midnightblue" stroke="midnightblue" points="137.5,-29.75 134,-19.75 130.5,-29.75 137.5,-29.75"/>
</g>
<!-- Node8 -->
<g id="node8" class="node">
<title>Node8</title>
<g id="a_node8"><a xlink:title=" ">
<polygon fill="white" stroke="#bfbfbf" points="180.5,-0.5 180.5,-19.5 233.5,-19.5 233.5,-0.5 180.5,-0.5"/>
<text text-anchor="middle" x="207" y="-7.5" font-family="Helvetica,sans-Serif" font-size="10.00">stdint.h</text>
</a>
</g>
</g>
<!-- Node5&#45;&gt;Node8 -->
<g id="edge7" class="edge">
<title>Node5&#45;&gt;Node8</title>
<path fill="none" stroke="midnightblue" d="M145.73,-56.32C156.84,-48.11 173.74,-35.6 186.98,-25.81"/>
<polygon fill="midnightblue" stroke="midnightblue" points="189.1,-28.59 195.06,-19.83 184.94,-22.97 189.1,-28.59"/>
</g>
<!-- Node9&#45;&gt;Node5 -->
<g id="edge9" class="edge">
<title>Node9&#45;&gt;Node5</title>
<path fill="none" stroke="midnightblue" d="M183.19,-179.3C174.56,-159.59 153.36,-111.21 141.82,-84.84"/>
<polygon fill="midnightblue" stroke="midnightblue" points="145,-83.38 137.78,-75.62 138.58,-86.19 145,-83.38"/>
</g>
<!-- Node10 -->
<g id="node10" class="node">
<title>Node10</title>
<g id="a_node10"><a xlink:title=" ">
<polygon fill="white" stroke="#bfbfbf" points="182,-118 182,-137 238,-137 238,-118 182,-118"/>
<text text-anchor="middle" x="210" y="-125" font-family="Helvetica,sans-Serif" font-size="10.00">assert.h</text>
</a>
</g>
</g>
<!-- Node9&#45;&gt;Node10 -->
<g id="edge10" class="edge">
<title>Node9&#45;&gt;Node10</title>
<path fill="none" stroke="midnightblue" d="M190.3,-179.48C193.61,-170.9 198.82,-157.43 203.05,-146.48"/>
<polygon fill="midnightblue" stroke="midnightblue" points="206.37,-147.6 206.71,-137.01 199.84,-145.07 206.37,-147.6"/>
</g>
<!-- Node11&#45;&gt;Node5 -->
<g id="edge13" class="edge">
<title>Node11&#45;&gt;Node5</title>
<path fill="none" stroke="midnightblue" d="M278.97,-112.4C245.85,-102.03 201.39,-88.1 170.47,-78.42"/>
<polygon fill="midnightblue" stroke="midnightblue" points="171.13,-74.96 160.54,-75.31 169.04,-81.64 171.13,-74.96"/>
</g>
</g>
</svg>
