<?xml version="1.0" encoding="UTF-8" standalone="no"?>
<!DOCTYPE svg PUBLIC "-//W3C//DTD SVG 1.1//EN"
 "http://www.w3.org/Graphics/SVG/1.1/DTD/svg11.dtd">
<!-- Generated by graphviz version 2.43.0 (0)
 -->
<!-- Title: /home/jenkins/agent/workspace/ild&#45;documentation_release_v3.5.0/sdk/c/ifxCw/DeviceCwTypes.h Pages: 1 -->
<svg width="394pt" height="352pt"
 viewBox="0.00 0.00 394.00 352.00" xmlns="http://www.w3.org/2000/svg" xmlns:xlink="http://www.w3.org/1999/xlink">
<g id="graph0" class="graph" transform="scale(1 1) rotate(0) translate(4 348)">
<title>/home/jenkins/agent/workspace/ild&#45;documentation_release_v3.5.0/sdk/c/ifxCw/DeviceCwTypes.h</title>
<polygon fill="white" stroke="transparent" points="-4,4 -4,-348 390,-348 390,4 -4,4"/>
<!-- Node1 -->
<g id="node1" class="node">
<title>Node1</title>
<g id="a_node1"><a xlink:title=" ">
<polygon fill="#bfbfbf" stroke="black" points="222,-291.5 222,-343.5 386,-343.5 386,-291.5 222,-291.5"/>
<text text-anchor="start" x="230" y="-331.5" font-family="Helvetica,sans-Serif" font-size="10.00">/home/jenkins/agent</text>
<text text-anchor="start" x="230" y="-320.5" font-family="Helvetica,sans-Serif" font-size="10.00">/workspace/ild&#45;documentation</text>
<text text-anchor="start" x="230" y="-309.5" font-family="Helvetica,sans-Serif" font-size="10.00">_release_v3.5.0/sdk/c/ifxCw</text>
<text text-anchor="middle" x="304" y="-298.5" font-family="Helvetica,sans-Serif" font-size="10.00">/DeviceCwTypes.h</text>
</a>
</g>
</g>
<!-- Node2 -->
<g id="node2" class="node">
<title>Node2</title>
<g id="a_node2"><a xlink:href="_types_8h.html" target="_top" xlink:title="Definitions of data types used within the SDK.">
<polygon fill="white" stroke="black" points="182.5,-56.5 182.5,-75.5 275.5,-75.5 275.5,-56.5 182.5,-56.5"/>
<text text-anchor="middle" x="229" y="-63.5" font-family="Helvetica,sans-Serif" font-size="10.00">ifxBase/Types.h</text>
</a>
</g>
</g>
<!-- Node1&#45;&gt;Node2 -->
<g id="edge1" class="edge">
<title>Node1&#45;&gt;Node2</title>
<path fill="none" stroke="midnightblue" d="M319.44,-291.23C343.03,-249.04 380.98,-163.79 338,-112 324.52,-95.76 304.23,-85.3 284.79,-78.6"/>
<polygon fill="midnightblue" stroke="midnightblue" points="285.63,-75.2 275.04,-75.52 283.52,-81.87 285.63,-75.2"/>
</g>
<!-- Node6 -->
<g id="node6" class="node">
<title>Node6</title>
<g id="a_node6"><a xlink:href="_device_fmcw_types_8h.html" target="_top" xlink:title=" ">
<polygon fill="white" stroke="black" points="148.5,-235.5 148.5,-254.5 309.5,-254.5 309.5,-235.5 148.5,-235.5"/>
<text text-anchor="middle" x="229" y="-242.5" font-family="Helvetica,sans-Serif" font-size="10.00">ifxFmcw/DeviceFmcwTypes.h</text>
</a>
</g>
</g>
<!-- Node1&#45;&gt;Node6 -->
<g id="edge5" class="edge">
<title>Node1&#45;&gt;Node6</title>
<path fill="none" stroke="midnightblue" d="M277.35,-291.45C266.8,-281.53 254.99,-270.43 245.69,-261.69"/>
<polygon fill="midnightblue" stroke="midnightblue" points="247.93,-258.99 238.25,-254.7 243.14,-264.09 247.93,-258.99"/>
</g>
<!-- Node3 -->
<g id="node3" class="node">
<title>Node3</title>
<g id="a_node3"><a xlink:title=" ">
<polygon fill="white" stroke="#bfbfbf" points="121,-0.5 121,-19.5 183,-19.5 183,-0.5 121,-0.5"/>
<text text-anchor="middle" x="152" y="-7.5" font-family="Helvetica,sans-Serif" font-size="10.00">stdbool.h</text>
</a>
</g>
</g>
<!-- Node2&#45;&gt;Node3 -->
<g id="edge2" class="edge">
<title>Node2&#45;&gt;Node3</title>
<path fill="none" stroke="midnightblue" d="M216.63,-56.32C204.84,-48.06 186.87,-35.45 172.86,-25.63"/>
<polygon fill="midnightblue" stroke="midnightblue" points="174.54,-22.53 164.34,-19.65 170.52,-28.26 174.54,-22.53"/>
</g>
<!-- Node4 -->
<g id="node4" class="node">
<title>Node4</title>
<g id="a_node4"><a xlink:title=" ">
<polygon fill="white" stroke="#bfbfbf" points="201,-0.5 201,-19.5 257,-19.5 257,-0.5 201,-0.5"/>
<text text-anchor="middle" x="229" y="-7.5" font-family="Helvetica,sans-Serif" font-size="10.00">stddef.h</text>
</a>
</g>
</g>
<!-- Node2&#45;&gt;Node4 -->
<g id="edge3" class="edge">
<title>Node2&#45;&gt;Node4</title>
<path fill="none" stroke="midnightblue" d="M229,-56.08C229,-49.01 229,-38.86 229,-29.99"/>
<polygon fill="midnightblue" stroke="midnightblue" points="232.5,-29.75 229,-19.75 225.5,-29.75 232.5,-29.75"/>
</g>
<!-- Node5 -->
<g id="node5" class="node">
<title>Node5</title>
<g id="a_node5"><a xlink:title=" ">
<polygon fill="white" stroke="#bfbfbf" points="275.5,-0.5 275.5,-19.5 328.5,-19.5 328.5,-0.5 275.5,-0.5"/>
<text text-anchor="middle" x="302" y="-7.5" font-family="Helvetica,sans-Serif" font-size="10.00">stdint.h</text>
</a>
</g>
</g>
<!-- Node2&#45;&gt;Node5 -->
<g id="edge4" class="edge">
<title>Node2&#45;&gt;Node5</title>
<path fill="none" stroke="midnightblue" d="M240.73,-56.32C251.84,-48.11 268.74,-35.6 281.98,-25.81"/>
<polygon fill="midnightblue" stroke="midnightblue" points="284.1,-28.59 290.06,-19.83 279.94,-22.97 284.1,-28.59"/>
</g>
<!-- Node6&#45;&gt;Node2 -->
<g id="edge13" class="edge">
<title>Node6&#45;&gt;Node2</title>
<path fill="none" stroke="midnightblue" d="M229,-235.46C229,-208.43 229,-124.24 229,-86.11"/>
<polygon fill="midnightblue" stroke="midnightblue" points="232.5,-85.87 229,-75.87 225.5,-85.87 232.5,-85.87"/>
</g>
<!-- Node7 -->
<g id="node7" class="node">
<title>Node7</title>
<g id="a_node7"><a xlink:href="_error_8h.html" target="_top" xlink:title="API for error handling.">
<polygon fill="white" stroke="black" points="5,-179.5 5,-198.5 93,-198.5 93,-179.5 5,-179.5"/>
<text text-anchor="middle" x="49" y="-186.5" font-family="Helvetica,sans-Serif" font-size="10.00">ifxBase/Error.h</text>
</a>
</g>
</g>
<!-- Node6&#45;&gt;Node7 -->
<g id="edge6" class="edge">
<title>Node6&#45;&gt;Node7</title>
<path fill="none" stroke="midnightblue" d="M200.48,-235.44C169.93,-226.28 121.29,-211.69 87.4,-201.52"/>
<polygon fill="midnightblue" stroke="midnightblue" points="87.97,-198.04 77.39,-198.52 85.96,-204.74 87.97,-198.04"/>
</g>
<!-- Node10 -->
<g id="node10" class="node">
<title>Node10</title>
<g id="a_node10"><a xlink:href="_mda_8h.html" target="_top" xlink:title="API for multi&#45;dimensional arrays.">
<polygon fill="white" stroke="black" points="257,-179.5 257,-198.5 343,-198.5 343,-179.5 257,-179.5"/>
<text text-anchor="middle" x="300" y="-186.5" font-family="Helvetica,sans-Serif" font-size="10.00">ifxBase/Mda.h</text>
</a>
</g>
</g>
<!-- Node6&#45;&gt;Node10 -->
<g id="edge10" class="edge">
<title>Node6&#45;&gt;Node10</title>
<path fill="none" stroke="midnightblue" d="M240.41,-235.32C251.11,-227.18 267.34,-214.84 280.16,-205.09"/>
<polygon fill="midnightblue" stroke="midnightblue" points="282.54,-207.67 288.39,-198.83 278.31,-202.1 282.54,-207.67"/>
</g>
<!-- Node12 -->
<g id="node12" class="node">
<title>Node12</title>
<g id="a_node12"><a xlink:href="_radar_device_common_8h.html" target="_top" xlink:title="Header for ifxRadarDeviceCommon.">
<polygon fill="white" stroke="black" points="65,-112.5 65,-142.5 201,-142.5 201,-112.5 65,-112.5"/>
<text text-anchor="start" x="73" y="-130.5" font-family="Helvetica,sans-Serif" font-size="10.00">ifxRadarDeviceCommon</text>
<text text-anchor="middle" x="133" y="-119.5" font-family="Helvetica,sans-Serif" font-size="10.00">/RadarDeviceCommon.h</text>
</a>
</g>
</g>
<!-- Node6&#45;&gt;Node12 -->
<g id="edge14" class="edge">
<title>Node6&#45;&gt;Node12</title>
<path fill="none" stroke="midnightblue" d="M221.78,-235.32C206.91,-217.42 172.45,-175.97 151.1,-150.28"/>
<polygon fill="midnightblue" stroke="midnightblue" points="153.76,-148 144.67,-142.55 148.37,-152.47 153.76,-148"/>
</g>
<!-- Node8 -->
<g id="node8" class="node">
<title>Node8</title>
<g id="a_node8"><a xlink:href="_log_8h.html" target="_top" xlink:title="API for logging.">
<polygon fill="white" stroke="black" points="3.5,-118 3.5,-137 46.5,-137 46.5,-118 3.5,-118"/>
<text text-anchor="middle" x="25" y="-125" font-family="Helvetica,sans-Serif" font-size="10.00">Log.h</text>
</a>
</g>
</g>
<!-- Node7&#45;&gt;Node8 -->
<g id="edge7" class="edge">
<title>Node7&#45;&gt;Node8</title>
<path fill="none" stroke="midnightblue" d="M45.56,-179.48C42.1,-170.9 36.67,-157.43 32.25,-146.48"/>
<polygon fill="midnightblue" stroke="midnightblue" points="35.42,-144.97 28.43,-137.01 28.93,-147.59 35.42,-144.97"/>
</g>
<!-- Node8&#45;&gt;Node2 -->
<g id="edge9" class="edge">
<title>Node8&#45;&gt;Node2</title>
<path fill="none" stroke="midnightblue" d="M41.82,-117.95C46.35,-115.84 51.3,-113.69 56,-112 95.99,-97.58 142.72,-85.71 177.52,-77.79"/>
<polygon fill="midnightblue" stroke="midnightblue" points="178.47,-81.16 187.46,-75.56 176.94,-74.33 178.47,-81.16"/>
</g>
<!-- Node9 -->
<g id="node9" class="node">
<title>Node9</title>
<g id="a_node9"><a xlink:title=" ">
<polygon fill="white" stroke="#bfbfbf" points="0,-56.5 0,-75.5 50,-75.5 50,-56.5 0,-56.5"/>
<text text-anchor="middle" x="25" y="-63.5" font-family="Helvetica,sans-Serif" font-size="10.00">stdio.h</text>
</a>
</g>
</g>
<!-- Node8&#45;&gt;Node9 -->
<g id="edge8" class="edge">
<title>Node8&#45;&gt;Node9</title>
<path fill="none" stroke="midnightblue" d="M25,-117.98C25,-109.58 25,-96.48 25,-85.66"/>
<polygon fill="midnightblue" stroke="midnightblue" points="28.5,-85.51 25,-75.51 21.5,-85.51 28.5,-85.51"/>
</g>
<!-- Node10&#45;&gt;Node2 -->
<g id="edge11" class="edge">
<title>Node10&#45;&gt;Node2</title>
<path fill="none" stroke="midnightblue" d="M306.74,-179.39C317.42,-164.61 335.72,-133.88 322,-112 312.12,-96.25 295,-85.87 278.11,-79.11"/>
<polygon fill="midnightblue" stroke="midnightblue" points="278.85,-75.65 268.25,-75.52 276.46,-82.23 278.85,-75.65"/>
</g>
<!-- Node11 -->
<g id="node11" class="node">
<title>Node11</title>
<g id="a_node11"><a xlink:title=" ">
<polygon fill="white" stroke="#bfbfbf" points="257,-118 257,-137 313,-137 313,-118 257,-118"/>
<text text-anchor="middle" x="285" y="-125" font-family="Helvetica,sans-Serif" font-size="10.00">assert.h</text>
</a>
</g>
</g>
<!-- Node10&#45;&gt;Node11 -->
<g id="edge12" class="edge">
<title>Node10&#45;&gt;Node11</title>
<path fill="none" stroke="midnightblue" d="M297.85,-179.48C295.71,-170.99 292.36,-157.7 289.62,-146.82"/>
<polygon fill="midnightblue" stroke="midnightblue" points="292.98,-145.85 287.15,-137.01 286.2,-147.56 292.98,-145.85"/>
</g>
<!-- Node12&#45;&gt;Node2 -->
<g id="edge15" class="edge">
<title>Node12&#45;&gt;Node2</title>
<path fill="none" stroke="midnightblue" d="M155.75,-112.4C170.99,-102.95 190.99,-90.56 206.24,-81.11"/>
<polygon fill="midnightblue" stroke="midnightblue" points="208.38,-83.9 215.03,-75.66 204.69,-77.95 208.38,-83.9"/>
</g>
</g>
</svg>
