<?xml version="1.0" encoding="UTF-8" standalone="no"?>
<!DOCTYPE svg PUBLIC "-//W3C//DTD SVG 1.1//EN"
 "http://www.w3.org/Graphics/SVG/1.1/DTD/svg11.dtd">
<!-- Generated by graphviz version 2.43.0 (0)
 -->
<!-- Title: /home/jenkins/agent/workspace/ild&#45;documentation_release_v3.5.0/sdk/c/ifxFmcw/DeviceFmcwTypes.h Pages: 1 -->
<svg width="620pt" height="417pt"
 viewBox="0.00 0.00 620.00 417.00" xmlns="http://www.w3.org/2000/svg" xmlns:xlink="http://www.w3.org/1999/xlink">
<g id="graph0" class="graph" transform="scale(1 1) rotate(0) translate(4 413)">
<title>/home/jenkins/agent/workspace/ild&#45;documentation_release_v3.5.0/sdk/c/ifxFmcw/DeviceFmcwTypes.h</title>
<polygon fill="white" stroke="transparent" points="-4,4 -4,-413 616,-413 616,4 -4,4"/>
<!-- Node1 -->
<g id="node1" class="node">
<title>Node1</title>
<g id="a_node1"><a xlink:title=" ">
<polygon fill="#bfbfbf" stroke="black" points="225.5,-356.5 225.5,-408.5 392.5,-408.5 392.5,-356.5 225.5,-356.5"/>
<text text-anchor="start" x="233.5" y="-396.5" font-family="Helvetica,sans-Serif" font-size="10.00">/home/jenkins/agent</text>
<text text-anchor="start" x="233.5" y="-385.5" font-family="Helvetica,sans-Serif" font-size="10.00">/workspace/ild&#45;documentation</text>
<text text-anchor="start" x="233.5" y="-374.5" font-family="Helvetica,sans-Serif" font-size="10.00">_release_v3.5.0/sdk/c/ifxFmcw</text>
<text text-anchor="middle" x="309" y="-363.5" font-family="Helvetica,sans-Serif" font-size="10.00">/DeviceFmcwTypes.h</text>
</a>
</g>
</g>
<!-- Node2 -->
<g id="node2" class="node">
<title>Node2</title>
<g id="a_node2"><a xlink:href="_device_cw_types_8h.html" target="_top" xlink:title=" ">
<polygon fill="white" stroke="black" points="30,-178.5 30,-230.5 194,-230.5 194,-178.5 30,-178.5"/>
<text text-anchor="start" x="38" y="-218.5" font-family="Helvetica,sans-Serif" font-size="10.00">/home/jenkins/agent</text>
<text text-anchor="start" x="38" y="-207.5" font-family="Helvetica,sans-Serif" font-size="10.00">/workspace/ild&#45;documentation</text>
<text text-anchor="start" x="38" y="-196.5" font-family="Helvetica,sans-Serif" font-size="10.00">_release_v3.5.0/sdk/c/ifxCw</text>
<text text-anchor="middle" x="112" y="-185.5" font-family="Helvetica,sans-Serif" font-size="10.00">/DeviceCwTypes.h</text>
</a>
</g>
</g>
<!-- Node1&#45;&gt;Node2 -->
<g id="edge1" class="edge">
<title>Node1&#45;&gt;Node2</title>
<path fill="none" stroke="midnightblue" d="M258.22,-350.69C244.36,-341.46 229.68,-330.88 217,-320 184.65,-292.26 152.24,-255.14 132.16,-230.79"/>
<polygon fill="midnightblue" stroke="midnightblue" points="256.43,-353.71 266.72,-356.26 260.27,-347.85 256.43,-353.71"/>
</g>
<!-- Node4 -->
<g id="node4" class="node">
<title>Node4</title>
<g id="a_node4"><a xlink:href="_device_fmcw_8h.html" target="_top" xlink:title="For details refer to FMCW Device Control.">
<polygon fill="white" stroke="black" points="225.5,-267.5 225.5,-319.5 392.5,-319.5 392.5,-267.5 225.5,-267.5"/>
<text text-anchor="start" x="233.5" y="-307.5" font-family="Helvetica,sans-Serif" font-size="10.00">/home/jenkins/agent</text>
<text text-anchor="start" x="233.5" y="-296.5" font-family="Helvetica,sans-Serif" font-size="10.00">/workspace/ild&#45;documentation</text>
<text text-anchor="start" x="233.5" y="-285.5" font-family="Helvetica,sans-Serif" font-size="10.00">_release_v3.5.0/sdk/c/ifxFmcw</text>
<text text-anchor="middle" x="309" y="-274.5" font-family="Helvetica,sans-Serif" font-size="10.00">/DeviceFmcw.h</text>
</a>
</g>
</g>
<!-- Node1&#45;&gt;Node4 -->
<g id="edge3" class="edge">
<title>Node1&#45;&gt;Node4</title>
<path fill="none" stroke="midnightblue" d="M309,-346.19C309,-337.28 309,-327.9 309,-319.61"/>
<polygon fill="midnightblue" stroke="midnightblue" points="305.5,-346.34 309,-356.34 312.5,-346.34 305.5,-346.34"/>
</g>
<!-- Node9 -->
<g id="node9" class="node">
<title>Node9</title>
<g id="a_node9"><a xlink:href="_metrics_fmcw_8h.html" target="_top" xlink:title="API for MetricsFmcw.">
<polygon fill="white" stroke="black" points="419.5,-267.5 419.5,-319.5 586.5,-319.5 586.5,-267.5 419.5,-267.5"/>
<text text-anchor="start" x="427.5" y="-307.5" font-family="Helvetica,sans-Serif" font-size="10.00">/home/jenkins/agent</text>
<text text-anchor="start" x="427.5" y="-296.5" font-family="Helvetica,sans-Serif" font-size="10.00">/workspace/ild&#45;documentation</text>
<text text-anchor="start" x="427.5" y="-285.5" font-family="Helvetica,sans-Serif" font-size="10.00">_release_v3.5.0/sdk/c/ifxFmcw</text>
<text text-anchor="middle" x="503" y="-274.5" font-family="Helvetica,sans-Serif" font-size="10.00">/MetricsFmcw.h</text>
</a>
</g>
</g>
<!-- Node1&#45;&gt;Node9 -->
<g id="edge10" class="edge">
<title>Node1&#45;&gt;Node9</title>
<path fill="none" stroke="midnightblue" d="M374.12,-352.29C397.83,-341.67 424.39,-329.76 447.21,-319.52"/>
<polygon fill="midnightblue" stroke="midnightblue" points="372.54,-349.17 364.85,-356.45 375.41,-355.55 372.54,-349.17"/>
</g>
<!-- Node3 -->
<g id="node3" class="node">
<title>Node3</title>
<g id="a_node3"><a xlink:href="_device_cw_8h.html" target="_top" xlink:title="Header for Continuous Wave Control.">
<polygon fill="white" stroke="black" points="0,-89.5 0,-141.5 164,-141.5 164,-89.5 0,-89.5"/>
<text text-anchor="start" x="8" y="-129.5" font-family="Helvetica,sans-Serif" font-size="10.00">/home/jenkins/agent</text>
<text text-anchor="start" x="8" y="-118.5" font-family="Helvetica,sans-Serif" font-size="10.00">/workspace/ild&#45;documentation</text>
<text text-anchor="start" x="8" y="-107.5" font-family="Helvetica,sans-Serif" font-size="10.00">_release_v3.5.0/sdk/c/ifxCw</text>
<text text-anchor="middle" x="82" y="-96.5" font-family="Helvetica,sans-Serif" font-size="10.00">/DeviceCw.h</text>
</a>
</g>
</g>
<!-- Node2&#45;&gt;Node3 -->
<g id="edge2" class="edge">
<title>Node2&#45;&gt;Node3</title>
<path fill="none" stroke="midnightblue" d="M100.02,-168.77C96.89,-159.69 93.58,-150.08 90.66,-141.61"/>
<polygon fill="midnightblue" stroke="midnightblue" points="96.75,-170.02 103.32,-178.34 103.37,-167.74 96.75,-170.02"/>
</g>
<!-- Node5 -->
<g id="node5" class="node">
<title>Node5</title>
<g id="a_node5"><a xlink:href="_device_control_8h.html" target="_top" xlink:title="Header for ifxAvian.">
<polygon fill="white" stroke="black" points="227,-178.5 227,-230.5 391,-230.5 391,-178.5 227,-178.5"/>
<text text-anchor="start" x="235" y="-218.5" font-family="Helvetica,sans-Serif" font-size="10.00">/home/jenkins/agent</text>
<text text-anchor="start" x="235" y="-207.5" font-family="Helvetica,sans-Serif" font-size="10.00">/workspace/ild&#45;documentation</text>
<text text-anchor="start" x="235" y="-196.5" font-family="Helvetica,sans-Serif" font-size="10.00">_release_v3.5.0/sdk/c/ifxAvian</text>
<text text-anchor="middle" x="309" y="-185.5" font-family="Helvetica,sans-Serif" font-size="10.00">/DeviceControl.h</text>
</a>
</g>
</g>
<!-- Node4&#45;&gt;Node5 -->
<g id="edge4" class="edge">
<title>Node4&#45;&gt;Node5</title>
<path fill="none" stroke="midnightblue" d="M309,-257.19C309,-248.28 309,-238.9 309,-230.61"/>
<polygon fill="midnightblue" stroke="midnightblue" points="305.5,-257.34 309,-267.34 312.5,-257.34 305.5,-257.34"/>
</g>
<!-- Node5&#45;&gt;Node3 -->
<g id="edge8" class="edge">
<title>Node5&#45;&gt;Node3</title>
<path fill="none" stroke="midnightblue" d="M234.27,-174.86C206.17,-164.09 174.46,-151.94 147.28,-141.52"/>
<polygon fill="midnightblue" stroke="midnightblue" points="233.06,-178.14 243.65,-178.45 235.56,-171.61 233.06,-178.14"/>
</g>
<!-- Node6 -->
<g id="node6" class="node">
<title>Node6</title>
<g id="a_node6"><a xlink:href="_avian_8h.html" target="_top" xlink:title="Header for ifxAvian.">
<polygon fill="white" stroke="black" points="279,-0.5 279,-52.5 443,-52.5 443,-0.5 279,-0.5"/>
<text text-anchor="start" x="287" y="-40.5" font-family="Helvetica,sans-Serif" font-size="10.00">/home/jenkins/agent</text>
<text text-anchor="start" x="287" y="-29.5" font-family="Helvetica,sans-Serif" font-size="10.00">/workspace/ild&#45;documentation</text>
<text text-anchor="start" x="287" y="-18.5" font-family="Helvetica,sans-Serif" font-size="10.00">_release_v3.5.0/sdk/c/ifxAvian</text>
<text text-anchor="middle" x="361" y="-7.5" font-family="Helvetica,sans-Serif" font-size="10.00">/Avian.h</text>
</a>
</g>
</g>
<!-- Node5&#45;&gt;Node6 -->
<g id="edge5" class="edge">
<title>Node5&#45;&gt;Node6</title>
<path fill="none" stroke="midnightblue" d="M239.76,-172.77C228.22,-164.48 217.81,-154.31 211,-142 199.6,-121.39 197.88,-108.56 211,-89 226.6,-65.74 252.73,-51.27 278.86,-42.28"/>
<polygon fill="midnightblue" stroke="midnightblue" points="238.06,-175.84 248.32,-178.47 241.94,-170.02 238.06,-175.84"/>
</g>
<!-- Node7 -->
<g id="node7" class="node">
<title>Node7</title>
<g id="a_node7"><a xlink:href="_metrics_8h.html" target="_top" xlink:title="API for Metrics.">
<polygon fill="white" stroke="black" points="448,-89.5 448,-141.5 612,-141.5 612,-89.5 448,-89.5"/>
<text text-anchor="start" x="456" y="-129.5" font-family="Helvetica,sans-Serif" font-size="10.00">/home/jenkins/agent</text>
<text text-anchor="start" x="456" y="-118.5" font-family="Helvetica,sans-Serif" font-size="10.00">/workspace/ild&#45;documentation</text>
<text text-anchor="start" x="456" y="-107.5" font-family="Helvetica,sans-Serif" font-size="10.00">_release_v3.5.0/sdk/c/ifxAvian</text>
<text text-anchor="middle" x="530" y="-96.5" font-family="Helvetica,sans-Serif" font-size="10.00">/Metrics.h</text>
</a>
</g>
</g>
<!-- Node5&#45;&gt;Node7 -->
<g id="edge6" class="edge">
<title>Node5&#45;&gt;Node7</title>
<path fill="none" stroke="midnightblue" d="M382.12,-174.72C409.39,-163.98 440.1,-151.89 466.44,-141.52"/>
<polygon fill="midnightblue" stroke="midnightblue" points="380.65,-171.53 372.63,-178.45 383.21,-178.05 380.65,-171.53"/>
</g>
<!-- Node8 -->
<g id="node8" class="node">
<title>Node8</title>
<g id="a_node8"><a xlink:href="_presence_sensing_8h.html" target="_top" xlink:title=" ">
<polygon fill="white" stroke="black" points="220,-89.5 220,-141.5 430,-141.5 430,-89.5 220,-89.5"/>
<text text-anchor="start" x="228" y="-129.5" font-family="Helvetica,sans-Serif" font-size="10.00">/home/jenkins/agent</text>
<text text-anchor="start" x="228" y="-118.5" font-family="Helvetica,sans-Serif" font-size="10.00">/workspace/ild&#45;documentation</text>
<text text-anchor="start" x="228" y="-107.5" font-family="Helvetica,sans-Serif" font-size="10.00">_release_v3.5.0/sdk/c/ifxRadarPresence</text>
<text text-anchor="middle" x="325" y="-96.5" font-family="Helvetica,sans-Serif" font-size="10.00">Sensing/PresenceSensing.h</text>
</a>
</g>
</g>
<!-- Node5&#45;&gt;Node8 -->
<g id="edge9" class="edge">
<title>Node5&#45;&gt;Node8</title>
<path fill="none" stroke="midnightblue" d="M315.44,-168.48C317.09,-159.49 318.84,-149.99 320.38,-141.61"/>
<polygon fill="midnightblue" stroke="midnightblue" points="311.99,-167.87 313.63,-178.34 318.88,-169.13 311.99,-167.87"/>
</g>
<!-- Node7&#45;&gt;Node6 -->
<g id="edge7" class="edge">
<title>Node7&#45;&gt;Node6</title>
<path fill="none" stroke="midnightblue" d="M471.99,-84.64C451.73,-74.2 429.2,-62.61 409.77,-52.61"/>
<polygon fill="midnightblue" stroke="midnightblue" points="470.63,-87.87 481.12,-89.34 473.83,-81.65 470.63,-87.87"/>
</g>
<!-- Node9&#45;&gt;Node7 -->
<g id="edge11" class="edge">
<title>Node9&#45;&gt;Node7</title>
<path fill="none" stroke="midnightblue" d="M508.41,-257.25C513.66,-223.04 521.49,-171.97 526.14,-141.67"/>
<polygon fill="midnightblue" stroke="midnightblue" points="504.93,-256.87 506.87,-267.28 511.84,-257.93 504.93,-256.87"/>
</g>
</g>
</svg>
