<?xml version="1.0" encoding="UTF-8" standalone="no"?>
<!DOCTYPE svg PUBLIC "-//W3C//DTD SVG 1.1//EN"
 "http://www.w3.org/Graphics/SVG/1.1/DTD/svg11.dtd">
<!-- Generated by graphviz version 2.43.0 (0)
 -->
<!-- Title: /home/jenkins/agent/workspace/ild&#45;documentation_release_v3.5.0/sdk/c/ifxFmcw/DeviceFmcw.h Pages: 1 -->
<svg width="420pt" height="352pt"
 viewBox="0.00 0.00 419.71 352.00" xmlns="http://www.w3.org/2000/svg" xmlns:xlink="http://www.w3.org/1999/xlink">
<g id="graph0" class="graph" transform="scale(1 1) rotate(0) translate(4 348)">
<title>/home/jenkins/agent/workspace/ild&#45;documentation_release_v3.5.0/sdk/c/ifxFmcw/DeviceFmcw.h</title>
<polygon fill="white" stroke="transparent" points="-4,4 -4,-348 415.71,-348 415.71,4 -4,4"/>
<!-- Node1 -->
<g id="node1" class="node">
<title>Node1</title>
<g id="a_node1"><a xlink:title="For details refer to FMCW Device Control.">
<polygon fill="#bfbfbf" stroke="black" points="88.5,-291.5 88.5,-343.5 255.5,-343.5 255.5,-291.5 88.5,-291.5"/>
<text text-anchor="start" x="96.5" y="-331.5" font-family="Helvetica,sans-Serif" font-size="10.00">/home/jenkins/agent</text>
<text text-anchor="start" x="96.5" y="-320.5" font-family="Helvetica,sans-Serif" font-size="10.00">/workspace/ild&#45;documentation</text>
<text text-anchor="start" x="96.5" y="-309.5" font-family="Helvetica,sans-Serif" font-size="10.00">_release_v3.5.0/sdk/c/ifxFmcw</text>
<text text-anchor="middle" x="172" y="-298.5" font-family="Helvetica,sans-Serif" font-size="10.00">/DeviceFmcw.h</text>
</a>
</g>
</g>
<!-- Node2 -->
<g id="node2" class="node">
<title>Node2</title>
<g id="a_node2"><a xlink:href="_error_8h.html" target="_top" xlink:title="API for error handling.">
<polygon fill="white" stroke="black" points="0,-179.5 0,-198.5 88,-198.5 88,-179.5 0,-179.5"/>
<text text-anchor="middle" x="44" y="-186.5" font-family="Helvetica,sans-Serif" font-size="10.00">ifxBase/Error.h</text>
</a>
</g>
</g>
<!-- Node1&#45;&gt;Node2 -->
<g id="edge1" class="edge">
<title>Node1&#45;&gt;Node2</title>
<path fill="none" stroke="midnightblue" d="M143.53,-291.22C131.46,-280.29 117.35,-267.21 105,-255 88.6,-238.78 70.62,-219.41 58.45,-206.06"/>
<polygon fill="midnightblue" stroke="midnightblue" points="61.01,-203.67 51.7,-198.61 55.82,-208.37 61.01,-203.67"/>
</g>
<!-- Node9 -->
<g id="node9" class="node">
<title>Node9</title>
<g id="a_node9"><a xlink:href="_list_8h.html" target="_top" xlink:title=" ">
<polygon fill="white" stroke="black" points="313.5,-235.5 313.5,-254.5 396.5,-254.5 396.5,-235.5 313.5,-235.5"/>
<text text-anchor="middle" x="355" y="-242.5" font-family="Helvetica,sans-Serif" font-size="10.00">ifxBase/List.h</text>
</a>
</g>
</g>
<!-- Node1&#45;&gt;Node9 -->
<g id="edge8" class="edge">
<title>Node1&#45;&gt;Node9</title>
<path fill="none" stroke="midnightblue" d="M237.03,-291.45C266.34,-280.16 299.61,-267.34 323.33,-258.2"/>
<polygon fill="midnightblue" stroke="midnightblue" points="324.79,-261.39 332.87,-254.53 322.28,-254.86 324.79,-261.39"/>
</g>
<!-- Node10 -->
<g id="node10" class="node">
<title>Node10</title>
<g id="a_node10"><a xlink:href="_device_fmcw_types_8h.html" target="_top" xlink:title=" ">
<polygon fill="white" stroke="black" points="114,-235.5 114,-254.5 230,-254.5 230,-235.5 114,-235.5"/>
<text text-anchor="middle" x="172" y="-242.5" font-family="Helvetica,sans-Serif" font-size="10.00">DeviceFmcwTypes.h</text>
</a>
</g>
</g>
<!-- Node1&#45;&gt;Node10 -->
<g id="edge10" class="edge">
<title>Node1&#45;&gt;Node10</title>
<path fill="none" stroke="midnightblue" d="M172,-291.45C172,-282.73 172,-273.1 172,-264.96"/>
<polygon fill="midnightblue" stroke="midnightblue" points="175.5,-264.7 172,-254.7 168.5,-264.7 175.5,-264.7"/>
</g>
<!-- Node3 -->
<g id="node3" class="node">
<title>Node3</title>
<g id="a_node3"><a xlink:href="_log_8h.html" target="_top" xlink:title="API for logging.">
<polygon fill="white" stroke="black" points="33.5,-118 33.5,-137 76.5,-137 76.5,-118 33.5,-118"/>
<text text-anchor="middle" x="55" y="-125" font-family="Helvetica,sans-Serif" font-size="10.00">Log.h</text>
</a>
</g>
</g>
<!-- Node2&#45;&gt;Node3 -->
<g id="edge2" class="edge">
<title>Node2&#45;&gt;Node3</title>
<path fill="none" stroke="midnightblue" d="M45.58,-179.48C47.13,-171.08 49.55,-157.98 51.55,-147.16"/>
<polygon fill="midnightblue" stroke="midnightblue" points="55.05,-147.48 53.43,-137.01 48.17,-146.21 55.05,-147.48"/>
</g>
<!-- Node4 -->
<g id="node4" class="node">
<title>Node4</title>
<g id="a_node4"><a xlink:title=" ">
<polygon fill="white" stroke="#bfbfbf" points="30,-56.5 30,-75.5 80,-75.5 80,-56.5 30,-56.5"/>
<text text-anchor="middle" x="55" y="-63.5" font-family="Helvetica,sans-Serif" font-size="10.00">stdio.h</text>
</a>
</g>
</g>
<!-- Node3&#45;&gt;Node4 -->
<g id="edge3" class="edge">
<title>Node3&#45;&gt;Node4</title>
<path fill="none" stroke="midnightblue" d="M55,-117.98C55,-109.58 55,-96.48 55,-85.66"/>
<polygon fill="midnightblue" stroke="midnightblue" points="58.5,-85.51 55,-75.51 51.5,-85.51 58.5,-85.51"/>
</g>
<!-- Node5 -->
<g id="node5" class="node">
<title>Node5</title>
<g id="a_node5"><a xlink:href="_types_8h.html" target="_top" xlink:title="Definitions of data types used within the SDK.">
<polygon fill="white" stroke="black" points="127.5,-56.5 127.5,-75.5 180.5,-75.5 180.5,-56.5 127.5,-56.5"/>
<text text-anchor="middle" x="154" y="-63.5" font-family="Helvetica,sans-Serif" font-size="10.00">Types.h</text>
</a>
</g>
</g>
<!-- Node3&#45;&gt;Node5 -->
<g id="edge4" class="edge">
<title>Node3&#45;&gt;Node5</title>
<path fill="none" stroke="midnightblue" d="M69.18,-117.98C85.36,-108.25 112.03,-92.23 131.14,-80.74"/>
<polygon fill="midnightblue" stroke="midnightblue" points="133.07,-83.66 139.84,-75.51 129.47,-77.66 133.07,-83.66"/>
</g>
<!-- Node6 -->
<g id="node6" class="node">
<title>Node6</title>
<g id="a_node6"><a xlink:title=" ">
<polygon fill="white" stroke="#bfbfbf" points="46,-0.5 46,-19.5 108,-19.5 108,-0.5 46,-0.5"/>
<text text-anchor="middle" x="77" y="-7.5" font-family="Helvetica,sans-Serif" font-size="10.00">stdbool.h</text>
</a>
</g>
</g>
<!-- Node5&#45;&gt;Node6 -->
<g id="edge5" class="edge">
<title>Node5&#45;&gt;Node6</title>
<path fill="none" stroke="midnightblue" d="M141.63,-56.32C129.84,-48.06 111.87,-35.45 97.86,-25.63"/>
<polygon fill="midnightblue" stroke="midnightblue" points="99.54,-22.53 89.34,-19.65 95.52,-28.26 99.54,-22.53"/>
</g>
<!-- Node7 -->
<g id="node7" class="node">
<title>Node7</title>
<g id="a_node7"><a xlink:title=" ">
<polygon fill="white" stroke="#bfbfbf" points="126,-0.5 126,-19.5 182,-19.5 182,-0.5 126,-0.5"/>
<text text-anchor="middle" x="154" y="-7.5" font-family="Helvetica,sans-Serif" font-size="10.00">stddef.h</text>
</a>
</g>
</g>
<!-- Node5&#45;&gt;Node7 -->
<g id="edge6" class="edge">
<title>Node5&#45;&gt;Node7</title>
<path fill="none" stroke="midnightblue" d="M154,-56.08C154,-49.01 154,-38.86 154,-29.99"/>
<polygon fill="midnightblue" stroke="midnightblue" points="157.5,-29.75 154,-19.75 150.5,-29.75 157.5,-29.75"/>
</g>
<!-- Node8 -->
<g id="node8" class="node">
<title>Node8</title>
<g id="a_node8"><a xlink:title=" ">
<polygon fill="white" stroke="#bfbfbf" points="200.5,-0.5 200.5,-19.5 253.5,-19.5 253.5,-0.5 200.5,-0.5"/>
<text text-anchor="middle" x="227" y="-7.5" font-family="Helvetica,sans-Serif" font-size="10.00">stdint.h</text>
</a>
</g>
</g>
<!-- Node5&#45;&gt;Node8 -->
<g id="edge7" class="edge">
<title>Node5&#45;&gt;Node8</title>
<path fill="none" stroke="midnightblue" d="M165.73,-56.32C176.84,-48.11 193.74,-35.6 206.98,-25.81"/>
<polygon fill="midnightblue" stroke="midnightblue" points="209.1,-28.59 215.06,-19.83 204.94,-22.97 209.1,-28.59"/>
</g>
<!-- Node9&#45;&gt;Node5 -->
<g id="edge9" class="edge">
<title>Node9&#45;&gt;Node5</title>
<path fill="none" stroke="midnightblue" d="M363.24,-235.25C383.72,-212.47 433.03,-150.39 401,-112 374.67,-80.44 253.09,-70.96 190.88,-68.15"/>
<polygon fill="midnightblue" stroke="midnightblue" points="190.85,-64.65 180.71,-67.73 190.56,-71.64 190.85,-64.65"/>
</g>
<!-- Node10&#45;&gt;Node2 -->
<g id="edge11" class="edge">
<title>Node10&#45;&gt;Node2</title>
<path fill="none" stroke="midnightblue" d="M151.72,-235.44C130.65,-226.56 97.48,-212.56 73.51,-202.45"/>
<polygon fill="midnightblue" stroke="midnightblue" points="74.76,-199.18 64.19,-198.52 72.04,-205.63 74.76,-199.18"/>
</g>
<!-- Node10&#45;&gt;Node5 -->
<g id="edge15" class="edge">
<title>Node10&#45;&gt;Node5</title>
<path fill="none" stroke="midnightblue" d="M161.56,-235.24C152.58,-226.97 140.25,-213.66 135,-199 121,-159.92 135.93,-110.83 146.13,-84.92"/>
<polygon fill="midnightblue" stroke="midnightblue" points="149.39,-86.2 149.99,-75.62 142.93,-83.52 149.39,-86.2"/>
</g>
<!-- Node11 -->
<g id="node11" class="node">
<title>Node11</title>
<g id="a_node11"><a xlink:href="_mda_8h.html" target="_top" xlink:title="API for multi&#45;dimensional arrays.">
<polygon fill="white" stroke="black" points="144,-179.5 144,-198.5 230,-198.5 230,-179.5 144,-179.5"/>
<text text-anchor="middle" x="187" y="-186.5" font-family="Helvetica,sans-Serif" font-size="10.00">ifxBase/Mda.h</text>
</a>
</g>
</g>
<!-- Node10&#45;&gt;Node11 -->
<g id="edge12" class="edge">
<title>Node10&#45;&gt;Node11</title>
<path fill="none" stroke="midnightblue" d="M174.48,-235.08C176.49,-227.85 179.39,-217.41 181.89,-208.4"/>
<polygon fill="midnightblue" stroke="midnightblue" points="185.26,-209.32 184.57,-198.75 178.52,-207.45 185.26,-209.32"/>
</g>
<!-- Node13 -->
<g id="node13" class="node">
<title>Node13</title>
<g id="a_node13"><a xlink:href="_radar_device_common_8h.html" target="_top" xlink:title="Header for ifxRadarDeviceCommon.">
<polygon fill="white" stroke="black" points="256,-112.5 256,-142.5 392,-142.5 392,-112.5 256,-112.5"/>
<text text-anchor="start" x="264" y="-130.5" font-family="Helvetica,sans-Serif" font-size="10.00">ifxRadarDeviceCommon</text>
<text text-anchor="middle" x="324" y="-119.5" font-family="Helvetica,sans-Serif" font-size="10.00">/RadarDeviceCommon.h</text>
</a>
</g>
</g>
<!-- Node10&#45;&gt;Node13 -->
<g id="edge16" class="edge">
<title>Node10&#45;&gt;Node13</title>
<path fill="none" stroke="midnightblue" d="M185.62,-235.42C199.36,-226.65 221.04,-212.42 239,-199 260.38,-183.02 283.64,-163.57 300.42,-149.15"/>
<polygon fill="midnightblue" stroke="midnightblue" points="302.82,-151.7 308.1,-142.51 298.24,-146.41 302.82,-151.7"/>
</g>
<!-- Node11&#45;&gt;Node5 -->
<g id="edge13" class="edge">
<title>Node11&#45;&gt;Node5</title>
<path fill="none" stroke="midnightblue" d="M184.17,-179.42C181.23,-170.39 176.58,-155.76 173,-143 167.56,-123.61 162.06,-101.23 158.39,-85.8"/>
<polygon fill="midnightblue" stroke="midnightblue" points="161.76,-84.87 156.06,-75.94 154.95,-86.47 161.76,-84.87"/>
</g>
<!-- Node12 -->
<g id="node12" class="node">
<title>Node12</title>
<g id="a_node12"><a xlink:title=" ">
<polygon fill="white" stroke="#bfbfbf" points="182,-118 182,-137 238,-137 238,-118 182,-118"/>
<text text-anchor="middle" x="210" y="-125" font-family="Helvetica,sans-Serif" font-size="10.00">assert.h</text>
</a>
</g>
</g>
<!-- Node11&#45;&gt;Node12 -->
<g id="edge14" class="edge">
<title>Node11&#45;&gt;Node12</title>
<path fill="none" stroke="midnightblue" d="M190.3,-179.48C193.61,-170.9 198.82,-157.43 203.05,-146.48"/>
<polygon fill="midnightblue" stroke="midnightblue" points="206.37,-147.6 206.71,-137.01 199.84,-145.07 206.37,-147.6"/>
</g>
<!-- Node13&#45;&gt;Node5 -->
<g id="edge17" class="edge">
<title>Node13&#45;&gt;Node5</title>
<path fill="none" stroke="midnightblue" d="M283.71,-112.4C254.68,-102.24 215.92,-88.67 188.35,-79.02"/>
<polygon fill="midnightblue" stroke="midnightblue" points="189.33,-75.66 178.74,-75.66 187.02,-82.26 189.33,-75.66"/>
</g>
</g>
</svg>
