<?xml version="1.0" encoding="UTF-8" standalone="no"?>
<!DOCTYPE svg PUBLIC "-//W3C//DTD SVG 1.1//EN"
 "http://www.w3.org/Graphics/SVG/1.1/DTD/svg11.dtd">
<!-- Generated by graphviz version 2.43.0 (0)
 -->
<!-- Title: /home/jenkins/agent/workspace/ild&#45;documentation_release_v3.5.0/sdk/c/ifxLtr11/DeviceLtr11.h Pages: 1 -->
<svg width="490pt" height="296pt"
 viewBox="0.00 0.00 489.50 296.00" xmlns="http://www.w3.org/2000/svg" xmlns:xlink="http://www.w3.org/1999/xlink">
<g id="graph0" class="graph" transform="scale(1 1) rotate(0) translate(4 292)">
<title>/home/jenkins/agent/workspace/ild&#45;documentation_release_v3.5.0/sdk/c/ifxLtr11/DeviceLtr11.h</title>
<polygon fill="white" stroke="transparent" points="-4,4 -4,-292 485.5,-292 485.5,4 -4,4"/>
<!-- Node1 -->
<g id="node1" class="node">
<title>Node1</title>
<g id="a_node1"><a xlink:title="Main header file for DeviceLtr11.">
<polygon fill="#bfbfbf" stroke="black" points="132,-235.5 132,-287.5 296,-287.5 296,-235.5 132,-235.5"/>
<text text-anchor="start" x="140" y="-275.5" font-family="Helvetica,sans-Serif" font-size="10.00">/home/jenkins/agent</text>
<text text-anchor="start" x="140" y="-264.5" font-family="Helvetica,sans-Serif" font-size="10.00">/workspace/ild&#45;documentation</text>
<text text-anchor="start" x="140" y="-253.5" font-family="Helvetica,sans-Serif" font-size="10.00">_release_v3.5.0/sdk/c/ifxLtr11</text>
<text text-anchor="middle" x="214" y="-242.5" font-family="Helvetica,sans-Serif" font-size="10.00">/DeviceLtr11.h</text>
</a>
</g>
</g>
<!-- Node2 -->
<g id="node2" class="node">
<title>Node2</title>
<g id="a_node2"><a xlink:href="_device_ltr11_types_8h.html" target="_top" xlink:title="Header for DeviceLtr11Types.">
<polygon fill="white" stroke="black" points="180,-112.5 180,-131.5 292,-131.5 292,-112.5 180,-112.5"/>
<text text-anchor="middle" x="236" y="-119.5" font-family="Helvetica,sans-Serif" font-size="10.00">DeviceLtr11Types.h</text>
</a>
</g>
</g>
<!-- Node1&#45;&gt;Node2 -->
<g id="edge1" class="edge">
<title>Node1&#45;&gt;Node2</title>
<path fill="none" stroke="midnightblue" d="M196.25,-235.16C185.31,-216.23 175.1,-189.94 185,-168 190.62,-155.56 201.56,-145.17 211.88,-137.53"/>
<polygon fill="midnightblue" stroke="midnightblue" points="214.01,-140.31 220.27,-131.76 210.04,-134.54 214.01,-140.31"/>
</g>
<!-- Node3 -->
<g id="node3" class="node">
<title>Node3</title>
<g id="a_node3"><a xlink:href="_types_8h.html" target="_top" xlink:title="Definitions of data types used within the SDK.">
<polygon fill="white" stroke="black" points="273.5,-56.5 273.5,-75.5 366.5,-75.5 366.5,-56.5 273.5,-56.5"/>
<text text-anchor="middle" x="320" y="-63.5" font-family="Helvetica,sans-Serif" font-size="10.00">ifxBase/Types.h</text>
</a>
</g>
</g>
<!-- Node1&#45;&gt;Node3 -->
<g id="edge12" class="edge">
<title>Node1&#45;&gt;Node3</title>
<path fill="none" stroke="midnightblue" d="M296.15,-236.22C313.13,-227.29 328.9,-215.22 339,-199 361.35,-163.1 342.13,-111.22 329.29,-84.45"/>
<polygon fill="midnightblue" stroke="midnightblue" points="332.4,-82.86 324.78,-75.51 326.15,-86.01 332.4,-82.86"/>
</g>
<!-- Node7 -->
<g id="node7" class="node">
<title>Node7</title>
<g id="a_node7"><a xlink:href="_error_8h.html" target="_top" xlink:title="API for error handling.">
<polygon fill="white" stroke="black" points="0,-174 0,-193 88,-193 88,-174 0,-174"/>
<text text-anchor="middle" x="44" y="-181" font-family="Helvetica,sans-Serif" font-size="10.00">ifxBase/Error.h</text>
</a>
</g>
</g>
<!-- Node1&#45;&gt;Node7 -->
<g id="edge6" class="edge">
<title>Node1&#45;&gt;Node7</title>
<path fill="none" stroke="midnightblue" d="M157.86,-235.4C129.26,-222.62 95.71,-207.62 72.47,-197.23"/>
<polygon fill="midnightblue" stroke="midnightblue" points="73.75,-193.96 63.19,-193.08 70.89,-200.35 73.75,-193.96"/>
</g>
<!-- Node10 -->
<g id="node10" class="node">
<title>Node10</title>
<g id="a_node10"><a xlink:href="_list_8h.html" target="_top" xlink:title=" ">
<polygon fill="white" stroke="black" points="78.5,-112.5 78.5,-131.5 161.5,-131.5 161.5,-112.5 78.5,-112.5"/>
<text text-anchor="middle" x="120" y="-119.5" font-family="Helvetica,sans-Serif" font-size="10.00">ifxBase/List.h</text>
</a>
</g>
</g>
<!-- Node1&#45;&gt;Node10 -->
<g id="edge10" class="edge">
<title>Node1&#45;&gt;Node10</title>
<path fill="none" stroke="midnightblue" d="M196.76,-235.28C177.86,-207.63 148.04,-164.02 131.69,-140.1"/>
<polygon fill="midnightblue" stroke="midnightblue" points="134.48,-137.98 125.95,-131.7 128.7,-141.93 134.48,-137.98"/>
</g>
<!-- Node11 -->
<g id="node11" class="node">
<title>Node11</title>
<g id="a_node11"><a xlink:href="_vector_8h.html" target="_top" xlink:title="API for operations on Vector data structures.">
<polygon fill="white" stroke="black" points="386.5,-174 386.5,-193 481.5,-193 481.5,-174 386.5,-174"/>
<text text-anchor="middle" x="434" y="-181" font-family="Helvetica,sans-Serif" font-size="10.00">ifxBase/Vector.h</text>
</a>
</g>
</g>
<!-- Node1&#45;&gt;Node11 -->
<g id="edge13" class="edge">
<title>Node1&#45;&gt;Node11</title>
<path fill="none" stroke="midnightblue" d="M286.65,-235.4C324.65,-222.27 369.41,-206.81 399.54,-196.4"/>
<polygon fill="midnightblue" stroke="midnightblue" points="400.86,-199.65 409.17,-193.08 398.57,-193.04 400.86,-199.65"/>
</g>
<!-- Node14 -->
<g id="node14" class="node">
<title>Node14</title>
<g id="a_node14"><a xlink:href="_radar_device_common_8h.html" target="_top" xlink:title="Header for ifxRadarDeviceCommon.">
<polygon fill="white" stroke="black" points="194,-168.5 194,-198.5 330,-198.5 330,-168.5 194,-168.5"/>
<text text-anchor="start" x="202" y="-186.5" font-family="Helvetica,sans-Serif" font-size="10.00">ifxRadarDeviceCommon</text>
<text text-anchor="middle" x="262" y="-175.5" font-family="Helvetica,sans-Serif" font-size="10.00">/RadarDeviceCommon.h</text>
</a>
</g>
</g>
<!-- Node1&#45;&gt;Node14 -->
<g id="edge18" class="edge">
<title>Node1&#45;&gt;Node14</title>
<path fill="none" stroke="midnightblue" d="M229.98,-235.19C235.65,-226.22 241.99,-216.18 247.53,-207.42"/>
<polygon fill="midnightblue" stroke="midnightblue" points="250.56,-209.17 252.94,-198.85 244.64,-205.43 250.56,-209.17"/>
</g>
<!-- Node2&#45;&gt;Node3 -->
<g id="edge2" class="edge">
<title>Node2&#45;&gt;Node3</title>
<path fill="none" stroke="midnightblue" d="M249.5,-112.32C262.6,-103.9 282.71,-90.97 298.11,-81.07"/>
<polygon fill="midnightblue" stroke="midnightblue" points="300.02,-84.01 306.54,-75.65 296.23,-78.12 300.02,-84.01"/>
</g>
<!-- Node4 -->
<g id="node4" class="node">
<title>Node4</title>
<g id="a_node4"><a xlink:title=" ">
<polygon fill="white" stroke="#bfbfbf" points="212,-0.5 212,-19.5 274,-19.5 274,-0.5 212,-0.5"/>
<text text-anchor="middle" x="243" y="-7.5" font-family="Helvetica,sans-Serif" font-size="10.00">stdbool.h</text>
</a>
</g>
</g>
<!-- Node3&#45;&gt;Node4 -->
<g id="edge3" class="edge">
<title>Node3&#45;&gt;Node4</title>
<path fill="none" stroke="midnightblue" d="M307.63,-56.32C295.84,-48.06 277.87,-35.45 263.86,-25.63"/>
<polygon fill="midnightblue" stroke="midnightblue" points="265.54,-22.53 255.34,-19.65 261.52,-28.26 265.54,-22.53"/>
</g>
<!-- Node5 -->
<g id="node5" class="node">
<title>Node5</title>
<g id="a_node5"><a xlink:title=" ">
<polygon fill="white" stroke="#bfbfbf" points="292,-0.5 292,-19.5 348,-19.5 348,-0.5 292,-0.5"/>
<text text-anchor="middle" x="320" y="-7.5" font-family="Helvetica,sans-Serif" font-size="10.00">stddef.h</text>
</a>
</g>
</g>
<!-- Node3&#45;&gt;Node5 -->
<g id="edge4" class="edge">
<title>Node3&#45;&gt;Node5</title>
<path fill="none" stroke="midnightblue" d="M320,-56.08C320,-49.01 320,-38.86 320,-29.99"/>
<polygon fill="midnightblue" stroke="midnightblue" points="323.5,-29.75 320,-19.75 316.5,-29.75 323.5,-29.75"/>
</g>
<!-- Node6 -->
<g id="node6" class="node">
<title>Node6</title>
<g id="a_node6"><a xlink:title=" ">
<polygon fill="white" stroke="#bfbfbf" points="366.5,-0.5 366.5,-19.5 419.5,-19.5 419.5,-0.5 366.5,-0.5"/>
<text text-anchor="middle" x="393" y="-7.5" font-family="Helvetica,sans-Serif" font-size="10.00">stdint.h</text>
</a>
</g>
</g>
<!-- Node3&#45;&gt;Node6 -->
<g id="edge5" class="edge">
<title>Node3&#45;&gt;Node6</title>
<path fill="none" stroke="midnightblue" d="M331.73,-56.32C342.84,-48.11 359.74,-35.6 372.98,-25.81"/>
<polygon fill="midnightblue" stroke="midnightblue" points="375.1,-28.59 381.06,-19.83 370.94,-22.97 375.1,-28.59"/>
</g>
<!-- Node8 -->
<g id="node8" class="node">
<title>Node8</title>
<g id="a_node8"><a xlink:href="_log_8h.html" target="_top" xlink:title="API for logging.">
<polygon fill="white" stroke="black" points="17.5,-112.5 17.5,-131.5 60.5,-131.5 60.5,-112.5 17.5,-112.5"/>
<text text-anchor="middle" x="39" y="-119.5" font-family="Helvetica,sans-Serif" font-size="10.00">Log.h</text>
</a>
</g>
</g>
<!-- Node7&#45;&gt;Node8 -->
<g id="edge7" class="edge">
<title>Node7&#45;&gt;Node8</title>
<path fill="none" stroke="midnightblue" d="M43.28,-173.98C42.58,-165.58 41.48,-152.48 40.57,-141.66"/>
<polygon fill="midnightblue" stroke="midnightblue" points="44.04,-141.18 39.72,-131.51 37.06,-141.77 44.04,-141.18"/>
</g>
<!-- Node8&#45;&gt;Node3 -->
<g id="edge9" class="edge">
<title>Node8&#45;&gt;Node3</title>
<path fill="none" stroke="midnightblue" d="M60.55,-114.21C63.38,-113.42 66.25,-112.66 69,-112 135.07,-96.22 212.1,-83.19 263.23,-75.28"/>
<polygon fill="midnightblue" stroke="midnightblue" points="264.06,-78.7 273.41,-73.72 263,-71.78 264.06,-78.7"/>
</g>
<!-- Node9 -->
<g id="node9" class="node">
<title>Node9</title>
<g id="a_node9"><a xlink:title=" ">
<polygon fill="white" stroke="#bfbfbf" points="14,-56.5 14,-75.5 64,-75.5 64,-56.5 14,-56.5"/>
<text text-anchor="middle" x="39" y="-63.5" font-family="Helvetica,sans-Serif" font-size="10.00">stdio.h</text>
</a>
</g>
</g>
<!-- Node8&#45;&gt;Node9 -->
<g id="edge8" class="edge">
<title>Node8&#45;&gt;Node9</title>
<path fill="none" stroke="midnightblue" d="M39,-112.08C39,-105.01 39,-94.86 39,-85.99"/>
<polygon fill="midnightblue" stroke="midnightblue" points="42.5,-85.75 39,-75.75 35.5,-85.75 42.5,-85.75"/>
</g>
<!-- Node10&#45;&gt;Node3 -->
<g id="edge11" class="edge">
<title>Node10&#45;&gt;Node3</title>
<path fill="none" stroke="midnightblue" d="M151.69,-112.44C186.07,-103.16 241.08,-88.31 278.79,-78.13"/>
<polygon fill="midnightblue" stroke="midnightblue" points="279.72,-81.5 288.46,-75.52 277.89,-74.74 279.72,-81.5"/>
</g>
<!-- Node11&#45;&gt;Node3 -->
<g id="edge17" class="edge">
<title>Node11&#45;&gt;Node3</title>
<path fill="none" stroke="midnightblue" d="M427.1,-173.92C416.01,-160.3 393.29,-133.12 372,-112 361.41,-101.49 348.76,-90.51 338.59,-82.03"/>
<polygon fill="midnightblue" stroke="midnightblue" points="340.68,-79.22 330.73,-75.56 336.23,-84.62 340.68,-79.22"/>
</g>
<!-- Node12 -->
<g id="node12" class="node">
<title>Node12</title>
<g id="a_node12"><a xlink:href="_mda_8h.html" target="_top" xlink:title="API for multi&#45;dimensional arrays.">
<polygon fill="white" stroke="black" points="424.5,-112.5 424.5,-131.5 471.5,-131.5 471.5,-112.5 424.5,-112.5"/>
<text text-anchor="middle" x="448" y="-119.5" font-family="Helvetica,sans-Serif" font-size="10.00">Mda.h</text>
</a>
</g>
</g>
<!-- Node11&#45;&gt;Node12 -->
<g id="edge14" class="edge">
<title>Node11&#45;&gt;Node12</title>
<path fill="none" stroke="midnightblue" d="M436.01,-173.98C438,-165.49 441.13,-152.2 443.69,-141.32"/>
<polygon fill="midnightblue" stroke="midnightblue" points="447.11,-142.04 446,-131.51 440.3,-140.44 447.11,-142.04"/>
</g>
<!-- Node12&#45;&gt;Node3 -->
<g id="edge15" class="edge">
<title>Node12&#45;&gt;Node3</title>
<path fill="none" stroke="midnightblue" d="M427.72,-112.44C406.65,-103.56 373.48,-89.56 349.51,-79.45"/>
<polygon fill="midnightblue" stroke="midnightblue" points="350.76,-76.18 340.19,-75.52 348.04,-82.63 350.76,-76.18"/>
</g>
<!-- Node13 -->
<g id="node13" class="node">
<title>Node13</title>
<g id="a_node13"><a xlink:title=" ">
<polygon fill="white" stroke="#bfbfbf" points="420,-56.5 420,-75.5 476,-75.5 476,-56.5 420,-56.5"/>
<text text-anchor="middle" x="448" y="-63.5" font-family="Helvetica,sans-Serif" font-size="10.00">assert.h</text>
</a>
</g>
</g>
<!-- Node12&#45;&gt;Node13 -->
<g id="edge16" class="edge">
<title>Node12&#45;&gt;Node13</title>
<path fill="none" stroke="midnightblue" d="M448,-112.08C448,-105.01 448,-94.86 448,-85.99"/>
<polygon fill="midnightblue" stroke="midnightblue" points="451.5,-85.75 448,-75.75 444.5,-85.75 451.5,-85.75"/>
</g>
<!-- Node14&#45;&gt;Node3 -->
<g id="edge19" class="edge">
<title>Node14&#45;&gt;Node3</title>
<path fill="none" stroke="midnightblue" d="M275.17,-168.46C283.58,-158.84 294.16,-145.43 301,-132 308.5,-117.27 313.5,-99.11 316.47,-85.73"/>
<polygon fill="midnightblue" stroke="midnightblue" points="319.93,-86.3 318.51,-75.8 313.07,-84.89 319.93,-86.3"/>
</g>
</g>
</svg>
