<?xml version="1.0" encoding="UTF-8" standalone="no"?>
<!DOCTYPE svg PUBLIC "-//W3C//DTD SVG 1.1//EN"
 "http://www.w3.org/Graphics/SVG/1.1/DTD/svg11.dtd">
<!-- Generated by graphviz version 2.43.0 (0)
 -->
<!-- Title: /home/jenkins/agent/workspace/ild&#45;documentation_release_v3.5.0/sdk/c/ifxBase/Error.h Pages: 1 -->
<svg width="813pt" height="506pt"
 viewBox="0.00 0.00 812.50 506.00" xmlns="http://www.w3.org/2000/svg" xmlns:xlink="http://www.w3.org/1999/xlink">
<g id="graph0" class="graph" transform="scale(1 1) rotate(0) translate(4 502)">
<title>/home/jenkins/agent/workspace/ild&#45;documentation_release_v3.5.0/sdk/c/ifxBase/Error.h</title>
<polygon fill="white" stroke="transparent" points="-4,4 -4,-502 808.5,-502 808.5,4 -4,4"/>
<!-- Node1 -->
<g id="node1" class="node">
<title>Node1</title>
<g id="a_node1"><a xlink:title="API for error handling.">
<polygon fill="#bfbfbf" stroke="black" points="254.5,-445.5 254.5,-497.5 418.5,-497.5 418.5,-445.5 254.5,-445.5"/>
<text text-anchor="start" x="262.5" y="-485.5" font-family="Helvetica,sans-Serif" font-size="10.00">/home/jenkins/agent</text>
<text text-anchor="start" x="262.5" y="-474.5" font-family="Helvetica,sans-Serif" font-size="10.00">/workspace/ild&#45;documentation</text>
<text text-anchor="start" x="262.5" y="-463.5" font-family="Helvetica,sans-Serif" font-size="10.00">_release_v3.5.0/sdk/c/ifxBase</text>
<text text-anchor="middle" x="336.5" y="-452.5" font-family="Helvetica,sans-Serif" font-size="10.00">/Error.h</text>
</a>
</g>
</g>
<!-- Node2 -->
<g id="node2" class="node">
<title>Node2</title>
<g id="a_node2"><a xlink:href="_base_8h.html" target="_top" xlink:title="Header for ifxBase.">
<polygon fill="white" stroke="black" points="0,-362 0,-403 197,-403 197,-362 0,-362"/>
<text text-anchor="start" x="8" y="-391" font-family="Helvetica,sans-Serif" font-size="10.00">/home/jenkins/agent</text>
<text text-anchor="start" x="8" y="-380" font-family="Helvetica,sans-Serif" font-size="10.00">/workspace/ild&#45;documentation</text>
<text text-anchor="middle" x="98.5" y="-369" font-family="Helvetica,sans-Serif" font-size="10.00">_release_v3.5.0/sdk/c/ifxBase/Base.h</text>
</a>
</g>
</g>
<!-- Node1&#45;&gt;Node2 -->
<g id="edge1" class="edge">
<title>Node1&#45;&gt;Node2</title>
<path fill="none" stroke="midnightblue" d="M258.33,-441.92C223.57,-429.22 183.52,-414.58 152.21,-403.13"/>
<polygon fill="midnightblue" stroke="midnightblue" points="257.39,-445.31 267.98,-445.45 259.79,-438.73 257.39,-445.31"/>
</g>
<!-- Node3 -->
<g id="node3" class="node">
<title>Node3</title>
<g id="a_node3"><a xlink:href="_device_fmcw_8h.html" target="_top" xlink:title="For details refer to FMCW Device Control.">
<polygon fill="white" stroke="black" points="106,-267.5 106,-319.5 273,-319.5 273,-267.5 106,-267.5"/>
<text text-anchor="start" x="114" y="-307.5" font-family="Helvetica,sans-Serif" font-size="10.00">/home/jenkins/agent</text>
<text text-anchor="start" x="114" y="-296.5" font-family="Helvetica,sans-Serif" font-size="10.00">/workspace/ild&#45;documentation</text>
<text text-anchor="start" x="114" y="-285.5" font-family="Helvetica,sans-Serif" font-size="10.00">_release_v3.5.0/sdk/c/ifxFmcw</text>
<text text-anchor="middle" x="189.5" y="-274.5" font-family="Helvetica,sans-Serif" font-size="10.00">/DeviceFmcw.h</text>
</a>
</g>
</g>
<!-- Node1&#45;&gt;Node3 -->
<g id="edge2" class="edge">
<title>Node1&#45;&gt;Node3</title>
<path fill="none" stroke="midnightblue" d="M280.31,-439.85C267.46,-431.07 254.62,-420.67 244.5,-409 221.52,-382.52 205.87,-344.76 197.31,-319.95"/>
<polygon fill="midnightblue" stroke="midnightblue" points="278.45,-442.82 288.73,-445.39 282.29,-436.97 278.45,-442.82"/>
</g>
<!-- Node9 -->
<g id="node9" class="node">
<title>Node9</title>
<g id="a_node9"><a xlink:href="_device_fmcw_types_8h.html" target="_top" xlink:title=" ">
<polygon fill="white" stroke="black" points="253,-356.5 253,-408.5 420,-408.5 420,-356.5 253,-356.5"/>
<text text-anchor="start" x="261" y="-396.5" font-family="Helvetica,sans-Serif" font-size="10.00">/home/jenkins/agent</text>
<text text-anchor="start" x="261" y="-385.5" font-family="Helvetica,sans-Serif" font-size="10.00">/workspace/ild&#45;documentation</text>
<text text-anchor="start" x="261" y="-374.5" font-family="Helvetica,sans-Serif" font-size="10.00">_release_v3.5.0/sdk/c/ifxFmcw</text>
<text text-anchor="middle" x="336.5" y="-363.5" font-family="Helvetica,sans-Serif" font-size="10.00">/DeviceFmcwTypes.h</text>
</a>
</g>
</g>
<!-- Node1&#45;&gt;Node9 -->
<g id="edge9" class="edge">
<title>Node1&#45;&gt;Node9</title>
<path fill="none" stroke="midnightblue" d="M336.5,-435.19C336.5,-426.28 336.5,-416.9 336.5,-408.61"/>
<polygon fill="midnightblue" stroke="midnightblue" points="333,-435.34 336.5,-445.34 340,-435.34 333,-435.34"/>
</g>
<!-- Node12 -->
<g id="node12" class="node">
<title>Node12</title>
<g id="a_node12"><a xlink:href="_device_ltr11_8h.html" target="_top" xlink:title="Main header file for DeviceLtr11.">
<polygon fill="white" stroke="black" points="438.5,-356.5 438.5,-408.5 602.5,-408.5 602.5,-356.5 438.5,-356.5"/>
<text text-anchor="start" x="446.5" y="-396.5" font-family="Helvetica,sans-Serif" font-size="10.00">/home/jenkins/agent</text>
<text text-anchor="start" x="446.5" y="-385.5" font-family="Helvetica,sans-Serif" font-size="10.00">/workspace/ild&#45;documentation</text>
<text text-anchor="start" x="446.5" y="-374.5" font-family="Helvetica,sans-Serif" font-size="10.00">_release_v3.5.0/sdk/c/ifxLtr11</text>
<text text-anchor="middle" x="520.5" y="-363.5" font-family="Helvetica,sans-Serif" font-size="10.00">/DeviceLtr11.h</text>
</a>
</g>
</g>
<!-- Node1&#45;&gt;Node12 -->
<g id="edge15" class="edge">
<title>Node1&#45;&gt;Node12</title>
<path fill="none" stroke="midnightblue" d="M398.77,-441.06C421.06,-430.52 445.96,-418.75 467.4,-408.61"/>
<polygon fill="midnightblue" stroke="midnightblue" points="397.26,-437.9 389.72,-445.34 400.26,-444.23 397.26,-437.9"/>
</g>
<!-- Node13 -->
<g id="node13" class="node">
<title>Node13</title>
<g id="a_node13"><a xlink:href="_util_8h.html" target="_top" xlink:title="This file defines some utility functions like printing to, reading from files or printing to console.">
<polygon fill="white" stroke="black" points="620.5,-362 620.5,-403 804.5,-403 804.5,-362 620.5,-362"/>
<text text-anchor="start" x="628.5" y="-391" font-family="Helvetica,sans-Serif" font-size="10.00">/home/jenkins/agent</text>
<text text-anchor="start" x="628.5" y="-380" font-family="Helvetica,sans-Serif" font-size="10.00">/workspace/ild&#45;documentation</text>
<text text-anchor="middle" x="712.5" y="-369" font-family="Helvetica,sans-Serif" font-size="10.00">_release_v3.5.0/sdk/c/ifxUtil/Util.h</text>
</a>
</g>
</g>
<!-- Node1&#45;&gt;Node13 -->
<g id="edge16" class="edge">
<title>Node1&#45;&gt;Node13</title>
<path fill="none" stroke="midnightblue" d="M428.57,-450.57C482.05,-438.83 550.68,-423.48 611.5,-409 619.51,-407.09 627.86,-405.06 636.17,-403.01"/>
<polygon fill="midnightblue" stroke="midnightblue" points="427.78,-447.16 418.76,-452.72 429.28,-454 427.78,-447.16"/>
</g>
<!-- Node4 -->
<g id="node4" class="node">
<title>Node4</title>
<g id="a_node4"><a xlink:href="_device_control_8h.html" target="_top" xlink:title="Header for ifxAvian.">
<polygon fill="white" stroke="black" points="107.5,-178.5 107.5,-230.5 271.5,-230.5 271.5,-178.5 107.5,-178.5"/>
<text text-anchor="start" x="115.5" y="-218.5" font-family="Helvetica,sans-Serif" font-size="10.00">/home/jenkins/agent</text>
<text text-anchor="start" x="115.5" y="-207.5" font-family="Helvetica,sans-Serif" font-size="10.00">/workspace/ild&#45;documentation</text>
<text text-anchor="start" x="115.5" y="-196.5" font-family="Helvetica,sans-Serif" font-size="10.00">_release_v3.5.0/sdk/c/ifxAvian</text>
<text text-anchor="middle" x="189.5" y="-185.5" font-family="Helvetica,sans-Serif" font-size="10.00">/DeviceControl.h</text>
</a>
</g>
</g>
<!-- Node3&#45;&gt;Node4 -->
<g id="edge3" class="edge">
<title>Node3&#45;&gt;Node4</title>
<path fill="none" stroke="midnightblue" d="M189.5,-257.19C189.5,-248.28 189.5,-238.9 189.5,-230.61"/>
<polygon fill="midnightblue" stroke="midnightblue" points="186,-257.34 189.5,-267.34 193,-257.34 186,-257.34"/>
</g>
<!-- Node5 -->
<g id="node5" class="node">
<title>Node5</title>
<g id="a_node5"><a xlink:href="_avian_8h.html" target="_top" xlink:title="Header for ifxAvian.">
<polygon fill="white" stroke="black" points="186.5,-0.5 186.5,-52.5 350.5,-52.5 350.5,-0.5 186.5,-0.5"/>
<text text-anchor="start" x="194.5" y="-40.5" font-family="Helvetica,sans-Serif" font-size="10.00">/home/jenkins/agent</text>
<text text-anchor="start" x="194.5" y="-29.5" font-family="Helvetica,sans-Serif" font-size="10.00">/workspace/ild&#45;documentation</text>
<text text-anchor="start" x="194.5" y="-18.5" font-family="Helvetica,sans-Serif" font-size="10.00">_release_v3.5.0/sdk/c/ifxAvian</text>
<text text-anchor="middle" x="268.5" y="-7.5" font-family="Helvetica,sans-Serif" font-size="10.00">/Avian.h</text>
</a>
</g>
</g>
<!-- Node4&#45;&gt;Node5 -->
<g id="edge4" class="edge">
<title>Node4&#45;&gt;Node5</title>
<path fill="none" stroke="midnightblue" d="M97.74,-189.24C70.62,-180.27 43.85,-165.7 27.5,-142 14.12,-122.61 13.05,-107.6 27.5,-89 47.1,-63.77 124.59,-47.15 186.48,-37.63"/>
<polygon fill="midnightblue" stroke="midnightblue" points="96.74,-192.59 107.32,-192.18 98.79,-185.9 96.74,-192.59"/>
</g>
<!-- Node6 -->
<g id="node6" class="node">
<title>Node6</title>
<g id="a_node6"><a xlink:href="_metrics_8h.html" target="_top" xlink:title="API for Metrics.">
<polygon fill="white" stroke="black" points="446.5,-89.5 446.5,-141.5 610.5,-141.5 610.5,-89.5 446.5,-89.5"/>
<text text-anchor="start" x="454.5" y="-129.5" font-family="Helvetica,sans-Serif" font-size="10.00">/home/jenkins/agent</text>
<text text-anchor="start" x="454.5" y="-118.5" font-family="Helvetica,sans-Serif" font-size="10.00">/workspace/ild&#45;documentation</text>
<text text-anchor="start" x="454.5" y="-107.5" font-family="Helvetica,sans-Serif" font-size="10.00">_release_v3.5.0/sdk/c/ifxAvian</text>
<text text-anchor="middle" x="528.5" y="-96.5" font-family="Helvetica,sans-Serif" font-size="10.00">/Metrics.h</text>
</a>
</g>
</g>
<!-- Node4&#45;&gt;Node6 -->
<g id="edge5" class="edge">
<title>Node4&#45;&gt;Node6</title>
<path fill="none" stroke="midnightblue" d="M281.57,-181.37C328.36,-169.94 386.05,-155.59 437.5,-142 440.36,-141.25 443.26,-140.47 446.19,-139.68"/>
<polygon fill="midnightblue" stroke="midnightblue" points="280.65,-177.99 271.76,-183.76 282.31,-184.79 280.65,-177.99"/>
</g>
<!-- Node7 -->
<g id="node7" class="node">
<title>Node7</title>
<g id="a_node7"><a xlink:href="_device_cw_8h.html" target="_top" xlink:title="Header for Continuous Wave Control.">
<polygon fill="white" stroke="black" points="264.5,-89.5 264.5,-141.5 428.5,-141.5 428.5,-89.5 264.5,-89.5"/>
<text text-anchor="start" x="272.5" y="-129.5" font-family="Helvetica,sans-Serif" font-size="10.00">/home/jenkins/agent</text>
<text text-anchor="start" x="272.5" y="-118.5" font-family="Helvetica,sans-Serif" font-size="10.00">/workspace/ild&#45;documentation</text>
<text text-anchor="start" x="272.5" y="-107.5" font-family="Helvetica,sans-Serif" font-size="10.00">_release_v3.5.0/sdk/c/ifxCw</text>
<text text-anchor="middle" x="346.5" y="-96.5" font-family="Helvetica,sans-Serif" font-size="10.00">/DeviceCw.h</text>
</a>
</g>
</g>
<!-- Node4&#45;&gt;Node7 -->
<g id="edge7" class="edge">
<title>Node4&#45;&gt;Node7</title>
<path fill="none" stroke="midnightblue" d="M243.9,-173.35C262.59,-163 283.3,-151.52 301.19,-141.61"/>
<polygon fill="midnightblue" stroke="midnightblue" points="241.96,-170.43 234.91,-178.34 245.35,-176.55 241.96,-170.43"/>
</g>
<!-- Node8 -->
<g id="node8" class="node">
<title>Node8</title>
<g id="a_node8"><a xlink:href="_presence_sensing_8h.html" target="_top" xlink:title=" ">
<polygon fill="white" stroke="black" points="36.5,-89.5 36.5,-141.5 246.5,-141.5 246.5,-89.5 36.5,-89.5"/>
<text text-anchor="start" x="44.5" y="-129.5" font-family="Helvetica,sans-Serif" font-size="10.00">/home/jenkins/agent</text>
<text text-anchor="start" x="44.5" y="-118.5" font-family="Helvetica,sans-Serif" font-size="10.00">/workspace/ild&#45;documentation</text>
<text text-anchor="start" x="44.5" y="-107.5" font-family="Helvetica,sans-Serif" font-size="10.00">_release_v3.5.0/sdk/c/ifxRadarPresence</text>
<text text-anchor="middle" x="141.5" y="-96.5" font-family="Helvetica,sans-Serif" font-size="10.00">Sensing/PresenceSensing.h</text>
</a>
</g>
</g>
<!-- Node4&#45;&gt;Node8 -->
<g id="edge8" class="edge">
<title>Node4&#45;&gt;Node8</title>
<path fill="none" stroke="midnightblue" d="M170.66,-169.35C165.56,-160.1 160.13,-150.26 155.35,-141.61"/>
<polygon fill="midnightblue" stroke="midnightblue" points="167.72,-171.27 175.62,-178.34 173.85,-167.89 167.72,-171.27"/>
</g>
<!-- Node6&#45;&gt;Node5 -->
<g id="edge6" class="edge">
<title>Node6&#45;&gt;Node5</title>
<path fill="none" stroke="midnightblue" d="M444.16,-86.28C411.66,-75.4 374.81,-63.07 343.28,-52.52"/>
<polygon fill="midnightblue" stroke="midnightblue" points="443.05,-89.6 453.65,-89.45 445.27,-82.96 443.05,-89.6"/>
</g>
<!-- Node9&#45;&gt;Node3 -->
<g id="edge12" class="edge">
<title>Node9&#45;&gt;Node3</title>
<path fill="none" stroke="midnightblue" d="M285.08,-351.07C267.71,-340.79 248.52,-329.43 231.92,-319.61"/>
<polygon fill="midnightblue" stroke="midnightblue" points="283.59,-354.25 293.98,-356.34 287.16,-348.23 283.59,-354.25"/>
</g>
<!-- Node10 -->
<g id="node10" class="node">
<title>Node10</title>
<g id="a_node10"><a xlink:href="_device_cw_types_8h.html" target="_top" xlink:title=" ">
<polygon fill="white" stroke="black" points="291.5,-267.5 291.5,-319.5 455.5,-319.5 455.5,-267.5 291.5,-267.5"/>
<text text-anchor="start" x="299.5" y="-307.5" font-family="Helvetica,sans-Serif" font-size="10.00">/home/jenkins/agent</text>
<text text-anchor="start" x="299.5" y="-296.5" font-family="Helvetica,sans-Serif" font-size="10.00">/workspace/ild&#45;documentation</text>
<text text-anchor="start" x="299.5" y="-285.5" font-family="Helvetica,sans-Serif" font-size="10.00">_release_v3.5.0/sdk/c/ifxCw</text>
<text text-anchor="middle" x="373.5" y="-274.5" font-family="Helvetica,sans-Serif" font-size="10.00">/DeviceCwTypes.h</text>
</a>
</g>
</g>
<!-- Node9&#45;&gt;Node10 -->
<g id="edge10" class="edge">
<title>Node9&#45;&gt;Node10</title>
<path fill="none" stroke="midnightblue" d="M351.15,-347.06C355.04,-337.9 359.18,-328.17 362.82,-319.61"/>
<polygon fill="midnightblue" stroke="midnightblue" points="347.89,-345.76 347.2,-356.34 354.34,-348.5 347.89,-345.76"/>
</g>
<!-- Node11 -->
<g id="node11" class="node">
<title>Node11</title>
<g id="a_node11"><a xlink:href="_metrics_fmcw_8h.html" target="_top" xlink:title="API for MetricsFmcw.">
<polygon fill="white" stroke="black" points="427,-178.5 427,-230.5 594,-230.5 594,-178.5 427,-178.5"/>
<text text-anchor="start" x="435" y="-218.5" font-family="Helvetica,sans-Serif" font-size="10.00">/home/jenkins/agent</text>
<text text-anchor="start" x="435" y="-207.5" font-family="Helvetica,sans-Serif" font-size="10.00">/workspace/ild&#45;documentation</text>
<text text-anchor="start" x="435" y="-196.5" font-family="Helvetica,sans-Serif" font-size="10.00">_release_v3.5.0/sdk/c/ifxFmcw</text>
<text text-anchor="middle" x="510.5" y="-185.5" font-family="Helvetica,sans-Serif" font-size="10.00">/MetricsFmcw.h</text>
</a>
</g>
</g>
<!-- Node9&#45;&gt;Node11 -->
<g id="edge13" class="edge">
<title>Node9&#45;&gt;Node11</title>
<path fill="none" stroke="midnightblue" d="M421.37,-351.75C437.16,-343.34 452.46,-332.86 464.5,-320 488.07,-294.82 500.19,-256.03 505.94,-230.7"/>
<polygon fill="midnightblue" stroke="midnightblue" points="419.38,-348.84 412.03,-356.48 422.54,-355.09 419.38,-348.84"/>
</g>
<!-- Node10&#45;&gt;Node7 -->
<g id="edge11" class="edge">
<title>Node10&#45;&gt;Node7</title>
<path fill="none" stroke="midnightblue" d="M368.09,-257.25C362.84,-223.04 355.01,-171.97 350.36,-141.67"/>
<polygon fill="midnightblue" stroke="midnightblue" points="364.66,-257.93 369.63,-267.28 371.57,-256.87 364.66,-257.93"/>
</g>
<!-- Node11&#45;&gt;Node6 -->
<g id="edge14" class="edge">
<title>Node11&#45;&gt;Node6</title>
<path fill="none" stroke="midnightblue" d="M517.75,-168.48C519.61,-159.49 521.57,-149.99 523.31,-141.61"/>
<polygon fill="midnightblue" stroke="midnightblue" points="514.31,-167.83 515.71,-178.34 521.16,-169.25 514.31,-167.83"/>
</g>
</g>
</svg>
