<?xml version="1.0" encoding="UTF-8" standalone="no"?>
<!DOCTYPE svg PUBLIC "-//W3C//DTD SVG 1.1//EN"
 "http://www.w3.org/Graphics/SVG/1.1/DTD/svg11.dtd">
<!-- Generated by graphviz version 2.43.0 (0)
 -->
<!-- Title: /home/jenkins/agent/workspace/ild&#45;documentation_release_v3.5.0/sdk/c/ifxAlgo/FFT.h Pages: 1 -->
<svg width="920pt" height="406pt"
 viewBox="0.00 0.00 919.50 406.00" xmlns="http://www.w3.org/2000/svg" xmlns:xlink="http://www.w3.org/1999/xlink">
<g id="graph0" class="graph" transform="scale(1 1) rotate(0) translate(4 402)">
<title>/home/jenkins/agent/workspace/ild&#45;documentation_release_v3.5.0/sdk/c/ifxAlgo/FFT.h</title>
<polygon fill="white" stroke="transparent" points="-4,4 -4,-402 915.5,-402 915.5,4 -4,4"/>
<!-- Node1 -->
<g id="node1" class="node">
<title>Node1</title>
<g id="a_node1"><a xlink:title="API for Fast Fourier Transform (FFT)">
<polygon fill="#bfbfbf" stroke="black" points="292.5,-356.5 292.5,-397.5 480.5,-397.5 480.5,-356.5 292.5,-356.5"/>
<text text-anchor="start" x="300.5" y="-385.5" font-family="Helvetica,sans-Serif" font-size="10.00">/home/jenkins/agent</text>
<text text-anchor="start" x="300.5" y="-374.5" font-family="Helvetica,sans-Serif" font-size="10.00">/workspace/ild&#45;documentation</text>
<text text-anchor="middle" x="386.5" y="-363.5" font-family="Helvetica,sans-Serif" font-size="10.00">_release_v3.5.0/sdk/c/ifxAlgo/FFT.h</text>
</a>
</g>
</g>
<!-- Node2 -->
<g id="node2" class="node">
<title>Node2</title>
<g id="a_node2"><a xlink:href="_algo_8h.html" target="_top" xlink:title="Header for ifxAlgo.">
<polygon fill="white" stroke="black" points="0,-184 0,-225 193,-225 193,-184 0,-184"/>
<text text-anchor="start" x="8" y="-213" font-family="Helvetica,sans-Serif" font-size="10.00">/home/jenkins/agent</text>
<text text-anchor="start" x="8" y="-202" font-family="Helvetica,sans-Serif" font-size="10.00">/workspace/ild&#45;documentation</text>
<text text-anchor="middle" x="96.5" y="-191" font-family="Helvetica,sans-Serif" font-size="10.00">_release_v3.5.0/sdk/c/ifxAlgo/Algo.h</text>
</a>
</g>
</g>
<!-- Node1&#45;&gt;Node2 -->
<g id="edge1" class="edge">
<title>Node1&#45;&gt;Node2</title>
<path fill="none" stroke="midnightblue" d="M344.32,-351.2C286.23,-317.05 182.82,-256.25 129.82,-225.09"/>
<polygon fill="midnightblue" stroke="midnightblue" points="342.84,-354.39 353.23,-356.44 346.39,-348.36 342.84,-354.39"/>
</g>
<!-- Node3 -->
<g id="node3" class="node">
<title>Node3</title>
<g id="a_node3"><a xlink:href="_preprocessed_f_f_t_8h.html" target="_top" xlink:title="API for Pre&#45;processed FFT.">
<polygon fill="white" stroke="black" points="304.5,-267.5 304.5,-319.5 468.5,-319.5 468.5,-267.5 304.5,-267.5"/>
<text text-anchor="start" x="312.5" y="-307.5" font-family="Helvetica,sans-Serif" font-size="10.00">/home/jenkins/agent</text>
<text text-anchor="start" x="312.5" y="-296.5" font-family="Helvetica,sans-Serif" font-size="10.00">/workspace/ild&#45;documentation</text>
<text text-anchor="start" x="312.5" y="-285.5" font-family="Helvetica,sans-Serif" font-size="10.00">_release_v3.5.0/sdk/c/ifxAlgo</text>
<text text-anchor="middle" x="386.5" y="-274.5" font-family="Helvetica,sans-Serif" font-size="10.00">/PreprocessedFFT.h</text>
</a>
</g>
</g>
<!-- Node1&#45;&gt;Node3 -->
<g id="edge2" class="edge">
<title>Node1&#45;&gt;Node3</title>
<path fill="none" stroke="midnightblue" d="M386.5,-346.12C386.5,-337.41 386.5,-327.99 386.5,-319.61"/>
<polygon fill="midnightblue" stroke="midnightblue" points="383,-346.27 386.5,-356.27 390,-346.27 383,-346.27"/>
</g>
<!-- Node9 -->
<g id="node9" class="node">
<title>Node9</title>
<g id="a_node9"><a xlink:href="_spectrum_axis_8h.html" target="_top" xlink:title="API for Spectrum Axis used by Range spectrum, Range Doppler and Range Angle Map modules.">
<polygon fill="white" stroke="black" points="745.5,-89.5 745.5,-141.5 911.5,-141.5 911.5,-89.5 745.5,-89.5"/>
<text text-anchor="start" x="753.5" y="-129.5" font-family="Helvetica,sans-Serif" font-size="10.00">/home/jenkins/agent</text>
<text text-anchor="start" x="753.5" y="-118.5" font-family="Helvetica,sans-Serif" font-size="10.00">/workspace/ild&#45;documentation</text>
<text text-anchor="start" x="753.5" y="-107.5" font-family="Helvetica,sans-Serif" font-size="10.00">_release_v3.5.0/sdk/c/ifxRadar</text>
<text text-anchor="middle" x="828.5" y="-96.5" font-family="Helvetica,sans-Serif" font-size="10.00">/SpectrumAxis.h</text>
</a>
</g>
</g>
<!-- Node1&#45;&gt;Node9 -->
<g id="edge11" class="edge">
<title>Node1&#45;&gt;Node9</title>
<path fill="none" stroke="midnightblue" d="M428.49,-351.35C512.58,-301.98 700.84,-191.45 785.64,-141.66"/>
<polygon fill="midnightblue" stroke="midnightblue" points="426.57,-348.41 419.72,-356.5 430.12,-354.45 426.57,-348.41"/>
</g>
<!-- Node3&#45;&gt;Node2 -->
<g id="edge3" class="edge">
<title>Node3&#45;&gt;Node2</title>
<path fill="none" stroke="midnightblue" d="M294.5,-264.9C251.25,-251.93 200.72,-236.77 161.53,-225.01"/>
<polygon fill="midnightblue" stroke="midnightblue" points="293.59,-268.28 304.17,-267.8 295.6,-261.58 293.59,-268.28"/>
</g>
<!-- Node4 -->
<g id="node4" class="node">
<title>Node4</title>
<g id="a_node4"><a xlink:href="_doppler_spectrogram_8h.html" target="_top" xlink:title=" ">
<polygon fill="white" stroke="black" points="211.5,-178.5 211.5,-230.5 377.5,-230.5 377.5,-178.5 211.5,-178.5"/>
<text text-anchor="start" x="219.5" y="-218.5" font-family="Helvetica,sans-Serif" font-size="10.00">/home/jenkins/agent</text>
<text text-anchor="start" x="219.5" y="-207.5" font-family="Helvetica,sans-Serif" font-size="10.00">/workspace/ild&#45;documentation</text>
<text text-anchor="start" x="219.5" y="-196.5" font-family="Helvetica,sans-Serif" font-size="10.00">_release_v3.5.0/sdk/c/ifxRadar</text>
<text text-anchor="middle" x="294.5" y="-185.5" font-family="Helvetica,sans-Serif" font-size="10.00">/DopplerSpectrogram.h</text>
</a>
</g>
</g>
<!-- Node3&#45;&gt;Node4 -->
<g id="edge4" class="edge">
<title>Node3&#45;&gt;Node4</title>
<path fill="none" stroke="midnightblue" d="M352.52,-260.36C342.13,-250.54 330.87,-239.89 321.05,-230.61"/>
<polygon fill="midnightblue" stroke="midnightblue" points="350.22,-263.01 359.89,-267.34 355.03,-257.92 350.22,-263.01"/>
</g>
<!-- Node5 -->
<g id="node5" class="node">
<title>Node5</title>
<g id="a_node5"><a xlink:href="_range_doppler_map_8h.html" target="_top" xlink:title="API for Doppler Spectrogram.">
<polygon fill="white" stroke="black" points="395.5,-178.5 395.5,-230.5 561.5,-230.5 561.5,-178.5 395.5,-178.5"/>
<text text-anchor="start" x="403.5" y="-218.5" font-family="Helvetica,sans-Serif" font-size="10.00">/home/jenkins/agent</text>
<text text-anchor="start" x="403.5" y="-207.5" font-family="Helvetica,sans-Serif" font-size="10.00">/workspace/ild&#45;documentation</text>
<text text-anchor="start" x="403.5" y="-196.5" font-family="Helvetica,sans-Serif" font-size="10.00">_release_v3.5.0/sdk/c/ifxRadar</text>
<text text-anchor="middle" x="478.5" y="-185.5" font-family="Helvetica,sans-Serif" font-size="10.00">/RangeDopplerMap.h</text>
</a>
</g>
</g>
<!-- Node3&#45;&gt;Node5 -->
<g id="edge5" class="edge">
<title>Node3&#45;&gt;Node5</title>
<path fill="none" stroke="midnightblue" d="M420.48,-260.36C430.87,-250.54 442.13,-239.89 451.95,-230.61"/>
<polygon fill="midnightblue" stroke="midnightblue" points="417.97,-257.92 413.11,-267.34 422.78,-263.01 417.97,-257.92"/>
</g>
<!-- Node8 -->
<g id="node8" class="node">
<title>Node8</title>
<g id="a_node8"><a xlink:href="_range_spectrum_8h.html" target="_top" xlink:title="API for Range Spectrum.">
<polygon fill="white" stroke="black" points="561.5,-89.5 561.5,-141.5 727.5,-141.5 727.5,-89.5 561.5,-89.5"/>
<text text-anchor="start" x="569.5" y="-129.5" font-family="Helvetica,sans-Serif" font-size="10.00">/home/jenkins/agent</text>
<text text-anchor="start" x="569.5" y="-118.5" font-family="Helvetica,sans-Serif" font-size="10.00">/workspace/ild&#45;documentation</text>
<text text-anchor="start" x="569.5" y="-107.5" font-family="Helvetica,sans-Serif" font-size="10.00">_release_v3.5.0/sdk/c/ifxRadar</text>
<text text-anchor="middle" x="644.5" y="-96.5" font-family="Helvetica,sans-Serif" font-size="10.00">/RangeSpectrum.h</text>
</a>
</g>
</g>
<!-- Node3&#45;&gt;Node8 -->
<g id="edge9" class="edge">
<title>Node3&#45;&gt;Node8</title>
<path fill="none" stroke="midnightblue" d="M478.43,-274.86C509.89,-265.58 543.85,-251.67 570.5,-231 600.8,-207.5 622.38,-167.89 634.15,-141.97"/>
<polygon fill="midnightblue" stroke="midnightblue" points="477.42,-271.51 468.75,-277.59 479.33,-278.24 477.42,-271.51"/>
</g>
<!-- Node6 -->
<g id="node6" class="node">
<title>Node6</title>
<g id="a_node6"><a xlink:href="_radar_8h.html" target="_top" xlink:title="Header for ifxRadar.">
<polygon fill="white" stroke="black" points="469.5,-0.5 469.5,-52.5 635.5,-52.5 635.5,-0.5 469.5,-0.5"/>
<text text-anchor="start" x="477.5" y="-40.5" font-family="Helvetica,sans-Serif" font-size="10.00">/home/jenkins/agent</text>
<text text-anchor="start" x="477.5" y="-29.5" font-family="Helvetica,sans-Serif" font-size="10.00">/workspace/ild&#45;documentation</text>
<text text-anchor="start" x="477.5" y="-18.5" font-family="Helvetica,sans-Serif" font-size="10.00">_release_v3.5.0/sdk/c/ifxRadar</text>
<text text-anchor="middle" x="552.5" y="-7.5" font-family="Helvetica,sans-Serif" font-size="10.00">/Radar.h</text>
</a>
</g>
</g>
<!-- Node5&#45;&gt;Node6 -->
<g id="edge6" class="edge">
<title>Node5&#45;&gt;Node6</title>
<path fill="none" stroke="midnightblue" d="M399.31,-173.12C387,-164.89 375.92,-154.65 368.5,-142 356.58,-121.68 354.73,-108.11 368.5,-89 391.53,-57.02 431.94,-41.43 469.04,-33.92"/>
<polygon fill="midnightblue" stroke="midnightblue" points="397.65,-176.21 407.99,-178.5 401.33,-170.26 397.65,-176.21"/>
</g>
<!-- Node7 -->
<g id="node7" class="node">
<title>Node7</title>
<g id="a_node7"><a xlink:href="_range_angle_image_8h.html" target="_top" xlink:title="API for Range Angle Image algorithm.">
<polygon fill="white" stroke="black" points="377.5,-89.5 377.5,-141.5 543.5,-141.5 543.5,-89.5 377.5,-89.5"/>
<text text-anchor="start" x="385.5" y="-129.5" font-family="Helvetica,sans-Serif" font-size="10.00">/home/jenkins/agent</text>
<text text-anchor="start" x="385.5" y="-118.5" font-family="Helvetica,sans-Serif" font-size="10.00">/workspace/ild&#45;documentation</text>
<text text-anchor="start" x="385.5" y="-107.5" font-family="Helvetica,sans-Serif" font-size="10.00">_release_v3.5.0/sdk/c/ifxRadar</text>
<text text-anchor="middle" x="460.5" y="-96.5" font-family="Helvetica,sans-Serif" font-size="10.00">/RangeAngleImage.h</text>
</a>
</g>
</g>
<!-- Node5&#45;&gt;Node7 -->
<g id="edge7" class="edge">
<title>Node5&#45;&gt;Node7</title>
<path fill="none" stroke="midnightblue" d="M471.25,-168.48C469.39,-159.49 467.43,-149.99 465.69,-141.61"/>
<polygon fill="midnightblue" stroke="midnightblue" points="467.84,-169.25 473.29,-178.34 474.69,-167.83 467.84,-169.25"/>
</g>
<!-- Node7&#45;&gt;Node6 -->
<g id="edge8" class="edge">
<title>Node7&#45;&gt;Node6</title>
<path fill="none" stroke="midnightblue" d="M494.48,-82.36C504.87,-72.54 516.13,-61.89 525.95,-52.61"/>
<polygon fill="midnightblue" stroke="midnightblue" points="491.97,-79.92 487.11,-89.34 496.78,-85.01 491.97,-79.92"/>
</g>
<!-- Node8&#45;&gt;Node6 -->
<g id="edge10" class="edge">
<title>Node8&#45;&gt;Node6</title>
<path fill="none" stroke="midnightblue" d="M610.52,-82.36C600.13,-72.54 588.87,-61.89 579.05,-52.61"/>
<polygon fill="midnightblue" stroke="midnightblue" points="608.22,-85.01 617.89,-89.34 613.03,-79.92 608.22,-85.01"/>
</g>
<!-- Node9&#45;&gt;Node6 -->
<g id="edge12" class="edge">
<title>Node9&#45;&gt;Node6</title>
<path fill="none" stroke="midnightblue" d="M739.41,-86.42C704.81,-75.51 665.49,-63.12 631.88,-52.52"/>
<polygon fill="midnightblue" stroke="midnightblue" points="738.45,-89.78 749.04,-89.45 740.55,-83.11 738.45,-89.78"/>
</g>
</g>
</svg>
