<?xml version="1.0" encoding="UTF-8" standalone="no"?>
<!DOCTYPE svg PUBLIC "-//W3C//DTD SVG 1.1//EN"
 "http://www.w3.org/Graphics/SVG/1.1/DTD/svg11.dtd">
<!-- Generated by graphviz version 2.43.0 (0)
 -->
<!-- Title: /home/jenkins/agent/workspace/ild&#45;documentation_release_v3.5.0/sdk/c/ifxBase/LA.h Pages: 1 -->
<svg width="217pt" height="330pt"
 viewBox="0.00 0.00 216.50 330.00" xmlns="http://www.w3.org/2000/svg" xmlns:xlink="http://www.w3.org/1999/xlink">
<g id="graph0" class="graph" transform="scale(1 1) rotate(0) translate(4 326)">
<title>/home/jenkins/agent/workspace/ild&#45;documentation_release_v3.5.0/sdk/c/ifxBase/LA.h</title>
<polygon fill="white" stroke="transparent" points="-4,4 -4,-326 212.5,-326 212.5,4 -4,4"/>
<!-- Node1 -->
<g id="node1" class="node">
<title>Node1</title>
<g id="a_node1"><a xlink:title="API for Linear Algebra (LA)">
<polygon fill="#bfbfbf" stroke="black" points="16,-280.5 16,-321.5 202,-321.5 202,-280.5 16,-280.5"/>
<text text-anchor="start" x="24" y="-309.5" font-family="Helvetica,sans-Serif" font-size="10.00">/home/jenkins/agent</text>
<text text-anchor="start" x="24" y="-298.5" font-family="Helvetica,sans-Serif" font-size="10.00">/workspace/ild&#45;documentation</text>
<text text-anchor="middle" x="109" y="-287.5" font-family="Helvetica,sans-Serif" font-size="10.00">_release_v3.5.0/sdk/c/ifxBase/LA.h</text>
</a>
</g>
</g>
<!-- Node2 -->
<g id="node2" class="node">
<title>Node2</title>
<g id="a_node2"><a xlink:href="_matrix_8h.html" target="_top" xlink:title="API for operations on Matrix data structures.">
<polygon fill="white" stroke="black" points="52.5,-224.5 52.5,-243.5 109.5,-243.5 109.5,-224.5 52.5,-224.5"/>
<text text-anchor="middle" x="81" y="-231.5" font-family="Helvetica,sans-Serif" font-size="10.00">Matrix.h</text>
</a>
</g>
</g>
<!-- Node1&#45;&gt;Node2 -->
<g id="edge1" class="edge">
<title>Node1&#45;&gt;Node2</title>
<path fill="none" stroke="midnightblue" d="M100.6,-280.5C96.84,-271.78 92.44,-261.56 88.76,-253.02"/>
<polygon fill="midnightblue" stroke="midnightblue" points="91.9,-251.45 84.73,-243.65 85.47,-254.22 91.9,-251.45"/>
</g>
<!-- Node4 -->
<g id="node4" class="node">
<title>Node4</title>
<g id="a_node4"><a xlink:href="_types_8h.html" target="_top" xlink:title="Definitions of data types used within the SDK.">
<polygon fill="white" stroke="black" points="82.5,-56.5 82.5,-75.5 135.5,-75.5 135.5,-56.5 82.5,-56.5"/>
<text text-anchor="middle" x="109" y="-63.5" font-family="Helvetica,sans-Serif" font-size="10.00">Types.h</text>
</a>
</g>
</g>
<!-- Node1&#45;&gt;Node4 -->
<g id="edge12" class="edge">
<title>Node1&#45;&gt;Node4</title>
<path fill="none" stroke="midnightblue" d="M113.29,-280.41C115.43,-269.71 117.81,-256.19 119,-244 124.7,-185.6 128.62,-170.18 121,-112 119.84,-103.18 117.47,-93.63 115.13,-85.61"/>
<polygon fill="midnightblue" stroke="midnightblue" points="118.4,-84.34 112.09,-75.83 111.71,-86.42 118.4,-84.34"/>
</g>
<!-- Node3 -->
<g id="node3" class="node">
<title>Node3</title>
<g id="a_node3"><a xlink:href="_mda_8h.html" target="_top" xlink:title="API for multi&#45;dimensional arrays.">
<polygon fill="white" stroke="black" points="4.5,-112.5 4.5,-131.5 51.5,-131.5 51.5,-112.5 4.5,-112.5"/>
<text text-anchor="middle" x="28" y="-119.5" font-family="Helvetica,sans-Serif" font-size="10.00">Mda.h</text>
</a>
</g>
</g>
<!-- Node2&#45;&gt;Node3 -->
<g id="edge2" class="edge">
<title>Node2&#45;&gt;Node3</title>
<path fill="none" stroke="midnightblue" d="M63.5,-224.46C50.21,-216.92 32.92,-204.53 25,-188 18.06,-173.52 19.75,-155.07 22.63,-141.53"/>
<polygon fill="midnightblue" stroke="midnightblue" points="26.11,-142.06 25.17,-131.51 19.32,-140.34 26.11,-142.06"/>
</g>
<!-- Node2&#45;&gt;Node4 -->
<g id="edge8" class="edge">
<title>Node2&#45;&gt;Node4</title>
<path fill="none" stroke="midnightblue" d="M85.39,-224.29C89.65,-215.41 95.91,-201.1 99,-188 107.35,-152.56 108.99,-109.86 109.17,-85.83"/>
<polygon fill="midnightblue" stroke="midnightblue" points="112.67,-85.64 109.16,-75.65 105.67,-85.65 112.67,-85.64"/>
</g>
<!-- Node9 -->
<g id="node9" class="node">
<title>Node9</title>
<g id="a_node9"><a xlink:href="_vector_8h.html" target="_top" xlink:title="API for operations on Vector data structures.">
<polygon fill="white" stroke="black" points="34,-168.5 34,-187.5 90,-187.5 90,-168.5 34,-168.5"/>
<text text-anchor="middle" x="62" y="-175.5" font-family="Helvetica,sans-Serif" font-size="10.00">Vector.h</text>
</a>
</g>
</g>
<!-- Node2&#45;&gt;Node9 -->
<g id="edge9" class="edge">
<title>Node2&#45;&gt;Node9</title>
<path fill="none" stroke="midnightblue" d="M77.86,-224.08C75.32,-216.85 71.64,-206.41 68.47,-197.4"/>
<polygon fill="midnightblue" stroke="midnightblue" points="71.7,-196.02 65.08,-187.75 65.1,-198.35 71.7,-196.02"/>
</g>
<!-- Node3&#45;&gt;Node4 -->
<g id="edge3" class="edge">
<title>Node3&#45;&gt;Node4</title>
<path fill="none" stroke="midnightblue" d="M41.01,-112.32C53.53,-103.98 72.68,-91.21 87.47,-81.35"/>
<polygon fill="midnightblue" stroke="midnightblue" points="89.64,-84.11 96.02,-75.65 85.76,-78.29 89.64,-84.11"/>
</g>
<!-- Node8 -->
<g id="node8" class="node">
<title>Node8</title>
<g id="a_node8"><a xlink:title=" ">
<polygon fill="white" stroke="#bfbfbf" points="0,-56.5 0,-75.5 56,-75.5 56,-56.5 0,-56.5"/>
<text text-anchor="middle" x="28" y="-63.5" font-family="Helvetica,sans-Serif" font-size="10.00">assert.h</text>
</a>
</g>
</g>
<!-- Node3&#45;&gt;Node8 -->
<g id="edge7" class="edge">
<title>Node3&#45;&gt;Node8</title>
<path fill="none" stroke="midnightblue" d="M28,-112.08C28,-105.01 28,-94.86 28,-85.99"/>
<polygon fill="midnightblue" stroke="midnightblue" points="31.5,-85.75 28,-75.75 24.5,-85.75 31.5,-85.75"/>
</g>
<!-- Node5 -->
<g id="node5" class="node">
<title>Node5</title>
<g id="a_node5"><a xlink:title=" ">
<polygon fill="white" stroke="#bfbfbf" points="1,-0.5 1,-19.5 63,-19.5 63,-0.5 1,-0.5"/>
<text text-anchor="middle" x="32" y="-7.5" font-family="Helvetica,sans-Serif" font-size="10.00">stdbool.h</text>
</a>
</g>
</g>
<!-- Node4&#45;&gt;Node5 -->
<g id="edge4" class="edge">
<title>Node4&#45;&gt;Node5</title>
<path fill="none" stroke="midnightblue" d="M96.63,-56.32C84.84,-48.06 66.87,-35.45 52.86,-25.63"/>
<polygon fill="midnightblue" stroke="midnightblue" points="54.54,-22.53 44.34,-19.65 50.52,-28.26 54.54,-22.53"/>
</g>
<!-- Node6 -->
<g id="node6" class="node">
<title>Node6</title>
<g id="a_node6"><a xlink:title=" ">
<polygon fill="white" stroke="#bfbfbf" points="81,-0.5 81,-19.5 137,-19.5 137,-0.5 81,-0.5"/>
<text text-anchor="middle" x="109" y="-7.5" font-family="Helvetica,sans-Serif" font-size="10.00">stddef.h</text>
</a>
</g>
</g>
<!-- Node4&#45;&gt;Node6 -->
<g id="edge5" class="edge">
<title>Node4&#45;&gt;Node6</title>
<path fill="none" stroke="midnightblue" d="M109,-56.08C109,-49.01 109,-38.86 109,-29.99"/>
<polygon fill="midnightblue" stroke="midnightblue" points="112.5,-29.75 109,-19.75 105.5,-29.75 112.5,-29.75"/>
</g>
<!-- Node7 -->
<g id="node7" class="node">
<title>Node7</title>
<g id="a_node7"><a xlink:title=" ">
<polygon fill="white" stroke="#bfbfbf" points="155.5,-0.5 155.5,-19.5 208.5,-19.5 208.5,-0.5 155.5,-0.5"/>
<text text-anchor="middle" x="182" y="-7.5" font-family="Helvetica,sans-Serif" font-size="10.00">stdint.h</text>
</a>
</g>
</g>
<!-- Node4&#45;&gt;Node7 -->
<g id="edge6" class="edge">
<title>Node4&#45;&gt;Node7</title>
<path fill="none" stroke="midnightblue" d="M120.73,-56.32C131.84,-48.11 148.74,-35.6 161.98,-25.81"/>
<polygon fill="midnightblue" stroke="midnightblue" points="164.1,-28.59 170.06,-19.83 159.94,-22.97 164.1,-28.59"/>
</g>
<!-- Node9&#45;&gt;Node3 -->
<g id="edge10" class="edge">
<title>Node9&#45;&gt;Node3</title>
<path fill="none" stroke="midnightblue" d="M56.39,-168.08C51.63,-160.53 44.68,-149.49 38.85,-140.23"/>
<polygon fill="midnightblue" stroke="midnightblue" points="41.8,-138.35 33.51,-131.75 35.88,-142.08 41.8,-138.35"/>
</g>
<!-- Node9&#45;&gt;Node4 -->
<g id="edge11" class="edge">
<title>Node9&#45;&gt;Node4</title>
<path fill="none" stroke="midnightblue" d="M65.69,-168.37C73.34,-150.46 91.09,-108.92 101.33,-84.95"/>
<polygon fill="midnightblue" stroke="midnightblue" points="104.62,-86.16 105.33,-75.59 98.18,-83.41 104.62,-86.16"/>
</g>
</g>
</svg>
