<?xml version="1.0" encoding="UTF-8" standalone="no"?>
<!DOCTYPE svg PUBLIC "-//W3C//DTD SVG 1.1//EN"
 "http://www.w3.org/Graphics/SVG/1.1/DTD/svg11.dtd">
<!-- Generated by graphviz version 2.43.0 (0)
 -->
<!-- Title: /home/jenkins/agent/workspace/ild&#45;documentation_release_v3.5.0/sdk/c/ifxBase/List.h Pages: 1 -->
<svg width="708pt" height="406pt"
 viewBox="0.00 0.00 707.50 406.00" xmlns="http://www.w3.org/2000/svg" xmlns:xlink="http://www.w3.org/1999/xlink">
<g id="graph0" class="graph" transform="scale(1 1) rotate(0) translate(4 402)">
<title>/home/jenkins/agent/workspace/ild&#45;documentation_release_v3.5.0/sdk/c/ifxBase/List.h</title>
<polygon fill="white" stroke="transparent" points="-4,4 -4,-402 703.5,-402 703.5,4 -4,4"/>
<!-- Node1 -->
<g id="node1" class="node">
<title>Node1</title>
<g id="a_node1"><a xlink:title=" ">
<polygon fill="#bfbfbf" stroke="black" points="203,-356.5 203,-397.5 394,-397.5 394,-356.5 203,-356.5"/>
<text text-anchor="start" x="211" y="-385.5" font-family="Helvetica,sans-Serif" font-size="10.00">/home/jenkins/agent</text>
<text text-anchor="start" x="211" y="-374.5" font-family="Helvetica,sans-Serif" font-size="10.00">/workspace/ild&#45;documentation</text>
<text text-anchor="middle" x="298.5" y="-363.5" font-family="Helvetica,sans-Serif" font-size="10.00">_release_v3.5.0/sdk/c/ifxBase/List.h</text>
</a>
</g>
</g>
<!-- Node2 -->
<g id="node2" class="node">
<title>Node2</title>
<g id="a_node2"><a xlink:href="_base_8h.html" target="_top" xlink:title="Header for ifxBase.">
<polygon fill="white" stroke="black" points="0,-273 0,-314 197,-314 197,-273 0,-273"/>
<text text-anchor="start" x="8" y="-302" font-family="Helvetica,sans-Serif" font-size="10.00">/home/jenkins/agent</text>
<text text-anchor="start" x="8" y="-291" font-family="Helvetica,sans-Serif" font-size="10.00">/workspace/ild&#45;documentation</text>
<text text-anchor="middle" x="98.5" y="-280" font-family="Helvetica,sans-Serif" font-size="10.00">_release_v3.5.0/sdk/c/ifxBase/Base.h</text>
</a>
</g>
</g>
<!-- Node1&#45;&gt;Node2 -->
<g id="edge1" class="edge">
<title>Node1&#45;&gt;Node2</title>
<path fill="none" stroke="midnightblue" d="M241.1,-352.61C211.1,-340.39 174.82,-325.6 146.36,-314"/>
<polygon fill="midnightblue" stroke="midnightblue" points="240.01,-355.95 250.6,-356.48 242.66,-349.46 240.01,-355.95"/>
</g>
<!-- Node3 -->
<g id="node3" class="node">
<title>Node3</title>
<g id="a_node3"><a xlink:href="_device_fmcw_8h.html" target="_top" xlink:title="For details refer to FMCW Device Control.">
<polygon fill="white" stroke="black" points="215,-267.5 215,-319.5 382,-319.5 382,-267.5 215,-267.5"/>
<text text-anchor="start" x="223" y="-307.5" font-family="Helvetica,sans-Serif" font-size="10.00">/home/jenkins/agent</text>
<text text-anchor="start" x="223" y="-296.5" font-family="Helvetica,sans-Serif" font-size="10.00">/workspace/ild&#45;documentation</text>
<text text-anchor="start" x="223" y="-285.5" font-family="Helvetica,sans-Serif" font-size="10.00">_release_v3.5.0/sdk/c/ifxFmcw</text>
<text text-anchor="middle" x="298.5" y="-274.5" font-family="Helvetica,sans-Serif" font-size="10.00">/DeviceFmcw.h</text>
</a>
</g>
</g>
<!-- Node1&#45;&gt;Node3 -->
<g id="edge2" class="edge">
<title>Node1&#45;&gt;Node3</title>
<path fill="none" stroke="midnightblue" d="M298.5,-346.12C298.5,-337.41 298.5,-327.99 298.5,-319.61"/>
<polygon fill="midnightblue" stroke="midnightblue" points="295,-346.27 298.5,-356.27 302,-346.27 295,-346.27"/>
</g>
<!-- Node9 -->
<g id="node9" class="node">
<title>Node9</title>
<g id="a_node9"><a xlink:href="_device_ltr11_8h.html" target="_top" xlink:title="Main header file for DeviceLtr11.">
<polygon fill="white" stroke="black" points="400.5,-267.5 400.5,-319.5 564.5,-319.5 564.5,-267.5 400.5,-267.5"/>
<text text-anchor="start" x="408.5" y="-307.5" font-family="Helvetica,sans-Serif" font-size="10.00">/home/jenkins/agent</text>
<text text-anchor="start" x="408.5" y="-296.5" font-family="Helvetica,sans-Serif" font-size="10.00">/workspace/ild&#45;documentation</text>
<text text-anchor="start" x="408.5" y="-285.5" font-family="Helvetica,sans-Serif" font-size="10.00">_release_v3.5.0/sdk/c/ifxLtr11</text>
<text text-anchor="middle" x="482.5" y="-274.5" font-family="Helvetica,sans-Serif" font-size="10.00">/DeviceLtr11.h</text>
</a>
</g>
</g>
<!-- Node1&#45;&gt;Node9 -->
<g id="edge9" class="edge">
<title>Node1&#45;&gt;Node9</title>
<path fill="none" stroke="midnightblue" d="M351.92,-352.34C375.12,-342.06 402.33,-330.01 425.89,-319.58"/>
<polygon fill="midnightblue" stroke="midnightblue" points="350.3,-349.23 342.57,-356.48 353.13,-355.63 350.3,-349.23"/>
</g>
<!-- Node4 -->
<g id="node4" class="node">
<title>Node4</title>
<g id="a_node4"><a xlink:href="_device_control_8h.html" target="_top" xlink:title="Header for ifxAvian.">
<polygon fill="white" stroke="black" points="216.5,-178.5 216.5,-230.5 380.5,-230.5 380.5,-178.5 216.5,-178.5"/>
<text text-anchor="start" x="224.5" y="-218.5" font-family="Helvetica,sans-Serif" font-size="10.00">/home/jenkins/agent</text>
<text text-anchor="start" x="224.5" y="-207.5" font-family="Helvetica,sans-Serif" font-size="10.00">/workspace/ild&#45;documentation</text>
<text text-anchor="start" x="224.5" y="-196.5" font-family="Helvetica,sans-Serif" font-size="10.00">_release_v3.5.0/sdk/c/ifxAvian</text>
<text text-anchor="middle" x="298.5" y="-185.5" font-family="Helvetica,sans-Serif" font-size="10.00">/DeviceControl.h</text>
</a>
</g>
</g>
<!-- Node3&#45;&gt;Node4 -->
<g id="edge3" class="edge">
<title>Node3&#45;&gt;Node4</title>
<path fill="none" stroke="midnightblue" d="M298.5,-257.19C298.5,-248.28 298.5,-238.9 298.5,-230.61"/>
<polygon fill="midnightblue" stroke="midnightblue" points="295,-257.34 298.5,-267.34 302,-257.34 295,-257.34"/>
</g>
<!-- Node5 -->
<g id="node5" class="node">
<title>Node5</title>
<g id="a_node5"><a xlink:href="_avian_8h.html" target="_top" xlink:title="Header for ifxAvian.">
<polygon fill="white" stroke="black" points="70.5,-0.5 70.5,-52.5 234.5,-52.5 234.5,-0.5 70.5,-0.5"/>
<text text-anchor="start" x="78.5" y="-40.5" font-family="Helvetica,sans-Serif" font-size="10.00">/home/jenkins/agent</text>
<text text-anchor="start" x="78.5" y="-29.5" font-family="Helvetica,sans-Serif" font-size="10.00">/workspace/ild&#45;documentation</text>
<text text-anchor="start" x="78.5" y="-18.5" font-family="Helvetica,sans-Serif" font-size="10.00">_release_v3.5.0/sdk/c/ifxAvian</text>
<text text-anchor="middle" x="152.5" y="-7.5" font-family="Helvetica,sans-Serif" font-size="10.00">/Avian.h</text>
</a>
</g>
</g>
<!-- Node4&#45;&gt;Node5 -->
<g id="edge4" class="edge">
<title>Node4&#45;&gt;Node5</title>
<path fill="none" stroke="midnightblue" d="M206.4,-194.7C172.48,-186.48 137.3,-170.98 116.5,-142 97.18,-115.08 115.75,-77.43 132.59,-52.76"/>
<polygon fill="midnightblue" stroke="midnightblue" points="205.87,-198.17 216.39,-196.93 207.39,-191.34 205.87,-198.17"/>
</g>
<!-- Node6 -->
<g id="node6" class="node">
<title>Node6</title>
<g id="a_node6"><a xlink:href="_metrics_8h.html" target="_top" xlink:title="API for Metrics.">
<polygon fill="white" stroke="black" points="125.5,-89.5 125.5,-141.5 289.5,-141.5 289.5,-89.5 125.5,-89.5"/>
<text text-anchor="start" x="133.5" y="-129.5" font-family="Helvetica,sans-Serif" font-size="10.00">/home/jenkins/agent</text>
<text text-anchor="start" x="133.5" y="-118.5" font-family="Helvetica,sans-Serif" font-size="10.00">/workspace/ild&#45;documentation</text>
<text text-anchor="start" x="133.5" y="-107.5" font-family="Helvetica,sans-Serif" font-size="10.00">_release_v3.5.0/sdk/c/ifxAvian</text>
<text text-anchor="middle" x="207.5" y="-96.5" font-family="Helvetica,sans-Serif" font-size="10.00">/Metrics.h</text>
</a>
</g>
</g>
<!-- Node4&#45;&gt;Node6 -->
<g id="edge5" class="edge">
<title>Node4&#45;&gt;Node6</title>
<path fill="none" stroke="midnightblue" d="M264.89,-171.36C254.61,-161.54 243.47,-150.89 233.76,-141.61"/>
<polygon fill="midnightblue" stroke="midnightblue" points="262.53,-173.96 272.18,-178.34 267.37,-168.9 262.53,-173.96"/>
</g>
<!-- Node7 -->
<g id="node7" class="node">
<title>Node7</title>
<g id="a_node7"><a xlink:href="_device_cw_8h.html" target="_top" xlink:title="Header for Continuous Wave Control.">
<polygon fill="white" stroke="black" points="307.5,-89.5 307.5,-141.5 471.5,-141.5 471.5,-89.5 307.5,-89.5"/>
<text text-anchor="start" x="315.5" y="-129.5" font-family="Helvetica,sans-Serif" font-size="10.00">/home/jenkins/agent</text>
<text text-anchor="start" x="315.5" y="-118.5" font-family="Helvetica,sans-Serif" font-size="10.00">/workspace/ild&#45;documentation</text>
<text text-anchor="start" x="315.5" y="-107.5" font-family="Helvetica,sans-Serif" font-size="10.00">_release_v3.5.0/sdk/c/ifxCw</text>
<text text-anchor="middle" x="389.5" y="-96.5" font-family="Helvetica,sans-Serif" font-size="10.00">/DeviceCw.h</text>
</a>
</g>
</g>
<!-- Node4&#45;&gt;Node7 -->
<g id="edge7" class="edge">
<title>Node4&#45;&gt;Node7</title>
<path fill="none" stroke="midnightblue" d="M332.11,-171.36C342.39,-161.54 353.53,-150.89 363.24,-141.61"/>
<polygon fill="midnightblue" stroke="midnightblue" points="329.63,-168.9 324.82,-178.34 334.47,-173.96 329.63,-168.9"/>
</g>
<!-- Node8 -->
<g id="node8" class="node">
<title>Node8</title>
<g id="a_node8"><a xlink:href="_presence_sensing_8h.html" target="_top" xlink:title=" ">
<polygon fill="white" stroke="black" points="489.5,-89.5 489.5,-141.5 699.5,-141.5 699.5,-89.5 489.5,-89.5"/>
<text text-anchor="start" x="497.5" y="-129.5" font-family="Helvetica,sans-Serif" font-size="10.00">/home/jenkins/agent</text>
<text text-anchor="start" x="497.5" y="-118.5" font-family="Helvetica,sans-Serif" font-size="10.00">/workspace/ild&#45;documentation</text>
<text text-anchor="start" x="497.5" y="-107.5" font-family="Helvetica,sans-Serif" font-size="10.00">_release_v3.5.0/sdk/c/ifxRadarPresence</text>
<text text-anchor="middle" x="594.5" y="-96.5" font-family="Helvetica,sans-Serif" font-size="10.00">Sensing/PresenceSensing.h</text>
</a>
</g>
</g>
<!-- Node4&#45;&gt;Node8 -->
<g id="edge8" class="edge">
<title>Node4&#45;&gt;Node8</title>
<path fill="none" stroke="midnightblue" d="M390.57,-176.44C428.44,-165.31 472.04,-152.49 509.18,-141.58"/>
<polygon fill="midnightblue" stroke="midnightblue" points="389.17,-173.2 380.56,-179.38 391.14,-179.92 389.17,-173.2"/>
</g>
<!-- Node6&#45;&gt;Node5 -->
<g id="edge6" class="edge">
<title>Node6&#45;&gt;Node5</title>
<path fill="none" stroke="midnightblue" d="M186.09,-80.64C180.19,-71.31 173.9,-61.35 168.37,-52.61"/>
<polygon fill="midnightblue" stroke="midnightblue" points="183.29,-82.75 191.59,-89.34 189.21,-79.01 183.29,-82.75"/>
</g>
</g>
</svg>
