<?xml version="1.0" encoding="UTF-8" standalone="no"?>
<!DOCTYPE svg PUBLIC "-//W3C//DTD SVG 1.1//EN"
 "http://www.w3.org/Graphics/SVG/1.1/DTD/svg11.dtd">
<!-- Generated by graphviz version 2.43.0 (0)
 -->
<!-- Title: /home/jenkins/agent/workspace/ild&#45;documentation_release_v3.5.0/sdk/c/ifxBase/Log.h Pages: 1 -->
<svg width="813pt" height="584pt"
 viewBox="0.00 0.00 812.50 584.00" xmlns="http://www.w3.org/2000/svg" xmlns:xlink="http://www.w3.org/1999/xlink">
<g id="graph0" class="graph" transform="scale(1 1) rotate(0) translate(4 580)">
<title>/home/jenkins/agent/workspace/ild&#45;documentation_release_v3.5.0/sdk/c/ifxBase/Log.h</title>
<polygon fill="white" stroke="transparent" points="-4,4 -4,-580 808.5,-580 808.5,4 -4,4"/>
<!-- Node1 -->
<g id="node1" class="node">
<title>Node1</title>
<g id="a_node1"><a xlink:title="API for logging.">
<polygon fill="#bfbfbf" stroke="black" points="168,-534.5 168,-575.5 359,-575.5 359,-534.5 168,-534.5"/>
<text text-anchor="start" x="176" y="-563.5" font-family="Helvetica,sans-Serif" font-size="10.00">/home/jenkins/agent</text>
<text text-anchor="start" x="176" y="-552.5" font-family="Helvetica,sans-Serif" font-size="10.00">/workspace/ild&#45;documentation</text>
<text text-anchor="middle" x="263.5" y="-541.5" font-family="Helvetica,sans-Serif" font-size="10.00">_release_v3.5.0/sdk/c/ifxBase/Log.h</text>
</a>
</g>
</g>
<!-- Node2 -->
<g id="node2" class="node">
<title>Node2</title>
<g id="a_node2"><a xlink:href="_base_8h.html" target="_top" xlink:title="Header for ifxBase.">
<polygon fill="white" stroke="black" points="0,-362 0,-403 197,-403 197,-362 0,-362"/>
<text text-anchor="start" x="8" y="-391" font-family="Helvetica,sans-Serif" font-size="10.00">/home/jenkins/agent</text>
<text text-anchor="start" x="8" y="-380" font-family="Helvetica,sans-Serif" font-size="10.00">/workspace/ild&#45;documentation</text>
<text text-anchor="middle" x="98.5" y="-369" font-family="Helvetica,sans-Serif" font-size="10.00">_release_v3.5.0/sdk/c/ifxBase/Base.h</text>
</a>
</g>
</g>
<!-- Node1&#45;&gt;Node2 -->
<g id="edge1" class="edge">
<title>Node1&#45;&gt;Node2</title>
<path fill="none" stroke="midnightblue" d="M237.43,-527.06C204.04,-492.56 146.99,-433.61 117.46,-403.09"/>
<polygon fill="midnightblue" stroke="midnightblue" points="235.1,-529.69 244.57,-534.44 240.13,-524.82 235.1,-529.69"/>
</g>
<!-- Node3 -->
<g id="node3" class="node">
<title>Node3</title>
<g id="a_node3"><a xlink:href="_error_8h.html" target="_top" xlink:title="API for error handling.">
<polygon fill="white" stroke="black" points="285.5,-445.5 285.5,-497.5 449.5,-497.5 449.5,-445.5 285.5,-445.5"/>
<text text-anchor="start" x="293.5" y="-485.5" font-family="Helvetica,sans-Serif" font-size="10.00">/home/jenkins/agent</text>
<text text-anchor="start" x="293.5" y="-474.5" font-family="Helvetica,sans-Serif" font-size="10.00">/workspace/ild&#45;documentation</text>
<text text-anchor="start" x="293.5" y="-463.5" font-family="Helvetica,sans-Serif" font-size="10.00">_release_v3.5.0/sdk/c/ifxBase</text>
<text text-anchor="middle" x="367.5" y="-452.5" font-family="Helvetica,sans-Serif" font-size="10.00">/Error.h</text>
</a>
</g>
</g>
<!-- Node1&#45;&gt;Node3 -->
<g id="edge2" class="edge">
<title>Node1&#45;&gt;Node3</title>
<path fill="none" stroke="midnightblue" d="M296.31,-528.29C308.76,-518.53 322.92,-507.44 335.31,-497.73"/>
<polygon fill="midnightblue" stroke="midnightblue" points="294.12,-525.56 288.41,-534.48 298.44,-531.07 294.12,-525.56"/>
</g>
<!-- Node3&#45;&gt;Node2 -->
<g id="edge3" class="edge">
<title>Node3&#45;&gt;Node2</title>
<path fill="none" stroke="midnightblue" d="M280.4,-442.33C240.83,-429.53 194.98,-414.7 159.21,-403.13"/>
<polygon fill="midnightblue" stroke="midnightblue" points="279.46,-445.71 290.05,-445.45 281.62,-439.05 279.46,-445.71"/>
</g>
<!-- Node4 -->
<g id="node4" class="node">
<title>Node4</title>
<g id="a_node4"><a xlink:href="_device_fmcw_8h.html" target="_top" xlink:title="For details refer to FMCW Device Control.">
<polygon fill="white" stroke="black" points="344,-267.5 344,-319.5 511,-319.5 511,-267.5 344,-267.5"/>
<text text-anchor="start" x="352" y="-307.5" font-family="Helvetica,sans-Serif" font-size="10.00">/home/jenkins/agent</text>
<text text-anchor="start" x="352" y="-296.5" font-family="Helvetica,sans-Serif" font-size="10.00">/workspace/ild&#45;documentation</text>
<text text-anchor="start" x="352" y="-285.5" font-family="Helvetica,sans-Serif" font-size="10.00">_release_v3.5.0/sdk/c/ifxFmcw</text>
<text text-anchor="middle" x="427.5" y="-274.5" font-family="Helvetica,sans-Serif" font-size="10.00">/DeviceFmcw.h</text>
</a>
</g>
</g>
<!-- Node3&#45;&gt;Node4 -->
<g id="edge4" class="edge">
<title>Node3&#45;&gt;Node4</title>
<path fill="none" stroke="midnightblue" d="M393.59,-436.88C399.28,-428.19 404.72,-418.58 408.5,-409 420.05,-379.76 424.58,-343.64 426.35,-319.88"/>
<polygon fill="midnightblue" stroke="midnightblue" points="390.64,-435 387.87,-445.23 396.41,-438.96 390.64,-435"/>
</g>
<!-- Node10 -->
<g id="node10" class="node">
<title>Node10</title>
<g id="a_node10"><a xlink:href="_device_fmcw_types_8h.html" target="_top" xlink:title=" ">
<polygon fill="white" stroke="black" points="455,-356.5 455,-408.5 622,-408.5 622,-356.5 455,-356.5"/>
<text text-anchor="start" x="463" y="-396.5" font-family="Helvetica,sans-Serif" font-size="10.00">/home/jenkins/agent</text>
<text text-anchor="start" x="463" y="-385.5" font-family="Helvetica,sans-Serif" font-size="10.00">/workspace/ild&#45;documentation</text>
<text text-anchor="start" x="463" y="-374.5" font-family="Helvetica,sans-Serif" font-size="10.00">_release_v3.5.0/sdk/c/ifxFmcw</text>
<text text-anchor="middle" x="538.5" y="-363.5" font-family="Helvetica,sans-Serif" font-size="10.00">/DeviceFmcwTypes.h</text>
</a>
</g>
</g>
<!-- Node3&#45;&gt;Node10 -->
<g id="edge11" class="edge">
<title>Node3&#45;&gt;Node10</title>
<path fill="none" stroke="midnightblue" d="M425.92,-440.78C446.5,-430.31 469.4,-418.66 489.15,-408.61"/>
<polygon fill="midnightblue" stroke="midnightblue" points="424.29,-437.68 416.96,-445.34 427.46,-443.92 424.29,-437.68"/>
</g>
<!-- Node13 -->
<g id="node13" class="node">
<title>Node13</title>
<g id="a_node13"><a xlink:href="_device_ltr11_8h.html" target="_top" xlink:title="Main header file for DeviceLtr11.">
<polygon fill="white" stroke="black" points="640.5,-356.5 640.5,-408.5 804.5,-408.5 804.5,-356.5 640.5,-356.5"/>
<text text-anchor="start" x="648.5" y="-396.5" font-family="Helvetica,sans-Serif" font-size="10.00">/home/jenkins/agent</text>
<text text-anchor="start" x="648.5" y="-385.5" font-family="Helvetica,sans-Serif" font-size="10.00">/workspace/ild&#45;documentation</text>
<text text-anchor="start" x="648.5" y="-374.5" font-family="Helvetica,sans-Serif" font-size="10.00">_release_v3.5.0/sdk/c/ifxLtr11</text>
<text text-anchor="middle" x="722.5" y="-363.5" font-family="Helvetica,sans-Serif" font-size="10.00">/DeviceLtr11.h</text>
</a>
</g>
</g>
<!-- Node3&#45;&gt;Node13 -->
<g id="edge17" class="edge">
<title>Node3&#45;&gt;Node13</title>
<path fill="none" stroke="midnightblue" d="M459.67,-449.91C510.23,-438.38 573.96,-423.44 630.5,-409 633.71,-408.18 636.98,-407.33 640.29,-406.47"/>
<polygon fill="midnightblue" stroke="midnightblue" points="458.72,-446.54 449.74,-452.17 460.27,-453.36 458.72,-446.54"/>
</g>
<!-- Node14 -->
<g id="node14" class="node">
<title>Node14</title>
<g id="a_node14"><a xlink:href="_util_8h.html" target="_top" xlink:title="This file defines some utility functions like printing to, reading from files or printing to console.">
<polygon fill="white" stroke="black" points="215.5,-362 215.5,-403 399.5,-403 399.5,-362 215.5,-362"/>
<text text-anchor="start" x="223.5" y="-391" font-family="Helvetica,sans-Serif" font-size="10.00">/home/jenkins/agent</text>
<text text-anchor="start" x="223.5" y="-380" font-family="Helvetica,sans-Serif" font-size="10.00">/workspace/ild&#45;documentation</text>
<text text-anchor="middle" x="307.5" y="-369" font-family="Helvetica,sans-Serif" font-size="10.00">_release_v3.5.0/sdk/c/ifxUtil/Util.h</text>
</a>
</g>
</g>
<!-- Node3&#45;&gt;Node14 -->
<g id="edge18" class="edge">
<title>Node3&#45;&gt;Node14</title>
<path fill="none" stroke="midnightblue" d="M344.29,-436.84C336.41,-425.42 327.87,-413.04 321,-403.08"/>
<polygon fill="midnightblue" stroke="midnightblue" points="341.59,-439.09 350.15,-445.34 347.35,-435.12 341.59,-439.09"/>
</g>
<!-- Node5 -->
<g id="node5" class="node">
<title>Node5</title>
<g id="a_node5"><a xlink:href="_device_control_8h.html" target="_top" xlink:title="Header for ifxAvian.">
<polygon fill="white" stroke="black" points="272.5,-178.5 272.5,-230.5 436.5,-230.5 436.5,-178.5 272.5,-178.5"/>
<text text-anchor="start" x="280.5" y="-218.5" font-family="Helvetica,sans-Serif" font-size="10.00">/home/jenkins/agent</text>
<text text-anchor="start" x="280.5" y="-207.5" font-family="Helvetica,sans-Serif" font-size="10.00">/workspace/ild&#45;documentation</text>
<text text-anchor="start" x="280.5" y="-196.5" font-family="Helvetica,sans-Serif" font-size="10.00">_release_v3.5.0/sdk/c/ifxAvian</text>
<text text-anchor="middle" x="354.5" y="-185.5" font-family="Helvetica,sans-Serif" font-size="10.00">/DeviceControl.h</text>
</a>
</g>
</g>
<!-- Node4&#45;&gt;Node5 -->
<g id="edge5" class="edge">
<title>Node4&#45;&gt;Node5</title>
<path fill="none" stroke="midnightblue" d="M399.81,-259.5C391.77,-249.92 383.13,-239.62 375.57,-230.61"/>
<polygon fill="midnightblue" stroke="midnightblue" points="397.28,-261.93 406.39,-267.34 402.64,-257.43 397.28,-261.93"/>
</g>
<!-- Node6 -->
<g id="node6" class="node">
<title>Node6</title>
<g id="a_node6"><a xlink:href="_avian_8h.html" target="_top" xlink:title="Header for ifxAvian.">
<polygon fill="white" stroke="black" points="269.5,-0.5 269.5,-52.5 433.5,-52.5 433.5,-0.5 269.5,-0.5"/>
<text text-anchor="start" x="277.5" y="-40.5" font-family="Helvetica,sans-Serif" font-size="10.00">/home/jenkins/agent</text>
<text text-anchor="start" x="277.5" y="-29.5" font-family="Helvetica,sans-Serif" font-size="10.00">/workspace/ild&#45;documentation</text>
<text text-anchor="start" x="277.5" y="-18.5" font-family="Helvetica,sans-Serif" font-size="10.00">_release_v3.5.0/sdk/c/ifxAvian</text>
<text text-anchor="middle" x="351.5" y="-7.5" font-family="Helvetica,sans-Serif" font-size="10.00">/Avian.h</text>
</a>
</g>
</g>
<!-- Node5&#45;&gt;Node6 -->
<g id="edge6" class="edge">
<title>Node5&#45;&gt;Node6</title>
<path fill="none" stroke="midnightblue" d="M262.82,-186.27C238.92,-177.16 215.86,-163.25 201.5,-142 188.31,-122.48 188.38,-108.56 201.5,-89 217.1,-65.74 243.23,-51.27 269.36,-42.28"/>
<polygon fill="midnightblue" stroke="midnightblue" points="261.77,-189.61 272.36,-189.64 264.1,-183.01 261.77,-189.61"/>
</g>
<!-- Node7 -->
<g id="node7" class="node">
<title>Node7</title>
<g id="a_node7"><a xlink:href="_metrics_8h.html" target="_top" xlink:title="API for Metrics.">
<polygon fill="white" stroke="black" points="438.5,-89.5 438.5,-141.5 602.5,-141.5 602.5,-89.5 438.5,-89.5"/>
<text text-anchor="start" x="446.5" y="-129.5" font-family="Helvetica,sans-Serif" font-size="10.00">/home/jenkins/agent</text>
<text text-anchor="start" x="446.5" y="-118.5" font-family="Helvetica,sans-Serif" font-size="10.00">/workspace/ild&#45;documentation</text>
<text text-anchor="start" x="446.5" y="-107.5" font-family="Helvetica,sans-Serif" font-size="10.00">_release_v3.5.0/sdk/c/ifxAvian</text>
<text text-anchor="middle" x="520.5" y="-96.5" font-family="Helvetica,sans-Serif" font-size="10.00">/Metrics.h</text>
</a>
</g>
</g>
<!-- Node5&#45;&gt;Node7 -->
<g id="edge7" class="edge">
<title>Node5&#45;&gt;Node7</title>
<path fill="none" stroke="midnightblue" d="M411.48,-173.64C431.38,-163.2 453.51,-151.61 472.59,-141.61"/>
<polygon fill="midnightblue" stroke="midnightblue" points="409.75,-170.59 402.51,-178.34 413,-176.79 409.75,-170.59"/>
</g>
<!-- Node8 -->
<g id="node8" class="node">
<title>Node8</title>
<g id="a_node8"><a xlink:href="_device_cw_8h.html" target="_top" xlink:title="Header for Continuous Wave Control.">
<polygon fill="white" stroke="black" points="620.5,-89.5 620.5,-141.5 784.5,-141.5 784.5,-89.5 620.5,-89.5"/>
<text text-anchor="start" x="628.5" y="-129.5" font-family="Helvetica,sans-Serif" font-size="10.00">/home/jenkins/agent</text>
<text text-anchor="start" x="628.5" y="-118.5" font-family="Helvetica,sans-Serif" font-size="10.00">/workspace/ild&#45;documentation</text>
<text text-anchor="start" x="628.5" y="-107.5" font-family="Helvetica,sans-Serif" font-size="10.00">_release_v3.5.0/sdk/c/ifxCw</text>
<text text-anchor="middle" x="702.5" y="-96.5" font-family="Helvetica,sans-Serif" font-size="10.00">/DeviceCw.h</text>
</a>
</g>
</g>
<!-- Node5&#45;&gt;Node8 -->
<g id="edge9" class="edge">
<title>Node5&#45;&gt;Node8</title>
<path fill="none" stroke="midnightblue" d="M446.56,-177.8C520.46,-159.81 541.24,-159.45 611.5,-142 614.37,-141.29 617.28,-140.55 620.22,-139.79"/>
<polygon fill="midnightblue" stroke="midnightblue" points="445.65,-174.42 436.78,-180.21 447.33,-181.21 445.65,-174.42"/>
</g>
<!-- Node9 -->
<g id="node9" class="node">
<title>Node9</title>
<g id="a_node9"><a xlink:href="_presence_sensing_8h.html" target="_top" xlink:title=" ">
<polygon fill="white" stroke="black" points="210.5,-89.5 210.5,-141.5 420.5,-141.5 420.5,-89.5 210.5,-89.5"/>
<text text-anchor="start" x="218.5" y="-129.5" font-family="Helvetica,sans-Serif" font-size="10.00">/home/jenkins/agent</text>
<text text-anchor="start" x="218.5" y="-118.5" font-family="Helvetica,sans-Serif" font-size="10.00">/workspace/ild&#45;documentation</text>
<text text-anchor="start" x="218.5" y="-107.5" font-family="Helvetica,sans-Serif" font-size="10.00">_release_v3.5.0/sdk/c/ifxRadarPresence</text>
<text text-anchor="middle" x="315.5" y="-96.5" font-family="Helvetica,sans-Serif" font-size="10.00">Sensing/PresenceSensing.h</text>
</a>
</g>
</g>
<!-- Node5&#45;&gt;Node9 -->
<g id="edge10" class="edge">
<title>Node5&#45;&gt;Node9</title>
<path fill="none" stroke="midnightblue" d="M339.06,-169.06C334.95,-159.9 330.59,-150.17 326.76,-141.61"/>
<polygon fill="midnightblue" stroke="midnightblue" points="335.94,-170.64 343.22,-178.34 342.32,-167.78 335.94,-170.64"/>
</g>
<!-- Node7&#45;&gt;Node6 -->
<g id="edge8" class="edge">
<title>Node7&#45;&gt;Node6</title>
<path fill="none" stroke="midnightblue" d="M462.49,-84.64C442.23,-74.2 419.7,-62.61 400.27,-52.61"/>
<polygon fill="midnightblue" stroke="midnightblue" points="461.13,-87.87 471.62,-89.34 464.33,-81.65 461.13,-87.87"/>
</g>
<!-- Node10&#45;&gt;Node4 -->
<g id="edge14" class="edge">
<title>Node10&#45;&gt;Node4</title>
<path fill="none" stroke="midnightblue" d="M498.23,-349.93C485.5,-339.96 471.61,-329.07 459.53,-319.61"/>
<polygon fill="midnightblue" stroke="midnightblue" points="496.36,-352.92 506.39,-356.34 500.68,-347.41 496.36,-352.92"/>
</g>
<!-- Node11 -->
<g id="node11" class="node">
<title>Node11</title>
<g id="a_node11"><a xlink:href="_device_cw_types_8h.html" target="_top" xlink:title=" ">
<polygon fill="white" stroke="black" points="584.5,-267.5 584.5,-319.5 748.5,-319.5 748.5,-267.5 584.5,-267.5"/>
<text text-anchor="start" x="592.5" y="-307.5" font-family="Helvetica,sans-Serif" font-size="10.00">/home/jenkins/agent</text>
<text text-anchor="start" x="592.5" y="-296.5" font-family="Helvetica,sans-Serif" font-size="10.00">/workspace/ild&#45;documentation</text>
<text text-anchor="start" x="592.5" y="-285.5" font-family="Helvetica,sans-Serif" font-size="10.00">_release_v3.5.0/sdk/c/ifxCw</text>
<text text-anchor="middle" x="666.5" y="-274.5" font-family="Helvetica,sans-Serif" font-size="10.00">/DeviceCwTypes.h</text>
</a>
</g>
</g>
<!-- Node10&#45;&gt;Node11 -->
<g id="edge12" class="edge">
<title>Node10&#45;&gt;Node11</title>
<path fill="none" stroke="midnightblue" d="M584.1,-350.5C599.01,-340.37 615.37,-329.25 629.56,-319.61"/>
<polygon fill="midnightblue" stroke="midnightblue" points="581.83,-347.82 575.52,-356.34 585.76,-353.61 581.83,-347.82"/>
</g>
<!-- Node12 -->
<g id="node12" class="node">
<title>Node12</title>
<g id="a_node12"><a xlink:href="_metrics_fmcw_8h.html" target="_top" xlink:title="API for MetricsFmcw.">
<polygon fill="white" stroke="black" points="455,-178.5 455,-230.5 622,-230.5 622,-178.5 455,-178.5"/>
<text text-anchor="start" x="463" y="-218.5" font-family="Helvetica,sans-Serif" font-size="10.00">/home/jenkins/agent</text>
<text text-anchor="start" x="463" y="-207.5" font-family="Helvetica,sans-Serif" font-size="10.00">/workspace/ild&#45;documentation</text>
<text text-anchor="start" x="463" y="-196.5" font-family="Helvetica,sans-Serif" font-size="10.00">_release_v3.5.0/sdk/c/ifxFmcw</text>
<text text-anchor="middle" x="538.5" y="-185.5" font-family="Helvetica,sans-Serif" font-size="10.00">/MetricsFmcw.h</text>
</a>
</g>
</g>
<!-- Node10&#45;&gt;Node12 -->
<g id="edge15" class="edge">
<title>Node10&#45;&gt;Node12</title>
<path fill="none" stroke="midnightblue" d="M538.5,-346.25C538.5,-312.04 538.5,-260.97 538.5,-230.67"/>
<polygon fill="midnightblue" stroke="midnightblue" points="535,-346.28 538.5,-356.28 542,-346.28 535,-346.28"/>
</g>
<!-- Node11&#45;&gt;Node8 -->
<g id="edge13" class="edge">
<title>Node11&#45;&gt;Node8</title>
<path fill="none" stroke="midnightblue" d="M673.71,-257.25C680.71,-223.04 691.15,-171.97 697.35,-141.67"/>
<polygon fill="midnightblue" stroke="midnightblue" points="670.23,-256.78 671.66,-267.28 677.09,-258.19 670.23,-256.78"/>
</g>
<!-- Node12&#45;&gt;Node7 -->
<g id="edge16" class="edge">
<title>Node12&#45;&gt;Node7</title>
<path fill="none" stroke="midnightblue" d="M531.25,-168.48C529.39,-159.49 527.43,-149.99 525.69,-141.61"/>
<polygon fill="midnightblue" stroke="midnightblue" points="527.84,-169.25 533.29,-178.34 534.69,-167.83 527.84,-169.25"/>
</g>
</g>
</svg>
