<?xml version="1.0" encoding="UTF-8" standalone="no"?>
<!DOCTYPE svg PUBLIC "-//W3C//DTD SVG 1.1//EN"
 "http://www.w3.org/Graphics/SVG/1.1/DTD/svg11.dtd">
<!-- Generated by graphviz version 2.43.0 (0)
 -->
<!-- Title: /home/jenkins/agent/workspace/ild&#45;documentation_release_v3.5.0/sdk/c/ifxBase/Matrix.h Pages: 1 -->
<svg width="2090pt" height="417pt"
 viewBox="0.00 0.00 2090.00 417.00" xmlns="http://www.w3.org/2000/svg" xmlns:xlink="http://www.w3.org/1999/xlink">
<g id="graph0" class="graph" transform="scale(1 1) rotate(0) translate(4 413)">
<title>/home/jenkins/agent/workspace/ild&#45;documentation_release_v3.5.0/sdk/c/ifxBase/Matrix.h</title>
<polygon fill="white" stroke="transparent" points="-4,4 -4,-413 2086,-413 2086,4 -4,4"/>
<!-- Node1 -->
<g id="node1" class="node">
<title>Node1</title>
<g id="a_node1"><a xlink:title="API for operations on Matrix data structures.">
<polygon fill="#bfbfbf" stroke="black" points="735,-356.5 735,-408.5 899,-408.5 899,-356.5 735,-356.5"/>
<text text-anchor="start" x="743" y="-396.5" font-family="Helvetica,sans-Serif" font-size="10.00">/home/jenkins/agent</text>
<text text-anchor="start" x="743" y="-385.5" font-family="Helvetica,sans-Serif" font-size="10.00">/workspace/ild&#45;documentation</text>
<text text-anchor="start" x="743" y="-374.5" font-family="Helvetica,sans-Serif" font-size="10.00">_release_v3.5.0/sdk/c/ifxBase</text>
<text text-anchor="middle" x="817" y="-363.5" font-family="Helvetica,sans-Serif" font-size="10.00">/Matrix.h</text>
</a>
</g>
</g>
<!-- Node2 -->
<g id="node2" class="node">
<title>Node2</title>
<g id="a_node2"><a xlink:href="2_d_m_t_i_8h.html" target="_top" xlink:title="API for 2D Moving Target Indicator filter (2DMTI)">
<polygon fill="white" stroke="black" points="0,-267.5 0,-319.5 164,-319.5 164,-267.5 0,-267.5"/>
<text text-anchor="start" x="8" y="-307.5" font-family="Helvetica,sans-Serif" font-size="10.00">/home/jenkins/agent</text>
<text text-anchor="start" x="8" y="-296.5" font-family="Helvetica,sans-Serif" font-size="10.00">/workspace/ild&#45;documentation</text>
<text text-anchor="start" x="8" y="-285.5" font-family="Helvetica,sans-Serif" font-size="10.00">_release_v3.5.0/sdk/c/ifxAlgo</text>
<text text-anchor="middle" x="82" y="-274.5" font-family="Helvetica,sans-Serif" font-size="10.00">/2DMTI.h</text>
</a>
</g>
</g>
<!-- Node1&#45;&gt;Node2 -->
<g id="edge1" class="edge">
<title>Node1&#45;&gt;Node2</title>
<path fill="none" stroke="midnightblue" d="M724.42,-377.84C598.66,-371.69 367.25,-356.19 173,-320 170.1,-319.46 167.15,-318.87 164.19,-318.24"/>
<polygon fill="midnightblue" stroke="midnightblue" points="724.61,-381.35 734.77,-378.33 724.95,-374.36 724.61,-381.35"/>
</g>
<!-- Node4 -->
<g id="node4" class="node">
<title>Node4</title>
<g id="a_node4"><a xlink:href="_o_s_c_f_a_r_8h.html" target="_top" xlink:title="API for 2D ordered statistic constant false alarm rate (OS&#45;CFAR) algorithm.">
<polygon fill="white" stroke="black" points="182,-267.5 182,-319.5 346,-319.5 346,-267.5 182,-267.5"/>
<text text-anchor="start" x="190" y="-307.5" font-family="Helvetica,sans-Serif" font-size="10.00">/home/jenkins/agent</text>
<text text-anchor="start" x="190" y="-296.5" font-family="Helvetica,sans-Serif" font-size="10.00">/workspace/ild&#45;documentation</text>
<text text-anchor="start" x="190" y="-285.5" font-family="Helvetica,sans-Serif" font-size="10.00">_release_v3.5.0/sdk/c/ifxAlgo</text>
<text text-anchor="middle" x="264" y="-274.5" font-family="Helvetica,sans-Serif" font-size="10.00">/OSCFAR.h</text>
</a>
</g>
</g>
<!-- Node1&#45;&gt;Node4 -->
<g id="edge3" class="edge">
<title>Node1&#45;&gt;Node4</title>
<path fill="none" stroke="midnightblue" d="M724.61,-373.07C630.88,-363.61 481.94,-346.1 355,-320 352.11,-319.41 349.17,-318.77 346.21,-318.1"/>
<polygon fill="midnightblue" stroke="midnightblue" points="724.33,-376.56 734.63,-374.07 725.03,-369.59 724.33,-376.56"/>
</g>
<!-- Node5 -->
<g id="node5" class="node">
<title>Node5</title>
<g id="a_node5"><a xlink:href="_signal_8h.html" target="_top" xlink:title="API for digital filtering operations.">
<polygon fill="white" stroke="black" points="364,-267.5 364,-319.5 528,-319.5 528,-267.5 364,-267.5"/>
<text text-anchor="start" x="372" y="-307.5" font-family="Helvetica,sans-Serif" font-size="10.00">/home/jenkins/agent</text>
<text text-anchor="start" x="372" y="-296.5" font-family="Helvetica,sans-Serif" font-size="10.00">/workspace/ild&#45;documentation</text>
<text text-anchor="start" x="372" y="-285.5" font-family="Helvetica,sans-Serif" font-size="10.00">_release_v3.5.0/sdk/c/ifxAlgo</text>
<text text-anchor="middle" x="446" y="-274.5" font-family="Helvetica,sans-Serif" font-size="10.00">/Signal.h</text>
</a>
</g>
</g>
<!-- Node1&#45;&gt;Node5 -->
<g id="edge5" class="edge">
<title>Node1&#45;&gt;Node5</title>
<path fill="none" stroke="midnightblue" d="M725.16,-361.91C671.61,-350.26 602.84,-334.88 542,-320 537.48,-318.89 532.84,-317.74 528.16,-316.55"/>
<polygon fill="midnightblue" stroke="midnightblue" points="724.46,-365.34 734.98,-364.05 725.95,-358.5 724.46,-365.34"/>
</g>
<!-- Node6 -->
<g id="node6" class="node">
<title>Node6</title>
<g id="a_node6"><a xlink:href="_base_8h.html" target="_top" xlink:title="Header for ifxBase.">
<polygon fill="white" stroke="black" points="478.5,-184 478.5,-225 675.5,-225 675.5,-184 478.5,-184"/>
<text text-anchor="start" x="486.5" y="-213" font-family="Helvetica,sans-Serif" font-size="10.00">/home/jenkins/agent</text>
<text text-anchor="start" x="486.5" y="-202" font-family="Helvetica,sans-Serif" font-size="10.00">/workspace/ild&#45;documentation</text>
<text text-anchor="middle" x="577" y="-191" font-family="Helvetica,sans-Serif" font-size="10.00">_release_v3.5.0/sdk/c/ifxBase/Base.h</text>
</a>
</g>
</g>
<!-- Node1&#45;&gt;Node6 -->
<g id="edge7" class="edge">
<title>Node1&#45;&gt;Node6</title>
<path fill="none" stroke="midnightblue" d="M725,-369.91C664.69,-360.2 593.69,-344.03 575,-320 553.89,-292.85 562.22,-250.1 569.85,-225.24"/>
<polygon fill="midnightblue" stroke="midnightblue" points="724.54,-373.38 734.96,-371.47 725.62,-366.46 724.54,-373.38"/>
</g>
<!-- Node7 -->
<g id="node7" class="node">
<title>Node7</title>
<g id="a_node7"><a xlink:href="_cube_8h.html" target="_top" xlink:title="API for operations on Cube data structures.">
<polygon fill="white" stroke="black" points="992,-273 992,-314 1190,-314 1190,-273 992,-273"/>
<text text-anchor="start" x="1000" y="-302" font-family="Helvetica,sans-Serif" font-size="10.00">/home/jenkins/agent</text>
<text text-anchor="start" x="1000" y="-291" font-family="Helvetica,sans-Serif" font-size="10.00">/workspace/ild&#45;documentation</text>
<text text-anchor="middle" x="1091" y="-280" font-family="Helvetica,sans-Serif" font-size="10.00">_release_v3.5.0/sdk/c/ifxBase/Cube.h</text>
</a>
</g>
</g>
<!-- Node1&#45;&gt;Node7 -->
<g id="edge8" class="edge">
<title>Node1&#45;&gt;Node7</title>
<path fill="none" stroke="midnightblue" d="M905.46,-353.41C945.83,-340.59 992.65,-325.73 1029.16,-314.13"/>
<polygon fill="midnightblue" stroke="midnightblue" points="904.36,-350.09 895.88,-356.45 906.47,-356.76 904.36,-350.09"/>
</g>
<!-- Node12 -->
<g id="node12" class="node">
<title>Node12</title>
<g id="a_node12"><a xlink:href="_presence_sensing_8h.html" target="_top" xlink:title=" ">
<polygon fill="white" stroke="black" points="1513,-89.5 1513,-141.5 1723,-141.5 1723,-89.5 1513,-89.5"/>
<text text-anchor="start" x="1521" y="-129.5" font-family="Helvetica,sans-Serif" font-size="10.00">/home/jenkins/agent</text>
<text text-anchor="start" x="1521" y="-118.5" font-family="Helvetica,sans-Serif" font-size="10.00">/workspace/ild&#45;documentation</text>
<text text-anchor="start" x="1521" y="-107.5" font-family="Helvetica,sans-Serif" font-size="10.00">_release_v3.5.0/sdk/c/ifxRadarPresence</text>
<text text-anchor="middle" x="1618" y="-96.5" font-family="Helvetica,sans-Serif" font-size="10.00">Sensing/PresenceSensing.h</text>
</a>
</g>
</g>
<!-- Node1&#45;&gt;Node12 -->
<g id="edge35" class="edge">
<title>Node1&#45;&gt;Node12</title>
<path fill="none" stroke="midnightblue" d="M909.28,-376.85C1095.32,-365.48 1505.66,-329.57 1599,-231 1621.45,-207.3 1623.09,-167.74 1621.27,-141.89"/>
<polygon fill="midnightblue" stroke="midnightblue" points="909.01,-373.36 899.24,-377.46 909.43,-380.35 909.01,-373.36"/>
</g>
<!-- Node18 -->
<g id="node18" class="node">
<title>Node18</title>
<g id="a_node18"><a xlink:href="_segmentation_8h.html" target="_top" xlink:title="API for Segmentation and Seamless Tracking algorithm.">
<polygon fill="white" stroke="black" points="1646,-178.5 1646,-230.5 1880,-230.5 1880,-178.5 1646,-178.5"/>
<text text-anchor="start" x="1654" y="-218.5" font-family="Helvetica,sans-Serif" font-size="10.00">/home/jenkins/agent</text>
<text text-anchor="start" x="1654" y="-207.5" font-family="Helvetica,sans-Serif" font-size="10.00">/workspace/ild&#45;documentation</text>
<text text-anchor="start" x="1654" y="-196.5" font-family="Helvetica,sans-Serif" font-size="10.00">_release_v3.5.0/sdk/c/ifxRadarSegmentation</text>
<text text-anchor="middle" x="1763" y="-185.5" font-family="Helvetica,sans-Serif" font-size="10.00">/Segmentation.h</text>
</a>
</g>
</g>
<!-- Node1&#45;&gt;Node18 -->
<g id="edge36" class="edge">
<title>Node1&#45;&gt;Node18</title>
<path fill="none" stroke="midnightblue" d="M909.19,-378.38C1108.85,-371.09 1568.42,-351.11 1632,-320 1660.55,-306.03 1656.45,-288.34 1680,-267 1694.22,-254.11 1711.05,-241.26 1725.83,-230.65"/>
<polygon fill="midnightblue" stroke="midnightblue" points="908.88,-374.89 899.02,-378.75 909.14,-381.89 908.88,-374.89"/>
</g>
<!-- Node20 -->
<g id="node20" class="node">
<title>Node20</title>
<g id="a_node20"><a xlink:href="_util_8h.html" target="_top" xlink:title="This file defines some utility functions like printing to, reading from files or printing to console.">
<polygon fill="white" stroke="black" points="1898,-184 1898,-225 2082,-225 2082,-184 1898,-184"/>
<text text-anchor="start" x="1906" y="-213" font-family="Helvetica,sans-Serif" font-size="10.00">/home/jenkins/agent</text>
<text text-anchor="start" x="1906" y="-202" font-family="Helvetica,sans-Serif" font-size="10.00">/workspace/ild&#45;documentation</text>
<text text-anchor="middle" x="1990" y="-191" font-family="Helvetica,sans-Serif" font-size="10.00">_release_v3.5.0/sdk/c/ifxUtil/Util.h</text>
</a>
</g>
</g>
<!-- Node1&#45;&gt;Node20 -->
<g id="edge37" class="edge">
<title>Node1&#45;&gt;Node20</title>
<path fill="none" stroke="midnightblue" d="M909.47,-378.97C1116.41,-372.71 1603.89,-354.47 1670,-320 1696.9,-305.98 1687.07,-282.74 1713,-267 1781.26,-225.58 1811.16,-248.78 1889,-231 1897.2,-229.13 1905.75,-227.09 1914.26,-225.02"/>
<polygon fill="midnightblue" stroke="midnightblue" points="909.13,-375.48 899.24,-379.27 909.34,-382.47 909.13,-375.48"/>
</g>
<!-- Node21 -->
<g id="node21" class="node">
<title>Node21</title>
<g id="a_node21"><a xlink:href="_l_a_8h.html" target="_top" xlink:title="API for Linear Algebra (LA)">
<polygon fill="white" stroke="black" points="584,-273 584,-314 770,-314 770,-273 584,-273"/>
<text text-anchor="start" x="592" y="-302" font-family="Helvetica,sans-Serif" font-size="10.00">/home/jenkins/agent</text>
<text text-anchor="start" x="592" y="-291" font-family="Helvetica,sans-Serif" font-size="10.00">/workspace/ild&#45;documentation</text>
<text text-anchor="middle" x="677" y="-280" font-family="Helvetica,sans-Serif" font-size="10.00">_release_v3.5.0/sdk/c/ifxBase/LA.h</text>
</a>
</g>
</g>
<!-- Node1&#45;&gt;Node21 -->
<g id="edge27" class="edge">
<title>Node1&#45;&gt;Node21</title>
<path fill="none" stroke="midnightblue" d="M767.93,-351.01C748.2,-338.74 726.02,-324.96 708.51,-314.08"/>
<polygon fill="midnightblue" stroke="midnightblue" points="766.17,-354.03 776.51,-356.34 769.86,-348.09 766.17,-354.03"/>
</g>
<!-- Node22 -->
<g id="node22" class="node">
<title>Node22</title>
<g id="a_node22"><a xlink:href="_doppler_spectrogram_8h.html" target="_top" xlink:title=" ">
<polygon fill="white" stroke="black" points="1722,-267.5 1722,-319.5 1888,-319.5 1888,-267.5 1722,-267.5"/>
<text text-anchor="start" x="1730" y="-307.5" font-family="Helvetica,sans-Serif" font-size="10.00">/home/jenkins/agent</text>
<text text-anchor="start" x="1730" y="-296.5" font-family="Helvetica,sans-Serif" font-size="10.00">/workspace/ild&#45;documentation</text>
<text text-anchor="start" x="1730" y="-285.5" font-family="Helvetica,sans-Serif" font-size="10.00">_release_v3.5.0/sdk/c/ifxRadar</text>
<text text-anchor="middle" x="1805" y="-274.5" font-family="Helvetica,sans-Serif" font-size="10.00">/DopplerSpectrogram.h</text>
</a>
</g>
</g>
<!-- Node1&#45;&gt;Node22 -->
<g id="edge29" class="edge">
<title>Node1&#45;&gt;Node22</title>
<path fill="none" stroke="midnightblue" d="M909.73,-380.82C1072.43,-378.37 1419.43,-367.46 1708,-320 1712.55,-319.25 1717.2,-318.38 1721.88,-317.43"/>
<polygon fill="midnightblue" stroke="midnightblue" points="909.24,-377.33 899.29,-380.97 909.34,-384.33 909.24,-377.33"/>
</g>
<!-- Node23 -->
<g id="node23" class="node">
<title>Node23</title>
<g id="a_node23"><a xlink:href="_range_doppler_map_8h.html" target="_top" xlink:title="API for Doppler Spectrogram.">
<polygon fill="white" stroke="black" points="732,-178.5 732,-230.5 898,-230.5 898,-178.5 732,-178.5"/>
<text text-anchor="start" x="740" y="-218.5" font-family="Helvetica,sans-Serif" font-size="10.00">/home/jenkins/agent</text>
<text text-anchor="start" x="740" y="-207.5" font-family="Helvetica,sans-Serif" font-size="10.00">/workspace/ild&#45;documentation</text>
<text text-anchor="start" x="740" y="-196.5" font-family="Helvetica,sans-Serif" font-size="10.00">_release_v3.5.0/sdk/c/ifxRadar</text>
<text text-anchor="middle" x="815" y="-185.5" font-family="Helvetica,sans-Serif" font-size="10.00">/RangeDopplerMap.h</text>
</a>
</g>
</g>
<!-- Node1&#45;&gt;Node23 -->
<g id="edge30" class="edge">
<title>Node1&#45;&gt;Node23</title>
<path fill="none" stroke="midnightblue" d="M816.6,-346.25C816.21,-312.04 815.63,-260.97 815.29,-230.67"/>
<polygon fill="midnightblue" stroke="midnightblue" points="813.1,-346.32 816.71,-356.28 820.1,-346.24 813.1,-346.32"/>
</g>
<!-- Node24 -->
<g id="node24" class="node">
<title>Node24</title>
<g id="a_node24"><a xlink:href="_range_spectrum_8h.html" target="_top" xlink:title="API for Range Spectrum.">
<polygon fill="white" stroke="black" points="483,-89.5 483,-141.5 649,-141.5 649,-89.5 483,-89.5"/>
<text text-anchor="start" x="491" y="-129.5" font-family="Helvetica,sans-Serif" font-size="10.00">/home/jenkins/agent</text>
<text text-anchor="start" x="491" y="-118.5" font-family="Helvetica,sans-Serif" font-size="10.00">/workspace/ild&#45;documentation</text>
<text text-anchor="start" x="491" y="-107.5" font-family="Helvetica,sans-Serif" font-size="10.00">_release_v3.5.0/sdk/c/ifxRadar</text>
<text text-anchor="middle" x="566" y="-96.5" font-family="Helvetica,sans-Serif" font-size="10.00">/RangeSpectrum.h</text>
</a>
</g>
</g>
<!-- Node1&#45;&gt;Node24 -->
<g id="edge33" class="edge">
<title>Node1&#45;&gt;Node24</title>
<path fill="none" stroke="midnightblue" d="M811.74,-346.55C806.66,-322.24 796.98,-290.17 779,-267 760.86,-243.62 744.57,-251.25 723,-231 701.68,-210.98 706.21,-197.03 684,-178 667.16,-163.57 646.35,-151.31 626.93,-141.63"/>
<polygon fill="midnightblue" stroke="midnightblue" points="808.31,-347.28 813.64,-356.44 815.19,-345.96 808.31,-347.28"/>
</g>
<!-- Node3 -->
<g id="node3" class="node">
<title>Node3</title>
<g id="a_node3"><a xlink:href="_algo_8h.html" target="_top" xlink:title="Header for ifxAlgo.">
<polygon fill="white" stroke="black" points="167.5,-184 167.5,-225 360.5,-225 360.5,-184 167.5,-184"/>
<text text-anchor="start" x="175.5" y="-213" font-family="Helvetica,sans-Serif" font-size="10.00">/home/jenkins/agent</text>
<text text-anchor="start" x="175.5" y="-202" font-family="Helvetica,sans-Serif" font-size="10.00">/workspace/ild&#45;documentation</text>
<text text-anchor="middle" x="264" y="-191" font-family="Helvetica,sans-Serif" font-size="10.00">_release_v3.5.0/sdk/c/ifxAlgo/Algo.h</text>
</a>
</g>
</g>
<!-- Node2&#45;&gt;Node3 -->
<g id="edge2" class="edge">
<title>Node2&#45;&gt;Node3</title>
<path fill="none" stroke="midnightblue" d="M143.73,-262.99C169.89,-250.49 199.66,-236.26 223.04,-225.08"/>
<polygon fill="midnightblue" stroke="midnightblue" points="142.15,-259.87 134.64,-267.34 145.17,-266.18 142.15,-259.87"/>
</g>
<!-- Node4&#45;&gt;Node3 -->
<g id="edge4" class="edge">
<title>Node4&#45;&gt;Node3</title>
<path fill="none" stroke="midnightblue" d="M264,-257.16C264,-246.21 264,-234.55 264,-225.08"/>
<polygon fill="midnightblue" stroke="midnightblue" points="260.5,-257.34 264,-267.34 267.5,-257.34 260.5,-257.34"/>
</g>
<!-- Node5&#45;&gt;Node3 -->
<g id="edge6" class="edge">
<title>Node5&#45;&gt;Node3</title>
<path fill="none" stroke="midnightblue" d="M384.27,-262.99C358.11,-250.49 328.34,-236.26 304.96,-225.08"/>
<polygon fill="midnightblue" stroke="midnightblue" points="382.83,-266.18 393.36,-267.34 385.85,-259.87 382.83,-266.18"/>
</g>
<!-- Node7&#45;&gt;Node6 -->
<g id="edge15" class="edge">
<title>Node7&#45;&gt;Node6</title>
<path fill="none" stroke="midnightblue" d="M981.63,-274.44C908.41,-262.29 809.9,-245.85 723,-231 707.66,-228.38 691.41,-225.57 675.54,-222.81"/>
<polygon fill="midnightblue" stroke="midnightblue" points="981.35,-277.94 991.79,-276.12 982.49,-271.03 981.35,-277.94"/>
</g>
<!-- Node8 -->
<g id="node8" class="node">
<title>Node8</title>
<g id="a_node8"><a xlink:href="_device_control_8h.html" target="_top" xlink:title="Header for ifxAvian.">
<polygon fill="white" stroke="black" points="1208,-178.5 1208,-230.5 1372,-230.5 1372,-178.5 1208,-178.5"/>
<text text-anchor="start" x="1216" y="-218.5" font-family="Helvetica,sans-Serif" font-size="10.00">/home/jenkins/agent</text>
<text text-anchor="start" x="1216" y="-207.5" font-family="Helvetica,sans-Serif" font-size="10.00">/workspace/ild&#45;documentation</text>
<text text-anchor="start" x="1216" y="-196.5" font-family="Helvetica,sans-Serif" font-size="10.00">_release_v3.5.0/sdk/c/ifxAvian</text>
<text text-anchor="middle" x="1290" y="-185.5" font-family="Helvetica,sans-Serif" font-size="10.00">/DeviceControl.h</text>
</a>
</g>
</g>
<!-- Node7&#45;&gt;Node8 -->
<g id="edge9" class="edge">
<title>Node7&#45;&gt;Node8</title>
<path fill="none" stroke="midnightblue" d="M1145,-268.89C1172.14,-257.03 1205.03,-242.65 1232.62,-230.58"/>
<polygon fill="midnightblue" stroke="midnightblue" points="1143.42,-265.76 1135.66,-272.98 1146.22,-272.18 1143.42,-265.76"/>
</g>
<!-- Node13 -->
<g id="node13" class="node">
<title>Node13</title>
<g id="a_node13"><a xlink:href="_motion_angle_8h.html" target="_top" xlink:title=" ">
<polygon fill="white" stroke="black" points="1390.5,-178.5 1390.5,-230.5 1589.5,-230.5 1589.5,-178.5 1390.5,-178.5"/>
<text text-anchor="start" x="1398.5" y="-218.5" font-family="Helvetica,sans-Serif" font-size="10.00">/home/jenkins/agent</text>
<text text-anchor="start" x="1398.5" y="-207.5" font-family="Helvetica,sans-Serif" font-size="10.00">/workspace/ild&#45;documentation</text>
<text text-anchor="start" x="1398.5" y="-196.5" font-family="Helvetica,sans-Serif" font-size="10.00">_release_v3.5.0/sdk/c/ifxMotionAngle</text>
<text text-anchor="middle" x="1490" y="-185.5" font-family="Helvetica,sans-Serif" font-size="10.00">/MotionAngle.h</text>
</a>
</g>
</g>
<!-- Node7&#45;&gt;Node13 -->
<g id="edge16" class="edge">
<title>Node7&#45;&gt;Node13</title>
<path fill="none" stroke="midnightblue" d="M1195.27,-270.94C1250.53,-259.37 1319.51,-244.71 1381,-231 1384.03,-230.32 1387.12,-229.63 1390.23,-228.93"/>
<polygon fill="midnightblue" stroke="midnightblue" points="1194.54,-267.51 1185.47,-272.98 1195.98,-274.36 1194.54,-267.51"/>
</g>
<!-- Node14 -->
<g id="node14" class="node">
<title>Node14</title>
<g id="a_node14"><a xlink:href="_angle_capon_8h.html" target="_top" xlink:title="API for the 1&#45;D Angle Capon algorithm.">
<polygon fill="white" stroke="black" points="705,-89.5 705,-141.5 871,-141.5 871,-89.5 705,-89.5"/>
<text text-anchor="start" x="713" y="-129.5" font-family="Helvetica,sans-Serif" font-size="10.00">/home/jenkins/agent</text>
<text text-anchor="start" x="713" y="-118.5" font-family="Helvetica,sans-Serif" font-size="10.00">/workspace/ild&#45;documentation</text>
<text text-anchor="start" x="713" y="-107.5" font-family="Helvetica,sans-Serif" font-size="10.00">_release_v3.5.0/sdk/c/ifxRadar</text>
<text text-anchor="middle" x="788" y="-96.5" font-family="Helvetica,sans-Serif" font-size="10.00">/AngleCapon.h</text>
</a>
</g>
</g>
<!-- Node7&#45;&gt;Node14 -->
<g id="edge17" class="edge">
<title>Node7&#45;&gt;Node14</title>
<path fill="none" stroke="midnightblue" d="M1032.73,-268.71C1010.41,-258.48 985.23,-245.52 964,-231 935.45,-211.47 935.29,-197.9 907,-178 887.5,-164.29 864.54,-151.69 844.02,-141.52"/>
<polygon fill="midnightblue" stroke="midnightblue" points="1031.54,-272.02 1042.1,-272.93 1034.41,-265.63 1031.54,-272.02"/>
</g>
<!-- Node16 -->
<g id="node16" class="node">
<title>Node16</title>
<g id="a_node16"><a xlink:href="_d_b_f_8h.html" target="_top" xlink:title="API for Digital Beamforming (DBF) algorithm.">
<polygon fill="white" stroke="black" points="992.5,-184 992.5,-225 1189.5,-225 1189.5,-184 992.5,-184"/>
<text text-anchor="start" x="1000.5" y="-213" font-family="Helvetica,sans-Serif" font-size="10.00">/home/jenkins/agent</text>
<text text-anchor="start" x="1000.5" y="-202" font-family="Helvetica,sans-Serif" font-size="10.00">/workspace/ild&#45;documentation</text>
<text text-anchor="middle" x="1091" y="-191" font-family="Helvetica,sans-Serif" font-size="10.00">_release_v3.5.0/sdk/c/ifxRadar/DBF.h</text>
</a>
</g>
</g>
<!-- Node7&#45;&gt;Node16 -->
<g id="edge19" class="edge">
<title>Node7&#45;&gt;Node16</title>
<path fill="none" stroke="midnightblue" d="M1091,-262.44C1091,-250.1 1091,-236.16 1091,-225.16"/>
<polygon fill="midnightblue" stroke="midnightblue" points="1087.5,-262.76 1091,-272.76 1094.5,-262.76 1087.5,-262.76"/>
</g>
<!-- Node17 -->
<g id="node17" class="node">
<title>Node17</title>
<g id="a_node17"><a xlink:href="_range_angle_image_8h.html" target="_top" xlink:title="API for Range Angle Image algorithm.">
<polygon fill="white" stroke="black" points="889,-89.5 889,-141.5 1055,-141.5 1055,-89.5 889,-89.5"/>
<text text-anchor="start" x="897" y="-129.5" font-family="Helvetica,sans-Serif" font-size="10.00">/home/jenkins/agent</text>
<text text-anchor="start" x="897" y="-118.5" font-family="Helvetica,sans-Serif" font-size="10.00">/workspace/ild&#45;documentation</text>
<text text-anchor="start" x="897" y="-107.5" font-family="Helvetica,sans-Serif" font-size="10.00">_release_v3.5.0/sdk/c/ifxRadar</text>
<text text-anchor="middle" x="972" y="-96.5" font-family="Helvetica,sans-Serif" font-size="10.00">/RangeAngleImage.h</text>
</a>
</g>
</g>
<!-- Node7&#45;&gt;Node17 -->
<g id="edge23" class="edge">
<title>Node7&#45;&gt;Node17</title>
<path fill="none" stroke="midnightblue" d="M1025.46,-268.19C1009.06,-259 993.24,-246.82 983,-231 965.75,-204.34 965.68,-166.63 968.11,-141.88"/>
<polygon fill="midnightblue" stroke="midnightblue" points="1024.12,-271.44 1034.6,-272.99 1027.38,-265.24 1024.12,-271.44"/>
</g>
<!-- Node7&#45;&gt;Node18 -->
<g id="edge24" class="edge">
<title>Node7&#45;&gt;Node18</title>
<path fill="none" stroke="midnightblue" d="M1200.52,-280.32C1303.49,-268.62 1461.88,-249.95 1599,-231 1614.13,-228.91 1630.02,-226.59 1645.71,-224.23"/>
<polygon fill="midnightblue" stroke="midnightblue" points="1199.96,-276.86 1190.42,-281.47 1200.75,-283.82 1199.96,-276.86"/>
</g>
<!-- Node7&#45;&gt;Node20 -->
<g id="edge26" class="edge">
<title>Node7&#45;&gt;Node20</title>
<path fill="none" stroke="midnightblue" d="M1200.67,-289.95C1355.14,-285.03 1645.2,-270.87 1889,-231 1898.82,-229.39 1909.08,-227.3 1919.14,-225.01"/>
<polygon fill="midnightblue" stroke="midnightblue" points="1200.12,-286.47 1190.24,-290.28 1200.34,-293.46 1200.12,-286.47"/>
</g>
<!-- Node9 -->
<g id="node9" class="node">
<title>Node9</title>
<g id="a_node9"><a xlink:href="_avian_8h.html" target="_top" xlink:title="Header for ifxAvian.">
<polygon fill="white" stroke="black" points="1276,-0.5 1276,-52.5 1440,-52.5 1440,-0.5 1276,-0.5"/>
<text text-anchor="start" x="1284" y="-40.5" font-family="Helvetica,sans-Serif" font-size="10.00">/home/jenkins/agent</text>
<text text-anchor="start" x="1284" y="-29.5" font-family="Helvetica,sans-Serif" font-size="10.00">/workspace/ild&#45;documentation</text>
<text text-anchor="start" x="1284" y="-18.5" font-family="Helvetica,sans-Serif" font-size="10.00">_release_v3.5.0/sdk/c/ifxAvian</text>
<text text-anchor="middle" x="1358" y="-7.5" font-family="Helvetica,sans-Serif" font-size="10.00">/Avian.h</text>
</a>
</g>
</g>
<!-- Node8&#45;&gt;Node9 -->
<g id="edge10" class="edge">
<title>Node8&#45;&gt;Node9</title>
<path fill="none" stroke="midnightblue" d="M1297.36,-168.28C1302.78,-145.22 1311.1,-114.71 1322,-89 1327.26,-76.58 1334.57,-63.59 1341.23,-52.77"/>
<polygon fill="midnightblue" stroke="midnightblue" points="1293.89,-167.78 1295.08,-178.31 1300.71,-169.33 1293.89,-167.78"/>
</g>
<!-- Node10 -->
<g id="node10" class="node">
<title>Node10</title>
<g id="a_node10"><a xlink:href="_metrics_8h.html" target="_top" xlink:title="API for Metrics.">
<polygon fill="white" stroke="black" points="1331,-89.5 1331,-141.5 1495,-141.5 1495,-89.5 1331,-89.5"/>
<text text-anchor="start" x="1339" y="-129.5" font-family="Helvetica,sans-Serif" font-size="10.00">/home/jenkins/agent</text>
<text text-anchor="start" x="1339" y="-118.5" font-family="Helvetica,sans-Serif" font-size="10.00">/workspace/ild&#45;documentation</text>
<text text-anchor="start" x="1339" y="-107.5" font-family="Helvetica,sans-Serif" font-size="10.00">_release_v3.5.0/sdk/c/ifxAvian</text>
<text text-anchor="middle" x="1413" y="-96.5" font-family="Helvetica,sans-Serif" font-size="10.00">/Metrics.h</text>
</a>
</g>
</g>
<!-- Node8&#45;&gt;Node10 -->
<g id="edge11" class="edge">
<title>Node8&#45;&gt;Node10</title>
<path fill="none" stroke="midnightblue" d="M1333.82,-172.5C1348.15,-162.37 1363.87,-151.25 1377.5,-141.61"/>
<polygon fill="midnightblue" stroke="midnightblue" points="1331.72,-169.7 1325.58,-178.34 1335.76,-175.42 1331.72,-169.7"/>
</g>
<!-- Node11 -->
<g id="node11" class="node">
<title>Node11</title>
<g id="a_node11"><a xlink:href="_device_cw_8h.html" target="_top" xlink:title="Header for Continuous Wave Control.">
<polygon fill="white" stroke="black" points="1111,-89.5 1111,-141.5 1275,-141.5 1275,-89.5 1111,-89.5"/>
<text text-anchor="start" x="1119" y="-129.5" font-family="Helvetica,sans-Serif" font-size="10.00">/home/jenkins/agent</text>
<text text-anchor="start" x="1119" y="-118.5" font-family="Helvetica,sans-Serif" font-size="10.00">/workspace/ild&#45;documentation</text>
<text text-anchor="start" x="1119" y="-107.5" font-family="Helvetica,sans-Serif" font-size="10.00">_release_v3.5.0/sdk/c/ifxCw</text>
<text text-anchor="middle" x="1193" y="-96.5" font-family="Helvetica,sans-Serif" font-size="10.00">/DeviceCw.h</text>
</a>
</g>
</g>
<!-- Node8&#45;&gt;Node11 -->
<g id="edge13" class="edge">
<title>Node8&#45;&gt;Node11</title>
<path fill="none" stroke="midnightblue" d="M1254.49,-171.65C1243.45,-161.75 1231.44,-150.98 1220.99,-141.61"/>
<polygon fill="midnightblue" stroke="midnightblue" points="1252.16,-174.26 1261.94,-178.34 1256.84,-169.05 1252.16,-174.26"/>
</g>
<!-- Node8&#45;&gt;Node12 -->
<g id="edge14" class="edge">
<title>Node8&#45;&gt;Node12</title>
<path fill="none" stroke="midnightblue" d="M1382.13,-177.71C1432.65,-164.12 1479.75,-151.85 1519.88,-141.51"/>
<polygon fill="midnightblue" stroke="midnightblue" points="1381.06,-174.37 1372.32,-180.36 1382.89,-181.13 1381.06,-174.37"/>
</g>
<!-- Node10&#45;&gt;Node9 -->
<g id="edge12" class="edge">
<title>Node10&#45;&gt;Node9</title>
<path fill="none" stroke="midnightblue" d="M1391.59,-80.64C1385.69,-71.31 1379.4,-61.35 1373.87,-52.61"/>
<polygon fill="midnightblue" stroke="midnightblue" points="1388.79,-82.75 1397.09,-89.34 1394.71,-79.01 1388.79,-82.75"/>
</g>
<!-- Node15 -->
<g id="node15" class="node">
<title>Node15</title>
<g id="a_node15"><a xlink:href="_radar_8h.html" target="_top" xlink:title="Header for ifxRadar.">
<polygon fill="white" stroke="black" points="705,-0.5 705,-52.5 871,-52.5 871,-0.5 705,-0.5"/>
<text text-anchor="start" x="713" y="-40.5" font-family="Helvetica,sans-Serif" font-size="10.00">/home/jenkins/agent</text>
<text text-anchor="start" x="713" y="-29.5" font-family="Helvetica,sans-Serif" font-size="10.00">/workspace/ild&#45;documentation</text>
<text text-anchor="start" x="713" y="-18.5" font-family="Helvetica,sans-Serif" font-size="10.00">_release_v3.5.0/sdk/c/ifxRadar</text>
<text text-anchor="middle" x="788" y="-7.5" font-family="Helvetica,sans-Serif" font-size="10.00">/Radar.h</text>
</a>
</g>
</g>
<!-- Node14&#45;&gt;Node15 -->
<g id="edge18" class="edge">
<title>Node14&#45;&gt;Node15</title>
<path fill="none" stroke="midnightblue" d="M788,-79.19C788,-70.28 788,-60.9 788,-52.61"/>
<polygon fill="midnightblue" stroke="midnightblue" points="784.5,-79.34 788,-89.34 791.5,-79.34 784.5,-79.34"/>
</g>
<!-- Node16&#45;&gt;Node15 -->
<g id="edge20" class="edge">
<title>Node16&#45;&gt;Node15</title>
<path fill="none" stroke="midnightblue" d="M1092.21,-173.88C1091.59,-147.96 1086.35,-111.08 1064,-89 1037.02,-62.35 942.08,-45.47 871.03,-36.27"/>
<polygon fill="midnightblue" stroke="midnightblue" points="1088.71,-173.92 1092.24,-183.91 1095.71,-173.9 1088.71,-173.92"/>
</g>
<!-- Node16&#45;&gt;Node17 -->
<g id="edge21" class="edge">
<title>Node16&#45;&gt;Node17</title>
<path fill="none" stroke="midnightblue" d="M1055.91,-177.85C1040.26,-166.4 1021.87,-152.96 1006.31,-141.58"/>
<polygon fill="midnightblue" stroke="midnightblue" points="1054.16,-180.9 1064.29,-183.98 1058.29,-175.25 1054.16,-180.9"/>
</g>
<!-- Node17&#45;&gt;Node15 -->
<g id="edge22" class="edge">
<title>Node17&#45;&gt;Node15</title>
<path fill="none" stroke="midnightblue" d="M909.73,-85.06C887.44,-74.52 862.54,-62.75 841.1,-52.61"/>
<polygon fill="midnightblue" stroke="midnightblue" points="908.24,-88.23 918.78,-89.34 911.24,-81.9 908.24,-88.23"/>
</g>
<!-- Node19 -->
<g id="node19" class="node">
<title>Node19</title>
<g id="a_node19"><a xlink:href="_radar_segmentation_8h.html" target="_top" xlink:title="Header for ifxRadarSegmentation.">
<polygon fill="white" stroke="black" points="1741,-89.5 1741,-141.5 1975,-141.5 1975,-89.5 1741,-89.5"/>
<text text-anchor="start" x="1749" y="-129.5" font-family="Helvetica,sans-Serif" font-size="10.00">/home/jenkins/agent</text>
<text text-anchor="start" x="1749" y="-118.5" font-family="Helvetica,sans-Serif" font-size="10.00">/workspace/ild&#45;documentation</text>
<text text-anchor="start" x="1749" y="-107.5" font-family="Helvetica,sans-Serif" font-size="10.00">_release_v3.5.0/sdk/c/ifxRadarSegmentation</text>
<text text-anchor="middle" x="1858" y="-96.5" font-family="Helvetica,sans-Serif" font-size="10.00">/RadarSegmentation.h</text>
</a>
</g>
</g>
<!-- Node18&#45;&gt;Node19 -->
<g id="edge25" class="edge">
<title>Node18&#45;&gt;Node19</title>
<path fill="none" stroke="midnightblue" d="M1798.09,-171.36C1808.82,-161.54 1820.45,-150.89 1830.58,-141.61"/>
<polygon fill="midnightblue" stroke="midnightblue" points="1795.49,-169 1790.48,-178.34 1800.22,-174.16 1795.49,-169"/>
</g>
<!-- Node21&#45;&gt;Node6 -->
<g id="edge28" class="edge">
<title>Node21&#45;&gt;Node6</title>
<path fill="none" stroke="midnightblue" d="M646.69,-266.13C631.54,-252.95 613.52,-237.27 599.6,-225.16"/>
<polygon fill="midnightblue" stroke="midnightblue" points="644.47,-268.84 654.31,-272.76 649.06,-263.55 644.47,-268.84"/>
</g>
<!-- Node23&#45;&gt;Node15 -->
<g id="edge31" class="edge">
<title>Node23&#45;&gt;Node15</title>
<path fill="none" stroke="midnightblue" d="M727.77,-173.13C715.11,-164.97 703.76,-154.75 696,-142 683.75,-121.88 684.9,-109.78 696,-89 704.06,-73.92 717.63,-61.89 731.92,-52.62"/>
<polygon fill="midnightblue" stroke="midnightblue" points="726.32,-176.35 736.7,-178.46 729.91,-170.33 726.32,-176.35"/>
</g>
<!-- Node23&#45;&gt;Node17 -->
<g id="edge32" class="edge">
<title>Node23&#45;&gt;Node17</title>
<path fill="none" stroke="midnightblue" d="M869.4,-173.35C888.09,-163 908.8,-151.52 926.69,-141.61"/>
<polygon fill="midnightblue" stroke="midnightblue" points="867.46,-170.43 860.41,-178.34 870.85,-176.55 867.46,-170.43"/>
</g>
<!-- Node24&#45;&gt;Node15 -->
<g id="edge34" class="edge">
<title>Node24&#45;&gt;Node15</title>
<path fill="none" stroke="midnightblue" d="M639.45,-85.72C666.84,-74.98 697.69,-62.89 724.15,-52.52"/>
<polygon fill="midnightblue" stroke="midnightblue" points="637.95,-82.55 629.91,-89.45 640.5,-89.06 637.95,-82.55"/>
</g>
</g>
</svg>
