<?xml version="1.0" encoding="UTF-8" standalone="no"?>
<!DOCTYPE svg PUBLIC "-//W3C//DTD SVG 1.1//EN"
 "http://www.w3.org/Graphics/SVG/1.1/DTD/svg11.dtd">
<!-- Generated by graphviz version 2.43.0 (0)
 -->
<!-- Title: /home/jenkins/agent/workspace/ild&#45;documentation_release_v3.5.0/sdk/c/ifxBase/Math.h Pages: 1 -->
<svg width="217pt" height="274pt"
 viewBox="0.00 0.00 217.00 274.00" xmlns="http://www.w3.org/2000/svg" xmlns:xlink="http://www.w3.org/1999/xlink">
<g id="graph0" class="graph" transform="scale(1 1) rotate(0) translate(4 270)">
<title>/home/jenkins/agent/workspace/ild&#45;documentation_release_v3.5.0/sdk/c/ifxBase/Math.h</title>
<polygon fill="white" stroke="transparent" points="-4,4 -4,-270 213,-270 213,4 -4,4"/>
<!-- Node1 -->
<g id="node1" class="node">
<title>Node1</title>
<g id="a_node1"><a xlink:title="API for Mathematical operations.">
<polygon fill="#bfbfbf" stroke="black" points="10,-224.5 10,-265.5 208,-265.5 208,-224.5 10,-224.5"/>
<text text-anchor="start" x="18" y="-253.5" font-family="Helvetica,sans-Serif" font-size="10.00">/home/jenkins/agent</text>
<text text-anchor="start" x="18" y="-242.5" font-family="Helvetica,sans-Serif" font-size="10.00">/workspace/ild&#45;documentation</text>
<text text-anchor="middle" x="109" y="-231.5" font-family="Helvetica,sans-Serif" font-size="10.00">_release_v3.5.0/sdk/c/ifxBase/Math.h</text>
</a>
</g>
</g>
<!-- Node2 -->
<g id="node2" class="node">
<title>Node2</title>
<g id="a_node2"><a xlink:href="_types_8h.html" target="_top" xlink:title="Definitions of data types used within the SDK.">
<polygon fill="white" stroke="black" points="81.5,-56.5 81.5,-75.5 134.5,-75.5 134.5,-56.5 81.5,-56.5"/>
<text text-anchor="middle" x="108" y="-63.5" font-family="Helvetica,sans-Serif" font-size="10.00">Types.h</text>
</a>
</g>
</g>
<!-- Node1&#45;&gt;Node2 -->
<g id="edge1" class="edge">
<title>Node1&#45;&gt;Node2</title>
<path fill="none" stroke="midnightblue" d="M105.06,-224.4C103.11,-213.69 100.97,-200.17 100,-188 97.11,-151.75 101.76,-109.33 105.09,-85.57"/>
<polygon fill="midnightblue" stroke="midnightblue" points="108.58,-85.92 106.58,-75.51 101.66,-84.89 108.58,-85.92"/>
</g>
<!-- Node6 -->
<g id="node6" class="node">
<title>Node6</title>
<g id="a_node6"><a xlink:href="_vector_8h.html" target="_top" xlink:title="API for operations on Vector data structures.">
<polygon fill="white" stroke="black" points="109,-168.5 109,-187.5 165,-187.5 165,-168.5 109,-168.5"/>
<text text-anchor="middle" x="137" y="-175.5" font-family="Helvetica,sans-Serif" font-size="10.00">Vector.h</text>
</a>
</g>
</g>
<!-- Node1&#45;&gt;Node6 -->
<g id="edge5" class="edge">
<title>Node1&#45;&gt;Node6</title>
<path fill="none" stroke="midnightblue" d="M117.4,-224.5C121.16,-215.78 125.56,-205.56 129.24,-197.02"/>
<polygon fill="midnightblue" stroke="midnightblue" points="132.53,-198.22 133.27,-187.65 126.1,-195.45 132.53,-198.22"/>
</g>
<!-- Node3 -->
<g id="node3" class="node">
<title>Node3</title>
<g id="a_node3"><a xlink:title=" ">
<polygon fill="white" stroke="#bfbfbf" points="0,-0.5 0,-19.5 62,-19.5 62,-0.5 0,-0.5"/>
<text text-anchor="middle" x="31" y="-7.5" font-family="Helvetica,sans-Serif" font-size="10.00">stdbool.h</text>
</a>
</g>
</g>
<!-- Node2&#45;&gt;Node3 -->
<g id="edge2" class="edge">
<title>Node2&#45;&gt;Node3</title>
<path fill="none" stroke="midnightblue" d="M95.63,-56.32C83.84,-48.06 65.87,-35.45 51.86,-25.63"/>
<polygon fill="midnightblue" stroke="midnightblue" points="53.54,-22.53 43.34,-19.65 49.52,-28.26 53.54,-22.53"/>
</g>
<!-- Node4 -->
<g id="node4" class="node">
<title>Node4</title>
<g id="a_node4"><a xlink:title=" ">
<polygon fill="white" stroke="#bfbfbf" points="80,-0.5 80,-19.5 136,-19.5 136,-0.5 80,-0.5"/>
<text text-anchor="middle" x="108" y="-7.5" font-family="Helvetica,sans-Serif" font-size="10.00">stddef.h</text>
</a>
</g>
</g>
<!-- Node2&#45;&gt;Node4 -->
<g id="edge3" class="edge">
<title>Node2&#45;&gt;Node4</title>
<path fill="none" stroke="midnightblue" d="M108,-56.08C108,-49.01 108,-38.86 108,-29.99"/>
<polygon fill="midnightblue" stroke="midnightblue" points="111.5,-29.75 108,-19.75 104.5,-29.75 111.5,-29.75"/>
</g>
<!-- Node5 -->
<g id="node5" class="node">
<title>Node5</title>
<g id="a_node5"><a xlink:title=" ">
<polygon fill="white" stroke="#bfbfbf" points="154.5,-0.5 154.5,-19.5 207.5,-19.5 207.5,-0.5 154.5,-0.5"/>
<text text-anchor="middle" x="181" y="-7.5" font-family="Helvetica,sans-Serif" font-size="10.00">stdint.h</text>
</a>
</g>
</g>
<!-- Node2&#45;&gt;Node5 -->
<g id="edge4" class="edge">
<title>Node2&#45;&gt;Node5</title>
<path fill="none" stroke="midnightblue" d="M119.73,-56.32C130.84,-48.11 147.74,-35.6 160.98,-25.81"/>
<polygon fill="midnightblue" stroke="midnightblue" points="163.1,-28.59 169.06,-19.83 158.94,-22.97 163.1,-28.59"/>
</g>
<!-- Node6&#45;&gt;Node2 -->
<g id="edge9" class="edge">
<title>Node6&#45;&gt;Node2</title>
<path fill="none" stroke="midnightblue" d="M134.72,-168.37C130.02,-150.54 119.15,-109.3 112.82,-85.27"/>
<polygon fill="midnightblue" stroke="midnightblue" points="116.2,-84.37 110.27,-75.59 109.43,-86.15 116.2,-84.37"/>
</g>
<!-- Node7 -->
<g id="node7" class="node">
<title>Node7</title>
<g id="a_node7"><a xlink:href="_mda_8h.html" target="_top" xlink:title="API for multi&#45;dimensional arrays.">
<polygon fill="white" stroke="black" points="147.5,-112.5 147.5,-131.5 194.5,-131.5 194.5,-112.5 147.5,-112.5"/>
<text text-anchor="middle" x="171" y="-119.5" font-family="Helvetica,sans-Serif" font-size="10.00">Mda.h</text>
</a>
</g>
</g>
<!-- Node6&#45;&gt;Node7 -->
<g id="edge6" class="edge">
<title>Node6&#45;&gt;Node7</title>
<path fill="none" stroke="midnightblue" d="M142.61,-168.08C147.37,-160.53 154.32,-149.49 160.15,-140.23"/>
<polygon fill="midnightblue" stroke="midnightblue" points="163.12,-142.08 165.49,-131.75 157.2,-138.35 163.12,-142.08"/>
</g>
<!-- Node7&#45;&gt;Node2 -->
<g id="edge7" class="edge">
<title>Node7&#45;&gt;Node2</title>
<path fill="none" stroke="midnightblue" d="M160.88,-112.32C151.47,-104.26 137.26,-92.08 125.93,-82.37"/>
<polygon fill="midnightblue" stroke="midnightblue" points="128.18,-79.68 118.31,-75.83 123.62,-85 128.18,-79.68"/>
</g>
<!-- Node8 -->
<g id="node8" class="node">
<title>Node8</title>
<g id="a_node8"><a xlink:title=" ">
<polygon fill="white" stroke="#bfbfbf" points="153,-56.5 153,-75.5 209,-75.5 209,-56.5 153,-56.5"/>
<text text-anchor="middle" x="181" y="-63.5" font-family="Helvetica,sans-Serif" font-size="10.00">assert.h</text>
</a>
</g>
</g>
<!-- Node7&#45;&gt;Node8 -->
<g id="edge8" class="edge">
<title>Node7&#45;&gt;Node8</title>
<path fill="none" stroke="midnightblue" d="M172.65,-112.08C173.98,-104.93 175.88,-94.64 177.54,-85.69"/>
<polygon fill="midnightblue" stroke="midnightblue" points="181,-86.22 179.38,-75.75 174.12,-84.95 181,-86.22"/>
</g>
</g>
</svg>
