<?xml version="1.0" encoding="UTF-8" standalone="no"?>
<!DOCTYPE svg PUBLIC "-//W3C//DTD SVG 1.1//EN"
 "http://www.w3.org/Graphics/SVG/1.1/DTD/svg11.dtd">
<!-- Generated by graphviz version 2.43.0 (0)
 -->
<!-- Title: /home/jenkins/agent/workspace/ild&#45;documentation_release_v3.5.0/sdk/c/ifxBase/Matrix.h Pages: 1 -->
<svg width="217pt" height="285pt"
 viewBox="0.00 0.00 217.00 285.00" xmlns="http://www.w3.org/2000/svg" xmlns:xlink="http://www.w3.org/1999/xlink">
<g id="graph0" class="graph" transform="scale(1 1) rotate(0) translate(4 281)">
<title>/home/jenkins/agent/workspace/ild&#45;documentation_release_v3.5.0/sdk/c/ifxBase/Matrix.h</title>
<polygon fill="white" stroke="transparent" points="-4,4 -4,-281 213,-281 213,4 -4,4"/>
<!-- Node1 -->
<g id="node1" class="node">
<title>Node1</title>
<g id="a_node1"><a xlink:title="API for operations on Matrix data structures.">
<polygon fill="#bfbfbf" stroke="black" points="43,-224.5 43,-276.5 207,-276.5 207,-224.5 43,-224.5"/>
<text text-anchor="start" x="51" y="-264.5" font-family="Helvetica,sans-Serif" font-size="10.00">/home/jenkins/agent</text>
<text text-anchor="start" x="51" y="-253.5" font-family="Helvetica,sans-Serif" font-size="10.00">/workspace/ild&#45;documentation</text>
<text text-anchor="start" x="51" y="-242.5" font-family="Helvetica,sans-Serif" font-size="10.00">_release_v3.5.0/sdk/c/ifxBase</text>
<text text-anchor="middle" x="125" y="-231.5" font-family="Helvetica,sans-Serif" font-size="10.00">/Matrix.h</text>
</a>
</g>
</g>
<!-- Node2 -->
<g id="node2" class="node">
<title>Node2</title>
<g id="a_node2"><a xlink:href="_mda_8h.html" target="_top" xlink:title="API for multi&#45;dimensional arrays.">
<polygon fill="white" stroke="black" points="150.5,-112.5 150.5,-131.5 197.5,-131.5 197.5,-112.5 150.5,-112.5"/>
<text text-anchor="middle" x="174" y="-119.5" font-family="Helvetica,sans-Serif" font-size="10.00">Mda.h</text>
</a>
</g>
</g>
<!-- Node1&#45;&gt;Node2 -->
<g id="edge1" class="edge">
<title>Node1&#45;&gt;Node2</title>
<path fill="none" stroke="midnightblue" d="M143.02,-224.22C149.9,-213.5 157.23,-200.58 162,-188 167.66,-173.06 170.71,-155.15 172.32,-141.91"/>
<polygon fill="midnightblue" stroke="midnightblue" points="175.83,-141.99 173.39,-131.68 168.87,-141.26 175.83,-141.99"/>
</g>
<!-- Node3 -->
<g id="node3" class="node">
<title>Node3</title>
<g id="a_node3"><a xlink:href="_types_8h.html" target="_top" xlink:title="Definitions of data types used within the SDK.">
<polygon fill="white" stroke="black" points="81.5,-56.5 81.5,-75.5 134.5,-75.5 134.5,-56.5 81.5,-56.5"/>
<text text-anchor="middle" x="108" y="-63.5" font-family="Helvetica,sans-Serif" font-size="10.00">Types.h</text>
</a>
</g>
</g>
<!-- Node1&#45;&gt;Node3 -->
<g id="edge7" class="edge">
<title>Node1&#45;&gt;Node3</title>
<path fill="none" stroke="midnightblue" d="M105.61,-224.31C98.62,-213.7 91.57,-200.85 88,-188 78.07,-152.24 90.94,-109.08 100.16,-85.18"/>
<polygon fill="midnightblue" stroke="midnightblue" points="103.51,-86.23 104.04,-75.65 97.03,-83.58 103.51,-86.23"/>
</g>
<!-- Node8 -->
<g id="node8" class="node">
<title>Node8</title>
<g id="a_node8"><a xlink:href="_vector_8h.html" target="_top" xlink:title="API for operations on Vector data structures.">
<polygon fill="white" stroke="black" points="97,-168.5 97,-187.5 153,-187.5 153,-168.5 97,-168.5"/>
<text text-anchor="middle" x="125" y="-175.5" font-family="Helvetica,sans-Serif" font-size="10.00">Vector.h</text>
</a>
</g>
</g>
<!-- Node1&#45;&gt;Node8 -->
<g id="edge8" class="edge">
<title>Node1&#45;&gt;Node8</title>
<path fill="none" stroke="midnightblue" d="M125,-224.45C125,-215.73 125,-206.1 125,-197.96"/>
<polygon fill="midnightblue" stroke="midnightblue" points="128.5,-197.7 125,-187.7 121.5,-197.7 128.5,-197.7"/>
</g>
<!-- Node2&#45;&gt;Node3 -->
<g id="edge2" class="edge">
<title>Node2&#45;&gt;Node3</title>
<path fill="none" stroke="midnightblue" d="M163.4,-112.32C153.54,-104.26 138.65,-92.08 126.78,-82.37"/>
<polygon fill="midnightblue" stroke="midnightblue" points="128.75,-79.46 118.8,-75.83 124.32,-84.88 128.75,-79.46"/>
</g>
<!-- Node7 -->
<g id="node7" class="node">
<title>Node7</title>
<g id="a_node7"><a xlink:title=" ">
<polygon fill="white" stroke="#bfbfbf" points="153,-56.5 153,-75.5 209,-75.5 209,-56.5 153,-56.5"/>
<text text-anchor="middle" x="181" y="-63.5" font-family="Helvetica,sans-Serif" font-size="10.00">assert.h</text>
</a>
</g>
</g>
<!-- Node2&#45;&gt;Node7 -->
<g id="edge6" class="edge">
<title>Node2&#45;&gt;Node7</title>
<path fill="none" stroke="midnightblue" d="M175.16,-112.08C176.08,-104.93 177.42,-94.64 178.58,-85.69"/>
<polygon fill="midnightblue" stroke="midnightblue" points="182.05,-86.12 179.87,-75.75 175.11,-85.22 182.05,-86.12"/>
</g>
<!-- Node4 -->
<g id="node4" class="node">
<title>Node4</title>
<g id="a_node4"><a xlink:title=" ">
<polygon fill="white" stroke="#bfbfbf" points="0,-0.5 0,-19.5 62,-19.5 62,-0.5 0,-0.5"/>
<text text-anchor="middle" x="31" y="-7.5" font-family="Helvetica,sans-Serif" font-size="10.00">stdbool.h</text>
</a>
</g>
</g>
<!-- Node3&#45;&gt;Node4 -->
<g id="edge3" class="edge">
<title>Node3&#45;&gt;Node4</title>
<path fill="none" stroke="midnightblue" d="M95.63,-56.32C83.84,-48.06 65.87,-35.45 51.86,-25.63"/>
<polygon fill="midnightblue" stroke="midnightblue" points="53.54,-22.53 43.34,-19.65 49.52,-28.26 53.54,-22.53"/>
</g>
<!-- Node5 -->
<g id="node5" class="node">
<title>Node5</title>
<g id="a_node5"><a xlink:title=" ">
<polygon fill="white" stroke="#bfbfbf" points="80,-0.5 80,-19.5 136,-19.5 136,-0.5 80,-0.5"/>
<text text-anchor="middle" x="108" y="-7.5" font-family="Helvetica,sans-Serif" font-size="10.00">stddef.h</text>
</a>
</g>
</g>
<!-- Node3&#45;&gt;Node5 -->
<g id="edge4" class="edge">
<title>Node3&#45;&gt;Node5</title>
<path fill="none" stroke="midnightblue" d="M108,-56.08C108,-49.01 108,-38.86 108,-29.99"/>
<polygon fill="midnightblue" stroke="midnightblue" points="111.5,-29.75 108,-19.75 104.5,-29.75 111.5,-29.75"/>
</g>
<!-- Node6 -->
<g id="node6" class="node">
<title>Node6</title>
<g id="a_node6"><a xlink:title=" ">
<polygon fill="white" stroke="#bfbfbf" points="154.5,-0.5 154.5,-19.5 207.5,-19.5 207.5,-0.5 154.5,-0.5"/>
<text text-anchor="middle" x="181" y="-7.5" font-family="Helvetica,sans-Serif" font-size="10.00">stdint.h</text>
</a>
</g>
</g>
<!-- Node3&#45;&gt;Node6 -->
<g id="edge5" class="edge">
<title>Node3&#45;&gt;Node6</title>
<path fill="none" stroke="midnightblue" d="M119.73,-56.32C130.84,-48.11 147.74,-35.6 160.98,-25.81"/>
<polygon fill="midnightblue" stroke="midnightblue" points="163.1,-28.59 169.06,-19.83 158.94,-22.97 163.1,-28.59"/>
</g>
<!-- Node8&#45;&gt;Node2 -->
<g id="edge9" class="edge">
<title>Node8&#45;&gt;Node2</title>
<path fill="none" stroke="midnightblue" d="M133.09,-168.08C140.16,-160.3 150.59,-148.8 159.15,-139.37"/>
<polygon fill="midnightblue" stroke="midnightblue" points="161.93,-141.51 166.06,-131.75 156.75,-136.8 161.93,-141.51"/>
</g>
<!-- Node8&#45;&gt;Node3 -->
<g id="edge10" class="edge">
<title>Node8&#45;&gt;Node3</title>
<path fill="none" stroke="midnightblue" d="M123.67,-168.37C120.92,-150.62 114.59,-109.67 110.87,-85.6"/>
<polygon fill="midnightblue" stroke="midnightblue" points="114.31,-84.94 109.33,-75.59 107.4,-86.01 114.31,-84.94"/>
</g>
</g>
</svg>
