<?xml version="1.0" encoding="UTF-8" standalone="no"?>
<!DOCTYPE svg PUBLIC "-//W3C//DTD SVG 1.1//EN"
 "http://www.w3.org/Graphics/SVG/1.1/DTD/svg11.dtd">
<!-- Generated by graphviz version 2.43.0 (0)
 -->
<!-- Title: /home/jenkins/agent/workspace/ild&#45;documentation_release_v3.5.0/sdk/c/ifxBase/Math.h Pages: 1 -->
<svg width="2263pt" height="495pt"
 viewBox="0.00 0.00 2263.02 495.00" xmlns="http://www.w3.org/2000/svg" xmlns:xlink="http://www.w3.org/1999/xlink">
<g id="graph0" class="graph" transform="scale(1 1) rotate(0) translate(4 491)">
<title>/home/jenkins/agent/workspace/ild&#45;documentation_release_v3.5.0/sdk/c/ifxBase/Math.h</title>
<polygon fill="white" stroke="transparent" points="-4,4 -4,-491 2259.02,-491 2259.02,4 -4,4"/>
<!-- Node1 -->
<g id="node1" class="node">
<title>Node1</title>
<g id="a_node1"><a xlink:title="API for Mathematical operations.">
<polygon fill="#bfbfbf" stroke="black" points="1380.02,-445.5 1380.02,-486.5 1578.02,-486.5 1578.02,-445.5 1380.02,-445.5"/>
<text text-anchor="start" x="1388.02" y="-474.5" font-family="Helvetica,sans-Serif" font-size="10.00">/home/jenkins/agent</text>
<text text-anchor="start" x="1388.02" y="-463.5" font-family="Helvetica,sans-Serif" font-size="10.00">/workspace/ild&#45;documentation</text>
<text text-anchor="middle" x="1479.02" y="-452.5" font-family="Helvetica,sans-Serif" font-size="10.00">_release_v3.5.0/sdk/c/ifxBase/Math.h</text>
</a>
</g>
</g>
<!-- Node2 -->
<g id="node2" class="node">
<title>Node2</title>
<g id="a_node2"><a xlink:href="_preprocessed_f_f_t_8h.html" target="_top" xlink:title="API for Pre&#45;processed FFT.">
<polygon fill="white" stroke="black" points="204.02,-267.5 204.02,-319.5 368.02,-319.5 368.02,-267.5 204.02,-267.5"/>
<text text-anchor="start" x="212.02" y="-307.5" font-family="Helvetica,sans-Serif" font-size="10.00">/home/jenkins/agent</text>
<text text-anchor="start" x="212.02" y="-296.5" font-family="Helvetica,sans-Serif" font-size="10.00">/workspace/ild&#45;documentation</text>
<text text-anchor="start" x="212.02" y="-285.5" font-family="Helvetica,sans-Serif" font-size="10.00">_release_v3.5.0/sdk/c/ifxAlgo</text>
<text text-anchor="middle" x="286.02" y="-274.5" font-family="Helvetica,sans-Serif" font-size="10.00">/PreprocessedFFT.h</text>
</a>
</g>
</g>
<!-- Node1&#45;&gt;Node2 -->
<g id="edge1" class="edge">
<title>Node1&#45;&gt;Node2</title>
<path fill="none" stroke="midnightblue" d="M1369.74,-454.42C1268.31,-444.21 1113.21,-427.59 979.02,-409 757.52,-378.32 497.77,-332.84 368.22,-309.51"/>
<polygon fill="midnightblue" stroke="midnightblue" points="1369.4,-457.9 1379.7,-455.42 1370.1,-450.94 1369.4,-457.9"/>
</g>
<!-- Node9 -->
<g id="node9" class="node">
<title>Node9</title>
<g id="a_node9"><a xlink:href="_device_control_8h.html" target="_top" xlink:title="Header for ifxAvian.">
<polygon fill="white" stroke="black" points="1854.02,-178.5 1854.02,-230.5 2018.02,-230.5 2018.02,-178.5 1854.02,-178.5"/>
<text text-anchor="start" x="1862.02" y="-218.5" font-family="Helvetica,sans-Serif" font-size="10.00">/home/jenkins/agent</text>
<text text-anchor="start" x="1862.02" y="-207.5" font-family="Helvetica,sans-Serif" font-size="10.00">/workspace/ild&#45;documentation</text>
<text text-anchor="start" x="1862.02" y="-196.5" font-family="Helvetica,sans-Serif" font-size="10.00">_release_v3.5.0/sdk/c/ifxAvian</text>
<text text-anchor="middle" x="1936.02" y="-185.5" font-family="Helvetica,sans-Serif" font-size="10.00">/DeviceControl.h</text>
</a>
</g>
</g>
<!-- Node1&#45;&gt;Node9 -->
<g id="edge10" class="edge">
<title>Node1&#45;&gt;Node9</title>
<path fill="none" stroke="midnightblue" d="M1555.03,-442.23C1581.29,-433.24 1610.51,-421.94 1636.02,-409 1740.71,-355.91 1852.08,-272.17 1904.84,-230.61"/>
<polygon fill="midnightblue" stroke="midnightblue" points="1553.86,-438.93 1545.5,-445.44 1556.09,-445.56 1553.86,-438.93"/>
</g>
<!-- Node14 -->
<g id="node14" class="node">
<title>Node14</title>
<g id="a_node14"><a xlink:href="_base_8h.html" target="_top" xlink:title="Header for ifxBase.">
<polygon fill="white" stroke="black" points="1600.52,-184 1600.52,-225 1797.52,-225 1797.52,-184 1600.52,-184"/>
<text text-anchor="start" x="1608.52" y="-213" font-family="Helvetica,sans-Serif" font-size="10.00">/home/jenkins/agent</text>
<text text-anchor="start" x="1608.52" y="-202" font-family="Helvetica,sans-Serif" font-size="10.00">/workspace/ild&#45;documentation</text>
<text text-anchor="middle" x="1699.02" y="-191" font-family="Helvetica,sans-Serif" font-size="10.00">_release_v3.5.0/sdk/c/ifxBase/Base.h</text>
</a>
</g>
</g>
<!-- Node1&#45;&gt;Node14 -->
<g id="edge16" class="edge">
<title>Node1&#45;&gt;Node14</title>
<path fill="none" stroke="midnightblue" d="M1534.53,-441.01C1581.72,-417.47 1646.93,-376.82 1680.02,-320 1697.37,-290.23 1700.02,-249.14 1699.87,-225.14"/>
<polygon fill="midnightblue" stroke="midnightblue" points="1532.81,-437.96 1525.35,-445.49 1535.87,-444.25 1532.81,-437.96"/>
</g>
<!-- Node15 -->
<g id="node15" class="node">
<title>Node15</title>
<g id="a_node15"><a xlink:href="_defines_8h.html" target="_top" xlink:title="Internal definitions used by standard math.h functions as Macros, to use float or double precision.">
<polygon fill="white" stroke="black" points="1397.02,-356.5 1397.02,-408.5 1561.02,-408.5 1561.02,-356.5 1397.02,-356.5"/>
<text text-anchor="start" x="1405.02" y="-396.5" font-family="Helvetica,sans-Serif" font-size="10.00">/home/jenkins/agent</text>
<text text-anchor="start" x="1405.02" y="-385.5" font-family="Helvetica,sans-Serif" font-size="10.00">/workspace/ild&#45;documentation</text>
<text text-anchor="start" x="1405.02" y="-374.5" font-family="Helvetica,sans-Serif" font-size="10.00">_release_v3.5.0/sdk/c/ifxBase</text>
<text text-anchor="middle" x="1479.02" y="-363.5" font-family="Helvetica,sans-Serif" font-size="10.00">/Defines.h</text>
</a>
</g>
</g>
<!-- Node1&#45;&gt;Node15 -->
<g id="edge17" class="edge">
<title>Node1&#45;&gt;Node15</title>
<path fill="none" stroke="midnightblue" d="M1479.02,-435.12C1479.02,-426.41 1479.02,-416.99 1479.02,-408.61"/>
<polygon fill="midnightblue" stroke="midnightblue" points="1475.52,-435.27 1479.02,-445.27 1482.52,-435.27 1475.52,-435.27"/>
</g>
<!-- Node25 -->
<g id="node25" class="node">
<title>Node25</title>
<g id="a_node25"><a xlink:href="_spectrum_axis_8h.html" target="_top" xlink:title="API for Spectrum Axis used by Range spectrum, Range Doppler and Range Angle Map modules.">
<polygon fill="white" stroke="black" points="988.02,-356.5 988.02,-408.5 1154.02,-408.5 1154.02,-356.5 988.02,-356.5"/>
<text text-anchor="start" x="996.02" y="-396.5" font-family="Helvetica,sans-Serif" font-size="10.00">/home/jenkins/agent</text>
<text text-anchor="start" x="996.02" y="-385.5" font-family="Helvetica,sans-Serif" font-size="10.00">/workspace/ild&#45;documentation</text>
<text text-anchor="start" x="996.02" y="-374.5" font-family="Helvetica,sans-Serif" font-size="10.00">_release_v3.5.0/sdk/c/ifxRadar</text>
<text text-anchor="middle" x="1071.02" y="-363.5" font-family="Helvetica,sans-Serif" font-size="10.00">/SpectrumAxis.h</text>
</a>
</g>
</g>
<!-- Node1&#45;&gt;Node25 -->
<g id="edge37" class="edge">
<title>Node1&#45;&gt;Node25</title>
<path fill="none" stroke="midnightblue" d="M1371.41,-443.5C1303.42,-429.92 1216.89,-412.64 1154.18,-400.11"/>
<polygon fill="midnightblue" stroke="midnightblue" points="1370.81,-446.95 1381.3,-445.48 1372.18,-440.09 1370.81,-446.95"/>
</g>
<!-- Node3 -->
<g id="node3" class="node">
<title>Node3</title>
<g id="a_node3"><a xlink:href="_algo_8h.html" target="_top" xlink:title="Header for ifxAlgo.">
<polygon fill="white" stroke="black" points="387.52,-184 387.52,-225 580.52,-225 580.52,-184 387.52,-184"/>
<text text-anchor="start" x="395.52" y="-213" font-family="Helvetica,sans-Serif" font-size="10.00">/home/jenkins/agent</text>
<text text-anchor="start" x="395.52" y="-202" font-family="Helvetica,sans-Serif" font-size="10.00">/workspace/ild&#45;documentation</text>
<text text-anchor="middle" x="484.02" y="-191" font-family="Helvetica,sans-Serif" font-size="10.00">_release_v3.5.0/sdk/c/ifxAlgo/Algo.h</text>
</a>
</g>
</g>
<!-- Node2&#45;&gt;Node3 -->
<g id="edge2" class="edge">
<title>Node2&#45;&gt;Node3</title>
<path fill="none" stroke="midnightblue" d="M352.54,-263.27C381.11,-250.72 413.74,-236.38 439.34,-225.13"/>
<polygon fill="midnightblue" stroke="midnightblue" points="350.77,-260.23 343.03,-267.45 353.59,-266.63 350.77,-260.23"/>
</g>
<!-- Node4 -->
<g id="node4" class="node">
<title>Node4</title>
<g id="a_node4"><a xlink:href="_doppler_spectrogram_8h.html" target="_top" xlink:title=" ">
<polygon fill="white" stroke="black" points="19.02,-178.5 19.02,-230.5 185.02,-230.5 185.02,-178.5 19.02,-178.5"/>
<text text-anchor="start" x="27.02" y="-218.5" font-family="Helvetica,sans-Serif" font-size="10.00">/home/jenkins/agent</text>
<text text-anchor="start" x="27.02" y="-207.5" font-family="Helvetica,sans-Serif" font-size="10.00">/workspace/ild&#45;documentation</text>
<text text-anchor="start" x="27.02" y="-196.5" font-family="Helvetica,sans-Serif" font-size="10.00">_release_v3.5.0/sdk/c/ifxRadar</text>
<text text-anchor="middle" x="102.02" y="-185.5" font-family="Helvetica,sans-Serif" font-size="10.00">/DopplerSpectrogram.h</text>
</a>
</g>
</g>
<!-- Node2&#45;&gt;Node4 -->
<g id="edge3" class="edge">
<title>Node2&#45;&gt;Node4</title>
<path fill="none" stroke="midnightblue" d="M223.75,-263.06C201.46,-252.52 176.57,-240.75 155.12,-230.61"/>
<polygon fill="midnightblue" stroke="midnightblue" points="222.27,-266.23 232.8,-267.34 225.26,-259.9 222.27,-266.23"/>
</g>
<!-- Node5 -->
<g id="node5" class="node">
<title>Node5</title>
<g id="a_node5"><a xlink:href="_range_doppler_map_8h.html" target="_top" xlink:title="API for Doppler Spectrogram.">
<polygon fill="white" stroke="black" points="203.02,-178.5 203.02,-230.5 369.02,-230.5 369.02,-178.5 203.02,-178.5"/>
<text text-anchor="start" x="211.02" y="-218.5" font-family="Helvetica,sans-Serif" font-size="10.00">/home/jenkins/agent</text>
<text text-anchor="start" x="211.02" y="-207.5" font-family="Helvetica,sans-Serif" font-size="10.00">/workspace/ild&#45;documentation</text>
<text text-anchor="start" x="211.02" y="-196.5" font-family="Helvetica,sans-Serif" font-size="10.00">_release_v3.5.0/sdk/c/ifxRadar</text>
<text text-anchor="middle" x="286.02" y="-185.5" font-family="Helvetica,sans-Serif" font-size="10.00">/RangeDopplerMap.h</text>
</a>
</g>
</g>
<!-- Node2&#45;&gt;Node5 -->
<g id="edge4" class="edge">
<title>Node2&#45;&gt;Node5</title>
<path fill="none" stroke="midnightblue" d="M286.02,-257.19C286.02,-248.28 286.02,-238.9 286.02,-230.61"/>
<polygon fill="midnightblue" stroke="midnightblue" points="282.52,-257.34 286.02,-267.34 289.52,-257.34 282.52,-257.34"/>
</g>
<!-- Node8 -->
<g id="node8" class="node">
<title>Node8</title>
<g id="a_node8"><a xlink:href="_range_spectrum_8h.html" target="_top" xlink:title="API for Range Spectrum.">
<polygon fill="white" stroke="black" points="26.02,-89.5 26.02,-141.5 192.02,-141.5 192.02,-89.5 26.02,-89.5"/>
<text text-anchor="start" x="34.02" y="-129.5" font-family="Helvetica,sans-Serif" font-size="10.00">/home/jenkins/agent</text>
<text text-anchor="start" x="34.02" y="-118.5" font-family="Helvetica,sans-Serif" font-size="10.00">/workspace/ild&#45;documentation</text>
<text text-anchor="start" x="34.02" y="-107.5" font-family="Helvetica,sans-Serif" font-size="10.00">_release_v3.5.0/sdk/c/ifxRadar</text>
<text text-anchor="middle" x="109.02" y="-96.5" font-family="Helvetica,sans-Serif" font-size="10.00">/RangeSpectrum.h</text>
</a>
</g>
</g>
<!-- Node2&#45;&gt;Node8 -->
<g id="edge8" class="edge">
<title>Node2&#45;&gt;Node8</title>
<path fill="none" stroke="midnightblue" d="M193.56,-284.19C122.56,-275.67 32.89,-259.52 10.02,-231 -4.71,-212.62 -1.42,-198.59 10.02,-178 18.53,-162.7 32.59,-150.72 47.48,-141.56"/>
<polygon fill="midnightblue" stroke="midnightblue" points="193.56,-287.71 203.89,-285.39 194.37,-280.76 193.56,-287.71"/>
</g>
<!-- Node6 -->
<g id="node6" class="node">
<title>Node6</title>
<g id="a_node6"><a xlink:href="_radar_8h.html" target="_top" xlink:title="Header for ifxRadar.">
<polygon fill="white" stroke="black" points="637.02,-0.5 637.02,-52.5 803.02,-52.5 803.02,-0.5 637.02,-0.5"/>
<text text-anchor="start" x="645.02" y="-40.5" font-family="Helvetica,sans-Serif" font-size="10.00">/home/jenkins/agent</text>
<text text-anchor="start" x="645.02" y="-29.5" font-family="Helvetica,sans-Serif" font-size="10.00">/workspace/ild&#45;documentation</text>
<text text-anchor="start" x="645.02" y="-18.5" font-family="Helvetica,sans-Serif" font-size="10.00">_release_v3.5.0/sdk/c/ifxRadar</text>
<text text-anchor="middle" x="720.02" y="-7.5" font-family="Helvetica,sans-Serif" font-size="10.00">/Radar.h</text>
</a>
</g>
</g>
<!-- Node5&#45;&gt;Node6 -->
<g id="edge5" class="edge">
<title>Node5&#45;&gt;Node6</title>
<path fill="none" stroke="midnightblue" d="M357.18,-174.64C440.94,-140.68 578.67,-84.82 658.16,-52.59"/>
<polygon fill="midnightblue" stroke="midnightblue" points="355.7,-171.47 347.74,-178.47 358.33,-177.96 355.7,-171.47"/>
</g>
<!-- Node7 -->
<g id="node7" class="node">
<title>Node7</title>
<g id="a_node7"><a xlink:href="_range_angle_image_8h.html" target="_top" xlink:title="API for Range Angle Image algorithm.">
<polygon fill="white" stroke="black" points="637.02,-89.5 637.02,-141.5 803.02,-141.5 803.02,-89.5 637.02,-89.5"/>
<text text-anchor="start" x="645.02" y="-129.5" font-family="Helvetica,sans-Serif" font-size="10.00">/home/jenkins/agent</text>
<text text-anchor="start" x="645.02" y="-118.5" font-family="Helvetica,sans-Serif" font-size="10.00">/workspace/ild&#45;documentation</text>
<text text-anchor="start" x="645.02" y="-107.5" font-family="Helvetica,sans-Serif" font-size="10.00">_release_v3.5.0/sdk/c/ifxRadar</text>
<text text-anchor="middle" x="720.02" y="-96.5" font-family="Helvetica,sans-Serif" font-size="10.00">/RangeAngleImage.h</text>
</a>
</g>
</g>
<!-- Node5&#45;&gt;Node7 -->
<g id="edge6" class="edge">
<title>Node5&#45;&gt;Node7</title>
<path fill="none" stroke="midnightblue" d="M379.1,-177.83C472.72,-156.79 569.86,-140.02 637.01,-129.22"/>
<polygon fill="midnightblue" stroke="midnightblue" points="378.16,-174.46 369.18,-180.08 379.71,-181.28 378.16,-174.46"/>
</g>
<!-- Node7&#45;&gt;Node6 -->
<g id="edge7" class="edge">
<title>Node7&#45;&gt;Node6</title>
<path fill="none" stroke="midnightblue" d="M720.02,-79.19C720.02,-70.28 720.02,-60.9 720.02,-52.61"/>
<polygon fill="midnightblue" stroke="midnightblue" points="716.52,-79.34 720.02,-89.34 723.52,-79.34 716.52,-79.34"/>
</g>
<!-- Node8&#45;&gt;Node6 -->
<g id="edge9" class="edge">
<title>Node8&#45;&gt;Node6</title>
<path fill="none" stroke="midnightblue" d="M202.2,-101.23C320.59,-84.37 523.17,-55.53 636.68,-39.37"/>
<polygon fill="midnightblue" stroke="midnightblue" points="201.47,-97.8 192.06,-102.68 202.45,-104.73 201.47,-97.8"/>
</g>
<!-- Node10 -->
<g id="node10" class="node">
<title>Node10</title>
<g id="a_node10"><a xlink:href="_avian_8h.html" target="_top" xlink:title="Header for ifxAvian.">
<polygon fill="white" stroke="black" points="1945.02,-0.5 1945.02,-52.5 2109.02,-52.5 2109.02,-0.5 1945.02,-0.5"/>
<text text-anchor="start" x="1953.02" y="-40.5" font-family="Helvetica,sans-Serif" font-size="10.00">/home/jenkins/agent</text>
<text text-anchor="start" x="1953.02" y="-29.5" font-family="Helvetica,sans-Serif" font-size="10.00">/workspace/ild&#45;documentation</text>
<text text-anchor="start" x="1953.02" y="-18.5" font-family="Helvetica,sans-Serif" font-size="10.00">_release_v3.5.0/sdk/c/ifxAvian</text>
<text text-anchor="middle" x="2027.02" y="-7.5" font-family="Helvetica,sans-Serif" font-size="10.00">/Avian.h</text>
</a>
</g>
</g>
<!-- Node9&#45;&gt;Node10 -->
<g id="edge11" class="edge">
<title>Node9&#45;&gt;Node10</title>
<path fill="none" stroke="midnightblue" d="M1911.03,-169.55C1896.77,-145.69 1884.52,-113.74 1900.02,-89 1910.56,-72.19 1927.15,-59.86 1944.9,-50.85"/>
<polygon fill="midnightblue" stroke="midnightblue" points="1908.24,-171.69 1916.55,-178.27 1914.16,-167.95 1908.24,-171.69"/>
</g>
<!-- Node11 -->
<g id="node11" class="node">
<title>Node11</title>
<g id="a_node11"><a xlink:href="_metrics_8h.html" target="_top" xlink:title="API for Metrics.">
<polygon fill="white" stroke="black" points="2091.02,-89.5 2091.02,-141.5 2255.02,-141.5 2255.02,-89.5 2091.02,-89.5"/>
<text text-anchor="start" x="2099.02" y="-129.5" font-family="Helvetica,sans-Serif" font-size="10.00">/home/jenkins/agent</text>
<text text-anchor="start" x="2099.02" y="-118.5" font-family="Helvetica,sans-Serif" font-size="10.00">/workspace/ild&#45;documentation</text>
<text text-anchor="start" x="2099.02" y="-107.5" font-family="Helvetica,sans-Serif" font-size="10.00">_release_v3.5.0/sdk/c/ifxAvian</text>
<text text-anchor="middle" x="2173.02" y="-96.5" font-family="Helvetica,sans-Serif" font-size="10.00">/Metrics.h</text>
</a>
</g>
</g>
<!-- Node9&#45;&gt;Node11 -->
<g id="edge12" class="edge">
<title>Node9&#45;&gt;Node11</title>
<path fill="none" stroke="midnightblue" d="M2013.67,-175C2043.1,-164.19 2076.37,-151.98 2104.86,-141.52"/>
<polygon fill="midnightblue" stroke="midnightblue" points="2012.44,-171.72 2004.26,-178.45 2014.85,-178.29 2012.44,-171.72"/>
</g>
<!-- Node12 -->
<g id="node12" class="node">
<title>Node12</title>
<g id="a_node12"><a xlink:href="_device_cw_8h.html" target="_top" xlink:title="Header for Continuous Wave Control.">
<polygon fill="white" stroke="black" points="1909.02,-89.5 1909.02,-141.5 2073.02,-141.5 2073.02,-89.5 1909.02,-89.5"/>
<text text-anchor="start" x="1917.02" y="-129.5" font-family="Helvetica,sans-Serif" font-size="10.00">/home/jenkins/agent</text>
<text text-anchor="start" x="1917.02" y="-118.5" font-family="Helvetica,sans-Serif" font-size="10.00">/workspace/ild&#45;documentation</text>
<text text-anchor="start" x="1917.02" y="-107.5" font-family="Helvetica,sans-Serif" font-size="10.00">_release_v3.5.0/sdk/c/ifxCw</text>
<text text-anchor="middle" x="1991.02" y="-96.5" font-family="Helvetica,sans-Serif" font-size="10.00">/DeviceCw.h</text>
</a>
</g>
</g>
<!-- Node9&#45;&gt;Node12 -->
<g id="edge14" class="edge">
<title>Node9&#45;&gt;Node12</title>
<path fill="none" stroke="midnightblue" d="M1957.43,-169.64C1963.33,-160.31 1969.62,-150.35 1975.15,-141.61"/>
<polygon fill="midnightblue" stroke="midnightblue" points="1954.32,-168.01 1951.93,-178.34 1960.23,-171.75 1954.32,-168.01"/>
</g>
<!-- Node13 -->
<g id="node13" class="node">
<title>Node13</title>
<g id="a_node13"><a xlink:href="_presence_sensing_8h.html" target="_top" xlink:title=" ">
<polygon fill="white" stroke="black" points="1643.02,-89.5 1643.02,-141.5 1853.02,-141.5 1853.02,-89.5 1643.02,-89.5"/>
<text text-anchor="start" x="1651.02" y="-129.5" font-family="Helvetica,sans-Serif" font-size="10.00">/home/jenkins/agent</text>
<text text-anchor="start" x="1651.02" y="-118.5" font-family="Helvetica,sans-Serif" font-size="10.00">/workspace/ild&#45;documentation</text>
<text text-anchor="start" x="1651.02" y="-107.5" font-family="Helvetica,sans-Serif" font-size="10.00">_release_v3.5.0/sdk/c/ifxRadarPresence</text>
<text text-anchor="middle" x="1748.02" y="-96.5" font-family="Helvetica,sans-Serif" font-size="10.00">Sensing/PresenceSensing.h</text>
</a>
</g>
</g>
<!-- Node9&#45;&gt;Node13 -->
<g id="edge15" class="edge">
<title>Node9&#45;&gt;Node13</title>
<path fill="none" stroke="midnightblue" d="M1872.61,-174.15C1849.72,-163.56 1824.11,-151.71 1802.09,-141.52"/>
<polygon fill="midnightblue" stroke="midnightblue" points="1871.35,-177.43 1881.9,-178.45 1874.29,-171.08 1871.35,-177.43"/>
</g>
<!-- Node11&#45;&gt;Node10 -->
<g id="edge13" class="edge">
<title>Node11&#45;&gt;Node10</title>
<path fill="none" stroke="midnightblue" d="M2121.96,-84.07C2104.7,-73.79 2085.64,-62.43 2069.16,-52.61"/>
<polygon fill="midnightblue" stroke="midnightblue" points="2120.41,-87.22 2130.79,-89.34 2124,-81.21 2120.41,-87.22"/>
</g>
<!-- Node15&#45;&gt;Node14 -->
<g id="edge18" class="edge">
<title>Node15&#45;&gt;Node14</title>
<path fill="none" stroke="midnightblue" d="M1475.76,-346.28C1475.4,-321.29 1479.21,-288.49 1498.02,-267 1506.63,-257.17 1568.54,-239.08 1621.41,-225.06"/>
<polygon fill="midnightblue" stroke="midnightblue" points="1472.26,-346.59 1476.13,-356.46 1479.26,-346.34 1472.26,-346.59"/>
</g>
<!-- Node16 -->
<g id="node16" class="node">
<title>Node16</title>
<g id="a_node16"><a xlink:href="_complex_8h.html" target="_top" xlink:title="API for operations on complex numbers.">
<polygon fill="white" stroke="black" points="1507.02,-267.5 1507.02,-319.5 1671.02,-319.5 1671.02,-267.5 1507.02,-267.5"/>
<text text-anchor="start" x="1515.02" y="-307.5" font-family="Helvetica,sans-Serif" font-size="10.00">/home/jenkins/agent</text>
<text text-anchor="start" x="1515.02" y="-296.5" font-family="Helvetica,sans-Serif" font-size="10.00">/workspace/ild&#45;documentation</text>
<text text-anchor="start" x="1515.02" y="-285.5" font-family="Helvetica,sans-Serif" font-size="10.00">_release_v3.5.0/sdk/c/ifxBase</text>
<text text-anchor="middle" x="1589.02" y="-274.5" font-family="Helvetica,sans-Serif" font-size="10.00">/Complex.h</text>
</a>
</g>
</g>
<!-- Node15&#45;&gt;Node16 -->
<g id="edge19" class="edge">
<title>Node15&#45;&gt;Node16</title>
<path fill="none" stroke="midnightblue" d="M1518.93,-349.93C1531.55,-339.96 1545.31,-329.07 1557.28,-319.61"/>
<polygon fill="midnightblue" stroke="midnightblue" points="1516.51,-347.39 1510.84,-356.34 1520.85,-352.88 1516.51,-347.39"/>
</g>
<!-- Node19 -->
<g id="node19" class="node">
<title>Node19</title>
<g id="a_node19"><a xlink:href="_cube_8h.html" target="_top" xlink:title="API for operations on Cube data structures.">
<polygon fill="white" stroke="black" points="1164.02,-273 1164.02,-314 1362.02,-314 1362.02,-273 1164.02,-273"/>
<text text-anchor="start" x="1172.02" y="-302" font-family="Helvetica,sans-Serif" font-size="10.00">/home/jenkins/agent</text>
<text text-anchor="start" x="1172.02" y="-291" font-family="Helvetica,sans-Serif" font-size="10.00">/workspace/ild&#45;documentation</text>
<text text-anchor="middle" x="1263.02" y="-280" font-family="Helvetica,sans-Serif" font-size="10.00">_release_v3.5.0/sdk/c/ifxBase/Cube.h</text>
</a>
</g>
</g>
<!-- Node15&#45;&gt;Node19 -->
<g id="edge24" class="edge">
<title>Node15&#45;&gt;Node19</title>
<path fill="none" stroke="midnightblue" d="M1407.27,-352.6C1375.91,-339.97 1339.94,-325.48 1311.77,-314.13"/>
<polygon fill="midnightblue" stroke="midnightblue" points="1406.25,-355.96 1416.84,-356.45 1408.87,-349.47 1406.25,-355.96"/>
</g>
<!-- Node16&#45;&gt;Node14 -->
<g id="edge20" class="edge">
<title>Node16&#45;&gt;Node14</title>
<path fill="none" stroke="midnightblue" d="M1629.04,-260.85C1644.17,-248.88 1660.94,-235.62 1674.26,-225.08"/>
<polygon fill="midnightblue" stroke="midnightblue" points="1626.51,-258.39 1620.84,-267.34 1630.85,-263.88 1626.51,-258.39"/>
</g>
<!-- Node17 -->
<g id="node17" class="node">
<title>Node17</title>
<g id="a_node17"><a xlink:href="_angle_monopulse_8h.html" target="_top" xlink:title="API for Phase Monopulse algorithm.">
<polygon fill="white" stroke="black" points="1456.02,-89.5 1456.02,-141.5 1622.02,-141.5 1622.02,-89.5 1456.02,-89.5"/>
<text text-anchor="start" x="1464.02" y="-129.5" font-family="Helvetica,sans-Serif" font-size="10.00">/home/jenkins/agent</text>
<text text-anchor="start" x="1464.02" y="-118.5" font-family="Helvetica,sans-Serif" font-size="10.00">/workspace/ild&#45;documentation</text>
<text text-anchor="start" x="1464.02" y="-107.5" font-family="Helvetica,sans-Serif" font-size="10.00">_release_v3.5.0/sdk/c/ifxRadar</text>
<text text-anchor="middle" x="1539.02" y="-96.5" font-family="Helvetica,sans-Serif" font-size="10.00">/AngleMonopulse.h</text>
</a>
</g>
</g>
<!-- Node16&#45;&gt;Node17 -->
<g id="edge21" class="edge">
<title>Node16&#45;&gt;Node17</title>
<path fill="none" stroke="midnightblue" d="M1681.07,-277.92C1733.28,-267.56 1791.28,-251.8 1807.02,-231 1821.24,-212.22 1821.89,-196.27 1807.02,-178 1757.47,-117.07 1710.42,-160.19 1634.02,-142 1630.12,-141.07 1626.13,-140.1 1622.11,-139.1"/>
<polygon fill="midnightblue" stroke="midnightblue" points="1680.21,-274.52 1671.06,-279.86 1681.54,-281.39 1680.21,-274.52"/>
</g>
<!-- Node18 -->
<g id="node18" class="node">
<title>Node18</title>
<g id="a_node18"><a xlink:href="_util_8h.html" target="_top" xlink:title="This file defines some utility functions like printing to, reading from files or printing to console.">
<polygon fill="white" stroke="black" points="1398.02,-184 1398.02,-225 1582.02,-225 1582.02,-184 1398.02,-184"/>
<text text-anchor="start" x="1406.02" y="-213" font-family="Helvetica,sans-Serif" font-size="10.00">/home/jenkins/agent</text>
<text text-anchor="start" x="1406.02" y="-202" font-family="Helvetica,sans-Serif" font-size="10.00">/workspace/ild&#45;documentation</text>
<text text-anchor="middle" x="1490.02" y="-191" font-family="Helvetica,sans-Serif" font-size="10.00">_release_v3.5.0/sdk/c/ifxUtil/Util.h</text>
</a>
</g>
</g>
<!-- Node16&#45;&gt;Node18 -->
<g id="edge23" class="edge">
<title>Node16&#45;&gt;Node18</title>
<path fill="none" stroke="midnightblue" d="M1552.63,-260.51C1539.11,-248.64 1524.19,-235.53 1512.31,-225.08"/>
<polygon fill="midnightblue" stroke="midnightblue" points="1550.57,-263.36 1560.39,-267.34 1555.19,-258.11 1550.57,-263.36"/>
</g>
<!-- Node17&#45;&gt;Node6 -->
<g id="edge22" class="edge">
<title>Node17&#45;&gt;Node6</title>
<path fill="none" stroke="midnightblue" d="M1445.86,-97.52C1427.08,-94.42 1407.45,-91.41 1389.02,-89 1178.83,-61.51 929.89,-42.06 803.17,-33.08"/>
<polygon fill="midnightblue" stroke="midnightblue" points="1445.45,-101 1455.89,-99.2 1446.6,-94.1 1445.45,-101"/>
</g>
<!-- Node19&#45;&gt;Node7 -->
<g id="edge33" class="edge">
<title>Node19&#45;&gt;Node7</title>
<path fill="none" stroke="midnightblue" d="M1153.82,-289C990.67,-282.63 698.95,-266.39 667.02,-231 643.55,-204.98 670.12,-166.76 693.35,-141.75"/>
<polygon fill="midnightblue" stroke="midnightblue" points="1153.77,-292.5 1163.89,-289.39 1154.03,-285.51 1153.77,-292.5"/>
</g>
<!-- Node19&#45;&gt;Node9 -->
<g id="edge25" class="edge">
<title>Node19&#45;&gt;Node9</title>
<path fill="none" stroke="midnightblue" d="M1372.47,-280.62C1518.95,-264.64 1765.26,-237.48 1807.02,-231 1822.25,-228.64 1838.42,-225.75 1853.97,-222.78"/>
<polygon fill="midnightblue" stroke="midnightblue" points="1371.66,-277.19 1362.1,-281.75 1372.42,-284.14 1371.66,-277.19"/>
</g>
<!-- Node19&#45;&gt;Node14 -->
<g id="edge26" class="edge">
<title>Node19&#45;&gt;Node14</title>
<path fill="none" stroke="midnightblue" d="M1372.39,-273.31C1436.29,-261.77 1518.39,-246.38 1591.02,-231 1599.79,-229.14 1608.93,-227.12 1618.03,-225.05"/>
<polygon fill="midnightblue" stroke="midnightblue" points="1371.52,-269.91 1362.3,-275.13 1372.76,-276.8 1371.52,-269.91"/>
</g>
<!-- Node19&#45;&gt;Node18 -->
<g id="edge36" class="edge">
<title>Node19&#45;&gt;Node18</title>
<path fill="none" stroke="midnightblue" d="M1323.38,-269.37C1359.39,-255.57 1404.61,-238.23 1438.86,-225.11"/>
<polygon fill="midnightblue" stroke="midnightblue" points="1322.05,-266.13 1313.97,-272.98 1324.56,-272.66 1322.05,-266.13"/>
</g>
<!-- Node20 -->
<g id="node20" class="node">
<title>Node20</title>
<g id="a_node20"><a xlink:href="_motion_angle_8h.html" target="_top" xlink:title=" ">
<polygon fill="white" stroke="black" points="675.52,-178.5 675.52,-230.5 874.52,-230.5 874.52,-178.5 675.52,-178.5"/>
<text text-anchor="start" x="683.52" y="-218.5" font-family="Helvetica,sans-Serif" font-size="10.00">/home/jenkins/agent</text>
<text text-anchor="start" x="683.52" y="-207.5" font-family="Helvetica,sans-Serif" font-size="10.00">/workspace/ild&#45;documentation</text>
<text text-anchor="start" x="683.52" y="-196.5" font-family="Helvetica,sans-Serif" font-size="10.00">_release_v3.5.0/sdk/c/ifxMotionAngle</text>
<text text-anchor="middle" x="775.02" y="-185.5" font-family="Helvetica,sans-Serif" font-size="10.00">/MotionAngle.h</text>
</a>
</g>
</g>
<!-- Node19&#45;&gt;Node20 -->
<g id="edge27" class="edge">
<title>Node19&#45;&gt;Node20</title>
<path fill="none" stroke="midnightblue" d="M1153.68,-276.8C1077.78,-265.4 974.45,-248.89 884.02,-231 880.97,-230.4 877.88,-229.77 874.76,-229.12"/>
<polygon fill="midnightblue" stroke="midnightblue" points="1153.33,-280.28 1163.74,-278.3 1154.36,-273.36 1153.33,-280.28"/>
</g>
<!-- Node21 -->
<g id="node21" class="node">
<title>Node21</title>
<g id="a_node21"><a xlink:href="_angle_capon_8h.html" target="_top" xlink:title="API for the 1&#45;D Angle Capon algorithm.">
<polygon fill="white" stroke="black" points="936.02,-89.5 936.02,-141.5 1102.02,-141.5 1102.02,-89.5 936.02,-89.5"/>
<text text-anchor="start" x="944.02" y="-129.5" font-family="Helvetica,sans-Serif" font-size="10.00">/home/jenkins/agent</text>
<text text-anchor="start" x="944.02" y="-118.5" font-family="Helvetica,sans-Serif" font-size="10.00">/workspace/ild&#45;documentation</text>
<text text-anchor="start" x="944.02" y="-107.5" font-family="Helvetica,sans-Serif" font-size="10.00">_release_v3.5.0/sdk/c/ifxRadar</text>
<text text-anchor="middle" x="1019.02" y="-96.5" font-family="Helvetica,sans-Serif" font-size="10.00">/AngleCapon.h</text>
</a>
</g>
</g>
<!-- Node19&#45;&gt;Node21 -->
<g id="edge28" class="edge">
<title>Node19&#45;&gt;Node21</title>
<path fill="none" stroke="midnightblue" d="M1199.39,-268.86C1178.18,-259.13 1155.33,-246.46 1137.02,-231 1114.88,-212.3 1119.17,-198.83 1099.02,-178 1086.24,-164.78 1070.48,-152.06 1056.34,-141.65"/>
<polygon fill="midnightblue" stroke="midnightblue" points="1198.11,-272.12 1208.67,-272.98 1200.95,-265.72 1198.11,-272.12"/>
</g>
<!-- Node22 -->
<g id="node22" class="node">
<title>Node22</title>
<g id="a_node22"><a xlink:href="_d_b_f_8h.html" target="_top" xlink:title="API for Digital Beamforming (DBF) algorithm.">
<polygon fill="white" stroke="black" points="892.52,-184 892.52,-225 1089.52,-225 1089.52,-184 892.52,-184"/>
<text text-anchor="start" x="900.52" y="-213" font-family="Helvetica,sans-Serif" font-size="10.00">/home/jenkins/agent</text>
<text text-anchor="start" x="900.52" y="-202" font-family="Helvetica,sans-Serif" font-size="10.00">/workspace/ild&#45;documentation</text>
<text text-anchor="middle" x="991.02" y="-191" font-family="Helvetica,sans-Serif" font-size="10.00">_release_v3.5.0/sdk/c/ifxRadar/DBF.h</text>
</a>
</g>
</g>
<!-- Node19&#45;&gt;Node22 -->
<g id="edge30" class="edge">
<title>Node19&#45;&gt;Node22</title>
<path fill="none" stroke="midnightblue" d="M1192.34,-269.89C1148.94,-256.01 1093.89,-238.4 1052.33,-225.11"/>
<polygon fill="midnightblue" stroke="midnightblue" points="1191.39,-273.26 1201.98,-272.98 1193.52,-266.6 1191.39,-273.26"/>
</g>
<!-- Node23 -->
<g id="node23" class="node">
<title>Node23</title>
<g id="a_node23"><a xlink:href="_segmentation_8h.html" target="_top" xlink:title="API for Segmentation and Seamless Tracking algorithm.">
<polygon fill="white" stroke="black" points="1146.02,-178.5 1146.02,-230.5 1380.02,-230.5 1380.02,-178.5 1146.02,-178.5"/>
<text text-anchor="start" x="1154.02" y="-218.5" font-family="Helvetica,sans-Serif" font-size="10.00">/home/jenkins/agent</text>
<text text-anchor="start" x="1154.02" y="-207.5" font-family="Helvetica,sans-Serif" font-size="10.00">/workspace/ild&#45;documentation</text>
<text text-anchor="start" x="1154.02" y="-196.5" font-family="Helvetica,sans-Serif" font-size="10.00">_release_v3.5.0/sdk/c/ifxRadarSegmentation</text>
<text text-anchor="middle" x="1263.02" y="-185.5" font-family="Helvetica,sans-Serif" font-size="10.00">/Segmentation.h</text>
</a>
</g>
</g>
<!-- Node19&#45;&gt;Node23 -->
<g id="edge34" class="edge">
<title>Node19&#45;&gt;Node23</title>
<path fill="none" stroke="midnightblue" d="M1263.02,-262.51C1263.02,-252.17 1263.02,-240.71 1263.02,-230.79"/>
<polygon fill="midnightblue" stroke="midnightblue" points="1259.52,-262.76 1263.02,-272.76 1266.52,-262.76 1259.52,-262.76"/>
</g>
<!-- Node21&#45;&gt;Node6 -->
<g id="edge29" class="edge">
<title>Node21&#45;&gt;Node6</title>
<path fill="none" stroke="midnightblue" d="M925.89,-87.4C886.61,-75.97 841.25,-62.77 803.12,-51.68"/>
<polygon fill="midnightblue" stroke="midnightblue" points="925.16,-90.83 935.74,-90.27 927.11,-84.11 925.16,-90.83"/>
</g>
<!-- Node22&#45;&gt;Node6 -->
<g id="edge31" class="edge">
<title>Node22&#45;&gt;Node6</title>
<path fill="none" stroke="midnightblue" d="M952.47,-178.46C901.05,-145.06 810.51,-86.27 758.92,-52.76"/>
<polygon fill="midnightblue" stroke="midnightblue" points="950.69,-181.48 960.99,-183.99 954.51,-175.61 950.69,-181.48"/>
</g>
<!-- Node22&#45;&gt;Node7 -->
<g id="edge32" class="edge">
<title>Node22&#45;&gt;Node7</title>
<path fill="none" stroke="midnightblue" d="M920.35,-180.81C882.78,-168.75 836.51,-153.9 797.91,-141.5"/>
<polygon fill="midnightblue" stroke="midnightblue" points="919.61,-184.25 930.21,-183.98 921.75,-177.59 919.61,-184.25"/>
</g>
<!-- Node24 -->
<g id="node24" class="node">
<title>Node24</title>
<g id="a_node24"><a xlink:href="_radar_segmentation_8h.html" target="_top" xlink:title="Header for ifxRadarSegmentation.">
<polygon fill="white" stroke="black" points="1146.02,-89.5 1146.02,-141.5 1380.02,-141.5 1380.02,-89.5 1146.02,-89.5"/>
<text text-anchor="start" x="1154.02" y="-129.5" font-family="Helvetica,sans-Serif" font-size="10.00">/home/jenkins/agent</text>
<text text-anchor="start" x="1154.02" y="-118.5" font-family="Helvetica,sans-Serif" font-size="10.00">/workspace/ild&#45;documentation</text>
<text text-anchor="start" x="1154.02" y="-107.5" font-family="Helvetica,sans-Serif" font-size="10.00">_release_v3.5.0/sdk/c/ifxRadarSegmentation</text>
<text text-anchor="middle" x="1263.02" y="-96.5" font-family="Helvetica,sans-Serif" font-size="10.00">/RadarSegmentation.h</text>
</a>
</g>
</g>
<!-- Node23&#45;&gt;Node24 -->
<g id="edge35" class="edge">
<title>Node23&#45;&gt;Node24</title>
<path fill="none" stroke="midnightblue" d="M1263.02,-168.19C1263.02,-159.28 1263.02,-149.9 1263.02,-141.61"/>
<polygon fill="midnightblue" stroke="midnightblue" points="1259.52,-168.34 1263.02,-178.34 1266.52,-168.34 1259.52,-168.34"/>
</g>
<!-- Node25&#45;&gt;Node6 -->
<g id="edge38" class="edge">
<title>Node25&#45;&gt;Node6</title>
<path fill="none" stroke="midnightblue" d="M977.51,-372.48C882.66,-358.37 738.07,-322.38 653.02,-231 609.37,-184.09 597.82,-145.52 628.02,-89 636.08,-73.92 649.66,-61.89 663.94,-52.62"/>
<polygon fill="midnightblue" stroke="midnightblue" points="977.28,-375.99 987.68,-373.94 978.27,-369.06 977.28,-375.99"/>
</g>
</g>
</svg>
