<?xml version="1.0" encoding="UTF-8" standalone="no"?>
<!DOCTYPE svg PUBLIC "-//W3C//DTD SVG 1.1//EN"
 "http://www.w3.org/Graphics/SVG/1.1/DTD/svg11.dtd">
<!-- Generated by graphviz version 2.43.0 (0)
 -->
<!-- Title: /home/jenkins/agent/workspace/ild&#45;documentation_release_v3.5.0/sdk/c/ifxAvian/Metrics.h Pages: 1 -->
<svg width="892pt" height="520pt"
 viewBox="0.00 0.00 892.00 520.00" xmlns="http://www.w3.org/2000/svg" xmlns:xlink="http://www.w3.org/1999/xlink">
<g id="graph0" class="graph" transform="scale(1 1) rotate(0) translate(4 516)">
<title>/home/jenkins/agent/workspace/ild&#45;documentation_release_v3.5.0/sdk/c/ifxAvian/Metrics.h</title>
<polygon fill="white" stroke="transparent" points="-4,4 -4,-516 888,-516 888,4 -4,4"/>
<!-- Node1 -->
<g id="node1" class="node">
<title>Node1</title>
<g id="a_node1"><a xlink:title="API for Metrics.">
<polygon fill="#bfbfbf" stroke="black" points="339,-459.5 339,-511.5 503,-511.5 503,-459.5 339,-459.5"/>
<text text-anchor="start" x="347" y="-499.5" font-family="Helvetica,sans-Serif" font-size="10.00">/home/jenkins/agent</text>
<text text-anchor="start" x="347" y="-488.5" font-family="Helvetica,sans-Serif" font-size="10.00">/workspace/ild&#45;documentation</text>
<text text-anchor="start" x="347" y="-477.5" font-family="Helvetica,sans-Serif" font-size="10.00">_release_v3.5.0/sdk/c/ifxAvian</text>
<text text-anchor="middle" x="421" y="-466.5" font-family="Helvetica,sans-Serif" font-size="10.00">/Metrics.h</text>
</a>
</g>
</g>
<!-- Node2 -->
<g id="node2" class="node">
<title>Node2</title>
<g id="a_node2"><a xlink:href="_device_control_8h.html" target="_top" xlink:title="Header for ifxAvian.">
<polygon fill="white" stroke="black" points="335.5,-403.5 335.5,-422.5 430.5,-422.5 430.5,-403.5 335.5,-403.5"/>
<text text-anchor="middle" x="383" y="-410.5" font-family="Helvetica,sans-Serif" font-size="10.00">DeviceControl.h</text>
</a>
</g>
</g>
<!-- Node1&#45;&gt;Node2 -->
<g id="edge1" class="edge">
<title>Node1&#45;&gt;Node2</title>
<path fill="none" stroke="midnightblue" d="M407.5,-459.45C402.53,-450.23 397.01,-440 392.47,-431.58"/>
<polygon fill="midnightblue" stroke="midnightblue" points="395.51,-429.84 387.69,-422.7 389.35,-433.16 395.51,-429.84"/>
</g>
<!-- Node23 -->
<g id="node23" class="node">
<title>Node23</title>
<g id="a_node23"><a xlink:href="_metrics_fmcw_8h.html" target="_top" xlink:title="API for MetricsFmcw.">
<polygon fill="white" stroke="black" points="562.5,-291.5 562.5,-310.5 697.5,-310.5 697.5,-291.5 562.5,-291.5"/>
<text text-anchor="middle" x="630" y="-298.5" font-family="Helvetica,sans-Serif" font-size="10.00">ifxFmcw/MetricsFmcw.h</text>
</a>
</g>
</g>
<!-- Node1&#45;&gt;Node23 -->
<g id="edge37" class="edge">
<title>Node1&#45;&gt;Node23</title>
<path fill="none" stroke="midnightblue" d="M450.06,-459.12C494.09,-420.68 576.37,-348.83 612.37,-317.39"/>
<polygon fill="midnightblue" stroke="midnightblue" points="614.86,-319.86 620.1,-310.65 610.26,-314.59 614.86,-319.86"/>
</g>
<!-- Node3 -->
<g id="node3" class="node">
<title>Node3</title>
<g id="a_node3"><a xlink:href="_device_config_8h.html" target="_top" xlink:title="API for Radar device configuration.">
<polygon fill="white" stroke="black" points="349,-235.5 349,-254.5 439,-254.5 439,-235.5 349,-235.5"/>
<text text-anchor="middle" x="394" y="-242.5" font-family="Helvetica,sans-Serif" font-size="10.00">DeviceConfig.h</text>
</a>
</g>
</g>
<!-- Node2&#45;&gt;Node3 -->
<g id="edge2" class="edge">
<title>Node2&#45;&gt;Node3</title>
<path fill="none" stroke="midnightblue" d="M383.59,-403.08C385.32,-376.95 390.41,-300.21 392.77,-264.58"/>
<polygon fill="midnightblue" stroke="midnightblue" points="396.26,-264.78 393.43,-254.57 389.28,-264.31 396.26,-264.78"/>
</g>
<!-- Node10 -->
<g id="node10" class="node">
<title>Node10</title>
<g id="a_node10"><a xlink:href="_cube_8h.html" target="_top" xlink:title="API for operations on Cube data structures.">
<polygon fill="white" stroke="black" points="66,-347.5 66,-366.5 156,-366.5 156,-347.5 66,-347.5"/>
<text text-anchor="middle" x="111" y="-354.5" font-family="Helvetica,sans-Serif" font-size="10.00">ifxBase/Cube.h</text>
</a>
</g>
</g>
<!-- Node2&#45;&gt;Node10 -->
<g id="edge10" class="edge">
<title>Node2&#45;&gt;Node10</title>
<path fill="none" stroke="midnightblue" d="M339.9,-403.44C292.15,-393.96 215.14,-378.67 163.81,-368.48"/>
<polygon fill="midnightblue" stroke="midnightblue" points="164.39,-365.03 153.9,-366.52 163.02,-371.9 164.39,-365.03"/>
</g>
<!-- Node12 -->
<g id="node12" class="node">
<title>Node12</title>
<g id="a_node12"><a xlink:href="_math_8h.html" target="_top" xlink:title="API for Mathematical operations.">
<polygon fill="white" stroke="black" points="139.5,-235.5 139.5,-254.5 190.5,-254.5 190.5,-235.5 139.5,-235.5"/>
<text text-anchor="middle" x="165" y="-242.5" font-family="Helvetica,sans-Serif" font-size="10.00">math.h</text>
</a>
</g>
</g>
<!-- Node2&#45;&gt;Node12 -->
<g id="edge24" class="edge">
<title>Node2&#45;&gt;Node12</title>
<path fill="none" stroke="midnightblue" d="M371.59,-403.31C336.27,-376.42 228.5,-294.35 184.26,-260.67"/>
<polygon fill="midnightblue" stroke="midnightblue" points="186.38,-257.88 176.3,-254.61 182.14,-263.45 186.38,-257.88"/>
</g>
<!-- Node17 -->
<g id="node17" class="node">
<title>Node17</title>
<g id="a_node17"><a xlink:href="_device_fmcw_8h.html" target="_top" xlink:title="For details refer to FMCW Device Control.">
<polygon fill="white" stroke="black" points="411.5,-291.5 411.5,-310.5 544.5,-310.5 544.5,-291.5 411.5,-291.5"/>
<text text-anchor="middle" x="478" y="-298.5" font-family="Helvetica,sans-Serif" font-size="10.00">ifxFmcw/DeviceFmcw.h</text>
</a>
</g>
</g>
<!-- Node2&#45;&gt;Node17 -->
<g id="edge25" class="edge">
<title>Node2&#45;&gt;Node17</title>
<path fill="none" stroke="midnightblue" d="M390.45,-403.37C406.27,-385.05 443.41,-342.05 463.87,-318.36"/>
<polygon fill="midnightblue" stroke="midnightblue" points="466.69,-320.45 470.58,-310.59 461.4,-315.87 466.69,-320.45"/>
</g>
<!-- Node4 -->
<g id="node4" class="node">
<title>Node4</title>
<g id="a_node4"><a xlink:href="_types_8h.html" target="_top" xlink:title="Definitions of data types used within the SDK.">
<polygon fill="white" stroke="black" points="423.5,-56.5 423.5,-75.5 516.5,-75.5 516.5,-56.5 423.5,-56.5"/>
<text text-anchor="middle" x="470" y="-63.5" font-family="Helvetica,sans-Serif" font-size="10.00">ifxBase/Types.h</text>
</a>
</g>
</g>
<!-- Node3&#45;&gt;Node4 -->
<g id="edge3" class="edge">
<title>Node3&#45;&gt;Node4</title>
<path fill="none" stroke="midnightblue" d="M397.67,-235.46C409.37,-208.19 446.05,-122.78 462.21,-85.13"/>
<polygon fill="midnightblue" stroke="midnightblue" points="465.46,-86.44 466.19,-75.87 459.03,-83.68 465.46,-86.44"/>
</g>
<!-- Node8 -->
<g id="node8" class="node">
<title>Node8</title>
<g id="a_node8"><a xlink:href="_device_fmcw_avian_config_8h.html" target="_top" xlink:title="API for Radar device configuration.">
<polygon fill="white" stroke="black" points="213.5,-168.5 213.5,-198.5 368.5,-198.5 368.5,-168.5 213.5,-168.5"/>
<text text-anchor="start" x="221.5" y="-186.5" font-family="Helvetica,sans-Serif" font-size="10.00">ifxFmcw/avian/DeviceFmcw</text>
<text text-anchor="middle" x="291" y="-175.5" font-family="Helvetica,sans-Serif" font-size="10.00">AvianConfig.h</text>
</a>
</g>
</g>
<!-- Node3&#45;&gt;Node8 -->
<g id="edge7" class="edge">
<title>Node3&#45;&gt;Node8</title>
<path fill="none" stroke="midnightblue" d="M379.24,-235.48C364.9,-227.19 342.63,-214.32 324.05,-203.59"/>
<polygon fill="midnightblue" stroke="midnightblue" points="325.68,-200.49 315.28,-198.52 322.18,-206.56 325.68,-200.49"/>
</g>
<!-- Node9 -->
<g id="node9" class="node">
<title>Node9</title>
<g id="a_node9"><a xlink:href="_radar_device_common_8h.html" target="_top" xlink:title="Header for ifxRadarDeviceCommon.">
<polygon fill="white" stroke="black" points="501,-168.5 501,-198.5 637,-198.5 637,-168.5 501,-168.5"/>
<text text-anchor="start" x="509" y="-186.5" font-family="Helvetica,sans-Serif" font-size="10.00">ifxRadarDeviceCommon</text>
<text text-anchor="middle" x="569" y="-175.5" font-family="Helvetica,sans-Serif" font-size="10.00">/RadarDeviceCommon.h</text>
</a>
</g>
</g>
<!-- Node3&#45;&gt;Node9 -->
<g id="edge8" class="edge">
<title>Node3&#45;&gt;Node9</title>
<path fill="none" stroke="midnightblue" d="M419.07,-235.48C444.77,-226.74 485.45,-212.91 517.96,-201.86"/>
<polygon fill="midnightblue" stroke="midnightblue" points="519.41,-205.06 527.76,-198.52 517.16,-198.43 519.41,-205.06"/>
</g>
<!-- Node5 -->
<g id="node5" class="node">
<title>Node5</title>
<g id="a_node5"><a xlink:title=" ">
<polygon fill="white" stroke="#bfbfbf" points="362,-0.5 362,-19.5 424,-19.5 424,-0.5 362,-0.5"/>
<text text-anchor="middle" x="393" y="-7.5" font-family="Helvetica,sans-Serif" font-size="10.00">stdbool.h</text>
</a>
</g>
</g>
<!-- Node4&#45;&gt;Node5 -->
<g id="edge4" class="edge">
<title>Node4&#45;&gt;Node5</title>
<path fill="none" stroke="midnightblue" d="M457.63,-56.32C445.84,-48.06 427.87,-35.45 413.86,-25.63"/>
<polygon fill="midnightblue" stroke="midnightblue" points="415.54,-22.53 405.34,-19.65 411.52,-28.26 415.54,-22.53"/>
</g>
<!-- Node6 -->
<g id="node6" class="node">
<title>Node6</title>
<g id="a_node6"><a xlink:title=" ">
<polygon fill="white" stroke="#bfbfbf" points="442,-0.5 442,-19.5 498,-19.5 498,-0.5 442,-0.5"/>
<text text-anchor="middle" x="470" y="-7.5" font-family="Helvetica,sans-Serif" font-size="10.00">stddef.h</text>
</a>
</g>
</g>
<!-- Node4&#45;&gt;Node6 -->
<g id="edge5" class="edge">
<title>Node4&#45;&gt;Node6</title>
<path fill="none" stroke="midnightblue" d="M470,-56.08C470,-49.01 470,-38.86 470,-29.99"/>
<polygon fill="midnightblue" stroke="midnightblue" points="473.5,-29.75 470,-19.75 466.5,-29.75 473.5,-29.75"/>
</g>
<!-- Node7 -->
<g id="node7" class="node">
<title>Node7</title>
<g id="a_node7"><a xlink:title=" ">
<polygon fill="white" stroke="#bfbfbf" points="516.5,-0.5 516.5,-19.5 569.5,-19.5 569.5,-0.5 516.5,-0.5"/>
<text text-anchor="middle" x="543" y="-7.5" font-family="Helvetica,sans-Serif" font-size="10.00">stdint.h</text>
</a>
</g>
</g>
<!-- Node4&#45;&gt;Node7 -->
<g id="edge6" class="edge">
<title>Node4&#45;&gt;Node7</title>
<path fill="none" stroke="midnightblue" d="M481.73,-56.32C492.84,-48.11 509.74,-35.6 522.98,-25.81"/>
<polygon fill="midnightblue" stroke="midnightblue" points="525.1,-28.59 531.06,-19.83 520.94,-22.97 525.1,-28.59"/>
</g>
<!-- Node9&#45;&gt;Node4 -->
<g id="edge9" class="edge">
<title>Node9&#45;&gt;Node4</title>
<path fill="none" stroke="midnightblue" d="M569.61,-168.37C569.56,-153.03 567.3,-128.52 555,-112 543.75,-96.89 525.9,-86.35 509.45,-79.3"/>
<polygon fill="midnightblue" stroke="midnightblue" points="510.58,-75.98 500,-75.54 508,-82.48 510.58,-75.98"/>
</g>
<!-- Node11 -->
<g id="node11" class="node">
<title>Node11</title>
<g id="a_node11"><a xlink:href="_defines_8h.html" target="_top" xlink:title="Internal definitions used by standard math.h functions as Macros, to use float or double precision.">
<polygon fill="white" stroke="black" points="118,-291.5 118,-310.5 180,-310.5 180,-291.5 118,-291.5"/>
<text text-anchor="middle" x="149" y="-298.5" font-family="Helvetica,sans-Serif" font-size="10.00">Defines.h</text>
</a>
</g>
</g>
<!-- Node10&#45;&gt;Node11 -->
<g id="edge11" class="edge">
<title>Node10&#45;&gt;Node11</title>
<path fill="none" stroke="midnightblue" d="M117.27,-347.08C122.64,-339.46 130.52,-328.26 137.08,-318.94"/>
<polygon fill="midnightblue" stroke="midnightblue" points="139.95,-320.94 142.84,-310.75 134.22,-316.91 139.95,-320.94"/>
</g>
<!-- Node14 -->
<g id="node14" class="node">
<title>Node14</title>
<g id="a_node14"><a xlink:href="_mda_8h.html" target="_top" xlink:title="API for multi&#45;dimensional arrays.">
<polygon fill="white" stroke="black" points="4.5,-112.5 4.5,-131.5 51.5,-131.5 51.5,-112.5 4.5,-112.5"/>
<text text-anchor="middle" x="28" y="-119.5" font-family="Helvetica,sans-Serif" font-size="10.00">Mda.h</text>
</a>
</g>
</g>
<!-- Node10&#45;&gt;Node14 -->
<g id="edge23" class="edge">
<title>Node10&#45;&gt;Node14</title>
<path fill="none" stroke="midnightblue" d="M103,-347.36C88.26,-330.86 57.03,-293.09 43,-255 28.84,-216.54 27.11,-167.87 27.38,-141.7"/>
<polygon fill="midnightblue" stroke="midnightblue" points="30.88,-141.73 27.59,-131.66 23.88,-141.58 30.88,-141.73"/>
</g>
<!-- Node16 -->
<g id="node16" class="node">
<title>Node16</title>
<g id="a_node16"><a xlink:href="_matrix_8h.html" target="_top" xlink:title="API for operations on Matrix data structures.">
<polygon fill="white" stroke="black" points="52.5,-235.5 52.5,-254.5 109.5,-254.5 109.5,-235.5 52.5,-235.5"/>
<text text-anchor="middle" x="81" y="-242.5" font-family="Helvetica,sans-Serif" font-size="10.00">Matrix.h</text>
</a>
</g>
</g>
<!-- Node10&#45;&gt;Node16 -->
<g id="edge19" class="edge">
<title>Node10&#45;&gt;Node16</title>
<path fill="none" stroke="midnightblue" d="M108.65,-347.37C103.78,-329.54 92.54,-288.3 85.98,-264.27"/>
<polygon fill="midnightblue" stroke="midnightblue" points="89.35,-263.32 83.34,-254.59 82.6,-265.16 89.35,-263.32"/>
</g>
<!-- Node11&#45;&gt;Node12 -->
<g id="edge12" class="edge">
<title>Node11&#45;&gt;Node12</title>
<path fill="none" stroke="midnightblue" d="M151.64,-291.08C153.79,-283.85 156.88,-273.41 159.55,-264.4"/>
<polygon fill="midnightblue" stroke="midnightblue" points="162.92,-265.33 162.41,-254.75 156.21,-263.34 162.92,-265.33"/>
</g>
<!-- Node12&#45;&gt;Node4 -->
<g id="edge13" class="edge">
<title>Node12&#45;&gt;Node4</title>
<path fill="none" stroke="midnightblue" d="M167.25,-235.2C171.69,-219.55 183,-186.79 204,-168 263.86,-114.45 354.99,-88.18 413.51,-76.14"/>
<polygon fill="midnightblue" stroke="midnightblue" points="414.2,-79.57 423.33,-74.19 412.84,-72.7 414.2,-79.57"/>
</g>
<!-- Node13 -->
<g id="node13" class="node">
<title>Node13</title>
<g id="a_node13"><a xlink:href="_vector_8h.html" target="_top" xlink:title="API for operations on Vector data structures.">
<polygon fill="white" stroke="black" points="101,-174 101,-193 157,-193 157,-174 101,-174"/>
<text text-anchor="middle" x="129" y="-181" font-family="Helvetica,sans-Serif" font-size="10.00">Vector.h</text>
</a>
</g>
</g>
<!-- Node12&#45;&gt;Node13 -->
<g id="edge14" class="edge">
<title>Node12&#45;&gt;Node13</title>
<path fill="none" stroke="midnightblue" d="M159.84,-235.48C154.55,-226.73 146.16,-212.87 139.47,-201.81"/>
<polygon fill="midnightblue" stroke="midnightblue" points="142.32,-199.75 134.15,-193.01 136.33,-203.38 142.32,-199.75"/>
</g>
<!-- Node13&#45;&gt;Node4 -->
<g id="edge18" class="edge">
<title>Node13&#45;&gt;Node4</title>
<path fill="none" stroke="midnightblue" d="M131.45,-173.87C136.28,-158.62 148.53,-127.09 171,-112 209.55,-86.11 337.63,-74.51 413.08,-69.82"/>
<polygon fill="midnightblue" stroke="midnightblue" points="413.59,-73.29 423.36,-69.2 413.17,-66.31 413.59,-73.29"/>
</g>
<!-- Node13&#45;&gt;Node14 -->
<g id="edge15" class="edge">
<title>Node13&#45;&gt;Node14</title>
<path fill="none" stroke="midnightblue" d="M114.53,-173.98C98.03,-164.25 70.82,-148.23 51.32,-136.74"/>
<polygon fill="midnightblue" stroke="midnightblue" points="52.84,-133.57 42.44,-131.51 49.28,-139.6 52.84,-133.57"/>
</g>
<!-- Node14&#45;&gt;Node4 -->
<g id="edge16" class="edge">
<title>Node14&#45;&gt;Node4</title>
<path fill="none" stroke="midnightblue" d="M51.62,-114.94C56.36,-113.85 61.32,-112.81 66,-112 188.94,-90.68 334.78,-77.34 413.24,-71.13"/>
<polygon fill="midnightblue" stroke="midnightblue" points="413.69,-74.61 423.39,-70.34 413.15,-67.63 413.69,-74.61"/>
</g>
<!-- Node15 -->
<g id="node15" class="node">
<title>Node15</title>
<g id="a_node15"><a xlink:title=" ">
<polygon fill="white" stroke="#bfbfbf" points="0,-56.5 0,-75.5 56,-75.5 56,-56.5 0,-56.5"/>
<text text-anchor="middle" x="28" y="-63.5" font-family="Helvetica,sans-Serif" font-size="10.00">assert.h</text>
</a>
</g>
</g>
<!-- Node14&#45;&gt;Node15 -->
<g id="edge17" class="edge">
<title>Node14&#45;&gt;Node15</title>
<path fill="none" stroke="midnightblue" d="M28,-112.08C28,-105.01 28,-94.86 28,-85.99"/>
<polygon fill="midnightblue" stroke="midnightblue" points="31.5,-85.75 28,-75.75 24.5,-85.75 31.5,-85.75"/>
</g>
<!-- Node16&#45;&gt;Node4 -->
<g id="edge21" class="edge">
<title>Node16&#45;&gt;Node4</title>
<path fill="none" stroke="midnightblue" d="M80.52,-235.49C80.05,-220.86 80.67,-190.36 92,-168 108.05,-136.32 117.14,-127.7 149,-112 194.23,-89.71 333.43,-76.58 412.88,-70.7"/>
<polygon fill="midnightblue" stroke="midnightblue" points="413.49,-74.17 423.21,-69.95 412.98,-67.18 413.49,-74.17"/>
</g>
<!-- Node16&#45;&gt;Node13 -->
<g id="edge22" class="edge">
<title>Node16&#45;&gt;Node13</title>
<path fill="none" stroke="midnightblue" d="M87.88,-235.48C95.15,-226.46 106.8,-212.02 115.84,-200.81"/>
<polygon fill="midnightblue" stroke="midnightblue" points="118.58,-202.99 122.14,-193.01 113.13,-198.59 118.58,-202.99"/>
</g>
<!-- Node16&#45;&gt;Node14 -->
<g id="edge20" class="edge">
<title>Node16&#45;&gt;Node14</title>
<path fill="none" stroke="midnightblue" d="M76.61,-235.45C72.04,-226.46 64.76,-211.86 59,-199 50.2,-179.35 40.99,-156.41 34.91,-140.92"/>
<polygon fill="midnightblue" stroke="midnightblue" points="38.14,-139.56 31.26,-131.51 31.62,-142.1 38.14,-139.56"/>
</g>
<!-- Node18 -->
<g id="node18" class="node">
<title>Node18</title>
<g id="a_node18"><a xlink:href="_error_8h.html" target="_top" xlink:title="API for error handling.">
<polygon fill="white" stroke="black" points="693,-174 693,-193 781,-193 781,-174 693,-174"/>
<text text-anchor="middle" x="737" y="-181" font-family="Helvetica,sans-Serif" font-size="10.00">ifxBase/Error.h</text>
</a>
</g>
</g>
<!-- Node17&#45;&gt;Node18 -->
<g id="edge26" class="edge">
<title>Node17&#45;&gt;Node18</title>
<path fill="none" stroke="midnightblue" d="M528.44,-291.45C576.63,-282.69 645.31,-268.48 669,-255 692.44,-241.66 712.94,-217.78 725.14,-201.55"/>
<polygon fill="midnightblue" stroke="midnightblue" points="727.99,-203.58 731.04,-193.43 722.33,-199.47 727.99,-203.58"/>
</g>
<!-- Node21 -->
<g id="node21" class="node">
<title>Node21</title>
<g id="a_node21"><a xlink:href="_list_8h.html" target="_top" xlink:title=" ">
<polygon fill="white" stroke="black" points="463.5,-112.5 463.5,-131.5 546.5,-131.5 546.5,-112.5 463.5,-112.5"/>
<text text-anchor="middle" x="505" y="-119.5" font-family="Helvetica,sans-Serif" font-size="10.00">ifxBase/List.h</text>
</a>
</g>
</g>
<!-- Node17&#45;&gt;Node21 -->
<g id="edge30" class="edge">
<title>Node17&#45;&gt;Node21</title>
<path fill="none" stroke="midnightblue" d="M478.4,-291.27C479.47,-270.01 483.01,-213.91 492,-168 493.76,-159.01 496.49,-149.22 498.99,-141.07"/>
<polygon fill="midnightblue" stroke="midnightblue" points="502.34,-142.11 502.05,-131.52 495.67,-139.97 502.34,-142.11"/>
</g>
<!-- Node22 -->
<g id="node22" class="node">
<title>Node22</title>
<g id="a_node22"><a xlink:href="_device_fmcw_types_8h.html" target="_top" xlink:title=" ">
<polygon fill="white" stroke="black" points="544,-235.5 544,-254.5 660,-254.5 660,-235.5 544,-235.5"/>
<text text-anchor="middle" x="602" y="-242.5" font-family="Helvetica,sans-Serif" font-size="10.00">DeviceFmcwTypes.h</text>
</a>
</g>
</g>
<!-- Node17&#45;&gt;Node22 -->
<g id="edge32" class="edge">
<title>Node17&#45;&gt;Node22</title>
<path fill="none" stroke="midnightblue" d="M497.65,-291.44C517.96,-282.6 549.9,-268.69 573.1,-258.59"/>
<polygon fill="midnightblue" stroke="midnightblue" points="574.67,-261.72 582.44,-254.52 571.88,-255.3 574.67,-261.72"/>
</g>
<!-- Node19 -->
<g id="node19" class="node">
<title>Node19</title>
<g id="a_node19"><a xlink:href="_log_8h.html" target="_top" xlink:title="API for logging.">
<polygon fill="white" stroke="black" points="837.5,-112.5 837.5,-131.5 880.5,-131.5 880.5,-112.5 837.5,-112.5"/>
<text text-anchor="middle" x="859" y="-119.5" font-family="Helvetica,sans-Serif" font-size="10.00">Log.h</text>
</a>
</g>
</g>
<!-- Node18&#45;&gt;Node19 -->
<g id="edge27" class="edge">
<title>Node18&#45;&gt;Node19</title>
<path fill="none" stroke="midnightblue" d="M754.48,-173.98C774.86,-164.03 808.78,-147.49 832.42,-135.96"/>
<polygon fill="midnightblue" stroke="midnightblue" points="834.1,-139.04 841.55,-131.51 831.03,-132.75 834.1,-139.04"/>
</g>
<!-- Node19&#45;&gt;Node4 -->
<g id="edge29" class="edge">
<title>Node19&#45;&gt;Node4</title>
<path fill="none" stroke="midnightblue" d="M837.39,-115.16C832.67,-114 827.69,-112.88 823,-112 719.34,-92.51 596.93,-79 526.89,-72.16"/>
<polygon fill="midnightblue" stroke="midnightblue" points="526.82,-68.64 516.53,-71.16 526.15,-75.61 526.82,-68.64"/>
</g>
<!-- Node20 -->
<g id="node20" class="node">
<title>Node20</title>
<g id="a_node20"><a xlink:title=" ">
<polygon fill="white" stroke="#bfbfbf" points="834,-56.5 834,-75.5 884,-75.5 884,-56.5 834,-56.5"/>
<text text-anchor="middle" x="859" y="-63.5" font-family="Helvetica,sans-Serif" font-size="10.00">stdio.h</text>
</a>
</g>
</g>
<!-- Node19&#45;&gt;Node20 -->
<g id="edge28" class="edge">
<title>Node19&#45;&gt;Node20</title>
<path fill="none" stroke="midnightblue" d="M859,-112.08C859,-105.01 859,-94.86 859,-85.99"/>
<polygon fill="midnightblue" stroke="midnightblue" points="862.5,-85.75 859,-75.75 855.5,-85.75 862.5,-85.75"/>
</g>
<!-- Node21&#45;&gt;Node4 -->
<g id="edge31" class="edge">
<title>Node21&#45;&gt;Node4</title>
<path fill="none" stroke="midnightblue" d="M499.22,-112.08C494.33,-104.53 487.17,-93.49 481.17,-84.23"/>
<polygon fill="midnightblue" stroke="midnightblue" points="484.05,-82.24 475.67,-75.75 478.17,-86.05 484.05,-82.24"/>
</g>
<!-- Node22&#45;&gt;Node4 -->
<g id="edge35" class="edge">
<title>Node22&#45;&gt;Node4</title>
<path fill="none" stroke="midnightblue" d="M614.78,-235.37C625.39,-227.36 639.73,-214.38 646,-199 651.2,-186.24 652.05,-180.38 646,-168 621.73,-118.38 561.17,-91.66 517.88,-78.39"/>
<polygon fill="midnightblue" stroke="midnightblue" points="518.68,-74.98 508.1,-75.54 516.72,-81.7 518.68,-74.98"/>
</g>
<!-- Node22&#45;&gt;Node9 -->
<g id="edge36" class="edge">
<title>Node22&#45;&gt;Node9</title>
<path fill="none" stroke="midnightblue" d="M597.27,-235.48C593.22,-228.17 587.19,-217.3 581.74,-207.47"/>
<polygon fill="midnightblue" stroke="midnightblue" points="584.69,-205.57 576.78,-198.52 578.57,-208.97 584.69,-205.57"/>
</g>
<!-- Node22&#45;&gt;Node14 -->
<g id="edge34" class="edge">
<title>Node22&#45;&gt;Node14</title>
<path fill="none" stroke="midnightblue" d="M581.31,-235.47C542.13,-219.66 454.13,-185.82 377,-168 263.05,-141.68 124.38,-129.56 61.66,-125.12"/>
<polygon fill="midnightblue" stroke="midnightblue" points="61.78,-121.62 51.56,-124.43 61.3,-128.6 61.78,-121.62"/>
</g>
<!-- Node22&#45;&gt;Node18 -->
<g id="edge33" class="edge">
<title>Node22&#45;&gt;Node18</title>
<path fill="none" stroke="midnightblue" d="M621.34,-235.48C644.1,-225.45 682.09,-208.7 708.29,-197.15"/>
<polygon fill="midnightblue" stroke="midnightblue" points="709.95,-200.24 717.69,-193.01 707.13,-193.84 709.95,-200.24"/>
</g>
<!-- Node23&#45;&gt;Node4 -->
<g id="edge39" class="edge">
<title>Node23&#45;&gt;Node4</title>
<path fill="none" stroke="midnightblue" d="M658.2,-291.36C714.39,-272.68 831.53,-225.51 790,-168 758.94,-124.98 610.07,-92.05 526.77,-76.63"/>
<polygon fill="midnightblue" stroke="midnightblue" points="527.17,-73.14 516.7,-74.79 525.91,-80.03 527.17,-73.14"/>
</g>
<!-- Node23&#45;&gt;Node22 -->
<g id="edge38" class="edge">
<title>Node23&#45;&gt;Node22</title>
<path fill="none" stroke="midnightblue" d="M625.38,-291.08C621.54,-283.69 615.98,-272.95 611.24,-263.81"/>
<polygon fill="midnightblue" stroke="midnightblue" points="614.25,-262.02 606.54,-254.75 608.03,-265.24 614.25,-262.02"/>
</g>
</g>
</svg>
