<?xml version="1.0" encoding="UTF-8" standalone="no"?>
<!DOCTYPE svg PUBLIC "-//W3C//DTD SVG 1.1//EN"
 "http://www.w3.org/Graphics/SVG/1.1/DTD/svg11.dtd">
<!-- Generated by graphviz version 2.43.0 (0)
 -->
<!-- Title: /home/jenkins/agent/workspace/ild&#45;documentation_release_v3.5.0/sdk/c/ifxMotionAngle/MotionAngle.h Pages: 1 -->
<svg width="599pt" height="464pt"
 viewBox="0.00 0.00 599.20 464.00" xmlns="http://www.w3.org/2000/svg" xmlns:xlink="http://www.w3.org/1999/xlink">
<g id="graph0" class="graph" transform="scale(1 1) rotate(0) translate(4 460)">
<title>/home/jenkins/agent/workspace/ild&#45;documentation_release_v3.5.0/sdk/c/ifxMotionAngle/MotionAngle.h</title>
<polygon fill="white" stroke="transparent" points="-4,4 -4,-460 595.2,-460 595.2,4 -4,4"/>
<!-- Node1 -->
<g id="node1" class="node">
<title>Node1</title>
<g id="a_node1"><a xlink:title=" ">
<polygon fill="#bfbfbf" stroke="black" points="136,-403.5 136,-455.5 335,-455.5 335,-403.5 136,-403.5"/>
<text text-anchor="start" x="144" y="-443.5" font-family="Helvetica,sans-Serif" font-size="10.00">/home/jenkins/agent</text>
<text text-anchor="start" x="144" y="-432.5" font-family="Helvetica,sans-Serif" font-size="10.00">/workspace/ild&#45;documentation</text>
<text text-anchor="start" x="144" y="-421.5" font-family="Helvetica,sans-Serif" font-size="10.00">_release_v3.5.0/sdk/c/ifxMotionAngle</text>
<text text-anchor="middle" x="235.5" y="-410.5" font-family="Helvetica,sans-Serif" font-size="10.00">/MotionAngle.h</text>
</a>
</g>
</g>
<!-- Node2 -->
<g id="node2" class="node">
<title>Node2</title>
<g id="a_node2"><a xlink:href="_cube_8h.html" target="_top" xlink:title="API for operations on Cube data structures.">
<polygon fill="white" stroke="black" points="70.5,-347.5 70.5,-366.5 160.5,-366.5 160.5,-347.5 70.5,-347.5"/>
<text text-anchor="middle" x="115.5" y="-354.5" font-family="Helvetica,sans-Serif" font-size="10.00">ifxBase/Cube.h</text>
</a>
</g>
</g>
<!-- Node1&#45;&gt;Node2 -->
<g id="edge1" class="edge">
<title>Node1&#45;&gt;Node2</title>
<path fill="none" stroke="midnightblue" d="M192.85,-403.45C174.67,-392.76 154.15,-380.71 138.82,-371.7"/>
<polygon fill="midnightblue" stroke="midnightblue" points="140.41,-368.57 130.01,-366.53 136.86,-374.61 140.41,-368.57"/>
</g>
<!-- Node5 -->
<g id="node5" class="node">
<title>Node5</title>
<g id="a_node5"><a xlink:href="_types_8h.html" target="_top" xlink:title="Definitions of data types used within the SDK.">
<polygon fill="white" stroke="black" points="171,-56.5 171,-75.5 224,-75.5 224,-56.5 171,-56.5"/>
<text text-anchor="middle" x="197.5" y="-63.5" font-family="Helvetica,sans-Serif" font-size="10.00">Types.h</text>
</a>
</g>
</g>
<!-- Node1&#45;&gt;Node5 -->
<g id="edge18" class="edge">
<title>Node1&#45;&gt;Node5</title>
<path fill="none" stroke="midnightblue" d="M235.5,-403.3C235.5,-377.77 235.5,-337.14 235.5,-302 235.5,-302 235.5,-302 235.5,-188 235.5,-149.81 218.06,-107.83 206.81,-84.72"/>
<polygon fill="midnightblue" stroke="midnightblue" points="209.79,-82.86 202.16,-75.52 203.54,-86.02 209.79,-82.86"/>
</g>
<!-- Node13 -->
<g id="node13" class="node">
<title>Node13</title>
<g id="a_node13"><a xlink:href="_device_config_8h.html" target="_top" xlink:title="API for Radar device configuration.">
<polygon fill="white" stroke="black" points="357,-179.5 357,-198.5 490,-198.5 490,-179.5 357,-179.5"/>
<text text-anchor="middle" x="423.5" y="-186.5" font-family="Helvetica,sans-Serif" font-size="10.00">ifxAvian/DeviceConfig.h</text>
</a>
</g>
</g>
<!-- Node1&#45;&gt;Node13 -->
<g id="edge19" class="edge">
<title>Node1&#45;&gt;Node13</title>
<path fill="none" stroke="midnightblue" d="M255.26,-403.43C293.73,-354.62 377.75,-248.04 410.27,-206.78"/>
<polygon fill="midnightblue" stroke="midnightblue" points="413.12,-208.82 416.56,-198.8 407.62,-204.49 413.12,-208.82"/>
</g>
<!-- Node3 -->
<g id="node3" class="node">
<title>Node3</title>
<g id="a_node3"><a xlink:href="_defines_8h.html" target="_top" xlink:title="Internal definitions used by standard math.h functions as Macros, to use float or double precision.">
<polygon fill="white" stroke="black" points="113.5,-291.5 113.5,-310.5 175.5,-310.5 175.5,-291.5 113.5,-291.5"/>
<text text-anchor="middle" x="144.5" y="-298.5" font-family="Helvetica,sans-Serif" font-size="10.00">Defines.h</text>
</a>
</g>
</g>
<!-- Node2&#45;&gt;Node3 -->
<g id="edge2" class="edge">
<title>Node2&#45;&gt;Node3</title>
<path fill="none" stroke="midnightblue" d="M120.29,-347.08C124.26,-339.69 130.03,-328.95 134.93,-319.81"/>
<polygon fill="midnightblue" stroke="midnightblue" points="138.15,-321.22 139.8,-310.75 131.99,-317.91 138.15,-321.22"/>
</g>
<!-- Node10 -->
<g id="node10" class="node">
<title>Node10</title>
<g id="a_node10"><a xlink:href="_mda_8h.html" target="_top" xlink:title="API for multi&#45;dimensional arrays.">
<polygon fill="white" stroke="black" points="68,-118 68,-137 115,-137 115,-118 68,-118"/>
<text text-anchor="middle" x="91.5" y="-125" font-family="Helvetica,sans-Serif" font-size="10.00">Mda.h</text>
</a>
</g>
</g>
<!-- Node2&#45;&gt;Node10 -->
<g id="edge17" class="edge">
<title>Node2&#45;&gt;Node10</title>
<path fill="none" stroke="midnightblue" d="M112.96,-347.46C110.39,-338.47 106.52,-323.87 104.5,-311 95.22,-251.77 92.56,-180.67 91.8,-147.4"/>
<polygon fill="midnightblue" stroke="midnightblue" points="95.3,-147.23 91.6,-137.3 88.3,-147.36 95.3,-147.23"/>
</g>
<!-- Node12 -->
<g id="node12" class="node">
<title>Node12</title>
<g id="a_node12"><a xlink:href="_matrix_8h.html" target="_top" xlink:title="API for operations on Matrix data structures.">
<polygon fill="white" stroke="black" points="0,-235.5 0,-254.5 57,-254.5 57,-235.5 0,-235.5"/>
<text text-anchor="middle" x="28.5" y="-242.5" font-family="Helvetica,sans-Serif" font-size="10.00">Matrix.h</text>
</a>
</g>
</g>
<!-- Node2&#45;&gt;Node12 -->
<g id="edge13" class="edge">
<title>Node2&#45;&gt;Node12</title>
<path fill="none" stroke="midnightblue" d="M106.21,-347.5C96.92,-338.78 82.48,-324.6 71.5,-311 59.19,-295.75 47.04,-276.95 38.82,-263.5"/>
<polygon fill="midnightblue" stroke="midnightblue" points="41.73,-261.54 33.57,-254.77 35.73,-265.15 41.73,-261.54"/>
</g>
<!-- Node4 -->
<g id="node4" class="node">
<title>Node4</title>
<g id="a_node4"><a xlink:href="_math_8h.html" target="_top" xlink:title="API for Mathematical operations.">
<polygon fill="white" stroke="black" points="119,-235.5 119,-254.5 170,-254.5 170,-235.5 119,-235.5"/>
<text text-anchor="middle" x="144.5" y="-242.5" font-family="Helvetica,sans-Serif" font-size="10.00">math.h</text>
</a>
</g>
</g>
<!-- Node3&#45;&gt;Node4 -->
<g id="edge3" class="edge">
<title>Node3&#45;&gt;Node4</title>
<path fill="none" stroke="midnightblue" d="M144.5,-291.08C144.5,-284.01 144.5,-273.86 144.5,-264.99"/>
<polygon fill="midnightblue" stroke="midnightblue" points="148,-264.75 144.5,-254.75 141,-264.75 148,-264.75"/>
</g>
<!-- Node4&#45;&gt;Node5 -->
<g id="edge4" class="edge">
<title>Node4&#45;&gt;Node5</title>
<path fill="none" stroke="midnightblue" d="M153.32,-235.22C161.28,-226.72 172.62,-213.1 178.5,-199 194.33,-161.02 197.34,-112.17 197.7,-85.83"/>
<polygon fill="midnightblue" stroke="midnightblue" points="201.2,-85.74 197.72,-75.73 194.2,-85.72 201.2,-85.74"/>
</g>
<!-- Node9 -->
<g id="node9" class="node">
<title>Node9</title>
<g id="a_node9"><a xlink:href="_vector_8h.html" target="_top" xlink:title="API for operations on Vector data structures.">
<polygon fill="white" stroke="black" points="113.5,-179.5 113.5,-198.5 169.5,-198.5 169.5,-179.5 113.5,-179.5"/>
<text text-anchor="middle" x="141.5" y="-186.5" font-family="Helvetica,sans-Serif" font-size="10.00">Vector.h</text>
</a>
</g>
</g>
<!-- Node4&#45;&gt;Node9 -->
<g id="edge8" class="edge">
<title>Node4&#45;&gt;Node9</title>
<path fill="none" stroke="midnightblue" d="M144,-235.08C143.61,-228.01 143.05,-217.86 142.55,-208.99"/>
<polygon fill="midnightblue" stroke="midnightblue" points="146.04,-208.54 141.99,-198.75 139.05,-208.93 146.04,-208.54"/>
</g>
<!-- Node6 -->
<g id="node6" class="node">
<title>Node6</title>
<g id="a_node6"><a xlink:title=" ">
<polygon fill="white" stroke="#bfbfbf" points="89.5,-0.5 89.5,-19.5 151.5,-19.5 151.5,-0.5 89.5,-0.5"/>
<text text-anchor="middle" x="120.5" y="-7.5" font-family="Helvetica,sans-Serif" font-size="10.00">stdbool.h</text>
</a>
</g>
</g>
<!-- Node5&#45;&gt;Node6 -->
<g id="edge5" class="edge">
<title>Node5&#45;&gt;Node6</title>
<path fill="none" stroke="midnightblue" d="M185.13,-56.32C173.34,-48.06 155.37,-35.45 141.36,-25.63"/>
<polygon fill="midnightblue" stroke="midnightblue" points="143.04,-22.53 132.84,-19.65 139.02,-28.26 143.04,-22.53"/>
</g>
<!-- Node7 -->
<g id="node7" class="node">
<title>Node7</title>
<g id="a_node7"><a xlink:title=" ">
<polygon fill="white" stroke="#bfbfbf" points="169.5,-0.5 169.5,-19.5 225.5,-19.5 225.5,-0.5 169.5,-0.5"/>
<text text-anchor="middle" x="197.5" y="-7.5" font-family="Helvetica,sans-Serif" font-size="10.00">stddef.h</text>
</a>
</g>
</g>
<!-- Node5&#45;&gt;Node7 -->
<g id="edge6" class="edge">
<title>Node5&#45;&gt;Node7</title>
<path fill="none" stroke="midnightblue" d="M197.5,-56.08C197.5,-49.01 197.5,-38.86 197.5,-29.99"/>
<polygon fill="midnightblue" stroke="midnightblue" points="201,-29.75 197.5,-19.75 194,-29.75 201,-29.75"/>
</g>
<!-- Node8 -->
<g id="node8" class="node">
<title>Node8</title>
<g id="a_node8"><a xlink:title=" ">
<polygon fill="white" stroke="#bfbfbf" points="244,-0.5 244,-19.5 297,-19.5 297,-0.5 244,-0.5"/>
<text text-anchor="middle" x="270.5" y="-7.5" font-family="Helvetica,sans-Serif" font-size="10.00">stdint.h</text>
</a>
</g>
</g>
<!-- Node5&#45;&gt;Node8 -->
<g id="edge7" class="edge">
<title>Node5&#45;&gt;Node8</title>
<path fill="none" stroke="midnightblue" d="M209.23,-56.32C220.34,-48.11 237.24,-35.6 250.48,-25.81"/>
<polygon fill="midnightblue" stroke="midnightblue" points="252.6,-28.59 258.56,-19.83 248.44,-22.97 252.6,-28.59"/>
</g>
<!-- Node9&#45;&gt;Node5 -->
<g id="edge12" class="edge">
<title>Node9&#45;&gt;Node5</title>
<path fill="none" stroke="midnightblue" d="M145.53,-179.3C154.65,-159.59 177.04,-111.21 189.24,-84.84"/>
<polygon fill="midnightblue" stroke="midnightblue" points="192.49,-86.17 193.51,-75.62 186.13,-83.23 192.49,-86.17"/>
</g>
<!-- Node9&#45;&gt;Node10 -->
<g id="edge9" class="edge">
<title>Node9&#45;&gt;Node10</title>
<path fill="none" stroke="midnightblue" d="M134.34,-179.48C126.76,-170.46 114.63,-156.02 105.21,-144.81"/>
<polygon fill="midnightblue" stroke="midnightblue" points="107.76,-142.41 98.65,-137.01 102.4,-146.92 107.76,-142.41"/>
</g>
<!-- Node10&#45;&gt;Node5 -->
<g id="edge10" class="edge">
<title>Node10&#45;&gt;Node5</title>
<path fill="none" stroke="midnightblue" d="M106.69,-117.98C124.16,-108.17 153.08,-91.93 173.58,-80.42"/>
<polygon fill="midnightblue" stroke="midnightblue" points="175.33,-83.46 182.34,-75.51 171.91,-77.35 175.33,-83.46"/>
</g>
<!-- Node11 -->
<g id="node11" class="node">
<title>Node11</title>
<g id="a_node11"><a xlink:title=" ">
<polygon fill="white" stroke="#bfbfbf" points="63.5,-56.5 63.5,-75.5 119.5,-75.5 119.5,-56.5 63.5,-56.5"/>
<text text-anchor="middle" x="91.5" y="-63.5" font-family="Helvetica,sans-Serif" font-size="10.00">assert.h</text>
</a>
</g>
</g>
<!-- Node10&#45;&gt;Node11 -->
<g id="edge11" class="edge">
<title>Node10&#45;&gt;Node11</title>
<path fill="none" stroke="midnightblue" d="M91.5,-117.98C91.5,-109.58 91.5,-96.48 91.5,-85.66"/>
<polygon fill="midnightblue" stroke="midnightblue" points="95,-85.51 91.5,-75.51 88,-85.51 95,-85.51"/>
</g>
<!-- Node12&#45;&gt;Node5 -->
<g id="edge15" class="edge">
<title>Node12&#45;&gt;Node5</title>
<path fill="none" stroke="midnightblue" d="M27.77,-235.29C26.32,-212.05 25.68,-147.91 58.5,-112 72.42,-96.77 124.8,-82.72 161.12,-74.51"/>
<polygon fill="midnightblue" stroke="midnightblue" points="161.88,-77.92 170.89,-72.35 160.37,-71.09 161.88,-77.92"/>
</g>
<!-- Node12&#45;&gt;Node9 -->
<g id="edge16" class="edge">
<title>Node12&#45;&gt;Node9</title>
<path fill="none" stroke="midnightblue" d="M46.41,-235.44C64.75,-226.68 93.51,-212.94 114.59,-202.86"/>
<polygon fill="midnightblue" stroke="midnightblue" points="116.17,-205.99 123.68,-198.52 113.15,-199.67 116.17,-205.99"/>
</g>
<!-- Node12&#45;&gt;Node10 -->
<g id="edge14" class="edge">
<title>Node12&#45;&gt;Node10</title>
<path fill="none" stroke="midnightblue" d="M33.24,-235.32C43.54,-216.42 68.18,-171.25 81.89,-146.12"/>
<polygon fill="midnightblue" stroke="midnightblue" points="84.99,-147.74 86.71,-137.28 78.85,-144.38 84.99,-147.74"/>
</g>
<!-- Node13&#45;&gt;Node5 -->
<g id="edge20" class="edge">
<title>Node13&#45;&gt;Node5</title>
<path fill="none" stroke="midnightblue" d="M487,-179.48C544.36,-169.24 615.15,-148.68 582.5,-112 559.56,-86.22 326.19,-72.86 234.35,-68.57"/>
<polygon fill="midnightblue" stroke="midnightblue" points="234.28,-65.06 224.13,-68.1 233.96,-72.06 234.28,-65.06"/>
</g>
<!-- Node14 -->
<g id="node14" class="node">
<title>Node14</title>
<g id="a_node14"><a xlink:href="_device_fmcw_avian_config_8h.html" target="_top" xlink:title="API for Radar device configuration.">
<polygon fill="white" stroke="black" points="264,-112.5 264,-142.5 419,-142.5 419,-112.5 264,-112.5"/>
<text text-anchor="start" x="272" y="-130.5" font-family="Helvetica,sans-Serif" font-size="10.00">ifxFmcw/avian/DeviceFmcw</text>
<text text-anchor="middle" x="341.5" y="-119.5" font-family="Helvetica,sans-Serif" font-size="10.00">AvianConfig.h</text>
</a>
</g>
</g>
<!-- Node13&#45;&gt;Node14 -->
<g id="edge21" class="edge">
<title>Node13&#45;&gt;Node14</title>
<path fill="none" stroke="midnightblue" d="M411.75,-179.48C400.65,-171.42 383.57,-159.02 369.03,-148.47"/>
<polygon fill="midnightblue" stroke="midnightblue" points="370.98,-145.56 360.83,-142.52 366.86,-151.23 370.98,-145.56"/>
</g>
<!-- Node15 -->
<g id="node15" class="node">
<title>Node15</title>
<g id="a_node15"><a xlink:href="_radar_device_common_8h.html" target="_top" xlink:title="Header for ifxRadarDeviceCommon.">
<polygon fill="white" stroke="black" points="437.5,-112.5 437.5,-142.5 573.5,-142.5 573.5,-112.5 437.5,-112.5"/>
<text text-anchor="start" x="445.5" y="-130.5" font-family="Helvetica,sans-Serif" font-size="10.00">ifxRadarDeviceCommon</text>
<text text-anchor="middle" x="505.5" y="-119.5" font-family="Helvetica,sans-Serif" font-size="10.00">/RadarDeviceCommon.h</text>
</a>
</g>
</g>
<!-- Node13&#45;&gt;Node15 -->
<g id="edge22" class="edge">
<title>Node13&#45;&gt;Node15</title>
<path fill="none" stroke="midnightblue" d="M435.25,-179.48C446.35,-171.42 463.43,-159.02 477.97,-148.47"/>
<polygon fill="midnightblue" stroke="midnightblue" points="480.14,-151.23 486.17,-142.52 476.02,-145.56 480.14,-151.23"/>
</g>
<!-- Node15&#45;&gt;Node5 -->
<g id="edge23" class="edge">
<title>Node15&#45;&gt;Node5</title>
<path fill="none" stroke="midnightblue" d="M437.14,-113.3C374.44,-101.18 283.95,-83.7 234.03,-74.06"/>
<polygon fill="midnightblue" stroke="midnightblue" points="234.5,-70.58 224.01,-72.12 233.17,-77.46 234.5,-70.58"/>
</g>
</g>
</svg>
