<?xml version="1.0" encoding="UTF-8" standalone="no"?>
<!DOCTYPE svg PUBLIC "-//W3C//DTD SVG 1.1//EN"
 "http://www.w3.org/Graphics/SVG/1.1/DTD/svg11.dtd">
<!-- Generated by graphviz version 2.43.0 (0)
 -->
<!-- Title: /home/jenkins/agent/workspace/ild&#45;documentation_release_v3.5.0/sdk/c/ifxRadarPresenceSensing/PresenceSensing.h Pages: 1 -->
<svg width="831pt" height="531pt"
 viewBox="0.00 0.00 830.50 531.00" xmlns="http://www.w3.org/2000/svg" xmlns:xlink="http://www.w3.org/1999/xlink">
<g id="graph0" class="graph" transform="scale(1 1) rotate(0) translate(4 527)">
<title>/home/jenkins/agent/workspace/ild&#45;documentation_release_v3.5.0/sdk/c/ifxRadarPresenceSensing/PresenceSensing.h</title>
<polygon fill="white" stroke="transparent" points="-4,4 -4,-527 826.5,-527 826.5,4 -4,4"/>
<!-- Node1 -->
<g id="node1" class="node">
<title>Node1</title>
<g id="a_node1"><a xlink:title=" ">
<polygon fill="#bfbfbf" stroke="black" points="69,-470.5 69,-522.5 279,-522.5 279,-470.5 69,-470.5"/>
<text text-anchor="start" x="77" y="-510.5" font-family="Helvetica,sans-Serif" font-size="10.00">/home/jenkins/agent</text>
<text text-anchor="start" x="77" y="-499.5" font-family="Helvetica,sans-Serif" font-size="10.00">/workspace/ild&#45;documentation</text>
<text text-anchor="start" x="77" y="-488.5" font-family="Helvetica,sans-Serif" font-size="10.00">_release_v3.5.0/sdk/c/ifxRadarPresence</text>
<text text-anchor="middle" x="174" y="-477.5" font-family="Helvetica,sans-Serif" font-size="10.00">Sensing/PresenceSensing.h</text>
</a>
</g>
</g>
<!-- Node2 -->
<g id="node2" class="node">
<title>Node2</title>
<g id="a_node2"><a xlink:href="_matrix_8h.html" target="_top" xlink:title="API for operations on Matrix data structures.">
<polygon fill="white" stroke="black" points="28.5,-235.5 28.5,-254.5 125.5,-254.5 125.5,-235.5 28.5,-235.5"/>
<text text-anchor="middle" x="77" y="-242.5" font-family="Helvetica,sans-Serif" font-size="10.00">ifxBase/Matrix.h</text>
</a>
</g>
</g>
<!-- Node1&#45;&gt;Node2 -->
<g id="edge1" class="edge">
<title>Node1&#45;&gt;Node2</title>
<path fill="none" stroke="midnightblue" d="M162.31,-470.06C151.59,-446.41 135.54,-410.11 123,-378 107.31,-337.85 91.25,-289.87 82.88,-264.25"/>
<polygon fill="midnightblue" stroke="midnightblue" points="86.21,-263.16 79.79,-254.73 79.55,-265.32 86.21,-263.16"/>
</g>
<!-- Node4 -->
<g id="node4" class="node">
<title>Node4</title>
<g id="a_node4"><a xlink:href="_types_8h.html" target="_top" xlink:title="Definitions of data types used within the SDK.">
<polygon fill="white" stroke="black" points="241.5,-56.5 241.5,-75.5 294.5,-75.5 294.5,-56.5 241.5,-56.5"/>
<text text-anchor="middle" x="268" y="-63.5" font-family="Helvetica,sans-Serif" font-size="10.00">Types.h</text>
</a>
</g>
</g>
<!-- Node1&#45;&gt;Node4 -->
<g id="edge12" class="edge">
<title>Node1&#45;&gt;Node4</title>
<path fill="none" stroke="midnightblue" d="M92.35,-470.46C47.14,-451 0,-418.77 0,-369 0,-369 0,-369 0,-182.5 0,-131.69 44.38,-134.38 90,-112 135.84,-89.51 194.01,-77.55 231.13,-71.74"/>
<polygon fill="midnightblue" stroke="midnightblue" points="232.1,-75.14 241.47,-70.2 231.06,-68.21 232.1,-75.14"/>
</g>
<!-- Node10 -->
<g id="node10" class="node">
<title>Node10</title>
<g id="a_node10"><a xlink:href="_device_config_8h.html" target="_top" xlink:title="API for Radar device configuration.">
<polygon fill="white" stroke="black" points="446.5,-358.5 446.5,-377.5 579.5,-377.5 579.5,-358.5 446.5,-358.5"/>
<text text-anchor="middle" x="513" y="-365.5" font-family="Helvetica,sans-Serif" font-size="10.00">ifxAvian/DeviceConfig.h</text>
</a>
</g>
</g>
<!-- Node1&#45;&gt;Node10 -->
<g id="edge13" class="edge">
<title>Node1&#45;&gt;Node10</title>
<path fill="none" stroke="midnightblue" d="M247.9,-470.47C279.47,-459.58 316.65,-446.47 350,-434 396.68,-416.55 450.26,-394.86 482.86,-381.47"/>
<polygon fill="midnightblue" stroke="midnightblue" points="484.35,-384.64 492.27,-377.6 481.69,-378.17 484.35,-384.64"/>
</g>
<!-- Node13 -->
<g id="node13" class="node">
<title>Node13</title>
<g id="a_node13"><a xlink:href="_device_control_8h.html" target="_top" xlink:title="Header for ifxAvian.">
<polygon fill="white" stroke="black" points="203.5,-414.5 203.5,-433.5 340.5,-433.5 340.5,-414.5 203.5,-414.5"/>
<text text-anchor="middle" x="272" y="-421.5" font-family="Helvetica,sans-Serif" font-size="10.00">ifxAvian/DeviceControl.h</text>
</a>
</g>
</g>
<!-- Node1&#45;&gt;Node13 -->
<g id="edge18" class="edge">
<title>Node1&#45;&gt;Node13</title>
<path fill="none" stroke="midnightblue" d="M208.83,-470.45C223.17,-460.13 239.29,-448.53 251.65,-439.64"/>
<polygon fill="midnightblue" stroke="midnightblue" points="253.84,-442.38 259.91,-433.7 249.75,-436.69 253.84,-442.38"/>
</g>
<!-- Node3 -->
<g id="node3" class="node">
<title>Node3</title>
<g id="a_node3"><a xlink:href="_mda_8h.html" target="_top" xlink:title="API for multi&#45;dimensional arrays.">
<polygon fill="white" stroke="black" points="119.5,-112.5 119.5,-131.5 166.5,-131.5 166.5,-112.5 119.5,-112.5"/>
<text text-anchor="middle" x="143" y="-119.5" font-family="Helvetica,sans-Serif" font-size="10.00">Mda.h</text>
</a>
</g>
</g>
<!-- Node2&#45;&gt;Node3 -->
<g id="edge2" class="edge">
<title>Node2&#45;&gt;Node3</title>
<path fill="none" stroke="midnightblue" d="M78.49,-235.05C81.23,-220.27 88.02,-190.23 101,-168 107.37,-157.09 116.81,-146.66 125.13,-138.59"/>
<polygon fill="midnightblue" stroke="midnightblue" points="127.67,-141.01 132.63,-131.64 122.91,-135.88 127.67,-141.01"/>
</g>
<!-- Node2&#45;&gt;Node4 -->
<g id="edge8" class="edge">
<title>Node2&#45;&gt;Node4</title>
<path fill="none" stroke="midnightblue" d="M76.1,-235.18C74.2,-211.11 72.64,-143.91 110,-112 144.2,-82.79 196.22,-72.49 231.12,-68.89"/>
<polygon fill="midnightblue" stroke="midnightblue" points="231.72,-72.35 241.37,-67.97 231.1,-65.38 231.72,-72.35"/>
</g>
<!-- Node9 -->
<g id="node9" class="node">
<title>Node9</title>
<g id="a_node9"><a xlink:href="_vector_8h.html" target="_top" xlink:title="API for operations on Vector data structures.">
<polygon fill="white" stroke="black" points="143,-174 143,-193 199,-193 199,-174 143,-174"/>
<text text-anchor="middle" x="171" y="-181" font-family="Helvetica,sans-Serif" font-size="10.00">Vector.h</text>
</a>
</g>
</g>
<!-- Node2&#45;&gt;Node9 -->
<g id="edge9" class="edge">
<title>Node2&#45;&gt;Node9</title>
<path fill="none" stroke="midnightblue" d="M90.47,-235.48C105.68,-225.84 130.69,-210.02 148.8,-198.55"/>
<polygon fill="midnightblue" stroke="midnightblue" points="150.98,-201.31 157.56,-193.01 147.24,-195.4 150.98,-201.31"/>
</g>
<!-- Node3&#45;&gt;Node4 -->
<g id="edge3" class="edge">
<title>Node3&#45;&gt;Node4</title>
<path fill="none" stroke="midnightblue" d="M162.81,-112.44C183.29,-103.6 215.48,-89.69 238.86,-79.59"/>
<polygon fill="midnightblue" stroke="midnightblue" points="240.49,-82.7 248.29,-75.52 237.72,-76.27 240.49,-82.7"/>
</g>
<!-- Node8 -->
<g id="node8" class="node">
<title>Node8</title>
<g id="a_node8"><a xlink:title=" ">
<polygon fill="white" stroke="#bfbfbf" points="115,-56.5 115,-75.5 171,-75.5 171,-56.5 115,-56.5"/>
<text text-anchor="middle" x="143" y="-63.5" font-family="Helvetica,sans-Serif" font-size="10.00">assert.h</text>
</a>
</g>
</g>
<!-- Node3&#45;&gt;Node8 -->
<g id="edge7" class="edge">
<title>Node3&#45;&gt;Node8</title>
<path fill="none" stroke="midnightblue" d="M143,-112.08C143,-105.01 143,-94.86 143,-85.99"/>
<polygon fill="midnightblue" stroke="midnightblue" points="146.5,-85.75 143,-75.75 139.5,-85.75 146.5,-85.75"/>
</g>
<!-- Node5 -->
<g id="node5" class="node">
<title>Node5</title>
<g id="a_node5"><a xlink:title=" ">
<polygon fill="white" stroke="#bfbfbf" points="160,-0.5 160,-19.5 222,-19.5 222,-0.5 160,-0.5"/>
<text text-anchor="middle" x="191" y="-7.5" font-family="Helvetica,sans-Serif" font-size="10.00">stdbool.h</text>
</a>
</g>
</g>
<!-- Node4&#45;&gt;Node5 -->
<g id="edge4" class="edge">
<title>Node4&#45;&gt;Node5</title>
<path fill="none" stroke="midnightblue" d="M255.63,-56.32C243.84,-48.06 225.87,-35.45 211.86,-25.63"/>
<polygon fill="midnightblue" stroke="midnightblue" points="213.54,-22.53 203.34,-19.65 209.52,-28.26 213.54,-22.53"/>
</g>
<!-- Node6 -->
<g id="node6" class="node">
<title>Node6</title>
<g id="a_node6"><a xlink:title=" ">
<polygon fill="white" stroke="#bfbfbf" points="240,-0.5 240,-19.5 296,-19.5 296,-0.5 240,-0.5"/>
<text text-anchor="middle" x="268" y="-7.5" font-family="Helvetica,sans-Serif" font-size="10.00">stddef.h</text>
</a>
</g>
</g>
<!-- Node4&#45;&gt;Node6 -->
<g id="edge5" class="edge">
<title>Node4&#45;&gt;Node6</title>
<path fill="none" stroke="midnightblue" d="M268,-56.08C268,-49.01 268,-38.86 268,-29.99"/>
<polygon fill="midnightblue" stroke="midnightblue" points="271.5,-29.75 268,-19.75 264.5,-29.75 271.5,-29.75"/>
</g>
<!-- Node7 -->
<g id="node7" class="node">
<title>Node7</title>
<g id="a_node7"><a xlink:title=" ">
<polygon fill="white" stroke="#bfbfbf" points="314.5,-0.5 314.5,-19.5 367.5,-19.5 367.5,-0.5 314.5,-0.5"/>
<text text-anchor="middle" x="341" y="-7.5" font-family="Helvetica,sans-Serif" font-size="10.00">stdint.h</text>
</a>
</g>
</g>
<!-- Node4&#45;&gt;Node7 -->
<g id="edge6" class="edge">
<title>Node4&#45;&gt;Node7</title>
<path fill="none" stroke="midnightblue" d="M279.73,-56.32C290.84,-48.11 307.74,-35.6 320.98,-25.81"/>
<polygon fill="midnightblue" stroke="midnightblue" points="323.1,-28.59 329.06,-19.83 318.94,-22.97 323.1,-28.59"/>
</g>
<!-- Node9&#45;&gt;Node3 -->
<g id="edge10" class="edge">
<title>Node9&#45;&gt;Node3</title>
<path fill="none" stroke="midnightblue" d="M166.99,-173.98C162.91,-165.32 156.48,-151.65 151.3,-140.65"/>
<polygon fill="midnightblue" stroke="midnightblue" points="154.43,-139.07 147,-131.51 148.1,-142.05 154.43,-139.07"/>
</g>
<!-- Node9&#45;&gt;Node4 -->
<g id="edge11" class="edge">
<title>Node9&#45;&gt;Node4</title>
<path fill="none" stroke="midnightblue" d="M176.03,-173.8C184.18,-160.01 201.18,-132.61 219,-112 228.23,-101.32 239.81,-90.58 249.4,-82.28"/>
<polygon fill="midnightblue" stroke="midnightblue" points="251.84,-84.8 257.2,-75.67 247.31,-79.46 251.84,-84.8"/>
</g>
<!-- Node10&#45;&gt;Node4 -->
<g id="edge14" class="edge">
<title>Node10&#45;&gt;Node4</title>
<path fill="none" stroke="midnightblue" d="M534.09,-358.38C569.96,-342.16 639,-303.47 639,-246 639,-246 639,-246 639,-182.5 639,-132.39 596.83,-132.28 551,-112 468.3,-75.41 360.35,-68.09 304.71,-66.93"/>
<polygon fill="midnightblue" stroke="midnightblue" points="304.68,-63.43 294.63,-66.77 304.57,-70.43 304.68,-63.43"/>
</g>
<!-- Node11 -->
<g id="node11" class="node">
<title>Node11</title>
<g id="a_node11"><a xlink:href="_device_fmcw_avian_config_8h.html" target="_top" xlink:title="API for Radar device configuration.">
<polygon fill="white" stroke="black" points="667.5,-291.5 667.5,-321.5 822.5,-321.5 822.5,-291.5 667.5,-291.5"/>
<text text-anchor="start" x="675.5" y="-309.5" font-family="Helvetica,sans-Serif" font-size="10.00">ifxFmcw/avian/DeviceFmcw</text>
<text text-anchor="middle" x="745" y="-298.5" font-family="Helvetica,sans-Serif" font-size="10.00">AvianConfig.h</text>
</a>
</g>
</g>
<!-- Node10&#45;&gt;Node11 -->
<g id="edge15" class="edge">
<title>Node10&#45;&gt;Node11</title>
<path fill="none" stroke="midnightblue" d="M546.24,-358.48C581.11,-349.53 636.8,-335.25 680.38,-324.07"/>
<polygon fill="midnightblue" stroke="midnightblue" points="681.51,-327.4 690.32,-321.52 679.77,-320.62 681.51,-327.4"/>
</g>
<!-- Node12 -->
<g id="node12" class="node">
<title>Node12</title>
<g id="a_node12"><a xlink:href="_radar_device_common_8h.html" target="_top" xlink:title="Header for ifxRadarDeviceCommon.">
<polygon fill="white" stroke="black" points="369,-168.5 369,-198.5 505,-198.5 505,-168.5 369,-168.5"/>
<text text-anchor="start" x="377" y="-186.5" font-family="Helvetica,sans-Serif" font-size="10.00">ifxRadarDeviceCommon</text>
<text text-anchor="middle" x="437" y="-175.5" font-family="Helvetica,sans-Serif" font-size="10.00">/RadarDeviceCommon.h</text>
</a>
</g>
</g>
<!-- Node10&#45;&gt;Node12 -->
<g id="edge16" class="edge">
<title>Node10&#45;&gt;Node12</title>
<path fill="none" stroke="midnightblue" d="M509.33,-358.2C498.1,-331.22 463.88,-249.05 446.85,-208.15"/>
<polygon fill="midnightblue" stroke="midnightblue" points="449.99,-206.58 442.91,-198.69 443.52,-209.27 449.99,-206.58"/>
</g>
<!-- Node12&#45;&gt;Node4 -->
<g id="edge17" class="edge">
<title>Node12&#45;&gt;Node4</title>
<path fill="none" stroke="midnightblue" d="M430.26,-168.42C422.07,-152.65 406.83,-127.32 387,-112 362.73,-93.25 329.77,-81.6 304.7,-74.87"/>
<polygon fill="midnightblue" stroke="midnightblue" points="305.38,-71.43 294.82,-72.36 303.65,-78.21 305.38,-71.43"/>
</g>
<!-- Node13&#45;&gt;Node10 -->
<g id="edge19" class="edge">
<title>Node13&#45;&gt;Node10</title>
<path fill="none" stroke="midnightblue" d="M310.19,-414.44C352.14,-405.04 419.59,-389.93 465.07,-379.74"/>
<polygon fill="midnightblue" stroke="midnightblue" points="466,-383.12 474.99,-377.52 464.47,-376.29 466,-383.12"/>
</g>
<!-- Node14 -->
<g id="node14" class="node">
<title>Node14</title>
<g id="a_node14"><a xlink:href="_cube_8h.html" target="_top" xlink:title="API for operations on Cube data structures.">
<polygon fill="white" stroke="black" points="132,-358.5 132,-377.5 222,-377.5 222,-358.5 132,-358.5"/>
<text text-anchor="middle" x="177" y="-365.5" font-family="Helvetica,sans-Serif" font-size="10.00">ifxBase/Cube.h</text>
</a>
</g>
</g>
<!-- Node13&#45;&gt;Node14 -->
<g id="edge20" class="edge">
<title>Node13&#45;&gt;Node14</title>
<path fill="none" stroke="midnightblue" d="M256.74,-414.32C241.78,-405.82 218.75,-392.73 201.27,-382.8"/>
<polygon fill="midnightblue" stroke="midnightblue" points="202.65,-379.55 192.23,-377.65 199.19,-385.64 202.65,-379.55"/>
</g>
<!-- Node16 -->
<g id="node16" class="node">
<title>Node16</title>
<g id="a_node16"><a xlink:href="_math_8h.html" target="_top" xlink:title="API for Mathematical operations.">
<polygon fill="white" stroke="black" points="205.5,-235.5 205.5,-254.5 256.5,-254.5 256.5,-235.5 205.5,-235.5"/>
<text text-anchor="middle" x="231" y="-242.5" font-family="Helvetica,sans-Serif" font-size="10.00">math.h</text>
</a>
</g>
</g>
<!-- Node13&#45;&gt;Node16 -->
<g id="edge27" class="edge">
<title>Node13&#45;&gt;Node16</title>
<path fill="none" stroke="midnightblue" d="M271.69,-414.46C270.71,-393.16 266.91,-336.14 253,-291 250.09,-281.55 245.42,-271.61 241.13,-263.49"/>
<polygon fill="midnightblue" stroke="midnightblue" points="244.14,-261.68 236.23,-254.63 238.01,-265.07 244.14,-261.68"/>
</g>
<!-- Node17 -->
<g id="node17" class="node">
<title>Node17</title>
<g id="a_node17"><a xlink:href="_device_fmcw_8h.html" target="_top" xlink:title="For details refer to FMCW Device Control.">
<polygon fill="white" stroke="black" points="311.5,-297 311.5,-316 444.5,-316 444.5,-297 311.5,-297"/>
<text text-anchor="middle" x="378" y="-304" font-family="Helvetica,sans-Serif" font-size="10.00">ifxFmcw/DeviceFmcw.h</text>
</a>
</g>
</g>
<!-- Node13&#45;&gt;Node17 -->
<g id="edge28" class="edge">
<title>Node13&#45;&gt;Node17</title>
<path fill="none" stroke="midnightblue" d="M279.97,-414.32C297.62,-395.09 340.24,-348.64 363.04,-323.81"/>
<polygon fill="midnightblue" stroke="midnightblue" points="365.76,-326.02 369.94,-316.28 360.6,-321.28 365.76,-326.02"/>
</g>
<!-- Node14&#45;&gt;Node2 -->
<g id="edge25" class="edge">
<title>Node14&#45;&gt;Node2</title>
<path fill="none" stroke="midnightblue" d="M169.81,-358.3C153.23,-338.24 112.12,-288.49 90.61,-262.46"/>
<polygon fill="midnightblue" stroke="midnightblue" points="93.19,-260.1 84.13,-254.62 87.8,-264.56 93.19,-260.1"/>
</g>
<!-- Node14&#45;&gt;Node3 -->
<g id="edge26" class="edge">
<title>Node14&#45;&gt;Node3</title>
<path fill="none" stroke="midnightblue" d="M173.98,-358.4C165.55,-333.9 141.86,-261.43 134,-199 132.28,-185.33 132.64,-181.71 134,-168 134.87,-159.17 136.69,-149.51 138.47,-141.4"/>
<polygon fill="midnightblue" stroke="midnightblue" points="141.9,-142.08 140.77,-131.55 135.08,-140.49 141.9,-142.08"/>
</g>
<!-- Node15 -->
<g id="node15" class="node">
<title>Node15</title>
<g id="a_node15"><a xlink:href="_defines_8h.html" target="_top" xlink:title="Internal definitions used by standard math.h functions as Macros, to use float or double precision.">
<polygon fill="white" stroke="black" points="182,-297 182,-316 244,-316 244,-297 182,-297"/>
<text text-anchor="middle" x="213" y="-304" font-family="Helvetica,sans-Serif" font-size="10.00">Defines.h</text>
</a>
</g>
</g>
<!-- Node14&#45;&gt;Node15 -->
<g id="edge21" class="edge">
<title>Node14&#45;&gt;Node15</title>
<path fill="none" stroke="midnightblue" d="M182.16,-358.48C187.45,-349.73 195.84,-335.87 202.53,-324.81"/>
<polygon fill="midnightblue" stroke="midnightblue" points="205.67,-326.38 207.85,-316.01 199.68,-322.75 205.67,-326.38"/>
</g>
<!-- Node15&#45;&gt;Node16 -->
<g id="edge22" class="edge">
<title>Node15&#45;&gt;Node16</title>
<path fill="none" stroke="midnightblue" d="M215.58,-296.98C218.15,-288.49 222.17,-275.2 225.46,-264.32"/>
<polygon fill="midnightblue" stroke="midnightblue" points="228.88,-265.09 228.43,-254.51 222.18,-263.07 228.88,-265.09"/>
</g>
<!-- Node16&#45;&gt;Node4 -->
<g id="edge23" class="edge">
<title>Node16&#45;&gt;Node4</title>
<path fill="none" stroke="midnightblue" d="M231.98,-235.25C234.46,-213.95 241.63,-157.77 253,-112 255.24,-103 258.41,-93.21 261.26,-85.06"/>
<polygon fill="midnightblue" stroke="midnightblue" points="264.61,-86.1 264.72,-75.51 258.02,-83.72 264.61,-86.1"/>
</g>
<!-- Node16&#45;&gt;Node9 -->
<g id="edge24" class="edge">
<title>Node16&#45;&gt;Node9</title>
<path fill="none" stroke="midnightblue" d="M222.4,-235.48C213.14,-226.28 198.18,-211.46 186.79,-200.16"/>
<polygon fill="midnightblue" stroke="midnightblue" points="189.15,-197.57 179.58,-193.01 184.22,-202.54 189.15,-197.57"/>
</g>
<!-- Node18 -->
<g id="node18" class="node">
<title>Node18</title>
<g id="a_node18"><a xlink:href="_error_8h.html" target="_top" xlink:title="API for error handling.">
<polygon fill="white" stroke="black" points="523,-174 523,-193 611,-193 611,-174 523,-174"/>
<text text-anchor="middle" x="567" y="-181" font-family="Helvetica,sans-Serif" font-size="10.00">ifxBase/Error.h</text>
</a>
</g>
</g>
<!-- Node17&#45;&gt;Node18 -->
<g id="edge29" class="edge">
<title>Node17&#45;&gt;Node18</title>
<path fill="none" stroke="midnightblue" d="M391.29,-296.99C423.34,-276.47 505.15,-224.1 544.8,-198.71"/>
<polygon fill="midnightblue" stroke="midnightblue" points="546.94,-201.5 553.47,-193.16 543.16,-195.61 546.94,-201.5"/>
</g>
<!-- Node21 -->
<g id="node21" class="node">
<title>Node21</title>
<g id="a_node21"><a xlink:href="_list_8h.html" target="_top" xlink:title=" ">
<polygon fill="white" stroke="black" points="261.5,-112.5 261.5,-131.5 344.5,-131.5 344.5,-112.5 261.5,-112.5"/>
<text text-anchor="middle" x="303" y="-119.5" font-family="Helvetica,sans-Serif" font-size="10.00">ifxBase/List.h</text>
</a>
</g>
</g>
<!-- Node17&#45;&gt;Node21 -->
<g id="edge33" class="edge">
<title>Node17&#45;&gt;Node21</title>
<path fill="none" stroke="midnightblue" d="M363.94,-296.99C350.78,-288.21 331.73,-273.25 322,-255 302.54,-218.52 300.99,-168.7 301.82,-141.91"/>
<polygon fill="midnightblue" stroke="midnightblue" points="305.33,-141.8 302.3,-131.64 298.34,-141.47 305.33,-141.8"/>
</g>
<!-- Node22 -->
<g id="node22" class="node">
<title>Node22</title>
<g id="a_node22"><a xlink:href="_device_fmcw_types_8h.html" target="_top" xlink:title=" ">
<polygon fill="white" stroke="black" points="331,-235.5 331,-254.5 447,-254.5 447,-235.5 331,-235.5"/>
<text text-anchor="middle" x="389" y="-242.5" font-family="Helvetica,sans-Serif" font-size="10.00">DeviceFmcwTypes.h</text>
</a>
</g>
</g>
<!-- Node17&#45;&gt;Node22 -->
<g id="edge35" class="edge">
<title>Node17&#45;&gt;Node22</title>
<path fill="none" stroke="midnightblue" d="M379.58,-296.98C381.13,-288.58 383.55,-275.48 385.55,-264.66"/>
<polygon fill="midnightblue" stroke="midnightblue" points="389.05,-264.98 387.43,-254.51 382.17,-263.71 389.05,-264.98"/>
</g>
<!-- Node19 -->
<g id="node19" class="node">
<title>Node19</title>
<g id="a_node19"><a xlink:href="_log_8h.html" target="_top" xlink:title="API for logging.">
<polygon fill="white" stroke="black" points="498.5,-112.5 498.5,-131.5 541.5,-131.5 541.5,-112.5 498.5,-112.5"/>
<text text-anchor="middle" x="520" y="-119.5" font-family="Helvetica,sans-Serif" font-size="10.00">Log.h</text>
</a>
</g>
</g>
<!-- Node18&#45;&gt;Node19 -->
<g id="edge30" class="edge">
<title>Node18&#45;&gt;Node19</title>
<path fill="none" stroke="midnightblue" d="M560.27,-173.98C553.22,-165.05 541.97,-150.81 533.15,-139.64"/>
<polygon fill="midnightblue" stroke="midnightblue" points="535.67,-137.19 526.72,-131.51 530.17,-141.53 535.67,-137.19"/>
</g>
<!-- Node19&#45;&gt;Node4 -->
<g id="edge32" class="edge">
<title>Node19&#45;&gt;Node4</title>
<path fill="none" stroke="midnightblue" d="M498.08,-116.3C454.74,-107.02 357.73,-86.23 304.57,-74.84"/>
<polygon fill="midnightblue" stroke="midnightblue" points="305.06,-71.36 294.55,-72.69 303.59,-78.21 305.06,-71.36"/>
</g>
<!-- Node20 -->
<g id="node20" class="node">
<title>Node20</title>
<g id="a_node20"><a xlink:title=" ">
<polygon fill="white" stroke="#bfbfbf" points="495,-56.5 495,-75.5 545,-75.5 545,-56.5 495,-56.5"/>
<text text-anchor="middle" x="520" y="-63.5" font-family="Helvetica,sans-Serif" font-size="10.00">stdio.h</text>
</a>
</g>
</g>
<!-- Node19&#45;&gt;Node20 -->
<g id="edge31" class="edge">
<title>Node19&#45;&gt;Node20</title>
<path fill="none" stroke="midnightblue" d="M520,-112.08C520,-105.01 520,-94.86 520,-85.99"/>
<polygon fill="midnightblue" stroke="midnightblue" points="523.5,-85.75 520,-75.75 516.5,-85.75 523.5,-85.75"/>
</g>
<!-- Node21&#45;&gt;Node4 -->
<g id="edge34" class="edge">
<title>Node21&#45;&gt;Node4</title>
<path fill="none" stroke="midnightblue" d="M297.22,-112.08C292.33,-104.53 285.17,-93.49 279.17,-84.23"/>
<polygon fill="midnightblue" stroke="midnightblue" points="282.05,-82.24 273.67,-75.75 276.17,-86.05 282.05,-82.24"/>
</g>
<!-- Node22&#45;&gt;Node3 -->
<g id="edge37" class="edge">
<title>Node22&#45;&gt;Node3</title>
<path fill="none" stroke="midnightblue" d="M371.7,-235.49C329.37,-214.67 220.34,-161.04 169.65,-136.11"/>
<polygon fill="midnightblue" stroke="midnightblue" points="171.13,-132.93 160.61,-131.66 168.04,-139.22 171.13,-132.93"/>
</g>
<!-- Node22&#45;&gt;Node4 -->
<g id="edge38" class="edge">
<title>Node22&#45;&gt;Node4</title>
<path fill="none" stroke="midnightblue" d="M381.54,-235.39C374.59,-226.81 364.63,-212.94 360,-199 347.78,-162.22 375.2,-144.45 354,-112 342.65,-94.62 322.3,-83.55 304.26,-76.74"/>
<polygon fill="midnightblue" stroke="midnightblue" points="305.13,-73.34 294.54,-73.38 302.84,-79.95 305.13,-73.34"/>
</g>
<!-- Node22&#45;&gt;Node12 -->
<g id="edge39" class="edge">
<title>Node22&#45;&gt;Node12</title>
<path fill="none" stroke="midnightblue" d="M395.88,-235.48C401.95,-227.94 411.08,-216.63 419.2,-206.57"/>
<polygon fill="midnightblue" stroke="midnightblue" points="422.13,-208.5 425.69,-198.52 416.68,-204.11 422.13,-208.5"/>
</g>
<!-- Node22&#45;&gt;Node18 -->
<g id="edge36" class="edge">
<title>Node22&#45;&gt;Node18</title>
<path fill="none" stroke="midnightblue" d="M414.5,-235.48C445.3,-225.18 497.27,-207.81 531.85,-196.25"/>
<polygon fill="midnightblue" stroke="midnightblue" points="533.17,-199.5 541.54,-193.01 530.95,-192.86 533.17,-199.5"/>
</g>
</g>
</svg>
