<?xml version="1.0" encoding="UTF-8" standalone="no"?>
<!DOCTYPE svg PUBLIC "-//W3C//DTD SVG 1.1//EN"
 "http://www.w3.org/Graphics/SVG/1.1/DTD/svg11.dtd">
<!-- Generated by graphviz version 2.43.0 (0)
 -->
<!-- Title: /home/jenkins/agent/workspace/ild&#45;documentation_release_v3.5.0/sdk/c/ifxAlgo/PreprocessedFFT.h Pages: 1 -->
<svg width="337pt" height="341pt"
 viewBox="0.00 0.00 337.00 341.00" xmlns="http://www.w3.org/2000/svg" xmlns:xlink="http://www.w3.org/1999/xlink">
<g id="graph0" class="graph" transform="scale(1 1) rotate(0) translate(4 337)">
<title>/home/jenkins/agent/workspace/ild&#45;documentation_release_v3.5.0/sdk/c/ifxAlgo/PreprocessedFFT.h</title>
<polygon fill="white" stroke="transparent" points="-4,4 -4,-337 333,-337 333,4 -4,4"/>
<!-- Node1 -->
<g id="node1" class="node">
<title>Node1</title>
<g id="a_node1"><a xlink:title="API for Pre&#45;processed FFT.">
<polygon fill="#bfbfbf" stroke="black" points="133.5,-280.5 133.5,-332.5 297.5,-332.5 297.5,-280.5 133.5,-280.5"/>
<text text-anchor="start" x="141.5" y="-320.5" font-family="Helvetica,sans-Serif" font-size="10.00">/home/jenkins/agent</text>
<text text-anchor="start" x="141.5" y="-309.5" font-family="Helvetica,sans-Serif" font-size="10.00">/workspace/ild&#45;documentation</text>
<text text-anchor="start" x="141.5" y="-298.5" font-family="Helvetica,sans-Serif" font-size="10.00">_release_v3.5.0/sdk/c/ifxAlgo</text>
<text text-anchor="middle" x="215.5" y="-287.5" font-family="Helvetica,sans-Serif" font-size="10.00">/PreprocessedFFT.h</text>
</a>
</g>
</g>
<!-- Node2 -->
<g id="node2" class="node">
<title>Node2</title>
<g id="a_node2"><a xlink:href="_f_f_t_8h.html" target="_top" xlink:title="API for Fast Fourier Transform (FFT)">
<polygon fill="white" stroke="black" points="227.5,-224.5 227.5,-243.5 307.5,-243.5 307.5,-224.5 227.5,-224.5"/>
<text text-anchor="middle" x="267.5" y="-231.5" font-family="Helvetica,sans-Serif" font-size="10.00">ifxAlgo/FFT.h</text>
</a>
</g>
</g>
<!-- Node1&#45;&gt;Node2 -->
<g id="edge1" class="edge">
<title>Node1&#45;&gt;Node2</title>
<path fill="none" stroke="midnightblue" d="M233.98,-280.45C241,-270.93 248.82,-260.33 255.14,-251.76"/>
<polygon fill="midnightblue" stroke="midnightblue" points="257.97,-253.82 261.09,-243.7 252.33,-249.67 257.97,-253.82"/>
</g>
<!-- Node3 -->
<g id="node3" class="node">
<title>Node3</title>
<g id="a_node3"><a xlink:href="_types_8h.html" target="_top" xlink:title="Definitions of data types used within the SDK.">
<polygon fill="white" stroke="black" points="183,-56.5 183,-75.5 276,-75.5 276,-56.5 183,-56.5"/>
<text text-anchor="middle" x="229.5" y="-63.5" font-family="Helvetica,sans-Serif" font-size="10.00">ifxBase/Types.h</text>
</a>
</g>
</g>
<!-- Node1&#45;&gt;Node3 -->
<g id="edge17" class="edge">
<title>Node1&#45;&gt;Node3</title>
<path fill="none" stroke="midnightblue" d="M278.78,-280.36C293.78,-271.24 307.9,-259.3 316.5,-244 349.13,-185.94 281.94,-113.92 247.79,-82.68"/>
<polygon fill="midnightblue" stroke="midnightblue" points="249.69,-79.69 239.9,-75.65 245.04,-84.91 249.69,-79.69"/>
</g>
<!-- Node10 -->
<g id="node10" class="node">
<title>Node10</title>
<g id="a_node10"><a xlink:href="_window_8h.html" target="_top" xlink:title="API for Window function processing.">
<polygon fill="white" stroke="black" points="0,-224.5 0,-243.5 101,-243.5 101,-224.5 0,-224.5"/>
<text text-anchor="middle" x="50.5" y="-231.5" font-family="Helvetica,sans-Serif" font-size="10.00">ifxAlgo/Window.h</text>
</a>
</g>
</g>
<!-- Node1&#45;&gt;Node10 -->
<g id="edge11" class="edge">
<title>Node1&#45;&gt;Node10</title>
<path fill="none" stroke="midnightblue" d="M156.86,-280.45C130.79,-269.31 101.25,-256.68 79.92,-247.57"/>
<polygon fill="midnightblue" stroke="midnightblue" points="81.03,-244.24 70.46,-243.53 78.28,-250.67 81.03,-244.24"/>
</g>
<!-- Node11 -->
<g id="node11" class="node">
<title>Node11</title>
<g id="a_node11"><a xlink:href="_math_8h.html" target="_top" xlink:title="API for Mathematical operations.">
<polygon fill="white" stroke="black" points="119.5,-224.5 119.5,-243.5 209.5,-243.5 209.5,-224.5 119.5,-224.5"/>
<text text-anchor="middle" x="164.5" y="-231.5" font-family="Helvetica,sans-Serif" font-size="10.00">ifxBase/Math.h</text>
</a>
</g>
</g>
<!-- Node1&#45;&gt;Node11 -->
<g id="edge14" class="edge">
<title>Node1&#45;&gt;Node11</title>
<path fill="none" stroke="midnightblue" d="M197.38,-280.45C190.56,-271.03 182.98,-260.55 176.82,-252.03"/>
<polygon fill="midnightblue" stroke="midnightblue" points="179.49,-249.75 170.79,-243.7 173.82,-253.85 179.49,-249.75"/>
</g>
<!-- Node2&#45;&gt;Node3 -->
<g id="edge2" class="edge">
<title>Node2&#45;&gt;Node3</title>
<path fill="none" stroke="midnightblue" d="M266.12,-224.42C262.85,-204.52 254.1,-153.72 243.5,-112 241.23,-103.07 238.25,-93.28 235.62,-85.13"/>
<polygon fill="midnightblue" stroke="midnightblue" points="238.92,-83.95 232.46,-75.55 232.27,-86.14 238.92,-83.95"/>
</g>
<!-- Node7 -->
<g id="node7" class="node">
<title>Node7</title>
<g id="a_node7"><a xlink:href="_vector_8h.html" target="_top" xlink:title="API for operations on Vector data structures.">
<polygon fill="white" stroke="black" points="106,-168.5 106,-187.5 201,-187.5 201,-168.5 106,-168.5"/>
<text text-anchor="middle" x="153.5" y="-175.5" font-family="Helvetica,sans-Serif" font-size="10.00">ifxBase/Vector.h</text>
</a>
</g>
</g>
<!-- Node2&#45;&gt;Node7 -->
<g id="edge6" class="edge">
<title>Node2&#45;&gt;Node7</title>
<path fill="none" stroke="midnightblue" d="M249.44,-224.44C230.93,-215.68 201.92,-201.94 180.64,-191.86"/>
<polygon fill="midnightblue" stroke="midnightblue" points="182.01,-188.63 171.48,-187.52 179.02,-194.96 182.01,-188.63"/>
</g>
<!-- Node4 -->
<g id="node4" class="node">
<title>Node4</title>
<g id="a_node4"><a xlink:title=" ">
<polygon fill="white" stroke="#bfbfbf" points="121.5,-0.5 121.5,-19.5 183.5,-19.5 183.5,-0.5 121.5,-0.5"/>
<text text-anchor="middle" x="152.5" y="-7.5" font-family="Helvetica,sans-Serif" font-size="10.00">stdbool.h</text>
</a>
</g>
</g>
<!-- Node3&#45;&gt;Node4 -->
<g id="edge3" class="edge">
<title>Node3&#45;&gt;Node4</title>
<path fill="none" stroke="midnightblue" d="M217.13,-56.32C205.34,-48.06 187.37,-35.45 173.36,-25.63"/>
<polygon fill="midnightblue" stroke="midnightblue" points="175.04,-22.53 164.84,-19.65 171.02,-28.26 175.04,-22.53"/>
</g>
<!-- Node5 -->
<g id="node5" class="node">
<title>Node5</title>
<g id="a_node5"><a xlink:title=" ">
<polygon fill="white" stroke="#bfbfbf" points="201.5,-0.5 201.5,-19.5 257.5,-19.5 257.5,-0.5 201.5,-0.5"/>
<text text-anchor="middle" x="229.5" y="-7.5" font-family="Helvetica,sans-Serif" font-size="10.00">stddef.h</text>
</a>
</g>
</g>
<!-- Node3&#45;&gt;Node5 -->
<g id="edge4" class="edge">
<title>Node3&#45;&gt;Node5</title>
<path fill="none" stroke="midnightblue" d="M229.5,-56.08C229.5,-49.01 229.5,-38.86 229.5,-29.99"/>
<polygon fill="midnightblue" stroke="midnightblue" points="233,-29.75 229.5,-19.75 226,-29.75 233,-29.75"/>
</g>
<!-- Node6 -->
<g id="node6" class="node">
<title>Node6</title>
<g id="a_node6"><a xlink:title=" ">
<polygon fill="white" stroke="#bfbfbf" points="276,-0.5 276,-19.5 329,-19.5 329,-0.5 276,-0.5"/>
<text text-anchor="middle" x="302.5" y="-7.5" font-family="Helvetica,sans-Serif" font-size="10.00">stdint.h</text>
</a>
</g>
</g>
<!-- Node3&#45;&gt;Node6 -->
<g id="edge5" class="edge">
<title>Node3&#45;&gt;Node6</title>
<path fill="none" stroke="midnightblue" d="M241.23,-56.32C252.34,-48.11 269.24,-35.6 282.48,-25.81"/>
<polygon fill="midnightblue" stroke="midnightblue" points="284.6,-28.59 290.56,-19.83 280.44,-22.97 284.6,-28.59"/>
</g>
<!-- Node7&#45;&gt;Node3 -->
<g id="edge10" class="edge">
<title>Node7&#45;&gt;Node3</title>
<path fill="none" stroke="midnightblue" d="M159.46,-168.37C172.01,-150.22 201.31,-107.8 217.76,-83.99"/>
<polygon fill="midnightblue" stroke="midnightblue" points="220.76,-85.81 223.56,-75.59 215,-81.83 220.76,-85.81"/>
</g>
<!-- Node8 -->
<g id="node8" class="node">
<title>Node8</title>
<g id="a_node8"><a xlink:href="_mda_8h.html" target="_top" xlink:title="API for multi&#45;dimensional arrays.">
<polygon fill="white" stroke="black" points="116,-112.5 116,-131.5 163,-131.5 163,-112.5 116,-112.5"/>
<text text-anchor="middle" x="139.5" y="-119.5" font-family="Helvetica,sans-Serif" font-size="10.00">Mda.h</text>
</a>
</g>
</g>
<!-- Node7&#45;&gt;Node8 -->
<g id="edge7" class="edge">
<title>Node7&#45;&gt;Node8</title>
<path fill="none" stroke="midnightblue" d="M151.19,-168.08C149.33,-160.93 146.66,-150.64 144.35,-141.69"/>
<polygon fill="midnightblue" stroke="midnightblue" points="147.67,-140.55 141.77,-131.75 140.89,-142.31 147.67,-140.55"/>
</g>
<!-- Node8&#45;&gt;Node3 -->
<g id="edge8" class="edge">
<title>Node8&#45;&gt;Node3</title>
<path fill="none" stroke="midnightblue" d="M153.96,-112.32C168,-103.9 189.55,-90.97 206.04,-81.07"/>
<polygon fill="midnightblue" stroke="midnightblue" points="208.3,-83.8 215.08,-75.65 204.7,-77.8 208.3,-83.8"/>
</g>
<!-- Node9 -->
<g id="node9" class="node">
<title>Node9</title>
<g id="a_node9"><a xlink:title=" ">
<polygon fill="white" stroke="#bfbfbf" points="108.5,-56.5 108.5,-75.5 164.5,-75.5 164.5,-56.5 108.5,-56.5"/>
<text text-anchor="middle" x="136.5" y="-63.5" font-family="Helvetica,sans-Serif" font-size="10.00">assert.h</text>
</a>
</g>
</g>
<!-- Node8&#45;&gt;Node9 -->
<g id="edge9" class="edge">
<title>Node8&#45;&gt;Node9</title>
<path fill="none" stroke="midnightblue" d="M139,-112.08C138.61,-105.01 138.05,-94.86 137.55,-85.99"/>
<polygon fill="midnightblue" stroke="midnightblue" points="141.04,-85.54 136.99,-75.75 134.05,-85.93 141.04,-85.54"/>
</g>
<!-- Node10&#45;&gt;Node3 -->
<g id="edge12" class="edge">
<title>Node10&#45;&gt;Node3</title>
<path fill="none" stroke="midnightblue" d="M52.13,-224.33C56.68,-202.4 71.59,-144.14 106.5,-112 124.86,-95.1 150.09,-84.42 172.92,-77.73"/>
<polygon fill="midnightblue" stroke="midnightblue" points="174.14,-81.02 182.87,-75.02 172.3,-74.27 174.14,-81.02"/>
</g>
<!-- Node10&#45;&gt;Node7 -->
<g id="edge13" class="edge">
<title>Node10&#45;&gt;Node7</title>
<path fill="none" stroke="midnightblue" d="M67.05,-224.32C83.49,-215.7 108.93,-202.36 127.97,-192.39"/>
<polygon fill="midnightblue" stroke="midnightblue" points="129.76,-195.4 136.99,-187.65 126.51,-189.2 129.76,-195.4"/>
</g>
<!-- Node11&#45;&gt;Node3 -->
<g id="edge15" class="edge">
<title>Node11&#45;&gt;Node3</title>
<path fill="none" stroke="midnightblue" d="M176.54,-224.47C187.02,-216.34 201.72,-203.13 209.5,-188 226.47,-154.97 229.6,-110.8 229.87,-85.98"/>
<polygon fill="midnightblue" stroke="midnightblue" points="233.37,-85.76 229.83,-75.77 226.37,-85.79 233.37,-85.76"/>
</g>
<!-- Node11&#45;&gt;Node7 -->
<g id="edge16" class="edge">
<title>Node11&#45;&gt;Node7</title>
<path fill="none" stroke="midnightblue" d="M162.68,-224.08C161.23,-216.93 159.13,-206.64 157.31,-197.69"/>
<polygon fill="midnightblue" stroke="midnightblue" points="160.71,-196.85 155.28,-187.75 153.85,-198.25 160.71,-196.85"/>
</g>
</g>
</svg>
