<?xml version="1.0" encoding="UTF-8" standalone="no"?>
<!DOCTYPE svg PUBLIC "-//W3C//DTD SVG 1.1//EN"
 "http://www.w3.org/Graphics/SVG/1.1/DTD/svg11.dtd">
<!-- Generated by graphviz version 2.43.0 (0)
 -->
<!-- Title: /home/jenkins/agent/workspace/ild&#45;documentation_release_v3.5.0/sdk/c/ifxRadarSegmentation/RadarSegmentation.h Pages: 1 -->
<svg width="588pt" height="531pt"
 viewBox="0.00 0.00 587.79 531.00" xmlns="http://www.w3.org/2000/svg" xmlns:xlink="http://www.w3.org/1999/xlink">
<g id="graph0" class="graph" transform="scale(1 1) rotate(0) translate(4 527)">
<title>/home/jenkins/agent/workspace/ild&#45;documentation_release_v3.5.0/sdk/c/ifxRadarSegmentation/RadarSegmentation.h</title>
<polygon fill="white" stroke="transparent" points="-4,4 -4,-527 583.79,-527 583.79,4 -4,4"/>
<!-- Node1 -->
<g id="node1" class="node">
<title>Node1</title>
<g id="a_node1"><a xlink:title="Header for ifxRadarSegmentation.">
<polygon fill="#bfbfbf" stroke="black" points="73,-470.5 73,-522.5 307,-522.5 307,-470.5 73,-470.5"/>
<text text-anchor="start" x="81" y="-510.5" font-family="Helvetica,sans-Serif" font-size="10.00">/home/jenkins/agent</text>
<text text-anchor="start" x="81" y="-499.5" font-family="Helvetica,sans-Serif" font-size="10.00">/workspace/ild&#45;documentation</text>
<text text-anchor="start" x="81" y="-488.5" font-family="Helvetica,sans-Serif" font-size="10.00">_release_v3.5.0/sdk/c/ifxRadarSegmentation</text>
<text text-anchor="middle" x="190" y="-477.5" font-family="Helvetica,sans-Serif" font-size="10.00">/RadarSegmentation.h</text>
</a>
</g>
</g>
<!-- Node2 -->
<g id="node2" class="node">
<title>Node2</title>
<g id="a_node2"><a xlink:href="_segmentation_8h.html" target="_top" xlink:title="API for Segmentation and Seamless Tracking algorithm.">
<polygon fill="white" stroke="black" points="127,-403.5 127,-433.5 253,-433.5 253,-403.5 127,-403.5"/>
<text text-anchor="start" x="135" y="-421.5" font-family="Helvetica,sans-Serif" font-size="10.00">ifxRadarSegmentation</text>
<text text-anchor="middle" x="190" y="-410.5" font-family="Helvetica,sans-Serif" font-size="10.00">/Segmentation.h</text>
</a>
</g>
</g>
<!-- Node1&#45;&gt;Node2 -->
<g id="edge1" class="edge">
<title>Node1&#45;&gt;Node2</title>
<path fill="none" stroke="midnightblue" d="M190,-470.19C190,-461.79 190,-452.44 190,-444.09"/>
<polygon fill="midnightblue" stroke="midnightblue" points="193.5,-443.85 190,-433.85 186.5,-443.85 193.5,-443.85"/>
</g>
<!-- Node3 -->
<g id="node3" class="node">
<title>Node3</title>
<g id="a_node3"><a xlink:href="_cube_8h.html" target="_top" xlink:title="API for operations on Cube data structures.">
<polygon fill="white" stroke="black" points="46,-347.5 46,-366.5 136,-366.5 136,-347.5 46,-347.5"/>
<text text-anchor="middle" x="91" y="-354.5" font-family="Helvetica,sans-Serif" font-size="10.00">ifxBase/Cube.h</text>
</a>
</g>
</g>
<!-- Node2&#45;&gt;Node3 -->
<g id="edge2" class="edge">
<title>Node2&#45;&gt;Node3</title>
<path fill="none" stroke="midnightblue" d="M166.54,-403.4C150.67,-393.86 129.81,-381.32 114.03,-371.84"/>
<polygon fill="midnightblue" stroke="midnightblue" points="115.78,-368.81 105.41,-366.66 112.17,-374.81 115.78,-368.81"/>
</g>
<!-- Node6 -->
<g id="node6" class="node">
<title>Node6</title>
<g id="a_node6"><a xlink:href="_types_8h.html" target="_top" xlink:title="Definitions of data types used within the SDK.">
<polygon fill="white" stroke="black" points="147.5,-56.5 147.5,-75.5 200.5,-75.5 200.5,-56.5 147.5,-56.5"/>
<text text-anchor="middle" x="174" y="-63.5" font-family="Helvetica,sans-Serif" font-size="10.00">Types.h</text>
</a>
</g>
</g>
<!-- Node2&#45;&gt;Node6 -->
<g id="edge20" class="edge">
<title>Node2&#45;&gt;Node6</title>
<path fill="none" stroke="midnightblue" d="M253.2,-411.83C363.15,-400.21 578,-368.94 578,-302 578,-302 578,-302 578,-188 578,-153.18 585.15,-134.99 559,-112 533.11,-89.24 302.05,-74.09 210.82,-68.94"/>
<polygon fill="midnightblue" stroke="midnightblue" points="210.84,-65.44 200.66,-68.38 210.45,-72.43 210.84,-65.44"/>
</g>
<!-- Node10 -->
<g id="node10" class="node">
<title>Node10</title>
<g id="a_node10"><a xlink:href="_vector_8h.html" target="_top" xlink:title="API for operations on Vector data structures.">
<polygon fill="white" stroke="black" points="108,-179.5 108,-198.5 164,-198.5 164,-179.5 108,-179.5"/>
<text text-anchor="middle" x="136" y="-186.5" font-family="Helvetica,sans-Serif" font-size="10.00">Vector.h</text>
</a>
</g>
</g>
<!-- Node2&#45;&gt;Node10 -->
<g id="edge21" class="edge">
<title>Node2&#45;&gt;Node10</title>
<path fill="none" stroke="midnightblue" d="M190.95,-403.15C192.51,-371.53 193.42,-293.95 170,-235 165.81,-224.46 158.46,-214.25 151.66,-206.23"/>
<polygon fill="midnightblue" stroke="midnightblue" points="154.22,-203.84 144.93,-198.74 149.01,-208.51 154.22,-203.84"/>
</g>
<!-- Node13 -->
<g id="node13" class="node">
<title>Node13</title>
<g id="a_node13"><a xlink:href="_matrix_8h.html" target="_top" xlink:title="API for operations on Matrix data structures.">
<polygon fill="white" stroke="black" points="35.5,-235.5 35.5,-254.5 92.5,-254.5 92.5,-235.5 35.5,-235.5"/>
<text text-anchor="middle" x="64" y="-242.5" font-family="Helvetica,sans-Serif" font-size="10.00">Matrix.h</text>
</a>
</g>
</g>
<!-- Node2&#45;&gt;Node13 -->
<g id="edge19" class="edge">
<title>Node2&#45;&gt;Node13</title>
<path fill="none" stroke="midnightblue" d="M126.9,-413.62C94.44,-408.04 57.49,-395.33 37,-367 14.19,-335.45 37.1,-288.07 52.5,-262.99"/>
<polygon fill="midnightblue" stroke="midnightblue" points="55.46,-264.85 57.93,-254.54 49.58,-261.07 55.46,-264.85"/>
</g>
<!-- Node14 -->
<g id="node14" class="node">
<title>Node14</title>
<g id="a_node14"><a xlink:href="_device_config_8h.html" target="_top" xlink:title="API for Radar device configuration.">
<polygon fill="white" stroke="black" points="231.5,-179.5 231.5,-198.5 364.5,-198.5 364.5,-179.5 231.5,-179.5"/>
<text text-anchor="middle" x="298" y="-186.5" font-family="Helvetica,sans-Serif" font-size="10.00">ifxAvian/DeviceConfig.h</text>
</a>
</g>
</g>
<!-- Node2&#45;&gt;Node14 -->
<g id="edge22" class="edge">
<title>Node2&#45;&gt;Node14</title>
<path fill="none" stroke="midnightblue" d="M196.76,-403.27C215.57,-363.64 268.53,-252.08 289.4,-208.12"/>
<polygon fill="midnightblue" stroke="midnightblue" points="292.64,-209.46 293.76,-198.93 286.31,-206.46 292.64,-209.46"/>
</g>
<!-- Node4 -->
<g id="node4" class="node">
<title>Node4</title>
<g id="a_node4"><a xlink:href="_defines_8h.html" target="_top" xlink:title="Internal definitions used by standard math.h functions as Macros, to use float or double precision.">
<polygon fill="white" stroke="black" points="98,-291.5 98,-310.5 160,-310.5 160,-291.5 98,-291.5"/>
<text text-anchor="middle" x="129" y="-298.5" font-family="Helvetica,sans-Serif" font-size="10.00">Defines.h</text>
</a>
</g>
</g>
<!-- Node3&#45;&gt;Node4 -->
<g id="edge3" class="edge">
<title>Node3&#45;&gt;Node4</title>
<path fill="none" stroke="midnightblue" d="M97.27,-347.08C102.64,-339.46 110.52,-328.26 117.08,-318.94"/>
<polygon fill="midnightblue" stroke="midnightblue" points="119.95,-320.94 122.84,-310.75 114.22,-316.91 119.95,-320.94"/>
</g>
<!-- Node11 -->
<g id="node11" class="node">
<title>Node11</title>
<g id="a_node11"><a xlink:href="_mda_8h.html" target="_top" xlink:title="API for multi&#45;dimensional arrays.">
<polygon fill="white" stroke="black" points="4.5,-118 4.5,-137 51.5,-137 51.5,-118 4.5,-118"/>
<text text-anchor="middle" x="28" y="-125" font-family="Helvetica,sans-Serif" font-size="10.00">Mda.h</text>
</a>
</g>
</g>
<!-- Node3&#45;&gt;Node11 -->
<g id="edge18" class="edge">
<title>Node3&#45;&gt;Node11</title>
<path fill="none" stroke="midnightblue" d="M82.96,-347.42C68.21,-331.02 37.29,-293.41 26,-255 15.09,-217.9 20.13,-172.01 24.34,-146.96"/>
<polygon fill="midnightblue" stroke="midnightblue" points="27.81,-147.49 26.16,-137.02 20.92,-146.23 27.81,-147.49"/>
</g>
<!-- Node3&#45;&gt;Node13 -->
<g id="edge14" class="edge">
<title>Node3&#45;&gt;Node13</title>
<path fill="none" stroke="midnightblue" d="M88.88,-347.37C84.52,-329.62 74.47,-288.67 68.56,-264.6"/>
<polygon fill="midnightblue" stroke="midnightblue" points="71.89,-263.47 66.11,-254.59 65.09,-265.14 71.89,-263.47"/>
</g>
<!-- Node5 -->
<g id="node5" class="node">
<title>Node5</title>
<g id="a_node5"><a xlink:href="_math_8h.html" target="_top" xlink:title="API for Mathematical operations.">
<polygon fill="white" stroke="black" points="110.5,-235.5 110.5,-254.5 161.5,-254.5 161.5,-235.5 110.5,-235.5"/>
<text text-anchor="middle" x="136" y="-242.5" font-family="Helvetica,sans-Serif" font-size="10.00">math.h</text>
</a>
</g>
</g>
<!-- Node4&#45;&gt;Node5 -->
<g id="edge4" class="edge">
<title>Node4&#45;&gt;Node5</title>
<path fill="none" stroke="midnightblue" d="M130.16,-291.08C131.08,-283.93 132.42,-273.64 133.58,-264.69"/>
<polygon fill="midnightblue" stroke="midnightblue" points="137.05,-265.12 134.87,-254.75 130.11,-264.22 137.05,-265.12"/>
</g>
<!-- Node5&#45;&gt;Node6 -->
<g id="edge5" class="edge">
<title>Node5&#45;&gt;Node6</title>
<path fill="none" stroke="midnightblue" d="M146.41,-235.24C155.38,-226.95 167.69,-213.64 173,-199 186.88,-160.71 181.97,-111.98 177.67,-85.75"/>
<polygon fill="midnightblue" stroke="midnightblue" points="181.08,-84.91 175.87,-75.69 174.19,-86.15 181.08,-84.91"/>
</g>
<!-- Node5&#45;&gt;Node10 -->
<g id="edge9" class="edge">
<title>Node5&#45;&gt;Node10</title>
<path fill="none" stroke="midnightblue" d="M136,-235.08C136,-228.01 136,-217.86 136,-208.99"/>
<polygon fill="midnightblue" stroke="midnightblue" points="139.5,-208.75 136,-198.75 132.5,-208.75 139.5,-208.75"/>
</g>
<!-- Node7 -->
<g id="node7" class="node">
<title>Node7</title>
<g id="a_node7"><a xlink:title=" ">
<polygon fill="white" stroke="#bfbfbf" points="66,-0.5 66,-19.5 128,-19.5 128,-0.5 66,-0.5"/>
<text text-anchor="middle" x="97" y="-7.5" font-family="Helvetica,sans-Serif" font-size="10.00">stdbool.h</text>
</a>
</g>
</g>
<!-- Node6&#45;&gt;Node7 -->
<g id="edge6" class="edge">
<title>Node6&#45;&gt;Node7</title>
<path fill="none" stroke="midnightblue" d="M161.63,-56.32C149.84,-48.06 131.87,-35.45 117.86,-25.63"/>
<polygon fill="midnightblue" stroke="midnightblue" points="119.54,-22.53 109.34,-19.65 115.52,-28.26 119.54,-22.53"/>
</g>
<!-- Node8 -->
<g id="node8" class="node">
<title>Node8</title>
<g id="a_node8"><a xlink:title=" ">
<polygon fill="white" stroke="#bfbfbf" points="146,-0.5 146,-19.5 202,-19.5 202,-0.5 146,-0.5"/>
<text text-anchor="middle" x="174" y="-7.5" font-family="Helvetica,sans-Serif" font-size="10.00">stddef.h</text>
</a>
</g>
</g>
<!-- Node6&#45;&gt;Node8 -->
<g id="edge7" class="edge">
<title>Node6&#45;&gt;Node8</title>
<path fill="none" stroke="midnightblue" d="M174,-56.08C174,-49.01 174,-38.86 174,-29.99"/>
<polygon fill="midnightblue" stroke="midnightblue" points="177.5,-29.75 174,-19.75 170.5,-29.75 177.5,-29.75"/>
</g>
<!-- Node9 -->
<g id="node9" class="node">
<title>Node9</title>
<g id="a_node9"><a xlink:title=" ">
<polygon fill="white" stroke="#bfbfbf" points="220.5,-0.5 220.5,-19.5 273.5,-19.5 273.5,-0.5 220.5,-0.5"/>
<text text-anchor="middle" x="247" y="-7.5" font-family="Helvetica,sans-Serif" font-size="10.00">stdint.h</text>
</a>
</g>
</g>
<!-- Node6&#45;&gt;Node9 -->
<g id="edge8" class="edge">
<title>Node6&#45;&gt;Node9</title>
<path fill="none" stroke="midnightblue" d="M185.73,-56.32C196.84,-48.11 213.74,-35.6 226.98,-25.81"/>
<polygon fill="midnightblue" stroke="midnightblue" points="229.1,-28.59 235.06,-19.83 224.94,-22.97 229.1,-28.59"/>
</g>
<!-- Node10&#45;&gt;Node6 -->
<g id="edge13" class="edge">
<title>Node10&#45;&gt;Node6</title>
<path fill="none" stroke="midnightblue" d="M138.73,-179.3C144.9,-159.68 159.98,-111.64 168.29,-85.19"/>
<polygon fill="midnightblue" stroke="midnightblue" points="171.63,-86.21 171.29,-75.62 164.96,-84.12 171.63,-86.21"/>
</g>
<!-- Node10&#45;&gt;Node11 -->
<g id="edge10" class="edge">
<title>Node10&#45;&gt;Node11</title>
<path fill="none" stroke="midnightblue" d="M120.53,-179.48C102.72,-169.67 73.26,-153.43 52.37,-141.92"/>
<polygon fill="midnightblue" stroke="midnightblue" points="53.89,-138.77 43.45,-137.01 50.51,-144.9 53.89,-138.77"/>
</g>
<!-- Node11&#45;&gt;Node6 -->
<g id="edge11" class="edge">
<title>Node11&#45;&gt;Node6</title>
<path fill="none" stroke="midnightblue" d="M48.92,-117.98C73.75,-107.86 115.34,-90.9 143.69,-79.35"/>
<polygon fill="midnightblue" stroke="midnightblue" points="145.18,-82.52 153.12,-75.51 142.54,-76.04 145.18,-82.52"/>
</g>
<!-- Node12 -->
<g id="node12" class="node">
<title>Node12</title>
<g id="a_node12"><a xlink:title=" ">
<polygon fill="white" stroke="#bfbfbf" points="0,-56.5 0,-75.5 56,-75.5 56,-56.5 0,-56.5"/>
<text text-anchor="middle" x="28" y="-63.5" font-family="Helvetica,sans-Serif" font-size="10.00">assert.h</text>
</a>
</g>
</g>
<!-- Node11&#45;&gt;Node12 -->
<g id="edge12" class="edge">
<title>Node11&#45;&gt;Node12</title>
<path fill="none" stroke="midnightblue" d="M28,-117.98C28,-109.58 28,-96.48 28,-85.66"/>
<polygon fill="midnightblue" stroke="midnightblue" points="31.5,-85.51 28,-75.51 24.5,-85.51 31.5,-85.51"/>
</g>
<!-- Node13&#45;&gt;Node6 -->
<g id="edge16" class="edge">
<title>Node13&#45;&gt;Node6</title>
<path fill="none" stroke="midnightblue" d="M68.28,-235.44C74.63,-222.87 87.1,-198.76 99,-179 119.82,-144.42 146.63,-105.6 161.91,-83.94"/>
<polygon fill="midnightblue" stroke="midnightblue" points="164.95,-85.71 167.88,-75.53 159.24,-81.66 164.95,-85.71"/>
</g>
<!-- Node13&#45;&gt;Node10 -->
<g id="edge17" class="edge">
<title>Node13&#45;&gt;Node10</title>
<path fill="none" stroke="midnightblue" d="M75.57,-235.32C86.42,-227.18 102.88,-214.84 115.88,-205.09"/>
<polygon fill="midnightblue" stroke="midnightblue" points="118.32,-207.63 124.22,-198.83 114.12,-202.03 118.32,-207.63"/>
</g>
<!-- Node13&#45;&gt;Node11 -->
<g id="edge15" class="edge">
<title>Node13&#45;&gt;Node11</title>
<path fill="none" stroke="midnightblue" d="M61.29,-235.32C55.48,-216.67 41.7,-172.44 33.81,-147.13"/>
<polygon fill="midnightblue" stroke="midnightblue" points="37.05,-145.79 30.74,-137.28 30.37,-147.87 37.05,-145.79"/>
</g>
<!-- Node14&#45;&gt;Node6 -->
<g id="edge23" class="edge">
<title>Node14&#45;&gt;Node6</title>
<path fill="none" stroke="midnightblue" d="M282.3,-179.5C267.99,-171.3 246.75,-157.95 231,-143 212.2,-125.16 195,-100.58 184.52,-84.26"/>
<polygon fill="midnightblue" stroke="midnightblue" points="187.45,-82.33 179.17,-75.72 181.52,-86.05 187.45,-82.33"/>
</g>
<!-- Node15 -->
<g id="node15" class="node">
<title>Node15</title>
<g id="a_node15"><a xlink:href="_device_fmcw_avian_config_8h.html" target="_top" xlink:title="API for Radar device configuration.">
<polygon fill="white" stroke="black" points="394.5,-112.5 394.5,-142.5 549.5,-142.5 549.5,-112.5 394.5,-112.5"/>
<text text-anchor="start" x="402.5" y="-130.5" font-family="Helvetica,sans-Serif" font-size="10.00">ifxFmcw/avian/DeviceFmcw</text>
<text text-anchor="middle" x="472" y="-119.5" font-family="Helvetica,sans-Serif" font-size="10.00">AvianConfig.h</text>
</a>
</g>
</g>
<!-- Node14&#45;&gt;Node15 -->
<g id="edge24" class="edge">
<title>Node14&#45;&gt;Node15</title>
<path fill="none" stroke="midnightblue" d="M322.93,-179.48C348.48,-170.74 388.93,-156.91 421.25,-145.86"/>
<polygon fill="midnightblue" stroke="midnightblue" points="422.66,-149.07 430.99,-142.52 420.4,-142.45 422.66,-149.07"/>
</g>
<!-- Node16 -->
<g id="node16" class="node">
<title>Node16</title>
<g id="a_node16"><a xlink:href="_radar_device_common_8h.html" target="_top" xlink:title="Header for ifxRadarDeviceCommon.">
<polygon fill="white" stroke="black" points="240,-112.5 240,-142.5 376,-142.5 376,-112.5 240,-112.5"/>
<text text-anchor="start" x="248" y="-130.5" font-family="Helvetica,sans-Serif" font-size="10.00">ifxRadarDeviceCommon</text>
<text text-anchor="middle" x="308" y="-119.5" font-family="Helvetica,sans-Serif" font-size="10.00">/RadarDeviceCommon.h</text>
</a>
</g>
</g>
<!-- Node14&#45;&gt;Node16 -->
<g id="edge25" class="edge">
<title>Node14&#45;&gt;Node16</title>
<path fill="none" stroke="midnightblue" d="M299.43,-179.48C300.62,-172.4 302.37,-161.97 303.98,-152.39"/>
<polygon fill="midnightblue" stroke="midnightblue" points="307.44,-152.96 305.64,-142.52 300.53,-151.8 307.44,-152.96"/>
</g>
<!-- Node16&#45;&gt;Node6 -->
<g id="edge26" class="edge">
<title>Node16&#45;&gt;Node6</title>
<path fill="none" stroke="midnightblue" d="M276.24,-112.4C253.96,-102.51 224.41,-89.38 202.81,-79.79"/>
<polygon fill="midnightblue" stroke="midnightblue" points="204.06,-76.52 193.5,-75.66 201.22,-82.91 204.06,-76.52"/>
</g>
</g>
</svg>
