<?xml version="1.0" encoding="UTF-8" standalone="no"?>
<!DOCTYPE svg PUBLIC "-//W3C//DTD SVG 1.1//EN"
 "http://www.w3.org/Graphics/SVG/1.1/DTD/svg11.dtd">
<!-- Generated by graphviz version 2.43.0 (0)
 -->
<!-- Title: /home/jenkins/agent/workspace/ild&#45;documentation_release_v3.5.0/sdk/c/ifxRadarDeviceCommon/RadarDeviceCommon.h Pages: 1 -->
<svg width="942pt" height="506pt"
 viewBox="0.00 0.00 942.28 506.00" xmlns="http://www.w3.org/2000/svg" xmlns:xlink="http://www.w3.org/1999/xlink">
<g id="graph0" class="graph" transform="scale(1 1) rotate(0) translate(4 502)">
<title>/home/jenkins/agent/workspace/ild&#45;documentation_release_v3.5.0/sdk/c/ifxRadarDeviceCommon/RadarDeviceCommon.h</title>
<polygon fill="white" stroke="transparent" points="-4,4 -4,-502 938.28,-502 938.28,4 -4,4"/>
<!-- Node1 -->
<g id="node1" class="node">
<title>Node1</title>
<g id="a_node1"><a xlink:title="Header for ifxRadarDeviceCommon.">
<polygon fill="#bfbfbf" stroke="black" points="547.78,-445.5 547.78,-497.5 747.78,-497.5 747.78,-445.5 547.78,-445.5"/>
<text text-anchor="start" x="555.78" y="-485.5" font-family="Helvetica,sans-Serif" font-size="10.00">/home/jenkins/agent</text>
<text text-anchor="start" x="555.78" y="-474.5" font-family="Helvetica,sans-Serif" font-size="10.00">/workspace/ild&#45;documentation</text>
<text text-anchor="start" x="555.78" y="-463.5" font-family="Helvetica,sans-Serif" font-size="10.00">_release_v3.5.0/sdk/c/ifxRadarDevice</text>
<text text-anchor="middle" x="647.78" y="-452.5" font-family="Helvetica,sans-Serif" font-size="10.00">Common/RadarDeviceCommon.h</text>
</a>
</g>
</g>
<!-- Node2 -->
<g id="node2" class="node">
<title>Node2</title>
<g id="a_node2"><a xlink:href="_device_config_8h.html" target="_top" xlink:title="API for Radar device configuration.">
<polygon fill="white" stroke="black" points="254.78,-267.5 254.78,-319.5 418.78,-319.5 418.78,-267.5 254.78,-267.5"/>
<text text-anchor="start" x="262.78" y="-307.5" font-family="Helvetica,sans-Serif" font-size="10.00">/home/jenkins/agent</text>
<text text-anchor="start" x="262.78" y="-296.5" font-family="Helvetica,sans-Serif" font-size="10.00">/workspace/ild&#45;documentation</text>
<text text-anchor="start" x="262.78" y="-285.5" font-family="Helvetica,sans-Serif" font-size="10.00">_release_v3.5.0/sdk/c/ifxAvian</text>
<text text-anchor="middle" x="336.78" y="-274.5" font-family="Helvetica,sans-Serif" font-size="10.00">/DeviceConfig.h</text>
</a>
</g>
</g>
<!-- Node1&#45;&gt;Node2 -->
<g id="edge1" class="edge">
<title>Node1&#45;&gt;Node2</title>
<path fill="none" stroke="midnightblue" d="M594.58,-440.39C534.37,-406.32 437.38,-351.43 381.11,-319.59"/>
<polygon fill="midnightblue" stroke="midnightblue" points="593.12,-443.59 603.55,-445.47 596.57,-437.5 593.12,-443.59"/>
</g>
<!-- Node11 -->
<g id="node11" class="node">
<title>Node11</title>
<g id="a_node11"><a xlink:href="_device_fmcw_types_8h.html" target="_top" xlink:title=" ">
<polygon fill="white" stroke="black" points="564.28,-356.5 564.28,-408.5 731.28,-408.5 731.28,-356.5 564.28,-356.5"/>
<text text-anchor="start" x="572.28" y="-396.5" font-family="Helvetica,sans-Serif" font-size="10.00">/home/jenkins/agent</text>
<text text-anchor="start" x="572.28" y="-385.5" font-family="Helvetica,sans-Serif" font-size="10.00">/workspace/ild&#45;documentation</text>
<text text-anchor="start" x="572.28" y="-374.5" font-family="Helvetica,sans-Serif" font-size="10.00">_release_v3.5.0/sdk/c/ifxFmcw</text>
<text text-anchor="middle" x="647.78" y="-363.5" font-family="Helvetica,sans-Serif" font-size="10.00">/DeviceFmcwTypes.h</text>
</a>
</g>
</g>
<!-- Node1&#45;&gt;Node11 -->
<g id="edge13" class="edge">
<title>Node1&#45;&gt;Node11</title>
<path fill="none" stroke="midnightblue" d="M647.78,-435.19C647.78,-426.28 647.78,-416.9 647.78,-408.61"/>
<polygon fill="midnightblue" stroke="midnightblue" points="644.28,-435.34 647.78,-445.34 651.28,-435.34 644.28,-435.34"/>
</g>
<!-- Node15 -->
<g id="node15" class="node">
<title>Node15</title>
<g id="a_node15"><a xlink:href="_device_ltr11_8h.html" target="_top" xlink:title="Main header file for DeviceLtr11.">
<polygon fill="white" stroke="black" points="749.78,-356.5 749.78,-408.5 913.78,-408.5 913.78,-356.5 749.78,-356.5"/>
<text text-anchor="start" x="757.78" y="-396.5" font-family="Helvetica,sans-Serif" font-size="10.00">/home/jenkins/agent</text>
<text text-anchor="start" x="757.78" y="-385.5" font-family="Helvetica,sans-Serif" font-size="10.00">/workspace/ild&#45;documentation</text>
<text text-anchor="start" x="757.78" y="-374.5" font-family="Helvetica,sans-Serif" font-size="10.00">_release_v3.5.0/sdk/c/ifxLtr11</text>
<text text-anchor="middle" x="831.78" y="-363.5" font-family="Helvetica,sans-Serif" font-size="10.00">/DeviceLtr11.h</text>
</a>
</g>
</g>
<!-- Node1&#45;&gt;Node15 -->
<g id="edge20" class="edge">
<title>Node1&#45;&gt;Node15</title>
<path fill="none" stroke="midnightblue" d="M710.05,-441.06C732.34,-430.52 757.23,-418.75 778.68,-408.61"/>
<polygon fill="midnightblue" stroke="midnightblue" points="708.54,-437.9 701,-445.34 711.53,-444.23 708.54,-437.9"/>
</g>
<!-- Node3 -->
<g id="node3" class="node">
<title>Node3</title>
<g id="a_node3"><a xlink:href="_avian_8h.html" target="_top" xlink:title="Header for ifxAvian.">
<polygon fill="white" stroke="black" points="468.78,-0.5 468.78,-52.5 632.78,-52.5 632.78,-0.5 468.78,-0.5"/>
<text text-anchor="start" x="476.78" y="-40.5" font-family="Helvetica,sans-Serif" font-size="10.00">/home/jenkins/agent</text>
<text text-anchor="start" x="476.78" y="-29.5" font-family="Helvetica,sans-Serif" font-size="10.00">/workspace/ild&#45;documentation</text>
<text text-anchor="start" x="476.78" y="-18.5" font-family="Helvetica,sans-Serif" font-size="10.00">_release_v3.5.0/sdk/c/ifxAvian</text>
<text text-anchor="middle" x="550.78" y="-7.5" font-family="Helvetica,sans-Serif" font-size="10.00">/Avian.h</text>
</a>
</g>
</g>
<!-- Node2&#45;&gt;Node3 -->
<g id="edge2" class="edge">
<title>Node2&#45;&gt;Node3</title>
<path fill="none" stroke="midnightblue" d="M244.44,-286.56C164.44,-279.25 57.45,-263.56 30.78,-231 -9.21,-182.17 -11.15,-136.17 30.78,-89 59.33,-56.87 329.5,-38.65 468.71,-31.32"/>
<polygon fill="midnightblue" stroke="midnightblue" points="244.28,-290.06 254.55,-287.45 244.9,-283.08 244.28,-290.06"/>
</g>
<!-- Node4 -->
<g id="node4" class="node">
<title>Node4</title>
<g id="a_node4"><a xlink:href="_device_control_8h.html" target="_top" xlink:title="Header for ifxAvian.">
<polygon fill="white" stroke="black" points="547.78,-178.5 547.78,-230.5 711.78,-230.5 711.78,-178.5 547.78,-178.5"/>
<text text-anchor="start" x="555.78" y="-218.5" font-family="Helvetica,sans-Serif" font-size="10.00">/home/jenkins/agent</text>
<text text-anchor="start" x="555.78" y="-207.5" font-family="Helvetica,sans-Serif" font-size="10.00">/workspace/ild&#45;documentation</text>
<text text-anchor="start" x="555.78" y="-196.5" font-family="Helvetica,sans-Serif" font-size="10.00">_release_v3.5.0/sdk/c/ifxAvian</text>
<text text-anchor="middle" x="629.78" y="-185.5" font-family="Helvetica,sans-Serif" font-size="10.00">/DeviceControl.h</text>
</a>
</g>
</g>
<!-- Node2&#45;&gt;Node4 -->
<g id="edge3" class="edge">
<title>Node2&#45;&gt;Node4</title>
<path fill="none" stroke="midnightblue" d="M428.83,-265.17C466.86,-253.87 510.6,-240.89 547.54,-229.92"/>
<polygon fill="midnightblue" stroke="midnightblue" points="427.37,-261.95 418.78,-268.15 429.37,-268.66 427.37,-261.95"/>
</g>
<!-- Node7 -->
<g id="node7" class="node">
<title>Node7</title>
<g id="a_node7"><a xlink:href="_presence_sensing_8h.html" target="_top" xlink:title=" ">
<polygon fill="white" stroke="black" points="305.78,-89.5 305.78,-141.5 515.78,-141.5 515.78,-89.5 305.78,-89.5"/>
<text text-anchor="start" x="313.78" y="-129.5" font-family="Helvetica,sans-Serif" font-size="10.00">/home/jenkins/agent</text>
<text text-anchor="start" x="313.78" y="-118.5" font-family="Helvetica,sans-Serif" font-size="10.00">/workspace/ild&#45;documentation</text>
<text text-anchor="start" x="313.78" y="-107.5" font-family="Helvetica,sans-Serif" font-size="10.00">_release_v3.5.0/sdk/c/ifxRadarPresence</text>
<text text-anchor="middle" x="410.78" y="-96.5" font-family="Helvetica,sans-Serif" font-size="10.00">Sensing/PresenceSensing.h</text>
</a>
</g>
</g>
<!-- Node2&#45;&gt;Node7 -->
<g id="edge10" class="edge">
<title>Node2&#45;&gt;Node7</title>
<path fill="none" stroke="midnightblue" d="M322.01,-257.69C314.31,-233.97 308.9,-202.55 321.78,-178 329.63,-163.03 342.96,-150.99 356.95,-141.66"/>
<polygon fill="midnightblue" stroke="midnightblue" points="318.78,-259.07 325.4,-267.34 325.38,-256.75 318.78,-259.07"/>
</g>
<!-- Node8 -->
<g id="node8" class="node">
<title>Node8</title>
<g id="a_node8"><a xlink:href="_motion_angle_8h.html" target="_top" xlink:title=" ">
<polygon fill="white" stroke="black" points="330.28,-178.5 330.28,-230.5 529.28,-230.5 529.28,-178.5 330.28,-178.5"/>
<text text-anchor="start" x="338.28" y="-218.5" font-family="Helvetica,sans-Serif" font-size="10.00">/home/jenkins/agent</text>
<text text-anchor="start" x="338.28" y="-207.5" font-family="Helvetica,sans-Serif" font-size="10.00">/workspace/ild&#45;documentation</text>
<text text-anchor="start" x="338.28" y="-196.5" font-family="Helvetica,sans-Serif" font-size="10.00">_release_v3.5.0/sdk/c/ifxMotionAngle</text>
<text text-anchor="middle" x="429.78" y="-185.5" font-family="Helvetica,sans-Serif" font-size="10.00">/MotionAngle.h</text>
</a>
</g>
</g>
<!-- Node2&#45;&gt;Node8 -->
<g id="edge9" class="edge">
<title>Node2&#45;&gt;Node8</title>
<path fill="none" stroke="midnightblue" d="M371.13,-260.36C381.63,-250.54 393.02,-239.89 402.94,-230.61"/>
<polygon fill="midnightblue" stroke="midnightblue" points="368.59,-257.95 363.68,-267.34 373.37,-263.06 368.59,-257.95"/>
</g>
<!-- Node9 -->
<g id="node9" class="node">
<title>Node9</title>
<g id="a_node9"><a xlink:href="_segmentation_8h.html" target="_top" xlink:title="API for Segmentation and Seamless Tracking algorithm.">
<polygon fill="white" stroke="black" points="39.78,-178.5 39.78,-230.5 273.78,-230.5 273.78,-178.5 39.78,-178.5"/>
<text text-anchor="start" x="47.78" y="-218.5" font-family="Helvetica,sans-Serif" font-size="10.00">/home/jenkins/agent</text>
<text text-anchor="start" x="47.78" y="-207.5" font-family="Helvetica,sans-Serif" font-size="10.00">/workspace/ild&#45;documentation</text>
<text text-anchor="start" x="47.78" y="-196.5" font-family="Helvetica,sans-Serif" font-size="10.00">_release_v3.5.0/sdk/c/ifxRadarSegmentation</text>
<text text-anchor="middle" x="156.78" y="-185.5" font-family="Helvetica,sans-Serif" font-size="10.00">/Segmentation.h</text>
</a>
</g>
</g>
<!-- Node2&#45;&gt;Node9 -->
<g id="edge11" class="edge">
<title>Node2&#45;&gt;Node9</title>
<path fill="none" stroke="midnightblue" d="M275.57,-262.92C253.84,-252.41 229.61,-240.7 208.72,-230.61"/>
<polygon fill="midnightblue" stroke="midnightblue" points="274.19,-266.14 284.71,-267.34 277.23,-259.83 274.19,-266.14"/>
</g>
<!-- Node4&#45;&gt;Node3 -->
<g id="edge4" class="edge">
<title>Node4&#45;&gt;Node3</title>
<path fill="none" stroke="midnightblue" d="M590.99,-171C582.83,-162.37 575.09,-152.5 569.78,-142 555.39,-113.6 551.53,-76.64 550.68,-52.5"/>
<polygon fill="midnightblue" stroke="midnightblue" points="588.68,-173.64 598.23,-178.25 593.64,-168.69 588.68,-173.64"/>
</g>
<!-- Node5 -->
<g id="node5" class="node">
<title>Node5</title>
<g id="a_node5"><a xlink:href="_metrics_8h.html" target="_top" xlink:title="API for Metrics.">
<polygon fill="white" stroke="black" points="760.78,-89.5 760.78,-141.5 924.78,-141.5 924.78,-89.5 760.78,-89.5"/>
<text text-anchor="start" x="768.78" y="-129.5" font-family="Helvetica,sans-Serif" font-size="10.00">/home/jenkins/agent</text>
<text text-anchor="start" x="768.78" y="-118.5" font-family="Helvetica,sans-Serif" font-size="10.00">/workspace/ild&#45;documentation</text>
<text text-anchor="start" x="768.78" y="-107.5" font-family="Helvetica,sans-Serif" font-size="10.00">_release_v3.5.0/sdk/c/ifxAvian</text>
<text text-anchor="middle" x="842.78" y="-96.5" font-family="Helvetica,sans-Serif" font-size="10.00">/Metrics.h</text>
</a>
</g>
</g>
<!-- Node4&#45;&gt;Node5 -->
<g id="edge5" class="edge">
<title>Node4&#45;&gt;Node5</title>
<path fill="none" stroke="midnightblue" d="M700.59,-174.58C726.79,-163.88 756.24,-151.85 781.52,-141.52"/>
<polygon fill="midnightblue" stroke="midnightblue" points="699.03,-171.43 691.1,-178.45 701.68,-177.91 699.03,-171.43"/>
</g>
<!-- Node6 -->
<g id="node6" class="node">
<title>Node6</title>
<g id="a_node6"><a xlink:href="_device_cw_8h.html" target="_top" xlink:title="Header for Continuous Wave Control.">
<polygon fill="white" stroke="black" points="578.78,-89.5 578.78,-141.5 742.78,-141.5 742.78,-89.5 578.78,-89.5"/>
<text text-anchor="start" x="586.78" y="-129.5" font-family="Helvetica,sans-Serif" font-size="10.00">/home/jenkins/agent</text>
<text text-anchor="start" x="586.78" y="-118.5" font-family="Helvetica,sans-Serif" font-size="10.00">/workspace/ild&#45;documentation</text>
<text text-anchor="start" x="586.78" y="-107.5" font-family="Helvetica,sans-Serif" font-size="10.00">_release_v3.5.0/sdk/c/ifxCw</text>
<text text-anchor="middle" x="660.78" y="-96.5" font-family="Helvetica,sans-Serif" font-size="10.00">/DeviceCw.h</text>
</a>
</g>
</g>
<!-- Node4&#45;&gt;Node6 -->
<g id="edge7" class="edge">
<title>Node4&#45;&gt;Node6</title>
<path fill="none" stroke="midnightblue" d="M642.15,-168.77C645.39,-159.69 648.81,-150.08 651.83,-141.61"/>
<polygon fill="midnightblue" stroke="midnightblue" points="638.8,-167.74 638.74,-178.34 645.4,-170.09 638.8,-167.74"/>
</g>
<!-- Node4&#45;&gt;Node7 -->
<g id="edge8" class="edge">
<title>Node4&#45;&gt;Node7</title>
<path fill="none" stroke="midnightblue" d="M557.32,-174.72C530.3,-163.98 499.87,-151.89 473.76,-141.52"/>
<polygon fill="midnightblue" stroke="midnightblue" points="556.14,-178.01 566.73,-178.45 558.73,-171.51 556.14,-178.01"/>
</g>
<!-- Node5&#45;&gt;Node3 -->
<g id="edge6" class="edge">
<title>Node5&#45;&gt;Node3</title>
<path fill="none" stroke="midnightblue" d="M750.67,-87.06C712.87,-75.8 669.47,-62.86 632.78,-51.93"/>
<polygon fill="midnightblue" stroke="midnightblue" points="750.08,-90.53 760.66,-90.03 752.08,-83.82 750.08,-90.53"/>
</g>
<!-- Node10 -->
<g id="node10" class="node">
<title>Node10</title>
<g id="a_node10"><a xlink:href="_radar_segmentation_8h.html" target="_top" xlink:title="Header for ifxRadarSegmentation.">
<polygon fill="white" stroke="black" points="39.78,-89.5 39.78,-141.5 273.78,-141.5 273.78,-89.5 39.78,-89.5"/>
<text text-anchor="start" x="47.78" y="-129.5" font-family="Helvetica,sans-Serif" font-size="10.00">/home/jenkins/agent</text>
<text text-anchor="start" x="47.78" y="-118.5" font-family="Helvetica,sans-Serif" font-size="10.00">/workspace/ild&#45;documentation</text>
<text text-anchor="start" x="47.78" y="-107.5" font-family="Helvetica,sans-Serif" font-size="10.00">_release_v3.5.0/sdk/c/ifxRadarSegmentation</text>
<text text-anchor="middle" x="156.78" y="-96.5" font-family="Helvetica,sans-Serif" font-size="10.00">/RadarSegmentation.h</text>
</a>
</g>
</g>
<!-- Node9&#45;&gt;Node10 -->
<g id="edge12" class="edge">
<title>Node9&#45;&gt;Node10</title>
<path fill="none" stroke="midnightblue" d="M156.78,-168.19C156.78,-159.28 156.78,-149.9 156.78,-141.61"/>
<polygon fill="midnightblue" stroke="midnightblue" points="153.28,-168.34 156.78,-178.34 160.28,-168.34 153.28,-168.34"/>
</g>
<!-- Node12 -->
<g id="node12" class="node">
<title>Node12</title>
<g id="a_node12"><a xlink:href="_device_cw_types_8h.html" target="_top" xlink:title=" ">
<polygon fill="white" stroke="black" points="657.78,-267.5 657.78,-319.5 821.78,-319.5 821.78,-267.5 657.78,-267.5"/>
<text text-anchor="start" x="665.78" y="-307.5" font-family="Helvetica,sans-Serif" font-size="10.00">/home/jenkins/agent</text>
<text text-anchor="start" x="665.78" y="-296.5" font-family="Helvetica,sans-Serif" font-size="10.00">/workspace/ild&#45;documentation</text>
<text text-anchor="start" x="665.78" y="-285.5" font-family="Helvetica,sans-Serif" font-size="10.00">_release_v3.5.0/sdk/c/ifxCw</text>
<text text-anchor="middle" x="739.78" y="-274.5" font-family="Helvetica,sans-Serif" font-size="10.00">/DeviceCwTypes.h</text>
</a>
</g>
</g>
<!-- Node11&#45;&gt;Node12 -->
<g id="edge14" class="edge">
<title>Node11&#45;&gt;Node12</title>
<path fill="none" stroke="midnightblue" d="M681.76,-349.36C692.15,-339.54 703.41,-328.89 713.23,-319.61"/>
<polygon fill="midnightblue" stroke="midnightblue" points="679.25,-346.92 674.39,-356.34 684.06,-352.01 679.25,-346.92"/>
</g>
<!-- Node13 -->
<g id="node13" class="node">
<title>Node13</title>
<g id="a_node13"><a xlink:href="_device_fmcw_8h.html" target="_top" xlink:title="For details refer to FMCW Device Control.">
<polygon fill="white" stroke="black" points="472.28,-267.5 472.28,-319.5 639.28,-319.5 639.28,-267.5 472.28,-267.5"/>
<text text-anchor="start" x="480.28" y="-307.5" font-family="Helvetica,sans-Serif" font-size="10.00">/home/jenkins/agent</text>
<text text-anchor="start" x="480.28" y="-296.5" font-family="Helvetica,sans-Serif" font-size="10.00">/workspace/ild&#45;documentation</text>
<text text-anchor="start" x="480.28" y="-285.5" font-family="Helvetica,sans-Serif" font-size="10.00">_release_v3.5.0/sdk/c/ifxFmcw</text>
<text text-anchor="middle" x="555.78" y="-274.5" font-family="Helvetica,sans-Serif" font-size="10.00">/DeviceFmcw.h</text>
</a>
</g>
</g>
<!-- Node11&#45;&gt;Node13 -->
<g id="edge16" class="edge">
<title>Node11&#45;&gt;Node13</title>
<path fill="none" stroke="midnightblue" d="M613.79,-349.36C603.41,-339.54 592.14,-328.89 582.33,-319.61"/>
<polygon fill="midnightblue" stroke="midnightblue" points="611.5,-352.01 621.17,-356.34 616.31,-346.92 611.5,-352.01"/>
</g>
<!-- Node14 -->
<g id="node14" class="node">
<title>Node14</title>
<g id="a_node14"><a xlink:href="_metrics_fmcw_8h.html" target="_top" xlink:title="API for MetricsFmcw.">
<polygon fill="white" stroke="black" points="767.28,-178.5 767.28,-230.5 934.28,-230.5 934.28,-178.5 767.28,-178.5"/>
<text text-anchor="start" x="775.28" y="-218.5" font-family="Helvetica,sans-Serif" font-size="10.00">/home/jenkins/agent</text>
<text text-anchor="start" x="775.28" y="-207.5" font-family="Helvetica,sans-Serif" font-size="10.00">/workspace/ild&#45;documentation</text>
<text text-anchor="start" x="775.28" y="-196.5" font-family="Helvetica,sans-Serif" font-size="10.00">_release_v3.5.0/sdk/c/ifxFmcw</text>
<text text-anchor="middle" x="850.78" y="-185.5" font-family="Helvetica,sans-Serif" font-size="10.00">/MetricsFmcw.h</text>
</a>
</g>
</g>
<!-- Node11&#45;&gt;Node14 -->
<g id="edge18" class="edge">
<title>Node11&#45;&gt;Node14</title>
<path fill="none" stroke="midnightblue" d="M741.19,-354.67C782.88,-341.87 824.17,-327.69 830.78,-320 851.95,-295.36 854.4,-256.42 853.31,-230.92"/>
<polygon fill="midnightblue" stroke="midnightblue" points="740.01,-351.37 731.46,-357.63 742.05,-358.07 740.01,-351.37"/>
</g>
<!-- Node12&#45;&gt;Node6 -->
<g id="edge15" class="edge">
<title>Node12&#45;&gt;Node6</title>
<path fill="none" stroke="midnightblue" d="M739.36,-257.25C737.81,-233.7 733.25,-202.63 720.78,-178 713.9,-164.43 702.98,-151.91 692.33,-141.75"/>
<polygon fill="midnightblue" stroke="midnightblue" points="735.88,-257.68 739.88,-267.5 742.87,-257.33 735.88,-257.68"/>
</g>
<!-- Node13&#45;&gt;Node4 -->
<g id="edge17" class="edge">
<title>Node13&#45;&gt;Node4</title>
<path fill="none" stroke="midnightblue" d="M583.84,-259.5C591.99,-249.92 600.76,-239.62 608.42,-230.61"/>
<polygon fill="midnightblue" stroke="midnightblue" points="580.99,-257.45 577.18,-267.34 586.33,-261.99 580.99,-257.45"/>
</g>
<!-- Node14&#45;&gt;Node5 -->
<g id="edge19" class="edge">
<title>Node14&#45;&gt;Node5</title>
<path fill="none" stroke="midnightblue" d="M847.53,-168.19C846.71,-159.28 845.85,-149.9 845.09,-141.61"/>
<polygon fill="midnightblue" stroke="midnightblue" points="844.06,-168.7 848.46,-178.34 851.03,-168.06 844.06,-168.7"/>
</g>
</g>
</svg>
