<?xml version="1.0" encoding="UTF-8" standalone="no"?>
<!DOCTYPE svg PUBLIC "-//W3C//DTD SVG 1.1//EN"
 "http://www.w3.org/Graphics/SVG/1.1/DTD/svg11.dtd">
<!-- Generated by graphviz version 2.43.0 (0)
 -->
<!-- Title: /home/jenkins/agent/workspace/ild&#45;documentation_release_v3.5.0/sdk/c/ifxRadar/Radar.h Pages: 1 -->
<svg width="1034pt" height="565pt"
 viewBox="0.00 0.00 1033.50 565.00" xmlns="http://www.w3.org/2000/svg" xmlns:xlink="http://www.w3.org/1999/xlink">
<g id="graph0" class="graph" transform="scale(1 1) rotate(0) translate(4 561)">
<title>/home/jenkins/agent/workspace/ild&#45;documentation_release_v3.5.0/sdk/c/ifxRadar/Radar.h</title>
<polygon fill="white" stroke="transparent" points="-4,4 -4,-561 1029.5,-561 1029.5,4 -4,4"/>
<!-- Node1 -->
<g id="node1" class="node">
<title>Node1</title>
<g id="a_node1"><a xlink:title="Header for ifxRadar.">
<polygon fill="#bfbfbf" stroke="black" points="489,-504.5 489,-556.5 655,-556.5 655,-504.5 489,-504.5"/>
<text text-anchor="start" x="497" y="-544.5" font-family="Helvetica,sans-Serif" font-size="10.00">/home/jenkins/agent</text>
<text text-anchor="start" x="497" y="-533.5" font-family="Helvetica,sans-Serif" font-size="10.00">/workspace/ild&#45;documentation</text>
<text text-anchor="start" x="497" y="-522.5" font-family="Helvetica,sans-Serif" font-size="10.00">_release_v3.5.0/sdk/c/ifxRadar</text>
<text text-anchor="middle" x="572" y="-511.5" font-family="Helvetica,sans-Serif" font-size="10.00">/Radar.h</text>
</a>
</g>
</g>
<!-- Node2 -->
<g id="node2" class="node">
<title>Node2</title>
<g id="a_node2"><a xlink:href="_angle_capon_8h.html" target="_top" xlink:title="API for the 1&#45;D Angle Capon algorithm.">
<polygon fill="white" stroke="black" points="722,-392.5 722,-411.5 850,-411.5 850,-392.5 722,-392.5"/>
<text text-anchor="middle" x="786" y="-399.5" font-family="Helvetica,sans-Serif" font-size="10.00">ifxRadar/AngleCapon.h</text>
</a>
</g>
</g>
<!-- Node1&#45;&gt;Node2 -->
<g id="edge1" class="edge">
<title>Node1&#45;&gt;Node2</title>
<path fill="none" stroke="midnightblue" d="M636.81,-504.45C659.97,-494.4 685.82,-481.9 708,-468 730.94,-453.63 754.42,-433.11 769.55,-418.99"/>
<polygon fill="midnightblue" stroke="midnightblue" points="772.19,-421.31 777.03,-411.88 767.37,-416.23 772.19,-421.31"/>
</g>
<!-- Node14 -->
<g id="node14" class="node">
<title>Node14</title>
<g id="a_node14"><a xlink:href="_angle_monopulse_8h.html" target="_top" xlink:title="API for Phase Monopulse algorithm.">
<polygon fill="white" stroke="black" points="87.5,-392.5 87.5,-411.5 238.5,-411.5 238.5,-392.5 87.5,-392.5"/>
<text text-anchor="middle" x="163" y="-399.5" font-family="Helvetica,sans-Serif" font-size="10.00">ifxRadar/AngleMonopulse.h</text>
</a>
</g>
</g>
<!-- Node1&#45;&gt;Node14 -->
<g id="edge20" class="edge">
<title>Node1&#45;&gt;Node14</title>
<path fill="none" stroke="midnightblue" d="M488.97,-513.82C437.4,-503.11 370.08,-487.37 312,-468 267.74,-453.24 218.51,-430.44 189.18,-416.14"/>
<polygon fill="midnightblue" stroke="midnightblue" points="190.56,-412.91 180.04,-411.64 187.47,-419.19 190.56,-412.91"/>
</g>
<!-- Node16 -->
<g id="node16" class="node">
<title>Node16</title>
<g id="a_node16"><a xlink:href="_d_b_f_8h.html" target="_top" xlink:title="API for Digital Beamforming (DBF) algorithm.">
<polygon fill="white" stroke="black" points="474.5,-392.5 474.5,-411.5 563.5,-411.5 563.5,-392.5 474.5,-392.5"/>
<text text-anchor="middle" x="519" y="-399.5" font-family="Helvetica,sans-Serif" font-size="10.00">ifxRadar/DBF.h</text>
</a>
</g>
</g>
<!-- Node1&#45;&gt;Node16 -->
<g id="edge26" class="edge">
<title>Node1&#45;&gt;Node16</title>
<path fill="none" stroke="midnightblue" d="M561.4,-504.2C551.07,-479.54 535.62,-442.67 526.5,-420.9"/>
<polygon fill="midnightblue" stroke="midnightblue" points="529.67,-419.42 522.58,-411.55 523.22,-422.13 529.67,-419.42"/>
</g>
<!-- Node17 -->
<g id="node17" class="node">
<title>Node17</title>
<g id="a_node17"><a xlink:href="_peak_search_8h.html" target="_top" xlink:title="API for Peak Search preprocessing.">
<polygon fill="white" stroke="black" points="898.5,-224.5 898.5,-243.5 1025.5,-243.5 1025.5,-224.5 898.5,-224.5"/>
<text text-anchor="middle" x="962" y="-231.5" font-family="Helvetica,sans-Serif" font-size="10.00">ifxRadar/PeakSearch.h</text>
</a>
</g>
</g>
<!-- Node1&#45;&gt;Node17 -->
<g id="edge29" class="edge">
<title>Node1&#45;&gt;Node17</title>
<path fill="none" stroke="midnightblue" d="M655.28,-517.52C762.45,-499.71 935,-461.9 935,-403 935,-403 935,-403 935,-345 935,-311.86 946.7,-274.68 954.7,-253.14"/>
<polygon fill="midnightblue" stroke="midnightblue" points="958.02,-254.25 958.36,-243.66 951.49,-251.73 958.02,-254.25"/>
</g>
<!-- Node18 -->
<g id="node18" class="node">
<title>Node18</title>
<g id="a_node18"><a xlink:href="_range_angle_image_8h.html" target="_top" xlink:title="API for Range Angle Image algorithm.">
<polygon fill="white" stroke="black" points="366.5,-448.5 366.5,-467.5 525.5,-467.5 525.5,-448.5 366.5,-448.5"/>
<text text-anchor="middle" x="446" y="-455.5" font-family="Helvetica,sans-Serif" font-size="10.00">ifxRadar/RangeAngleImage.h</text>
</a>
</g>
</g>
<!-- Node1&#45;&gt;Node18 -->
<g id="edge32" class="edge">
<title>Node1&#45;&gt;Node18</title>
<path fill="none" stroke="midnightblue" d="M527.22,-504.45C507.95,-493.66 486.18,-481.48 470.03,-472.45"/>
<polygon fill="midnightblue" stroke="midnightblue" points="471.68,-469.36 461.24,-467.53 468.26,-475.46 471.68,-469.36"/>
</g>
<!-- Node19 -->
<g id="node19" class="node">
<title>Node19</title>
<g id="a_node19"><a xlink:href="_range_doppler_map_8h.html" target="_top" xlink:title="API for Doppler Spectrogram.">
<polygon fill="white" stroke="black" points="232,-336.5 232,-355.5 392,-355.5 392,-336.5 232,-336.5"/>
<text text-anchor="middle" x="312" y="-343.5" font-family="Helvetica,sans-Serif" font-size="10.00">ifxRadar/RangeDopplerMap.h</text>
</a>
</g>
</g>
<!-- Node1&#45;&gt;Node19 -->
<g id="edge48" class="edge">
<title>Node1&#45;&gt;Node19</title>
<path fill="none" stroke="midnightblue" d="M488.97,-523.61C444.92,-516.46 392.69,-501.03 357,-468 327.62,-440.82 317.34,-392.68 313.8,-366.05"/>
<polygon fill="midnightblue" stroke="midnightblue" points="317.24,-365.32 312.63,-355.78 310.28,-366.11 317.24,-365.32"/>
</g>
<!-- Node23 -->
<g id="node23" class="node">
<title>Node23</title>
<g id="a_node23"><a xlink:href="_range_spectrum_8h.html" target="_top" xlink:title="API for Range Spectrum.">
<polygon fill="white" stroke="black" points="518.5,-336.5 518.5,-355.5 665.5,-355.5 665.5,-336.5 518.5,-336.5"/>
<text text-anchor="middle" x="592" y="-343.5" font-family="Helvetica,sans-Serif" font-size="10.00">ifxRadar/RangeSpectrum.h</text>
</a>
</g>
</g>
<!-- Node1&#45;&gt;Node23 -->
<g id="edge49" class="edge">
<title>Node1&#45;&gt;Node23</title>
<path fill="none" stroke="midnightblue" d="M574.78,-504.12C578.85,-466.98 586.34,-398.64 589.95,-365.71"/>
<polygon fill="midnightblue" stroke="midnightblue" points="593.44,-365.97 591.05,-355.65 586.48,-365.21 593.44,-365.97"/>
</g>
<!-- Node24 -->
<g id="node24" class="node">
<title>Node24</title>
<g id="a_node24"><a xlink:href="_spectrum_axis_8h.html" target="_top" xlink:title="API for Spectrum Axis used by Range spectrum, Range Doppler and Range Angle Map modules.">
<polygon fill="white" stroke="black" points="628.5,-280.5 628.5,-299.5 765.5,-299.5 765.5,-280.5 628.5,-280.5"/>
<text text-anchor="middle" x="697" y="-287.5" font-family="Helvetica,sans-Serif" font-size="10.00">ifxRadar/SpectrumAxis.h</text>
</a>
</g>
</g>
<!-- Node1&#45;&gt;Node24 -->
<g id="edge55" class="edge">
<title>Node1&#45;&gt;Node24</title>
<path fill="none" stroke="midnightblue" d="M588.79,-504.47C610.44,-471.46 648.34,-411.12 674,-356 681.11,-340.74 687.35,-322.63 691.53,-309.41"/>
<polygon fill="midnightblue" stroke="midnightblue" points="694.94,-310.21 694.53,-299.62 688.25,-308.15 694.94,-310.21"/>
</g>
<!-- Node3 -->
<g id="node3" class="node">
<title>Node3</title>
<g id="a_node3"><a xlink:href="_cube_8h.html" target="_top" xlink:title="API for operations on Cube data structures.">
<polygon fill="white" stroke="black" points="410,-336.5 410,-355.5 500,-355.5 500,-336.5 410,-336.5"/>
<text text-anchor="middle" x="455" y="-343.5" font-family="Helvetica,sans-Serif" font-size="10.00">ifxBase/Cube.h</text>
</a>
</g>
</g>
<!-- Node2&#45;&gt;Node3 -->
<g id="edge2" class="edge">
<title>Node2&#45;&gt;Node3</title>
<path fill="none" stroke="midnightblue" d="M733.14,-392.48C679.52,-383.82 593.84,-369.94 510.02,-356.16"/>
<polygon fill="midnightblue" stroke="midnightblue" points="510.51,-352.7 500.08,-354.53 509.38,-359.6 510.51,-352.7"/>
</g>
<!-- Node6 -->
<g id="node6" class="node">
<title>Node6</title>
<g id="a_node6"><a xlink:href="_types_8h.html" target="_top" xlink:title="Definitions of data types used within the SDK.">
<polygon fill="white" stroke="black" points="440.5,-56.5 440.5,-75.5 493.5,-75.5 493.5,-56.5 440.5,-56.5"/>
<text text-anchor="middle" x="467" y="-63.5" font-family="Helvetica,sans-Serif" font-size="10.00">Types.h</text>
</a>
</g>
</g>
<!-- Node2&#45;&gt;Node6 -->
<g id="edge19" class="edge">
<title>Node2&#45;&gt;Node6</title>
<path fill="none" stroke="midnightblue" d="M799.12,-392.46C822.75,-375.94 870,-337.14 870,-291 870,-291 870,-291 870,-177 870,-101.51 603.53,-76.06 503.95,-69.18"/>
<polygon fill="midnightblue" stroke="midnightblue" points="503.96,-65.67 493.75,-68.5 503.5,-72.66 503.96,-65.67"/>
</g>
<!-- Node4 -->
<g id="node4" class="node">
<title>Node4</title>
<g id="a_node4"><a xlink:href="_defines_8h.html" target="_top" xlink:title="Internal definitions used by standard math.h functions as Macros, to use float or double precision.">
<polygon fill="white" stroke="black" points="308,-280.5 308,-299.5 370,-299.5 370,-280.5 308,-280.5"/>
<text text-anchor="middle" x="339" y="-287.5" font-family="Helvetica,sans-Serif" font-size="10.00">Defines.h</text>
</a>
</g>
</g>
<!-- Node3&#45;&gt;Node4 -->
<g id="edge3" class="edge">
<title>Node3&#45;&gt;Node4</title>
<path fill="none" stroke="midnightblue" d="M436.62,-336.44C417.78,-327.68 388.27,-313.94 366.62,-303.86"/>
<polygon fill="midnightblue" stroke="midnightblue" points="367.84,-300.56 357.29,-299.52 364.88,-306.91 367.84,-300.56"/>
</g>
<!-- Node11 -->
<g id="node11" class="node">
<title>Node11</title>
<g id="a_node11"><a xlink:href="_mda_8h.html" target="_top" xlink:title="API for multi&#45;dimensional arrays.">
<polygon fill="white" stroke="black" points="238.5,-112.5 238.5,-131.5 285.5,-131.5 285.5,-112.5 238.5,-112.5"/>
<text text-anchor="middle" x="262" y="-119.5" font-family="Helvetica,sans-Serif" font-size="10.00">Mda.h</text>
</a>
</g>
</g>
<!-- Node3&#45;&gt;Node11 -->
<g id="edge18" class="edge">
<title>Node3&#45;&gt;Node11</title>
<path fill="none" stroke="midnightblue" d="M409.89,-336.99C343.26,-325.06 225.99,-303.62 223,-300 183.84,-252.51 227.29,-174.25 249.98,-139.97"/>
<polygon fill="midnightblue" stroke="midnightblue" points="252.99,-141.77 255.74,-131.53 247.21,-137.82 252.99,-141.77"/>
</g>
<!-- Node13 -->
<g id="node13" class="node">
<title>Node13</title>
<g id="a_node13"><a xlink:href="_matrix_8h.html" target="_top" xlink:title="API for operations on Matrix data structures.">
<polygon fill="white" stroke="black" points="232.5,-280.5 232.5,-299.5 289.5,-299.5 289.5,-280.5 232.5,-280.5"/>
<text text-anchor="middle" x="261" y="-287.5" font-family="Helvetica,sans-Serif" font-size="10.00">Matrix.h</text>
</a>
</g>
</g>
<!-- Node3&#45;&gt;Node13 -->
<g id="edge14" class="edge">
<title>Node3&#45;&gt;Node13</title>
<path fill="none" stroke="midnightblue" d="M424.26,-336.44C390.47,-327.04 336.13,-311.91 299.52,-301.72"/>
<polygon fill="midnightblue" stroke="midnightblue" points="300.27,-298.3 289.7,-298.99 298.39,-305.04 300.27,-298.3"/>
</g>
<!-- Node5 -->
<g id="node5" class="node">
<title>Node5</title>
<g id="a_node5"><a xlink:href="_math_8h.html" target="_top" xlink:title="API for Mathematical operations.">
<polygon fill="white" stroke="black" points="420.5,-224.5 420.5,-243.5 471.5,-243.5 471.5,-224.5 420.5,-224.5"/>
<text text-anchor="middle" x="446" y="-231.5" font-family="Helvetica,sans-Serif" font-size="10.00">math.h</text>
</a>
</g>
</g>
<!-- Node4&#45;&gt;Node5 -->
<g id="edge4" class="edge">
<title>Node4&#45;&gt;Node5</title>
<path fill="none" stroke="midnightblue" d="M356.19,-280.32C373.35,-271.66 399.95,-258.24 419.75,-248.25"/>
<polygon fill="midnightblue" stroke="midnightblue" points="421.5,-251.28 428.85,-243.65 418.35,-245.04 421.5,-251.28"/>
</g>
<!-- Node5&#45;&gt;Node6 -->
<g id="edge5" class="edge">
<title>Node5&#45;&gt;Node6</title>
<path fill="none" stroke="midnightblue" d="M447.13,-224.08C450.43,-197.95 460.14,-121.21 464.65,-85.58"/>
<polygon fill="midnightblue" stroke="midnightblue" points="468.13,-85.93 465.92,-75.57 461.19,-85.05 468.13,-85.93"/>
</g>
<!-- Node10 -->
<g id="node10" class="node">
<title>Node10</title>
<g id="a_node10"><a xlink:href="_vector_8h.html" target="_top" xlink:title="API for operations on Vector data structures.">
<polygon fill="white" stroke="black" points="472,-168.5 472,-187.5 528,-187.5 528,-168.5 472,-168.5"/>
<text text-anchor="middle" x="500" y="-175.5" font-family="Helvetica,sans-Serif" font-size="10.00">Vector.h</text>
</a>
</g>
</g>
<!-- Node5&#45;&gt;Node10 -->
<g id="edge9" class="edge">
<title>Node5&#45;&gt;Node10</title>
<path fill="none" stroke="midnightblue" d="M454.92,-224.08C462.78,-216.22 474.43,-204.57 483.92,-195.08"/>
<polygon fill="midnightblue" stroke="midnightblue" points="486.65,-197.3 491.25,-187.75 481.7,-192.35 486.65,-197.3"/>
</g>
<!-- Node7 -->
<g id="node7" class="node">
<title>Node7</title>
<g id="a_node7"><a xlink:title=" ">
<polygon fill="white" stroke="#bfbfbf" points="359,-0.5 359,-19.5 421,-19.5 421,-0.5 359,-0.5"/>
<text text-anchor="middle" x="390" y="-7.5" font-family="Helvetica,sans-Serif" font-size="10.00">stdbool.h</text>
</a>
</g>
</g>
<!-- Node6&#45;&gt;Node7 -->
<g id="edge6" class="edge">
<title>Node6&#45;&gt;Node7</title>
<path fill="none" stroke="midnightblue" d="M454.63,-56.32C442.84,-48.06 424.87,-35.45 410.86,-25.63"/>
<polygon fill="midnightblue" stroke="midnightblue" points="412.54,-22.53 402.34,-19.65 408.52,-28.26 412.54,-22.53"/>
</g>
<!-- Node8 -->
<g id="node8" class="node">
<title>Node8</title>
<g id="a_node8"><a xlink:title=" ">
<polygon fill="white" stroke="#bfbfbf" points="439,-0.5 439,-19.5 495,-19.5 495,-0.5 439,-0.5"/>
<text text-anchor="middle" x="467" y="-7.5" font-family="Helvetica,sans-Serif" font-size="10.00">stddef.h</text>
</a>
</g>
</g>
<!-- Node6&#45;&gt;Node8 -->
<g id="edge7" class="edge">
<title>Node6&#45;&gt;Node8</title>
<path fill="none" stroke="midnightblue" d="M467,-56.08C467,-49.01 467,-38.86 467,-29.99"/>
<polygon fill="midnightblue" stroke="midnightblue" points="470.5,-29.75 467,-19.75 463.5,-29.75 470.5,-29.75"/>
</g>
<!-- Node9 -->
<g id="node9" class="node">
<title>Node9</title>
<g id="a_node9"><a xlink:title=" ">
<polygon fill="white" stroke="#bfbfbf" points="513.5,-0.5 513.5,-19.5 566.5,-19.5 566.5,-0.5 513.5,-0.5"/>
<text text-anchor="middle" x="540" y="-7.5" font-family="Helvetica,sans-Serif" font-size="10.00">stdint.h</text>
</a>
</g>
</g>
<!-- Node6&#45;&gt;Node9 -->
<g id="edge8" class="edge">
<title>Node6&#45;&gt;Node9</title>
<path fill="none" stroke="midnightblue" d="M478.73,-56.32C489.84,-48.11 506.74,-35.6 519.98,-25.81"/>
<polygon fill="midnightblue" stroke="midnightblue" points="522.1,-28.59 528.06,-19.83 517.94,-22.97 522.1,-28.59"/>
</g>
<!-- Node10&#45;&gt;Node6 -->
<g id="edge13" class="edge">
<title>Node10&#45;&gt;Node6</title>
<path fill="none" stroke="midnightblue" d="M497.41,-168.37C492.06,-150.54 479.69,-109.3 472.48,-85.27"/>
<polygon fill="midnightblue" stroke="midnightblue" points="475.8,-84.16 469.58,-75.59 469.1,-86.18 475.8,-84.16"/>
</g>
<!-- Node10&#45;&gt;Node11 -->
<g id="edge10" class="edge">
<title>Node10&#45;&gt;Node11</title>
<path fill="none" stroke="midnightblue" d="M471.76,-170.59C427.69,-160.59 342.72,-141.32 295.58,-130.62"/>
<polygon fill="midnightblue" stroke="midnightblue" points="296.09,-127.15 285.57,-128.35 294.54,-133.97 296.09,-127.15"/>
</g>
<!-- Node11&#45;&gt;Node6 -->
<g id="edge11" class="edge">
<title>Node11&#45;&gt;Node6</title>
<path fill="none" stroke="midnightblue" d="M285.52,-114.81C320.98,-105.46 388.45,-87.69 430.38,-76.65"/>
<polygon fill="midnightblue" stroke="midnightblue" points="431.42,-79.99 440.2,-74.06 429.64,-73.22 431.42,-79.99"/>
</g>
<!-- Node12 -->
<g id="node12" class="node">
<title>Node12</title>
<g id="a_node12"><a xlink:title=" ">
<polygon fill="white" stroke="#bfbfbf" points="234,-56.5 234,-75.5 290,-75.5 290,-56.5 234,-56.5"/>
<text text-anchor="middle" x="262" y="-63.5" font-family="Helvetica,sans-Serif" font-size="10.00">assert.h</text>
</a>
</g>
</g>
<!-- Node11&#45;&gt;Node12 -->
<g id="edge12" class="edge">
<title>Node11&#45;&gt;Node12</title>
<path fill="none" stroke="midnightblue" d="M262,-112.08C262,-105.01 262,-94.86 262,-85.99"/>
<polygon fill="midnightblue" stroke="midnightblue" points="265.5,-85.75 262,-75.75 258.5,-85.75 265.5,-85.75"/>
</g>
<!-- Node13&#45;&gt;Node6 -->
<g id="edge16" class="edge">
<title>Node13&#45;&gt;Node6</title>
<path fill="none" stroke="midnightblue" d="M269.08,-280.3C299.96,-247.01 410.93,-127.42 451.77,-83.41"/>
<polygon fill="midnightblue" stroke="midnightblue" points="454.52,-85.59 458.76,-75.88 449.39,-80.83 454.52,-85.59"/>
</g>
<!-- Node13&#45;&gt;Node10 -->
<g id="edge17" class="edge">
<title>Node13&#45;&gt;Node10</title>
<path fill="none" stroke="midnightblue" d="M279.75,-280.37C321.64,-261.09 422.97,-214.45 472.21,-191.79"/>
<polygon fill="midnightblue" stroke="midnightblue" points="473.71,-194.95 481.33,-187.59 470.79,-188.59 473.71,-194.95"/>
</g>
<!-- Node13&#45;&gt;Node11 -->
<g id="edge15" class="edge">
<title>Node13&#45;&gt;Node11</title>
<path fill="none" stroke="midnightblue" d="M261.05,-280.08C261.21,-253.95 261.67,-177.21 261.89,-141.58"/>
<polygon fill="midnightblue" stroke="midnightblue" points="265.39,-141.59 261.95,-131.57 258.39,-141.55 265.39,-141.59"/>
</g>
<!-- Node14&#45;&gt;Node6 -->
<g id="edge24" class="edge">
<title>Node14&#45;&gt;Node6</title>
<path fill="none" stroke="midnightblue" d="M121.45,-392.46C99.47,-385.93 73.67,-374.75 57,-356 37,-333.51 38,-321.1 38,-291 38,-291 38,-291 38,-177 38,-132.21 74,-130.02 115,-112 170.95,-87.41 351.63,-73.9 430.08,-69.07"/>
<polygon fill="midnightblue" stroke="midnightblue" points="430.67,-72.54 440.44,-68.45 430.25,-65.56 430.67,-72.54"/>
</g>
<!-- Node14&#45;&gt;Node10 -->
<g id="edge25" class="edge">
<title>Node14&#45;&gt;Node10</title>
<path fill="none" stroke="midnightblue" d="M167.12,-392.27C179.94,-365.2 218.45,-284.28 223,-280 291.26,-215.84 403.49,-191.8 461.93,-183.3"/>
<polygon fill="midnightblue" stroke="midnightblue" points="462.43,-186.77 471.86,-181.93 461.48,-179.83 462.43,-186.77"/>
</g>
<!-- Node15 -->
<g id="node15" class="node">
<title>Node15</title>
<g id="a_node15"><a xlink:href="_complex_8h.html" target="_top" xlink:title="API for operations on complex numbers.">
<polygon fill="white" stroke="black" points="66.5,-336.5 66.5,-355.5 175.5,-355.5 175.5,-336.5 66.5,-336.5"/>
<text text-anchor="middle" x="121" y="-343.5" font-family="Helvetica,sans-Serif" font-size="10.00">ifxBase/Complex.h</text>
</a>
</g>
</g>
<!-- Node14&#45;&gt;Node15 -->
<g id="edge21" class="edge">
<title>Node14&#45;&gt;Node15</title>
<path fill="none" stroke="midnightblue" d="M156.06,-392.08C150.07,-384.38 141.25,-373.03 133.95,-363.65"/>
<polygon fill="midnightblue" stroke="midnightblue" points="136.71,-361.5 127.81,-355.75 131.18,-365.79 136.71,-361.5"/>
</g>
<!-- Node15&#45;&gt;Node4 -->
<g id="edge22" class="edge">
<title>Node15&#45;&gt;Node4</title>
<path fill="none" stroke="midnightblue" d="M155.54,-336.44C194.25,-326.86 256.96,-311.32 298.09,-301.13"/>
<polygon fill="midnightblue" stroke="midnightblue" points="298.93,-304.53 307.8,-298.73 297.25,-297.74 298.93,-304.53"/>
</g>
<!-- Node15&#45;&gt;Node6 -->
<g id="edge23" class="edge">
<title>Node15&#45;&gt;Node6</title>
<path fill="none" stroke="midnightblue" d="M116.82,-336.39C108.36,-318.16 90,-274.09 90,-235 90,-235 90,-235 90,-177 90,-132.21 126.2,-130.47 167,-112 213.44,-90.98 361.16,-76.02 430.46,-69.97"/>
<polygon fill="midnightblue" stroke="midnightblue" points="430.82,-73.46 440.48,-69.11 430.22,-66.48 430.82,-73.46"/>
</g>
<!-- Node16&#45;&gt;Node3 -->
<g id="edge27" class="edge">
<title>Node16&#45;&gt;Node3</title>
<path fill="none" stroke="midnightblue" d="M508.72,-392.32C499.16,-384.26 484.72,-372.08 473.22,-362.37"/>
<polygon fill="midnightblue" stroke="midnightblue" points="475.37,-359.61 465.47,-355.83 470.86,-364.96 475.37,-359.61"/>
</g>
<!-- Node16&#45;&gt;Node6 -->
<g id="edge28" class="edge">
<title>Node16&#45;&gt;Node6</title>
<path fill="none" stroke="midnightblue" d="M563.51,-394.86C649.93,-381.67 832,-347.23 832,-291 832,-291 832,-291 832,-177 832,-108.89 596.07,-79.2 503.58,-70.17"/>
<polygon fill="midnightblue" stroke="midnightblue" points="503.83,-66.68 493.54,-69.22 503.17,-73.65 503.83,-66.68"/>
</g>
<!-- Node17&#45;&gt;Node6 -->
<g id="edge30" class="edge">
<title>Node17&#45;&gt;Node6</title>
<path fill="none" stroke="midnightblue" d="M959.36,-224.38C951.85,-201.51 928.03,-139.17 884,-112 820.8,-73.01 593.61,-67.58 503.86,-66.99"/>
<polygon fill="midnightblue" stroke="midnightblue" points="503.63,-63.49 493.61,-66.94 503.59,-70.49 503.63,-63.49"/>
</g>
<!-- Node17&#45;&gt;Node10 -->
<g id="edge31" class="edge">
<title>Node17&#45;&gt;Node10</title>
<path fill="none" stroke="midnightblue" d="M898.25,-225.55C800.76,-214.15 617.63,-192.75 538.28,-183.47"/>
<polygon fill="midnightblue" stroke="midnightblue" points="538.57,-179.98 528.23,-182.3 537.76,-186.94 538.57,-179.98"/>
</g>
<!-- Node18&#45;&gt;Node3 -->
<g id="edge33" class="edge">
<title>Node18&#45;&gt;Node3</title>
<path fill="none" stroke="midnightblue" d="M446.71,-448.37C448.16,-430.62 451.51,-389.67 453.48,-365.6"/>
<polygon fill="midnightblue" stroke="midnightblue" points="456.97,-365.84 454.3,-355.59 449.99,-365.27 456.97,-365.84"/>
</g>
<!-- Node18&#45;&gt;Node6 -->
<g id="edge34" class="edge">
<title>Node18&#45;&gt;Node6</title>
<path fill="none" stroke="midnightblue" d="M366.31,-452.53C274.02,-446.44 128.21,-433.72 78,-412 36.58,-394.09 0,-392.13 0,-347 0,-347 0,-347 0,-177 0,-136.77 26.88,-129.72 63,-112 95.6,-96.01 336.92,-76.64 430.27,-69.67"/>
<polygon fill="midnightblue" stroke="midnightblue" points="430.67,-73.15 440.39,-68.92 430.15,-66.17 430.67,-73.15"/>
</g>
<!-- Node18&#45;&gt;Node16 -->
<g id="edge35" class="edge">
<title>Node18&#45;&gt;Node16</title>
<path fill="none" stroke="midnightblue" d="M457.73,-448.32C468.84,-440.11 485.74,-427.6 498.98,-417.81"/>
<polygon fill="midnightblue" stroke="midnightblue" points="501.1,-420.59 507.06,-411.83 496.94,-414.97 501.1,-420.59"/>
</g>
<!-- Node18&#45;&gt;Node19 -->
<g id="edge36" class="edge">
<title>Node18&#45;&gt;Node19</title>
<path fill="none" stroke="midnightblue" d="M435.49,-448.37C412.78,-429.73 358.94,-385.53 330.44,-362.13"/>
<polygon fill="midnightblue" stroke="midnightblue" points="332.42,-359.23 322.47,-355.59 327.97,-364.64 332.42,-359.23"/>
</g>
<!-- Node19&#45;&gt;Node6 -->
<g id="edge47" class="edge">
<title>Node19&#45;&gt;Node6</title>
<path fill="none" stroke="midnightblue" d="M258.78,-336.46C204.44,-324.35 128,-296.41 128,-235 128,-235 128,-235 128,-177 128,-113.97 342.68,-81.6 430.36,-71"/>
<polygon fill="midnightblue" stroke="midnightblue" points="430.88,-74.47 440.4,-69.82 430.06,-67.51 430.88,-74.47"/>
</g>
<!-- Node19&#45;&gt;Node13 -->
<g id="edge46" class="edge">
<title>Node19&#45;&gt;Node13</title>
<path fill="none" stroke="midnightblue" d="M303.58,-336.08C296.15,-328.22 285.15,-316.57 276.19,-307.08"/>
<polygon fill="midnightblue" stroke="midnightblue" points="278.68,-304.62 269.26,-299.75 273.59,-309.42 278.68,-304.62"/>
</g>
<!-- Node20 -->
<g id="node20" class="node">
<title>Node20</title>
<g id="a_node20"><a xlink:href="_preprocessed_f_f_t_8h.html" target="_top" xlink:title="API for Pre&#45;processed FFT.">
<polygon fill="white" stroke="black" points="388.5,-280.5 388.5,-299.5 533.5,-299.5 533.5,-280.5 388.5,-280.5"/>
<text text-anchor="middle" x="461" y="-287.5" font-family="Helvetica,sans-Serif" font-size="10.00">ifxAlgo/PreprocessedFFT.h</text>
</a>
</g>
</g>
<!-- Node19&#45;&gt;Node20 -->
<g id="edge37" class="edge">
<title>Node19&#45;&gt;Node20</title>
<path fill="none" stroke="midnightblue" d="M335.61,-336.44C360.46,-327.44 399.77,-313.19 427.75,-303.05"/>
<polygon fill="midnightblue" stroke="midnightblue" points="429.29,-306.21 437.5,-299.52 426.91,-299.63 429.29,-306.21"/>
</g>
<!-- Node20&#45;&gt;Node5 -->
<g id="edge44" class="edge">
<title>Node20&#45;&gt;Node5</title>
<path fill="none" stroke="midnightblue" d="M458.52,-280.08C456.51,-272.85 453.61,-262.41 451.11,-253.4"/>
<polygon fill="midnightblue" stroke="midnightblue" points="454.48,-252.45 448.43,-243.75 447.74,-254.32 454.48,-252.45"/>
</g>
<!-- Node20&#45;&gt;Node6 -->
<g id="edge45" class="edge">
<title>Node20&#45;&gt;Node6</title>
<path fill="none" stroke="midnightblue" d="M446.05,-280.47C434.07,-272.7 418.13,-260 411,-244 407.38,-235.88 409.48,-232.76 411,-224 420.1,-171.43 445.13,-113.15 458.43,-84.65"/>
<polygon fill="midnightblue" stroke="midnightblue" points="461.62,-86.1 462.75,-75.57 455.3,-83.1 461.62,-86.1"/>
</g>
<!-- Node21 -->
<g id="node21" class="node">
<title>Node21</title>
<g id="a_node21"><a xlink:href="_f_f_t_8h.html" target="_top" xlink:title="API for Fast Fourier Transform (FFT)">
<polygon fill="white" stroke="black" points="648,-224.5 648,-243.5 728,-243.5 728,-224.5 648,-224.5"/>
<text text-anchor="middle" x="688" y="-231.5" font-family="Helvetica,sans-Serif" font-size="10.00">ifxAlgo/FFT.h</text>
</a>
</g>
</g>
<!-- Node20&#45;&gt;Node21 -->
<g id="edge38" class="edge">
<title>Node20&#45;&gt;Node21</title>
<path fill="none" stroke="midnightblue" d="M496.97,-280.44C536.32,-271.08 599.49,-256.06 642.31,-245.87"/>
<polygon fill="midnightblue" stroke="midnightblue" points="643.28,-249.24 652.2,-243.52 641.66,-242.43 643.28,-249.24"/>
</g>
<!-- Node22 -->
<g id="node22" class="node">
<title>Node22</title>
<g id="a_node22"><a xlink:href="_window_8h.html" target="_top" xlink:title="API for Window function processing.">
<polygon fill="white" stroke="black" points="528.5,-224.5 528.5,-243.5 629.5,-243.5 629.5,-224.5 528.5,-224.5"/>
<text text-anchor="middle" x="579" y="-231.5" font-family="Helvetica,sans-Serif" font-size="10.00">ifxAlgo/Window.h</text>
</a>
</g>
</g>
<!-- Node20&#45;&gt;Node22 -->
<g id="edge41" class="edge">
<title>Node20&#45;&gt;Node22</title>
<path fill="none" stroke="midnightblue" d="M479.7,-280.44C498.94,-271.64 529.15,-257.81 551.2,-247.72"/>
<polygon fill="midnightblue" stroke="midnightblue" points="552.75,-250.86 560.39,-243.52 549.84,-244.5 552.75,-250.86"/>
</g>
<!-- Node21&#45;&gt;Node6 -->
<g id="edge39" class="edge">
<title>Node21&#45;&gt;Node6</title>
<path fill="none" stroke="midnightblue" d="M676.43,-224.31C640.63,-197.42 531.37,-115.35 486.53,-81.67"/>
<polygon fill="midnightblue" stroke="midnightblue" points="488.55,-78.81 478.46,-75.61 484.35,-84.41 488.55,-78.81"/>
</g>
<!-- Node21&#45;&gt;Node10 -->
<g id="edge40" class="edge">
<title>Node21&#45;&gt;Node10</title>
<path fill="none" stroke="midnightblue" d="M658.21,-224.44C625.7,-215.11 573.56,-200.13 538.09,-189.94"/>
<polygon fill="midnightblue" stroke="midnightblue" points="538.69,-186.47 528.11,-187.08 536.76,-193.2 538.69,-186.47"/>
</g>
<!-- Node22&#45;&gt;Node6 -->
<g id="edge42" class="edge">
<title>Node22&#45;&gt;Node6</title>
<path fill="none" stroke="midnightblue" d="M573.38,-224.11C565.41,-211.54 550.3,-187.87 537,-168 517.02,-138.15 493.05,-103.89 478.97,-83.92"/>
<polygon fill="midnightblue" stroke="midnightblue" points="481.72,-81.73 473.09,-75.58 476,-85.77 481.72,-81.73"/>
</g>
<!-- Node22&#45;&gt;Node10 -->
<g id="edge43" class="edge">
<title>Node22&#45;&gt;Node10</title>
<path fill="none" stroke="midnightblue" d="M566.31,-224.32C554.1,-215.98 535.42,-203.21 521,-193.35"/>
<polygon fill="midnightblue" stroke="midnightblue" points="522.89,-190.41 512.66,-187.65 518.94,-196.19 522.89,-190.41"/>
</g>
<!-- Node23&#45;&gt;Node6 -->
<g id="edge53" class="edge">
<title>Node23&#45;&gt;Node6</title>
<path fill="none" stroke="midnightblue" d="M652.97,-336.49C698.79,-328.92 756.56,-316.49 774,-300 795.96,-279.24 794,-265.23 794,-235 794,-235 794,-235 794,-177 794,-116.34 589.29,-82.81 503.81,-71.45"/>
<polygon fill="midnightblue" stroke="midnightblue" points="504.13,-67.96 493.76,-70.14 503.23,-74.9 504.13,-67.96"/>
</g>
<!-- Node23&#45;&gt;Node10 -->
<g id="edge54" class="edge">
<title>Node23&#45;&gt;Node10</title>
<path fill="none" stroke="midnightblue" d="M585.15,-336.34C568.9,-315.68 528.65,-263.72 519,-244 511.73,-229.15 506.72,-211 503.67,-197.66"/>
<polygon fill="midnightblue" stroke="midnightblue" points="507.07,-196.81 501.57,-187.76 500.22,-198.27 507.07,-196.81"/>
</g>
<!-- Node23&#45;&gt;Node13 -->
<g id="edge52" class="edge">
<title>Node23&#45;&gt;Node13</title>
<path fill="none" stroke="midnightblue" d="M526.57,-336.48C469.29,-328.67 383.62,-316.16 299.56,-299.97"/>
<polygon fill="midnightblue" stroke="midnightblue" points="300.06,-296.5 289.58,-298.03 298.73,-303.37 300.06,-296.5"/>
</g>
<!-- Node23&#45;&gt;Node20 -->
<g id="edge50" class="edge">
<title>Node23&#45;&gt;Node20</title>
<path fill="none" stroke="midnightblue" d="M571.24,-336.44C549.68,-327.56 515.74,-313.56 491.21,-303.45"/>
<polygon fill="midnightblue" stroke="midnightblue" points="492.24,-300.09 481.66,-299.52 489.57,-306.56 492.24,-300.09"/>
</g>
<!-- Node23&#45;&gt;Node22 -->
<g id="edge51" class="edge">
<title>Node23&#45;&gt;Node22</title>
<path fill="none" stroke="midnightblue" d="M590.98,-336.37C588.88,-318.62 584.04,-277.67 581.2,-253.6"/>
<polygon fill="midnightblue" stroke="midnightblue" points="584.66,-253.11 580.02,-243.59 577.71,-253.93 584.66,-253.11"/>
</g>
<!-- Node24&#45;&gt;Node5 -->
<g id="edge57" class="edge">
<title>Node24&#45;&gt;Node5</title>
<path fill="none" stroke="midnightblue" d="M657.23,-280.44C608.91,-270.05 528.11,-252.66 481.7,-242.68"/>
<polygon fill="midnightblue" stroke="midnightblue" points="482.3,-239.23 471.79,-240.55 480.83,-246.07 482.3,-239.23"/>
</g>
<!-- Node24&#45;&gt;Node6 -->
<g id="edge58" class="edge">
<title>Node24&#45;&gt;Node6</title>
<path fill="none" stroke="midnightblue" d="M709.1,-280.3C724.7,-267.95 748.56,-244.56 737,-224 687.15,-135.3 565.32,-92.28 503.81,-75.63"/>
<polygon fill="midnightblue" stroke="midnightblue" points="504.32,-72.15 493.76,-73 502.55,-78.92 504.32,-72.15"/>
</g>
<!-- Node24&#45;&gt;Node21 -->
<g id="edge56" class="edge">
<title>Node24&#45;&gt;Node21</title>
<path fill="none" stroke="midnightblue" d="M695.51,-280.08C694.32,-272.93 692.61,-262.64 691.12,-253.69"/>
<polygon fill="midnightblue" stroke="midnightblue" points="694.55,-253.04 689.46,-243.75 687.65,-254.19 694.55,-253.04"/>
</g>
</g>
</svg>
