<?xml version="1.0" encoding="UTF-8" standalone="no"?>
<!DOCTYPE svg PUBLIC "-//W3C//DTD SVG 1.1//EN"
 "http://www.w3.org/Graphics/SVG/1.1/DTD/svg11.dtd">
<!-- Generated by graphviz version 2.43.0 (0)
 -->
<!-- Title: /home/jenkins/agent/workspace/ild&#45;documentation_release_v3.5.0/sdk/c/ifxRadar/RangeSpectrum.h Pages: 1 -->
<svg width="536pt" height="397pt"
 viewBox="0.00 0.00 535.50 397.00" xmlns="http://www.w3.org/2000/svg" xmlns:xlink="http://www.w3.org/1999/xlink">
<g id="graph0" class="graph" transform="scale(1 1) rotate(0) translate(4 393)">
<title>/home/jenkins/agent/workspace/ild&#45;documentation_release_v3.5.0/sdk/c/ifxRadar/RangeSpectrum.h</title>
<polygon fill="white" stroke="transparent" points="-4,4 -4,-393 531.5,-393 531.5,4 -4,4"/>
<!-- Node1 -->
<g id="node1" class="node">
<title>Node1</title>
<g id="a_node1"><a xlink:title="API for Range Spectrum.">
<polygon fill="#bfbfbf" stroke="black" points="240,-336.5 240,-388.5 406,-388.5 406,-336.5 240,-336.5"/>
<text text-anchor="start" x="248" y="-376.5" font-family="Helvetica,sans-Serif" font-size="10.00">/home/jenkins/agent</text>
<text text-anchor="start" x="248" y="-365.5" font-family="Helvetica,sans-Serif" font-size="10.00">/workspace/ild&#45;documentation</text>
<text text-anchor="start" x="248" y="-354.5" font-family="Helvetica,sans-Serif" font-size="10.00">_release_v3.5.0/sdk/c/ifxRadar</text>
<text text-anchor="middle" x="323" y="-343.5" font-family="Helvetica,sans-Serif" font-size="10.00">/RangeSpectrum.h</text>
</a>
</g>
</g>
<!-- Node2 -->
<g id="node2" class="node">
<title>Node2</title>
<g id="a_node2"><a xlink:href="_preprocessed_f_f_t_8h.html" target="_top" xlink:title="API for Pre&#45;processed FFT.">
<polygon fill="white" stroke="black" points="136.5,-280.5 136.5,-299.5 281.5,-299.5 281.5,-280.5 136.5,-280.5"/>
<text text-anchor="middle" x="209" y="-287.5" font-family="Helvetica,sans-Serif" font-size="10.00">ifxAlgo/PreprocessedFFT.h</text>
</a>
</g>
</g>
<!-- Node1&#45;&gt;Node2 -->
<g id="edge1" class="edge">
<title>Node1&#45;&gt;Node2</title>
<path fill="none" stroke="midnightblue" d="M282.49,-336.45C265.37,-325.86 246.09,-313.94 231.57,-304.96"/>
<polygon fill="midnightblue" stroke="midnightblue" points="233.13,-301.81 222.79,-299.53 229.45,-307.76 233.13,-301.81"/>
</g>
<!-- Node4 -->
<g id="node4" class="node">
<title>Node4</title>
<g id="a_node4"><a xlink:href="_types_8h.html" target="_top" xlink:title="Definitions of data types used within the SDK.">
<polygon fill="white" stroke="black" points="181.5,-56.5 181.5,-75.5 274.5,-75.5 274.5,-56.5 181.5,-56.5"/>
<text text-anchor="middle" x="228" y="-63.5" font-family="Helvetica,sans-Serif" font-size="10.00">ifxBase/Types.h</text>
</a>
</g>
</g>
<!-- Node1&#45;&gt;Node4 -->
<g id="edge24" class="edge">
<title>Node1&#45;&gt;Node4</title>
<path fill="none" stroke="midnightblue" d="M239.82,-345.95C144.12,-325.64 0,-286.49 0,-235 0,-235 0,-235 0,-177 0,-101.13 103.69,-77.56 171.22,-70.26"/>
<polygon fill="midnightblue" stroke="midnightblue" points="171.7,-73.73 181.31,-69.26 171.01,-66.76 171.7,-73.73"/>
</g>
<!-- Node8 -->
<g id="node8" class="node">
<title>Node8</title>
<g id="a_node8"><a xlink:href="_vector_8h.html" target="_top" xlink:title="API for operations on Vector data structures.">
<polygon fill="white" stroke="black" points="275.5,-168.5 275.5,-187.5 370.5,-187.5 370.5,-168.5 275.5,-168.5"/>
<text text-anchor="middle" x="323" y="-175.5" font-family="Helvetica,sans-Serif" font-size="10.00">ifxBase/Vector.h</text>
</a>
</g>
</g>
<!-- Node1&#45;&gt;Node8 -->
<g id="edge25" class="edge">
<title>Node1&#45;&gt;Node8</title>
<path fill="none" stroke="midnightblue" d="M340.34,-336.29C354.97,-313.39 374.8,-278.07 383,-244 385.08,-235.36 386.98,-231.95 383,-224 376.27,-210.54 363.39,-200.07 351.29,-192.62"/>
<polygon fill="midnightblue" stroke="midnightblue" points="352.72,-189.41 342.3,-187.52 349.27,-195.5 352.72,-189.41"/>
</g>
<!-- Node11 -->
<g id="node11" class="node">
<title>Node11</title>
<g id="a_node11"><a xlink:href="_window_8h.html" target="_top" xlink:title="API for Window function processing.">
<polygon fill="white" stroke="black" points="272.5,-224.5 272.5,-243.5 373.5,-243.5 373.5,-224.5 272.5,-224.5"/>
<text text-anchor="middle" x="323" y="-231.5" font-family="Helvetica,sans-Serif" font-size="10.00">ifxAlgo/Window.h</text>
</a>
</g>
</g>
<!-- Node1&#45;&gt;Node11 -->
<g id="edge19" class="edge">
<title>Node1&#45;&gt;Node11</title>
<path fill="none" stroke="midnightblue" d="M323,-336.2C323,-311.88 323,-275.67 323,-253.8"/>
<polygon fill="midnightblue" stroke="midnightblue" points="326.5,-253.55 323,-243.55 319.5,-253.55 326.5,-253.55"/>
</g>
<!-- Node13 -->
<g id="node13" class="node">
<title>Node13</title>
<g id="a_node13"><a xlink:href="_matrix_8h.html" target="_top" xlink:title="API for operations on Matrix data structures.">
<polygon fill="white" stroke="black" points="430.5,-224.5 430.5,-243.5 527.5,-243.5 527.5,-224.5 430.5,-224.5"/>
<text text-anchor="middle" x="479" y="-231.5" font-family="Helvetica,sans-Serif" font-size="10.00">ifxBase/Matrix.h</text>
</a>
</g>
</g>
<!-- Node1&#45;&gt;Node13 -->
<g id="edge20" class="edge">
<title>Node1&#45;&gt;Node13</title>
<path fill="none" stroke="midnightblue" d="M365.11,-336.4C381.55,-325.9 400.21,-313.1 416,-300 434.23,-284.87 452.83,-265.03 465.05,-251.26"/>
<polygon fill="midnightblue" stroke="midnightblue" points="467.82,-253.41 471.77,-243.58 462.55,-248.8 467.82,-253.41"/>
</g>
<!-- Node3 -->
<g id="node3" class="node">
<title>Node3</title>
<g id="a_node3"><a xlink:href="_f_f_t_8h.html" target="_top" xlink:title="API for Fast Fourier Transform (FFT)">
<polygon fill="white" stroke="black" points="66,-224.5 66,-243.5 146,-243.5 146,-224.5 66,-224.5"/>
<text text-anchor="middle" x="106" y="-231.5" font-family="Helvetica,sans-Serif" font-size="10.00">ifxAlgo/FFT.h</text>
</a>
</g>
</g>
<!-- Node2&#45;&gt;Node3 -->
<g id="edge2" class="edge">
<title>Node2&#45;&gt;Node3</title>
<path fill="none" stroke="midnightblue" d="M192.45,-280.32C176.01,-271.7 150.57,-258.36 131.53,-248.39"/>
<polygon fill="midnightblue" stroke="midnightblue" points="132.99,-245.2 122.51,-243.65 129.74,-251.4 132.99,-245.2"/>
</g>
<!-- Node2&#45;&gt;Node4 -->
<g id="edge18" class="edge">
<title>Node2&#45;&gt;Node4</title>
<path fill="none" stroke="midnightblue" d="M136.16,-284.08C89.51,-277.34 40.55,-261.44 57,-224 87.1,-155.51 163.45,-103.8 203.16,-80.55"/>
<polygon fill="midnightblue" stroke="midnightblue" points="205.02,-83.51 211.96,-75.51 201.54,-77.44 205.02,-83.51"/>
</g>
<!-- Node2&#45;&gt;Node11 -->
<g id="edge12" class="edge">
<title>Node2&#45;&gt;Node11</title>
<path fill="none" stroke="midnightblue" d="M227.06,-280.44C245.57,-271.68 274.58,-257.94 295.86,-247.86"/>
<polygon fill="midnightblue" stroke="midnightblue" points="297.48,-250.96 305.02,-243.52 294.49,-244.63 297.48,-250.96"/>
</g>
<!-- Node12 -->
<g id="node12" class="node">
<title>Node12</title>
<g id="a_node12"><a xlink:href="_math_8h.html" target="_top" xlink:title="API for Mathematical operations.">
<polygon fill="white" stroke="black" points="164,-224.5 164,-243.5 254,-243.5 254,-224.5 164,-224.5"/>
<text text-anchor="middle" x="209" y="-231.5" font-family="Helvetica,sans-Serif" font-size="10.00">ifxBase/Math.h</text>
</a>
</g>
</g>
<!-- Node2&#45;&gt;Node12 -->
<g id="edge15" class="edge">
<title>Node2&#45;&gt;Node12</title>
<path fill="none" stroke="midnightblue" d="M209,-280.08C209,-273.01 209,-262.86 209,-253.99"/>
<polygon fill="midnightblue" stroke="midnightblue" points="212.5,-253.75 209,-243.75 205.5,-253.75 212.5,-253.75"/>
</g>
<!-- Node3&#45;&gt;Node4 -->
<g id="edge3" class="edge">
<title>Node3&#45;&gt;Node4</title>
<path fill="none" stroke="midnightblue" d="M112.56,-224.08C132.1,-197.49 190.12,-118.54 215.68,-83.76"/>
<polygon fill="midnightblue" stroke="midnightblue" points="218.6,-85.7 221.7,-75.57 212.96,-81.55 218.6,-85.7"/>
</g>
<!-- Node3&#45;&gt;Node8 -->
<g id="edge7" class="edge">
<title>Node3&#45;&gt;Node8</title>
<path fill="none" stroke="midnightblue" d="M140.38,-224.44C177.92,-215.1 238.13,-200.12 279.07,-189.93"/>
<polygon fill="midnightblue" stroke="midnightblue" points="279.92,-193.33 288.78,-187.52 278.23,-186.53 279.92,-193.33"/>
</g>
<!-- Node5 -->
<g id="node5" class="node">
<title>Node5</title>
<g id="a_node5"><a xlink:title=" ">
<polygon fill="white" stroke="#bfbfbf" points="120,-0.5 120,-19.5 182,-19.5 182,-0.5 120,-0.5"/>
<text text-anchor="middle" x="151" y="-7.5" font-family="Helvetica,sans-Serif" font-size="10.00">stdbool.h</text>
</a>
</g>
</g>
<!-- Node4&#45;&gt;Node5 -->
<g id="edge4" class="edge">
<title>Node4&#45;&gt;Node5</title>
<path fill="none" stroke="midnightblue" d="M215.63,-56.32C203.84,-48.06 185.87,-35.45 171.86,-25.63"/>
<polygon fill="midnightblue" stroke="midnightblue" points="173.54,-22.53 163.34,-19.65 169.52,-28.26 173.54,-22.53"/>
</g>
<!-- Node6 -->
<g id="node6" class="node">
<title>Node6</title>
<g id="a_node6"><a xlink:title=" ">
<polygon fill="white" stroke="#bfbfbf" points="200,-0.5 200,-19.5 256,-19.5 256,-0.5 200,-0.5"/>
<text text-anchor="middle" x="228" y="-7.5" font-family="Helvetica,sans-Serif" font-size="10.00">stddef.h</text>
</a>
</g>
</g>
<!-- Node4&#45;&gt;Node6 -->
<g id="edge5" class="edge">
<title>Node4&#45;&gt;Node6</title>
<path fill="none" stroke="midnightblue" d="M228,-56.08C228,-49.01 228,-38.86 228,-29.99"/>
<polygon fill="midnightblue" stroke="midnightblue" points="231.5,-29.75 228,-19.75 224.5,-29.75 231.5,-29.75"/>
</g>
<!-- Node7 -->
<g id="node7" class="node">
<title>Node7</title>
<g id="a_node7"><a xlink:title=" ">
<polygon fill="white" stroke="#bfbfbf" points="274.5,-0.5 274.5,-19.5 327.5,-19.5 327.5,-0.5 274.5,-0.5"/>
<text text-anchor="middle" x="301" y="-7.5" font-family="Helvetica,sans-Serif" font-size="10.00">stdint.h</text>
</a>
</g>
</g>
<!-- Node4&#45;&gt;Node7 -->
<g id="edge6" class="edge">
<title>Node4&#45;&gt;Node7</title>
<path fill="none" stroke="midnightblue" d="M239.73,-56.32C250.84,-48.11 267.74,-35.6 280.98,-25.81"/>
<polygon fill="midnightblue" stroke="midnightblue" points="283.1,-28.59 289.06,-19.83 278.94,-22.97 283.1,-28.59"/>
</g>
<!-- Node8&#45;&gt;Node4 -->
<g id="edge11" class="edge">
<title>Node8&#45;&gt;Node4</title>
<path fill="none" stroke="midnightblue" d="M315.55,-168.37C299.73,-150.05 262.59,-107.05 242.13,-83.36"/>
<polygon fill="midnightblue" stroke="midnightblue" points="244.6,-80.87 235.42,-75.59 239.31,-85.45 244.6,-80.87"/>
</g>
<!-- Node9 -->
<g id="node9" class="node">
<title>Node9</title>
<g id="a_node9"><a xlink:href="_mda_8h.html" target="_top" xlink:title="API for multi&#45;dimensional arrays.">
<polygon fill="white" stroke="black" points="427.5,-112.5 427.5,-131.5 474.5,-131.5 474.5,-112.5 427.5,-112.5"/>
<text text-anchor="middle" x="451" y="-119.5" font-family="Helvetica,sans-Serif" font-size="10.00">Mda.h</text>
</a>
</g>
</g>
<!-- Node8&#45;&gt;Node9 -->
<g id="edge8" class="edge">
<title>Node8&#45;&gt;Node9</title>
<path fill="none" stroke="midnightblue" d="M343.28,-168.44C364.35,-159.56 397.52,-145.56 421.49,-135.45"/>
<polygon fill="midnightblue" stroke="midnightblue" points="422.96,-138.63 430.81,-131.52 420.24,-132.18 422.96,-138.63"/>
</g>
<!-- Node9&#45;&gt;Node4 -->
<g id="edge9" class="edge">
<title>Node9&#45;&gt;Node4</title>
<path fill="none" stroke="midnightblue" d="M427.14,-115.22C390.5,-106.35 319.76,-89.22 273.21,-77.95"/>
<polygon fill="midnightblue" stroke="midnightblue" points="273.92,-74.52 263.38,-75.57 272.28,-81.32 273.92,-74.52"/>
</g>
<!-- Node10 -->
<g id="node10" class="node">
<title>Node10</title>
<g id="a_node10"><a xlink:title=" ">
<polygon fill="white" stroke="#bfbfbf" points="423,-56.5 423,-75.5 479,-75.5 479,-56.5 423,-56.5"/>
<text text-anchor="middle" x="451" y="-63.5" font-family="Helvetica,sans-Serif" font-size="10.00">assert.h</text>
</a>
</g>
</g>
<!-- Node9&#45;&gt;Node10 -->
<g id="edge10" class="edge">
<title>Node9&#45;&gt;Node10</title>
<path fill="none" stroke="midnightblue" d="M451,-112.08C451,-105.01 451,-94.86 451,-85.99"/>
<polygon fill="midnightblue" stroke="midnightblue" points="454.5,-85.75 451,-75.75 447.5,-85.75 454.5,-85.75"/>
</g>
<!-- Node11&#45;&gt;Node4 -->
<g id="edge13" class="edge">
<title>Node11&#45;&gt;Node4</title>
<path fill="none" stroke="midnightblue" d="M307.55,-224.41C294.69,-216.52 276.8,-203.68 266,-188 244.01,-156.08 234.29,-110.85 230.37,-85.7"/>
<polygon fill="midnightblue" stroke="midnightblue" points="233.82,-85.09 228.95,-75.68 226.89,-86.07 233.82,-85.09"/>
</g>
<!-- Node11&#45;&gt;Node8 -->
<g id="edge14" class="edge">
<title>Node11&#45;&gt;Node8</title>
<path fill="none" stroke="midnightblue" d="M323,-224.08C323,-217.01 323,-206.86 323,-197.99"/>
<polygon fill="midnightblue" stroke="midnightblue" points="326.5,-197.75 323,-187.75 319.5,-197.75 326.5,-197.75"/>
</g>
<!-- Node12&#45;&gt;Node4 -->
<g id="edge16" class="edge">
<title>Node12&#45;&gt;Node4</title>
<path fill="none" stroke="midnightblue" d="M210.02,-224.08C213.01,-197.95 221.8,-121.21 225.87,-85.58"/>
<polygon fill="midnightblue" stroke="midnightblue" points="229.36,-85.9 227.02,-75.57 222.4,-85.11 229.36,-85.9"/>
</g>
<!-- Node12&#45;&gt;Node8 -->
<g id="edge17" class="edge">
<title>Node12&#45;&gt;Node8</title>
<path fill="none" stroke="midnightblue" d="M227.06,-224.44C245.57,-215.68 274.58,-201.94 295.86,-191.86"/>
<polygon fill="midnightblue" stroke="midnightblue" points="297.48,-194.96 305.02,-187.52 294.49,-188.63 297.48,-194.96"/>
</g>
<!-- Node13&#45;&gt;Node4 -->
<g id="edge22" class="edge">
<title>Node13&#45;&gt;Node4</title>
<path fill="none" stroke="midnightblue" d="M465.86,-224.31C425.03,-197.3 300.07,-114.67 249.54,-81.25"/>
<polygon fill="midnightblue" stroke="midnightblue" points="251.28,-78.2 241.01,-75.61 247.42,-84.04 251.28,-78.2"/>
</g>
<!-- Node13&#45;&gt;Node8 -->
<g id="edge23" class="edge">
<title>Node13&#45;&gt;Node8</title>
<path fill="none" stroke="midnightblue" d="M454.28,-224.44C428.15,-215.4 386.74,-201.06 357.42,-190.92"/>
<polygon fill="midnightblue" stroke="midnightblue" points="358.2,-187.48 347.6,-187.52 355.91,-194.1 358.2,-187.48"/>
</g>
<!-- Node13&#45;&gt;Node9 -->
<g id="edge21" class="edge">
<title>Node13&#45;&gt;Node9</title>
<path fill="none" stroke="midnightblue" d="M476.8,-224.37C472.28,-206.62 461.86,-165.67 455.73,-141.6"/>
<polygon fill="midnightblue" stroke="midnightblue" points="459.05,-140.42 453.19,-131.59 452.26,-142.15 459.05,-140.42"/>
</g>
</g>
</svg>
