<?xml version="1.0" encoding="UTF-8" standalone="no"?>
<!DOCTYPE svg PUBLIC "-//W3C//DTD SVG 1.1//EN"
 "http://www.w3.org/Graphics/SVG/1.1/DTD/svg11.dtd">
<!-- Generated by graphviz version 2.43.0 (0)
 -->
<!-- Title: /home/jenkins/agent/workspace/ild&#45;documentation_release_v3.5.0/sdk/c/ifxRadar/RangeAngleImage.h Pages: 1 -->
<svg width="508pt" height="509pt"
 viewBox="0.00 0.00 508.06 509.00" xmlns="http://www.w3.org/2000/svg" xmlns:xlink="http://www.w3.org/1999/xlink">
<g id="graph0" class="graph" transform="scale(1 1) rotate(0) translate(4 505)">
<title>/home/jenkins/agent/workspace/ild&#45;documentation_release_v3.5.0/sdk/c/ifxRadar/RangeAngleImage.h</title>
<polygon fill="white" stroke="transparent" points="-4,4 -4,-505 504.06,-505 504.06,4 -4,4"/>
<!-- Node1 -->
<g id="node1" class="node">
<title>Node1</title>
<g id="a_node1"><a xlink:title="API for Range Angle Image algorithm.">
<polygon fill="#bfbfbf" stroke="black" points="182.06,-448.5 182.06,-500.5 348.06,-500.5 348.06,-448.5 182.06,-448.5"/>
<text text-anchor="start" x="190.06" y="-488.5" font-family="Helvetica,sans-Serif" font-size="10.00">/home/jenkins/agent</text>
<text text-anchor="start" x="190.06" y="-477.5" font-family="Helvetica,sans-Serif" font-size="10.00">/workspace/ild&#45;documentation</text>
<text text-anchor="start" x="190.06" y="-466.5" font-family="Helvetica,sans-Serif" font-size="10.00">_release_v3.5.0/sdk/c/ifxRadar</text>
<text text-anchor="middle" x="265.06" y="-455.5" font-family="Helvetica,sans-Serif" font-size="10.00">/RangeAngleImage.h</text>
</a>
</g>
</g>
<!-- Node2 -->
<g id="node2" class="node">
<title>Node2</title>
<g id="a_node2"><a xlink:href="_cube_8h.html" target="_top" xlink:title="API for operations on Cube data structures.">
<polygon fill="white" stroke="black" points="94.06,-336.5 94.06,-355.5 184.06,-355.5 184.06,-336.5 94.06,-336.5"/>
<text text-anchor="middle" x="139.06" y="-343.5" font-family="Helvetica,sans-Serif" font-size="10.00">ifxBase/Cube.h</text>
</a>
</g>
</g>
<!-- Node1&#45;&gt;Node2 -->
<g id="edge1" class="edge">
<title>Node1&#45;&gt;Node2</title>
<path fill="none" stroke="midnightblue" d="M220.33,-448.25C205.11,-438.26 188.75,-425.85 176.06,-412 163.34,-398.12 153.16,-379.1 146.72,-365.23"/>
<polygon fill="midnightblue" stroke="midnightblue" points="149.79,-363.52 142.55,-355.79 143.39,-366.35 149.79,-363.52"/>
</g>
<!-- Node5 -->
<g id="node5" class="node">
<title>Node5</title>
<g id="a_node5"><a xlink:href="_types_8h.html" target="_top" xlink:title="Definitions of data types used within the SDK.">
<polygon fill="white" stroke="black" points="253.56,-56.5 253.56,-75.5 306.56,-75.5 306.56,-56.5 253.56,-56.5"/>
<text text-anchor="middle" x="280.06" y="-63.5" font-family="Helvetica,sans-Serif" font-size="10.00">Types.h</text>
</a>
</g>
</g>
<!-- Node1&#45;&gt;Node5 -->
<g id="edge18" class="edge">
<title>Node1&#45;&gt;Node5</title>
<path fill="none" stroke="midnightblue" d="M348.25,-463.04C415.85,-449.33 500.06,-418.01 500.06,-347 500.06,-347 500.06,-347 500.06,-177 500.06,-96.06 379.47,-74.68 316.85,-69.03"/>
<polygon fill="midnightblue" stroke="midnightblue" points="316.85,-65.52 306.6,-68.2 316.28,-72.49 316.85,-65.52"/>
</g>
<!-- Node13 -->
<g id="node13" class="node">
<title>Node13</title>
<g id="a_node13"><a xlink:href="_d_b_f_8h.html" target="_top" xlink:title="API for Digital Beamforming (DBF) algorithm.">
<polygon fill="white" stroke="black" points="184.56,-392.5 184.56,-411.5 273.56,-411.5 273.56,-392.5 184.56,-392.5"/>
<text text-anchor="middle" x="229.06" y="-399.5" font-family="Helvetica,sans-Serif" font-size="10.00">ifxRadar/DBF.h</text>
</a>
</g>
</g>
<!-- Node1&#45;&gt;Node13 -->
<g id="edge19" class="edge">
<title>Node1&#45;&gt;Node13</title>
<path fill="none" stroke="midnightblue" d="M252.27,-448.45C247.61,-439.33 242.45,-429.22 238.18,-420.85"/>
<polygon fill="midnightblue" stroke="midnightblue" points="241.17,-419.01 233.5,-411.7 234.93,-422.19 241.17,-419.01"/>
</g>
<!-- Node14 -->
<g id="node14" class="node">
<title>Node14</title>
<g id="a_node14"><a xlink:href="_range_doppler_map_8h.html" target="_top" xlink:title="API for Doppler Spectrogram.">
<polygon fill="white" stroke="black" points="222.06,-336.5 222.06,-355.5 382.06,-355.5 382.06,-336.5 222.06,-336.5"/>
<text text-anchor="middle" x="302.06" y="-343.5" font-family="Helvetica,sans-Serif" font-size="10.00">ifxRadar/RangeDopplerMap.h</text>
</a>
</g>
</g>
<!-- Node1&#45;&gt;Node14 -->
<g id="edge22" class="edge">
<title>Node1&#45;&gt;Node14</title>
<path fill="none" stroke="midnightblue" d="M272.42,-448.37C275.68,-437.23 279.57,-423.96 283.06,-412 287.65,-396.31 292.86,-378.48 296.66,-365.47"/>
<polygon fill="midnightblue" stroke="midnightblue" points="300.04,-366.41 299.48,-355.83 293.32,-364.45 300.04,-366.41"/>
</g>
<!-- Node3 -->
<g id="node3" class="node">
<title>Node3</title>
<g id="a_node3"><a xlink:href="_defines_8h.html" target="_top" xlink:title="Internal definitions used by standard math.h functions as Macros, to use float or double precision.">
<polygon fill="white" stroke="black" points="108.06,-280.5 108.06,-299.5 170.06,-299.5 170.06,-280.5 108.06,-280.5"/>
<text text-anchor="middle" x="139.06" y="-287.5" font-family="Helvetica,sans-Serif" font-size="10.00">Defines.h</text>
</a>
</g>
</g>
<!-- Node2&#45;&gt;Node3 -->
<g id="edge2" class="edge">
<title>Node2&#45;&gt;Node3</title>
<path fill="none" stroke="midnightblue" d="M139.06,-336.08C139.06,-329.01 139.06,-318.86 139.06,-309.99"/>
<polygon fill="midnightblue" stroke="midnightblue" points="142.56,-309.75 139.06,-299.75 135.56,-309.75 142.56,-309.75"/>
</g>
<!-- Node10 -->
<g id="node10" class="node">
<title>Node10</title>
<g id="a_node10"><a xlink:href="_mda_8h.html" target="_top" xlink:title="API for multi&#45;dimensional arrays.">
<polygon fill="white" stroke="black" points="19.56,-112.5 19.56,-131.5 66.56,-131.5 66.56,-112.5 19.56,-112.5"/>
<text text-anchor="middle" x="43.06" y="-119.5" font-family="Helvetica,sans-Serif" font-size="10.00">Mda.h</text>
</a>
</g>
</g>
<!-- Node2&#45;&gt;Node10 -->
<g id="edge17" class="edge">
<title>Node2&#45;&gt;Node10</title>
<path fill="none" stroke="midnightblue" d="M114.63,-336.45C80.85,-323 21.99,-293.23 4.06,-244 -9.33,-207.2 14.58,-163.28 30.52,-139.79"/>
<polygon fill="midnightblue" stroke="midnightblue" points="33.41,-141.77 36.33,-131.58 27.7,-137.72 33.41,-141.77"/>
</g>
<!-- Node12 -->
<g id="node12" class="node">
<title>Node12</title>
<g id="a_node12"><a xlink:href="_matrix_8h.html" target="_top" xlink:title="API for operations on Matrix data structures.">
<polygon fill="white" stroke="black" points="13.56,-224.5 13.56,-243.5 70.56,-243.5 70.56,-224.5 13.56,-224.5"/>
<text text-anchor="middle" x="42.06" y="-231.5" font-family="Helvetica,sans-Serif" font-size="10.00">Matrix.h</text>
</a>
</g>
</g>
<!-- Node2&#45;&gt;Node12 -->
<g id="edge13" class="edge">
<title>Node2&#45;&gt;Node12</title>
<path fill="none" stroke="midnightblue" d="M117.5,-336.38C101.34,-328.92 79.74,-316.7 66.06,-300 55.12,-286.63 48.9,-267.81 45.55,-253.86"/>
<polygon fill="midnightblue" stroke="midnightblue" points="48.94,-252.96 43.44,-243.91 42.09,-254.42 48.94,-252.96"/>
</g>
<!-- Node4 -->
<g id="node4" class="node">
<title>Node4</title>
<g id="a_node4"><a xlink:href="_math_8h.html" target="_top" xlink:title="API for Mathematical operations.">
<polygon fill="white" stroke="black" points="88.56,-224.5 88.56,-243.5 139.56,-243.5 139.56,-224.5 88.56,-224.5"/>
<text text-anchor="middle" x="114.06" y="-231.5" font-family="Helvetica,sans-Serif" font-size="10.00">math.h</text>
</a>
</g>
</g>
<!-- Node3&#45;&gt;Node4 -->
<g id="edge3" class="edge">
<title>Node3&#45;&gt;Node4</title>
<path fill="none" stroke="midnightblue" d="M134.93,-280.08C131.55,-272.77 126.65,-262.18 122.44,-253.1"/>
<polygon fill="midnightblue" stroke="midnightblue" points="125.49,-251.36 118.11,-243.75 119.14,-254.3 125.49,-251.36"/>
</g>
<!-- Node4&#45;&gt;Node5 -->
<g id="edge4" class="edge">
<title>Node4&#45;&gt;Node5</title>
<path fill="none" stroke="midnightblue" d="M118.49,-224.42C125.43,-211.41 139.8,-186.26 156.06,-168 187.62,-132.58 232.29,-99.45 258.51,-81.33"/>
<polygon fill="midnightblue" stroke="midnightblue" points="260.67,-84.09 266.96,-75.57 256.73,-78.31 260.67,-84.09"/>
</g>
<!-- Node9 -->
<g id="node9" class="node">
<title>Node9</title>
<g id="a_node9"><a xlink:href="_vector_8h.html" target="_top" xlink:title="API for operations on Vector data structures.">
<polygon fill="white" stroke="black" points="165.06,-168.5 165.06,-187.5 221.06,-187.5 221.06,-168.5 165.06,-168.5"/>
<text text-anchor="middle" x="193.06" y="-175.5" font-family="Helvetica,sans-Serif" font-size="10.00">Vector.h</text>
</a>
</g>
</g>
<!-- Node4&#45;&gt;Node9 -->
<g id="edge8" class="edge">
<title>Node4&#45;&gt;Node9</title>
<path fill="none" stroke="midnightblue" d="M126.76,-224.32C138.96,-215.98 157.64,-203.21 172.07,-193.35"/>
<polygon fill="midnightblue" stroke="midnightblue" points="174.12,-196.19 180.4,-187.65 170.17,-190.41 174.12,-196.19"/>
</g>
<!-- Node6 -->
<g id="node6" class="node">
<title>Node6</title>
<g id="a_node6"><a xlink:title=" ">
<polygon fill="white" stroke="#bfbfbf" points="172.06,-0.5 172.06,-19.5 234.06,-19.5 234.06,-0.5 172.06,-0.5"/>
<text text-anchor="middle" x="203.06" y="-7.5" font-family="Helvetica,sans-Serif" font-size="10.00">stdbool.h</text>
</a>
</g>
</g>
<!-- Node5&#45;&gt;Node6 -->
<g id="edge5" class="edge">
<title>Node5&#45;&gt;Node6</title>
<path fill="none" stroke="midnightblue" d="M267.69,-56.32C255.9,-48.06 237.93,-35.45 223.93,-25.63"/>
<polygon fill="midnightblue" stroke="midnightblue" points="225.6,-22.53 215.4,-19.65 221.58,-28.26 225.6,-22.53"/>
</g>
<!-- Node7 -->
<g id="node7" class="node">
<title>Node7</title>
<g id="a_node7"><a xlink:title=" ">
<polygon fill="white" stroke="#bfbfbf" points="252.06,-0.5 252.06,-19.5 308.06,-19.5 308.06,-0.5 252.06,-0.5"/>
<text text-anchor="middle" x="280.06" y="-7.5" font-family="Helvetica,sans-Serif" font-size="10.00">stddef.h</text>
</a>
</g>
</g>
<!-- Node5&#45;&gt;Node7 -->
<g id="edge6" class="edge">
<title>Node5&#45;&gt;Node7</title>
<path fill="none" stroke="midnightblue" d="M280.06,-56.08C280.06,-49.01 280.06,-38.86 280.06,-29.99"/>
<polygon fill="midnightblue" stroke="midnightblue" points="283.56,-29.75 280.06,-19.75 276.56,-29.75 283.56,-29.75"/>
</g>
<!-- Node8 -->
<g id="node8" class="node">
<title>Node8</title>
<g id="a_node8"><a xlink:title=" ">
<polygon fill="white" stroke="#bfbfbf" points="326.56,-0.5 326.56,-19.5 379.56,-19.5 379.56,-0.5 326.56,-0.5"/>
<text text-anchor="middle" x="353.06" y="-7.5" font-family="Helvetica,sans-Serif" font-size="10.00">stdint.h</text>
</a>
</g>
</g>
<!-- Node5&#45;&gt;Node8 -->
<g id="edge7" class="edge">
<title>Node5&#45;&gt;Node8</title>
<path fill="none" stroke="midnightblue" d="M291.79,-56.32C302.9,-48.11 319.81,-35.6 333.05,-25.81"/>
<polygon fill="midnightblue" stroke="midnightblue" points="335.16,-28.59 341.12,-19.83 331,-22.97 335.16,-28.59"/>
</g>
<!-- Node9&#45;&gt;Node5 -->
<g id="edge12" class="edge">
<title>Node9&#45;&gt;Node5</title>
<path fill="none" stroke="midnightblue" d="M199.89,-168.37C214.31,-150.14 248.09,-107.43 266.87,-83.68"/>
<polygon fill="midnightblue" stroke="midnightblue" points="269.81,-85.61 273.27,-75.59 264.32,-81.26 269.81,-85.61"/>
</g>
<!-- Node9&#45;&gt;Node10 -->
<g id="edge9" class="edge">
<title>Node9&#45;&gt;Node10</title>
<path fill="none" stroke="midnightblue" d="M169.3,-168.44C144.17,-159.4 104.35,-145.06 76.16,-134.92"/>
<polygon fill="midnightblue" stroke="midnightblue" points="77.31,-131.61 66.72,-131.52 74.94,-138.2 77.31,-131.61"/>
</g>
<!-- Node10&#45;&gt;Node5 -->
<g id="edge10" class="edge">
<title>Node10&#45;&gt;Node5</title>
<path fill="none" stroke="midnightblue" d="M66.65,-115.62C108.08,-106.19 194.17,-86.57 243.41,-75.35"/>
<polygon fill="midnightblue" stroke="midnightblue" points="244.35,-78.73 253.33,-73.09 242.8,-71.9 244.35,-78.73"/>
</g>
<!-- Node11 -->
<g id="node11" class="node">
<title>Node11</title>
<g id="a_node11"><a xlink:title=" ">
<polygon fill="white" stroke="#bfbfbf" points="15.06,-56.5 15.06,-75.5 71.06,-75.5 71.06,-56.5 15.06,-56.5"/>
<text text-anchor="middle" x="43.06" y="-63.5" font-family="Helvetica,sans-Serif" font-size="10.00">assert.h</text>
</a>
</g>
</g>
<!-- Node10&#45;&gt;Node11 -->
<g id="edge11" class="edge">
<title>Node10&#45;&gt;Node11</title>
<path fill="none" stroke="midnightblue" d="M43.06,-112.08C43.06,-105.01 43.06,-94.86 43.06,-85.99"/>
<polygon fill="midnightblue" stroke="midnightblue" points="46.56,-85.75 43.06,-75.75 39.56,-85.75 46.56,-85.75"/>
</g>
<!-- Node12&#45;&gt;Node5 -->
<g id="edge15" class="edge">
<title>Node12&#45;&gt;Node5</title>
<path fill="none" stroke="midnightblue" d="M51.19,-224.3C73.58,-203.24 133.51,-148.61 190.06,-112 209.24,-99.58 232.31,-88.11 250.3,-79.86"/>
<polygon fill="midnightblue" stroke="midnightblue" points="252.03,-82.91 259.7,-75.62 249.15,-76.53 252.03,-82.91"/>
</g>
<!-- Node12&#45;&gt;Node9 -->
<g id="edge16" class="edge">
<title>Node12&#45;&gt;Node9</title>
<path fill="none" stroke="midnightblue" d="M65.99,-224.44C91.28,-215.4 131.37,-201.06 159.74,-190.92"/>
<polygon fill="midnightblue" stroke="midnightblue" points="161.01,-194.18 169.25,-187.52 158.65,-187.59 161.01,-194.18"/>
</g>
<!-- Node12&#45;&gt;Node10 -->
<g id="edge14" class="edge">
<title>Node12&#45;&gt;Node10</title>
<path fill="none" stroke="midnightblue" d="M42.14,-224.37C42.3,-206.62 42.68,-165.67 42.89,-141.6"/>
<polygon fill="midnightblue" stroke="midnightblue" points="46.39,-141.62 42.99,-131.59 39.39,-141.56 46.39,-141.62"/>
</g>
<!-- Node13&#45;&gt;Node2 -->
<g id="edge20" class="edge">
<title>Node13&#45;&gt;Node2</title>
<path fill="none" stroke="midnightblue" d="M214.6,-392.32C200.56,-383.9 179.01,-370.97 162.52,-361.07"/>
<polygon fill="midnightblue" stroke="midnightblue" points="163.86,-357.8 153.49,-355.65 160.26,-363.8 163.86,-357.8"/>
</g>
<!-- Node13&#45;&gt;Node5 -->
<g id="edge21" class="edge">
<title>Node13&#45;&gt;Node5</title>
<path fill="none" stroke="midnightblue" d="M273.71,-399.34C341.37,-394.18 462.06,-373.42 462.06,-291 462.06,-291 462.06,-291 462.06,-177 462.06,-109.85 370.2,-82.59 317,-72.44"/>
<polygon fill="midnightblue" stroke="midnightblue" points="317.38,-68.95 306.92,-70.63 316.14,-75.84 317.38,-68.95"/>
</g>
<!-- Node14&#45;&gt;Node5 -->
<g id="edge33" class="edge">
<title>Node14&#45;&gt;Node5</title>
<path fill="none" stroke="midnightblue" d="M325.01,-336.48C360.35,-321.71 424.06,-287.76 424.06,-235 424.06,-235 424.06,-235 424.06,-177 424.06,-122.86 358.99,-91.8 316.33,-77.26"/>
<polygon fill="midnightblue" stroke="midnightblue" points="317.4,-73.92 306.81,-74.15 315.23,-80.58 317.4,-73.92"/>
</g>
<!-- Node14&#45;&gt;Node12 -->
<g id="edge32" class="edge">
<title>Node14&#45;&gt;Node12</title>
<path fill="none" stroke="midnightblue" d="M221.64,-338.93C182.49,-333.15 136.03,-321.88 99.06,-300 79.36,-288.33 62.89,-267.48 52.81,-252.54"/>
<polygon fill="midnightblue" stroke="midnightblue" points="55.49,-250.24 47.13,-243.73 49.6,-254.03 55.49,-250.24"/>
</g>
<!-- Node15 -->
<g id="node15" class="node">
<title>Node15</title>
<g id="a_node15"><a xlink:href="_preprocessed_f_f_t_8h.html" target="_top" xlink:title="API for Pre&#45;processed FFT.">
<polygon fill="white" stroke="black" points="229.56,-280.5 229.56,-299.5 374.56,-299.5 374.56,-280.5 229.56,-280.5"/>
<text text-anchor="middle" x="302.06" y="-287.5" font-family="Helvetica,sans-Serif" font-size="10.00">ifxAlgo/PreprocessedFFT.h</text>
</a>
</g>
</g>
<!-- Node14&#45;&gt;Node15 -->
<g id="edge23" class="edge">
<title>Node14&#45;&gt;Node15</title>
<path fill="none" stroke="midnightblue" d="M302.06,-336.08C302.06,-329.01 302.06,-318.86 302.06,-309.99"/>
<polygon fill="midnightblue" stroke="midnightblue" points="305.56,-309.75 302.06,-299.75 298.56,-309.75 305.56,-309.75"/>
</g>
<!-- Node15&#45;&gt;Node4 -->
<g id="edge30" class="edge">
<title>Node15&#45;&gt;Node4</title>
<path fill="none" stroke="midnightblue" d="M272.27,-280.44C239.01,-270.89 185.19,-255.43 149.72,-245.24"/>
<polygon fill="midnightblue" stroke="midnightblue" points="150.36,-241.79 139.79,-242.39 148.43,-248.51 150.36,-241.79"/>
</g>
<!-- Node15&#45;&gt;Node5 -->
<g id="edge31" class="edge">
<title>Node15&#45;&gt;Node5</title>
<path fill="none" stroke="midnightblue" d="M323.87,-280.45C339.01,-273.22 358.02,-261.26 367.06,-244 371.19,-236.13 369.29,-232.61 367.06,-224 352.63,-168.16 313.59,-111 293.07,-83.62"/>
<polygon fill="midnightblue" stroke="midnightblue" points="295.74,-81.34 286.88,-75.52 290.17,-85.59 295.74,-81.34"/>
</g>
<!-- Node16 -->
<g id="node16" class="node">
<title>Node16</title>
<g id="a_node16"><a xlink:href="_f_f_t_8h.html" target="_top" xlink:title="API for Fast Fourier Transform (FFT)">
<polygon fill="white" stroke="black" points="158.06,-224.5 158.06,-243.5 238.06,-243.5 238.06,-224.5 158.06,-224.5"/>
<text text-anchor="middle" x="198.06" y="-231.5" font-family="Helvetica,sans-Serif" font-size="10.00">ifxAlgo/FFT.h</text>
</a>
</g>
</g>
<!-- Node15&#45;&gt;Node16 -->
<g id="edge24" class="edge">
<title>Node15&#45;&gt;Node16</title>
<path fill="none" stroke="midnightblue" d="M285.35,-280.32C268.75,-271.7 243.06,-258.36 223.84,-248.39"/>
<polygon fill="midnightblue" stroke="midnightblue" points="225.22,-245.16 214.73,-243.65 221.99,-251.37 225.22,-245.16"/>
</g>
<!-- Node17 -->
<g id="node17" class="node">
<title>Node17</title>
<g id="a_node17"><a xlink:href="_window_8h.html" target="_top" xlink:title="API for Window function processing.">
<polygon fill="white" stroke="black" points="256.56,-224.5 256.56,-243.5 357.56,-243.5 357.56,-224.5 256.56,-224.5"/>
<text text-anchor="middle" x="307.06" y="-231.5" font-family="Helvetica,sans-Serif" font-size="10.00">ifxAlgo/Window.h</text>
</a>
</g>
</g>
<!-- Node15&#45;&gt;Node17 -->
<g id="edge27" class="edge">
<title>Node15&#45;&gt;Node17</title>
<path fill="none" stroke="midnightblue" d="M302.89,-280.08C303.54,-273.01 304.48,-262.86 305.31,-253.99"/>
<polygon fill="midnightblue" stroke="midnightblue" points="308.82,-254.03 306.25,-243.75 301.85,-253.39 308.82,-254.03"/>
</g>
<!-- Node16&#45;&gt;Node5 -->
<g id="edge25" class="edge">
<title>Node16&#45;&gt;Node5</title>
<path fill="none" stroke="midnightblue" d="M205.06,-224.42C212,-215.65 222.64,-201.42 230.06,-188 249.33,-153.15 265.64,-109.34 274.02,-85.15"/>
<polygon fill="midnightblue" stroke="midnightblue" points="277.39,-86.11 277.29,-75.52 270.76,-83.86 277.39,-86.11"/>
</g>
<!-- Node16&#45;&gt;Node9 -->
<g id="edge26" class="edge">
<title>Node16&#45;&gt;Node9</title>
<path fill="none" stroke="midnightblue" d="M197.24,-224.08C196.58,-217.01 195.64,-206.86 194.82,-197.99"/>
<polygon fill="midnightblue" stroke="midnightblue" points="198.28,-197.39 193.87,-187.75 191.31,-198.03 198.28,-197.39"/>
</g>
<!-- Node17&#45;&gt;Node5 -->
<g id="edge28" class="edge">
<title>Node17&#45;&gt;Node5</title>
<path fill="none" stroke="midnightblue" d="M305.61,-224.08C301.36,-197.95 288.88,-121.21 283.08,-85.58"/>
<polygon fill="midnightblue" stroke="midnightblue" points="286.52,-84.88 281.46,-75.57 279.61,-86 286.52,-84.88"/>
</g>
<!-- Node17&#45;&gt;Node9 -->
<g id="edge29" class="edge">
<title>Node17&#45;&gt;Node9</title>
<path fill="none" stroke="midnightblue" d="M289,-224.44C270.49,-215.68 241.48,-201.94 220.21,-191.86"/>
<polygon fill="midnightblue" stroke="midnightblue" points="221.58,-188.63 211.04,-187.52 218.58,-194.96 221.58,-188.63"/>
</g>
</g>
</svg>
