<?xml version="1.0" encoding="UTF-8" standalone="no"?>
<!DOCTYPE svg PUBLIC "-//W3C//DTD SVG 1.1//EN"
 "http://www.w3.org/Graphics/SVG/1.1/DTD/svg11.dtd">
<!-- Generated by graphviz version 2.43.0 (0)
 -->
<!-- Title: /home/jenkins/agent/workspace/ild&#45;documentation_release_v3.5.0/sdk/c/ifxRadar/RangeDopplerMap.h Pages: 1 -->
<svg width="498pt" height="397pt"
 viewBox="0.00 0.00 497.50 397.00" xmlns="http://www.w3.org/2000/svg" xmlns:xlink="http://www.w3.org/1999/xlink">
<g id="graph0" class="graph" transform="scale(1 1) rotate(0) translate(4 393)">
<title>/home/jenkins/agent/workspace/ild&#45;documentation_release_v3.5.0/sdk/c/ifxRadar/RangeDopplerMap.h</title>
<polygon fill="white" stroke="transparent" points="-4,4 -4,-393 493.5,-393 493.5,4 -4,4"/>
<!-- Node1 -->
<g id="node1" class="node">
<title>Node1</title>
<g id="a_node1"><a xlink:title="API for Doppler Spectrogram.">
<polygon fill="#bfbfbf" stroke="black" points="77,-336.5 77,-388.5 243,-388.5 243,-336.5 77,-336.5"/>
<text text-anchor="start" x="85" y="-376.5" font-family="Helvetica,sans-Serif" font-size="10.00">/home/jenkins/agent</text>
<text text-anchor="start" x="85" y="-365.5" font-family="Helvetica,sans-Serif" font-size="10.00">/workspace/ild&#45;documentation</text>
<text text-anchor="start" x="85" y="-354.5" font-family="Helvetica,sans-Serif" font-size="10.00">_release_v3.5.0/sdk/c/ifxRadar</text>
<text text-anchor="middle" x="160" y="-343.5" font-family="Helvetica,sans-Serif" font-size="10.00">/RangeDopplerMap.h</text>
</a>
</g>
</g>
<!-- Node2 -->
<g id="node2" class="node">
<title>Node2</title>
<g id="a_node2"><a xlink:href="_preprocessed_f_f_t_8h.html" target="_top" xlink:title="API for Pre&#45;processed FFT.">
<polygon fill="white" stroke="black" points="87.5,-280.5 87.5,-299.5 232.5,-299.5 232.5,-280.5 87.5,-280.5"/>
<text text-anchor="middle" x="160" y="-287.5" font-family="Helvetica,sans-Serif" font-size="10.00">ifxAlgo/PreprocessedFFT.h</text>
</a>
</g>
</g>
<!-- Node1&#45;&gt;Node2 -->
<g id="edge1" class="edge">
<title>Node1&#45;&gt;Node2</title>
<path fill="none" stroke="midnightblue" d="M160,-336.45C160,-327.73 160,-318.1 160,-309.96"/>
<polygon fill="midnightblue" stroke="midnightblue" points="163.5,-309.7 160,-299.7 156.5,-309.7 163.5,-309.7"/>
</g>
<!-- Node4 -->
<g id="node4" class="node">
<title>Node4</title>
<g id="a_node4"><a xlink:href="_types_8h.html" target="_top" xlink:title="Definitions of data types used within the SDK.">
<polygon fill="white" stroke="black" points="159.5,-56.5 159.5,-75.5 252.5,-75.5 252.5,-56.5 159.5,-56.5"/>
<text text-anchor="middle" x="206" y="-63.5" font-family="Helvetica,sans-Serif" font-size="10.00">ifxBase/Types.h</text>
</a>
</g>
</g>
<!-- Node1&#45;&gt;Node4 -->
<g id="edge23" class="edge">
<title>Node1&#45;&gt;Node4</title>
<path fill="none" stroke="midnightblue" d="M88.42,-336.36C45.82,-316.33 0,-283.51 0,-235 0,-235 0,-235 0,-177 0,-109.02 88.36,-82.9 149.35,-72.97"/>
<polygon fill="midnightblue" stroke="midnightblue" points="149.9,-76.43 159.26,-71.46 148.84,-69.51 149.9,-76.43"/>
</g>
<!-- Node13 -->
<g id="node13" class="node">
<title>Node13</title>
<g id="a_node13"><a xlink:href="_matrix_8h.html" target="_top" xlink:title="API for operations on Matrix data structures.">
<polygon fill="white" stroke="black" points="392.5,-224.5 392.5,-243.5 489.5,-243.5 489.5,-224.5 392.5,-224.5"/>
<text text-anchor="middle" x="441" y="-231.5" font-family="Helvetica,sans-Serif" font-size="10.00">ifxBase/Matrix.h</text>
</a>
</g>
</g>
<!-- Node1&#45;&gt;Node13 -->
<g id="edge19" class="edge">
<title>Node1&#45;&gt;Node13</title>
<path fill="none" stroke="midnightblue" d="M215.85,-336.36C275.2,-309.64 366.67,-268.46 412.61,-247.78"/>
<polygon fill="midnightblue" stroke="midnightblue" points="414.28,-250.87 421.96,-243.57 411.4,-244.49 414.28,-250.87"/>
</g>
<!-- Node3 -->
<g id="node3" class="node">
<title>Node3</title>
<g id="a_node3"><a xlink:href="_f_f_t_8h.html" target="_top" xlink:title="API for Fast Fourier Transform (FFT)">
<polygon fill="white" stroke="black" points="66,-224.5 66,-243.5 146,-243.5 146,-224.5 66,-224.5"/>
<text text-anchor="middle" x="106" y="-231.5" font-family="Helvetica,sans-Serif" font-size="10.00">ifxAlgo/FFT.h</text>
</a>
</g>
</g>
<!-- Node2&#45;&gt;Node3 -->
<g id="edge2" class="edge">
<title>Node2&#45;&gt;Node3</title>
<path fill="none" stroke="midnightblue" d="M151.08,-280.08C143.22,-272.22 131.57,-260.57 122.08,-251.08"/>
<polygon fill="midnightblue" stroke="midnightblue" points="124.3,-248.35 114.75,-243.75 119.35,-253.3 124.3,-248.35"/>
</g>
<!-- Node2&#45;&gt;Node4 -->
<g id="edge18" class="edge">
<title>Node2&#45;&gt;Node4</title>
<path fill="none" stroke="midnightblue" d="M117.57,-280.49C84.14,-271.4 45.01,-254.05 57,-224 82.82,-159.28 149.41,-105.95 184.16,-81.46"/>
<polygon fill="midnightblue" stroke="midnightblue" points="186.42,-84.16 192.66,-75.6 182.44,-78.39 186.42,-84.16"/>
</g>
<!-- Node11 -->
<g id="node11" class="node">
<title>Node11</title>
<g id="a_node11"><a xlink:href="_window_8h.html" target="_top" xlink:title="API for Window function processing.">
<polygon fill="white" stroke="black" points="164.5,-224.5 164.5,-243.5 265.5,-243.5 265.5,-224.5 164.5,-224.5"/>
<text text-anchor="middle" x="215" y="-231.5" font-family="Helvetica,sans-Serif" font-size="10.00">ifxAlgo/Window.h</text>
</a>
</g>
</g>
<!-- Node2&#45;&gt;Node11 -->
<g id="edge12" class="edge">
<title>Node2&#45;&gt;Node11</title>
<path fill="none" stroke="midnightblue" d="M169.08,-280.08C177.17,-272.14 189.2,-260.34 198.91,-250.8"/>
<polygon fill="midnightblue" stroke="midnightblue" points="201.4,-253.25 206.09,-243.75 196.5,-248.26 201.4,-253.25"/>
</g>
<!-- Node12 -->
<g id="node12" class="node">
<title>Node12</title>
<g id="a_node12"><a xlink:href="_math_8h.html" target="_top" xlink:title="API for Mathematical operations.">
<polygon fill="white" stroke="black" points="284,-224.5 284,-243.5 374,-243.5 374,-224.5 284,-224.5"/>
<text text-anchor="middle" x="329" y="-231.5" font-family="Helvetica,sans-Serif" font-size="10.00">ifxBase/Math.h</text>
</a>
</g>
</g>
<!-- Node2&#45;&gt;Node12 -->
<g id="edge15" class="edge">
<title>Node2&#45;&gt;Node12</title>
<path fill="none" stroke="midnightblue" d="M186.78,-280.44C215.33,-271.32 260.73,-256.81 292.54,-246.65"/>
<polygon fill="midnightblue" stroke="midnightblue" points="293.89,-249.89 302.35,-243.52 291.76,-243.23 293.89,-249.89"/>
</g>
<!-- Node3&#45;&gt;Node4 -->
<g id="edge3" class="edge">
<title>Node3&#45;&gt;Node4</title>
<path fill="none" stroke="midnightblue" d="M111.38,-224.08C127.32,-197.61 174.55,-119.21 195.63,-84.21"/>
<polygon fill="midnightblue" stroke="midnightblue" points="198.68,-85.94 200.84,-75.57 192.68,-82.33 198.68,-85.94"/>
</g>
<!-- Node8 -->
<g id="node8" class="node">
<title>Node8</title>
<g id="a_node8"><a xlink:href="_vector_8h.html" target="_top" xlink:title="API for operations on Vector data structures.">
<polygon fill="white" stroke="black" points="205.5,-168.5 205.5,-187.5 300.5,-187.5 300.5,-168.5 205.5,-168.5"/>
<text text-anchor="middle" x="253" y="-175.5" font-family="Helvetica,sans-Serif" font-size="10.00">ifxBase/Vector.h</text>
</a>
</g>
</g>
<!-- Node3&#45;&gt;Node8 -->
<g id="edge7" class="edge">
<title>Node3&#45;&gt;Node8</title>
<path fill="none" stroke="midnightblue" d="M129.29,-224.44C153.81,-215.44 192.6,-201.19 220.2,-191.05"/>
<polygon fill="midnightblue" stroke="midnightblue" points="221.64,-194.25 229.82,-187.52 219.22,-187.68 221.64,-194.25"/>
</g>
<!-- Node5 -->
<g id="node5" class="node">
<title>Node5</title>
<g id="a_node5"><a xlink:title=" ">
<polygon fill="white" stroke="#bfbfbf" points="98,-0.5 98,-19.5 160,-19.5 160,-0.5 98,-0.5"/>
<text text-anchor="middle" x="129" y="-7.5" font-family="Helvetica,sans-Serif" font-size="10.00">stdbool.h</text>
</a>
</g>
</g>
<!-- Node4&#45;&gt;Node5 -->
<g id="edge4" class="edge">
<title>Node4&#45;&gt;Node5</title>
<path fill="none" stroke="midnightblue" d="M193.63,-56.32C181.84,-48.06 163.87,-35.45 149.86,-25.63"/>
<polygon fill="midnightblue" stroke="midnightblue" points="151.54,-22.53 141.34,-19.65 147.52,-28.26 151.54,-22.53"/>
</g>
<!-- Node6 -->
<g id="node6" class="node">
<title>Node6</title>
<g id="a_node6"><a xlink:title=" ">
<polygon fill="white" stroke="#bfbfbf" points="178,-0.5 178,-19.5 234,-19.5 234,-0.5 178,-0.5"/>
<text text-anchor="middle" x="206" y="-7.5" font-family="Helvetica,sans-Serif" font-size="10.00">stddef.h</text>
</a>
</g>
</g>
<!-- Node4&#45;&gt;Node6 -->
<g id="edge5" class="edge">
<title>Node4&#45;&gt;Node6</title>
<path fill="none" stroke="midnightblue" d="M206,-56.08C206,-49.01 206,-38.86 206,-29.99"/>
<polygon fill="midnightblue" stroke="midnightblue" points="209.5,-29.75 206,-19.75 202.5,-29.75 209.5,-29.75"/>
</g>
<!-- Node7 -->
<g id="node7" class="node">
<title>Node7</title>
<g id="a_node7"><a xlink:title=" ">
<polygon fill="white" stroke="#bfbfbf" points="252.5,-0.5 252.5,-19.5 305.5,-19.5 305.5,-0.5 252.5,-0.5"/>
<text text-anchor="middle" x="279" y="-7.5" font-family="Helvetica,sans-Serif" font-size="10.00">stdint.h</text>
</a>
</g>
</g>
<!-- Node4&#45;&gt;Node7 -->
<g id="edge6" class="edge">
<title>Node4&#45;&gt;Node7</title>
<path fill="none" stroke="midnightblue" d="M217.73,-56.32C228.84,-48.11 245.74,-35.6 258.98,-25.81"/>
<polygon fill="midnightblue" stroke="midnightblue" points="261.1,-28.59 267.06,-19.83 256.94,-22.97 261.1,-28.59"/>
</g>
<!-- Node8&#45;&gt;Node4 -->
<g id="edge11" class="edge">
<title>Node8&#45;&gt;Node4</title>
<path fill="none" stroke="midnightblue" d="M249.31,-168.37C241.66,-150.46 223.91,-108.92 213.67,-84.95"/>
<polygon fill="midnightblue" stroke="midnightblue" points="216.82,-83.41 209.67,-75.59 210.38,-86.16 216.82,-83.41"/>
</g>
<!-- Node9 -->
<g id="node9" class="node">
<title>Node9</title>
<g id="a_node9"><a xlink:href="_mda_8h.html" target="_top" xlink:title="API for multi&#45;dimensional arrays.">
<polygon fill="white" stroke="black" points="357.5,-112.5 357.5,-131.5 404.5,-131.5 404.5,-112.5 357.5,-112.5"/>
<text text-anchor="middle" x="381" y="-119.5" font-family="Helvetica,sans-Serif" font-size="10.00">Mda.h</text>
</a>
</g>
</g>
<!-- Node8&#45;&gt;Node9 -->
<g id="edge8" class="edge">
<title>Node8&#45;&gt;Node9</title>
<path fill="none" stroke="midnightblue" d="M273.28,-168.44C294.35,-159.56 327.52,-145.56 351.49,-135.45"/>
<polygon fill="midnightblue" stroke="midnightblue" points="352.96,-138.63 360.81,-131.52 350.24,-132.18 352.96,-138.63"/>
</g>
<!-- Node9&#45;&gt;Node4 -->
<g id="edge9" class="edge">
<title>Node9&#45;&gt;Node4</title>
<path fill="none" stroke="midnightblue" d="M357.4,-113.72C328.19,-104.7 278.09,-89.24 243.57,-78.59"/>
<polygon fill="midnightblue" stroke="midnightblue" points="244.43,-75.19 233.84,-75.59 242.36,-81.88 244.43,-75.19"/>
</g>
<!-- Node10 -->
<g id="node10" class="node">
<title>Node10</title>
<g id="a_node10"><a xlink:title=" ">
<polygon fill="white" stroke="#bfbfbf" points="353,-56.5 353,-75.5 409,-75.5 409,-56.5 353,-56.5"/>
<text text-anchor="middle" x="381" y="-63.5" font-family="Helvetica,sans-Serif" font-size="10.00">assert.h</text>
</a>
</g>
</g>
<!-- Node9&#45;&gt;Node10 -->
<g id="edge10" class="edge">
<title>Node9&#45;&gt;Node10</title>
<path fill="none" stroke="midnightblue" d="M381,-112.08C381,-105.01 381,-94.86 381,-85.99"/>
<polygon fill="midnightblue" stroke="midnightblue" points="384.5,-85.75 381,-75.75 377.5,-85.75 384.5,-85.75"/>
</g>
<!-- Node11&#45;&gt;Node4 -->
<g id="edge13" class="edge">
<title>Node11&#45;&gt;Node4</title>
<path fill="none" stroke="midnightblue" d="M210.12,-224.37C205.44,-215.55 198.69,-201.3 196,-188 188.74,-152.15 195.92,-109.31 201.29,-85.42"/>
<polygon fill="midnightblue" stroke="midnightblue" points="204.72,-86.15 203.65,-75.61 197.91,-84.51 204.72,-86.15"/>
</g>
<!-- Node11&#45;&gt;Node8 -->
<g id="edge14" class="edge">
<title>Node11&#45;&gt;Node8</title>
<path fill="none" stroke="midnightblue" d="M221.27,-224.08C226.64,-216.46 234.52,-205.26 241.08,-195.94"/>
<polygon fill="midnightblue" stroke="midnightblue" points="243.95,-197.94 246.84,-187.75 238.22,-193.91 243.95,-197.94"/>
</g>
<!-- Node12&#45;&gt;Node4 -->
<g id="edge16" class="edge">
<title>Node12&#45;&gt;Node4</title>
<path fill="none" stroke="midnightblue" d="M327.75,-224.45C325.57,-211.46 320.17,-186.35 309,-168 287.06,-131.96 249.39,-99.61 226.19,-81.71"/>
<polygon fill="midnightblue" stroke="midnightblue" points="228.16,-78.81 218.07,-75.57 223.94,-84.39 228.16,-78.81"/>
</g>
<!-- Node12&#45;&gt;Node8 -->
<g id="edge17" class="edge">
<title>Node12&#45;&gt;Node8</title>
<path fill="none" stroke="midnightblue" d="M316.79,-224.32C305.22,-216.11 287.62,-203.6 273.84,-193.81"/>
<polygon fill="midnightblue" stroke="midnightblue" points="275.61,-190.77 265.43,-187.83 271.56,-196.48 275.61,-190.77"/>
</g>
<!-- Node13&#45;&gt;Node4 -->
<g id="edge21" class="edge">
<title>Node13&#45;&gt;Node4</title>
<path fill="none" stroke="midnightblue" d="M441.94,-224.21C443.79,-201.98 445.3,-143.1 414,-112 393.01,-91.14 316.86,-78.77 262.79,-72.43"/>
<polygon fill="midnightblue" stroke="midnightblue" points="262.96,-68.93 252.63,-71.28 262.17,-75.88 262.96,-68.93"/>
</g>
<!-- Node13&#45;&gt;Node8 -->
<g id="edge22" class="edge">
<title>Node13&#45;&gt;Node8</title>
<path fill="none" stroke="midnightblue" d="M411.21,-224.44C379.17,-215.24 328.07,-200.56 292.65,-190.39"/>
<polygon fill="midnightblue" stroke="midnightblue" points="293.23,-186.91 282.65,-187.52 291.29,-193.64 293.23,-186.91"/>
</g>
<!-- Node13&#45;&gt;Node9 -->
<g id="edge20" class="edge">
<title>Node13&#45;&gt;Node9</title>
<path fill="none" stroke="midnightblue" d="M436.29,-224.37C426.48,-206.38 403.66,-164.55 390.61,-140.63"/>
<polygon fill="midnightblue" stroke="midnightblue" points="393.55,-138.69 385.69,-131.59 387.4,-142.05 393.55,-138.69"/>
</g>
</g>
</svg>
