<?xml version="1.0" encoding="UTF-8" standalone="no"?>
<!DOCTYPE svg PUBLIC "-//W3C//DTD SVG 1.1//EN"
 "http://www.w3.org/Graphics/SVG/1.1/DTD/svg11.dtd">
<!-- Generated by graphviz version 2.43.0 (0)
 -->
<!-- Title: /home/jenkins/agent/workspace/ild&#45;documentation_release_v3.5.0/sdk/c/ifxUtil/Util.h Pages: 1 -->
<svg width="589pt" height="442pt"
 viewBox="0.00 0.00 589.00 442.00" xmlns="http://www.w3.org/2000/svg" xmlns:xlink="http://www.w3.org/1999/xlink">
<g id="graph0" class="graph" transform="scale(1 1) rotate(0) translate(4 438)">
<title>/home/jenkins/agent/workspace/ild&#45;documentation_release_v3.5.0/sdk/c/ifxUtil/Util.h</title>
<polygon fill="white" stroke="transparent" points="-4,4 -4,-438 585,-438 585,4 -4,4"/>
<!-- Node1 -->
<g id="node1" class="node">
<title>Node1</title>
<g id="a_node1"><a xlink:title="This file defines some utility functions like printing to, reading from files or printing to console.">
<polygon fill="#bfbfbf" stroke="black" points="219.5,-392.5 219.5,-433.5 403.5,-433.5 403.5,-392.5 219.5,-392.5"/>
<text text-anchor="start" x="227.5" y="-421.5" font-family="Helvetica,sans-Serif" font-size="10.00">/home/jenkins/agent</text>
<text text-anchor="start" x="227.5" y="-410.5" font-family="Helvetica,sans-Serif" font-size="10.00">/workspace/ild&#45;documentation</text>
<text text-anchor="middle" x="311.5" y="-399.5" font-family="Helvetica,sans-Serif" font-size="10.00">_release_v3.5.0/sdk/c/ifxUtil/Util.h</text>
</a>
</g>
</g>
<!-- Node2 -->
<g id="node2" class="node">
<title>Node2</title>
<g id="a_node2"><a xlink:title=" ">
<polygon fill="white" stroke="#bfbfbf" points="0,-336.5 0,-355.5 53,-355.5 53,-336.5 0,-336.5"/>
<text text-anchor="middle" x="26.5" y="-343.5" font-family="Helvetica,sans-Serif" font-size="10.00">stdlib.h</text>
</a>
</g>
</g>
<!-- Node1&#45;&gt;Node2 -->
<g id="edge1" class="edge">
<title>Node1&#45;&gt;Node2</title>
<path fill="none" stroke="midnightblue" d="M225.99,-392.5C171.58,-380.09 103.89,-364.65 62.99,-355.32"/>
<polygon fill="midnightblue" stroke="midnightblue" points="63.73,-351.9 53.2,-353.09 62.17,-358.73 63.73,-351.9"/>
</g>
<!-- Node3 -->
<g id="node3" class="node">
<title>Node3</title>
<g id="a_node3"><a xlink:title=" ">
<polygon fill="white" stroke="#bfbfbf" points="77.5,-224.5 77.5,-243.5 127.5,-243.5 127.5,-224.5 77.5,-224.5"/>
<text text-anchor="middle" x="102.5" y="-231.5" font-family="Helvetica,sans-Serif" font-size="10.00">stdio.h</text>
</a>
</g>
</g>
<!-- Node1&#45;&gt;Node3 -->
<g id="edge2" class="edge">
<title>Node1&#45;&gt;Node3</title>
<path fill="none" stroke="midnightblue" d="M219.39,-398.85C169.7,-389.66 115.52,-375.53 100.5,-356 77.63,-326.27 87.63,-279.17 95.77,-253.38"/>
<polygon fill="midnightblue" stroke="midnightblue" points="99.15,-254.34 99.05,-243.74 92.52,-252.08 99.15,-254.34"/>
</g>
<!-- Node4 -->
<g id="node4" class="node">
<title>Node4</title>
<g id="a_node4"><a xlink:title=" ">
<polygon fill="white" stroke="#bfbfbf" points="528,-336.5 528,-355.5 581,-355.5 581,-336.5 528,-336.5"/>
<text text-anchor="middle" x="554.5" y="-343.5" font-family="Helvetica,sans-Serif" font-size="10.00">string.h</text>
</a>
</g>
</g>
<!-- Node1&#45;&gt;Node4 -->
<g id="edge3" class="edge">
<title>Node1&#45;&gt;Node4</title>
<path fill="none" stroke="midnightblue" d="M384.41,-392.5C428.43,-380.72 482.65,-366.22 517.86,-356.8"/>
<polygon fill="midnightblue" stroke="midnightblue" points="518.95,-360.13 527.71,-354.17 517.14,-353.37 518.95,-360.13"/>
</g>
<!-- Node5 -->
<g id="node5" class="node">
<title>Node5</title>
<g id="a_node5"><a xlink:href="_complex_8h.html" target="_top" xlink:title="API for operations on complex numbers.">
<polygon fill="white" stroke="black" points="216,-336.5 216,-355.5 325,-355.5 325,-336.5 216,-336.5"/>
<text text-anchor="middle" x="270.5" y="-343.5" font-family="Helvetica,sans-Serif" font-size="10.00">ifxBase/Complex.h</text>
</a>
</g>
</g>
<!-- Node1&#45;&gt;Node5 -->
<g id="edge4" class="edge">
<title>Node1&#45;&gt;Node5</title>
<path fill="none" stroke="midnightblue" d="M299.2,-392.5C293.52,-383.49 286.83,-372.89 281.34,-364.19"/>
<polygon fill="midnightblue" stroke="midnightblue" points="284.25,-362.24 275.96,-355.65 278.33,-365.98 284.25,-362.24"/>
</g>
<!-- Node12 -->
<g id="node12" class="node">
<title>Node12</title>
<g id="a_node12"><a xlink:href="_vector_8h.html" target="_top" xlink:title="API for operations on Vector data structures.">
<polygon fill="white" stroke="black" points="307.5,-168.5 307.5,-187.5 363.5,-187.5 363.5,-168.5 307.5,-168.5"/>
<text text-anchor="middle" x="335.5" y="-175.5" font-family="Helvetica,sans-Serif" font-size="10.00">Vector.h</text>
</a>
</g>
</g>
<!-- Node1&#45;&gt;Node12 -->
<g id="edge29" class="edge">
<title>Node1&#45;&gt;Node12</title>
<path fill="none" stroke="midnightblue" d="M321.74,-392.37C326.64,-381.88 331.98,-368.57 334.5,-356 345.84,-299.38 341.07,-230.51 337.73,-197.88"/>
<polygon fill="midnightblue" stroke="midnightblue" points="341.17,-197.15 336.6,-187.59 334.21,-197.91 341.17,-197.15"/>
</g>
<!-- Node15 -->
<g id="node15" class="node">
<title>Node15</title>
<g id="a_node15"><a xlink:href="_cube_8h.html" target="_top" xlink:title="API for operations on Cube data structures.">
<polygon fill="white" stroke="black" points="419.5,-336.5 419.5,-355.5 509.5,-355.5 509.5,-336.5 419.5,-336.5"/>
<text text-anchor="middle" x="464.5" y="-343.5" font-family="Helvetica,sans-Serif" font-size="10.00">ifxBase/Cube.h</text>
</a>
</g>
</g>
<!-- Node1&#45;&gt;Node15 -->
<g id="edge17" class="edge">
<title>Node1&#45;&gt;Node15</title>
<path fill="none" stroke="midnightblue" d="M357.41,-392.5C382.44,-381.86 412.71,-369 434.68,-359.67"/>
<polygon fill="midnightblue" stroke="midnightblue" points="436.3,-362.78 444.13,-355.65 433.56,-356.34 436.3,-362.78"/>
</g>
<!-- Node16 -->
<g id="node16" class="node">
<title>Node16</title>
<g id="a_node16"><a xlink:href="_matrix_8h.html" target="_top" xlink:title="API for operations on Matrix data structures.">
<polygon fill="white" stroke="black" points="382,-224.5 382,-243.5 439,-243.5 439,-224.5 382,-224.5"/>
<text text-anchor="middle" x="410.5" y="-231.5" font-family="Helvetica,sans-Serif" font-size="10.00">Matrix.h</text>
</a>
</g>
</g>
<!-- Node1&#45;&gt;Node16 -->
<g id="edge28" class="edge">
<title>Node1&#45;&gt;Node16</title>
<path fill="none" stroke="midnightblue" d="M335.5,-392.43C346.47,-382.47 358.91,-369.6 367.5,-356 388.36,-322.98 400.8,-278.5 406.58,-253.7"/>
<polygon fill="midnightblue" stroke="midnightblue" points="410.03,-254.32 408.78,-243.8 403.2,-252.8 410.03,-254.32"/>
</g>
<!-- Node17 -->
<g id="node17" class="node">
<title>Node17</title>
<g id="a_node17"><a xlink:href="_error_8h.html" target="_top" xlink:title="API for error handling.">
<polygon fill="white" stroke="black" points="109.5,-336.5 109.5,-355.5 197.5,-355.5 197.5,-336.5 109.5,-336.5"/>
<text text-anchor="middle" x="153.5" y="-343.5" font-family="Helvetica,sans-Serif" font-size="10.00">ifxBase/Error.h</text>
</a>
</g>
</g>
<!-- Node1&#45;&gt;Node17 -->
<g id="edge24" class="edge">
<title>Node1&#45;&gt;Node17</title>
<path fill="none" stroke="midnightblue" d="M264.09,-392.5C238.12,-381.81 206.7,-368.89 183.99,-359.54"/>
<polygon fill="midnightblue" stroke="midnightblue" points="185.11,-356.22 174.53,-355.65 182.45,-362.69 185.11,-356.22"/>
</g>
<!-- Node6 -->
<g id="node6" class="node">
<title>Node6</title>
<g id="a_node6"><a xlink:href="_defines_8h.html" target="_top" xlink:title="Internal definitions used by standard math.h functions as Macros, to use float or double precision.">
<polygon fill="white" stroke="black" points="263.5,-280.5 263.5,-299.5 325.5,-299.5 325.5,-280.5 263.5,-280.5"/>
<text text-anchor="middle" x="294.5" y="-287.5" font-family="Helvetica,sans-Serif" font-size="10.00">Defines.h</text>
</a>
</g>
</g>
<!-- Node5&#45;&gt;Node6 -->
<g id="edge5" class="edge">
<title>Node5&#45;&gt;Node6</title>
<path fill="none" stroke="midnightblue" d="M274.46,-336.08C277.71,-328.77 282.42,-318.18 286.45,-309.1"/>
<polygon fill="midnightblue" stroke="midnightblue" points="289.75,-310.31 290.61,-299.75 283.35,-307.47 289.75,-310.31"/>
</g>
<!-- Node8 -->
<g id="node8" class="node">
<title>Node8</title>
<g id="a_node8"><a xlink:href="_types_8h.html" target="_top" xlink:title="Definitions of data types used within the SDK.">
<polygon fill="white" stroke="black" points="277,-56.5 277,-75.5 330,-75.5 330,-56.5 277,-56.5"/>
<text text-anchor="middle" x="303.5" y="-63.5" font-family="Helvetica,sans-Serif" font-size="10.00">Types.h</text>
</a>
</g>
</g>
<!-- Node5&#45;&gt;Node8 -->
<g id="edge16" class="edge">
<title>Node5&#45;&gt;Node8</title>
<path fill="none" stroke="midnightblue" d="M265.78,-336.46C256.23,-318.34 235.5,-274.48 235.5,-235 235.5,-235 235.5,-235 235.5,-177 235.5,-138.55 265.93,-102.31 286.08,-82.54"/>
<polygon fill="midnightblue" stroke="midnightblue" points="288.6,-84.98 293.47,-75.57 283.79,-79.89 288.6,-84.98"/>
</g>
<!-- Node7 -->
<g id="node7" class="node">
<title>Node7</title>
<g id="a_node7"><a xlink:href="_math_8h.html" target="_top" xlink:title="API for Mathematical operations.">
<polygon fill="white" stroke="black" points="269,-224.5 269,-243.5 320,-243.5 320,-224.5 269,-224.5"/>
<text text-anchor="middle" x="294.5" y="-231.5" font-family="Helvetica,sans-Serif" font-size="10.00">math.h</text>
</a>
</g>
</g>
<!-- Node6&#45;&gt;Node7 -->
<g id="edge6" class="edge">
<title>Node6&#45;&gt;Node7</title>
<path fill="none" stroke="midnightblue" d="M294.5,-280.08C294.5,-273.01 294.5,-262.86 294.5,-253.99"/>
<polygon fill="midnightblue" stroke="midnightblue" points="298,-253.75 294.5,-243.75 291,-253.75 298,-253.75"/>
</g>
<!-- Node7&#45;&gt;Node8 -->
<g id="edge7" class="edge">
<title>Node7&#45;&gt;Node8</title>
<path fill="none" stroke="midnightblue" d="M294.98,-224.08C296.4,-197.95 300.56,-121.21 302.49,-85.58"/>
<polygon fill="midnightblue" stroke="midnightblue" points="305.99,-85.74 303.04,-75.57 299,-85.36 305.99,-85.74"/>
</g>
<!-- Node7&#45;&gt;Node12 -->
<g id="edge11" class="edge">
<title>Node7&#45;&gt;Node12</title>
<path fill="none" stroke="midnightblue" d="M301.27,-224.08C307.06,-216.46 315.56,-205.26 322.64,-195.94"/>
<polygon fill="midnightblue" stroke="midnightblue" points="325.6,-197.83 328.86,-187.75 320.02,-193.6 325.6,-197.83"/>
</g>
<!-- Node9 -->
<g id="node9" class="node">
<title>Node9</title>
<g id="a_node9"><a xlink:title=" ">
<polygon fill="white" stroke="#bfbfbf" points="195.5,-0.5 195.5,-19.5 257.5,-19.5 257.5,-0.5 195.5,-0.5"/>
<text text-anchor="middle" x="226.5" y="-7.5" font-family="Helvetica,sans-Serif" font-size="10.00">stdbool.h</text>
</a>
</g>
</g>
<!-- Node8&#45;&gt;Node9 -->
<g id="edge8" class="edge">
<title>Node8&#45;&gt;Node9</title>
<path fill="none" stroke="midnightblue" d="M291.13,-56.32C279.34,-48.06 261.37,-35.45 247.36,-25.63"/>
<polygon fill="midnightblue" stroke="midnightblue" points="249.04,-22.53 238.84,-19.65 245.02,-28.26 249.04,-22.53"/>
</g>
<!-- Node10 -->
<g id="node10" class="node">
<title>Node10</title>
<g id="a_node10"><a xlink:title=" ">
<polygon fill="white" stroke="#bfbfbf" points="275.5,-0.5 275.5,-19.5 331.5,-19.5 331.5,-0.5 275.5,-0.5"/>
<text text-anchor="middle" x="303.5" y="-7.5" font-family="Helvetica,sans-Serif" font-size="10.00">stddef.h</text>
</a>
</g>
</g>
<!-- Node8&#45;&gt;Node10 -->
<g id="edge9" class="edge">
<title>Node8&#45;&gt;Node10</title>
<path fill="none" stroke="midnightblue" d="M303.5,-56.08C303.5,-49.01 303.5,-38.86 303.5,-29.99"/>
<polygon fill="midnightblue" stroke="midnightblue" points="307,-29.75 303.5,-19.75 300,-29.75 307,-29.75"/>
</g>
<!-- Node11 -->
<g id="node11" class="node">
<title>Node11</title>
<g id="a_node11"><a xlink:title=" ">
<polygon fill="white" stroke="#bfbfbf" points="350,-0.5 350,-19.5 403,-19.5 403,-0.5 350,-0.5"/>
<text text-anchor="middle" x="376.5" y="-7.5" font-family="Helvetica,sans-Serif" font-size="10.00">stdint.h</text>
</a>
</g>
</g>
<!-- Node8&#45;&gt;Node11 -->
<g id="edge10" class="edge">
<title>Node8&#45;&gt;Node11</title>
<path fill="none" stroke="midnightblue" d="M315.23,-56.32C326.34,-48.11 343.24,-35.6 356.48,-25.81"/>
<polygon fill="midnightblue" stroke="midnightblue" points="358.6,-28.59 364.56,-19.83 354.44,-22.97 358.6,-28.59"/>
</g>
<!-- Node12&#45;&gt;Node8 -->
<g id="edge15" class="edge">
<title>Node12&#45;&gt;Node8</title>
<path fill="none" stroke="midnightblue" d="M332.99,-168.37C327.8,-150.54 315.8,-109.3 308.82,-85.27"/>
<polygon fill="midnightblue" stroke="midnightblue" points="312.15,-84.22 306,-75.59 305.43,-86.17 312.15,-84.22"/>
</g>
<!-- Node13 -->
<g id="node13" class="node">
<title>Node13</title>
<g id="a_node13"><a xlink:href="_mda_8h.html" target="_top" xlink:title="API for multi&#45;dimensional arrays.">
<polygon fill="white" stroke="black" points="420,-112.5 420,-131.5 467,-131.5 467,-112.5 420,-112.5"/>
<text text-anchor="middle" x="443.5" y="-119.5" font-family="Helvetica,sans-Serif" font-size="10.00">Mda.h</text>
</a>
</g>
</g>
<!-- Node12&#45;&gt;Node13 -->
<g id="edge12" class="edge">
<title>Node12&#45;&gt;Node13</title>
<path fill="none" stroke="midnightblue" d="M352.85,-168.32C370.17,-159.66 397.02,-146.24 417,-136.25"/>
<polygon fill="midnightblue" stroke="midnightblue" points="418.81,-139.26 426.19,-131.65 415.68,-133 418.81,-139.26"/>
</g>
<!-- Node13&#45;&gt;Node8 -->
<g id="edge13" class="edge">
<title>Node13&#45;&gt;Node8</title>
<path fill="none" stroke="midnightblue" d="M421.32,-112.44C398.07,-103.48 361.35,-89.31 335.08,-79.18"/>
<polygon fill="midnightblue" stroke="midnightblue" points="336.17,-75.85 325.58,-75.52 333.65,-82.38 336.17,-75.85"/>
</g>
<!-- Node14 -->
<g id="node14" class="node">
<title>Node14</title>
<g id="a_node14"><a xlink:title=" ">
<polygon fill="white" stroke="#bfbfbf" points="415.5,-56.5 415.5,-75.5 471.5,-75.5 471.5,-56.5 415.5,-56.5"/>
<text text-anchor="middle" x="443.5" y="-63.5" font-family="Helvetica,sans-Serif" font-size="10.00">assert.h</text>
</a>
</g>
</g>
<!-- Node13&#45;&gt;Node14 -->
<g id="edge14" class="edge">
<title>Node13&#45;&gt;Node14</title>
<path fill="none" stroke="midnightblue" d="M443.5,-112.08C443.5,-105.01 443.5,-94.86 443.5,-85.99"/>
<polygon fill="midnightblue" stroke="midnightblue" points="447,-85.75 443.5,-75.75 440,-85.75 447,-85.75"/>
</g>
<!-- Node15&#45;&gt;Node6 -->
<g id="edge18" class="edge">
<title>Node15&#45;&gt;Node6</title>
<path fill="none" stroke="midnightblue" d="M437.56,-336.44C408.84,-327.32 363.17,-312.81 331.18,-302.65"/>
<polygon fill="midnightblue" stroke="midnightblue" points="331.9,-299.21 321.31,-299.52 329.78,-305.88 331.9,-299.21"/>
</g>
<!-- Node15&#45;&gt;Node13 -->
<g id="edge23" class="edge">
<title>Node15&#45;&gt;Node13</title>
<path fill="none" stroke="midnightblue" d="M463.68,-336.3C460.59,-303.63 449.64,-187.87 445.29,-141.96"/>
<polygon fill="midnightblue" stroke="midnightblue" points="448.77,-141.51 444.34,-131.88 441.8,-142.17 448.77,-141.51"/>
</g>
<!-- Node15&#45;&gt;Node16 -->
<g id="edge19" class="edge">
<title>Node15&#45;&gt;Node16</title>
<path fill="none" stroke="midnightblue" d="M460.26,-336.37C451.43,-318.38 430.9,-276.55 419.15,-252.63"/>
<polygon fill="midnightblue" stroke="midnightblue" points="422.27,-251.03 414.72,-243.59 415.98,-254.11 422.27,-251.03"/>
</g>
<!-- Node16&#45;&gt;Node8 -->
<g id="edge21" class="edge">
<title>Node16&#45;&gt;Node8</title>
<path fill="none" stroke="midnightblue" d="M405.77,-224.47C398.76,-211.94 385.08,-187.88 372.5,-168 353.38,-137.79 329.57,-103.64 315.51,-83.79"/>
<polygon fill="midnightblue" stroke="midnightblue" points="318.26,-81.63 309.61,-75.51 312.56,-85.69 318.26,-81.63"/>
</g>
<!-- Node16&#45;&gt;Node12 -->
<g id="edge22" class="edge">
<title>Node16&#45;&gt;Node12</title>
<path fill="none" stroke="midnightblue" d="M398.45,-224.32C387.04,-216.11 369.67,-203.6 356.07,-193.81"/>
<polygon fill="midnightblue" stroke="midnightblue" points="357.93,-190.84 347.77,-187.83 353.84,-196.52 357.93,-190.84"/>
</g>
<!-- Node16&#45;&gt;Node13 -->
<g id="edge20" class="edge">
<title>Node16&#45;&gt;Node13</title>
<path fill="none" stroke="midnightblue" d="M413.09,-224.37C418.44,-206.54 430.81,-165.3 438.02,-141.27"/>
<polygon fill="midnightblue" stroke="midnightblue" points="441.4,-142.18 440.92,-131.59 434.7,-140.16 441.4,-142.18"/>
</g>
<!-- Node18 -->
<g id="node18" class="node">
<title>Node18</title>
<g id="a_node18"><a xlink:href="_log_8h.html" target="_top" xlink:title="API for logging.">
<polygon fill="white" stroke="black" points="132,-280.5 132,-299.5 175,-299.5 175,-280.5 132,-280.5"/>
<text text-anchor="middle" x="153.5" y="-287.5" font-family="Helvetica,sans-Serif" font-size="10.00">Log.h</text>
</a>
</g>
</g>
<!-- Node17&#45;&gt;Node18 -->
<g id="edge25" class="edge">
<title>Node17&#45;&gt;Node18</title>
<path fill="none" stroke="midnightblue" d="M153.5,-336.08C153.5,-329.01 153.5,-318.86 153.5,-309.99"/>
<polygon fill="midnightblue" stroke="midnightblue" points="157,-309.75 153.5,-299.75 150,-309.75 157,-309.75"/>
</g>
<!-- Node18&#45;&gt;Node3 -->
<g id="edge26" class="edge">
<title>Node18&#45;&gt;Node3</title>
<path fill="none" stroke="midnightblue" d="M145.08,-280.08C137.65,-272.22 126.65,-260.57 117.69,-251.08"/>
<polygon fill="midnightblue" stroke="midnightblue" points="120.18,-248.62 110.76,-243.75 115.09,-253.42 120.18,-248.62"/>
</g>
<!-- Node18&#45;&gt;Node8 -->
<g id="edge27" class="edge">
<title>Node18&#45;&gt;Node8</title>
<path fill="none" stroke="midnightblue" d="M154.71,-280.17C158.93,-252.28 175.38,-164.81 221.5,-112 234.09,-97.58 252.47,-86.9 268.64,-79.57"/>
<polygon fill="midnightblue" stroke="midnightblue" points="270.02,-82.79 277.84,-75.64 267.27,-76.35 270.02,-82.79"/>
</g>
</g>
</svg>
