<?xml version="1.0" encoding="UTF-8" standalone="no"?>
<!DOCTYPE svg PUBLIC "-//W3C//DTD SVG 1.1//EN"
 "http://www.w3.org/Graphics/SVG/1.1/DTD/svg11.dtd">
<!-- Generated by graphviz version 2.43.0 (0)
 -->
<!-- Title: /home/jenkins/agent/workspace/ild&#45;documentation_release_v3.5.0/sdk/c/ifxRadarPresenceSensing Pages: 1 -->
<svg width="180pt" height="239pt"
 viewBox="0.00 0.00 180.00 239.00" xmlns="http://www.w3.org/2000/svg" xmlns:xlink="http://www.w3.org/1999/xlink">
<g id="graph0" class="graph" transform="scale(1 1) rotate(0) translate(4 235)">
<title>/home/jenkins/agent/workspace/ild&#45;documentation_release_v3.5.0/sdk/c/ifxRadarPresenceSensing</title>
<polygon fill="white" stroke="transparent" points="-4,4 -4,-235 176,-235 176,4 -4,4"/>
<g id="clust1" class="cluster">
<title>clusterdir_cb1b8b20a863d3b4f720b5073297472d</title>
<g id="a_clust1"><a xlink:href="dir_cb1b8b20a863d3b4f720b5073297472d.html" target="_top" xlink:title="c">
<polygon fill="#ddddee" stroke="black" points="8,-8 8,-223 164,-223 164,-8 8,-8"/>
<text text-anchor="middle" x="86" y="-211" font-family="Helvetica,sans-Serif" font-size="10.00">c</text>
</a>
</g>
</g>
<!-- dir_1346ff5bb9c7843a219db733dcd633fb -->
<g id="node1" class="node">
<title>dir_1346ff5bb9c7843a219db733dcd633fb</title>
<g id="a_node1"><a xlink:href="dir_1346ff5bb9c7843a219db733dcd633fb.html" target="_top" xlink:title="ifxAvian">
<polygon fill="none" stroke="black" points="93,-124 37,-124 37,-88 93,-88 93,-124"/>
<text text-anchor="middle" x="65" y="-103.5" font-family="Helvetica,sans-Serif" font-size="10.00">ifxAvian</text>
</a>
</g>
</g>
<!-- dir_567fd94d20573b82fae4b73e87e5ca9b -->
<g id="node2" class="node">
<title>dir_567fd94d20573b82fae4b73e87e5ca9b</title>
<g id="a_node2"><a xlink:href="dir_567fd94d20573b82fae4b73e87e5ca9b.html" target="_top" xlink:title="ifxBase">
<polygon fill="none" stroke="black" points="115,-52 61,-52 61,-16 115,-16 115,-52"/>
<text text-anchor="middle" x="88" y="-31.5" font-family="Helvetica,sans-Serif" font-size="10.00">ifxBase</text>
</a>
</g>
</g>
<!-- dir_1346ff5bb9c7843a219db733dcd633fb&#45;&gt;dir_567fd94d20573b82fae4b73e87e5ca9b -->
<g id="edge3" class="edge">
<title>dir_1346ff5bb9c7843a219db733dcd633fb&#45;&gt;dir_567fd94d20573b82fae4b73e87e5ca9b</title>
<path fill="none" stroke="black" d="M70.69,-87.7C73.25,-79.9 76.33,-70.51 79.18,-61.83"/>
<polygon fill="black" stroke="black" points="82.58,-62.7 82.38,-52.1 75.93,-60.51 82.58,-62.7"/>
<g id="a_edge3&#45;headlabel"><a xlink:href="dir_000006_000007.html" target="_top" xlink:title="3">
<text text-anchor="middle" x="84.16" y="-64.5" font-family="Helvetica,sans-Serif" font-size="10.00">3</text>
</a>
</g>
</g>
<!-- dir_2946b6fdb410a6c9ded9431103fcb66a -->
<g id="node3" class="node">
<title>dir_2946b6fdb410a6c9ded9431103fcb66a</title>
<g id="a_node3"><a xlink:href="dir_2946b6fdb410a6c9ded9431103fcb66a.html" target="_top" xlink:title="ifxRadarPresenceSensing">
<polygon fill="#eeeeff" stroke="black" points="156,-196 16,-196 16,-160 156,-160 156,-196"/>
<text text-anchor="middle" x="86" y="-175.5" font-family="Helvetica,sans-Serif" font-size="10.00">ifxRadarPresenceSensing</text>
</a>
</g>
</g>
<!-- dir_2946b6fdb410a6c9ded9431103fcb66a&#45;&gt;dir_1346ff5bb9c7843a219db733dcd633fb -->
<g id="edge1" class="edge">
<title>dir_2946b6fdb410a6c9ded9431103fcb66a&#45;&gt;dir_1346ff5bb9c7843a219db733dcd633fb</title>
<path fill="none" stroke="black" d="M80.81,-159.7C78.47,-151.9 75.65,-142.51 73.05,-133.83"/>
<polygon fill="black" stroke="black" points="76.36,-132.68 70.13,-124.1 69.65,-134.69 76.36,-132.68"/>
<g id="a_edge1&#45;headlabel"><a xlink:href="dir_000015_000006.html" target="_top" xlink:title="2">
<text text-anchor="middle" x="80.11" y="-132.8" font-family="Helvetica,sans-Serif" font-size="10.00">2</text>
</a>
</g>
</g>
<!-- dir_2946b6fdb410a6c9ded9431103fcb66a&#45;&gt;dir_567fd94d20573b82fae4b73e87e5ca9b -->
<g id="edge2" class="edge">
<title>dir_2946b6fdb410a6c9ded9431103fcb66a&#45;&gt;dir_567fd94d20573b82fae4b73e87e5ca9b</title>
<path fill="none" stroke="black" d="M92.65,-159.63C96.2,-149.42 100.2,-136.17 102,-124 104.34,-108.17 104.06,-103.87 102,-88 100.9,-79.51 98.84,-70.43 96.63,-62.24"/>
<polygon fill="black" stroke="black" points="99.95,-61.09 93.82,-52.44 93.22,-63.02 99.95,-61.09"/>
<g id="a_edge2&#45;headlabel"><a xlink:href="dir_000015_000007.html" target="_top" xlink:title="2">
<text text-anchor="middle" x="103.67" y="-61.26" font-family="Helvetica,sans-Serif" font-size="10.00">2</text>
</a>
</g>
</g>
</g>
</svg>
