<?xml version="1.0" encoding="UTF-8" standalone="no"?>
<!DOCTYPE svg PUBLIC "-//W3C//DTD SVG 1.1//EN"
 "http://www.w3.org/Graphics/SVG/1.1/DTD/svg11.dtd">
<!-- Generated by graphviz version 2.43.0 (0)
 -->
<!-- Title: /home/jenkins/agent/workspace/ild&#45;documentation_release_v3.5.0/sdk/c/ifxCw Pages: 1 -->
<svg width="140pt" height="311pt"
 viewBox="0.00 0.00 140.00 311.00" xmlns="http://www.w3.org/2000/svg" xmlns:xlink="http://www.w3.org/1999/xlink">
<g id="graph0" class="graph" transform="scale(1 1) rotate(0) translate(4 307)">
<title>/home/jenkins/agent/workspace/ild&#45;documentation_release_v3.5.0/sdk/c/ifxCw</title>
<polygon fill="white" stroke="transparent" points="-4,4 -4,-307 136,-307 136,4 -4,4"/>
<g id="clust1" class="cluster">
<title>clusterdir_cb1b8b20a863d3b4f720b5073297472d</title>
<g id="a_clust1"><a xlink:href="dir_cb1b8b20a863d3b4f720b5073297472d.html" target="_top" xlink:title="c">
<polygon fill="#ddddee" stroke="black" points="8,-8 8,-295 124,-295 124,-8 8,-8"/>
<text text-anchor="middle" x="66" y="-283" font-family="Helvetica,sans-Serif" font-size="10.00">c</text>
</a>
</g>
</g>
<!-- dir_1346ff5bb9c7843a219db733dcd633fb -->
<g id="node1" class="node">
<title>dir_1346ff5bb9c7843a219db733dcd633fb</title>
<g id="a_node1"><a xlink:href="dir_1346ff5bb9c7843a219db733dcd633fb.html" target="_top" xlink:title="ifxAvian">
<polygon fill="none" stroke="black" points="92,-196 36,-196 36,-160 92,-160 92,-196"/>
<text text-anchor="middle" x="64" y="-175.5" font-family="Helvetica,sans-Serif" font-size="10.00">ifxAvian</text>
</a>
</g>
</g>
<!-- dir_567fd94d20573b82fae4b73e87e5ca9b -->
<g id="node2" class="node">
<title>dir_567fd94d20573b82fae4b73e87e5ca9b</title>
<g id="a_node2"><a xlink:href="dir_567fd94d20573b82fae4b73e87e5ca9b.html" target="_top" xlink:title="ifxBase">
<polygon fill="none" stroke="black" points="70,-52 16,-52 16,-16 70,-16 70,-52"/>
<text text-anchor="middle" x="43" y="-31.5" font-family="Helvetica,sans-Serif" font-size="10.00">ifxBase</text>
</a>
</g>
</g>
<!-- dir_1346ff5bb9c7843a219db733dcd633fb&#45;&gt;dir_567fd94d20573b82fae4b73e87e5ca9b -->
<g id="edge1" class="edge">
<title>dir_1346ff5bb9c7843a219db733dcd633fb&#45;&gt;dir_567fd94d20573b82fae4b73e87e5ca9b</title>
<path fill="none" stroke="black" d="M57.6,-159.59C54.14,-149.37 50.14,-136.12 48,-124 44.39,-103.55 43.19,-80.1 42.87,-62.4"/>
<polygon fill="black" stroke="black" points="46.37,-62.16 42.77,-52.2 39.37,-62.24 46.37,-62.16"/>
<g id="a_edge1&#45;headlabel"><a xlink:href="dir_000006_000007.html" target="_top" xlink:title="3">
<text text-anchor="middle" x="49.24" y="-63.23" font-family="Helvetica,sans-Serif" font-size="10.00">3</text>
</a>
</g>
</g>
<!-- dir_a1a4028ebd46eb1c08c7120d66dddfdb -->
<g id="node3" class="node">
<title>dir_a1a4028ebd46eb1c08c7120d66dddfdb</title>
<g id="a_node3"><a xlink:href="dir_a1a4028ebd46eb1c08c7120d66dddfdb.html" target="_top" xlink:title="ifxFmcw">
<polygon fill="white" stroke="red" points="115.5,-124 56.5,-124 56.5,-88 115.5,-88 115.5,-124"/>
<text text-anchor="middle" x="86" y="-103.5" font-family="Helvetica,sans-Serif" font-size="10.00">ifxFmcw</text>
</a>
</g>
</g>
<!-- dir_1346ff5bb9c7843a219db733dcd633fb&#45;&gt;dir_a1a4028ebd46eb1c08c7120d66dddfdb -->
<g id="edge2" class="edge">
<title>dir_1346ff5bb9c7843a219db733dcd633fb&#45;&gt;dir_a1a4028ebd46eb1c08c7120d66dddfdb</title>
<path fill="none" stroke="black" d="M69.44,-159.7C71.89,-151.9 74.84,-142.51 77.57,-133.83"/>
<polygon fill="black" stroke="black" points="80.96,-134.69 80.62,-124.1 74.29,-132.59 80.96,-134.69"/>
<g id="a_edge2&#45;headlabel"><a xlink:href="dir_000006_000009.html" target="_top" xlink:title="3">
<text text-anchor="middle" x="82.6" y="-136.47" font-family="Helvetica,sans-Serif" font-size="10.00">3</text>
</a>
</g>
</g>
<!-- dir_a1a4028ebd46eb1c08c7120d66dddfdb&#45;&gt;dir_567fd94d20573b82fae4b73e87e5ca9b -->
<g id="edge6" class="edge">
<title>dir_a1a4028ebd46eb1c08c7120d66dddfdb&#45;&gt;dir_567fd94d20573b82fae4b73e87e5ca9b</title>
<path fill="none" stroke="black" d="M75.37,-87.7C70.37,-79.56 64.31,-69.69 58.79,-60.7"/>
<polygon fill="black" stroke="black" points="61.72,-58.79 53.51,-52.1 55.76,-62.46 61.72,-58.79"/>
<g id="a_edge6&#45;headlabel"><a xlink:href="dir_000009_000007.html" target="_top" xlink:title="6">
<text text-anchor="middle" x="66.02" y="-57.87" font-family="Helvetica,sans-Serif" font-size="10.00">6</text>
</a>
</g>
</g>
<!-- dir_f5349bc518afb18747dd3fc30abc484d -->
<g id="node4" class="node">
<title>dir_f5349bc518afb18747dd3fc30abc484d</title>
<g id="a_node4"><a xlink:href="dir_f5349bc518afb18747dd3fc30abc484d.html" target="_top" xlink:title="ifxCw">
<polygon fill="#eeeeff" stroke="black" points="91,-268 37,-268 37,-232 91,-232 91,-268"/>
<text text-anchor="middle" x="64" y="-247.5" font-family="Helvetica,sans-Serif" font-size="10.00">ifxCw</text>
</a>
</g>
</g>
<!-- dir_f5349bc518afb18747dd3fc30abc484d&#45;&gt;dir_1346ff5bb9c7843a219db733dcd633fb -->
<g id="edge3" class="edge">
<title>dir_f5349bc518afb18747dd3fc30abc484d&#45;&gt;dir_1346ff5bb9c7843a219db733dcd633fb</title>
<path fill="none" stroke="black" d="M64,-231.7C64,-223.98 64,-214.71 64,-206.11"/>
<polygon fill="black" stroke="black" points="67.5,-206.1 64,-196.1 60.5,-206.1 67.5,-206.1"/>
<g id="a_edge3&#45;headlabel"><a xlink:href="dir_000008_000006.html" target="_top" xlink:title="1">
<text text-anchor="middle" x="70.34" y="-207.2" font-family="Helvetica,sans-Serif" font-size="10.00">1</text>
</a>
</g>
</g>
<!-- dir_f5349bc518afb18747dd3fc30abc484d&#45;&gt;dir_567fd94d20573b82fae4b73e87e5ca9b -->
<g id="edge4" class="edge">
<title>dir_f5349bc518afb18747dd3fc30abc484d&#45;&gt;dir_567fd94d20573b82fae4b73e87e5ca9b</title>
<path fill="none" stroke="black" d="M47.96,-231.85C39.99,-222.12 31.17,-209.27 27,-196 12.7,-150.54 24.38,-94.63 33.89,-62.09"/>
<polygon fill="black" stroke="black" points="37.28,-62.97 36.86,-52.38 30.58,-60.92 37.28,-62.97"/>
<g id="a_edge4&#45;headlabel"><a xlink:href="dir_000008_000007.html" target="_top" xlink:title="1">
<text text-anchor="middle" x="38.94" y="-64.74" font-family="Helvetica,sans-Serif" font-size="10.00">1</text>
</a>
</g>
</g>
<!-- dir_f5349bc518afb18747dd3fc30abc484d&#45;&gt;dir_a1a4028ebd46eb1c08c7120d66dddfdb -->
<g id="edge5" class="edge">
<title>dir_f5349bc518afb18747dd3fc30abc484d&#45;&gt;dir_a1a4028ebd46eb1c08c7120d66dddfdb</title>
<path fill="none" stroke="black" d="M80.04,-231.85C88.01,-222.12 96.83,-209.27 101,-196 107.44,-175.54 102.7,-151.51 96.9,-133.58"/>
<polygon fill="black" stroke="black" points="100.17,-132.32 93.53,-124.06 93.57,-134.65 100.17,-132.32"/>
<g id="a_edge5&#45;headlabel"><a xlink:href="dir_000008_000009.html" target="_top" xlink:title="1">
<text text-anchor="middle" x="104.04" y="-132.26" font-family="Helvetica,sans-Serif" font-size="10.00">1</text>
</a>
</g>
</g>
</g>
</svg>
