<?xml version="1.0" encoding="UTF-8" standalone="no"?>
<!DOCTYPE svg PUBLIC "-//W3C//DTD SVG 1.1//EN"
 "http://www.w3.org/Graphics/SVG/1.1/DTD/svg11.dtd">
<!-- Generated by graphviz version 2.43.0 (0)
 -->
<!-- Title: /home/jenkins/agent/workspace/ild&#45;documentation_release_v3.5.0/sdk/c/ifxAvian Pages: 1 -->
<svg width="216pt" height="311pt"
 viewBox="0.00 0.00 216.00 311.00" xmlns="http://www.w3.org/2000/svg" xmlns:xlink="http://www.w3.org/1999/xlink">
<g id="graph0" class="graph" transform="scale(1 1) rotate(0) translate(4 307)">
<title>/home/jenkins/agent/workspace/ild&#45;documentation_release_v3.5.0/sdk/c/ifxAvian</title>
<polygon fill="white" stroke="transparent" points="-4,4 -4,-307 212,-307 212,4 -4,4"/>
<g id="clust1" class="cluster">
<title>clusterdir_cb1b8b20a863d3b4f720b5073297472d</title>
<g id="a_clust1"><a xlink:href="dir_cb1b8b20a863d3b4f720b5073297472d.html" target="_top" xlink:title="c">
<polygon fill="#ddddee" stroke="black" points="8,-8 8,-295 200,-295 200,-8 8,-8"/>
<text text-anchor="middle" x="104" y="-283" font-family="Helvetica,sans-Serif" font-size="10.00">c</text>
</a>
</g>
</g>
<!-- dir_567fd94d20573b82fae4b73e87e5ca9b -->
<g id="node1" class="node">
<title>dir_567fd94d20573b82fae4b73e87e5ca9b</title>
<g id="a_node1"><a xlink:href="dir_567fd94d20573b82fae4b73e87e5ca9b.html" target="_top" xlink:title="ifxBase">
<polygon fill="none" stroke="black" points="70,-52 16,-52 16,-16 70,-16 70,-52"/>
<text text-anchor="middle" x="43" y="-31.5" font-family="Helvetica,sans-Serif" font-size="10.00">ifxBase</text>
</a>
</g>
</g>
<!-- dir_a1a4028ebd46eb1c08c7120d66dddfdb -->
<g id="node2" class="node">
<title>dir_a1a4028ebd46eb1c08c7120d66dddfdb</title>
<g id="a_node2"><a xlink:href="dir_a1a4028ebd46eb1c08c7120d66dddfdb.html" target="_top" xlink:title="ifxFmcw">
<polygon fill="white" stroke="red" points="99.5,-196 40.5,-196 40.5,-160 99.5,-160 99.5,-196"/>
<text text-anchor="middle" x="70" y="-175.5" font-family="Helvetica,sans-Serif" font-size="10.00">ifxFmcw</text>
</a>
</g>
</g>
<!-- dir_a1a4028ebd46eb1c08c7120d66dddfdb&#45;&gt;dir_567fd94d20573b82fae4b73e87e5ca9b -->
<g id="edge5" class="edge">
<title>dir_a1a4028ebd46eb1c08c7120d66dddfdb&#45;&gt;dir_567fd94d20573b82fae4b73e87e5ca9b</title>
<path fill="none" stroke="black" d="M60.67,-159.88C55.64,-149.76 49.89,-136.51 47,-124 42.33,-103.78 41.45,-80.31 41.68,-62.55"/>
<polygon fill="black" stroke="black" points="45.18,-62.4 41.94,-52.31 38.19,-62.22 45.18,-62.4"/>
<g id="a_edge5&#45;headlabel"><a xlink:href="dir_000009_000007.html" target="_top" xlink:title="6">
<text text-anchor="middle" x="47.93" y="-63.56" font-family="Helvetica,sans-Serif" font-size="10.00">6</text>
</a>
</g>
</g>
<!-- dir_c4ebba6b7f8869d2f5ecfd530fb1e966 -->
<g id="node3" class="node">
<title>dir_c4ebba6b7f8869d2f5ecfd530fb1e966</title>
<g id="a_node3"><a xlink:href="dir_c4ebba6b7f8869d2f5ecfd530fb1e966.html" target="_top" xlink:title="ifxRadarDeviceCommon">
<polygon fill="none" stroke="black" points="192,-124 56,-124 56,-88 192,-88 192,-124"/>
<text text-anchor="middle" x="124" y="-103.5" font-family="Helvetica,sans-Serif" font-size="10.00">ifxRadarDeviceCommon</text>
</a>
</g>
</g>
<!-- dir_a1a4028ebd46eb1c08c7120d66dddfdb&#45;&gt;dir_c4ebba6b7f8869d2f5ecfd530fb1e966 -->
<g id="edge6" class="edge">
<title>dir_a1a4028ebd46eb1c08c7120d66dddfdb&#45;&gt;dir_c4ebba6b7f8869d2f5ecfd530fb1e966</title>
<path fill="none" stroke="black" d="M83.35,-159.7C89.76,-151.39 97.56,-141.28 104.61,-132.14"/>
<polygon fill="black" stroke="black" points="107.47,-134.16 110.81,-124.1 101.93,-129.88 107.47,-134.16"/>
<g id="a_edge6&#45;headlabel"><a xlink:href="dir_000009_000014.html" target="_top" xlink:title="1">
<text text-anchor="middle" x="107.52" y="-136.24" font-family="Helvetica,sans-Serif" font-size="10.00">1</text>
</a>
</g>
</g>
<!-- dir_c4ebba6b7f8869d2f5ecfd530fb1e966&#45;&gt;dir_567fd94d20573b82fae4b73e87e5ca9b -->
<g id="edge4" class="edge">
<title>dir_c4ebba6b7f8869d2f5ecfd530fb1e966&#45;&gt;dir_567fd94d20573b82fae4b73e87e5ca9b</title>
<path fill="none" stroke="black" d="M103.98,-87.7C93.87,-78.97 81.46,-68.24 70.48,-58.75"/>
<polygon fill="black" stroke="black" points="72.65,-55.99 62.79,-52.1 68.07,-61.29 72.65,-55.99"/>
<g id="a_edge4&#45;headlabel"><a xlink:href="dir_000014_000007.html" target="_top" xlink:title="1">
<text text-anchor="middle" x="77.22" y="-53.7" font-family="Helvetica,sans-Serif" font-size="10.00">1</text>
</a>
</g>
</g>
<!-- dir_1346ff5bb9c7843a219db733dcd633fb -->
<g id="node4" class="node">
<title>dir_1346ff5bb9c7843a219db733dcd633fb</title>
<g id="a_node4"><a xlink:href="dir_1346ff5bb9c7843a219db733dcd633fb.html" target="_top" xlink:title="ifxAvian">
<polygon fill="#eeeeff" stroke="black" points="98,-268 42,-268 42,-232 98,-232 98,-268"/>
<text text-anchor="middle" x="70" y="-247.5" font-family="Helvetica,sans-Serif" font-size="10.00">ifxAvian</text>
</a>
</g>
</g>
<!-- dir_1346ff5bb9c7843a219db733dcd633fb&#45;&gt;dir_567fd94d20573b82fae4b73e87e5ca9b -->
<g id="edge1" class="edge">
<title>dir_1346ff5bb9c7843a219db733dcd633fb&#45;&gt;dir_567fd94d20573b82fae4b73e87e5ca9b</title>
<path fill="none" stroke="black" d="M53.11,-231.99C44.71,-222.31 35.42,-209.46 31,-196 16.17,-150.82 26.26,-94.82 34.76,-62.18"/>
<polygon fill="black" stroke="black" points="38.16,-63.02 37.43,-52.45 31.41,-61.16 38.16,-63.02"/>
<g id="a_edge1&#45;headlabel"><a xlink:href="dir_000006_000007.html" target="_top" xlink:title="3">
<text text-anchor="middle" x="39.95" y="-64.73" font-family="Helvetica,sans-Serif" font-size="10.00">3</text>
</a>
</g>
</g>
<!-- dir_1346ff5bb9c7843a219db733dcd633fb&#45;&gt;dir_a1a4028ebd46eb1c08c7120d66dddfdb -->
<g id="edge2" class="edge">
<title>dir_1346ff5bb9c7843a219db733dcd633fb&#45;&gt;dir_a1a4028ebd46eb1c08c7120d66dddfdb</title>
<path fill="none" stroke="black" d="M70,-231.7C70,-223.98 70,-214.71 70,-206.11"/>
<polygon fill="black" stroke="black" points="73.5,-206.1 70,-196.1 66.5,-206.1 73.5,-206.1"/>
<g id="a_edge2&#45;headlabel"><a xlink:href="dir_000006_000009.html" target="_top" xlink:title="3">
<text text-anchor="middle" x="76.34" y="-207.2" font-family="Helvetica,sans-Serif" font-size="10.00">3</text>
</a>
</g>
</g>
<!-- dir_1346ff5bb9c7843a219db733dcd633fb&#45;&gt;dir_c4ebba6b7f8869d2f5ecfd530fb1e966 -->
<g id="edge3" class="edge">
<title>dir_1346ff5bb9c7843a219db733dcd633fb&#45;&gt;dir_c4ebba6b7f8869d2f5ecfd530fb1e966</title>
<path fill="none" stroke="black" d="M86.01,-231.66C94.15,-221.89 103.47,-209.04 109,-196 117.34,-176.31 121.05,-152.33 122.7,-134.22"/>
<polygon fill="black" stroke="black" points="126.2,-134.29 123.46,-124.05 119.22,-133.76 126.2,-134.29"/>
<g id="a_edge3&#45;headlabel"><a xlink:href="dir_000006_000014.html" target="_top" xlink:title="1">
<text text-anchor="middle" x="128.76" y="-135.59" font-family="Helvetica,sans-Serif" font-size="10.00">1</text>
</a>
</g>
</g>
</g>
</svg>
