<?xml version="1.0" encoding="UTF-8" standalone="no"?>
<!DOCTYPE svg PUBLIC "-//W3C//DTD SVG 1.1//EN"
 "http://www.w3.org/Graphics/SVG/1.1/DTD/svg11.dtd">
<!-- Generated by graphviz version 2.43.0 (0)
 -->
<!-- Title: /home/jenkins/agent/workspace/ild&#45;documentation_release_v3.5.0/sdk/c/ifxFmcw Pages: 1 -->
<svg width="196pt" height="247pt"
 viewBox="0.00 0.00 196.00 247.00" xmlns="http://www.w3.org/2000/svg" xmlns:xlink="http://www.w3.org/1999/xlink">
<g id="graph0" class="graph" transform="scale(1 1) rotate(0) translate(4 243)">
<title>/home/jenkins/agent/workspace/ild&#45;documentation_release_v3.5.0/sdk/c/ifxFmcw</title>
<polygon fill="white" stroke="transparent" points="-4,4 -4,-243 192,-243 192,4 -4,4"/>
<g id="clust1" class="cluster">
<title>clusterdir_cb1b8b20a863d3b4f720b5073297472d</title>
<g id="a_clust1"><a xlink:href="dir_cb1b8b20a863d3b4f720b5073297472d.html" target="_top" xlink:title="c">
<polygon fill="#ddddee" stroke="black" points="8,-8 8,-231 180,-231 180,-8 8,-8"/>
<text text-anchor="middle" x="94" y="-219" font-family="Helvetica,sans-Serif" font-size="10.00">c</text>
</a>
</g>
</g>
<g id="clust2" class="cluster">
<title>clusterdir_a1a4028ebd46eb1c08c7120d66dddfdb</title>
<g id="a_clust2"><a xlink:href="dir_a1a4028ebd46eb1c08c7120d66dddfdb.html" target="_top">
<polygon fill="#eeeeff" stroke="black" points="16,-152 16,-204 164,-204 164,-152 16,-152"/>
</a>
</g>
</g>
<!-- dir_567fd94d20573b82fae4b73e87e5ca9b -->
<g id="node1" class="node">
<title>dir_567fd94d20573b82fae4b73e87e5ca9b</title>
<g id="a_node1"><a xlink:href="dir_567fd94d20573b82fae4b73e87e5ca9b.html" target="_top" xlink:title="ifxBase">
<polygon fill="none" stroke="black" points="100,-52 46,-52 46,-16 100,-16 100,-52"/>
<text text-anchor="middle" x="73" y="-31.5" font-family="Helvetica,sans-Serif" font-size="10.00">ifxBase</text>
</a>
</g>
</g>
<!-- dir_c4ebba6b7f8869d2f5ecfd530fb1e966 -->
<g id="node2" class="node">
<title>dir_c4ebba6b7f8869d2f5ecfd530fb1e966</title>
<g id="a_node2"><a xlink:href="dir_c4ebba6b7f8869d2f5ecfd530fb1e966.html" target="_top" xlink:title="ifxRadarDeviceCommon">
<polygon fill="none" stroke="black" points="172,-124 36,-124 36,-88 172,-88 172,-124"/>
<text text-anchor="middle" x="104" y="-103.5" font-family="Helvetica,sans-Serif" font-size="10.00">ifxRadarDeviceCommon</text>
</a>
</g>
</g>
<!-- dir_c4ebba6b7f8869d2f5ecfd530fb1e966&#45;&gt;dir_567fd94d20573b82fae4b73e87e5ca9b -->
<g id="edge1" class="edge">
<title>dir_c4ebba6b7f8869d2f5ecfd530fb1e966&#45;&gt;dir_567fd94d20573b82fae4b73e87e5ca9b</title>
<path fill="none" stroke="black" d="M96.34,-87.7C92.81,-79.73 88.54,-70.1 84.63,-61.26"/>
<polygon fill="black" stroke="black" points="87.82,-59.83 80.57,-52.1 81.42,-62.67 87.82,-59.83"/>
<g id="a_edge1&#45;headlabel"><a xlink:href="dir_000014_000007.html" target="_top" xlink:title="1">
<text text-anchor="middle" x="91.88" y="-59.47" font-family="Helvetica,sans-Serif" font-size="10.00">1</text>
</a>
</g>
</g>
<!-- dir_a1a4028ebd46eb1c08c7120d66dddfdb -->
<g id="node3" class="node">
<title>dir_a1a4028ebd46eb1c08c7120d66dddfdb</title>
<text text-anchor="middle" x="126" y="-175.5" font-family="Helvetica,sans-Serif" font-size="10.00">ifxFmcw</text>
</g>
<!-- dir_a1a4028ebd46eb1c08c7120d66dddfdb&#45;&gt;dir_567fd94d20573b82fae4b73e87e5ca9b -->
<g id="edge2" class="edge">
<title>dir_a1a4028ebd46eb1c08c7120d66dddfdb&#45;&gt;dir_567fd94d20573b82fae4b73e87e5ca9b</title>
<path fill="none" stroke="black" d="M100.28,-159.83C95.91,-157.11 91.37,-154.41 87,-152 61.22,-137.81 42.81,-148.82 27,-124 13.67,-103.08 29.47,-77.84 46.08,-59.59"/>
<polygon fill="black" stroke="black" points="48.75,-61.87 53.17,-52.24 43.71,-57.01 48.75,-61.87"/>
<g id="a_edge2&#45;headlabel"><a xlink:href="dir_000009_000007.html" target="_top" xlink:title="6">
<text text-anchor="middle" x="48.31" y="-63.93" font-family="Helvetica,sans-Serif" font-size="10.00">6</text>
</a>
</g>
</g>
<!-- dir_a1a4028ebd46eb1c08c7120d66dddfdb&#45;&gt;dir_c4ebba6b7f8869d2f5ecfd530fb1e966 -->
<g id="edge3" class="edge">
<title>dir_a1a4028ebd46eb1c08c7120d66dddfdb&#45;&gt;dir_c4ebba6b7f8869d2f5ecfd530fb1e966</title>
<path fill="none" stroke="black" d="M120.56,-159.7C118.11,-151.9 115.16,-142.51 112.43,-133.83"/>
<polygon fill="black" stroke="black" points="115.71,-132.59 109.38,-124.1 109.04,-134.69 115.71,-132.59"/>
<g id="a_edge3&#45;headlabel"><a xlink:href="dir_000009_000014.html" target="_top" xlink:title="1">
<text text-anchor="middle" x="119.5" y="-132.67" font-family="Helvetica,sans-Serif" font-size="10.00">1</text>
</a>
</g>
</g>
<!-- dir_a11e18e37e065933f59d6fed6b7a0ba7 -->
<g id="node4" class="node">
<title>dir_a11e18e37e065933f59d6fed6b7a0ba7</title>
<g id="a_node4"><a xlink:href="dir_a11e18e37e065933f59d6fed6b7a0ba7.html" target="_top" xlink:title="avian">
<polygon fill="white" stroke="black" points="78,-196 24,-196 24,-160 78,-160 78,-196"/>
<text text-anchor="middle" x="51" y="-175.5" font-family="Helvetica,sans-Serif" font-size="10.00">avian</text>
</a>
</g>
</g>
</g>
</svg>
