<?xml version="1.0" encoding="UTF-8" standalone="no"?>
<!DOCTYPE svg PUBLIC "-//W3C//DTD SVG 1.1//EN"
 "http://www.w3.org/Graphics/SVG/1.1/DTD/svg11.dtd">
<!-- Generated by graphviz version 2.43.0 (0)
 -->
<!-- Title: /home/jenkins/agent/workspace/ild&#45;documentation_release_v3.5.0/sdk/c/ifxLtr11 Pages: 1 -->
<svg width="196pt" height="239pt"
 viewBox="0.00 0.00 196.00 239.00" xmlns="http://www.w3.org/2000/svg" xmlns:xlink="http://www.w3.org/1999/xlink">
<g id="graph0" class="graph" transform="scale(1 1) rotate(0) translate(4 235)">
<title>/home/jenkins/agent/workspace/ild&#45;documentation_release_v3.5.0/sdk/c/ifxLtr11</title>
<polygon fill="white" stroke="transparent" points="-4,4 -4,-235 192,-235 192,4 -4,4"/>
<g id="clust1" class="cluster">
<title>clusterdir_cb1b8b20a863d3b4f720b5073297472d</title>
<g id="a_clust1"><a xlink:href="dir_cb1b8b20a863d3b4f720b5073297472d.html" target="_top" xlink:title="c">
<polygon fill="#ddddee" stroke="black" points="8,-8 8,-223 180,-223 180,-8 8,-8"/>
<text text-anchor="middle" x="94" y="-211" font-family="Helvetica,sans-Serif" font-size="10.00">c</text>
</a>
</g>
</g>
<!-- dir_567fd94d20573b82fae4b73e87e5ca9b -->
<g id="node1" class="node">
<title>dir_567fd94d20573b82fae4b73e87e5ca9b</title>
<g id="a_node1"><a xlink:href="dir_567fd94d20573b82fae4b73e87e5ca9b.html" target="_top" xlink:title="ifxBase">
<polygon fill="none" stroke="black" points="100,-52 46,-52 46,-16 100,-16 100,-52"/>
<text text-anchor="middle" x="73" y="-31.5" font-family="Helvetica,sans-Serif" font-size="10.00">ifxBase</text>
</a>
</g>
</g>
<!-- dir_c4ebba6b7f8869d2f5ecfd530fb1e966 -->
<g id="node2" class="node">
<title>dir_c4ebba6b7f8869d2f5ecfd530fb1e966</title>
<g id="a_node2"><a xlink:href="dir_c4ebba6b7f8869d2f5ecfd530fb1e966.html" target="_top" xlink:title="ifxRadarDeviceCommon">
<polygon fill="none" stroke="black" points="172,-124 36,-124 36,-88 172,-88 172,-124"/>
<text text-anchor="middle" x="104" y="-103.5" font-family="Helvetica,sans-Serif" font-size="10.00">ifxRadarDeviceCommon</text>
</a>
</g>
</g>
<!-- dir_c4ebba6b7f8869d2f5ecfd530fb1e966&#45;&gt;dir_567fd94d20573b82fae4b73e87e5ca9b -->
<g id="edge3" class="edge">
<title>dir_c4ebba6b7f8869d2f5ecfd530fb1e966&#45;&gt;dir_567fd94d20573b82fae4b73e87e5ca9b</title>
<path fill="none" stroke="black" d="M96.34,-87.7C92.81,-79.73 88.54,-70.1 84.63,-61.26"/>
<polygon fill="black" stroke="black" points="87.82,-59.83 80.57,-52.1 81.42,-62.67 87.82,-59.83"/>
<g id="a_edge3&#45;headlabel"><a xlink:href="dir_000014_000007.html" target="_top" xlink:title="1">
<text text-anchor="middle" x="91.88" y="-59.47" font-family="Helvetica,sans-Serif" font-size="10.00">1</text>
</a>
</g>
</g>
<!-- dir_76b86b11bf29005c7d83eb3c36ae4545 -->
<g id="node3" class="node">
<title>dir_76b86b11bf29005c7d83eb3c36ae4545</title>
<g id="a_node3"><a xlink:href="dir_76b86b11bf29005c7d83eb3c36ae4545.html" target="_top" xlink:title="ifxLtr11">
<polygon fill="#eeeeff" stroke="black" points="100,-196 46,-196 46,-160 100,-160 100,-196"/>
<text text-anchor="middle" x="73" y="-175.5" font-family="Helvetica,sans-Serif" font-size="10.00">ifxLtr11</text>
</a>
</g>
</g>
<!-- dir_76b86b11bf29005c7d83eb3c36ae4545&#45;&gt;dir_567fd94d20573b82fae4b73e87e5ca9b -->
<g id="edge1" class="edge">
<title>dir_76b86b11bf29005c7d83eb3c36ae4545&#45;&gt;dir_567fd94d20573b82fae4b73e87e5ca9b</title>
<path fill="none" stroke="black" d="M52.18,-159.62C42.54,-150.2 32.11,-137.7 27,-124 21.4,-109.01 21.4,-102.99 27,-88 30.88,-77.62 37.8,-67.93 45.12,-59.74"/>
<polygon fill="black" stroke="black" points="47.78,-62.03 52.18,-52.38 42.73,-57.18 47.78,-62.03"/>
<g id="a_edge1&#45;headlabel"><a xlink:href="dir_000011_000007.html" target="_top" xlink:title="5">
<text text-anchor="middle" x="47.35" y="-64.09" font-family="Helvetica,sans-Serif" font-size="10.00">5</text>
</a>
</g>
</g>
<!-- dir_76b86b11bf29005c7d83eb3c36ae4545&#45;&gt;dir_c4ebba6b7f8869d2f5ecfd530fb1e966 -->
<g id="edge2" class="edge">
<title>dir_76b86b11bf29005c7d83eb3c36ae4545&#45;&gt;dir_c4ebba6b7f8869d2f5ecfd530fb1e966</title>
<path fill="none" stroke="black" d="M80.66,-159.7C84.19,-151.73 88.46,-142.1 92.37,-133.26"/>
<polygon fill="black" stroke="black" points="95.58,-134.67 96.43,-124.1 89.18,-131.83 95.58,-134.67"/>
<g id="a_edge2&#45;headlabel"><a xlink:href="dir_000011_000014.html" target="_top" xlink:title="1">
<text text-anchor="middle" x="96.72" y="-136.6" font-family="Helvetica,sans-Serif" font-size="10.00">1</text>
</a>
</g>
</g>
</g>
</svg>
