<?xml version="1.0" encoding="UTF-8" standalone="no"?>
<!DOCTYPE svg PUBLIC "-//W3C//DTD SVG 1.1//EN"
 "http://www.w3.org/Graphics/SVG/1.1/DTD/svg11.dtd">
<!-- Generated by graphviz version 2.43.0 (0)
 -->
<!-- Title: /home/jenkins/agent/workspace/ild&#45;documentation_release_v3.5.0/sdk/c Pages: 1 -->
<svg width="662pt" height="399pt"
 viewBox="0.00 0.00 662.00 399.00" xmlns="http://www.w3.org/2000/svg" xmlns:xlink="http://www.w3.org/1999/xlink">
<g id="graph0" class="graph" transform="scale(1 1) rotate(0) translate(4 395)">
<title>/home/jenkins/agent/workspace/ild&#45;documentation_release_v3.5.0/sdk/c</title>
<polygon fill="white" stroke="transparent" points="-4,4 -4,-395 658,-395 658,4 -4,4"/>
<g id="clust1" class="cluster">
<title>clusterdir_243a4ba6b4f893d71afbb5a3e90552fa</title>
<g id="a_clust1"><a xlink:href="dir_243a4ba6b4f893d71afbb5a3e90552fa.html" target="_top" xlink:title="sdk">
<polygon fill="#ddddee" stroke="black" points="8,-8 8,-383 646,-383 646,-8 8,-8"/>
<text text-anchor="middle" x="327" y="-371" font-family="Helvetica,sans-Serif" font-size="10.00">sdk</text>
</a>
</g>
</g>
<g id="clust2" class="cluster">
<title>clusterdir_cb1b8b20a863d3b4f720b5073297472d</title>
<g id="a_clust2"><a xlink:href="dir_cb1b8b20a863d3b4f720b5073297472d.html" target="_top">
<polygon fill="#eeeeff" stroke="black" points="16,-16 16,-356 638,-356 638,-16 16,-16"/>
</a>
</g>
</g>
<!-- dir_cb1b8b20a863d3b4f720b5073297472d -->
<g id="node1" class="node">
<title>dir_cb1b8b20a863d3b4f720b5073297472d</title>
<text text-anchor="middle" x="569" y="-327.5" font-family="Helvetica,sans-Serif" font-size="10.00">c</text>
</g>
<!-- dir_f3c50492aca301091183f2e22e50c2c8 -->
<g id="node2" class="node">
<title>dir_f3c50492aca301091183f2e22e50c2c8</title>
<g id="a_node2"><a xlink:href="dir_f3c50492aca301091183f2e22e50c2c8.html" target="_top" xlink:title="ifxAdvancedMotionSensing">
<polygon fill="white" stroke="black" points="630.5,-132 481.5,-132 481.5,-96 630.5,-96 630.5,-132"/>
<text text-anchor="middle" x="556" y="-111.5" font-family="Helvetica,sans-Serif" font-size="10.00">ifxAdvancedMotionSensing</text>
</a>
</g>
</g>
<!-- dir_567fd94d20573b82fae4b73e87e5ca9b -->
<g id="node5" class="node">
<title>dir_567fd94d20573b82fae4b73e87e5ca9b</title>
<g id="a_node5"><a xlink:href="dir_567fd94d20573b82fae4b73e87e5ca9b.html" target="_top" xlink:title="ifxBase">
<polygon fill="white" stroke="black" points="266,-60 212,-60 212,-24 266,-24 266,-60"/>
<text text-anchor="middle" x="239" y="-39.5" font-family="Helvetica,sans-Serif" font-size="10.00">ifxBase</text>
</a>
</g>
</g>
<!-- dir_f3c50492aca301091183f2e22e50c2c8&#45;&gt;dir_567fd94d20573b82fae4b73e87e5ca9b -->
<g id="edge4" class="edge">
<title>dir_f3c50492aca301091183f2e22e50c2c8&#45;&gt;dir_567fd94d20573b82fae4b73e87e5ca9b</title>
<path fill="none" stroke="black" d="M481.28,-96.5C416.85,-82.27 326.51,-62.32 276.33,-51.24"/>
<polygon fill="black" stroke="black" points="276.78,-47.76 266.26,-49.02 275.27,-54.59 276.78,-47.76"/>
<g id="a_edge4&#45;headlabel"><a xlink:href="dir_000004_000007.html" target="_top" xlink:title="2">
<text text-anchor="middle" x="280.9" y="-43.26" font-family="Helvetica,sans-Serif" font-size="10.00">2</text>
</a>
</g>
</g>
<!-- dir_4697e86ad33e45c91248444b464b6119 -->
<g id="node3" class="node">
<title>dir_4697e86ad33e45c91248444b464b6119</title>
<g id="a_node3"><a xlink:href="dir_4697e86ad33e45c91248444b464b6119.html" target="_top" xlink:title="ifxAlgo">
<polygon fill="white" stroke="black" points="210,-132 156,-132 156,-96 210,-96 210,-132"/>
<text text-anchor="middle" x="183" y="-111.5" font-family="Helvetica,sans-Serif" font-size="10.00">ifxAlgo</text>
</a>
</g>
</g>
<!-- dir_4697e86ad33e45c91248444b464b6119&#45;&gt;dir_567fd94d20573b82fae4b73e87e5ca9b -->
<g id="edge3" class="edge">
<title>dir_4697e86ad33e45c91248444b464b6119&#45;&gt;dir_567fd94d20573b82fae4b73e87e5ca9b</title>
<path fill="none" stroke="black" d="M196.84,-95.7C203.49,-87.39 211.58,-77.28 218.89,-68.14"/>
<polygon fill="black" stroke="black" points="221.8,-70.1 225.32,-60.1 216.34,-65.73 221.8,-70.1"/>
<g id="a_edge3&#45;headlabel"><a xlink:href="dir_000005_000007.html" target="_top" xlink:title="16">
<text text-anchor="middle" x="221.77" y="-72.18" font-family="Helvetica,sans-Serif" font-size="10.00">16</text>
</a>
</g>
</g>
<!-- dir_1346ff5bb9c7843a219db733dcd633fb -->
<g id="node4" class="node">
<title>dir_1346ff5bb9c7843a219db733dcd633fb</title>
<g id="a_node4"><a xlink:href="dir_1346ff5bb9c7843a219db733dcd633fb.html" target="_top" xlink:title="ifxAvian">
<polygon fill="white" stroke="black" points="364,-276 308,-276 308,-240 364,-240 364,-276"/>
<text text-anchor="middle" x="336" y="-255.5" font-family="Helvetica,sans-Serif" font-size="10.00">ifxAvian</text>
</a>
</g>
</g>
<!-- dir_1346ff5bb9c7843a219db733dcd633fb&#45;&gt;dir_567fd94d20573b82fae4b73e87e5ca9b -->
<g id="edge9" class="edge">
<title>dir_1346ff5bb9c7843a219db733dcd633fb&#45;&gt;dir_567fd94d20573b82fae4b73e87e5ca9b</title>
<path fill="none" stroke="black" d="M307.9,-248.35C287.21,-240.38 260.44,-226.34 247,-204 222.13,-162.67 227.12,-104.02 233.04,-70.1"/>
<polygon fill="black" stroke="black" points="236.53,-70.49 234.96,-60.01 229.65,-69.18 236.53,-70.49"/>
<g id="a_edge9&#45;headlabel"><a xlink:href="dir_000006_000007.html" target="_top" xlink:title="3">
<text text-anchor="middle" x="238.65" y="-72.05" font-family="Helvetica,sans-Serif" font-size="10.00">3</text>
</a>
</g>
</g>
<!-- dir_a1a4028ebd46eb1c08c7120d66dddfdb -->
<g id="node7" class="node">
<title>dir_a1a4028ebd46eb1c08c7120d66dddfdb</title>
<g id="a_node7"><a xlink:href="dir_a1a4028ebd46eb1c08c7120d66dddfdb.html" target="_top" xlink:title="ifxFmcw">
<polygon fill="white" stroke="red" points="417.5,-204 358.5,-204 358.5,-168 417.5,-168 417.5,-204"/>
<text text-anchor="middle" x="388" y="-183.5" font-family="Helvetica,sans-Serif" font-size="10.00">ifxFmcw</text>
</a>
</g>
</g>
<!-- dir_1346ff5bb9c7843a219db733dcd633fb&#45;&gt;dir_a1a4028ebd46eb1c08c7120d66dddfdb -->
<g id="edge10" class="edge">
<title>dir_1346ff5bb9c7843a219db733dcd633fb&#45;&gt;dir_a1a4028ebd46eb1c08c7120d66dddfdb</title>
<path fill="none" stroke="black" d="M348.85,-239.7C355.03,-231.39 362.54,-221.28 369.32,-212.14"/>
<polygon fill="black" stroke="black" points="372.14,-214.22 375.29,-204.1 366.52,-210.04 372.14,-214.22"/>
<g id="a_edge10&#45;headlabel"><a xlink:href="dir_000006_000009.html" target="_top" xlink:title="3">
<text text-anchor="middle" x="372.28" y="-216.3" font-family="Helvetica,sans-Serif" font-size="10.00">3</text>
</a>
</g>
</g>
<!-- dir_c4ebba6b7f8869d2f5ecfd530fb1e966 -->
<g id="node11" class="node">
<title>dir_c4ebba6b7f8869d2f5ecfd530fb1e966</title>
<g id="a_node11"><a xlink:href="dir_c4ebba6b7f8869d2f5ecfd530fb1e966.html" target="_top" xlink:title="ifxRadarDeviceCommon">
<polygon fill="white" stroke="black" points="404,-132 268,-132 268,-96 404,-96 404,-132"/>
<text text-anchor="middle" x="336" y="-111.5" font-family="Helvetica,sans-Serif" font-size="10.00">ifxRadarDeviceCommon</text>
</a>
</g>
</g>
<!-- dir_1346ff5bb9c7843a219db733dcd633fb&#45;&gt;dir_c4ebba6b7f8869d2f5ecfd530fb1e966 -->
<g id="edge11" class="edge">
<title>dir_1346ff5bb9c7843a219db733dcd633fb&#45;&gt;dir_c4ebba6b7f8869d2f5ecfd530fb1e966</title>
<path fill="none" stroke="black" d="M336,-239.87C336,-215.67 336,-171.21 336,-142.39"/>
<polygon fill="black" stroke="black" points="339.5,-142.19 336,-132.19 332.5,-142.19 339.5,-142.19"/>
<g id="a_edge11&#45;headlabel"><a xlink:href="dir_000006_000014.html" target="_top" xlink:title="1">
<text text-anchor="middle" x="342.34" y="-143.28" font-family="Helvetica,sans-Serif" font-size="10.00">1</text>
</a>
</g>
</g>
<!-- dir_f5349bc518afb18747dd3fc30abc484d -->
<g id="node6" class="node">
<title>dir_f5349bc518afb18747dd3fc30abc484d</title>
<g id="a_node6"><a xlink:href="dir_f5349bc518afb18747dd3fc30abc484d.html" target="_top" xlink:title="ifxCw">
<polygon fill="white" stroke="black" points="490,-348 436,-348 436,-312 490,-312 490,-348"/>
<text text-anchor="middle" x="463" y="-327.5" font-family="Helvetica,sans-Serif" font-size="10.00">ifxCw</text>
</a>
</g>
</g>
<!-- dir_f5349bc518afb18747dd3fc30abc484d&#45;&gt;dir_1346ff5bb9c7843a219db733dcd633fb -->
<g id="edge13" class="edge">
<title>dir_f5349bc518afb18747dd3fc30abc484d&#45;&gt;dir_1346ff5bb9c7843a219db733dcd633fb</title>
<path fill="none" stroke="black" d="M435.76,-313.98C417.43,-303.88 393.04,-290.44 372.96,-279.37"/>
<polygon fill="black" stroke="black" points="374.53,-276.24 364.08,-274.48 371.15,-282.37 374.53,-276.24"/>
<g id="a_edge13&#45;headlabel"><a xlink:href="dir_000008_000006.html" target="_top" xlink:title="1">
<text text-anchor="middle" x="379.04" y="-272.99" font-family="Helvetica,sans-Serif" font-size="10.00">1</text>
</a>
</g>
</g>
<!-- dir_f5349bc518afb18747dd3fc30abc484d&#45;&gt;dir_567fd94d20573b82fae4b73e87e5ca9b -->
<g id="edge14" class="edge">
<title>dir_f5349bc518afb18747dd3fc30abc484d&#45;&gt;dir_567fd94d20573b82fae4b73e87e5ca9b</title>
<path fill="none" stroke="black" d="M466.64,-311.84C474.56,-269.47 488.51,-158.8 434,-96 413.45,-72.33 326.58,-55.88 275.99,-48.11"/>
<polygon fill="black" stroke="black" points="276.49,-44.64 266.08,-46.62 275.45,-51.56 276.49,-44.64"/>
<g id="a_edge14&#45;headlabel"><a xlink:href="dir_000008_000007.html" target="_top" xlink:title="1">
<text text-anchor="middle" x="280.47" y="-39.87" font-family="Helvetica,sans-Serif" font-size="10.00">1</text>
</a>
</g>
</g>
<!-- dir_f5349bc518afb18747dd3fc30abc484d&#45;&gt;dir_a1a4028ebd46eb1c08c7120d66dddfdb -->
<g id="edge15" class="edge">
<title>dir_f5349bc518afb18747dd3fc30abc484d&#45;&gt;dir_a1a4028ebd46eb1c08c7120d66dddfdb</title>
<path fill="none" stroke="black" d="M453.95,-311.87C441,-287.35 417.07,-242.03 401.87,-213.26"/>
<polygon fill="black" stroke="black" points="404.84,-211.4 397.08,-204.19 398.65,-214.67 404.84,-211.4"/>
<g id="a_edge15&#45;headlabel"><a xlink:href="dir_000008_000009.html" target="_top" xlink:title="1">
<text text-anchor="middle" x="409.03" y="-210.75" font-family="Helvetica,sans-Serif" font-size="10.00">1</text>
</a>
</g>
</g>
<!-- dir_a1a4028ebd46eb1c08c7120d66dddfdb&#45;&gt;dir_567fd94d20573b82fae4b73e87e5ca9b -->
<g id="edge17" class="edge">
<title>dir_a1a4028ebd46eb1c08c7120d66dddfdb&#45;&gt;dir_567fd94d20573b82fae4b73e87e5ca9b</title>
<path fill="none" stroke="black" d="M400.98,-167.67C413.64,-148.47 428.86,-117.41 413,-96 381.7,-53.75 317.51,-44.04 276.45,-42.41"/>
<polygon fill="black" stroke="black" points="276.38,-38.91 266.29,-42.16 276.2,-45.91 276.38,-38.91"/>
<g id="a_edge17&#45;headlabel"><a xlink:href="dir_000009_000007.html" target="_top" xlink:title="6">
<text text-anchor="middle" x="280.04" y="-33.66" font-family="Helvetica,sans-Serif" font-size="10.00">6</text>
</a>
</g>
</g>
<!-- dir_a1a4028ebd46eb1c08c7120d66dddfdb&#45;&gt;dir_c4ebba6b7f8869d2f5ecfd530fb1e966 -->
<g id="edge18" class="edge">
<title>dir_a1a4028ebd46eb1c08c7120d66dddfdb&#45;&gt;dir_c4ebba6b7f8869d2f5ecfd530fb1e966</title>
<path fill="none" stroke="black" d="M375.15,-167.7C368.97,-159.39 361.46,-149.28 354.68,-140.14"/>
<polygon fill="black" stroke="black" points="357.48,-138.04 348.71,-132.1 351.86,-142.22 357.48,-138.04"/>
<g id="a_edge18&#45;headlabel"><a xlink:href="dir_000009_000014.html" target="_top" xlink:title="1">
<text text-anchor="middle" x="361.9" y="-136.74" font-family="Helvetica,sans-Serif" font-size="10.00">1</text>
</a>
</g>
</g>
<!-- dir_76b86b11bf29005c7d83eb3c36ae4545 -->
<g id="node8" class="node">
<title>dir_76b86b11bf29005c7d83eb3c36ae4545</title>
<g id="a_node8"><a xlink:href="dir_76b86b11bf29005c7d83eb3c36ae4545.html" target="_top" xlink:title="ifxLtr11">
<polygon fill="white" stroke="black" points="310,-204 256,-204 256,-168 310,-168 310,-204"/>
<text text-anchor="middle" x="283" y="-183.5" font-family="Helvetica,sans-Serif" font-size="10.00">ifxLtr11</text>
</a>
</g>
</g>
<!-- dir_76b86b11bf29005c7d83eb3c36ae4545&#45;&gt;dir_567fd94d20573b82fae4b73e87e5ca9b -->
<g id="edge5" class="edge">
<title>dir_76b86b11bf29005c7d83eb3c36ae4545&#45;&gt;dir_567fd94d20573b82fae4b73e87e5ca9b</title>
<path fill="none" stroke="black" d="M274.08,-167.69C269.11,-157.51 263.11,-144.26 259,-132 252.18,-111.63 246.97,-87.87 243.58,-70.02"/>
<polygon fill="black" stroke="black" points="247,-69.22 241.76,-60.01 240.11,-70.48 247,-69.22"/>
<g id="a_edge5&#45;headlabel"><a xlink:href="dir_000011_000007.html" target="_top" xlink:title="5">
<text text-anchor="middle" x="250.43" y="-69.75" font-family="Helvetica,sans-Serif" font-size="10.00">5</text>
</a>
</g>
</g>
<!-- dir_76b86b11bf29005c7d83eb3c36ae4545&#45;&gt;dir_c4ebba6b7f8869d2f5ecfd530fb1e966 -->
<g id="edge6" class="edge">
<title>dir_76b86b11bf29005c7d83eb3c36ae4545&#45;&gt;dir_c4ebba6b7f8869d2f5ecfd530fb1e966</title>
<path fill="none" stroke="black" d="M296.1,-167.7C302.39,-159.39 310.05,-149.28 316.96,-140.14"/>
<polygon fill="black" stroke="black" points="319.8,-142.19 323.05,-132.1 314.22,-137.96 319.8,-142.19"/>
<g id="a_edge6&#45;headlabel"><a xlink:href="dir_000011_000014.html" target="_top" xlink:title="1">
<text text-anchor="middle" x="319.9" y="-144.27" font-family="Helvetica,sans-Serif" font-size="10.00">1</text>
</a>
</g>
</g>
<!-- dir_b52bee1fca023028b1ddc7682ae2149b -->
<g id="node9" class="node">
<title>dir_b52bee1fca023028b1ddc7682ae2149b</title>
<g id="a_node9"><a xlink:href="dir_b52bee1fca023028b1ddc7682ae2149b.html" target="_top" xlink:title="ifxMotionAngle">
<polygon fill="white" stroke="black" points="417.5,-348 326.5,-348 326.5,-312 417.5,-312 417.5,-348"/>
<text text-anchor="middle" x="372" y="-327.5" font-family="Helvetica,sans-Serif" font-size="10.00">ifxMotionAngle</text>
</a>
</g>
</g>
<!-- dir_b52bee1fca023028b1ddc7682ae2149b&#45;&gt;dir_1346ff5bb9c7843a219db733dcd633fb -->
<g id="edge1" class="edge">
<title>dir_b52bee1fca023028b1ddc7682ae2149b&#45;&gt;dir_1346ff5bb9c7843a219db733dcd633fb</title>
<path fill="none" stroke="black" d="M363.1,-311.7C359,-303.73 354.05,-294.1 349.51,-285.26"/>
<polygon fill="black" stroke="black" points="352.48,-283.4 344.8,-276.1 346.26,-286.6 352.48,-283.4"/>
<g id="a_edge1&#45;headlabel"><a xlink:href="dir_000012_000006.html" target="_top" xlink:title="1">
<text text-anchor="middle" x="356.65" y="-282.79" font-family="Helvetica,sans-Serif" font-size="10.00">1</text>
</a>
</g>
</g>
<!-- dir_b52bee1fca023028b1ddc7682ae2149b&#45;&gt;dir_567fd94d20573b82fae4b73e87e5ca9b -->
<g id="edge2" class="edge">
<title>dir_b52bee1fca023028b1ddc7682ae2149b&#45;&gt;dir_567fd94d20573b82fae4b73e87e5ca9b</title>
<path fill="none" stroke="black" d="M384.05,-311.84C411.87,-269.95 474.24,-161.13 421,-96 386.05,-53.25 318.74,-43.77 276.49,-42.31"/>
<polygon fill="black" stroke="black" points="276.4,-38.81 266.33,-42.1 276.25,-45.81 276.4,-38.81"/>
<g id="a_edge2&#45;headlabel"><a xlink:href="dir_000012_000007.html" target="_top" xlink:title="2">
<text text-anchor="middle" x="280.05" y="-33.55" font-family="Helvetica,sans-Serif" font-size="10.00">2</text>
</a>
</g>
</g>
<!-- dir_dab4b19e452ad33ce9758a674c7abd78 -->
<g id="node10" class="node">
<title>dir_dab4b19e452ad33ce9758a674c7abd78</title>
<g id="a_node10"><a xlink:href="dir_dab4b19e452ad33ce9758a674c7abd78.html" target="_top" xlink:title="ifxRadar">
<polygon fill="white" stroke="black" points="202,-204 144,-204 144,-168 202,-168 202,-204"/>
<text text-anchor="middle" x="173" y="-183.5" font-family="Helvetica,sans-Serif" font-size="10.00">ifxRadar</text>
</a>
</g>
</g>
<!-- dir_dab4b19e452ad33ce9758a674c7abd78&#45;&gt;dir_4697e86ad33e45c91248444b464b6119 -->
<g id="edge21" class="edge">
<title>dir_dab4b19e452ad33ce9758a674c7abd78&#45;&gt;dir_4697e86ad33e45c91248444b464b6119</title>
<path fill="none" stroke="black" d="M175.47,-167.7C176.57,-159.98 177.9,-150.71 179.13,-142.11"/>
<polygon fill="black" stroke="black" points="182.61,-142.5 180.56,-132.1 175.68,-141.51 182.61,-142.5"/>
<g id="a_edge21&#45;headlabel"><a xlink:href="dir_000013_000005.html" target="_top" xlink:title="5">
<text text-anchor="middle" x="184.91" y="-143.96" font-family="Helvetica,sans-Serif" font-size="10.00">5</text>
</a>
</g>
</g>
<!-- dir_dab4b19e452ad33ce9758a674c7abd78&#45;&gt;dir_567fd94d20573b82fae4b73e87e5ca9b -->
<g id="edge22" class="edge">
<title>dir_dab4b19e452ad33ce9758a674c7abd78&#45;&gt;dir_567fd94d20573b82fae4b73e87e5ca9b</title>
<path fill="none" stroke="black" d="M160.44,-167.97C148.35,-149.32 133.71,-119 147,-96 158.89,-75.43 182.13,-62.14 202.28,-54.01"/>
<polygon fill="black" stroke="black" points="203.72,-57.21 211.86,-50.42 201.27,-50.65 203.72,-57.21"/>
<g id="a_edge22&#45;headlabel"><a xlink:href="dir_000013_000007.html" target="_top" xlink:title="20">
<text text-anchor="middle" x="201.35" y="-58.62" font-family="Helvetica,sans-Serif" font-size="10.00">20</text>
</a>
</g>
</g>
<!-- dir_c4ebba6b7f8869d2f5ecfd530fb1e966&#45;&gt;dir_567fd94d20573b82fae4b73e87e5ca9b -->
<g id="edge12" class="edge">
<title>dir_c4ebba6b7f8869d2f5ecfd530fb1e966&#45;&gt;dir_567fd94d20573b82fae4b73e87e5ca9b</title>
<path fill="none" stroke="black" d="M312.02,-95.7C299.69,-86.8 284.48,-75.82 271.15,-66.2"/>
<polygon fill="black" stroke="black" points="272.86,-63.12 262.7,-60.1 268.76,-68.79 272.86,-63.12"/>
<g id="a_edge12&#45;headlabel"><a xlink:href="dir_000014_000007.html" target="_top" xlink:title="1">
<text text-anchor="middle" x="277.44" y="-60.42" font-family="Helvetica,sans-Serif" font-size="10.00">1</text>
</a>
</g>
</g>
<!-- dir_2946b6fdb410a6c9ded9431103fcb66a -->
<g id="node12" class="node">
<title>dir_2946b6fdb410a6c9ded9431103fcb66a</title>
<g id="a_node12"><a xlink:href="dir_2946b6fdb410a6c9ded9431103fcb66a.html" target="_top" xlink:title="ifxRadarPresenceSensing">
<polygon fill="white" stroke="black" points="308,-348 168,-348 168,-312 308,-312 308,-348"/>
<text text-anchor="middle" x="238" y="-327.5" font-family="Helvetica,sans-Serif" font-size="10.00">ifxRadarPresenceSensing</text>
</a>
</g>
</g>
<!-- dir_2946b6fdb410a6c9ded9431103fcb66a&#45;&gt;dir_1346ff5bb9c7843a219db733dcd633fb -->
<g id="edge7" class="edge">
<title>dir_2946b6fdb410a6c9ded9431103fcb66a&#45;&gt;dir_1346ff5bb9c7843a219db733dcd633fb</title>
<path fill="none" stroke="black" d="M261.97,-311.88C274.55,-302.89 290.13,-291.76 303.75,-282.03"/>
<polygon fill="black" stroke="black" points="305.83,-284.85 311.93,-276.19 301.76,-279.15 305.83,-284.85"/>
<g id="a_edge7&#45;headlabel"><a xlink:href="dir_000015_000006.html" target="_top" xlink:title="2">
<text text-anchor="middle" x="304.56" y="-286.75" font-family="Helvetica,sans-Serif" font-size="10.00">2</text>
</a>
</g>
</g>
<!-- dir_2946b6fdb410a6c9ded9431103fcb66a&#45;&gt;dir_567fd94d20573b82fae4b73e87e5ca9b -->
<g id="edge8" class="edge">
<title>dir_2946b6fdb410a6c9ded9431103fcb66a&#45;&gt;dir_567fd94d20573b82fae4b73e87e5ca9b</title>
<path fill="none" stroke="black" d="M216.85,-311.78C191.74,-289.83 151.24,-249.26 135,-204 128.95,-187.14 128,-110.36 137,-96 151.31,-73.17 178.89,-59.68 201.78,-52.02"/>
<polygon fill="black" stroke="black" points="203.04,-55.3 211.57,-49 200.98,-48.61 203.04,-55.3"/>
<g id="a_edge8&#45;headlabel"><a xlink:href="dir_000015_000007.html" target="_top" xlink:title="2">
<text text-anchor="middle" x="200.45" y="-56.57" font-family="Helvetica,sans-Serif" font-size="10.00">2</text>
</a>
</g>
</g>
<!-- dir_029b6408fc75c8aa18949ca0afd8f1c3 -->
<g id="node13" class="node">
<title>dir_029b6408fc75c8aa18949ca0afd8f1c3</title>
<g id="a_node13"><a xlink:href="dir_029b6408fc75c8aa18949ca0afd8f1c3.html" target="_top" xlink:title="ifxRadarSegmentation">
<polygon fill="white" stroke="black" points="150,-348 24,-348 24,-312 150,-312 150,-348"/>
<text text-anchor="middle" x="87" y="-327.5" font-family="Helvetica,sans-Serif" font-size="10.00">ifxRadarSegmentation</text>
</a>
</g>
</g>
<!-- dir_029b6408fc75c8aa18949ca0afd8f1c3&#45;&gt;dir_1346ff5bb9c7843a219db733dcd633fb -->
<g id="edge19" class="edge">
<title>dir_029b6408fc75c8aa18949ca0afd8f1c3&#45;&gt;dir_1346ff5bb9c7843a219db733dcd633fb</title>
<path fill="none" stroke="black" d="M147.59,-311.97C194.57,-298.76 258.21,-280.87 298.18,-269.63"/>
<polygon fill="black" stroke="black" points="299.13,-273 307.81,-266.93 297.23,-266.26 299.13,-273"/>
<g id="a_edge19&#45;headlabel"><a xlink:href="dir_000016_000006.html" target="_top" xlink:title="1">
<text text-anchor="middle" x="296.43" y="-274.21" font-family="Helvetica,sans-Serif" font-size="10.00">1</text>
</a>
</g>
</g>
<!-- dir_029b6408fc75c8aa18949ca0afd8f1c3&#45;&gt;dir_567fd94d20573b82fae4b73e87e5ca9b -->
<g id="edge20" class="edge">
<title>dir_029b6408fc75c8aa18949ca0afd8f1c3&#45;&gt;dir_567fd94d20573b82fae4b73e87e5ca9b</title>
<path fill="none" stroke="black" d="M84.85,-311.7C80.64,-269.97 75.68,-162.33 126,-96 144.38,-71.77 176.58,-58.18 201.92,-50.84"/>
<polygon fill="black" stroke="black" points="202.84,-54.21 211.59,-48.24 201.03,-47.45 202.84,-54.21"/>
<g id="a_edge20&#45;headlabel"><a xlink:href="dir_000016_000007.html" target="_top" xlink:title="5">
<text text-anchor="middle" x="200.11" y="-55.39" font-family="Helvetica,sans-Serif" font-size="10.00">5</text>
</a>
</g>
</g>
<!-- dir_3e15448443e7fb09bbd22f63da6e466f -->
<g id="node14" class="node">
<title>dir_3e15448443e7fb09bbd22f63da6e466f</title>
<g id="a_node14"><a xlink:href="dir_3e15448443e7fb09bbd22f63da6e466f.html" target="_top" xlink:title="ifxUtil">
<polygon fill="white" stroke="black" points="78,-132 24,-132 24,-96 78,-96 78,-132"/>
<text text-anchor="middle" x="51" y="-111.5" font-family="Helvetica,sans-Serif" font-size="10.00">ifxUtil</text>
</a>
</g>
</g>
<!-- dir_3e15448443e7fb09bbd22f63da6e466f&#45;&gt;dir_567fd94d20573b82fae4b73e87e5ca9b -->
<g id="edge16" class="edge">
<title>dir_3e15448443e7fb09bbd22f63da6e466f&#45;&gt;dir_567fd94d20573b82fae4b73e87e5ca9b</title>
<path fill="none" stroke="black" d="M78.28,-101.48C82.84,-99.61 87.55,-97.73 92,-96 129.27,-81.56 172.34,-66.19 202.18,-55.74"/>
<polygon fill="black" stroke="black" points="203.48,-58.99 211.76,-52.39 201.17,-52.38 203.48,-58.99"/>
<g id="a_edge16&#45;headlabel"><a xlink:href="dir_000017_000007.html" target="_top" xlink:title="6">
<text text-anchor="middle" x="201.02" y="-60.36" font-family="Helvetica,sans-Serif" font-size="10.00">6</text>
</a>
</g>
</g>
</g>
</svg>
