<?xml version="1.0" encoding="UTF-8" standalone="no"?>
<!DOCTYPE svg PUBLIC "-//W3C//DTD SVG 1.1//EN"
 "http://www.w3.org/Graphics/SVG/1.1/DTD/svg11.dtd">
<!-- Generated by graphviz version 2.43.0 (0)
 -->
<!-- Title: /home/jenkins/agent/workspace/ild&#45;documentation_release_v3.5.0/sdk/c/ifxMotionAngle Pages: 1 -->
<svg width="132pt" height="239pt"
 viewBox="0.00 0.00 132.00 239.00" xmlns="http://www.w3.org/2000/svg" xmlns:xlink="http://www.w3.org/1999/xlink">
<g id="graph0" class="graph" transform="scale(1 1) rotate(0) translate(4 235)">
<title>/home/jenkins/agent/workspace/ild&#45;documentation_release_v3.5.0/sdk/c/ifxMotionAngle</title>
<polygon fill="white" stroke="transparent" points="-4,4 -4,-235 128,-235 128,4 -4,4"/>
<g id="clust1" class="cluster">
<title>clusterdir_cb1b8b20a863d3b4f720b5073297472d</title>
<g id="a_clust1"><a xlink:href="dir_cb1b8b20a863d3b4f720b5073297472d.html" target="_top" xlink:title="c">
<polygon fill="#ddddee" stroke="black" points="8,-8 8,-223 116,-223 116,-8 8,-8"/>
<text text-anchor="middle" x="62" y="-211" font-family="Helvetica,sans-Serif" font-size="10.00">c</text>
</a>
</g>
</g>
<!-- dir_1346ff5bb9c7843a219db733dcd633fb -->
<g id="node1" class="node">
<title>dir_1346ff5bb9c7843a219db733dcd633fb</title>
<g id="a_node1"><a xlink:href="dir_1346ff5bb9c7843a219db733dcd633fb.html" target="_top" xlink:title="ifxAvian">
<polygon fill="none" stroke="black" points="80,-124 24,-124 24,-88 80,-88 80,-124"/>
<text text-anchor="middle" x="52" y="-103.5" font-family="Helvetica,sans-Serif" font-size="10.00">ifxAvian</text>
</a>
</g>
</g>
<!-- dir_567fd94d20573b82fae4b73e87e5ca9b -->
<g id="node2" class="node">
<title>dir_567fd94d20573b82fae4b73e87e5ca9b</title>
<g id="a_node2"><a xlink:href="dir_567fd94d20573b82fae4b73e87e5ca9b.html" target="_top" xlink:title="ifxBase">
<polygon fill="none" stroke="black" points="93,-52 39,-52 39,-16 93,-16 93,-52"/>
<text text-anchor="middle" x="66" y="-31.5" font-family="Helvetica,sans-Serif" font-size="10.00">ifxBase</text>
</a>
</g>
</g>
<!-- dir_1346ff5bb9c7843a219db733dcd633fb&#45;&gt;dir_567fd94d20573b82fae4b73e87e5ca9b -->
<g id="edge3" class="edge">
<title>dir_1346ff5bb9c7843a219db733dcd633fb&#45;&gt;dir_567fd94d20573b82fae4b73e87e5ca9b</title>
<path fill="none" stroke="black" d="M55.46,-87.7C57,-79.98 58.86,-70.71 60.58,-62.11"/>
<polygon fill="black" stroke="black" points="64.05,-62.6 62.58,-52.1 57.19,-61.22 64.05,-62.6"/>
<g id="a_edge3&#45;headlabel"><a xlink:href="dir_000006_000007.html" target="_top" xlink:title="3">
<text text-anchor="middle" x="66.13" y="-64.18" font-family="Helvetica,sans-Serif" font-size="10.00">3</text>
</a>
</g>
</g>
<!-- dir_b52bee1fca023028b1ddc7682ae2149b -->
<g id="node3" class="node">
<title>dir_b52bee1fca023028b1ddc7682ae2149b</title>
<g id="a_node3"><a xlink:href="dir_b52bee1fca023028b1ddc7682ae2149b.html" target="_top" xlink:title="ifxMotionAngle">
<polygon fill="#eeeeff" stroke="black" points="107.5,-196 16.5,-196 16.5,-160 107.5,-160 107.5,-196"/>
<text text-anchor="middle" x="62" y="-175.5" font-family="Helvetica,sans-Serif" font-size="10.00">ifxMotionAngle</text>
</a>
</g>
</g>
<!-- dir_b52bee1fca023028b1ddc7682ae2149b&#45;&gt;dir_1346ff5bb9c7843a219db733dcd633fb -->
<g id="edge1" class="edge">
<title>dir_b52bee1fca023028b1ddc7682ae2149b&#45;&gt;dir_1346ff5bb9c7843a219db733dcd633fb</title>
<path fill="none" stroke="black" d="M59.53,-159.7C58.43,-151.98 57.1,-142.71 55.87,-134.11"/>
<polygon fill="black" stroke="black" points="59.32,-133.51 54.44,-124.1 52.39,-134.5 59.32,-133.51"/>
<g id="a_edge1&#45;headlabel"><a xlink:href="dir_000012_000006.html" target="_top" xlink:title="1">
<text text-anchor="middle" x="62.64" y="-134.17" font-family="Helvetica,sans-Serif" font-size="10.00">1</text>
</a>
</g>
</g>
<!-- dir_b52bee1fca023028b1ddc7682ae2149b&#45;&gt;dir_567fd94d20573b82fae4b73e87e5ca9b -->
<g id="edge2" class="edge">
<title>dir_b52bee1fca023028b1ddc7682ae2149b&#45;&gt;dir_567fd94d20573b82fae4b73e87e5ca9b</title>
<path fill="none" stroke="black" d="M73.47,-159.67C79.37,-149.69 85.96,-136.65 89,-124 92.73,-108.44 92.25,-103.67 89,-88 87.12,-78.96 83.63,-69.58 79.91,-61.26"/>
<polygon fill="black" stroke="black" points="83,-59.6 75.54,-52.07 76.68,-62.61 83,-59.6"/>
<g id="a_edge2&#45;headlabel"><a xlink:href="dir_000012_000007.html" target="_top" xlink:title="2">
<text text-anchor="middle" x="87.11" y="-59.12" font-family="Helvetica,sans-Serif" font-size="10.00">2</text>
</a>
</g>
</g>
</g>
</svg>
