<?xml version="1.0" encoding="UTF-8" standalone="no"?>
<!DOCTYPE svg PUBLIC "-//W3C//DTD SVG 1.1//EN"
 "http://www.w3.org/Graphics/SVG/1.1/DTD/svg11.dtd">
<!-- Generated by graphviz version 2.43.0 (0)
 -->
<!-- Title: Base (ifxBase) Pages: 1 -->
<svg width="271pt" height="471pt"
 viewBox="0.00 0.00 271.00 471.00" xmlns="http://www.w3.org/2000/svg" xmlns:xlink="http://www.w3.org/1999/xlink">
<g id="graph0" class="graph" transform="scale(1 1) rotate(0) translate(4 467)">
<title>Base (ifxBase)</title>
<polygon fill="white" stroke="transparent" points="-4,4 -4,-467 267,-467 267,4 -4,4"/>
<!-- Node3 -->
<g id="node1" class="node">
<title>Node3</title>
<g id="a_node1"><a xlink:href="group__gr__cube.html" target="_top" xlink:title="API for operations on Cube data structures.">
<polygon fill="white" stroke="black" points="214,-463 173,-463 173,-444 214,-444 214,-463"/>
<text text-anchor="middle" x="193.5" y="-451" font-family="Helvetica,sans-Serif" font-size="10.00">Cube</text>
</a>
</g>
</g>
<!-- Node14 -->
<g id="node2" class="node">
<title>Node14</title>
<g id="a_node2"><a xlink:href="group__gr__sdk__version.html" target="_top" xlink:title="SDK version query.">
<polygon fill="white" stroke="black" points="220,-426 167,-426 167,-407 220,-407 220,-426"/>
<text text-anchor="middle" x="193.5" y="-414" font-family="Helvetica,sans-Serif" font-size="10.00">Version</text>
</a>
</g>
</g>
<!-- Node2 -->
<g id="node3" class="node">
<title>Node2</title>
<g id="a_node3"><a xlink:href="group__gr__complex.html" target="_top" xlink:title="API for operations on complex numbers.">
<polygon fill="white" stroke="black" points="223.5,-389 163.5,-389 163.5,-370 223.5,-370 223.5,-389"/>
<text text-anchor="middle" x="193.5" y="-377" font-family="Helvetica,sans-Serif" font-size="10.00">Complex</text>
</a>
</g>
</g>
<!-- Node12 -->
<g id="node4" class="node">
<title>Node12</title>
<g id="a_node4"><a xlink:href="group__gr__types.html" target="_top" xlink:title="Definitions of data types used within the SDK.">
<polygon fill="white" stroke="black" points="215.5,-352 171.5,-352 171.5,-333 215.5,-333 215.5,-352"/>
<text text-anchor="middle" x="193.5" y="-340" font-family="Helvetica,sans-Serif" font-size="10.00">Types</text>
</a>
</g>
</g>
<!-- Node7 -->
<g id="node5" class="node">
<title>Node7</title>
<g id="a_node5"><a xlink:href="group__gr__log.html" target="_top" xlink:title="API for logging.">
<polygon fill="white" stroke="black" points="210.5,-315 176.5,-315 176.5,-296 210.5,-296 210.5,-315"/>
<text text-anchor="middle" x="193.5" y="-303" font-family="Helvetica,sans-Serif" font-size="10.00">Log</text>
</a>
</g>
</g>
<!-- Node9 -->
<g id="node6" class="node">
<title>Node9</title>
<g id="a_node6"><a xlink:href="group__gr__matrix.html" target="_top" xlink:title="API for operations on Matrix data structures.">
<polygon fill="white" stroke="black" points="217.5,-278 169.5,-278 169.5,-259 217.5,-259 217.5,-278"/>
<text text-anchor="middle" x="193.5" y="-266" font-family="Helvetica,sans-Serif" font-size="10.00">Matrix</text>
</a>
</g>
</g>
<!-- Node10 -->
<g id="node7" class="node">
<title>Node10</title>
<g id="a_node7"><a xlink:href="group__gr__mda.html" target="_top" xlink:title="API for multi&#45;dimensional arrays.">
<polygon fill="white" stroke="black" points="263,-241 124,-241 124,-222 263,-222 263,-241"/>
<text text-anchor="middle" x="193.5" y="-229" font-family="Helvetica,sans-Serif" font-size="10.00">Multi&#45;dimensional arrays</text>
</a>
</g>
</g>
<!-- Node11 -->
<g id="node8" class="node">
<title>Node11</title>
<g id="a_node8"><a xlink:href="group__gr__mem.html" target="_top" xlink:title="API for memory management.">
<polygon fill="white" stroke="black" points="222,-204 165,-204 165,-185 222,-185 222,-204"/>
<text text-anchor="middle" x="193.5" y="-192" font-family="Helvetica,sans-Serif" font-size="10.00">Memory</text>
</a>
</g>
</g>
<!-- Node4 -->
<g id="node9" class="node">
<title>Node4</title>
<g id="a_node9"><a xlink:href="group__gr__error.html" target="_top" xlink:title="API for error handling.">
<polygon fill="white" stroke="black" points="213.5,-167 173.5,-167 173.5,-148 213.5,-148 213.5,-167"/>
<text text-anchor="middle" x="193.5" y="-155" font-family="Helvetica,sans-Serif" font-size="10.00">Error</text>
</a>
</g>
</g>
<!-- Node1 -->
<g id="node10" class="node">
<title>Node1</title>
<g id="a_node10"><a xlink:title=" ">
<polygon fill="#bfbfbf" stroke="black" points="88,-241 0,-241 0,-222 88,-222 88,-241"/>
<text text-anchor="middle" x="44" y="-229" font-family="Helvetica,sans-Serif" font-size="10.00">Base (ifxBase)</text>
</a>
</g>
</g>
<!-- Node1&#45;&gt;Node3 -->
<g id="edge2" class="edge">
<title>Node1&#45;&gt;Node3</title>
<path fill="none" stroke="black" d="M46.8,-251.37C51.58,-292.17 68.34,-385.77 124,-435.5 137.39,-447.46 157.79,-451.63 172.84,-453.01"/>
<polygon fill="black" stroke="black" points="50.27,-250.92 45.74,-241.34 43.31,-251.65 50.27,-250.92"/>
</g>
<!-- Node1&#45;&gt;Node14 -->
<g id="edge13" class="edge">
<title>Node1&#45;&gt;Node14</title>
<path fill="none" stroke="black" d="M48.65,-251.1C56.22,-286.13 77.02,-359.49 124,-398.5 135.92,-408.4 152.7,-412.91 166.67,-414.95"/>
<polygon fill="black" stroke="black" points="52.05,-250.27 46.64,-241.16 45.19,-251.65 52.05,-250.27"/>
</g>
<!-- Node1&#45;&gt;Node2 -->
<g id="edge1" class="edge">
<title>Node1&#45;&gt;Node2</title>
<path fill="none" stroke="black" d="M51.37,-250.71C61.85,-279.31 85.52,-332.8 124,-361.5 135.33,-369.95 150.31,-374.45 163.37,-376.83"/>
<polygon fill="black" stroke="black" points="54.6,-249.35 47.99,-241.07 47.99,-251.66 54.6,-249.35"/>
</g>
<!-- Node1&#45;&gt;Node12 -->
<g id="edge11" class="edge">
<title>Node1&#45;&gt;Node12</title>
<path fill="none" stroke="black" d="M55.65,-249.78C68.95,-270.97 93.68,-305.42 124,-324.5 138.36,-333.54 157.14,-338.06 171.41,-340.31"/>
<polygon fill="black" stroke="black" points="58.55,-247.81 50.36,-241.08 52.56,-251.44 58.55,-247.81"/>
</g>
<!-- Node1&#45;&gt;Node7 -->
<g id="edge6" class="edge">
<title>Node1&#45;&gt;Node7</title>
<path fill="none" stroke="black" d="M63.39,-247.46C78.68,-259.98 101.51,-277 124,-287.5 141.05,-295.46 162.18,-300.33 176.44,-302.97"/>
<polygon fill="black" stroke="black" points="65.63,-244.77 55.72,-241.03 61.13,-250.14 65.63,-244.77"/>
</g>
<!-- Node1&#45;&gt;Node9 -->
<g id="edge8" class="edge">
<title>Node1&#45;&gt;Node9</title>
<path fill="none" stroke="black" d="M92.91,-243.52C118.55,-249.95 148.96,-257.58 169.37,-262.7"/>
<polygon fill="black" stroke="black" points="93.54,-240.07 82.98,-241.03 91.83,-246.86 93.54,-240.07"/>
</g>
<!-- Node1&#45;&gt;Node10 -->
<g id="edge9" class="edge">
<title>Node1&#45;&gt;Node10</title>
<path fill="none" stroke="black" d="M98.33,-231.5C106.62,-231.5 115.28,-231.5 123.85,-231.5"/>
<polygon fill="black" stroke="black" points="98.06,-228 88.06,-231.5 98.06,-235 98.06,-228"/>
</g>
<!-- Node1&#45;&gt;Node11 -->
<g id="edge10" class="edge">
<title>Node1&#45;&gt;Node11</title>
<path fill="none" stroke="black" d="M92.91,-219.48C116.73,-213.51 144.68,-206.5 164.89,-201.43"/>
<polygon fill="black" stroke="black" points="91.83,-216.14 82.98,-221.97 93.54,-222.93 91.83,-216.14"/>
</g>
<!-- Node1&#45;&gt;Node4 -->
<g id="edge3" class="edge">
<title>Node1&#45;&gt;Node4</title>
<path fill="none" stroke="black" d="M64.16,-215.37C79.5,-203.19 102,-186.84 124,-176.5 139.86,-169.05 159.2,-164.01 173.28,-161.01"/>
<polygon fill="black" stroke="black" points="61.57,-212.97 56.02,-221.99 65.99,-218.4 61.57,-212.97"/>
</g>
<!-- Node5 -->
<g id="node11" class="node">
<title>Node5</title>
<g id="a_node11"><a xlink:href="group__gr__la.html" target="_top" xlink:title="API for Linear Algebra (LA)">
<polygon fill="white" stroke="black" points="237,-130 150,-130 150,-111 237,-111 237,-130"/>
<text text-anchor="middle" x="193.5" y="-118" font-family="Helvetica,sans-Serif" font-size="10.00">Linear Algebra</text>
</a>
</g>
</g>
<!-- Node1&#45;&gt;Node5 -->
<g id="edge4" class="edge">
<title>Node1&#45;&gt;Node5</title>
<path fill="none" stroke="black" d="M55.95,-213.17C69.38,-192.25 94.1,-158.49 124,-139.5 131.81,-134.54 140.93,-130.85 149.91,-128.12"/>
<polygon fill="black" stroke="black" points="52.9,-211.44 50.59,-221.78 58.85,-215.14 52.9,-211.44"/>
</g>
<!-- Node13 -->
<g id="node12" class="node">
<title>Node13</title>
<g id="a_node12"><a xlink:href="group__gr__vector.html" target="_top" xlink:title="API for operations on Vector data structures.">
<polygon fill="white" stroke="black" points="217,-93 170,-93 170,-74 217,-74 217,-93"/>
<text text-anchor="middle" x="193.5" y="-81" font-family="Helvetica,sans-Serif" font-size="10.00">Vector</text>
</a>
</g>
</g>
<!-- Node1&#45;&gt;Node13 -->
<g id="edge12" class="edge">
<title>Node1&#45;&gt;Node13</title>
<path fill="none" stroke="black" d="M51.61,-212.09C62.3,-183.69 86.07,-131.1 124,-102.5 137.3,-92.47 155.63,-87.74 169.97,-85.5"/>
<polygon fill="black" stroke="black" points="48.25,-211.09 48.16,-221.69 54.84,-213.46 48.25,-211.09"/>
</g>
<!-- Node6 -->
<g id="node13" class="node">
<title>Node6</title>
<g id="a_node13"><a xlink:href="group__gr__list.html" target="_top" xlink:title="API for list handling.">
<polygon fill="white" stroke="black" points="210.5,-56 176.5,-56 176.5,-37 210.5,-37 210.5,-56"/>
<text text-anchor="middle" x="193.5" y="-44" font-family="Helvetica,sans-Serif" font-size="10.00">List</text>
</a>
</g>
</g>
<!-- Node1&#45;&gt;Node6 -->
<g id="edge5" class="edge">
<title>Node1&#45;&gt;Node6</title>
<path fill="none" stroke="black" d="M48.74,-212.08C56.45,-177.35 77.47,-104.58 124,-65.5 138.84,-53.04 161.24,-48.72 176.35,-47.24"/>
<polygon fill="black" stroke="black" points="45.3,-211.43 46.68,-221.93 52.15,-212.86 45.3,-211.43"/>
</g>
<!-- Node8 -->
<g id="node14" class="node">
<title>Node8</title>
<g id="a_node14"><a xlink:href="group__gr__math.html" target="_top" xlink:title="API for Mathematical operations.">
<polygon fill="white" stroke="black" points="214,-19 173,-19 173,0 214,0 214,-19"/>
<text text-anchor="middle" x="193.5" y="-7" font-family="Helvetica,sans-Serif" font-size="10.00">Math</text>
</a>
</g>
</g>
<!-- Node1&#45;&gt;Node8 -->
<g id="edge7" class="edge">
<title>Node1&#45;&gt;Node8</title>
<path fill="none" stroke="black" d="M46.88,-211.79C51.83,-171.29 68.87,-78.35 124,-28.5 137.37,-16.42 157.77,-11.94 172.83,-10.32"/>
<polygon fill="black" stroke="black" points="43.4,-211.42 45.79,-221.74 50.36,-212.19 43.4,-211.42"/>
</g>
</g>
</svg>
