<?xml version="1.0" encoding="UTF-8" standalone="no"?>
<!DOCTYPE svg PUBLIC "-//W3C//DTD SVG 1.1//EN"
 "http://www.w3.org/Graphics/SVG/1.1/DTD/svg11.dtd">
<!-- Generated by graphviz version 2.43.0 (0)
 -->
<!-- Title: Algorithms (ifxAlgo) Pages: 1 -->
<svg width="290pt" height="310pt"
 viewBox="0.00 0.00 290.00 309.50" xmlns="http://www.w3.org/2000/svg" xmlns:xlink="http://www.w3.org/1999/xlink">
<g id="graph0" class="graph" transform="scale(1 1) rotate(0) translate(4 305.5)">
<title>Algorithms (ifxAlgo)</title>
<polygon fill="white" stroke="transparent" points="-4,4 -4,-305.5 286,-305.5 286,4 -4,4"/>
<!-- Node9 -->
<g id="node1" class="node">
<title>Node9</title>
<g id="a_node1"><a xlink:href="group__gr__window.html" target="_top" xlink:title="API for Window function processing.">
<polygon fill="white" stroke="black" points="244.5,-301.5 188.5,-301.5 188.5,-282.5 244.5,-282.5 244.5,-301.5"/>
<text text-anchor="middle" x="216.5" y="-289.5" font-family="Helvetica,sans-Serif" font-size="10.00">Window</text>
</a>
</g>
</g>
<!-- Node8 -->
<g id="node2" class="node">
<title>Node8</title>
<g id="a_node2"><a xlink:href="group__gr__signal.html" target="_top" xlink:title="API for digital filtering operations.">
<polygon fill="white" stroke="black" points="267.5,-264.5 165.5,-264.5 165.5,-245.5 267.5,-245.5 267.5,-264.5"/>
<text text-anchor="middle" x="216.5" y="-252.5" font-family="Helvetica,sans-Serif" font-size="10.00">Signal Processing</text>
</a>
</g>
</g>
<!-- Node7 -->
<g id="node3" class="node">
<title>Node7</title>
<g id="a_node3"><a xlink:href="group__gr__ppfft.html" target="_top" xlink:title="API for Pre&#45;processed FFT.">
<polygon fill="white" stroke="black" points="269.5,-227.5 163.5,-227.5 163.5,-208.5 269.5,-208.5 269.5,-227.5"/>
<text text-anchor="middle" x="216.5" y="-215.5" font-family="Helvetica,sans-Serif" font-size="10.00">Pre&#45;processed FFT</text>
</a>
</g>
</g>
<!-- Node3 -->
<g id="node4" class="node">
<title>Node3</title>
<g id="a_node4"><a xlink:href="group__gr__dbscan.html" target="_top" xlink:title="API for Density&#45;based spatial clustering of applications with noise (DBSCAN) algorithm.">
<polygon fill="white" stroke="black" points="245.5,-190.5 187.5,-190.5 187.5,-171.5 245.5,-171.5 245.5,-190.5"/>
<text text-anchor="middle" x="216.5" y="-178.5" font-family="Helvetica,sans-Serif" font-size="10.00">DBSCAN</text>
</a>
</g>
</g>
<!-- Node5 -->
<g id="node5" class="node">
<title>Node5</title>
<g id="a_node5"><a xlink:href="group__gr__mti.html" target="_top" xlink:title="API for Moving Target Indicator (MTI) filter.">
<polygon fill="white" stroke="black" points="282,-153 151,-153 151,-123 282,-123 282,-153"/>
<text text-anchor="start" x="159" y="-141" font-family="Helvetica,sans-Serif" font-size="10.00">Moving Target Indicator</text>
<text text-anchor="middle" x="216.5" y="-130" font-family="Helvetica,sans-Serif" font-size="10.00"> (MTI)</text>
</a>
</g>
</g>
<!-- Node4 -->
<g id="node6" class="node">
<title>Node4</title>
<g id="a_node6"><a xlink:href="group__gr__fft.html" target="_top" xlink:title="API for Fast Fourier Transform (FFT)">
<polygon fill="white" stroke="black" points="233.5,-104.5 199.5,-104.5 199.5,-85.5 233.5,-85.5 233.5,-104.5"/>
<text text-anchor="middle" x="216.5" y="-92.5" font-family="Helvetica,sans-Serif" font-size="10.00">FFT</text>
</a>
</g>
</g>
<!-- Node6 -->
<g id="node7" class="node">
<title>Node6</title>
<g id="a_node7"><a xlink:href="group__gr__oscfar.html" target="_top" xlink:title="API for 2D ordered statistic constant false alarm rate (OS&#45;CFAR) algorithm.">
<polygon fill="white" stroke="black" points="246,-67.5 187,-67.5 187,-48.5 246,-48.5 246,-67.5"/>
<text text-anchor="middle" x="216.5" y="-55.5" font-family="Helvetica,sans-Serif" font-size="10.00">OS&#45;CFAR</text>
</a>
</g>
</g>
<!-- Node2 -->
<g id="node8" class="node">
<title>Node2</title>
<g id="a_node8"><a xlink:href="group__gr__mti2d.html" target="_top" xlink:title="API for 2D Moving Target Indicator filter (2DMTI)">
<polygon fill="white" stroke="black" points="282,-30 151,-30 151,0 282,0 282,-30"/>
<text text-anchor="start" x="159" y="-18" font-family="Helvetica,sans-Serif" font-size="10.00">Moving Target Indicator</text>
<text text-anchor="middle" x="216.5" y="-7" font-family="Helvetica,sans-Serif" font-size="10.00"> 2D (2DMTI)</text>
</a>
</g>
</g>
<!-- Node1 -->
<g id="node9" class="node">
<title>Node1</title>
<g id="a_node9"><a xlink:title=" ">
<polygon fill="#bfbfbf" stroke="black" points="115,-168.5 0,-168.5 0,-149.5 115,-149.5 115,-168.5"/>
<text text-anchor="middle" x="57.5" y="-156.5" font-family="Helvetica,sans-Serif" font-size="10.00">Algorithms (ifxAlgo)</text>
</a>
</g>
</g>
<!-- Node1&#45;&gt;Node9 -->
<g id="edge8" class="edge">
<title>Node1&#45;&gt;Node9</title>
<path fill="none" stroke="black" d="M68.56,-177.77C83.26,-203.39 113.04,-248.98 151,-274 162.07,-281.29 176.07,-285.66 188.19,-288.26"/>
<polygon fill="black" stroke="black" points="71.44,-175.75 63.52,-168.72 65.33,-179.16 71.44,-175.75"/>
</g>
<!-- Node1&#45;&gt;Node8 -->
<g id="edge7" class="edge">
<title>Node1&#45;&gt;Node8</title>
<path fill="none" stroke="black" d="M74.26,-176.06C91.5,-193.74 120.72,-220.99 151,-237 157.37,-240.37 164.44,-243.16 171.5,-245.46"/>
<polygon fill="black" stroke="black" points="76.66,-173.5 67.22,-168.68 71.59,-178.33 76.66,-173.5"/>
</g>
<!-- Node1&#45;&gt;Node7 -->
<g id="edge6" class="edge">
<title>Node1&#45;&gt;Node7</title>
<path fill="none" stroke="black" d="M87.38,-173.1C105.4,-181.57 129.24,-192.19 151,-200 159.53,-203.06 168.86,-205.93 177.69,-208.44"/>
<polygon fill="black" stroke="black" points="88.54,-169.78 78.01,-168.64 85.54,-176.1 88.54,-169.78"/>
</g>
<!-- Node1&#45;&gt;Node3 -->
<g id="edge2" class="edge">
<title>Node1&#45;&gt;Node3</title>
<path fill="none" stroke="black" d="M125.34,-168.37C146.97,-171.4 169.81,-174.6 187.09,-177.02"/>
<polygon fill="black" stroke="black" points="125.57,-164.86 115.18,-166.94 124.6,-171.8 125.57,-164.86"/>
</g>
<!-- Node1&#45;&gt;Node5 -->
<g id="edge4" class="edge">
<title>Node1&#45;&gt;Node5</title>
<path fill="none" stroke="black" d="M125.1,-150.09C133.65,-148.95 142.39,-147.78 150.91,-146.64"/>
<polygon fill="black" stroke="black" points="124.63,-146.62 115.18,-151.42 125.56,-153.56 124.63,-146.62"/>
</g>
<!-- Node1&#45;&gt;Node4 -->
<g id="edge3" class="edge">
<title>Node1&#45;&gt;Node4</title>
<path fill="none" stroke="black" d="M84.71,-144.8C102.95,-135.28 128.03,-122.9 151,-114 167.11,-107.76 186.15,-102.38 199.35,-98.96"/>
<polygon fill="black" stroke="black" points="83.05,-141.72 75.84,-149.48 86.32,-147.91 83.05,-141.72"/>
</g>
<!-- Node1&#45;&gt;Node6 -->
<g id="edge5" class="edge">
<title>Node1&#45;&gt;Node6</title>
<path fill="none" stroke="black" d="M73.36,-141.96C90.37,-123.44 119.93,-94.21 151,-77 162.03,-70.89 175.23,-66.55 186.81,-63.58"/>
<polygon fill="black" stroke="black" points="70.75,-139.62 66.66,-149.4 75.95,-144.31 70.75,-139.62"/>
</g>
<!-- Node1&#45;&gt;Node2 -->
<g id="edge1" class="edge">
<title>Node1&#45;&gt;Node2</title>
<path fill="none" stroke="black" d="M68.57,-140.44C83.43,-114.6 113.59,-67.85 151,-40 156.11,-36.2 161.86,-32.9 167.78,-30.06"/>
<polygon fill="black" stroke="black" points="65.47,-138.8 63.63,-149.23 71.58,-142.22 65.47,-138.8"/>
</g>
</g>
</svg>
