<?xml version="1.0" encoding="UTF-8" standalone="no"?>
<!DOCTYPE svg PUBLIC "-//W3C//DTD SVG 1.1//EN"
 "http://www.w3.org/Graphics/SVG/1.1/DTD/svg11.dtd">
<!-- Generated by graphviz version 2.43.0 (0)
 -->
<!-- Title: Avian Radar Sensor (ifxAvian) Pages: 1 -->
<svg width="274pt" height="101pt"
 viewBox="0.00 0.00 274.00 101.00" xmlns="http://www.w3.org/2000/svg" xmlns:xlink="http://www.w3.org/1999/xlink">
<g id="graph0" class="graph" transform="scale(1 1) rotate(0) translate(4 97)">
<title>Avian Radar Sensor (ifxAvian)</title>
<polygon fill="white" stroke="transparent" points="-4,4 -4,-97 270,-97 270,4 -4,4"/>
<!-- Node3 -->
<g id="node1" class="node">
<title>Node3</title>
<g id="a_node1"><a xlink:href="group__gr__devicecontrol.html" target="_top" xlink:title="API for Radar device control operations.">
<polygon fill="white" stroke="black" points="251,-93 162,-93 162,-74 251,-74 251,-93"/>
<text text-anchor="middle" x="206.5" y="-81" font-family="Helvetica,sans-Serif" font-size="10.00">Device Control</text>
</a>
</g>
</g>
<!-- Node1 -->
<g id="node2" class="node">
<title>Node1</title>
<g id="a_node2"><a xlink:title=" ">
<polygon fill="#bfbfbf" stroke="black" points="111,-61.5 0,-61.5 0,-31.5 111,-31.5 111,-61.5"/>
<text text-anchor="start" x="8" y="-49.5" font-family="Helvetica,sans-Serif" font-size="10.00">Avian Radar Sensor</text>
<text text-anchor="middle" x="55.5" y="-38.5" font-family="Helvetica,sans-Serif" font-size="10.00"> (ifxAvian)</text>
</a>
</g>
</g>
<!-- Node1&#45;&gt;Node3 -->
<g id="edge2" class="edge">
<title>Node1&#45;&gt;Node3</title>
<path fill="none" stroke="black" d="M120.86,-62.48C136.65,-66.4 153.06,-70.48 167.18,-73.98"/>
<polygon fill="black" stroke="black" points="121.68,-59.08 111.14,-60.07 120,-65.87 121.68,-59.08"/>
</g>
<!-- Node4 -->
<g id="node3" class="node">
<title>Node4</title>
<g id="a_node3"><a xlink:href="group__gr__avian__metrics.html" target="_top" xlink:title="API for Metrics.">
<polygon fill="white" stroke="black" points="233,-56 180,-56 180,-37 233,-37 233,-56"/>
<text text-anchor="middle" x="206.5" y="-44" font-family="Helvetica,sans-Serif" font-size="10.00">Metrics</text>
</a>
</g>
</g>
<!-- Node1&#45;&gt;Node4 -->
<g id="edge3" class="edge">
<title>Node1&#45;&gt;Node4</title>
<path fill="none" stroke="black" d="M121.16,-46.5C141.79,-46.5 163.46,-46.5 179.66,-46.5"/>
<polygon fill="black" stroke="black" points="121.14,-43 111.14,-46.5 121.14,-50 121.14,-43"/>
</g>
<!-- Node2 -->
<g id="node4" class="node">
<title>Node2</title>
<g id="a_node4"><a xlink:href="group__gr__deviceconfig.html" target="_top" xlink:title="API for Radar device configuration.">
<polygon fill="white" stroke="black" points="266,-19 147,-19 147,0 266,0 266,-19"/>
<text text-anchor="middle" x="206.5" y="-7" font-family="Helvetica,sans-Serif" font-size="10.00">Device Configuration</text>
</a>
</g>
</g>
<!-- Node1&#45;&gt;Node2 -->
<g id="edge1" class="edge">
<title>Node1&#45;&gt;Node2</title>
<path fill="none" stroke="black" d="M120.86,-30.52C136.65,-26.6 153.06,-22.52 167.18,-19.02"/>
<polygon fill="black" stroke="black" points="120,-27.13 111.14,-32.93 121.68,-33.92 120,-27.13"/>
</g>
</g>
</svg>
