<?xml version="1.0" encoding="UTF-8" standalone="no"?>
<!DOCTYPE svg PUBLIC "-//W3C//DTD SVG 1.1//EN"
 "http://www.w3.org/Graphics/SVG/1.1/DTD/svg11.dtd">
<!-- Generated by graphviz version 2.43.0 (0)
 -->
<!-- Title: Radar (ifxRadar) Pages: 1 -->
<svg width="254pt" height="360pt"
 viewBox="0.00 0.00 254.00 360.00" xmlns="http://www.w3.org/2000/svg" xmlns:xlink="http://www.w3.org/1999/xlink">
<g id="graph0" class="graph" transform="scale(1 1) rotate(0) translate(4 356)">
<title>Radar (ifxRadar)</title>
<polygon fill="white" stroke="transparent" points="-4,4 -4,-356 250,-356 250,4 -4,4"/>
<!-- Node5 -->
<g id="node1" class="node">
<title>Node5</title>
<g id="a_node1"><a xlink:href="group__gr__doppler__spect.html" target="_top" xlink:title="API for Doppler Spectrogram.">
<polygon fill="white" stroke="black" points="246,-352 133,-352 133,-333 246,-333 246,-352"/>
<text text-anchor="middle" x="189.5" y="-340" font-family="Helvetica,sans-Serif" font-size="10.00">Range Doppler Map</text>
</a>
</g>
</g>
<!-- Node4 -->
<g id="node2" class="node">
<title>Node4</title>
<g id="a_node2"><a xlink:href="group__gr__dbf.html" target="_top" xlink:title="API for Digital Beamforming (DBF) algorithm.">
<polygon fill="white" stroke="black" points="208,-315 171,-315 171,-296 208,-296 208,-315"/>
<text text-anchor="middle" x="189.5" y="-303" font-family="Helvetica,sans-Serif" font-size="10.00">DBF</text>
</a>
</g>
</g>
<!-- Node1 -->
<g id="node3" class="node">
<title>Node1</title>
<g id="a_node3"><a xlink:title=" ">
<polygon fill="#bfbfbf" stroke="black" points="97,-185 0,-185 0,-166 97,-166 97,-185"/>
<text text-anchor="middle" x="48.5" y="-173" font-family="Helvetica,sans-Serif" font-size="10.00">Radar (ifxRadar)</text>
</a>
</g>
</g>
<!-- Node1&#45;&gt;Node5 -->
<g id="edge4" class="edge">
<title>Node1&#45;&gt;Node5</title>
<path fill="none" stroke="black" d="M55.24,-194.95C65.58,-226.68 90.34,-289.52 133,-324.5 137.15,-327.9 141.96,-330.67 146.98,-332.92"/>
<polygon fill="black" stroke="black" points="58.49,-193.63 52.18,-185.13 51.81,-195.71 58.49,-193.63"/>
</g>
<!-- Node1&#45;&gt;Node4 -->
<g id="edge3" class="edge">
<title>Node1&#45;&gt;Node4</title>
<path fill="none" stroke="black" d="M58.75,-194.28C71.91,-219.13 98.35,-262.66 133,-287.5 144.28,-295.58 159.38,-300.17 170.98,-302.69"/>
<polygon fill="black" stroke="black" points="61.76,-192.48 54.08,-185.18 55.53,-195.67 61.76,-192.48"/>
</g>
<!-- Node6 -->
<g id="node4" class="node">
<title>Node6</title>
<g id="a_node4"><a xlink:href="group__gr__peaksearch.html" target="_top" xlink:title="API for Peak Search preprocessing.">
<polygon fill="white" stroke="black" points="228,-278 151,-278 151,-259 228,-259 228,-278"/>
<text text-anchor="middle" x="189.5" y="-266" font-family="Helvetica,sans-Serif" font-size="10.00">Peak Search</text>
</a>
</g>
</g>
<!-- Node1&#45;&gt;Node6 -->
<g id="edge5" class="edge">
<title>Node1&#45;&gt;Node6</title>
<path fill="none" stroke="black" d="M64.57,-192.71C80.17,-209.58 106.01,-234.95 133,-250.5 138.79,-253.84 145.29,-256.65 151.74,-258.99"/>
<polygon fill="black" stroke="black" points="67.07,-190.27 57.77,-185.2 61.88,-194.96 67.07,-190.27"/>
</g>
<!-- Node3 -->
<g id="node5" class="node">
<title>Node3</title>
<g id="a_node5"><a xlink:href="group__gr__anglemonopulse.html" target="_top" xlink:title="API for Phase Monopulse algorithm.">
<polygon fill="white" stroke="black" points="240,-241 139,-241 139,-222 240,-222 240,-241"/>
<text text-anchor="middle" x="189.5" y="-229" font-family="Helvetica,sans-Serif" font-size="10.00">Angle Monopulse</text>
</a>
</g>
</g>
<!-- Node1&#45;&gt;Node3 -->
<g id="edge2" class="edge">
<title>Node1&#45;&gt;Node3</title>
<path fill="none" stroke="black" d="M78.12,-189.5C94.08,-197.06 114.43,-206.29 133,-213.5 140.65,-216.47 149.01,-219.36 156.88,-221.93"/>
<polygon fill="black" stroke="black" points="79.33,-186.2 68.8,-185.04 76.31,-192.51 79.33,-186.2"/>
</g>
<!-- Node7 -->
<g id="node6" class="node">
<title>Node7</title>
<g id="a_node6"><a xlink:href="group__gr__rai.html" target="_top" xlink:title="API for Range Angle Image algorithm.">
<polygon fill="white" stroke="black" points="245.5,-204 133.5,-204 133.5,-185 245.5,-185 245.5,-204"/>
<text text-anchor="middle" x="189.5" y="-192" font-family="Helvetica,sans-Serif" font-size="10.00">Range Angle Image</text>
</a>
</g>
</g>
<!-- Node1&#45;&gt;Node7 -->
<g id="edge6" class="edge">
<title>Node1&#45;&gt;Node7</title>
<path fill="none" stroke="black" d="M107.32,-183.4C115.95,-184.58 124.83,-185.8 133.41,-186.97"/>
<polygon fill="black" stroke="black" points="107.72,-179.93 97.34,-182.04 106.77,-186.86 107.72,-179.93"/>
</g>
<!-- Node8 -->
<g id="node7" class="node">
<title>Node8</title>
<g id="a_node7"><a xlink:href="group__gr__rdm.html" target="_top" xlink:title="API for Range Doppler Map.">
<polygon fill="white" stroke="black" points="246,-167 133,-167 133,-148 246,-148 246,-167"/>
<text text-anchor="middle" x="189.5" y="-155" font-family="Helvetica,sans-Serif" font-size="10.00">Range Doppler Map</text>
</a>
</g>
</g>
<!-- Node1&#45;&gt;Node8 -->
<g id="edge7" class="edge">
<title>Node1&#45;&gt;Node8</title>
<path fill="none" stroke="black" d="M107.46,-167.99C115.89,-166.9 124.55,-165.78 132.92,-164.7"/>
<polygon fill="black" stroke="black" points="106.8,-164.55 97.34,-169.31 107.7,-171.49 106.8,-164.55"/>
</g>
<!-- Node10 -->
<g id="node8" class="node">
<title>Node10</title>
<g id="a_node8"><a xlink:href="group__gr__sa.html" target="_top" xlink:title="API for Spectrum Axis used by Range spectrum, Range Doppler and Range Angle Map modules.">
<polygon fill="white" stroke="black" points="233,-130 146,-130 146,-111 233,-111 233,-130"/>
<text text-anchor="middle" x="189.5" y="-118" font-family="Helvetica,sans-Serif" font-size="10.00">Spectrum Axis</text>
</a>
</g>
</g>
<!-- Node1&#45;&gt;Node10 -->
<g id="edge9" class="edge">
<title>Node1&#45;&gt;Node10</title>
<path fill="none" stroke="black" d="M79.84,-161.75C95.58,-154.79 115.19,-146.37 133,-139.5 141.46,-136.24 150.74,-132.94 159.26,-130.04"/>
<polygon fill="black" stroke="black" points="78.3,-158.6 70.59,-165.87 81.15,-165 78.3,-158.6"/>
</g>
<!-- Node9 -->
<g id="node9" class="node">
<title>Node9</title>
<g id="a_node9"><a xlink:href="group__gr__rs.html" target="_top" xlink:title="API for Range Spectrum.">
<polygon fill="white" stroke="black" points="238,-93 141,-93 141,-74 238,-74 238,-93"/>
<text text-anchor="middle" x="189.5" y="-81" font-family="Helvetica,sans-Serif" font-size="10.00">Range Spectrum</text>
</a>
</g>
</g>
<!-- Node1&#45;&gt;Node9 -->
<g id="edge8" class="edge">
<title>Node1&#45;&gt;Node9</title>
<path fill="none" stroke="black" d="M65.22,-158.33C80.99,-142 106.64,-117.74 133,-102.5 139.44,-98.78 146.72,-95.64 153.83,-93.04"/>
<polygon fill="black" stroke="black" points="62.65,-155.96 58.32,-165.63 67.73,-160.77 62.65,-155.96"/>
</g>
<!-- Node2 -->
<g id="node10" class="node">
<title>Node2</title>
<g id="a_node10"><a xlink:href="group__gr__anglecapon.html" target="_top" xlink:title="API for the 1&#45;D Angle Capon algorithm.">
<polygon fill="white" stroke="black" points="228.5,-56 150.5,-56 150.5,-37 228.5,-37 228.5,-56"/>
<text text-anchor="middle" x="189.5" y="-44" font-family="Helvetica,sans-Serif" font-size="10.00">Angle Capon</text>
</a>
</g>
</g>
<!-- Node1&#45;&gt;Node2 -->
<g id="edge1" class="edge">
<title>Node1&#45;&gt;Node2</title>
<path fill="none" stroke="black" d="M59.1,-156.77C72.49,-132.41 99.01,-90.06 133,-65.5 138.28,-61.68 144.39,-58.59 150.59,-56.09"/>
<polygon fill="black" stroke="black" points="55.94,-155.25 54.32,-165.72 62.12,-158.55 55.94,-155.25"/>
</g>
<!-- Node11 -->
<g id="node11" class="node">
<title>Node11</title>
<g id="a_node11"><a xlink:href="group__gr__target.html" target="_top" xlink:title="Definitions used by Tracker algorithm.">
<polygon fill="white" stroke="black" points="213,-19 166,-19 166,0 213,0 213,-19"/>
<text text-anchor="middle" x="189.5" y="-7" font-family="Helvetica,sans-Serif" font-size="10.00">Target</text>
</a>
</g>
</g>
<!-- Node1&#45;&gt;Node11 -->
<g id="edge10" class="edge">
<title>Node1&#45;&gt;Node11</title>
<path fill="none" stroke="black" d="M55.53,-155.93C66.16,-124.6 91.15,-63.18 133,-28.5 142.33,-20.77 154.98,-16.12 165.85,-13.36"/>
<polygon fill="black" stroke="black" points="52.13,-155.07 52.36,-165.67 58.78,-157.24 52.13,-155.07"/>
</g>
</g>
</svg>
