<?xml version="1.0" encoding="UTF-8" standalone="no"?>
<!DOCTYPE svg PUBLIC "-//W3C//DTD SVG 1.1//EN"
 "http://www.w3.org/Graphics/SVG/1.1/DTD/svg11.dtd">
<!-- Generated by graphviz version 2.43.0 (0)
 -->
<!-- Title: FMCW Device Control (ifxFmcw) Pages: 1 -->
<svg width="290pt" height="64pt"
 viewBox="0.00 0.00 290.00 64.00" xmlns="http://www.w3.org/2000/svg" xmlns:xlink="http://www.w3.org/1999/xlink">
<g id="graph0" class="graph" transform="scale(1 1) rotate(0) translate(4 60)">
<title>FMCW Device Control (ifxFmcw)</title>
<polygon fill="white" stroke="transparent" points="-4,4 -4,-60 286,-60 286,4 -4,4"/>
<!-- Node2 -->
<g id="node1" class="node">
<title>Node2</title>
<g id="a_node1"><a xlink:href="group__gr__devicefmcw.html" target="_top" xlink:title="API for FMCW Radar device control operations.">
<polygon fill="white" stroke="black" points="282,-56 159,-56 159,-37 282,-37 282,-56"/>
<text text-anchor="middle" x="220.5" y="-44" font-family="Helvetica,sans-Serif" font-size="10.00">FMCW Device Control</text>
</a>
</g>
</g>
<!-- Node1 -->
<g id="node2" class="node">
<title>Node1</title>
<g id="a_node2"><a xlink:title="API for FMCW Radar device control operations.">
<polygon fill="#bfbfbf" stroke="black" points="123,-42.5 0,-42.5 0,-12.5 123,-12.5 123,-42.5"/>
<text text-anchor="start" x="8" y="-30.5" font-family="Helvetica,sans-Serif" font-size="10.00">FMCW Device Control</text>
<text text-anchor="middle" x="61.5" y="-19.5" font-family="Helvetica,sans-Serif" font-size="10.00"> (ifxFmcw)</text>
</a>
</g>
</g>
<!-- Node1&#45;&gt;Node2 -->
<g id="edge1" class="edge">
<title>Node1&#45;&gt;Node2</title>
<path fill="none" stroke="black" d="M133.21,-36.06C141.81,-37.1 150.53,-38.15 158.96,-39.17"/>
<polygon fill="black" stroke="black" points="133.55,-32.57 123.2,-34.85 132.71,-39.52 133.55,-32.57"/>
</g>
<!-- Node3 -->
<g id="node3" class="node">
<title>Node3</title>
<g id="a_node3"><a xlink:href="group__gr__metrics__fmcw.html" target="_top" xlink:title="API for MetricsFmcw.">
<polygon fill="white" stroke="black" points="261.5,-19 179.5,-19 179.5,0 261.5,0 261.5,-19"/>
<text text-anchor="middle" x="220.5" y="-7" font-family="Helvetica,sans-Serif" font-size="10.00">MetricsFmcw</text>
</a>
</g>
</g>
<!-- Node1&#45;&gt;Node3 -->
<g id="edge2" class="edge">
<title>Node1&#45;&gt;Node3</title>
<path fill="none" stroke="black" d="M133.45,-19.37C149.19,-17.56 165.33,-15.71 179.32,-14.11"/>
<polygon fill="black" stroke="black" points="132.74,-15.92 123.2,-20.54 133.53,-22.88 132.74,-15.92"/>
</g>
</g>
</svg>
