<?xml version="1.0" encoding="UTF-8" standalone="no"?>
<!DOCTYPE svg PUBLIC "-//W3C//DTD SVG 1.1//EN"
 "http://www.w3.org/Graphics/SVG/1.1/DTD/svg11.dtd">
<!-- Generated by graphviz version 2.43.0 (0)
 -->
<!-- Title: ifx_DopplerSpectrogram_Config_t Pages: 1 -->
<svg width="167pt" height="173pt"
 viewBox="0.00 0.00 166.50 173.00" xmlns="http://www.w3.org/2000/svg" xmlns:xlink="http://www.w3.org/1999/xlink">
<g id="graph0" class="graph" transform="scale(1 1) rotate(0) translate(4 169)">
<title>ifx_DopplerSpectrogram_Config_t</title>
<polygon fill="white" stroke="transparent" points="-4,4 -4,-169 162.5,-169 162.5,4 -4,4"/>
<!-- Node1 -->
<g id="node1" class="node">
<title>Node1</title>
<g id="a_node1"><a xlink:title="Defines the structure for Range Doppler module related settings.">
<polygon fill="#bfbfbf" stroke="black" points="0,-0.5 0,-30.5 135,-30.5 135,-0.5 0,-0.5"/>
<text text-anchor="start" x="8" y="-18.5" font-family="Helvetica,sans-Serif" font-size="10.00">ifx_DopplerSpectrogram</text>
<text text-anchor="middle" x="67.5" y="-7.5" font-family="Helvetica,sans-Serif" font-size="10.00">_Config_t</text>
</a>
</g>
</g>
<!-- Node2 -->
<g id="node2" class="node">
<title>Node2</title>
<g id="a_node2"><a xlink:href="structifx___p_p_f_f_t___config__t.html" target="_top" xlink:title="Defines the structure for pre&#45;processed FFT related settings.">
<polygon fill="white" stroke="black" points="13,-78.5 13,-97.5 122,-97.5 122,-78.5 13,-78.5"/>
<text text-anchor="middle" x="67.5" y="-85.5" font-family="Helvetica,sans-Serif" font-size="10.00">ifx_PPFFT_Config_t</text>
</a>
</g>
</g>
<!-- Node2&#45;&gt;Node1 -->
<g id="edge1" class="edge">
<title>Node2&#45;&gt;Node1</title>
<path fill="none" stroke="#9a32cd" stroke-dasharray="5,2" d="M67.5,-68.24C67.5,-56.41 67.5,-41.38 67.5,-30.58"/>
<polygon fill="#9a32cd" stroke="#9a32cd" points="64,-68.36 67.5,-78.36 71,-68.36 64,-68.36"/>
<text text-anchor="middle" x="113" y="-52" font-family="Helvetica,sans-Serif" font-size="10.00"> doppler_fft_config</text>
</g>
<!-- Node3 -->
<g id="node3" class="node">
<title>Node3</title>
<g id="a_node3"><a xlink:href="structifx___window___config__t.html" target="_top" xlink:title="Defines the structure for Window module related settings.">
<polygon fill="white" stroke="black" points="8,-145.5 8,-164.5 127,-164.5 127,-145.5 8,-145.5"/>
<text text-anchor="middle" x="67.5" y="-152.5" font-family="Helvetica,sans-Serif" font-size="10.00">ifx_Window_Config_t</text>
</a>
</g>
</g>
<!-- Node3&#45;&gt;Node2 -->
<g id="edge2" class="edge">
<title>Node3&#45;&gt;Node2</title>
<path fill="none" stroke="#9a32cd" stroke-dasharray="5,2" d="M67.5,-135.04C67.5,-122.67 67.5,-107.12 67.5,-97.63"/>
<polygon fill="#9a32cd" stroke="#9a32cd" points="64,-135.23 67.5,-145.23 71,-135.23 64,-135.23"/>
<text text-anchor="middle" x="105.5" y="-119" font-family="Helvetica,sans-Serif" font-size="10.00"> window_config</text>
</g>
</g>
</svg>
