<?xml version="1.0" encoding="UTF-8" standalone="no"?>
<!DOCTYPE svg PUBLIC "-//W3C//DTD SVG 1.1//EN"
 "http://www.w3.org/Graphics/SVG/1.1/DTD/svg11.dtd">
<!-- Generated by graphviz version 2.43.0 (0)
 -->
<!-- Title: ifx_Fmcw_Sequence_Loop Pages: 1 -->
<svg width="487pt" height="95pt"
 viewBox="0.00 0.00 486.50 95.00" xmlns="http://www.w3.org/2000/svg" xmlns:xlink="http://www.w3.org/1999/xlink">
<g id="graph0" class="graph" transform="scale(1 1) rotate(0) translate(4 91)">
<title>ifx_Fmcw_Sequence_Loop</title>
<polygon fill="white" stroke="transparent" points="-4,4 -4,-91 482.5,-91 482.5,4 -4,4"/>
<!-- Node1 -->
<g id="node1" class="node">
<title>Node1</title>
<g id="a_node1"><a xlink:title="A loop in an acquisition sequence.">
<polygon fill="#bfbfbf" stroke="black" points="0,-67.5 0,-86.5 145,-86.5 145,-67.5 0,-67.5"/>
<text text-anchor="middle" x="72.5" y="-74.5" font-family="Helvetica,sans-Serif" font-size="10.00">ifx_Fmcw_Sequence_Loop</text>
</a>
</g>
</g>
<!-- Node2 -->
<g id="node2" class="node">
<title>Node2</title>
<g id="a_node2"><a xlink:href="structifx___fmcw___sequence___element.html" target="_top" xlink:title="An element of an acquisition sequence.">
<polygon fill="white" stroke="black" points="104.5,-0.5 104.5,-19.5 266.5,-19.5 266.5,-0.5 104.5,-0.5"/>
<text text-anchor="middle" x="185.5" y="-7.5" font-family="Helvetica,sans-Serif" font-size="10.00">ifx_Fmcw_Sequence_Element</text>
</a>
</g>
</g>
<!-- Node1&#45;&gt;Node2 -->
<g id="edge2" class="edge">
<title>Node1&#45;&gt;Node2</title>
<path fill="none" stroke="#9a32cd" stroke-dasharray="5,2" d="M76.99,-57.86C79.58,-50.78 83.55,-43.14 89.5,-38 99.46,-29.4 111.97,-23.53 124.63,-19.52"/>
<polygon fill="#9a32cd" stroke="#9a32cd" points="73.62,-56.9 74.11,-67.49 80.33,-58.91 73.62,-56.9"/>
<text text-anchor="middle" x="102" y="-41" font-family="Helvetica,sans-Serif" font-size="10.00"> loop</text>
</g>
<!-- Node2&#45;&gt;Node1 -->
<g id="edge1" class="edge">
<title>Node2&#45;&gt;Node1</title>
<path fill="none" stroke="#9a32cd" stroke-dasharray="5,2" d="M160.3,-24.3C152.33,-28.6 143.5,-33.43 135.5,-38 118.42,-47.76 99.09,-59.53 86.4,-67.36"/>
<polygon fill="#9a32cd" stroke="#9a32cd" points="162.01,-27.36 169.18,-19.56 158.71,-21.19 162.01,-27.36"/>
<text text-anchor="middle" x="172" y="-41" font-family="Helvetica,sans-Serif" font-size="10.00"> sub_sequence</text>
</g>
<!-- Node2&#45;&gt;Node2 -->
<g id="edge4" class="edge">
<title>Node2&#45;&gt;Node2</title>
<path fill="none" stroke="#9a32cd" stroke-dasharray="5,2" d="M276.67,-13.98C281.58,-13.01 284.5,-11.68 284.5,-10 284.5,-7.38 277.39,-5.61 266.68,-4.71"/>
<polygon fill="#9a32cd" stroke="#9a32cd" points="276.14,-10.52 266.68,-15.29 277.05,-17.46 276.14,-10.52"/>
<text text-anchor="middle" x="320" y="-7.5" font-family="Helvetica,sans-Serif" font-size="10.00"> next_element</text>
</g>
<!-- Node3 -->
<g id="node3" class="node">
<title>Node3</title>
<g id="a_node3"><a xlink:href="structifx___fmcw___sequence___chirp.html" target="_top" xlink:title="A chirp in an acquisition sequence.">
<polygon fill="white" stroke="black" points="163,-67.5 163,-86.5 310,-86.5 310,-67.5 163,-67.5"/>
<text text-anchor="middle" x="236.5" y="-74.5" font-family="Helvetica,sans-Serif" font-size="10.00">ifx_Fmcw_Sequence_Chirp</text>
</a>
</g>
</g>
<!-- Node3&#45;&gt;Node2 -->
<g id="edge3" class="edge">
<title>Node3&#45;&gt;Node2</title>
<path fill="none" stroke="#9a32cd" stroke-dasharray="5,2" d="M226.62,-58.58C222.55,-51.92 217.61,-44.39 212.5,-38 207.2,-31.37 200.45,-24.62 195.03,-19.53"/>
<polygon fill="#9a32cd" stroke="#9a32cd" points="223.77,-60.64 231.85,-67.49 229.8,-57.09 223.77,-60.64"/>
<text text-anchor="middle" x="233.5" y="-41" font-family="Helvetica,sans-Serif" font-size="10.00"> chirp</text>
</g>
<!-- Node4 -->
<g id="node4" class="node">
<title>Node4</title>
<g id="a_node4"><a xlink:href="structifx___fmcw___sequence___delay.html" target="_top" xlink:title="A delay in an acquisition sequence.">
<polygon fill="white" stroke="black" points="328.5,-67.5 328.5,-86.5 478.5,-86.5 478.5,-67.5 328.5,-67.5"/>
<text text-anchor="middle" x="403.5" y="-74.5" font-family="Helvetica,sans-Serif" font-size="10.00">ifx_Fmcw_Sequence_Delay</text>
</a>
</g>
</g>
<!-- Node4&#45;&gt;Node2 -->
<g id="edge5" class="edge">
<title>Node4&#45;&gt;Node2</title>
<path fill="none" stroke="#9a32cd" stroke-dasharray="5,2" d="M364.96,-64.51C321.82,-51.65 252.89,-31.09 214.22,-19.56"/>
<polygon fill="#9a32cd" stroke="#9a32cd" points="363.97,-67.87 374.55,-67.37 365.97,-61.16 363.97,-67.87"/>
<text text-anchor="middle" x="323" y="-41" font-family="Helvetica,sans-Serif" font-size="10.00"> delay</text>
</g>
</g>
</svg>
