<?xml version="1.0" encoding="UTF-8" standalone="no"?>
<!DOCTYPE svg PUBLIC "-//W3C//DTD SVG 1.1//EN"
 "http://www.w3.org/Graphics/SVG/1.1/DTD/svg11.dtd">
<!-- Generated by graphviz version 2.43.0 (0)
 -->
<!-- Title: ifx_Fmcw_Simple_Sequence_Config Pages: 1 -->
<svg width="163pt" height="106pt"
 viewBox="0.00 0.00 163.00 106.00" xmlns="http://www.w3.org/2000/svg" xmlns:xlink="http://www.w3.org/1999/xlink">
<g id="graph0" class="graph" transform="scale(1 1) rotate(0) translate(4 102)">
<title>ifx_Fmcw_Simple_Sequence_Config</title>
<polygon fill="white" stroke="transparent" points="-4,4 -4,-102 159,-102 159,4 -4,4"/>
<!-- Node1 -->
<g id="node1" class="node">
<title>Node1</title>
<g id="a_node1"><a xlink:title="An acquisition sequence with either a single chirp or a sequence of similar chirps with TDM MIMO conf...">
<polygon fill="#bfbfbf" stroke="black" points="0,-0.5 0,-30.5 155,-30.5 155,-0.5 0,-0.5"/>
<text text-anchor="start" x="8" y="-18.5" font-family="Helvetica,sans-Serif" font-size="10.00">ifx_Fmcw_Simple_Sequence</text>
<text text-anchor="middle" x="77.5" y="-7.5" font-family="Helvetica,sans-Serif" font-size="10.00">_Config</text>
</a>
</g>
</g>
<!-- Node2 -->
<g id="node2" class="node">
<title>Node2</title>
<g id="a_node2"><a xlink:href="structifx___fmcw___sequence___chirp.html" target="_top" xlink:title="A chirp in an acquisition sequence.">
<polygon fill="white" stroke="black" points="4,-78.5 4,-97.5 151,-97.5 151,-78.5 4,-78.5"/>
<text text-anchor="middle" x="77.5" y="-85.5" font-family="Helvetica,sans-Serif" font-size="10.00">ifx_Fmcw_Sequence_Chirp</text>
</a>
</g>
</g>
<!-- Node2&#45;&gt;Node1 -->
<g id="edge1" class="edge">
<title>Node2&#45;&gt;Node1</title>
<path fill="none" stroke="#9a32cd" stroke-dasharray="5,2" d="M77.5,-68.24C77.5,-56.41 77.5,-41.38 77.5,-30.58"/>
<polygon fill="#9a32cd" stroke="#9a32cd" points="74,-68.36 77.5,-78.36 81,-68.36 74,-68.36"/>
<text text-anchor="middle" x="91.5" y="-52" font-family="Helvetica,sans-Serif" font-size="10.00"> chirp</text>
</g>
</g>
</svg>
