<?xml version="1.0" encoding="UTF-8" standalone="no"?>
<!DOCTYPE svg PUBLIC "-//W3C//DTD SVG 1.1//EN"
 "http://www.w3.org/Graphics/SVG/1.1/DTD/svg11.dtd">
<!-- Generated by graphviz version 2.43.0 (0)
 -->
<!-- Title: ifx_RAI_Config_t Pages: 1 -->
<svg width="269pt" height="240pt"
 viewBox="0.00 0.00 269.00 240.00" xmlns="http://www.w3.org/2000/svg" xmlns:xlink="http://www.w3.org/1999/xlink">
<g id="graph0" class="graph" transform="scale(1 1) rotate(0) translate(4 236)">
<title>ifx_RAI_Config_t</title>
<polygon fill="white" stroke="transparent" points="-4,4 -4,-236 265,-236 265,4 -4,4"/>
<!-- Node1 -->
<g id="node1" class="node">
<title>Node1</title>
<g id="a_node1"><a xlink:title="Defines the structure for Range Angle Image module related settings.">
<polygon fill="#bfbfbf" stroke="black" points="40,-0.5 40,-19.5 136,-19.5 136,-0.5 40,-0.5"/>
<text text-anchor="middle" x="88" y="-7.5" font-family="Helvetica,sans-Serif" font-size="10.00">ifx_RAI_Config_t</text>
</a>
</g>
</g>
<!-- Node2 -->
<g id="node2" class="node">
<title>Node2</title>
<g id="a_node2"><a xlink:href="structifx___d_b_f___config__t.html" target="_top" xlink:title="Defines the structure for DBF module related settings.">
<polygon fill="white" stroke="black" points="0,-67.5 0,-86.5 100,-86.5 100,-67.5 0,-67.5"/>
<text text-anchor="middle" x="50" y="-74.5" font-family="Helvetica,sans-Serif" font-size="10.00">ifx_DBF_Config_t</text>
</a>
</g>
</g>
<!-- Node2&#45;&gt;Node1 -->
<g id="edge1" class="edge">
<title>Node2&#45;&gt;Node1</title>
<path fill="none" stroke="#9a32cd" stroke-dasharray="5,2" d="M60.29,-58.14C63.97,-51.78 68.16,-44.56 72,-38 75.53,-31.98 79.53,-25.23 82.64,-19.99"/>
<polygon fill="#9a32cd" stroke="#9a32cd" points="57.01,-56.82 55.04,-67.23 63.07,-60.32 57.01,-56.82"/>
<text text-anchor="middle" x="99" y="-41" font-family="Helvetica,sans-Serif" font-size="10.00"> dbf_config</text>
</g>
<!-- Node3 -->
<g id="node3" class="node">
<title>Node3</title>
<g id="a_node3"><a xlink:href="structifx___r_d_m___config__t.html" target="_top" xlink:title="Defines the structure for Range Doppler module related settings.">
<polygon fill="white" stroke="black" points="118.5,-67.5 118.5,-86.5 221.5,-86.5 221.5,-67.5 118.5,-67.5"/>
<text text-anchor="middle" x="170" y="-74.5" font-family="Helvetica,sans-Serif" font-size="10.00">ifx_RDM_Config_t</text>
</a>
</g>
</g>
<!-- Node3&#45;&gt;Node1 -->
<g id="edge2" class="edge">
<title>Node3&#45;&gt;Node1</title>
<path fill="none" stroke="#9a32cd" stroke-dasharray="5,2" d="M152.82,-60.5C144.82,-53.46 135.08,-45.12 126,-38 117.85,-31.61 108.35,-24.86 100.89,-19.71"/>
<polygon fill="#9a32cd" stroke="#9a32cd" points="150.64,-63.24 160.44,-67.28 155.29,-58.02 150.64,-63.24"/>
<text text-anchor="middle" x="167" y="-41" font-family="Helvetica,sans-Serif" font-size="10.00"> rdm_config</text>
</g>
<!-- Node4 -->
<g id="node4" class="node">
<title>Node4</title>
<g id="a_node4"><a xlink:href="structifx___p_p_f_f_t___config__t.html" target="_top" xlink:title="Defines the structure for pre&#45;processed FFT related settings.">
<polygon fill="white" stroke="black" points="115.5,-145.5 115.5,-164.5 224.5,-164.5 224.5,-145.5 115.5,-145.5"/>
<text text-anchor="middle" x="170" y="-152.5" font-family="Helvetica,sans-Serif" font-size="10.00">ifx_PPFFT_Config_t</text>
</a>
</g>
</g>
<!-- Node4&#45;&gt;Node3 -->
<g id="edge3" class="edge">
<title>Node4&#45;&gt;Node3</title>
<path fill="none" stroke="#9a32cd" stroke-dasharray="5,2" d="M170,-135.22C170,-119.7 170,-98.36 170,-86.62"/>
<polygon fill="#9a32cd" stroke="#9a32cd" points="166.5,-135.28 170,-145.28 173.5,-135.28 166.5,-135.28"/>
<text text-anchor="middle" x="215.5" y="-119" font-family="Helvetica,sans-Serif" font-size="10.00"> doppler_fft_config</text>
<text text-anchor="middle" x="215.5" y="-108" font-family="Helvetica,sans-Serif" font-size="10.00">range_fft_config</text>
</g>
<!-- Node5 -->
<g id="node5" class="node">
<title>Node5</title>
<g id="a_node5"><a xlink:href="structifx___window___config__t.html" target="_top" xlink:title="Defines the structure for Window module related settings.">
<polygon fill="white" stroke="black" points="110.5,-212.5 110.5,-231.5 229.5,-231.5 229.5,-212.5 110.5,-212.5"/>
<text text-anchor="middle" x="170" y="-219.5" font-family="Helvetica,sans-Serif" font-size="10.00">ifx_Window_Config_t</text>
</a>
</g>
</g>
<!-- Node5&#45;&gt;Node4 -->
<g id="edge4" class="edge">
<title>Node5&#45;&gt;Node4</title>
<path fill="none" stroke="#9a32cd" stroke-dasharray="5,2" d="M170,-202.04C170,-189.67 170,-174.12 170,-164.63"/>
<polygon fill="#9a32cd" stroke="#9a32cd" points="166.5,-202.23 170,-212.23 173.5,-202.23 166.5,-202.23"/>
<text text-anchor="middle" x="208" y="-186" font-family="Helvetica,sans-Serif" font-size="10.00"> window_config</text>
</g>
</g>
</svg>
