<?xml version="1.0" encoding="UTF-8" standalone="no"?>
<!DOCTYPE svg PUBLIC "-//W3C//DTD SVG 1.1//EN"
 "http://www.w3.org/Graphics/SVG/1.1/DTD/svg11.dtd">
<!-- Generated by graphviz version 2.43.0 (0)
 -->
<!-- Title: ifx_Fmcw_Sequence_Element Pages: 1 -->
<svg width="335pt" height="162pt"
 viewBox="0.00 0.00 334.50 162.00" xmlns="http://www.w3.org/2000/svg" xmlns:xlink="http://www.w3.org/1999/xlink">
<g id="graph0" class="graph" transform="scale(1 1) rotate(0) translate(4 158)">
<title>ifx_Fmcw_Sequence_Element</title>
<polygon fill="white" stroke="transparent" points="-4,4 -4,-158 330.5,-158 330.5,4 -4,4"/>
<!-- Node1 -->
<g id="node1" class="node">
<title>Node1</title>
<g id="a_node1"><a xlink:title="An element of an acquisition sequence.">
<polygon fill="#bfbfbf" stroke="black" points="75.5,-67.5 75.5,-86.5 237.5,-86.5 237.5,-67.5 75.5,-67.5"/>
<text text-anchor="middle" x="156.5" y="-74.5" font-family="Helvetica,sans-Serif" font-size="10.00">ifx_Fmcw_Sequence_Element</text>
</a>
</g>
</g>
<!-- Node1&#45;&gt;Node1 -->
<g id="edge4" class="edge">
<title>Node1&#45;&gt;Node1</title>
<path fill="none" stroke="#9a32cd" stroke-dasharray="5,2" d="M247.67,-80.98C252.58,-80.01 255.5,-78.68 255.5,-77 255.5,-74.38 248.39,-72.61 237.68,-71.71"/>
<polygon fill="#9a32cd" stroke="#9a32cd" points="247.14,-77.52 237.68,-82.29 248.05,-84.46 247.14,-77.52"/>
<text text-anchor="middle" x="291" y="-74.5" font-family="Helvetica,sans-Serif" font-size="10.00"> next_element</text>
</g>
<!-- Node2 -->
<g id="node2" class="node">
<title>Node2</title>
<g id="a_node2"><a xlink:href="structifx___fmcw___sequence___loop.html" target="_top" xlink:title="A loop in an acquisition sequence.">
<polygon fill="white" stroke="black" points="84,-0.5 84,-19.5 229,-19.5 229,-0.5 84,-0.5"/>
<text text-anchor="middle" x="156.5" y="-7.5" font-family="Helvetica,sans-Serif" font-size="10.00">ifx_Fmcw_Sequence_Loop</text>
</a>
</g>
</g>
<!-- Node1&#45;&gt;Node2 -->
<g id="edge2" class="edge">
<title>Node1&#45;&gt;Node2</title>
<path fill="none" stroke="#9a32cd" stroke-dasharray="5,2" d="M119.28,-63.03C107.64,-56.76 99.28,-48.33 105.5,-38 110.56,-29.59 119.22,-23.66 127.99,-19.55"/>
<polygon fill="#9a32cd" stroke="#9a32cd" points="118.09,-66.34 128.63,-67.4 121.05,-59.99 118.09,-66.34"/>
<text text-anchor="middle" x="142" y="-41" font-family="Helvetica,sans-Serif" font-size="10.00"> sub_sequence</text>
</g>
<!-- Node2&#45;&gt;Node1 -->
<g id="edge1" class="edge">
<title>Node2&#45;&gt;Node1</title>
<path fill="none" stroke="#9a32cd" stroke-dasharray="5,2" d="M176.02,-26.69C181.73,-33.22 185.68,-41.11 182.5,-49 179.58,-56.24 173.68,-62.63 168.24,-67.37"/>
<polygon fill="#9a32cd" stroke="#9a32cd" points="178.46,-24.17 168.84,-19.72 173.58,-29.2 178.46,-24.17"/>
<text text-anchor="middle" x="197" y="-41" font-family="Helvetica,sans-Serif" font-size="10.00"> loop</text>
</g>
<!-- Node3 -->
<g id="node3" class="node">
<title>Node3</title>
<g id="a_node3"><a xlink:href="structifx___fmcw___sequence___chirp.html" target="_top" xlink:title="A chirp in an acquisition sequence.">
<polygon fill="white" stroke="black" points="0,-134.5 0,-153.5 147,-153.5 147,-134.5 0,-134.5"/>
<text text-anchor="middle" x="73.5" y="-141.5" font-family="Helvetica,sans-Serif" font-size="10.00">ifx_Fmcw_Sequence_Chirp</text>
</a>
</g>
</g>
<!-- Node3&#45;&gt;Node1 -->
<g id="edge3" class="edge">
<title>Node3&#45;&gt;Node1</title>
<path fill="none" stroke="#9a32cd" stroke-dasharray="5,2" d="M92.57,-128.07C108.95,-115.24 132,-97.19 145.48,-86.63"/>
<polygon fill="#9a32cd" stroke="#9a32cd" points="90.41,-125.31 84.69,-134.23 94.72,-130.82 90.41,-125.31"/>
<text text-anchor="middle" x="134.5" y="-108" font-family="Helvetica,sans-Serif" font-size="10.00"> chirp</text>
</g>
<!-- Node4 -->
<g id="node4" class="node">
<title>Node4</title>
<g id="a_node4"><a xlink:href="structifx___fmcw___sequence___delay.html" target="_top" xlink:title="A delay in an acquisition sequence.">
<polygon fill="white" stroke="black" points="165.5,-134.5 165.5,-153.5 315.5,-153.5 315.5,-134.5 165.5,-134.5"/>
<text text-anchor="middle" x="240.5" y="-141.5" font-family="Helvetica,sans-Serif" font-size="10.00">ifx_Fmcw_Sequence_Delay</text>
</a>
</g>
</g>
<!-- Node4&#45;&gt;Node1 -->
<g id="edge5" class="edge">
<title>Node4&#45;&gt;Node1</title>
<path fill="none" stroke="#9a32cd" stroke-dasharray="5,2" d="M221.2,-128.07C204.62,-115.24 181.29,-97.19 167.65,-86.63"/>
<polygon fill="#9a32cd" stroke="#9a32cd" points="219.12,-130.88 229.17,-134.23 223.4,-125.35 219.12,-130.88"/>
<text text-anchor="middle" x="219" y="-108" font-family="Helvetica,sans-Serif" font-size="10.00"> delay</text>
</g>
</g>
</svg>
