<?xml version="1.0" encoding="UTF-8" standalone="no"?>
<!DOCTYPE svg PUBLIC "-//W3C//DTD SVG 1.1//EN"
 "http://www.w3.org/Graphics/SVG/1.1/DTD/svg11.dtd">
<!-- Generated by graphviz version 2.43.0 (0)
 -->
<!-- Title: ifx_RDM_Config_t Pages: 1 -->
<svg width="159pt" height="173pt"
 viewBox="0.00 0.00 158.50 173.00" xmlns="http://www.w3.org/2000/svg" xmlns:xlink="http://www.w3.org/1999/xlink">
<g id="graph0" class="graph" transform="scale(1 1) rotate(0) translate(4 169)">
<title>ifx_RDM_Config_t</title>
<polygon fill="white" stroke="transparent" points="-4,4 -4,-169 154.5,-169 154.5,4 -4,4"/>
<!-- Node1 -->
<g id="node1" class="node">
<title>Node1</title>
<g id="a_node1"><a xlink:title="Defines the structure for Range Doppler module related settings.">
<polygon fill="#bfbfbf" stroke="black" points="8,-0.5 8,-19.5 111,-19.5 111,-0.5 8,-0.5"/>
<text text-anchor="middle" x="59.5" y="-7.5" font-family="Helvetica,sans-Serif" font-size="10.00">ifx_RDM_Config_t</text>
</a>
</g>
</g>
<!-- Node2 -->
<g id="node2" class="node">
<title>Node2</title>
<g id="a_node2"><a xlink:href="structifx___p_p_f_f_t___config__t.html" target="_top" xlink:title="Defines the structure for pre&#45;processed FFT related settings.">
<polygon fill="white" stroke="black" points="5,-78.5 5,-97.5 114,-97.5 114,-78.5 5,-78.5"/>
<text text-anchor="middle" x="59.5" y="-85.5" font-family="Helvetica,sans-Serif" font-size="10.00">ifx_PPFFT_Config_t</text>
</a>
</g>
</g>
<!-- Node2&#45;&gt;Node1 -->
<g id="edge1" class="edge">
<title>Node2&#45;&gt;Node1</title>
<path fill="none" stroke="#9a32cd" stroke-dasharray="5,2" d="M59.5,-68.22C59.5,-52.7 59.5,-31.36 59.5,-19.62"/>
<polygon fill="#9a32cd" stroke="#9a32cd" points="56,-68.28 59.5,-78.28 63,-68.28 56,-68.28"/>
<text text-anchor="middle" x="105" y="-52" font-family="Helvetica,sans-Serif" font-size="10.00"> doppler_fft_config</text>
<text text-anchor="middle" x="105" y="-41" font-family="Helvetica,sans-Serif" font-size="10.00">range_fft_config</text>
</g>
<!-- Node3 -->
<g id="node3" class="node">
<title>Node3</title>
<g id="a_node3"><a xlink:href="structifx___window___config__t.html" target="_top" xlink:title="Defines the structure for Window module related settings.">
<polygon fill="white" stroke="black" points="0,-145.5 0,-164.5 119,-164.5 119,-145.5 0,-145.5"/>
<text text-anchor="middle" x="59.5" y="-152.5" font-family="Helvetica,sans-Serif" font-size="10.00">ifx_Window_Config_t</text>
</a>
</g>
</g>
<!-- Node3&#45;&gt;Node2 -->
<g id="edge2" class="edge">
<title>Node3&#45;&gt;Node2</title>
<path fill="none" stroke="#9a32cd" stroke-dasharray="5,2" d="M59.5,-135.04C59.5,-122.67 59.5,-107.12 59.5,-97.63"/>
<polygon fill="#9a32cd" stroke="#9a32cd" points="56,-135.23 59.5,-145.23 63,-135.23 56,-135.23"/>
<text text-anchor="middle" x="97.5" y="-119" font-family="Helvetica,sans-Serif" font-size="10.00"> window_config</text>
</g>
</g>
</svg>
